<svg width="75" height="18" viewBox="0 0 75 18" fill="none" xmlns="http://www.w3.org/2000/svg">
<path d="M50.6518 5.00767H45.904C45.7001 5.00767 45.5358 5.17201 45.5358 5.37592V6.62981C45.5358 6.83372 45.7001 6.99807 45.904 6.99807H50.7218C51.1722 6.99807 51.5344 7.36328 51.5344 7.81066V10.1845C51.5344 10.635 51.1692 10.9971 50.7218 10.9971H45.904C45.7001 10.9971 45.5358 11.1615 45.5358 11.3654V12.6315C45.5358 12.8354 45.7001 12.9997 45.904 12.9997H50.6518C52.2435 12.9997 53.5339 11.7093 53.5339 10.1176V7.88066C53.5339 6.28895 52.2435 4.99854 50.6518 4.99854" fill="#9E9E9E"/>
<path d="M44.5345 7.37235V10.1266C44.5345 11.7184 43.2441 13.0088 41.6524 13.0088H39.6863C39.5889 13.0088 39.4946 12.9692 39.4246 12.8992L38.5663 12.041L38.5298 11.9923V12.5462C38.5298 12.7775 38.3594 12.9692 38.1372 13.0027H35.8272C35.7664 13.0057 35.7085 13.0088 35.6477 13.0088H33.5203V13.1214C33.5203 14.7131 32.2299 16.0035 30.6382 16.0035H27.4122C25.8204 16.0035 24.53 14.7131 24.53 13.1214V9.37188C24.53 9.16797 24.6944 9.00363 24.8983 9.00363H26.1674C26.3713 9.00363 26.5356 9.16797 26.5356 9.37188V13.1914C26.5356 13.6418 26.9009 14.004 27.3482 14.004H30.7112C31.1586 14.004 31.5238 13.6388 31.5238 13.1914V13.0118H29.8986C29.6947 13.0118 29.5304 12.8475 29.5304 12.6436V11.3775C29.5304 11.2527 29.5943 11.1401 29.6886 11.0762C29.7495 11.0336 29.8225 11.0092 29.8986 11.0092H35.7177C35.7359 11.0092 35.7511 11.0092 35.7664 11.0092H36.5303V7.82277C36.5303 7.37539 36.1681 7.01018 35.7177 7.01018H32.2786C31.9499 7.01018 31.7856 6.61149 32.0169 6.38019L32.4521 5.94498L33.2708 5.1263C33.3408 5.0563 33.4351 5.01978 33.5325 5.01978H35.6477C35.9794 5.01978 36.299 5.07456 36.5972 5.17803C36.5972 5.17803 36.5972 5.17803 36.6003 5.17803C37.7233 5.57064 38.5298 6.64192 38.5298 7.89886V10.1358C38.5298 10.4188 38.5359 10.991 38.5298 11.0092H39.2298C39.2694 11.0153 39.3089 11.0153 39.3485 11.0153H41.7224C42.1728 11.0153 42.535 10.6501 42.535 10.2027V7.37843C42.535 7.17452 42.6993 7.01018 42.9032 7.01018H44.1571C44.361 7.01018 44.5254 7.17452 44.5254 7.37843" fill="#9E9E9E"/>
<path d="M37.1633 14.001H35.9003C35.6964 14.001 35.532 14.1653 35.532 14.3692V15.6292C35.532 15.8331 35.6964 15.9975 35.9003 15.9975H37.1633C37.3672 15.9975 37.5346 15.8331 37.5346 15.6292V14.3692C37.5346 14.1653 37.3703 14.001 37.1633 14.001Z" fill="#9E9E9E"/>
<path d="M43.165 14.001H39.9024C39.6985 14.001 39.5341 14.1653 39.5341 14.3692V15.6292C39.5341 15.8331 39.6985 15.9975 39.9024 15.9975H43.165C43.3689 15.9975 43.5332 15.8331 43.5332 15.6292V14.3692C43.5332 14.1653 43.3689 14.001 43.165 14.001Z" fill="#9E9E9E"/>
<path d="M6.48555 8.99133H8.93551C9.45289 8.99133 9.71462 8.36743 9.34941 8.00222C9.06637 7.71309 8.77725 7.41788 8.56421 7.2018C8.45465 7.08919 8.30552 7.02832 8.14726 7.02832H6.47642C6.12642 7.02832 5.7886 7.08919 5.47817 7.2018C4.34297 7.61266 3.53646 8.60177 3.53646 9.88914V11.4017C3.53646 11.6635 3.7495 11.8765 4.01124 11.8765H6.1386C6.60728 11.8765 6.98771 12.2569 6.99075 12.7256V13.1913C6.99075 13.6386 6.62554 14.0039 6.17816 14.0039H2.81517C2.36779 14.0039 2.00258 13.6386 2.00258 13.1913V9.37176C2.00258 9.16785 1.83823 9.00351 1.63432 9.00351H0.368255C0.164345 9.00351 0 9.16785 0 9.37176V13.1213C0 14.713 1.29041 16.0034 2.88213 16.0034H6.10816C7.65422 16.0034 8.9142 14.786 8.9842 13.2552H8.98725V13.1882C8.98725 13.1639 8.99029 13.1426 8.99029 13.1182V12.7226H8.98725C8.98725 11.3713 8.04683 10.2361 6.78685 9.93175C6.61337 9.89827 6.43076 9.88001 6.24512 9.88001H5.54817C5.55426 9.74306 5.58469 9.60915 5.65165 9.48741C5.81295 9.1922 6.12947 8.99133 6.48859 8.99133" fill="#9E9E9E"/>
<path d="M17.9014 3.97273H19.1523C19.3532 3.97273 19.5175 3.80838 19.5175 3.60751V2.35667C19.5175 2.1558 19.3532 1.99146 19.1523 1.99146H17.9014C17.7006 1.99146 17.5362 2.1558 17.5362 2.35667V3.60751C17.5362 3.80838 17.7006 3.97273 17.9014 3.97273Z" fill="#9E9E9E"/>
<path d="M22.4636 7.19889C22.1592 5.93282 21.0179 4.99545 19.6606 4.99545H17.4297C15.838 4.99545 14.5446 6.28586 14.5446 7.88062L14.5506 9.83754V9.87102C14.5506 9.96841 14.5902 10.0628 14.6602 10.1328L15.5154 10.988L15.5641 11.0245H15.0132C15.0132 11.0245 14.9859 11.0245 14.9737 11.0275H13.592C13.0015 11.0275 12.5207 10.5467 12.5207 9.95623V4.3198C12.5207 4.1159 12.3563 3.95459 12.1555 3.95459H10.9168C10.7129 3.95459 10.5516 4.11894 10.5516 4.3198V10.1541C10.5516 11.7336 11.8298 13.0118 13.4094 13.0118H14.2554C14.2554 13.0118 14.2433 13.0149 14.2463 13.0149H14.8946H16.1637H20.5736C21.651 13.0149 22.5244 12.1414 22.5244 11.064V7.74062C22.5244 7.55497 22.5062 7.3754 22.4696 7.19889M20.531 10.3032C20.531 10.6988 20.2084 11.0214 19.8127 11.0214H16.5319V7.82888C16.5319 7.35715 16.9154 6.97672 17.3841 6.97672H19.6758C20.1475 6.97672 20.5279 7.35715 20.5279 7.82888V10.3032H20.531Z" fill="#9E9E9E"/>
<path d="M56.5134 8.99145C56.5134 6.32845 56.5134 3.66545 56.5134 1.00245C56.5134 0.384633 56.8939 0.00724661 57.5117 0.00724661C60.9781 0.00724661 64.4476 -0.0140531 67.9141 0.0163812C70.2119 0.0346417 72.0319 1.03593 73.3527 2.91068C74.0862 3.95153 74.4757 5.12325 74.494 6.39845C74.5183 8.07538 74.5275 9.75231 74.5092 11.4292C74.4879 13.1062 73.9127 14.5853 72.7775 15.8239C71.5632 17.1509 70.0476 17.8691 68.2489 17.9817C68.0145 17.997 67.7802 18 67.5459 18C64.2194 18 60.8929 18 57.5665 18C56.8847 18 56.5165 17.6287 56.5165 16.9409C56.5165 14.2901 56.5165 11.6392 56.5165 8.98841L56.5134 8.99145ZM69.3263 9.62448C69.3263 8.51059 69.308 7.39669 69.3354 6.2828C69.3476 5.70455 69.2502 5.17804 68.9489 4.67587C68.6993 4.25892 68.4954 3.81458 68.2824 3.37937C68.1819 3.17546 68.0511 3.0659 67.8046 3.07807C67.3846 3.09633 66.9615 3.0872 66.5385 3.08111C66.4015 3.08111 66.3407 3.13285 66.3589 3.26676C66.365 3.3185 66.3711 3.37024 66.3802 3.42197C66.5202 4.36239 66.7576 5.2876 66.7272 6.25541C66.715 6.69671 66.9493 7.0467 67.348 7.26583C67.6219 7.41495 67.9172 7.43626 68.2185 7.42409C68.3889 7.418 68.4406 7.48495 68.4406 7.6493C68.4376 9.55448 68.4406 11.4597 68.4376 13.3649C68.4376 13.8609 68.1606 14.1318 67.6615 14.1318C65.732 14.1318 63.8024 14.1318 61.8729 14.1318C61.8212 14.1318 61.7664 14.1318 61.7146 14.1288C61.3677 14.0983 61.0968 13.8305 61.0968 13.5018C61.0938 11.5327 61.0968 9.56057 61.0938 7.59148C61.0938 7.46974 61.1394 7.42713 61.2581 7.42409C61.4377 7.42104 61.6203 7.41496 61.7999 7.39061C62.3385 7.31452 62.7951 6.84583 62.8042 6.19454C62.8072 5.89019 62.789 5.58281 62.8316 5.28456C62.9229 4.63022 63.0477 3.98197 63.1603 3.33067C63.1938 3.13894 63.1511 3.08111 62.9594 3.08111C62.5425 3.08111 62.1255 3.09328 61.7116 3.07502C61.4742 3.06589 61.3434 3.16024 61.2429 3.36111C60.9568 3.93327 60.6677 4.50239 60.3695 5.06543C60.2477 5.29673 60.196 5.53107 60.196 5.78976C60.199 7.91103 60.196 10.0353 60.196 12.1566C60.196 12.6253 60.1838 13.094 60.196 13.5596C60.2234 14.3753 60.9021 15.0235 61.7207 15.0235C63.7203 15.0235 65.7198 15.0235 67.7224 15.0235C68.6567 15.0235 69.3293 14.354 69.3293 13.4166C69.3293 12.1505 69.3293 10.8845 69.3293 9.61839L69.3263 9.62448ZM64.7824 3.08415C64.5359 3.08415 64.2894 3.09024 64.0429 3.08415C63.9029 3.08111 63.839 3.14502 63.8177 3.27285C63.7903 3.44024 63.7598 3.60763 63.7294 3.77197C63.5772 4.61804 63.3946 5.46107 63.4677 6.32845C63.4798 6.4654 63.5133 6.60844 63.5742 6.72714C63.7203 7.01322 63.9546 7.21409 64.2468 7.34495C65.0381 7.70408 65.8507 7.21105 66.0241 6.4928C66.1154 6.10324 66.0911 5.67107 66.0424 5.26934C65.9602 4.58761 65.8172 3.91197 65.7015 3.23328C65.6833 3.13285 65.6346 3.08111 65.525 3.08415C65.2785 3.09024 65.032 3.08415 64.7855 3.08415H64.7824ZM64.7824 12.6375C64.822 12.6375 64.8798 12.6375 64.9376 12.6283C65.0015 12.6223 65.0655 12.6131 65.1294 12.607C65.9754 12.5279 66.7059 12.1931 67.3328 11.6271C67.3906 11.5753 67.4333 11.4962 67.4515 11.4232C67.4941 11.2405 67.3876 11.0336 67.2233 10.9484C67.062 10.8632 66.8946 10.8875 66.7394 11.0184C65.9785 11.6605 65.1142 11.9253 64.1281 11.7092C63.6685 11.6088 63.2607 11.4018 62.8925 11.1066C62.8103 11.0427 62.722 10.9788 62.6277 10.9423C62.4055 10.8601 62.2046 10.9271 62.1073 11.1005C62.0068 11.2771 62.0464 11.5114 62.2138 11.6575C62.9442 12.2966 63.7964 12.6131 64.7824 12.6375Z" fill="#9E9E9E"/>
</svg>
