<svg xmlns="http://www.w3.org/2000/svg" width="146" height="20.145" viewBox="0 0 146 20.145">
    <defs>
        <style>
            .cls-1{fill:#26a79a}.cls-3{fill:#5b5c60}
        </style>
    </defs>
    <g id="Affilio_logo" transform="translate(1065.386 66.585)">
        <path id="Path_1582" d="M623.669 7.624l-5.2-.026h-.513V-1.5h5.591V.171h-3.759v1.954h3.436v1.687h-3.44v2.072h3.8l.085 1.574z" class="cls-1" transform="translate(-1543.054 -59.665)"/>
        <path id="Path_1583" fill="#cdd05e" d="M685.533 88.583l-.085-1.574h.085z" transform="translate(-1604.919 -140.791)"/>
        <path id="Path_1584" d="M-1064.495-66.585c.887.005 1.773.016 2.66.016q4.885 0 9.77-.008a7.372 7.372 0 0 1 6.809 6.4 43.9 43.9 0 0 1 .088 4.389 15.1 15.1 0 0 1-.2 3.631 7.407 7.407 0 0 1-7.175 5.7c-3.885.023-7.769.007-11.654 0a1.057 1.057 0 0 1-1.187-1.173q-.006-8.9-.006-17.794a1.068 1.068 0 0 1 .895-1.161zm9.241 12.617c.125 0 .25.008.374 0 .221-.017.443-.036.661-.07a7.332 7.332 0 0 0 4.587-2.531.552.552 0 0 0-.111-.917c-.21-.158-.429-.3-.645-.455-.539-.374-.677-.352-1.132.107a5.071 5.071 0 0 1-4.978 1.468 4.99 4.99 0 0 1-2.6-1.546c-.332-.358-.535-.376-.938-.105-.229.155-.454.316-.68.477-.469.333-.507.629-.118 1.06a7.378 7.378 0 0 0 5.581 2.512z" class="cls-3"/>
        <path id="Path_1585" d="M-587.275-1.731c.079-.815.161-.886.935-.887h.791c.524.009.7.178.7.7v5.643c0 1.092.045 2.19-.049 3.274a3.405 3.405 0 0 1-3.331 3.061c-.6.016-1.195.03-1.789-.008a.94.94 0 0 1-.588-.3 17.18 17.18 0 0 1-1.052-1.388c-.084-.12-.161-.344-.1-.438a.592.592 0 0 1 .436-.226c.971-.02 1.943 0 2.914-.014a1.039 1.039 0 0 0 1.151-1.1h-3.362a3.35 3.35 0 0 1-2.736-1.338 3.159 3.159 0 0 1-.715-1.951c-.013-.788-.013-1.577-.007-2.365a3.452 3.452 0 0 1 3.426-3.542c.776-.031 1.555-.032 2.33.006a1.245 1.245 0 0 1 .624.323 3.187 3.187 0 0 1 .422.55zm.024 1.491c-1.127 0-2.207-.005-3.287 0a1.11 1.11 0 0 0-1.19 1.192c-.006.676 0 1.353 0 2.029a1.145 1.145 0 0 0 1.256 1.265c.97.005 1.939 0 2.908 0 .105 0 .21-.02.313-.03z" class="cls-3" transform="translate(-432.019 -58.624)"/>
        <path id="Path_1586" d="M-761.033-37.833v-2.419c0-.673.12-.789.808-.792.319 0 .638-.008.957 0 .44.014.61.177.61.608v11.2c0 .46-.163.607-.637.612h-.915c-.71 0-.776-.06-.849-.776-.036.017-.083.023-.094.046a1.406 1.406 0 0 1-1.59.74c-.593-.047-1.192 0-1.788-.012a3.438 3.438 0 0 1-3.353-3.262c-.03-.787-.014-1.575-.01-2.363a3.481 3.481 0 0 1 3.565-3.578c1.079-.016 2.159-.004 3.296-.004zm-.019 2.378c-1.131 0-2.212-.005-3.294 0a1.119 1.119 0 0 0-1.191 1.2q-.013 1.037 0 2.075a1.14 1.14 0 0 0 1.236 1.209c.833.007 1.666 0 2.5 0h.749z" class="cls-3" transform="translate(-272.691 -23.409)"/>
        <path id="Path_1587" d="M-135.537 5.783c-.336.918-1.074.86-1.81.83-.471-.019-.943 0-1.415 0a3.362 3.362 0 0 1-3.566-3.018 12.724 12.724 0 0 1 .017-3.223 3.34 3.34 0 0 1 3.377-2.954c1.719-.043 3.441-.015 5.161-.009.452 0 .625.187.625.637v7.965c0 .441-.159.593-.6.6h-.874c-.737-.001-.813-.07-.915-.828zm.02-6c-1.144 0-2.239-.006-3.333 0A1.078 1.078 0 0 0-140 .925c-.008.719-.006 1.438 0 2.157a1.106 1.106 0 0 0 1.2 1.186c.943.008 1.887 0 2.83 0h.454z" class="cls-3" transform="translate(-846.043 -58.645)"/>
        <path id="Path_1588" d="M-309.017 5.8c-.05.014-.071.014-.074.022-.383.782-1.066.841-1.822.781-.455-.036-.915-.006-1.374-.007a3.409 3.409 0 0 1-3.554-3.268 19.206 19.206 0 0 1 0-2.653 3.4 3.4 0 0 1 3.392-3.269c1.733-.052 3.469-.018 5.2-.013.436 0 .609.178.609.607q.006 4 0 8.009c0 .442-.155.581-.612.587h-.916c-.747.004-.798-.045-.849-.796zM-309-.232h-.408c-1.026 0-2.053-.015-3.078.013a1.048 1.048 0 0 0-.994 1.081c-.014.746-.011 1.493 0 2.239a1.107 1.107 0 0 0 1.15 1.155c.374.013.749 0 1.123 0H-309z" class="cls-3" transform="translate(-687.036 -58.632)"/>
        <path id="Path_1589" d="M-418.081-33.694l2.013-2.631a14.3 14.3 0 0 1 .9-1.144 1.115 1.115 0 0 1 .658-.329 13.729 13.729 0 0 1 1.705-.006.581.581 0 0 1 .442.207.588.588 0 0 1-.124.474q-1.369 1.828-2.769 3.632a.423.423 0 0 0 0 .633q1.38 1.766 2.717 3.567a.657.657 0 0 1 .131.5c-.032.1-.29.168-.45.174-.554.021-1.11-.006-1.665.013a.8.8 0 0 1-.735-.36c-.93-1.239-1.879-2.464-2.872-3.759-.018.162-.038.257-.038.352v3.112c0 .5-.147.644-.64.649h-1.124c-.44-.006-.592-.16-.61-.6v-.207-10.788c0-.706.112-.817.823-.82h.791c.631 0 .761.13.761.75V-33.728z" class="cls-3" transform="translate(-591.098 -23.43)"/>
        <path id="Path_1590" d="M425.347 7.161L427.6.8c.285-.807.581-1.611.845-2.425a.426.426 0 0 1 .5-.348c.54.023 1.082-.008 1.622.018a.474.474 0 0 1 .354.234q1.551 4.327 3.072 8.665c.017.049.023.1.047.213-.619 0-1.209.009-1.8-.011-.08 0-.189-.139-.227-.235a11.131 11.131 0 0 1-.379-1.1.348.348 0 0 0-.4-.306q-1.539.019-3.079 0a.332.332 0 0 0-.378.284 10.845 10.845 0 0 1-.372 1.1.451.451 0 0 1-.3.257c-.562.029-1.128.015-1.758.015zm4.365-7.04l-1.241 3.665h2.48z" class="cls-1" transform="translate(-1366.495 -59.229)"/>
        <path id="Path_1591" d="M-4.426 7.147c.447-1.278.868-2.487 1.294-3.695.6-1.692 1.2-3.381 1.793-5.076.09-.258.2-.378.492-.362.54.028 1.082-.006 1.622.019a.476.476 0 0 1 .36.226Q2.7 2.623 4.238 7a.684.684 0 0 1 0 .143c-.6 0-1.2.007-1.8-.01-.068 0-.161-.129-.194-.217-.141-.374-.277-.752-.389-1.135a.331.331 0 0 0-.378-.281c-1.026.011-2.053.013-3.08 0a.349.349 0 0 0-.4.306c-.062.24-.152.473-.236.707-.274.771-.073.622-.909.637-.405.003-.807-.003-1.278-.003zM-.019.242L-.114.231l-1.191 3.541h2.477z" class="cls-1" transform="translate(-972.539 -59.214)"/>
        <path id="Path_1592" d="M198.365.127h-3.625v2.131h3.513v1.749h-3.528v3.5H192.9V-1.56h5.461z" class="cls-1" transform="translate(-1153.424 -59.606)"/>
        <path id="Path_1593" d="M116.512-1.492V.183h-3.635v2.142h3.523v1.728h-3.528v3.514h-1.82v-9.059z" class="cls-1" transform="translate(-1078.393 -59.668)"/>
        <path id="Path_1594" d="M-187.39-34.65v-5.477c0-.634.1-.731.715-.734.347 0 .694-.006 1.041 0 .439.009.59.166.6.609v11.079c0 .582-.129.711-.7.713h-.666c-.977 0-.987-.009-.987-.964z" class="cls-3" transform="translate(-804.823 -23.578)"/>
        <path id="Path_1595" d="M531.448.147H529v7.376h-1.831V.152h-2.435v-1.7h6.711z" class="cls-1" transform="translate(-1457.601 -59.616)"/>
        <path id="Path_1596" d="M322.3 5.84v1.718H317v-9.063h1.8V5.84z" class="cls-1" transform="translate(-1267.186 -59.656)"/>
        <path id="Path_1597" d="M-639.755 2.1v-3.9c0-.561.149-.7.717-.707.346 0 .693-.007 1.04 0 .414.01.6.173.6.573q.008 4.041 0 8.082a.492.492 0 0 1-.57.551c-.388-.006-.776 0-1.164 0-.47-.006-.619-.151-.621-.623-.005-1.325-.002-2.651-.002-3.976z" class="cls-3" transform="translate(-390.158 -58.737)"/>
        <path id="Path_1598" d="M-463.631 2.117v3.9c0 .535-.131.667-.653.671h-1.123c-.374 0-.573-.167-.573-.546v-8.123a.492.492 0 0 1 .549-.536q.6-.015 1.206 0c.427.01.591.181.593.617.003 1.337.001 2.677.001 4.017z" class="cls-3" transform="translate(-549.45 -58.72)"/>
        <path id="Path_1599" d="M276.695-1.63v9.067h-1.786V-1.63z" class="cls-1" transform="translate(-1228.594 -59.542)"/>
        <path id="Path_1600" d="M393.114 7.538v-9.045h1.772v9.045z" class="cls-1" transform="translate(-1336.948 -59.654)"/>
        <path id="Path_1601" fill="#5b5d60" d="M-638.589-38.73c-1.182 0-1.182 0-1.181-1.191 0-.152-.008-.3.005-.456a.44.44 0 0 1 .447-.454c.485-.014.97-.013 1.454 0 .305.008.44.208.447.493.009.345.013.691 0 1.036-.012.412-.172.56-.593.572-.19.004-.39-.001-.579 0z" transform="translate(-390.142 -23.598)"/>
        <path id="Path_1602" fill="#5b5c5f" d="M-464.812-40.855c1.153 0 1.153 0 1.153 1.167v.414a.474.474 0 0 1-.51.525q-.665.017-1.33 0a.474.474 0 0 1-.509-.527c0-.331-.006-.663 0-.994.008-.429.146-.57.573-.584.207-.007.415-.001.623-.001z" transform="translate(-549.422 -23.584)"/>
    </g>
</svg>
