<svg xmlns="http://www.w3.org/2000/svg" viewBox="0 0 480 136"><defs><style>.cls-1{fill:#0040ff;}</style></defs><g id="Layer_2" data-name="Layer 2"><g id="Layer_1-2" data-name="Layer 1"><path class="cls-1" d="M112,64v8a32,32,0,0,0,32,32h32a16,16,0,0,1-16,16H135l9,16h16a32,32,0,0,0,32-32V32H144a32,32,0,0,0-32,32m64,24H144a16,16,0,0,1-16-16V64a16,16,0,0,1,16-16h32Z"/><path class="cls-1" d="M464,32V88H432a16,16,0,0,1-16-16V32H400V72a32,32,0,0,0,32,32h32a16,16,0,0,1-16,16H423l9,16h16a32,32,0,0,0,32-32V32Z"/><path class="cls-1" d="M312,64v8a32,32,0,0,0,32,32h48V32H344a32,32,0,0,0-32,32m64,24H344a16,16,0,0,1-16-16V64a16,16,0,0,1,16-16h32Z"/><rect class="cls-1" x="88" y="32" width="16" height="72"/><path class="cls-1" d="M64,32H32A32,32,0,0,0,0,64v8a32,32,0,0,0,32,32H80V0H64Zm0,56H32A16,16,0,0,1,16,72V64A16,16,0,0,1,32,48H64Z"/><path class="cls-1" d="M272,32H224V136h16V104h32a32,32,0,0,0,32-32V64a32,32,0,0,0-32-32m16,40a16,16,0,0,1-16,16H240V48h32a16,16,0,0,1,16,16Z"/><rect class="cls-1" x="88" width="16" height="16"/><rect class="cls-1" x="200" y="32" width="16" height="72"/><rect class="cls-1" x="200" width="16" height="16"/></g></g></svg>
