<svg width="100" height="16" viewBox="0 0 100 16" fill="none" xmlns="http://www.w3.org/2000/svg">
<path d="M5.61204 15.7593H0V0.476318H5.71216C9.89007 0.476318 13.2941 3.84246 13.3726 7.97979C13.4537 12.2605 9.91172 15.7593 5.61204 15.7593ZM1.75072 14.0275H5.61204C8.87536 14.0275 11.6002 11.4433 11.6408 8.19626C11.6814 4.9167 9.01336 2.20809 5.71216 2.20809H1.73448V14.0275H1.75342H1.75072Z" fill="#9E9E9E"/>
<path d="M16.7116 0.47876H15.0448V15.759H16.7116V0.47876Z" fill="#9E9E9E"/>
<path d="M37.7257 0.47876H36.0588V15.759H37.7257V0.47876Z" fill="#9E9E9E"/>
<path d="M63.5184 0.240723H51.5772V2.01309H56.6724V15.7618H58.4231V2.01309H63.5184V0.240723Z" fill="#9E9E9E"/>
<path d="M99.5744 2.11042V0.47876H89.7845V15.759H99.5744V14.0299H91.5162V8.97529H97.821V7.26516H91.5162V2.11042H99.5744Z" fill="#9E9E9E"/>
<path d="M45.7488 16C42.2094 16 39.6415 13.8894 39.6415 10.9643H41.3923C41.3923 12.8963 43.1809 14.2276 45.7488 14.2276C49.8672 14.2276 49.8671 11.9601 49.8671 11.2051C49.8671 10.0497 49.51 8.81853 45.4295 8.49653H45.4078C43.8384 8.35582 42.6018 7.97971 41.7467 7.34111C40.7916 6.62676 40.2531 5.61204 40.2531 4.37545C40.2531 1.80755 42.4043 0 45.4863 0C48.5683 0 51.0009 1.86978 51.0009 4.37545H49.2475C49.2475 2.90614 47.6375 1.76695 45.489 1.76695C43.3405 1.76695 41.9876 2.78438 41.9876 4.37545C41.9876 4.87333 41.9876 6.40487 45.5485 6.74581C47.4968 6.88381 48.8524 7.2437 49.8049 7.84171C51.0009 8.57771 51.5773 9.68984 51.5773 11.2051C51.5773 12.7204 51.0577 13.8678 50.1026 14.7066C49.1284 15.5616 47.6537 16 45.7461 16" fill="#9E9E9E"/>
<path d="M75.814 0.47876L71.0354 8.23658L66.2432 0.47876H64.2328L70.1641 10.1091V15.7617H71.8959V10.1497L77.8434 0.47876H75.814Z" fill="#9E9E9E"/>
<path d="M80.5114 14.0301V0.481689H78.8012V15.7646H88.1122V14.0301H80.5114Z" fill="#9E9E9E"/>
<path d="M26.5069 16.0002C22.1694 16.0002 18.6247 12.4582 18.6247 8.11789C18.6247 3.77762 22.1667 0.235596 26.5069 0.235596C29.0532 0.235596 31.4615 1.46949 32.9335 3.56115L31.502 4.57857C30.3466 2.96315 28.4985 2.01066 26.5069 2.01066C23.1435 2.01066 20.3997 4.73551 20.3997 8.11789C20.3997 11.5003 23.1462 14.2251 26.5069 14.2251C29.57 14.2251 32.119 11.9576 32.5573 9.03248H26.5069V7.20329H34.3865V8.11789C34.4082 12.4771 30.8851 16.0002 26.5069 16.0002Z" fill="#9E9E9E"/>
</svg>
