<svg xmlns="http://www.w3.org/2000/svg" viewBox="0 0 581.39 141.36"><defs><style>.cls-1{fill:#92278f;}</style></defs><g id="Layer_2" data-name="Layer 2"><g id="Layer_1-2" data-name="Layer 1"><path class="cls-1" d="M89.32,0h-82A7.44,7.44,0,0,0,0,7.32L.12,134a7.26,7.26,0,0,0,7.21,7.32h82a52.28,52.28,0,0,0,52.3-52.2v-37A52.28,52.28,0,0,0,89.32,0Zm23.33,76.08a3.47,3.47,0,0,1-3.49,3.36h-1A26.53,26.53,0,0,0,79.59,108c0,.12-.12.12-.12.24h.12V109a3.49,3.49,0,0,1-3.49,3.48H65.52A3.49,3.49,0,0,1,62,109v-.72h.12c0-.12-.12-.12-.12-.24A26.53,26.53,0,0,0,33.42,79.44h-1A3.47,3.47,0,0,1,29,76.08V65.4A3.39,3.39,0,0,1,32.46,62s.84-.12,1,0a27.24,27.24,0,0,0,20.92-7.8A26.36,26.36,0,0,0,62,33.48V32.4a3.49,3.49,0,0,1,3.49-3.48H76.1a3.49,3.49,0,0,1,3.49,3.48v1.08a26.32,26.32,0,0,0,7.69,20.76A27.25,27.25,0,0,0,108.2,62c.12-.12,1,0,1,0a3.39,3.39,0,0,1,3.49,3.36Z"/><path class="cls-1" d="M70.81,50.16a38.12,38.12,0,0,1-8.18,12.36,38.2,38.2,0,0,1-12.38,8.16,38.2,38.2,0,0,1,12.38,8.16,37.38,37.38,0,0,1,8.18,12.48A37.51,37.51,0,0,1,79,78.84a38.35,38.35,0,0,1,12.39-8.16A38.35,38.35,0,0,1,79,62.52,38.26,38.26,0,0,1,70.81,50.16Z"/><path class="cls-1" d="M563.47,101.88a17.55,17.55,0,0,0,4.69-34.56L535.94,58.8a2,2,0,0,1-1.56-2.28,2.06,2.06,0,0,1,2-1.56h35.94a3.13,3.13,0,0,0,3.13-3.24V42.48a3.1,3.1,0,0,0-3.13-3.12H536.79c-9.62,0-17.79,7.56-17.92,17.16a17.51,17.51,0,0,0,13.23,17.4l32.22,8.52a1.93,1.93,0,0,1,1.44,2.28,2.06,2.06,0,0,1-2,1.68H525.37a3.1,3.1,0,0,0-3.13,3.12v9.24a3.18,3.18,0,0,0,3.13,3.12h38.1"/><path class="cls-1" d="M440.49,98.88a3.23,3.23,0,0,1-3.25,3.24H428a3.23,3.23,0,0,1-3.25-3.24V19A3.23,3.23,0,0,1,428,15.72h9.61a2.85,2.85,0,0,1,2.89,2.88Z"/><path class="cls-1" d="M212.43,86.4H187.66a6.72,6.72,0,0,1-6.73-6.72v-18A6.72,6.72,0,0,1,187.66,55h24.77Zm12.74-70.68h-9.85a2.92,2.92,0,0,0-2.89,2.88V39.24H187a23.79,23.79,0,0,0-4.33.48A22.78,22.78,0,0,0,165.19,61.8V79.32A22.8,22.8,0,0,0,188,102.12h15.27a2.92,2.92,0,0,0,1.69-.6c.12-.12.24-.12.36-.24l7.09-7.2v5.16a2.92,2.92,0,0,0,2.89,2.88h9.61a3.24,3.24,0,0,0,3.13-2.28c0-.12.12-.24.12-.48V18.6A3,3,0,0,0,225.17,15.72Z"/><path class="cls-1" d="M369.8,55h24.64a6.71,6.71,0,0,1,6.73,6.72v18a6.71,6.71,0,0,1-6.73,6.72H369.8Zm-12.86,70.68h9.85a3,3,0,0,0,3-2.88V102.12h25.49a16.11,16.11,0,0,0,4.2-.48,22.79,22.79,0,0,0,17.44-22.08V62a22.79,22.79,0,0,0-22.73-22.8H378.94a3,3,0,0,0-1.81.6c-.12.12-.24.24-.36.24l-7.09,7.2v-5a2.87,2.87,0,0,0-2.89-3h-9.61a3.36,3.36,0,0,0-3.13,2.28v81.24A2.85,2.85,0,0,0,356.94,125.64Z"/><path class="cls-1" d="M306.8,86.4H282a6.72,6.72,0,0,1-6.74-6.72v-18A6.72,6.72,0,0,1,282,55H306.8Zm15.63-44.88a3,3,0,0,0-3-2.16h-9.74a2.93,2.93,0,0,0-2.89,2.88v4.92l-.12-.12-6.85-6.84a3.4,3.4,0,0,0-2-.84H282.4A22.7,22.7,0,0,0,259.56,62V79.68A22.78,22.78,0,0,0,277,101.76a25.3,25.3,0,0,0,4.33.36H306.8v.36a7.25,7.25,0,0,1-.84,3.6,7.58,7.58,0,0,1-6.61,4H280a4.6,4.6,0,0,0-3.36,7.8c2.28,2.28,4.57,4.56,6.25,6.36a4.64,4.64,0,0,0,3.25,1.32h13.22a25,25,0,0,0,7.94-1.32,23.65,23.65,0,0,0,15.26-22.08V42A.72.72,0,0,0,322.43,41.52Z"/><path class="cls-1" d="M251.74,42.24v57a2.92,2.92,0,0,1-2.88,2.88h-10A2.92,2.92,0,0,1,236,99.24v-57a3,3,0,0,1,2.89-3h10A3,3,0,0,1,251.74,42.24Z"/><path class="cls-1" d="M251.74,18.6v10a2.92,2.92,0,0,1-2.88,2.88h-10A2.92,2.92,0,0,1,236,28.56v-10a2.92,2.92,0,0,1,2.89-2.88h10A2.92,2.92,0,0,1,251.74,18.6Z"/><path class="cls-1" d="M346.12,42.24v57a2.93,2.93,0,0,1-2.89,2.88h-10a2.92,2.92,0,0,1-2.88-2.88v-57a3,3,0,0,1,2.88-3h10A3,3,0,0,1,346.12,42.24Z"/><path class="cls-1" d="M495.55,42V86.4H470.91a6.72,6.72,0,0,1-6.74-6.72V42a2.92,2.92,0,0,0-2.88-2.88h-10A2.93,2.93,0,0,0,448.42,42V79.32a22.79,22.79,0,0,0,22.73,22.8h15.26a3,3,0,0,0,1.81-.6c.12-.12.24-.12.24-.24l7.09-7.2v5.16a3,3,0,0,0,3,2.88h9.62a3.16,3.16,0,0,0,3-2,1.52,1.52,0,0,0,.12-.72V42a2.92,2.92,0,0,0-2.89-2.88h-9.86A3,3,0,0,0,495.55,42Z"/><path class="cls-1" d="M346.12,18.6v10a2.93,2.93,0,0,1-2.89,2.88h-10a2.92,2.92,0,0,1-2.88-2.88v-10a2.92,2.92,0,0,1,2.88-2.88h10A2.93,2.93,0,0,1,346.12,18.6Z"/></g></g></svg>
