<svg xmlns="http://www.w3.org/2000/svg" viewBox="0 0 89.25 20.14"><defs><style>.cls-1{fill:#003764;}</style></defs><g id="Layer_2" data-name="Layer 2"><g id="Layer_1-2" data-name="Layer 1"><rect class="cls-1" x="33.51" y="2.31" width="2.23" height="2.23" rx="0.41"/><rect class="cls-1" x="46.89" y="5.65" width="2.23" height="8.92" rx="0.41"/><rect class="cls-1" x="63.61" y="9" width="5.58" height="2.23" rx="0.41"/><path class="cls-1" d="M32,2.31H30.57a.41.41,0,0,0-.41.41V5.65H26.55a3.08,3.08,0,0,0-.61.06,3.23,3.23,0,0,0-2.47,3.14v2.49a3.23,3.23,0,0,0,3.23,3.23h2.17a.43.43,0,0,0,.24-.08l.05,0h0l1-1v.72a.41.41,0,0,0,.42.41H32a.48.48,0,0,0,.44-.31V2.72A.41.41,0,0,0,32,2.31Zm-1.82,10h-3.5a1,1,0,0,1-1-.95V8.84a1,1,0,0,1,1-1h3.5Z"/><path class="cls-1" d="M45.33,5.66H44a.41.41,0,0,0-.41.41v.7h0l-1-1a.47.47,0,0,0-.29-.12H40.08a3.23,3.23,0,0,0-3.23,3.23v2.49a3.23,3.23,0,0,0,2.47,3.14,3.08,3.08,0,0,0,.61.06h3.61v.05a1,1,0,0,1-.12.51,1.07,1.07,0,0,1-.94.56H39.74a.65.65,0,0,0-.47,1.11l.88.89a.65.65,0,0,0,.47.2h1.87a3.22,3.22,0,0,0,1.12-.2,3.31,3.31,0,0,0,2.16-3.13V6A.48.48,0,0,0,45.33,5.66Zm-1.79,6.68H40a1,1,0,0,1-1-.95V8.84a1,1,0,0,1,1-1h3.5Z"/><rect class="cls-1" x="33.51" y="5.65" width="2.23" height="8.92" rx="0.41"/><rect class="cls-1" x="46.89" y="2.31" width="2.23" height="2.23" rx="0.41"/><path class="cls-1" d="M55.92,5.65H53.76a.41.41,0,0,0-.24.08l-.05,0h0l-1,1V6.06a.41.41,0,0,0-.41-.41H50.68a.46.46,0,0,0-.44.31.2.2,0,0,0,0,.07v8.22a.32.32,0,0,0,.33.32h1.57a.32.32,0,0,0,.33-.32V7.88H56a1,1,0,0,1,1,1v5.41a.32.32,0,0,0,.33.32h1.57a.32.32,0,0,0,.32-.32.28.28,0,0,0,0-.09V8.88A3.23,3.23,0,0,0,55.92,5.65Z"/><path class="cls-1" d="M88.84,5.65H84.09a.42.42,0,0,0-.41.41v.72l-1-1h0l-.05,0a.43.43,0,0,0-.24-.08H77a.31.31,0,0,0-.23.12l-2.07,2.6-2.06-2.6a.33.33,0,0,0-.23-.12H70.58c-.29,0-.44.45-.23.71l3,3.75-1.77,2.23h-8.1a1,1,0,0,1-1-1V8.85a1,1,0,0,1,1-1h5.31a.42.42,0,0,0,.42-.41V6.07a.42.42,0,0,0-.42-.42H63.46A3.2,3.2,0,0,0,60.39,8a3.08,3.08,0,0,0-.12.86v2.53a3.19,3.19,0,0,0,3.19,3.19h9a.28.28,0,0,0,.23-.12l2.06-2.6,2.06,2.6a.31.31,0,0,0,.23.12h1.84c.3,0,.44-.44.24-.7l-3-3.76L77.74,8a.42.42,0,0,1,.32-.16h5.63v6.37a.32.32,0,0,0,.32.32h1.58a.32.32,0,0,0,.32-.32V7.88h2.93a.41.41,0,0,0,.41-.41V6.06A.41.41,0,0,0,88.84,5.65Z"/><path class="cls-1" d="M20.12,7.4A7.43,7.43,0,0,0,12.67,0L1,0A1,1,0,0,0,0,1.08l.06,18a1,1,0,0,0,1,1l11.63,0a7.44,7.44,0,0,0,7.41-7.45Zm-9.19.36L13.66,5a.65.65,0,0,1,.91.92L11.85,8.67a.63.63,0,0,1-.46.19.65.65,0,0,1-.46-1.1Zm-6.47,7a.64.64,0,0,1-.91,0,.64.64,0,0,1,0-.92l3.77-3.77L3.56,6.31a.65.65,0,0,1,.92-.92L8.7,9.61a.64.64,0,0,1,0,.91Zm5.59,1a.65.65,0,0,1-1.3,0V12.71a.65.65,0,0,1,1.3,0Zm0-8.41a.65.65,0,0,1-1.3,0V4.3a.65.65,0,0,1,1.3,0Zm4.5,7.72a.61.61,0,0,1-.45.19.62.62,0,0,1-.46-.19l-2.71-2.7a.65.65,0,0,1,.92-.92l2.7,2.71A.63.63,0,0,1,14.55,15.09Zm1.63-4.4h-4a.65.65,0,1,1,0-1.3h4a.65.65,0,0,1,.64.65A.65.65,0,0,1,16.18,10.69Z"/></g></g></svg>
