<svg xmlns="http://www.w3.org/2000/svg" viewBox="0 0 1366.78 243.58"><defs><style>.cls-1{fill:#12284c;}.cls-2{fill:#f7be00;}</style></defs><g id="Layer_2" data-name="Layer 2"><g id="Layer_1-2" data-name="Layer 1"><path class="cls-1" d="M788.09,121.79,824.28,76.2c2.5-3.15.73-8.54-2.81-8.54h-22.3a3.63,3.63,0,0,0-2.81,1.47l-25,31.54-25-31.54a3.59,3.59,0,0,0-2.8-1.47H721.17c-3.53,0-5.31,5.39-2.81,8.54l36.2,45.59-36.2,45.58c-2.5,3.16-.72,8.54,2.82,8.54l22.32,0a3.58,3.58,0,0,0,2.8-1.46l25-31.52,25,31.52a3.6,3.6,0,0,0,2.81,1.46l22.32,0c3.54,0,5.31-5.38,2.81-8.54Z"/><path class="cls-1" d="M387.43,27.06H370.36a5,5,0,0,0-5,5v35.6H321.47a38,38,0,0,0-7.36.72,39.19,39.19,0,0,0-29.94,38.07v30.3a39.17,39.17,0,0,0,39.17,39.17h26.29a4.94,4.94,0,0,0,2.95-1,3.94,3.94,0,0,0,.59-.49h0l12.19-12.24v8.71a5,5,0,0,0,5,5H387a5.62,5.62,0,0,0,5.32-3.79,3.86,3.86,0,0,0,.08-.84V32.06A5,5,0,0,0,387.43,27.06ZM365.36,148.85H322.83a11.59,11.59,0,0,1-11.59-11.59V106.31a11.59,11.59,0,0,1,11.58-11.59h42.54Z"/><path class="cls-1" d="M908.07,67.66H881.78a4.94,4.94,0,0,0-2.95,1,3.94,3.94,0,0,0-.59.49h0L866,81.37V72.66a5,5,0,0,0-5-5H844.38a5.62,5.62,0,0,0-5.32,3.79,3.86,3.86,0,0,0-.08.84V211.52a5,5,0,0,0,5,5h17.07a5,5,0,0,0,5-5v-35.6h43.89a38,38,0,0,0,7.36-.72,39.19,39.19,0,0,0,29.94-38.07v-30.3A39.17,39.17,0,0,0,908.07,67.66Zm12.1,69.61a11.59,11.59,0,0,1-11.58,11.59H866.05V94.73h42.53a11.59,11.59,0,0,1,11.59,11.59Z"/><path class="cls-1" d="M683.36,67.69H647.73A38.75,38.75,0,0,0,609,106.46v30.66a38.81,38.81,0,0,0,38.77,38.76h50.93a5,5,0,0,0,5-5v-17a5,5,0,0,0-5-5H647.73A11.78,11.78,0,0,1,636,137.12V121.67l12.14,12.15a5,5,0,0,0,3.54,1.46h31.05c18.91,0,34.78-15.47,34.45-34.38A33.83,33.83,0,0,0,683.36,67.69Zm0,40.59H636v-1.82a11.78,11.78,0,0,1,11.77-11.77h35.63a6.8,6.8,0,0,1,0,13.59Z"/><path class="cls-1" d="M1116.36,67.69h-35.63A38.75,38.75,0,0,0,1042,106.46v30.66a38.81,38.81,0,0,0,38.77,38.76h50.94a5,5,0,0,0,5-5v-17a5,5,0,0,0-5-5h-50.94A11.78,11.78,0,0,1,1069,137.12V121.67l12.15,12.15a5,5,0,0,0,3.53,1.46h31c18.91,0,34.78-15.47,34.46-34.38A33.84,33.84,0,0,0,1116.36,67.69Zm0,40.59H1069v-1.82a11.78,11.78,0,0,1,11.77-11.77h35.63a6.8,6.8,0,0,1,0,13.59Z"/><path class="cls-1" d="M549.41,67.74H532.75a5,5,0,0,0-5,5v8.45l-.08-.1L515.78,69.2a5.76,5.76,0,0,0-3.53-1.46H485.72a39.16,39.16,0,0,0-39.16,39.16v30.31a39.19,39.19,0,0,0,29.94,38.07,38,38,0,0,0,7.36.72h43.89v.65a12.78,12.78,0,0,1-1.46,6.16,13,13,0,0,1-11.4,6.76H481.56A7.91,7.91,0,0,0,475.91,203l10.69,10.9a7.92,7.92,0,0,0,5.65,2.36H515a39.73,39.73,0,0,0,13.57-2.36,40.19,40.19,0,0,0,26.26-38V72.37a3.86,3.86,0,0,0-.08-.84A5.62,5.62,0,0,0,549.41,67.74Zm-21.66,81.12H485.2a11.59,11.59,0,0,1-11.58-11.59v-31a11.59,11.59,0,0,1,11.59-11.59h42.54Z"/><rect class="cls-1" x="405.96" y="67.66" width="27.07" height="108.26" rx="5"/><rect class="cls-1" x="405.96" y="27.06" width="27.07" height="27.07" rx="5"/><rect class="cls-1" x="568.34" y="67.66" width="27.07" height="108.26" rx="5"/><path class="cls-1" d="M1023.43,67.66h-19.86a4.94,4.94,0,0,0-3,1,3.94,3.94,0,0,0-.59.49h0L987.84,81.36v-8.7a5,5,0,0,0-2.62-4.4h0a4.93,4.93,0,0,0-1.36-.5,5.67,5.67,0,0,0-1-.1H965.77a5,5,0,0,0-5,5v98.26a5,5,0,0,0,5,5h17.07a5,5,0,0,0,5-5V99.73a5,5,0,0,1,5-5h30.59a5,5,0,0,0,5-5V72.66A5,5,0,0,0,1023.43,67.66Z"/><rect class="cls-1" x="568.34" y="27.06" width="27.07" height="27.07" rx="5"/><path class="cls-1" d="M1253.47,67.69h-66a23.54,23.54,0,0,0-20.82,12.21,23.46,23.46,0,0,0,6.38,30.5l47.28,35a2,2,0,0,1-1.2,3.59h-50.51a5,5,0,0,0-5,5v17a5,5,0,0,0,5,5h65.45a24.32,24.32,0,0,0,22.11-13.69,23.78,23.78,0,0,0-4.72-27l-.65-.65-49.06-36.33a2,2,0,0,1,1.21-3.6h50.5a5,5,0,0,0,5-5v-17A5,5,0,0,0,1253.47,67.69Z"/><path class="cls-1" d="M1311.29,94.69h50.49a5,5,0,0,0,5-5v-17a5,5,0,0,0-5-5h-66A23.51,23.51,0,0,0,1275,79.9a23.44,23.44,0,0,0,6.37,30.5l47.29,35a2,2,0,0,1-1.21,3.59h-50.51a5,5,0,0,0-5,5v17a5,5,0,0,0,5,5h65.45a24.32,24.32,0,0,0,22.12-13.69,23.8,23.8,0,0,0-4.72-27l-.65-.65-49.06-36.33A2,2,0,0,1,1311.29,94.69Z"/><path class="cls-2" d="M153.57,0h-141A12.6,12.6,0,0,0,0,12.6L.07,231a12.58,12.58,0,0,0,12.58,12.55H153.57a90,90,0,0,0,90-90V90A90,90,0,0,0,153.57,0Zm40.64,138.35L130.46,202.1a5,5,0,0,1-7.07,0L117,195.74a5,5,0,0,1,0-7.07l39.85-39.85h-104a5,5,0,0,1-5-5v-9a5,5,0,0,1,5-5H190.67A5,5,0,0,1,194.21,138.35Zm-3.54-24.74H52.83a5,5,0,0,1-5-5v-9a5,5,0,0,1,5-5h104L117,54.76a5,5,0,0,1,0-7.07l6.37-6.36a5,5,0,0,1,7.07,0l63.75,63.75A5,5,0,0,1,190.67,113.61Z"/></g></g></svg>
