<svg xmlns="http://www.w3.org/2000/svg" viewBox="0 0 88.59 20.18"><defs><style>.cls-1{fill:#00b189;}</style></defs><g id="Layer_2" data-name="Layer 2"><g id="Layer_1-2" data-name="Layer 1"><path class="cls-1" d="M69,5.61H66A3.22,3.22,0,0,0,62.91,8a3.43,3.43,0,0,0-.11.86v2.54A3.22,3.22,0,0,0,66,14.58h4.22a.42.42,0,0,0,.42-.42V12.75a.41.41,0,0,0-.42-.41H66a1,1,0,0,1-1-1V10.08l1,1a.4.4,0,0,0,.29.12h2.58a2.85,2.85,0,0,0,2.86-2.85A2.81,2.81,0,0,0,69,5.61ZM69,9H65V8.82a1,1,0,0,1,1-1H69a.58.58,0,0,1,.57.57A.57.57,0,0,1,69,9Z"/><path class="cls-1" d="M78.61,5.6H76.42a.4.4,0,0,0-.29.12l-1,1v-4a.48.48,0,0,0-.47-.47H73.33a.48.48,0,0,0-.44.32s0,0,0,.07V14.16a.42.42,0,0,0,.42.42h1.42a.41.41,0,0,0,.41-.42V12.33h0V7.83h3.54a1,1,0,0,1,1,1v5.37a.41.41,0,0,0,.41.42h1.41a.41.41,0,0,0,.41-.42V8.85A3.24,3.24,0,0,0,78.61,5.6Z"/><path class="cls-1" d="M61.66,8.84v5.32a.41.41,0,0,1-.42.41h-1.4a.41.41,0,0,1-.42-.41V8.79a1,1,0,0,0-1-1H57a3.1,3.1,0,0,1,.17,1v5.32a.41.41,0,0,1-.42.41h-1.4a.41.41,0,0,1-.41-.41V8.79a1,1,0,0,0-.93-1H52.72v6.33a.41.41,0,0,1-.41.41H50.89a.41.41,0,0,1-.41-.41V5.92a.46.46,0,0,1,.44-.32h1.31a.47.47,0,0,1,.47.47v.66l1-1A.43.43,0,0,1,54,5.6h-.07l.39,0h0a3.27,3.27,0,0,1,1.92.94l.08.09.94-.93a.45.45,0,0,1,.29-.12h.84A3.24,3.24,0,0,1,61.66,8.84Z"/><path class="cls-1" d="M88.17,5.61H86.53a.38.38,0,0,0-.25.08l0,0h0l-1,1V6A.42.42,0,0,0,85,5.66h0l-.11,0h-1.5a.4.4,0,0,0-.38.26A.37.37,0,0,0,83,6v8.14a.41.41,0,0,0,.41.42h1.42a.41.41,0,0,0,.41-.42V8.26a.42.42,0,0,1,.42-.41h2.53a.42.42,0,0,0,.42-.41V6A.41.41,0,0,0,88.17,5.61Z"/><path class="cls-1" d="M32.1,2.24H30.69a.41.41,0,0,0-.41.41V5.6H26.64a3.08,3.08,0,0,0-.61.06,3.23,3.23,0,0,0-2.48,3.15v2.51a3.24,3.24,0,0,0,3.24,3.25H29a.44.44,0,0,0,.25-.08l.05,0h0l1-1v.73a.41.41,0,0,0,.41.41h1.38a.46.46,0,0,0,.44-.31.2.2,0,0,0,0-.07V2.65A.41.41,0,0,0,32.1,2.24ZM30.28,12.33H26.75a1,1,0,0,1-1-1V8.8a1,1,0,0,1,1-1h3.53Z"/><path class="cls-1" d="M46,5.92a.48.48,0,0,0-.44-.31H44.15a.41.41,0,0,0-.42.41v.7h0l-1-1a.47.47,0,0,0-.29-.12h-2.2A3.25,3.25,0,0,0,37,8.85v2.51a3.26,3.26,0,0,0,2.49,3.16,3,3,0,0,0,.61.06h3.63v.05a1,1,0,0,1-.12.51,1.08,1.08,0,0,1-.94.56H39.9a.66.66,0,0,0-.46,1.12l.88.9a.66.66,0,0,0,.47.19h1.88a3.23,3.23,0,0,0,1.13-.19A3.33,3.33,0,0,0,46,14.57V6S46,5.94,46,5.92Zm-2.24,6.41H40.21a1,1,0,0,1-1-1V8.8a1,1,0,0,1,1-1h3.52Z"/><rect class="cls-1" x="33.64" y="5.6" width="2.24" height="8.97" rx="0.41"/><rect class="cls-1" x="33.64" y="2.23" width="2.24" height="2.24" rx="0.41"/><rect class="cls-1" x="47.1" y="5.6" width="2.24" height="8.97" rx="0.41"/><rect class="cls-1" x="47.1" y="2.23" width="2.24" height="2.24" rx="0.41"/><path class="cls-1" d="M13,6.89a3.37,3.37,0,0,0-2.57.19l-.53.27a1.08,1.08,0,1,0,1,1.93l1.24-.62a.57.57,0,1,1,.51,1l-1.23.63A2.24,2.24,0,0,1,8.21,7.62,2.18,2.18,0,0,1,9,6.56l-2.05-1L5.65,8.06a3.89,3.89,0,0,0-.23,3,4,4,0,0,0,2,2.29l2.76,1.4,3.27-1.66A3.37,3.37,0,0,0,13,6.89Z"/><path class="cls-1" d="M12.73,0H1A1,1,0,0,0,0,1v18.1a1,1,0,0,0,1,1H12.73a7.45,7.45,0,0,0,7.45-7.45V7.45A7.46,7.46,0,0,0,12.73,0Zm1.21,14.13-3.52,1.78a.58.58,0,0,1-.26.06h0a.57.57,0,0,1-.25-.06l-3-1.52A5.08,5.08,0,0,1,4.62,7.54l1.52-3a.58.58,0,0,1,.77-.26l3.34,1.64a4.47,4.47,0,0,1,5.68,2.14A4.52,4.52,0,0,1,13.94,14.13Z"/></g></g></svg>
