<svg xmlns="http://www.w3.org/2000/svg" viewBox="0 0 160.31 27.51"><defs><style>.cls-1{fill:#706f6f;}.cls-2{fill:#2f98d5;}</style></defs><g id="Layer_2" data-name="Layer 2"><g id="Layer_1-2" data-name="Layer 1"><path class="cls-1" d="M86.82,0H84.44a.85.85,0,0,0-.84.85V20.66a.85.85,0,0,0,.84.85h2.38a.85.85,0,0,0,.84-.85V.85A.85.85,0,0,0,86.82,0"/><path class="cls-1" d="M21.66,5.57H19.29a.84.84,0,0,0-.84.85V20.66a.84.84,0,0,0,.84.85h2.37a.85.85,0,0,0,.85-.85V6.42a.85.85,0,0,0-.85-.85"/><path class="cls-1" d="M21.66,0H19.29a.84.84,0,0,0-.84.85v2a.84.84,0,0,0,.84.85h2.37a.85.85,0,0,0,.85-.85v-2A.85.85,0,0,0,21.66,0"/><path class="cls-1" d="M46.68,5.57H44.31a.85.85,0,0,0-.84.85V20.66a.85.85,0,0,0,.84.85h2.37a.85.85,0,0,0,.85-.85V6.42a.85.85,0,0,0-.85-.85"/><path class="cls-1" d="M46.68,0H44.31a.85.85,0,0,0-.84.85v2a.85.85,0,0,0,.84.85h2.37a.85.85,0,0,0,.85-.85v-2A.85.85,0,0,0,46.68,0"/><path class="cls-1" d="M15.09,0H12.72a.85.85,0,0,0-.85.85V5.58H6a6,6,0,0,0-6,6v3.92a6,6,0,0,0,6,6h4.22a.83.83,0,0,0,.68-.34l1-1.28v.77a.85.85,0,0,0,.85.85h2.37a.85.85,0,0,0,.85-.85V.85A.85.85,0,0,0,15.09,0M6,17.44a1.94,1.94,0,0,1-1.37-.56,2,2,0,0,1-.57-1.37V11.59a2,2,0,0,1,.57-1.37A1.9,1.9,0,0,1,6,9.65h5.87v7.79Z"/><path class="cls-1" d="M80.24,5.58H71.15a6,6,0,0,0-6,6v3.92a6,6,0,0,0,6,6h4.19a.82.82,0,0,0,.67-.34l1-1.28v.77a.85.85,0,0,0,.84.85h2.41a.85.85,0,0,0,.85-.85V6.43a.85.85,0,0,0-.85-.85M77,17.44H71.15a1.91,1.91,0,0,1-1.93-1.93V11.59a1.93,1.93,0,0,1,1.93-1.94H77Z"/><path class="cls-1" d="M40.11,5.58h-2.4a.85.85,0,0,0-.85.85v.78l-1-1.29a.86.86,0,0,0-.68-.34H31a6,6,0,0,0-6,6v3.92a6,6,0,0,0,6,6h5.87A1.95,1.95,0,0,1,35,23.45H29.56a.6.6,0,0,0-.48,1l2.08,2.76a.84.84,0,0,0,.67.33H35a6,6,0,0,0,6-6V6.43a.85.85,0,0,0-.85-.85M36.89,17.45H31a1.95,1.95,0,0,1-1.94-1.94V11.59a2,2,0,0,1,.57-1.37A1.9,1.9,0,0,1,31,9.65h5.87Z"/><path class="cls-1" d="M105.26,5.58H96.18a6,6,0,0,0-6,6v3.92a6,6,0,0,0,6,6h4.29a.83.83,0,0,0,.68-.34l1-1.28v.77a.85.85,0,0,0,.85.85h2.29a.85.85,0,0,0,.85-.85V6.43a.85.85,0,0,0-.85-.85M102,17.44H96.18a1.93,1.93,0,0,1-1.94-1.93V11.59a1.95,1.95,0,0,1,1.94-1.94H102Z"/><path class="cls-1" d="M63.68,5.58H60.13a.85.85,0,0,0-.67.34l-5.35,7v0h0V.85A.85.85,0,0,0,53.26,0H50.89A.85.85,0,0,0,50,.85V20.66a.85.85,0,0,0,.85.85h2.37a.85.85,0,0,0,.85-.85V14.22h0l.34.44h0l5,6.52a.84.84,0,0,0,.67.33h3.55a.57.57,0,0,0,.45-.91l-5.34-7,5.4-7.09a.57.57,0,0,0-.45-.91"/><path class="cls-2" d="M110.89.53a1.29,1.29,0,0,0-1.34-.46,1.11,1.11,0,0,0-.88,1V20.43a1.21,1.21,0,0,0,2.41,0V4.81l.31.44,1.92,2.69a1.23,1.23,0,0,0,1,.49,1.36,1.36,0,0,0,.63-.15,1.11,1.11,0,0,0,.55-.71,1,1,0,0,0-.17-.8Z"/><path class="cls-2" d="M123.22.07a1.32,1.32,0,0,0-.34,0,1.25,1.25,0,0,0-1,.5L113.6,12.15a1,1,0,0,0-.17.8,1.14,1.14,0,0,0,.55.71,1.37,1.37,0,0,0,.63.16,1.22,1.22,0,0,0,1-.5l5.75-8.07.31-.44V20.43a1.21,1.21,0,0,0,2.41,0V1.11a1.11,1.11,0,0,0-.87-1"/><path class="cls-2" d="M136.93.75A1.21,1.21,0,0,0,135.78,0a1.58,1.58,0,0,0-.38,0,1.16,1.16,0,0,0-.71.6,1,1,0,0,0,0,.79l4,9.94.09.24h-6.1l.09-.24,2.2-5.81a1,1,0,0,0,0-.79,1.17,1.17,0,0,0-.73-.58,1.28,1.28,0,0,0-1.51.68l-5.71,15.17a1,1,0,0,0,0,.79,1.14,1.14,0,0,0,.72.58,1.58,1.58,0,0,0,.38.05,1.2,1.2,0,0,0,1.14-.73l2.57-6.85,0-.12h7.77l0,.11,2.75,6.88a1.19,1.19,0,0,0,1.13.71,1.44,1.44,0,0,0,.4-.06,1.16,1.16,0,0,0,.71-.59,1,1,0,0,0,0-.79Z"/><path class="cls-2" d="M158.18,3.77a1.26,1.26,0,0,0,.91.38,1.31,1.31,0,0,0,.77-.25,1.08,1.08,0,0,0,.43-.75,1,1,0,0,0-.29-.79C157.78.05,154.09,0,153.94,0c-5.82,0-7.49,4-7.56,6.07v6.22a1.21,1.21,0,0,0,2.41,0V6.13c0-.41.32-3.95,5.15-3.95a6.78,6.78,0,0,1,4.24,1.59"/><path class="cls-2" d="M146.68,14.75a1,1,0,0,0-.28.72c.07,2.09,1.74,6,7.55,6,.16,0,3.84,0,6.06-2.33a1,1,0,0,0,.3-.71V12.72a1.15,1.15,0,0,0-1.21-1.08h-7.21a1.15,1.15,0,0,0-1.2,1.08,1.14,1.14,0,0,0,1.2,1.08h6V18l-.07,0A7.15,7.15,0,0,1,154,19.34c-4.83,0-5.13-3.54-5.15-3.94a1.19,1.19,0,0,0-1.24-1,1.31,1.31,0,0,0-.88.39"/></g></g></svg>
