<svg width="128" height="18" viewBox="0 0 128 18" fill="none" xmlns="http://www.w3.org/2000/svg">
<path d="M13.2798 7.26446C13.1294 7.11101 12.8839 7.12022 12.7396 7.28288C12.8256 7.18467 12.9115 7.08032 12.9913 6.9729L13.2798 7.26446Z" fill="#9E9E9E"/>
<path d="M14.2404 8.6669C14.3509 8.52573 14.3356 8.31703 14.2067 8.18506L14.4491 8.43058C14.3847 8.51037 14.3141 8.58711 14.2435 8.6669H14.2404Z" fill="#9E9E9E"/>
<path d="M46.9964 9.33615V12.5832C46.9964 12.8103 46.8123 12.9945 46.5852 12.9945H45.4066C45.1795 12.9945 44.9954 12.8103 44.9954 12.5832V2.4093C44.9954 2.18219 45.1795 1.99805 45.4066 1.99805H46.6281C46.8307 1.99805 46.9964 2.16378 46.9964 2.36634V9.33615Z" fill="#9E9E9E"/>
<path d="M63.9897 12.5832C63.9897 12.8103 63.8056 12.9945 63.5785 12.9945H62.4C62.1729 12.9945 61.9887 12.8103 61.9887 12.5832V2.4093C61.9887 2.18219 62.1729 1.99805 62.4 1.99805H63.6215C63.824 1.99805 63.9897 2.16378 63.9897 2.36634V12.5832Z" fill="#9E9E9E"/>
<path d="M11.3494 0H0.929932C0.4174 0 0 0.417391 0 0.929923L0.0061441 17.0701C0.0061441 17.5826 0.423526 18 0.936057 18H11.3494C15.0169 18 17.9939 15.023 17.9939 11.3524V6.65064C17.9939 2.97698 15.0138 0.0061441 11.3494 0.0061441V0ZM14.2189 8.69463C14.1821 8.7376 14.1361 8.78363 14.0962 8.8266C14.0563 8.86956 14.0102 8.91254 13.9703 8.9555C13.9427 8.98312 13.9182 9.00767 13.8905 9.03529C13.8629 9.06291 13.8353 9.08747 13.8077 9.11202C13.7494 9.16419 13.691 9.21636 13.6327 9.26547C13.5928 9.3023 13.5468 9.3422 13.5038 9.37596C13.4609 9.41279 13.4148 9.44961 13.3657 9.48644C13.2 9.61841 13.0251 9.74425 12.847 9.8578C12.7979 9.88849 12.7458 9.92225 12.6967 9.95294C12.3806 10.1463 12.0491 10.3151 11.7023 10.4593C11.644 10.4839 11.5826 10.5054 11.5212 10.5299C11.4721 10.5514 11.4199 10.5698 11.3708 10.5882L11.2143 10.6404C11.1714 10.6588 11.1284 10.668 11.0793 10.6834C10.9964 10.711 10.9136 10.7325 10.8276 10.757C10.7785 10.7693 10.7294 10.7847 10.6803 10.7939C10.6373 10.8061 10.5913 10.8153 10.5453 10.8246C10.5084 10.8307 10.4686 10.843 10.4287 10.8491C10.3427 10.8675 10.2598 10.8798 10.1739 10.8982C10.1156 10.9074 10.0573 10.9166 10.0021 10.9258C9.94681 10.932 9.89155 10.9412 9.83938 10.9473C9.82097 10.9473 9.80563 10.9473 9.78721 10.9534C9.72276 10.9596 9.66446 10.9657 9.60308 10.9719C9.54476 10.978 9.48645 10.9841 9.42814 10.9841C9.28389 10.9964 9.13657 10.9995 8.99232 10.9995C8.84807 10.9995 8.69462 10.9995 8.55038 10.9841C8.49513 10.9841 8.4399 10.978 8.38465 10.9719C8.26496 10.9627 8.14833 10.9473 8.0317 10.935C7.9826 10.9289 7.93043 10.9197 7.88132 10.9105C7.86905 10.9105 7.85678 10.9105 7.84757 10.9043C7.7954 10.8982 7.74322 10.8859 7.69412 10.8767C7.64501 10.8675 7.59899 10.8583 7.54988 10.8491C7.50998 10.843 7.46701 10.8338 7.42711 10.8215C7.41177 10.8215 7.39641 10.8153 7.38107 10.8092C7.3381 10.8 7.29821 10.7908 7.25524 10.7816C7.20307 10.7693 7.15704 10.754 7.10794 10.7417C7.06497 10.7325 7.02506 10.7202 6.98209 10.7079C6.95754 10.7018 6.93606 10.6957 6.91151 10.6864C6.87161 10.6742 6.82557 10.6588 6.78567 10.6496C6.71815 10.6251 6.65064 10.6036 6.58619 10.579C6.53709 10.5606 6.48799 10.5422 6.43888 10.5207C6.38057 10.4992 6.32531 10.4777 6.27007 10.4532C6.2578 10.4532 6.2486 10.444 6.24246 10.4409C6.14118 10.398 6.04296 10.355 5.94168 10.3028C5.88337 10.2752 5.82813 10.2476 5.76981 10.2169C5.59795 10.1309 5.43222 10.0358 5.26956 9.93453C5.20818 9.8977 5.14988 9.8578 5.08849 9.81791C5.04246 9.79028 4.99642 9.75652 4.95038 9.72583C4.90128 9.69207 4.85524 9.65831 4.8092 9.62455C4.77544 9.6 4.73863 9.57545 4.71101 9.54783C4.67418 9.52021 4.63734 9.49258 4.60051 9.46496C4.56675 9.43734 4.52993 9.40664 4.49617 9.37902C4.45934 9.3514 4.42252 9.31765 4.38569 9.28696C4.35807 9.25933 4.3243 9.23478 4.29667 9.20716C4.25371 9.16726 4.21074 9.12737 4.16471 9.08747C4.03274 8.96471 3.90691 8.83581 3.78415 8.70384C3.77801 8.69463 3.7688 8.68542 3.76266 8.67622C3.65218 8.53504 3.67059 8.32327 3.79642 8.19437L4.70179 7.28594C4.8491 7.13862 5.09463 7.14475 5.23887 7.29821C5.23887 7.29821 5.23887 7.29821 5.23887 7.30435C5.2665 7.33504 5.2972 7.3688 5.32482 7.39642C5.35244 7.42711 5.38312 7.46087 5.41381 7.4885C5.44143 7.51919 5.47212 7.55294 5.50281 7.58056C5.56419 7.63888 5.62557 7.69719 5.69309 7.75243C5.71764 7.77698 5.73914 7.79539 5.76676 7.81688C5.80052 7.8445 5.84041 7.87826 5.87417 7.90588C5.911 7.9335 5.9509 7.96419 5.98772 7.99182C6.02455 8.01944 6.06445 8.04706 6.10128 8.07775C6.2179 8.16061 6.33759 8.23427 6.46342 8.30793C6.50025 8.33248 6.54015 8.35396 6.58005 8.37545C6.66598 8.42148 6.75806 8.46752 6.85013 8.51356C6.88389 8.53197 6.92378 8.54732 6.95754 8.56266C7.05268 8.60563 7.15397 8.64859 7.25524 8.68235C7.29514 8.70077 7.34117 8.71304 7.38107 8.72839C7.51611 8.77135 7.65422 8.81432 7.7954 8.84808C7.84144 8.86036 7.88746 8.86957 7.93964 8.87878C7.98567 8.88798 8.03478 8.89719 8.08082 8.9064C8.11765 8.9156 8.15755 8.92173 8.19437 8.92787C8.21893 8.92787 8.2404 8.93708 8.26496 8.94015C8.35089 8.95243 8.44296 8.9647 8.53196 8.96777C8.56265 8.96777 8.59949 8.97391 8.63325 8.97698C8.7468 8.98619 8.86035 8.98926 8.97698 8.98926C9.07212 8.98926 9.16725 8.98926 9.25933 8.98312C9.30536 8.98312 9.34833 8.97391 9.39437 8.97084C9.42812 8.97084 9.46496 8.96471 9.49872 8.96164C9.55703 8.9555 9.61535 8.9463 9.67366 8.93709C9.71356 8.93709 9.75346 8.9248 9.79336 8.91867C9.79949 8.91867 9.80563 8.91867 9.8087 8.91867C9.85166 8.91253 9.89463 8.90333 9.93759 8.89719C9.9867 8.88491 10.0327 8.8757 10.0818 8.8665C10.1187 8.85729 10.1616 8.84808 10.1985 8.83888C10.3304 8.80819 10.4563 8.76829 10.5821 8.72532C10.6128 8.71612 10.6466 8.70384 10.6742 8.69463C10.8307 8.63939 10.9872 8.57494 11.1345 8.50128C11.1744 8.4798 11.2143 8.46445 11.2542 8.44297C11.2941 8.41841 11.3402 8.39693 11.3801 8.37237C11.423 8.34782 11.466 8.32634 11.5059 8.30179C11.5488 8.27417 11.5887 8.25268 11.6286 8.22813C11.7115 8.17595 11.7913 8.12378 11.868 8.06854C11.9079 8.04092 11.9478 8.01023 11.9846 7.98261C12.0215 7.95499 12.0614 7.92429 12.0951 7.8936C12.132 7.86598 12.1688 7.83529 12.2026 7.80767C12.2302 7.78312 12.2517 7.7647 12.2762 7.74015C12.3038 7.7156 12.3284 7.69718 12.3529 7.67263C12.491 7.5468 12.6169 7.41483 12.7366 7.27979C12.8808 7.11713 13.1233 7.10793 13.2767 7.26138L14.2036 8.18517C14.3356 8.31714 14.3478 8.52277 14.2373 8.66701L14.2128 8.69463H14.2189Z" fill="#9E9E9E"/>
<path d="M28.6281 1.99805H27.3667C27.1642 1.99805 26.9954 2.16377 26.9954 2.3694V4.99958H23.7545C23.5673 4.99958 23.3831 5.02107 23.2112 5.05176C21.9376 5.36173 20.9985 6.50342 20.9985 7.86915V10.1065C20.9985 11.7055 22.2936 13.0006 23.8926 13.0006H25.8353C25.9151 13.0006 25.9887 12.973 26.0532 12.9269C26.0685 12.9177 26.0808 12.9024 26.0962 12.8932L26.9954 11.9878V12.6323C26.9954 12.8349 27.1611 13.0037 27.3667 13.0037H28.5974C28.7785 13.0037 28.932 12.887 28.9903 12.7244C28.9903 12.7029 28.9964 12.6845 28.9964 12.663V2.37554C28.9964 2.17299 28.8307 2.00418 28.6251 2.00418L28.6281 1.99805ZM26.9985 10.9965H23.8558C23.3831 10.9965 22.9995 10.6129 22.9995 10.1402V7.85379C22.9995 7.38116 23.3801 6.99754 23.8558 6.99754H26.9985V10.9965Z" fill="#9E9E9E"/>
<path d="M60.6199 4.99634H55.7493C55.5621 4.99634 55.378 5.01783 55.2061 5.04852C53.9355 5.35849 52.9933 6.50018 52.9933 7.8659V10.1032C52.9933 11.7022 54.2885 12.9974 55.8875 12.9974H57.8424C57.9407 12.9974 58.0358 12.9605 58.1002 12.8899L59.0118 11.9876V12.583C59.0118 12.8101 59.202 13.0004 59.4322 13.0004H60.5954C60.7795 13.0004 60.933 12.8838 60.9882 12.7211C60.9944 12.6997 60.9943 12.6812 60.9943 12.6598V5.37076C60.9943 5.16821 60.8286 4.99941 60.623 4.99941L60.6199 4.99634ZM58.9903 11.0086H55.8383C55.3626 11.0086 54.9821 10.625 54.9821 10.1524V7.85056C54.9821 7.37793 55.3626 6.99429 55.8383 6.99429H58.9903V11.0086Z" fill="#9E9E9E"/>
<path d="M72.6199 4.99634H67.7463C67.5591 4.99634 67.378 5.01783 67.2031 5.04852C65.9355 5.35849 64.9933 6.50018 64.9933 7.8659V10.1032C64.9933 11.7022 66.2885 12.9974 67.8874 12.9974H69.8394C69.9376 12.9974 70.0327 12.9605 70.1002 12.8899L71.0118 11.9876V12.583C71.0118 12.8101 71.199 13.0004 71.4291 13.0004H72.5923C72.7764 13.0004 72.9299 12.8838 72.9851 12.7211C72.9913 12.6997 72.9913 12.6812 72.9913 12.6598V5.37076C72.9913 5.16821 72.8286 4.99941 72.623 4.99941L72.6199 4.99634ZM70.9903 11.0086H67.8353C67.3626 11.0086 66.979 10.625 66.979 10.1524V7.85056C66.979 7.37793 67.3596 6.99429 67.8353 6.99429H70.9903V11.0086Z" fill="#9E9E9E"/>
<path d="M40.9872 5.28197C40.9319 5.11931 40.7785 5.00269 40.5974 5.00269H39.3667C39.1642 5.00269 38.9954 5.16841 38.9954 5.37404V5.99706L38.1115 5.11317C38.0532 5.05485 37.9366 5.00575 37.8537 5.00575H35.8895C34.2936 5.00575 32.9985 6.3009 32.9985 7.89987V10.1403C32.9985 11.5029 33.9407 12.6446 35.2113 12.9546C35.3862 12.9853 35.5672 13.0068 35.7545 13.0068H38.9985V13.0528C38.9985 13.2124 38.9678 13.3689 38.891 13.5101C38.7284 13.8078 38.4123 14.0073 38.0501 14.0073H35.5857C35.067 14.0073 34.8031 14.6334 35.1683 15.0047C35.4537 15.2963 35.7422 15.5909 35.957 15.8088C36.0675 15.9224 36.2148 15.9838 36.3744 15.9838H38.0532C38.4061 15.9838 38.7437 15.9224 39.0537 15.8088C40.1954 15.3945 40.9964 14.2958 40.9964 12.9976V5.34949C40.9964 5.32801 40.9964 5.30652 40.9872 5.28503V5.28197ZM38.9954 10.9965H35.8496C35.377 10.9965 34.9933 10.616 34.9933 10.1403V7.85383C34.9933 7.38119 35.377 6.99757 35.8496 6.99757H38.9954V10.9965Z" fill="#9E9E9E"/>
<path d="M31.6297 4.99634H30.3652C30.1618 4.99634 29.9969 5.16123 29.9969 5.36463V12.626C29.9969 12.8294 30.1618 12.9943 30.3652 12.9943H31.6297C31.8331 12.9943 31.9979 12.8294 31.9979 12.626V5.36463C31.9979 5.16123 31.8331 4.99634 31.6297 4.99634Z" fill="#9E9E9E"/>
<path d="M31.6297 1.99805H30.3652C30.1618 1.99805 29.9969 2.16294 29.9969 2.36634V3.63078C29.9969 3.83418 30.1618 3.99907 30.3652 3.99907H31.6297C31.8331 3.99907 31.9979 3.83418 31.9979 3.63078V2.36634C31.9979 2.16294 31.8331 1.99805 31.6297 1.99805Z" fill="#9E9E9E"/>
<path d="M43.6266 4.99634H42.3621C42.1587 4.99634 41.9939 5.16123 41.9939 5.36463V12.626C41.9939 12.8294 42.1587 12.9943 42.3621 12.9943H43.6266C43.83 12.9943 43.9949 12.8294 43.9949 12.626V5.36463C43.9949 5.16123 43.83 4.99634 43.6266 4.99634Z" fill="#9E9E9E"/>
<path d="M43.6266 1.99805H42.3621C42.1587 1.99805 41.9939 2.16294 41.9939 2.36634V3.63078C41.9939 3.83418 42.1587 3.99907 42.3621 3.99907H43.6266C43.83 3.99907 43.9949 3.83418 43.9949 3.63078V2.36634C43.9949 2.16294 43.83 1.99805 43.6266 1.99805Z" fill="#9E9E9E"/>
<path d="M46.9964 8.78976C47.3984 8.36009 49.8629 5.92326 50.5903 5.14065C50.6731 5.05472 50.7867 5.00562 50.9033 5.00562H52.5606C52.9319 5.00562 53.1376 5.4537 52.8736 5.71764C51.8547 6.73656 49.556 9.00459 49.556 9.00459L52.8767 12.356C53.1161 12.5954 52.9473 13.0005 52.6066 13.0005H50.8757C50.756 13.0005 50.6424 12.9514 50.5626 12.8655C49.8291 12.0767 47.38 9.66137 46.9933 9.24705V8.7959L46.9964 8.78976Z" fill="#9E9E9E"/>
<path d="M82.3059 10.6802C82.3059 12.0551 81.1949 13.0065 79.8076 13.0065H76.4041V4.98096H79.5683C80.9217 4.98096 82.0112 5.8986 82.0112 7.23978C82.0112 7.92724 81.7258 8.4674 81.2532 8.84489C81.8946 9.21318 82.3089 9.84234 82.3089 10.6802H82.3059ZM77.9846 6.46024V8.22495H79.5652C80.0593 8.22495 80.4245 7.84745 80.4245 7.34106C80.4245 6.83467 80.0685 6.45717 79.5652 6.45717H77.9846V6.46024ZM80.7345 10.5758C80.7345 10.0357 80.3447 9.63671 79.8046 9.63671H77.9816V11.5272H79.8046C80.3417 11.5272 80.7345 11.1252 80.7345 10.5758Z" fill="#9E9E9E"/>
<path d="M83.3248 10.3826V4.98413H84.8962V10.2568C84.8962 11.0363 85.3074 11.6225 86.3877 11.6225C87.468 11.6225 87.8793 11.0363 87.8793 10.2568V4.98413H89.4598V10.3826C89.4598 12.1135 88.1524 13.1693 86.3877 13.1693C84.623 13.1693 83.3279 12.1135 83.3279 10.3826H83.3248Z" fill="#9E9E9E"/>
<path d="M90.58 11.1837L91.9335 10.3919C92.2189 11.1376 92.7805 11.6195 93.778 11.6195C94.7754 11.6195 95.0609 11.2174 95.0609 10.7724C95.0609 10.177 94.5207 9.94685 93.3299 9.60311C92.1023 9.2471 90.9115 8.7315 90.9115 7.20618C90.9115 5.68086 92.1729 4.82153 93.5478 4.82153C94.9227 4.82153 95.8741 5.49672 96.4143 6.62307L95.0854 7.39033C94.8 6.78266 94.3642 6.35912 93.5509 6.35912C92.8849 6.35912 92.4951 6.70285 92.4951 7.16321C92.4951 7.65733 92.8051 7.9182 94.0204 8.28649C95.2941 8.68853 96.6445 9.11206 96.6445 10.7509C96.6445 12.2517 95.4414 13.1694 93.7319 13.1694C92.0225 13.1694 91.0158 12.3775 90.58 11.1867V11.1837Z" fill="#9E9E9E"/>
<path d="M99.3146 4.98413V13.0097H97.7309V4.98413H99.3146Z" fill="#9E9E9E"/>
<path d="M107.144 4.98413V13.0097H105.941L102.5 8.10229V13.0097H100.917V4.98413H102.12L105.56 9.87926V4.98413H107.144Z" fill="#9E9E9E"/>
<path d="M113.711 11.4935V13.0065H108.749V4.98096H113.656V6.494H110.332V8.20346H113.371V9.69502H110.332V11.4935H113.715H113.711Z" fill="#9E9E9E"/>
<path d="M114.525 11.1837L115.878 10.3919C116.164 11.1376 116.725 11.6195 117.723 11.6195C118.72 11.6195 119.006 11.2174 119.006 10.7724C119.006 10.177 118.465 9.94685 117.275 9.60311C116.047 9.2471 114.856 8.7315 114.856 7.20618C114.856 5.68086 116.118 4.82153 117.493 4.82153C118.867 4.82153 119.819 5.49672 120.359 6.62307L119.03 7.39033C118.745 6.78266 118.309 6.35912 117.496 6.35912C116.83 6.35912 116.44 6.70285 116.44 7.16321C116.44 7.65733 116.75 7.9182 117.965 8.28649C119.239 8.68853 120.589 9.11206 120.589 10.7509C120.589 12.2517 119.386 13.1694 117.677 13.1694C115.967 13.1694 114.961 12.3775 114.525 11.1867V11.1837Z" fill="#9E9E9E"/>
<path d="M121.083 11.1837L122.437 10.3919C122.722 11.1376 123.284 11.6195 124.281 11.6195C125.279 11.6195 125.564 11.2174 125.564 10.7724C125.564 10.177 125.024 9.94685 123.833 9.60311C122.606 9.2471 121.415 8.7315 121.415 7.20618C121.415 5.68086 122.676 4.82153 124.051 4.82153C125.426 4.82153 126.377 5.49672 126.918 6.62307L125.589 7.39033C125.303 6.78266 124.867 6.35912 124.054 6.35912C123.388 6.35912 122.998 6.70285 122.998 7.16321C122.998 7.65733 123.308 7.9182 124.524 8.28649C125.797 8.68853 127.148 9.11206 127.148 10.7509C127.148 12.2517 125.945 13.1694 124.235 13.1694C122.526 13.1694 121.519 12.3775 121.083 11.1867V11.1837Z" fill="#9E9E9E"/>
</svg>
