<svg width="74" height="18" viewBox="0 0 74 18" fill="none" xmlns="http://www.w3.org/2000/svg">
<path d="M24.6288 10.7394V13.815C24.6288 14.0282 24.4527 14.2044 24.2394 14.2044H23.1235C22.9072 14.2044 22.7341 14.0282 22.7341 13.815V4.1773C22.7341 3.96402 22.9072 3.78784 23.1235 3.78784H24.2796C24.4712 3.78784 24.6288 3.94547 24.6288 4.13711V10.7394Z" fill="#9E9E9E"/>
<path d="M40.7266 13.815C40.7266 14.0282 40.5505 14.2044 40.3372 14.2044H39.2213C39.005 14.2044 38.8319 14.0282 38.8319 13.815V4.1773C38.8319 3.96402 39.005 3.78784 39.2213 3.78784H40.3774C40.569 3.78784 40.7266 3.94547 40.7266 4.13711V13.815Z" fill="#9E9E9E"/>
<path d="M7.22978 3.78784H6.03357C5.84193 3.78784 5.6843 3.94547 5.6843 4.13711V6.62844H2.61187C2.43568 6.62844 2.26259 6.64698 2.09568 6.67789C0.89329 6.96844 0 8.05338 0 9.34232V11.4627C0 12.9773 1.22711 14.2044 2.74169 14.2044H4.58082C4.655 14.2044 4.72918 14.1797 4.78791 14.1364C4.80337 14.1271 4.81573 14.1148 4.82809 14.1024L5.6812 13.2462V13.8551C5.6812 14.0468 5.83884 14.2044 6.03048 14.2044H7.19578C7.36887 14.2044 7.51415 14.0931 7.56979 13.9386C7.57288 13.92 7.57597 13.8984 7.57597 13.8799V4.13711C7.57597 3.94238 7.41833 3.78784 7.22669 3.78784M5.6812 12.3127H2.7046C2.25641 12.3127 1.89476 11.9511 1.89476 11.5029V9.33613C1.89476 8.88794 2.25641 8.52629 2.7046 8.5232H5.6812V12.3127Z" fill="#9E9E9E"/>
<path d="M37.5337 6.62842H32.9188C32.7426 6.62842 32.5696 6.64696 32.4026 6.67787C31.2003 6.96842 30.307 8.05336 30.307 9.34229V11.4627C30.307 12.9773 31.5341 14.2044 33.0487 14.2044H34.9001C34.9929 14.2044 35.0825 14.1673 35.1474 14.1024L36.0098 13.2493V13.8118C36.0098 14.0282 36.1891 14.2075 36.4054 14.2075H37.5089C37.682 14.2075 37.8273 14.0962 37.8829 13.9416C37.886 13.9231 37.8891 13.9015 37.8891 13.8829V6.98078C37.8891 6.78605 37.7315 6.6315 37.5398 6.6315M35.9943 12.3251H33.0085C32.5603 12.3251 32.1986 11.9634 32.1986 11.5152V9.3361C32.1986 8.88791 32.5603 8.52627 33.0085 8.52318H35.9943V12.3251Z" fill="#9E9E9E"/>
<path d="M48.9023 6.62842H44.2874C44.1112 6.62842 43.9382 6.64696 43.7712 6.67787C42.5689 6.96842 41.6756 8.05336 41.6756 9.34229V11.4627C41.6756 12.9773 42.9027 14.2044 44.4173 14.2044H46.2687C46.3615 14.2044 46.448 14.1673 46.516 14.1024L47.3784 13.2493V13.8118C47.3784 14.0282 47.5546 14.2075 47.774 14.2075H48.8775C49.0506 14.2075 49.1959 14.0962 49.2515 13.9416C49.2546 13.9231 49.2577 13.9015 49.2577 13.8829V6.98078C49.2577 6.78605 49.1001 6.6315 48.9084 6.6315M47.3629 12.3251H44.3771C43.9289 12.3251 43.5672 11.9634 43.5672 11.5152V9.3361C43.5672 8.88791 43.9289 8.52627 44.3771 8.52318H47.3629V12.3251Z" fill="#9E9E9E"/>
<path d="M18.9384 6.90034C18.8858 6.74579 18.7406 6.63452 18.5644 6.63452H17.3991C17.2074 6.63452 17.0498 6.79216 17.0498 6.9838V7.57418L17.0436 7.56799L16.2121 6.73652C16.1565 6.68088 16.0452 6.63452 15.9649 6.63452H14.1072C12.5926 6.63452 11.3655 7.86164 11.3655 9.37621V11.4966C11.3655 12.7856 12.2588 13.8705 13.4612 14.161C13.6281 14.195 13.8012 14.2105 13.9774 14.2105H17.0498V14.2569C17.0498 14.4083 17.0189 14.5567 16.9478 14.6896C16.7933 14.9709 16.4934 15.1625 16.1503 15.1625H13.8166C13.3252 15.1625 13.0748 15.756 13.421 16.1053C13.6899 16.3803 13.965 16.6616 14.169 16.8687C14.2741 16.9738 14.4163 17.0325 14.5647 17.0325H16.1565C16.4903 17.0325 16.8118 16.9738 17.1054 16.8687C18.1873 16.4762 18.9446 15.4314 18.9446 14.2074V6.96216C18.9446 6.94053 18.9446 6.92198 18.9384 6.90343M17.0498 12.3157H14.0732C13.625 12.3157 13.2634 11.9541 13.2634 11.5059V9.33912C13.2634 8.89093 13.6281 8.52619 14.0732 8.52619H17.0498V12.3157Z" fill="#9E9E9E"/>
<path d="M10.4197 6.98063V13.858C10.4197 14.0497 10.262 14.2073 10.0704 14.2073H8.87417C8.67943 14.2073 8.52488 14.0497 8.52488 13.858V6.98063C8.52488 6.78899 8.68253 6.63135 8.87417 6.63135H10.0704C10.2651 6.63135 10.4197 6.78899 10.4197 6.98063Z" fill="#9E9E9E"/>
<path d="M10.4197 4.13711V5.33023C10.4197 5.52496 10.262 5.67951 10.0704 5.67951H8.87417C8.67943 5.67951 8.52488 5.52187 8.52488 5.33023V4.13711C8.52488 3.94238 8.68253 3.78784 8.87417 3.78784H10.0704C10.2651 3.78784 10.4197 3.94547 10.4197 4.13711Z" fill="#9E9E9E"/>
<path d="M21.7852 6.98063V13.858C21.7852 14.0497 21.6275 14.2073 21.4359 14.2073H20.2397C20.0449 14.2073 19.8904 14.0497 19.8904 13.858V6.98063C19.8904 6.78899 20.048 6.63135 20.2397 6.63135H21.4359C21.6306 6.63135 21.7852 6.78899 21.7852 6.98063Z" fill="#9E9E9E"/>
<path d="M21.7852 4.13711V5.33023C21.7852 5.52496 21.6275 5.67951 21.4359 5.67951H20.2397C20.0449 5.67951 19.8904 5.52187 19.8904 5.33023V4.13711C19.8904 3.94238 20.048 3.78784 20.2397 3.78784H21.4359C21.6306 3.78784 21.7852 3.94547 21.7852 4.13711Z" fill="#9E9E9E"/>
<path d="M24.6289 10.2231C25.009 9.81513 27.3458 7.50617 28.0351 6.76434C28.1124 6.68397 28.2206 6.63452 28.3318 6.63452H29.902C30.2544 6.63452 30.4492 7.06107 30.1988 7.30835C29.2344 8.27273 27.0553 10.421 27.0553 10.421L30.1988 13.5954C30.4275 13.821 30.2637 14.2074 29.9422 14.2074H28.304C28.1927 14.2074 28.0846 14.161 28.0073 14.0776C27.3118 13.3327 24.9936 11.0422 24.6289 10.6497V10.2231Z" fill="#9E9E9E"/>
<path d="M55.4613 3.80018H57.3591C57.5786 3.80018 57.7672 3.64872 57.8166 3.43235L58.0423 2.43397C58.1072 2.14342 57.8846 1.86523 57.5848 1.86523H55.6869C55.4675 1.86523 55.2758 2.01669 55.2295 2.23306L55.0038 3.23144C54.9389 3.52508 55.1615 3.80018 55.4613 3.80018Z" fill="#9E9E9E"/>
<path d="M56.71 5.70093H54.8307C54.6082 5.70093 54.4165 5.85547 54.3733 6.07184C54.3733 6.07184 52.7289 13.8704 52.7258 13.8796C52.6856 14.0095 52.5341 14.7915 52.4538 14.9893C52.3734 15.1902 52.2745 15.3602 52.154 15.4993C52.0334 15.6384 51.8758 15.7095 51.6749 15.7095C51.5018 15.7095 51.0257 15.6971 50.9887 15.694C50.7568 15.6817 50.5528 15.8393 50.5065 16.065L50.219 17.4281C50.1634 17.7001 50.3612 17.969 50.6363 17.9999H52.086C52.5063 17.9721 52.8432 17.9443 53.1523 17.8484C53.5789 17.7155 53.9374 17.5146 54.2311 17.2488C54.5247 16.983 54.7565 16.643 54.9296 16.2288C55.1027 15.8146 55.2511 15.3355 55.3686 14.7915L57.1644 6.26657C57.2262 5.97602 57.0037 5.70093 56.707 5.70093" fill="#9E9E9E"/>
<path d="M73.7104 7.79978L72.7429 5.7041L72.1247 8.54161L73.3642 8.5478C73.6733 8.5478 73.868 8.13361 73.7135 7.80287" fill="#9E9E9E"/>
<path d="M72.1927 6.18631L72.4462 4.96229C72.5822 4.23591 72.5791 3.92063 72.5822 3.54353C72.6007 3.12316 72.4894 2.05987 71.9609 0.0661913C71.9362 -0.00799196 71.8373 -0.0234457 71.7909 0.0383737C71.3983 0.591658 70.1341 2.55133 69.8436 3.84026C69.7292 4.38427 69.6272 4.90975 69.4603 5.71958L67.6057 7.73179C67.411 7.94507 67.5655 8.28817 67.853 8.28199H68.9039C68.7772 8.90327 68.5701 9.70693 68.4001 10.5971H68.4094C68.4094 10.5971 67.8344 13.2306 67.7603 13.4161C67.5315 14.297 66.8639 14.2228 66.8639 14.2228H61.9894C60.2677 14.263 59.6372 12.937 59.8412 11.3884L66.5548 11.3575C67.2441 11.3421 67.0493 10.1829 67.1112 9.74093C67.1359 8.26344 66.5362 6.68705 64.5766 5.97922C61.4701 4.86029 58.2153 6.72414 57.5848 9.39474C56.9882 11.9293 57.186 15.0914 59.7485 15.9229C60.3141 16.1083 60.9107 16.1145 61.603 16.1145C62.1285 16.1269 67.9612 16.1392 68.1281 16.1145C69.5963 16.0929 70.1156 15.4376 70.366 14.569C70.4803 14.1672 71.8774 7.56488 72.1896 6.18631M60.7005 8.61272C61.362 7.62052 62.6725 7.35779 63.7482 7.82761C64.5147 8.19235 64.6569 8.72091 64.66 9.48747H60.2368C60.2368 9.48747 60.4501 8.94964 60.7005 8.61272Z" fill="#9E9E9E"/>
</svg>
