<svg width="73" height="18" viewBox="0 0 73 18" fill="none" xmlns="http://www.w3.org/2000/svg">
<path d="M66.3104 0H55.8925C55.3783 0 54.9615 0.416836 54.9615 0.931034V17.072C54.9675 17.5862 55.3844 18 55.8955 18H66.3073C69.9767 18 72.9523 15.0243 72.9523 11.355V6.65112C72.9584 2.97566 69.9828 0 66.3104 0ZM69.1826 8.69878C67.8895 10.1136 66.0304 10.999 63.9615 10.999C61.8925 10.999 60.0426 10.1166 58.7495 8.70791C58.6156 8.56187 58.6248 8.33671 58.7617 8.1998L59.6684 7.2931C59.8174 7.14402 60.0639 7.1501 60.2039 7.30832C61.1197 8.3428 62.4554 8.99391 63.9432 8.99391C65.431 8.99391 66.788 8.33367 67.7039 7.28702C67.8438 7.12576 68.0903 7.11968 68.2424 7.26876L69.1673 8.19371C69.3073 8.33367 69.3134 8.55882 69.1826 8.70183" fill="#9E9E9E"/>
<path d="M49.1075 5.00498H44.3611C44.1572 5.00498 43.9929 5.16928 43.9929 5.37313V6.62668C43.9929 6.83054 44.1572 6.99484 44.3611 6.99484H49.1775C49.6278 6.99484 49.9899 7.35995 49.9899 7.80721V10.1804C49.9899 10.6307 49.6247 10.9928 49.1775 10.9928H44.3611C44.1572 10.9928 43.9929 11.1571 43.9929 11.361V12.6267C43.9929 12.8305 44.1572 12.9948 44.3611 12.9948H49.1075C50.6988 12.9948 51.9888 11.7048 51.9888 10.1135V7.87719C51.9888 6.28591 50.6988 4.99585 49.1075 4.99585" fill="#9E9E9E"/>
<path d="M18.2556 5.005C19.1471 4.12264 20.0994 3.18248 20.568 2.71392C20.8296 2.45226 20.6258 2.00195 20.2546 2.00195H18.5964C18.4777 2.00195 18.3651 2.05368 18.283 2.13887C17.8844 2.56788 16.6004 3.85794 15.4564 5.005C15.1886 5.27579 14.927 5.53745 14.6866 5.77782C14.4706 5.99384 14.2698 6.19465 14.0994 6.37112C13.8682 6.6054 14.0324 7.00094 14.361 7.00094H16.2353H18.0487C19.1227 7.00094 19.9959 7.87112 19.9959 8.9482V11.002H12.0669C11.4706 11.002 10.9868 10.5182 10.9868 9.92183V4.36909C10.9868 4.16524 10.8225 4.00094 10.6187 4.00094H9.36816C9.1643 4.00094 9 4.16524 9 4.36909V10.1196C9 11.7109 10.2901 13.0009 11.8813 13.0009H19.1166C19.1775 13.004 19.2414 13.0009 19.3022 13.0009H21.6298C21.8337 13.0009 21.998 12.8366 21.998 12.6328V8.74739C21.998 6.68147 20.3246 5.00804 18.2586 5.00804" fill="#9E9E9E"/>
<path d="M7.62779 4.00098H6.37729C6.17344 4.00098 6.00913 4.16528 6.00913 4.36913V9.91883C6.00913 10.5152 5.52536 10.9989 4.92901 10.9989H0.368161C0.164307 10.9989 0 11.1632 0 11.3671V12.6328C0 12.8367 0.164301 13.001 0.371197 13.001H5.1207C6.71197 12.9949 8.00203 11.7048 8.00203 10.1166V4.36913C8.00203 4.16528 7.83773 4.00098 7.63387 4.00098" fill="#9E9E9E"/>
<path d="M42.9889 7.36926V10.1228C42.9889 11.7141 41.6988 13.0041 40.1075 13.0041H38.142C38.0446 13.0041 37.9503 12.9646 37.8803 12.8946L37.0223 12.0366L36.9858 11.9879V12.5417C36.9858 12.7729 36.8154 12.9646 36.5964 12.9981H34.287C34.2262 13.0011 34.1684 13.0041 34.1075 13.0041H31.9807V13.1167C31.9807 14.708 30.6907 15.9981 29.0994 15.9981H25.8743C24.283 15.9981 22.9929 14.708 22.9929 13.1167V9.36825C22.9929 9.16439 23.1572 9.00009 23.3611 9.00009H24.6268C24.8306 9.00009 24.9949 9.16439 24.9949 9.36825V13.1867C24.9949 13.637 25.3601 13.9991 25.8073 13.9991H29.1694C29.6197 13.9991 29.9818 13.634 29.9818 13.1867V13.0072H28.357C28.1531 13.0072 27.9889 12.8429 27.9889 12.639V11.3733C27.9889 11.2486 28.0528 11.136 28.1471 11.0721C28.2079 11.0295 28.2809 11.0052 28.357 11.0052H34.1745C34.1927 11.0052 34.2079 11.0052 34.2231 11.0052H34.9868V7.81957C34.9868 7.3723 34.6248 7.00719 34.1745 7.00719H30.7363C30.4077 7.00719 30.2434 6.60861 30.4747 6.37737L30.9128 5.94228L31.7312 5.12382C31.8012 5.05385 31.8925 5.01733 31.9929 5.01733H34.1075C34.4392 5.01733 34.7586 5.0721 35.0568 5.17555C35.0568 5.17555 35.0568 5.17555 35.0599 5.17555C36.1826 5.56804 36.9889 6.63904 36.9889 7.89563V10.1319C36.9889 10.4149 36.9949 10.9869 36.9889 11.0052H37.6887C37.7282 11.0082 37.7678 11.0112 37.8073 11.0112H40.1805C40.6308 11.0112 40.9929 10.6461 40.9929 10.1989V7.37535C40.9929 7.17149 41.1572 7.00719 41.3611 7.00719H42.6146C42.8185 7.00719 42.9828 7.17149 42.9828 7.37535" fill="#9E9E9E"/>
<path d="M35.6227 13.999H34.36C34.1562 13.999 33.9919 14.1633 33.9919 14.3672V15.6268C33.9919 15.8307 34.1562 15.995 34.36 15.995H35.6227C35.8266 15.995 35.9909 15.8307 35.9909 15.6268V14.3672C35.9909 14.1633 35.8266 13.999 35.6227 13.999Z" fill="#9E9E9E"/>
<path d="M41.6197 13.999H38.358C38.1542 13.999 37.9899 14.1633 37.9899 14.3672V15.6268C37.9899 15.8307 38.1542 15.995 38.358 15.995H41.6197C41.8235 15.995 41.9878 15.8307 41.9878 15.6268V14.3672C41.9878 14.1633 41.8235 13.999 41.6197 13.999Z" fill="#9E9E9E"/>
<path d="M3.48379 9.99805H2.2637C2.10549 9.99805 1.96249 9.89764 1.9138 9.74551L0.161266 4.48486C0.0821583 4.2445 0.258636 3.99805 0.511172 3.99805H1.73125C1.88946 3.99805 2.03246 4.09845 2.08114 4.25058L3.83368 9.51123C3.91279 9.7516 3.73632 9.99805 3.48379 9.99805Z" fill="#9E9E9E"/>
</svg>
