<svg width="109" height="18" viewBox="0 0 109 18" fill="none" xmlns="http://www.w3.org/2000/svg">
<path d="M32.7804 5.49598C32.327 5.2008 31.7853 5.03039 31.2041 5.03039H26.4112C26.2073 5.03039 26.0399 5.19776 26.0399 5.40165V10.2189C26.0399 10.6693 25.6747 11.0344 25.2243 11.0344L21.037 11.0284C21.0431 11.0071 21.037 10.435 21.037 10.1489V7.92438C21.037 6.66149 20.2276 5.58727 19.0986 5.19167C19.0986 5.19167 19.0955 5.19167 19.0925 5.19167C18.7943 5.0882 18.4747 5.03039 17.6196 5.03039H10.8822C11.3873 5.03039 11.3751 5.03039 11.363 5.03039C11.3508 5.03039 11.3386 5.03039 11.3265 5.03343C11.1591 5.06995 11.0282 5.21906 11.0282 5.3986V10.2158C11.0282 10.2828 11.0221 10.3467 11.0039 10.4106C10.9187 10.7606 10.6083 11.0223 10.2309 11.0314L6.15012 11.0253H6.01622C6.0223 11.004 6.01622 10.4319 6.01622 10.1459V7.54095V5.3986C6.01622 5.19167 5.84886 5.02734 5.64497 5.02734H4.38816C4.26339 5.02734 4.1508 5.0882 4.0869 5.18254C4.04125 5.2434 4.01689 5.31644 4.01689 5.3986V11.0223H4.01082L4.01689 11.0344V12.912C4.01689 12.9425 4.01691 12.9942 4.01386 13.0246C3.97126 13.5815 3.50261 14.0228 2.93355 14.0228H0.371251C0.167362 14.0228 0 14.1871 0 14.394V15.6691C0 15.876 0.167362 16.0404 0.371251 16.0404L3.12224 16.0343C4.71987 16.0343 6.01926 14.7379 6.01926 13.1372V12.0235L6.04361 12.0539L6.05578 12.0691L6.91699 12.9303C6.97785 12.9942 7.16956 13.0307 7.25477 13.0399C7.26694 13.0399 10.3405 13.0368 10.3405 13.0368C10.9917 12.9972 11.5547 12.7386 12.0172 12.3369C12.282 12.5682 12.5863 12.7477 12.921 12.8694C12.9789 12.8907 13.3866 13.0429 13.8309 13.0429H20.6414C20.8636 13.0064 21.034 12.8116 21.034 12.5803V12.0235L21.9317 12.9333C21.9317 12.9333 21.953 12.9516 21.9652 12.9607C22.023 13.0064 22.093 13.0338 22.1721 13.0399H27.6406C27.8627 13.0033 28.0331 12.8086 28.0331 12.5773V12.0204L28.9309 12.9303C29.0009 13.0003 29.0952 13.0399 29.1926 13.0399H31.201C32.8017 13.0399 34.0981 11.7435 34.0981 10.1428V7.92134C34.0981 6.9019 33.5716 6.00722 32.7773 5.4899M15.0451 10.2128C15.0451 10.6297 14.7287 10.9766 14.3239 11.0253H13.7488C13.7488 11.0253 13.7427 11.0253 13.7396 11.0253C13.3714 10.9827 13.0793 10.6967 13.0276 10.3315C13.0215 10.2919 13.0184 10.2524 13.0184 10.2128V7.02971H15.0451V10.2128ZM19.0255 11.0223H16.9136C17.0019 10.7453 17.0505 10.4502 17.0505 10.1428V7.02971H18.21C18.6238 7.02971 18.9616 7.33402 19.0194 7.72963C19.0255 7.76919 19.0286 7.80875 19.0286 7.84526V11.0223H19.0255ZM32.0896 10.2067C32.0896 10.6601 31.7244 11.0223 31.274 11.0223H27.9084C27.9966 10.7453 28.0423 10.4502 28.0423 10.1428V7.02667H31.271C31.7214 7.02667 32.0866 7.39184 32.0866 7.84222V10.2037L32.0896 10.2067Z" fill="#9E9E9E"/>
<path d="M103.472 7.64434C103.834 8.35947 103.895 9.17503 103.645 9.93885C103.396 10.7027 102.863 11.3235 102.148 11.6856L99.2267 13.1645L96.7648 11.9199C95.928 11.4939 95.3041 10.7696 95.009 9.87494C94.7168 8.98027 94.7899 8.02777 95.2129 7.18788L96.3418 4.95728L98.1677 5.85195C97.8573 6.09236 97.6261 6.42101 97.5013 6.8014C97.3339 7.30656 97.3765 7.84519 97.6169 8.31991C98.113 9.2998 99.3119 9.69236 100.292 9.19937L101.393 8.64248C101.646 8.51467 101.746 8.20427 101.619 7.9517C101.491 7.69912 101.18 7.5987 100.928 7.72651L99.8292 8.2834C99.3545 8.5238 98.7733 8.33209 98.5329 7.85736C98.4173 7.62913 98.3959 7.36742 98.4781 7.12093C98.5603 6.87748 98.7307 6.67968 98.9589 6.56099L99.4337 6.32059C100.149 5.95846 100.964 5.8976 101.728 6.14713C102.492 6.39667 103.11 6.93225 103.475 7.64738" fill="#9E9E9E"/>
<path d="M101.527 0H91.1077C90.5934 0 90.1765 0.416905 90.1765 0.931191V17.0749C90.1826 17.5892 90.5995 18 91.1108 18H101.524C105.194 18 108.17 15.0238 108.17 11.3538V6.64616C108.17 2.97616 105.194 0 101.524 0M102.608 12.5985L99.4671 14.187C99.391 14.2265 99.315 14.2418 99.2358 14.2418H99.2115C99.1324 14.2418 99.0563 14.2235 98.9802 14.187L96.2962 12.8298C95.2128 12.282 94.4064 11.3447 94.0291 10.1914C93.6517 9.03804 93.7461 7.80558 94.2938 6.71919L95.6511 4.03517C95.7789 3.78563 96.0832 3.68216 96.3327 3.80693L99.3119 5.26458C100.185 4.91767 101.138 4.86898 102.042 5.1672C103.064 5.50499 103.898 6.21708 104.382 7.1787C105.386 9.16281 104.589 11.5943 102.605 12.5985" fill="#9E9E9E"/>
<path d="M84.2972 5.02124H79.5408C79.3369 5.02124 79.1696 5.18557 79.1696 5.3925V6.6493C79.1696 6.85319 79.3339 7.02056 79.5408 7.02056H84.3672C84.8176 7.02056 85.1827 7.38574 85.1827 7.83612V10.2158C85.1827 10.6662 84.8176 11.0314 84.3672 11.0314H79.5408C79.3369 11.0314 79.1696 11.1957 79.1696 11.4026V12.6716C79.1696 12.8755 79.3339 13.0429 79.5408 13.0429H84.2972C85.8918 13.0429 87.1851 11.7496 87.1851 10.155V7.91524C87.1851 6.32065 85.8918 5.02733 84.2972 5.02733" fill="#9E9E9E"/>
<path d="M53.3883 5.02124C54.283 4.13874 55.2355 3.19537 55.7041 2.72674C55.9659 2.46503 55.762 2.01465 55.3877 2.01465H53.7261C53.6074 2.01465 53.4918 2.06638 53.4127 2.15159C53.014 2.58067 51.7268 3.87399 50.5826 5.02429C50.3117 5.29512 50.0531 5.55683 49.8127 5.79724C49.5966 6.01634 49.3958 6.21718 49.2223 6.39064C48.991 6.62496 49.1554 7.02057 49.4871 7.02057H51.3647H53.1814C54.2587 7.02057 55.132 7.89394 55.132 8.9712V11.0283H47.1895C46.5931 11.0283 46.1062 10.5445 46.1062 9.94499V4.38523C46.1062 4.18134 45.9418 4.01397 45.7349 4.01397H44.4811C44.2773 4.01397 44.1099 4.1783 44.1099 4.38523V10.1458C44.1099 11.7404 45.4002 13.0307 46.9948 13.0338H54.2435C54.3043 13.0368 54.3682 13.0338 54.4291 13.0338H56.7601C56.964 13.0338 57.1314 12.8694 57.1314 12.6625V8.77035C57.1314 6.70104 55.4546 5.02429 53.3853 5.02429" fill="#9E9E9E"/>
<path d="M42.7405 4.01392H41.4867C41.2828 4.01392 41.1155 4.17824 41.1155 4.38518V9.94494C41.1155 10.5414 40.6316 11.0283 40.0321 11.0283H35.4644C35.2605 11.0283 35.0932 11.1926 35.0932 11.3995V12.6685C35.0932 12.8724 35.2605 13.0398 35.4644 13.0398H40.2238C41.8154 13.0337 43.1087 11.7434 43.1087 10.1488V4.38822C43.1087 4.18433 42.9444 4.01696 42.7375 4.01696" fill="#9E9E9E"/>
<path d="M78.1714 7.39182V10.1519C78.1714 11.7465 76.8781 13.0398 75.2835 13.0398H73.3146C73.2172 13.0398 73.1229 13.0003 73.0529 12.9303L72.1948 12.0721L72.1582 12.0234V12.5773C72.1582 12.8086 71.9878 13.0003 71.7657 13.0338H69.4529C69.3921 13.0368 69.3342 13.0398 69.2734 13.0398H67.1402V13.1524C67.1402 14.747 65.8468 16.0403 64.2523 16.0403H61.0205C59.4259 16.0403 58.1325 14.747 58.1325 13.1524V9.39723C58.1325 9.19334 58.2969 9.02598 58.5038 9.02598H59.7728C59.9767 9.02598 60.144 9.1903 60.144 9.39723V13.2224C60.144 13.6728 60.5092 14.038 60.9596 14.038H64.3283C64.7787 14.038 65.1439 13.6728 65.1439 13.2224V13.0398H63.5158C63.3119 13.0398 63.1446 12.8755 63.1446 12.6686V11.3996C63.1446 11.2748 63.2085 11.1622 63.3028 11.0983C63.3637 11.0557 63.4367 11.0314 63.5158 11.0314H69.3434C69.3616 11.0314 69.3769 11.0314 69.3921 11.0314H70.1559V7.83916C70.1559 7.38878 69.7907 7.02361 69.3403 7.02361H65.8955C65.5669 7.02361 65.3995 6.62496 65.6338 6.39064L66.072 5.95243L66.8906 5.13079C66.9606 5.0608 67.0549 5.02124 67.1523 5.02124H69.2703C69.602 5.02124 69.9246 5.07602 70.2198 5.18252C70.2198 5.18252 70.2198 5.18252 70.2228 5.18252C71.3488 5.57813 72.1552 6.6493 72.1552 7.90915V10.1489C72.1552 10.4319 72.1613 11.004 72.1552 11.0253H72.8551C72.8947 11.0283 72.9342 11.0314 72.9738 11.0314H75.3535C75.8039 11.0314 76.169 10.6662 76.169 10.2158V7.38878C76.169 7.18489 76.3334 7.01752 76.5403 7.01752H77.7971C78.001 7.01752 78.1684 7.18185 78.1684 7.38878" fill="#9E9E9E"/>
<path d="M70.7889 14.0317H69.526C69.3221 14.0317 69.1547 14.1961 69.1547 14.403V15.6659C69.1547 15.8698 69.319 16.0371 69.526 16.0371H70.7889C70.9927 16.0371 71.1601 15.8728 71.1601 15.6659V14.403C71.1601 14.1991 70.9958 14.0317 70.7889 14.0317Z" fill="#9E9E9E"/>
<path d="M76.799 14.0317H73.5307C73.3268 14.0317 73.1594 14.1961 73.1594 14.403V15.6659C73.1594 15.8698 73.3238 16.0371 73.5307 16.0371H76.799C77.0029 16.0371 77.1702 15.8728 77.1702 15.6659V14.403C77.1702 14.1991 77.0059 14.0317 76.799 14.0317Z" fill="#9E9E9E"/>
<path d="M38.5897 10.0241H37.3664C37.2081 10.0241 37.0651 9.92364 37.0164 9.77148L35.2605 4.50081C35.1814 4.26041 35.3579 4.01392 35.6105 4.01392H36.8338C36.9921 4.01392 37.1351 4.11738 37.1838 4.26649L38.9396 9.53716C39.0188 9.77757 38.8423 10.0241 38.5897 10.0241Z" fill="#9E9E9E"/>
<path d="M73.6372 11.0251V11.0312H72.9799C72.9403 11.0312 72.9008 11.0312 72.8612 11.0251H73.6402H73.6372Z" fill="#9E9E9E"/>
</svg>
