<svg width="24" height="24" viewBox="0 0 24 24" fill="none" xmlns="http://www.w3.org/2000/svg">
<path d="M16.9999 8C16.9999 10.7614 14.7613 13 11.9999 13C9.23845 13 6.99988 10.7614 6.99988 8C6.99988 5.23858 9.23845 3 11.9999 3C14.7613 3 16.9999 5.23858 16.9999 8Z" fill="#EF4056"/>
<path d="M20.5382 17.1422C15.6496 12.8647 8.35017 12.8647 3.46156 17.1422C3.16817 17.3989 2.99988 17.7698 2.99988 18.1597L2.99989 20.9999C2.99989 21.5522 3.4476 21.9999 3.99989 21.9999H19.9999C20.5522 21.9999 20.9999 21.5522 20.9999 20.9999L20.9999 18.1597C20.9999 17.7698 20.8316 17.3989 20.5382 17.1422Z" fill="#EF4056"/>
</svg>
