<svg width="24" height="24" viewBox="0 0 24 24" fill="none" xmlns="http://www.w3.org/2000/svg">
<path fill-rule="evenodd" clip-rule="evenodd" d="M16.9999 8C16.9999 10.7614 14.7613 13 11.9999 13C9.23845 13 6.99988 10.7614 6.99988 8C6.99988 5.23858 9.23845 3 11.9999 3C14.7613 3 16.9999 5.23858 16.9999 8ZM14.9999 8C14.9999 9.65685 13.6567 11 11.9999 11C10.343 11 8.99988 9.65685 8.99988 8C8.99988 6.34315 10.343 5 11.9999 5C13.6567 5 14.9999 6.34315 14.9999 8Z" fill="black" fill-opacity="0.6"/>
<path fill-rule="evenodd" clip-rule="evenodd" d="M20.9999 18.1597C20.9999 17.7698 20.8316 17.399 20.5382 17.1423C15.6496 12.8647 8.35016 12.8647 3.46156 17.1423C3.16817 17.399 2.99988 17.7699 2.99988 18.1597L2.99988 21C2.99989 21.5523 3.4476 22 3.99989 22H19.9999C20.5522 22 20.9999 21.5523 20.9999 21L20.9999 18.1597ZM4.99988 20L4.99988 18.4588C9.05651 15.0925 14.9433 15.0925 18.9999 18.4588L18.9999 20H4.99988Z" fill="black" fill-opacity="0.6"/>
</svg>
