<?xml version="1.0" encoding="UTF-8"?>
<svg id="Layer_1" data-name="Layer 1" xmlns="http://www.w3.org/2000/svg" viewBox="0 0 132.45 189.22">
  <defs>
    <style>
      .cls-1 {
        fill: #f03e58;
        stroke-width: 0px;
      }
    </style>
  </defs>
  <path class="cls-1" d="M63.1.08C28.69,1.65,1.01,30.85.03,66.43c-.43,13.72,3.21,27.27,10.49,39.05l54.73,83.24c.11.15.25.28.42.37.17.09.36.13.55.13s.38-.05.55-.13c.17-.09.31-.21.42-.37l54.74-83.24c7.07-11.14,10.7-23.99,10.49-37.05C132.44,29.51,101.07-1.82,63.1.08ZM66.24,114.99c-24.99,0-45.22-20.92-45.22-46.77s20.23-46.77,45.22-46.77,45.22,20.92,45.22,46.77-20.23,46.77-45.21,46.77h0Z"/>
  <path class="cls-1" d="M76.34,33.83l-20.55,4.7c-.26.07-.49.22-.65.43-.16.21-.24.46-.23.72v55.62c.02.25.12.49.27.69.15.2.36.36.6.46l20.55,4.5c.17.04.36.04.53,0,.17-.04.34-.12.47-.23.14-.11.24-.25.31-.41.07-.16.1-.33.09-.5V34.96c0-.17-.04-.34-.11-.49-.07-.15-.18-.29-.32-.4-.14-.11-.29-.19-.46-.23-.17-.04-.35-.05-.52-.02Z"/>
</svg>