<svg width="69" height="68" viewBox="0 0 69 68" fill="none" xmlns="http://www.w3.org/2000/svg">
<path fill-rule="evenodd" clip-rule="evenodd" d="M33.4833 5.10001C33.4833 4.5132 33.959 4.03751 34.5458 4.03751C50.9763 4.03751 64.2958 17.357 64.2958 33.7875C64.2958 35.0555 64.2164 36.3054 64.0622 37.5325C63.9891 38.1147 63.4578 38.5274 62.8756 38.4542C62.2934 38.3811 61.8807 37.8498 61.9538 37.2676C62.097 36.1281 62.1708 34.9667 62.1708 33.7875C62.1708 18.5306 49.8027 6.16251 34.5458 6.16251C33.959 6.16251 33.4833 5.68681 33.4833 5.10001ZM5.85831 32.725C6.44511 32.725 6.92081 33.2007 6.92081 33.7875C6.92081 49.0444 19.2889 61.4125 34.5458 61.4125C37.4727 61.4125 40.2913 60.9577 42.936 60.1157C43.4951 59.9376 44.0927 60.2466 44.2707 60.8057C44.4488 61.3649 44.1398 61.9625 43.5807 62.1405C40.73 63.0481 37.694 63.5375 34.5458 63.5375C18.1153 63.5375 4.79581 50.218 4.79581 33.7875C4.79581 33.2007 5.2715 32.725 5.85831 32.725Z" fill="#424750"/>
<path fill-rule="evenodd" clip-rule="evenodd" d="M42.8518 31.1728C42.8518 29.3308 44.3451 27.8375 46.1871 27.8375C48.0292 27.8375 49.5224 29.3308 49.5224 31.1728V34.485C49.5224 35.2714 49.8132 36.0301 50.3388 36.6152L55.3734 42.2195H63.2333C63.8201 42.2195 64.2958 42.6952 64.2958 43.282C64.2958 43.8688 63.8201 44.3445 63.2333 44.3445H54.8996C54.5981 44.3445 54.3107 44.2164 54.1092 43.992L48.758 38.0353C47.882 37.0602 47.3974 35.7957 47.3974 34.485V31.1728C47.3974 30.5044 46.8556 29.9625 46.1871 29.9625C45.5187 29.9625 44.9768 30.5044 44.9768 31.1728V35.0677C44.9768 35.6361 45.076 36.2002 45.2698 36.7346L46.4283 39.9276C46.5465 40.2533 46.4984 40.6162 46.2995 40.8999C46.1007 41.1836 45.776 41.3525 45.4295 41.3525H30.3383C29.8454 41.3525 29.4458 41.7521 29.4458 42.245C29.4458 42.7379 29.8454 43.1375 30.3383 43.1375H43.4708C44.0576 43.1375 44.5333 43.6132 44.5333 44.2C44.5333 44.7868 44.0576 45.2625 43.4708 45.2625H30.3383C28.6718 45.2625 27.3208 43.9115 27.3208 42.245C27.3208 40.5785 28.6718 39.2275 30.3383 39.2275H43.9138L43.2722 37.4593C42.9941 36.6926 42.8518 35.8833 42.8518 35.0677V31.1728ZM54.1578 53.4861C54.8356 52.8069 55.7557 52.4252 56.7152 52.4252H63.2333C63.8201 52.4252 64.2958 52.9009 64.2958 53.4877C64.2958 54.0745 63.8201 54.5502 63.2333 54.5502H56.7152C56.3201 54.5502 55.9412 54.7073 55.6622 54.987L54.1262 56.5265C53.4485 57.2058 52.5284 57.5875 51.5689 57.5875H44.2931C43.7063 57.5875 43.2306 57.1118 43.2306 56.525C43.2306 55.9382 43.7063 55.4625 44.2931 55.4625H51.5689C51.9639 55.4625 52.3428 55.3053 52.6219 55.0256L54.1578 53.4861Z" fill="#424750"/>
<path fill-rule="evenodd" clip-rule="evenodd" d="M34.5458 46.325C34.5458 44.5646 35.9729 43.1375 37.7333 43.1375H46.2333C47.9937 43.1375 49.4208 44.5646 49.4208 46.325C49.4208 48.0854 47.9937 49.5125 46.2333 49.5125H37.7333C35.9729 49.5125 34.5458 48.0854 34.5458 46.325ZM37.7333 45.2625C37.1465 45.2625 36.6708 45.7382 36.6708 46.325C36.6708 46.9118 37.1465 47.3875 37.7333 47.3875H46.2333C46.8201 47.3875 47.2958 46.9118 47.2958 46.325C47.2958 45.7382 46.8201 45.2625 46.2333 45.2625H37.7333Z" fill="#424750"/>
<path fill-rule="evenodd" clip-rule="evenodd" d="M37.5208 50.575C37.5208 48.8146 38.9479 47.3875 40.7083 47.3875H46.2333C47.9937 47.3875 49.4208 48.8146 49.4208 50.575C49.4208 52.3354 47.9937 53.7625 46.2333 53.7625H40.7083C38.9479 53.7625 37.5208 52.3354 37.5208 50.575ZM40.7083 49.5125C40.1215 49.5125 39.6458 49.9882 39.6458 50.575C39.6458 51.1618 40.1215 51.6375 40.7083 51.6375H46.2333C46.8201 51.6375 47.2958 51.1618 47.2958 50.575C47.2958 49.9882 46.8201 49.5125 46.2333 49.5125H40.7083Z" fill="#424750"/>
<path fill-rule="evenodd" clip-rule="evenodd" d="M39.2208 54.6125C39.2208 52.9695 40.5528 51.6375 42.1958 51.6375H45.1708C46.8139 51.6375 48.1458 52.9695 48.1458 54.6125C48.1458 56.2555 46.8139 57.5875 45.1708 57.5875H42.1958C40.5528 57.5875 39.2208 56.2555 39.2208 54.6125ZM42.1958 53.7625C41.7264 53.7625 41.3458 54.1431 41.3458 54.6125C41.3458 55.0819 41.7264 55.4625 42.1958 55.4625H45.1708C45.6403 55.4625 46.0208 55.0819 46.0208 54.6125C46.0208 54.1431 45.6403 53.7625 45.1708 53.7625H42.1958Z" fill="#424750"/>
<path fill-rule="evenodd" clip-rule="evenodd" d="M3.94582 10.625C3.94582 10.0382 4.42151 9.5625 5.00832 9.5625H24.1333C24.7201 9.5625 25.1958 10.0382 25.1958 10.625V30.6C25.1958 31.1868 24.7201 31.6625 24.1333 31.6625H5.00832C4.42151 31.6625 3.94582 31.1868 3.94582 30.6V10.625ZM6.07082 11.6875V29.5375H23.0708V27.437H11.5108C10.924 27.437 10.4483 26.9613 10.4483 26.3745V24.5764C10.4483 24.4591 10.3532 24.3639 10.2358 24.3639H8.83332C8.24651 24.3639 7.77082 23.8882 7.77082 23.3014V17.9236C7.77082 17.3368 8.24651 16.8611 8.83332 16.8611H10.2358C10.3532 16.8611 10.4483 16.7659 10.4483 16.6486V14.8505C10.4483 14.2637 10.924 13.788 11.5108 13.788H23.0708V11.6875H6.07082ZM23.0708 15.913H21.2427L20.7243 17.3329C19.951 19.4509 19.951 21.7741 20.7243 23.8921L21.2427 25.312H23.0708V15.913ZM18.9805 25.312L18.7282 24.6209C17.7831 22.0322 17.7831 19.1928 18.7282 16.6041L18.9805 15.913H12.5733V16.6486C12.5733 17.9395 11.5268 18.9861 10.2358 18.9861H9.89582V22.2389H10.2358C11.5268 22.2389 12.5733 23.2855 12.5733 24.5764V25.312H18.9805Z" fill="#E6123D"/>
<path fill-rule="evenodd" clip-rule="evenodd" d="M27.9583 9.5625C28.5451 9.5625 29.0208 10.0382 29.0208 10.625V30.6C29.0208 31.1868 28.5451 31.6625 27.9583 31.6625C27.3715 31.6625 26.8958 31.1868 26.8958 30.6V10.625C26.8958 10.0382 27.3715 9.5625 27.9583 9.5625Z" fill="#E6123D"/>
<path fill-rule="evenodd" clip-rule="evenodd" d="M31.7833 9.5625C32.3701 9.5625 32.8458 10.0382 32.8458 10.625V30.6C32.8458 31.1868 32.3701 31.6625 31.7833 31.6625C31.1965 31.6625 30.7208 31.1868 30.7208 30.6V10.625C30.7208 10.0382 31.1965 9.5625 31.7833 9.5625Z" fill="#E6123D"/>
<path fill-rule="evenodd" clip-rule="evenodd" d="M35.6083 9.5625C36.1951 9.5625 36.6708 10.0382 36.6708 10.625V30.6C36.6708 31.1868 36.1951 31.6625 35.6083 31.6625C35.0215 31.6625 34.5458 31.1868 34.5458 30.6V10.625C34.5458 10.0382 35.0215 9.5625 35.6083 9.5625Z" fill="#E6123D"/>
<path fill-rule="evenodd" clip-rule="evenodd" d="M40.2833 25.2875C40.6354 25.2875 40.9208 25.5729 40.9208 25.925V31.45C40.9208 31.8021 40.6354 32.0875 40.2833 32.0875C39.9312 32.0875 39.6458 31.8021 39.6458 31.45V25.925C39.6458 25.5729 39.9312 25.2875 40.2833 25.2875Z" fill="#19BFD3"/>
<path fill-rule="evenodd" clip-rule="evenodd" d="M29.4458 35.7C29.4458 35.3479 29.7312 35.0625 30.0833 35.0625H36.0333C36.3854 35.0625 36.6708 35.3479 36.6708 35.7C36.6708 36.0521 36.3854 36.3375 36.0333 36.3375H30.0833C29.7312 36.3375 29.4458 36.0521 29.4458 35.7Z" fill="#19BFD3"/>
<path fill-rule="evenodd" clip-rule="evenodd" d="M39.6638 11.1316C39.7467 10.7894 40.0913 10.5793 40.4335 10.6622C50.9559 13.2122 58.7708 22.6927 58.7708 34C58.7708 34.3521 58.4854 34.6375 58.1333 34.6375C57.7812 34.6375 57.4958 34.3521 57.4958 34C57.4958 23.2947 50.097 14.316 40.1332 11.9013C39.791 11.8184 39.5808 11.4738 39.6638 11.1316ZM11.3833 33.3625C11.7354 33.3625 12.0208 33.6479 12.0208 34C12.0208 46.5576 22.2007 56.7375 34.7583 56.7375C35.1104 56.7375 35.3958 57.0229 35.3958 57.375C35.3958 57.7271 35.1104 58.0125 34.7583 58.0125C21.4966 58.0125 10.7458 47.2617 10.7458 34C10.7458 33.6479 11.0312 33.3625 11.3833 33.3625Z" fill="#424750"/>
</svg>
