<?xml version="1.0" encoding="UTF-8"?>
<!DOCTYPE svg PUBLIC "-//W3C//DTD SVG 1.1//EN" "http://www.w3.org/Graphics/SVG/1.1/DTD/svg11.dtd">
<svg xmlns="http://www.w3.org/2000/svg" version="1.1" width="2144px" height="2144px" style="shape-rendering:geometricPrecision; text-rendering:geometricPrecision; image-rendering:optimizeQuality; fill-rule:evenodd; clip-rule:evenodd" xmlns:xlink="http://www.w3.org/1999/xlink">
<g><path style="opacity:0.942" fill="#168bac" d="M 502.5,157.5 C 645.161,151.196 766.328,198.529 866,299.5C 960.937,403.647 1001.6,526.313 988,667.5C 971.388,791.956 914.888,893.79 818.5,973C 716.442,1051.55 601.108,1083.22 472.5,1068C 347.048,1049.05 245.548,989.887 168,890.5C 85.8942,777.033 58.8942,651.367 87,513.5C 120.957,375.989 200.123,273.823 324.5,207C 380.677,178.769 440.01,162.269 502.5,157.5 Z"/></g>
<g><path style="opacity:1" fill="#fdfefe" d="M 510.5,167.5 C 658.774,164.244 781.274,218.244 878,329.5C 958.012,429.167 991.012,542.833 977,670.5C 954.161,819.798 877.661,931.964 747.5,1007C 638.316,1064.37 524.316,1076.37 405.5,1043C 277.162,1001.66 183.995,920.159 126,798.5C 73.4164,675.795 73.4164,553.129 126,430.5C 179.953,316.212 266.12,237.045 384.5,193C 425.538,179.026 467.538,170.526 510.5,167.5 Z"/></g>
<g><path style="opacity:1" fill="#1c8aaa" d="M 503.5,203.5 C 643.683,197.579 759.517,247.246 851,352.5C 931.177,453.541 959.844,567.874 937,695.5C 911.924,810.169 850.424,899.336 752.5,963C 644.711,1027.68 530.377,1042.35 409.5,1007C 285.48,964.647 198.646,882.813 149,761.5C 106.608,643.438 114.275,528.772 172,417.5C 236.046,306.012 331.212,236.845 457.5,210C 472.911,207.326 488.245,205.159 503.5,203.5 Z"/></g>
<g><path style="opacity:1" fill="#ef5454" d="M 516.5,213.5 C 641.057,211.491 745.89,255.491 831,345.5C 916.988,445.079 948.988,560.079 927,690.5C 902.666,806.429 840.499,895.596 740.5,958C 638.177,1016.78 530.177,1030.11 416.5,998C 291.763,956.596 205.263,874.763 157,752.5C 116.095,632.453 127.095,517.453 190,407.5C 266.13,288.653 374.963,223.987 516.5,213.5 Z"/></g>
<g><path style="opacity:0.989" fill="#ef5453" d="M 1478.5,310.5 C 1595.83,310.333 1713.17,310.5 1830.5,311C 1895.5,319.398 1943.67,352.231 1975,409.5C 2001,465.165 2001,520.832 1975,576.5C 1943.69,633.777 1895.52,666.61 1830.5,675C 1605.83,675.667 1381.17,675.667 1156.5,675C 1116.66,670.67 1084.83,652.503 1061,620.5C 1055,611.833 1049,603.167 1043,594.5C 1028.17,569.498 1012.83,544.831 997,520.5C 994.392,516.293 992.392,511.96 991,507.5C 1014.92,543.39 1048.42,563.89 1091.5,569C 1335.16,569.353 1578.83,569.353 1822.5,569C 1863.78,560.384 1885.78,535.051 1888.5,493C 1887.22,459.737 1871.56,436.071 1841.5,422C 1837.23,420.465 1832.89,419.131 1828.5,418C 1690.17,416.437 1551.84,416.104 1413.5,417C 1371.26,422.69 1338.43,443.19 1315,478.5C 1316.31,474.858 1317.98,471.191 1320,467.5C 1336.06,442.432 1351.73,417.098 1367,391.5C 1379.25,371.574 1394.09,353.74 1411.5,338C 1431.37,322.727 1453.71,313.561 1478.5,310.5 Z"/></g>
<g><path style="opacity:1" fill="#fefcfc" d="M 523.5,541.5 C 509.323,541.829 495.323,541.496 481.5,540.5C 487.905,531.254 494.905,522.421 502.5,514C 504.5,513 506.5,512 508.5,511C 522.167,510.333 535.833,510.333 549.5,511C 542.379,520.077 535.379,529.243 528.5,538.5C 527.06,539.952 525.394,540.952 523.5,541.5 Z"/></g>
<g><path style="opacity:1" fill="#fefdfd" d="M 784.5,676.5 C 771.323,676.829 758.323,676.495 745.5,675.5C 757.792,672.439 767.625,665.772 775,655.5C 801.333,613.167 827.667,570.833 854,528.5C 855.793,525.705 857.96,523.205 860.5,521C 875.741,519.366 891.074,519.032 906.5,520C 877.875,565.416 849.375,610.916 821,656.5C 811.819,668.493 799.652,675.16 784.5,676.5 Z"/></g>
<g><path style="opacity:1" fill="#fefdfd" d="M 618.5,577.5 C 632.589,575.544 646.923,574.877 661.5,575.5C 663.199,575.34 664.866,575.506 666.5,576C 658.459,589.251 650.292,602.417 642,615.5C 629.434,636.54 632.6,654.707 651.5,670C 655.193,672.526 659.193,673.86 663.5,674C 669.226,671.608 673.726,667.774 677,662.5C 705.667,617.833 734.333,573.167 763,528.5C 765.264,525.567 768.098,523.4 771.5,522C 785.512,521.167 799.512,521.334 813.5,522.5C 783.333,569.5 753.167,616.5 723,663.5C 718.561,669.976 712.395,673.81 704.5,675C 675.833,675.667 647.167,675.667 618.5,675C 601.23,671.396 591.063,660.896 588,643.5C 586.843,634.127 588.843,625.46 594,617.5C 602.429,604.306 610.595,590.972 618.5,577.5 Z"/></g>
<g><path style="opacity:1" fill="#f7b3b2" d="M 481.5,540.5 C 495.323,541.496 509.323,541.829 523.5,541.5C 509.328,542.826 494.994,542.826 480.5,541.5C 480.624,540.893 480.957,540.56 481.5,540.5 Z"/></g>
<g><path style="opacity:1" fill="#f47c7c" d="M 369.5,566.5 C 400.833,565.167 432.167,565.167 463.5,566.5C 449.088,566.184 434.755,566.518 420.5,567.5C 416.5,567.5 412.5,567.5 408.5,567.5C 395.677,566.505 382.677,566.171 369.5,566.5 Z"/></g>
<g><path style="opacity:1" fill="#fefdfd" d="M 369.5,566.5 C 382.677,566.171 395.677,566.505 408.5,567.5C 396.93,569.537 387.097,574.87 379,583.5C 365.667,603.5 352.333,623.5 339,643.5C 334.005,652.89 334.672,661.89 341,670.5C 343.673,673.002 346.673,675.002 350,676.5C 352.78,674.308 355.114,671.641 357,668.5C 378.188,634.777 399.355,601.11 420.5,567.5C 434.755,566.518 449.088,566.184 463.5,566.5C 467.439,566.178 468.272,567.511 466,570.5C 443.24,605.692 420.74,641.026 398.5,676.5C 397.662,676.842 397.328,677.508 397.5,678.5C 389.703,692.421 378.036,701.587 362.5,706C 345.545,707.593 328.545,707.927 311.5,707C 328.926,703.791 341.926,694.457 350.5,679C 336.167,678.667 321.833,678.333 307.5,678C 290.178,671.382 285.345,659.549 293,642.5C 305.333,623.833 317.667,605.167 330,586.5C 340.146,573.844 353.312,567.177 369.5,566.5 Z"/></g>
<g><path style="opacity:1" fill="#f05555" d="M 408.5,567.5 C 412.5,567.5 416.5,567.5 420.5,567.5C 399.355,601.11 378.188,634.777 357,668.5C 355.114,671.641 352.78,674.308 350,676.5C 346.673,675.002 343.673,673.002 341,670.5C 334.672,661.89 334.005,652.89 339,643.5C 352.333,623.5 365.667,603.5 379,583.5C 387.097,574.87 396.93,569.537 408.5,567.5 Z"/></g>
<g><path style="opacity:1" fill="#fefdfd" d="M 270.5,570.5 C 285.17,570.333 299.837,570.5 314.5,571C 291.378,611.413 267.878,651.58 244,691.5C 235.571,699.965 225.404,705.132 213.5,707C 197.5,707.667 181.5,707.667 165.5,707C 178.854,705.241 190.021,699.407 199,689.5C 221,651.5 243,613.5 265,575.5C 266.812,573.7 268.645,572.033 270.5,570.5 Z"/></g>
<g><path style="opacity:1" fill="#f58e8e" d="M 559.5,575.5 C 593.5,574.167 627.5,574.167 661.5,575.5C 646.923,574.877 632.589,575.544 618.5,577.5C 612.69,576.51 606.69,576.177 600.5,576.5C 587.01,575.504 573.344,575.171 559.5,575.5 Z"/></g>
<g><path style="opacity:1" fill="#fefdfd" d="M 559.5,575.5 C 573.344,575.171 587.01,575.504 600.5,576.5C 589.132,577.934 579.632,582.934 572,591.5C 559.248,611.338 546.248,631.005 533,650.5C 520.62,665.442 504.786,674.275 485.5,677C 469.205,678.388 452.872,678.888 436.5,678.5C 436.5,678.167 436.5,677.833 436.5,677.5C 457.604,674.701 474.771,665.034 488,648.5C 499.667,630.5 511.333,612.5 523,594.5C 532.239,582.464 544.406,576.131 559.5,575.5 Z"/></g>
<g><path style="opacity:1" fill="#f7a1a1" d="M 398.5,676.5 C 410.989,677.495 423.656,677.829 436.5,677.5C 436.5,677.833 436.5,678.167 436.5,678.5C 423.5,678.5 410.5,678.5 397.5,678.5C 397.328,677.508 397.662,676.842 398.5,676.5 Z"/></g>
<g><path style="opacity:1" fill="#fcd4d3" d="M 745.5,675.5 C 758.323,676.495 771.323,676.829 784.5,676.5C 768.005,677.662 751.338,677.828 734.5,677C 738.214,676.68 741.881,676.18 745.5,675.5 Z"/></g>
<g><path style="opacity:1" fill="#f59393" d="M 512.5,696.5 C 548.336,695.17 584.336,695.17 620.5,696.5C 620.376,697.107 620.043,697.44 619.5,697.5C 584.004,696.502 548.337,696.168 512.5,696.5 Z"/></g>
<g><path style="opacity:1" fill="#fefefe" d="M 512.5,696.5 C 548.337,696.168 584.004,696.502 619.5,697.5C 612.766,705.958 606.266,714.625 600,723.5C 598.421,725.041 596.587,726.208 594.5,727C 557.167,727.667 519.833,727.667 482.5,727C 489.789,717.376 497.455,708.042 505.5,699C 507.65,697.589 509.984,696.755 512.5,696.5 Z"/></g>
<g><path style="opacity:0.992" fill="#ef5453" d="M 2143.5,752.5 C 2143.5,753.167 2143.5,753.833 2143.5,754.5C 2124.77,784.269 2106.27,814.269 2088,844.5C 2073.97,868.195 2055.47,887.695 2032.5,903C 2016.38,912.363 1999.05,918.03 1980.5,920C 1810.17,920.667 1639.83,920.667 1469.5,920C 1433.85,915.311 1404.68,899.144 1382,871.5C 1373.51,860.517 1365.51,849.184 1358,837.5C 1340.46,809.583 1323.29,781.417 1306.5,753C 1314.72,763.231 1323.72,773.231 1333.5,783C 1354.1,800.129 1377.77,810.462 1404.5,814C 1602.83,814.156 1801.17,814.322 1999.5,814.5C 2048.3,821.11 2090.46,807.777 2126,774.5C 2132.08,767.267 2137.91,759.934 2143.5,752.5 Z"/></g>
<g><path style="opacity:0.982" fill="#ef5453" d="M 1762.5,1451.5 C 1792.51,1451.17 1822.51,1451.5 1852.5,1452.5C 1798.14,1540.37 1743.97,1628.37 1690,1716.5C 1681.09,1732.41 1670.26,1746.91 1657.5,1760C 1643.39,1772.22 1627.06,1779.89 1608.5,1783C 1595,1784.78 1581.5,1785.94 1568,1786.5C 1542.57,1785.67 1517.07,1785.17 1491.5,1785C 1524.85,1783.57 1552.02,1770.07 1573,1744.5C 1631.58,1650.33 1689.92,1556 1748,1461.5C 1751.98,1456.77 1756.81,1453.44 1762.5,1451.5 Z"/></g>
<g><path style="opacity:0.978" fill="#ef5453" d="M 1575.5,1454.5 C 1603.84,1454.17 1632.17,1454.5 1660.5,1455.5C 1596.2,1556.97 1531.7,1658.3 1467,1759.5C 1457.59,1771.23 1445.42,1778.4 1430.5,1781C 1421.05,1782.34 1411.55,1783.18 1402,1783.5C 1354.51,1782.71 1307.01,1782.21 1259.5,1782C 1225.18,1779.01 1201.68,1761.51 1189,1729.5C 1181.35,1704.04 1184.68,1680.04 1199,1657.5C 1216.88,1628.92 1234.38,1600.08 1251.5,1571C 1211.91,1564.64 1178.74,1576.14 1152,1605.5C 1130.67,1636.82 1110.33,1668.82 1091,1701.5C 1075.95,1725.88 1056.79,1746.38 1033.5,1763C 1007.27,1778.31 978.935,1786.64 948.5,1788C 937.161,1788.37 925.827,1788.87 914.5,1789.5C 871.84,1788.38 829.174,1788.21 786.5,1789C 760.506,1834.59 721.006,1855.09 668,1850.5C 642.837,1849.84 617.67,1849.34 592.5,1849C 635.34,1846.46 667.006,1826.46 687.5,1789C 662.498,1788.83 637.498,1788.83 612.5,1789C 587.944,1788.39 571.111,1776.89 562,1754.5C 558.796,1740.22 560.463,1726.56 567,1713.5C 594.255,1670.65 622.255,1628.32 651,1586.5C 671.729,1562.89 697.896,1550.72 729.5,1550C 796.518,1549.36 863.518,1549.36 930.5,1550C 942.333,1534.17 954.167,1518.33 966,1502.5C 972.774,1493.73 981.608,1488.23 992.5,1486C 1020.17,1485.33 1047.83,1485.33 1075.5,1486C 1060.3,1505.57 1045.47,1525.4 1031,1545.5C 1028.77,1547.7 1026.27,1549.53 1023.5,1551C 993.889,1552.14 964.222,1552.98 934.5,1553.5C 885.833,1630.83 837.167,1708.17 788.5,1785.5C 814.827,1786.67 841.16,1786.83 867.5,1786C 914.836,1779.62 952.336,1757.12 980,1718.5C 1004.08,1680.66 1028.42,1643 1053,1605.5C 1071.95,1583.11 1096.12,1570.94 1125.5,1569C 1196.83,1568.33 1268.17,1568.33 1339.5,1569C 1343.21,1569.17 1346.88,1569.67 1350.5,1570.5C 1329.58,1604.68 1309.41,1639.34 1290,1674.5C 1276.3,1713.07 1285.8,1744.57 1318.5,1769C 1325.58,1773.12 1333.08,1776.29 1341,1778.5C 1353.2,1774.56 1362.87,1767.23 1370,1756.5C 1431.08,1660 1492.42,1563.66 1554,1467.5C 1559.96,1460.95 1567.13,1456.61 1575.5,1454.5 Z M 815.5,1551.5 C 822.508,1551.33 829.508,1551.5 836.5,1552C 787.667,1629.5 738.833,1707 690,1784.5C 666.738,1773.98 656.404,1755.98 659,1730.5C 660.837,1722.98 663.837,1715.98 668,1709.5C 694.418,1669 721.085,1628.66 748,1588.5C 766.186,1568.11 788.686,1555.78 815.5,1551.5 Z"/></g>
<g><path style="opacity:0.98" fill="#ef5453" d="M 529.5,1557.5 C 557.841,1557.17 586.175,1557.5 614.5,1558.5C 570.133,1636.37 525.967,1714.37 482,1792.5C 466.56,1821.6 442.727,1839.76 410.5,1847C 395.928,1849.31 381.261,1850.48 366.5,1850.5C 341.503,1849.86 316.503,1849.36 291.5,1849C 329.954,1846.87 359.454,1829.7 380,1797.5C 423,1721.83 466,1646.17 509,1570.5C 514.417,1563.72 521.25,1559.39 529.5,1557.5 Z"/></g>
<g><path style="opacity:0.982" fill="#ef5453" d="M 1030.5,1824.5 C 1105.17,1824.17 1179.84,1824.5 1254.5,1825.5C 1240.33,1844.5 1226.17,1863.5 1212,1882.5C 1209.46,1885.37 1206.63,1887.87 1203.5,1890C 1163.39,1891.16 1123.22,1891.66 1083,1891.5C 1043.83,1891.17 1004.67,1890.83 965.5,1890.5C 977.667,1874.17 989.833,1857.83 1002,1841.5C 1009.57,1832.31 1019.07,1826.64 1030.5,1824.5 Z"/></g>
</svg>
