<?xml version="1.0" encoding="UTF-8" ?>
<!DOCTYPE svg PUBLIC "-//W3C//DTD SVG 1.1//EN" "http://www.w3.org/Graphics/SVG/1.1/DTD/svg11.dtd">
<svg width="192pt" height="192pt" viewBox="0 0 192 192" version="1.1" xmlns="http://www.w3.org/2000/svg">
<g id="#0969daff">
<path fill="#0969da" opacity="1.00" d=" M 0.00 0.00 L 192.00 0.00 L 192.00 192.00 L 0.00 192.00 L 0.00 0.00 M 11.37 57.48 C 7.76 58.59 5.04 62.15 5.07 65.95 C 5.05 83.63 5.11 101.32 5.04 119.01 C 5.08 121.07 4.89 123.27 5.87 125.17 C 7.73 128.92 12.16 131.80 16.40 130.38 C 19.71 128.92 22.77 125.89 22.81 122.06 C 22.86 103.35 22.82 84.64 22.84 65.93 C 23.05 60.27 16.74 55.51 11.37 57.48 M 33.55 65.98 C 33.54 84.64 33.55 103.31 33.54 121.97 C 33.33 126.26 36.98 129.88 40.96 130.83 C 46.04 131.74 51.20 127.19 51.26 122.10 C 51.29 115.79 51.25 109.49 51.25 103.19 C 59.16 103.31 67.07 102.91 74.98 103.22 C 78.25 103.33 81.53 102.42 84.76 103.19 C 84.74 109.49 84.64 115.80 84.78 122.11 C 85.66 126.20 88.75 130.11 93.04 130.87 C 98.46 131.62 103.46 126.44 103.20 121.10 C 103.22 103.04 103.23 84.97 103.20 66.91 C 103.42 61.59 98.39 56.42 92.96 57.34 C 88.77 57.95 85.81 61.82 84.80 65.73 C 84.60 72.04 84.77 78.37 84.75 84.69 C 73.58 84.71 62.41 84.71 51.23 84.68 C 51.27 78.43 51.28 72.18 51.26 65.93 C 51.20 62.26 48.52 59.13 45.25 57.70 C 39.90 55.66 33.43 60.30 33.55 65.98 M 143.49 57.73 C 128.96 60.32 116.91 72.52 114.47 87.08 C 112.09 93.30 114.31 99.83 116.08 105.88 C 117.81 109.56 118.99 114.37 123.17 116.00 C 129.12 118.20 136.65 112.32 135.29 105.93 C 134.40 102.19 131.92 98.92 131.72 94.99 C 130.90 86.32 136.96 77.71 145.40 75.56 C 153.87 73.03 163.60 77.82 167.06 85.89 C 170.96 93.98 167.70 104.53 160.05 109.15 C 155.44 112.21 149.79 112.46 144.45 112.62 C 137.80 114.40 136.52 124.19 141.86 128.20 C 145.42 131.55 150.62 130.60 154.94 129.65 C 165.40 128.04 175.24 121.99 180.80 112.91 C 184.82 106.39 187.26 98.63 186.67 90.93 C 185.41 79.34 178.93 68.12 168.69 62.25 C 161.21 57.67 152.08 56.20 143.49 57.73 M 160.47 95.49 C 158.50 97.52 157.90 100.69 155.40 102.23 C 153.47 103.69 150.96 103.51 148.69 103.65 C 147.84 104.45 146.99 105.26 146.13 106.05 C 147.50 107.23 148.92 108.84 150.94 108.52 C 156.73 107.98 162.35 103.56 163.58 97.79 C 162.97 96.55 162.20 94.49 160.47 95.49 Z" />
</g>
<g id="#ffffffff">
<path fill="#ffffff" opacity="1.00" d=" M 11.37 57.48 C 16.74 55.51 23.05 60.27 22.84 65.93 C 22.82 84.64 22.86 103.35 22.81 122.06 C 22.77 125.89 19.71 128.92 16.40 130.38 C 12.16 131.80 7.73 128.92 5.87 125.17 C 4.89 123.27 5.08 121.07 5.04 119.01 C 5.11 101.32 5.05 83.63 5.07 65.95 C 5.04 62.15 7.76 58.59 11.37 57.48 Z" />
<path fill="#ffffff" opacity="1.00" d=" M 33.55 65.98 C 33.43 60.30 39.90 55.66 45.25 57.70 C 48.52 59.13 51.20 62.26 51.26 65.93 C 51.28 72.18 51.27 78.43 51.23 84.68 C 62.41 84.71 73.58 84.71 84.75 84.69 C 84.77 78.37 84.60 72.04 84.80 65.73 C 85.81 61.82 88.77 57.95 92.96 57.34 C 98.39 56.42 103.42 61.59 103.20 66.91 C 103.23 84.97 103.22 103.04 103.20 121.10 C 103.46 126.44 98.46 131.62 93.04 130.87 C 88.75 130.11 85.66 126.20 84.78 122.11 C 84.64 115.80 84.74 109.49 84.76 103.19 C 81.53 102.42 78.25 103.33 74.98 103.22 C 67.07 102.91 59.16 103.31 51.25 103.19 C 51.25 109.49 51.29 115.79 51.26 122.10 C 51.20 127.19 46.04 131.74 40.96 130.83 C 36.98 129.88 33.33 126.26 33.54 121.97 C 33.55 103.31 33.54 84.64 33.55 65.98 Z" />
</g>
<g id="#fed325ff">
<path fill="#fed325" opacity="1.00" d=" M 143.49 57.73 C 152.08 56.20 161.21 57.67 168.69 62.25 C 178.93 68.12 185.41 79.34 186.67 90.93 C 187.26 98.63 184.82 106.39 180.80 112.91 C 175.24 121.99 165.40 128.04 154.94 129.65 C 150.62 130.60 145.42 131.55 141.86 128.20 C 136.52 124.19 137.80 114.40 144.45 112.62 C 149.79 112.46 155.44 112.21 160.05 109.15 C 167.70 104.53 170.96 93.98 167.06 85.89 C 163.60 77.82 153.87 73.03 145.40 75.56 C 136.96 77.71 130.90 86.32 131.72 94.99 C 131.92 98.92 134.40 102.19 135.29 105.93 C 136.65 112.32 129.12 118.20 123.17 116.00 C 118.99 114.37 117.81 109.56 116.08 105.88 C 114.31 99.83 112.09 93.30 114.47 87.08 C 116.91 72.52 128.96 60.32 143.49 57.73 Z" />
<path fill="#fed325" opacity="1.00" d=" M 160.47 95.49 C 162.20 94.49 162.97 96.55 163.58 97.79 C 162.35 103.56 156.73 107.98 150.94 108.52 C 148.92 108.84 147.50 107.23 146.13 106.05 C 146.99 105.26 147.84 104.45 148.69 103.65 C 150.96 103.51 153.47 103.69 155.40 102.23 C 157.90 100.69 158.50 97.52 160.47 95.49 Z" />
</g>
</svg>
