<?xml version="1.0" encoding="UTF-8"?><svg id="Layer_1" xmlns="http://www.w3.org/2000/svg" viewBox="0 0 128 128"><defs><style>.cls-1{fill:#ee682a;}.cls-2{fill:#ed6120;}.cls-3{fill:#ef7035;}.cls-4{fill:#ee6728;}.cls-5{fill:#fdf0ea;}.cls-6{fill:#ee6829;}.cls-7{fill:#ee6a2c;}.cls-8{fill:#ef6c2f;}.cls-9{fill:#ee6c2e;}.cls-10{fill:#ed5f1d;}.cls-11{fill:#ee692a;}.cls-12{fill:#ee6a2d;}.cls-13{fill:#ed601e;}.cls-14{fill:#ed5f1c;}.cls-15{fill:#ee6b2d;}</style></defs><path class="cls-13" d="M16.3,64.45c.26-.33,1.06-.4,1.33-.06.74,1.12-.14,3.31.47,4.42.55.58,1.67.46,2.37.36.87-.12,1.68-.72.55-.93-2.74.27-2.05-1.64-2.1-3.55-.27-2.2,2.03-3.31,3.89-2.77,1.04.42.64,1.68-.46,1.6-.41.03-.85.03-1.16.18-.69.41-.64,1.87-.2,2.45.54.64,1.73.11,2.2.68.57,1.14.31,2.98-.71,3.72-1.62.72-4.07.8-5.56-.19-1.08-.99-.68-2.53-.75-3.84,0-.61-.05-1.48.09-2.01l.05-.08Z"/><path class="cls-10" d="M65.64,66.41c3,.82.98-3.53,2.19-4.43,1.64-.51,1.3,1.8,1.29,2.77-.07.79.17,1.86-.07,2.7-.11.33-.35.61-.76.7-5.42.17-10.83,0-16.27.07-.76.01-.76.85-1.04,1.45-.33.75-1.83,1.67-2.52,1.15-.32-.22-.3-.97-.09-1.29.24-.36.83-.4,1.02-.8.55-1.82.06-3.96.24-5.88.02-.53.44-1.13,1.03-.94.3.09.55.38.62.71.21,1.08-.16,2.54.14,3.6,0,.29,1.01.25,1.31.3,2.37.28,1.96-1.17,1.98-2.92-.05-.85.16-1.85,1.14-1.66.8.29.63,1.29.63,2.01.16.69-.41,2.27.53,2.48,1.99.04,4.09.25,6.06.03.69-.13.62-1.2.06-1.47-1.26-.51-3.42.33-4.45-.5-.39-.59-.38-1.73-.12-2.4.34-.76,1.11-1.21,1.76-1.66.89-.71,1.81-1.42,3.08-1.25,1.01-.02,1.24.3.22.97-.42.53-4.75,2.84-2.48,2.93,2.01-.15,4.28.17,4.2,2.69,0,.25.13.53.2.59l.08.05Z"/><path class="cls-13" d="M38.65,68.47c-.18.69-.44,1.79-1.14,2.13-1.02.66-4.4.79-3.44-1,.56-.89,2.32.18,2.61-.98-.01-.32-.44-.4-.85-.49-2.97-.46-2.65-5.66.01-6.24,3.41-.66,2.67,1.42,2.72,3.54,0,.48,0,.95.43,1,2.04.13,4.22.17,6.26.06.66-.19.54-1.18-.02-1.47-1.33-.45-3.04.24-4.32-.37-.66-.55-.42-1.66-.32-2.43.26-.77,1.08-1.2,1.7-1.69.68-.48,1.35-1.16,2.18-1.29.61-.05,1.3-.08,1.84.07.31.12-.36.6-.65.87-.3.48-4.37,2.69-2.76,2.88,1.24-.02,2.9-.11,3.82.77.66.49,1.25,2.81.41,4.15-2.59.79-5.73-.16-8.42.4l-.04.08Z"/><path class="cls-14" d="M88.68,68.18c-1.43.34-1.22-.82-.86-1.81.63-2.25,2.57-4.54,5.11-4.24.93.56.44,2.3.55,3.27-.06,1,.37,1.19,1.27,1.14,1.86-.13,4.61.79,3.94-2.16-.29-1.39-2.14-.38-2.94-1.16-1.07-1.64,1.86-1.47,2.79-1.29,1.21.19,2.08,1.51,1.97,2.71.04.48-.16,1.36.15,1.71.42.25.93.1,1.62.13,2.51.26,1.31-2.42,1.7-3.86.14-.78,1.3-.97,1.53-.14.24.77,0,1.93.08,2.57-.14.9.59,3.08-.95,3.18-3.96,0-7.98.09-11.98-.03-.95-.07-.94-1.01-.96-1.85.12-1.11-1.04-1.71-1.63-.67-.46.71-.47,2.08-1.26,2.49l-.12.03Z"/><path class="cls-13" d="M78.81,59.32c2.21-1.19,1.15,4.14,1.37,5.17-.21,1.97.59,4.26-.62,5.85-1.55,1.25-5.21,1.17-6.2-.64-.37-1.53-.3-3.45-.11-5.03.05-.19.19-.35.36-.43.47-.25,1.15.01,1.22.56.29,1.29-.17,2.9.24,4.07.29.42,1.05.32,1.58.35.55-.03,1.24.09,1.6-.32.5-2.83-.01-5.84.2-8.7.03-.23.16-.69.29-.8l.08-.06Z"/><path class="cls-10" d="M31.57,61.83c.21-.06.73.07.91.41.23.4.11.88.15,1.32,0,1.28.02,2.59-.02,3.86-.28,1.6-3.61.53-4.81.92-.16.05-.24.19-.31.37-.2.73-.48,1.38-1.02,1.77-.63.48-1.46.68-1.85.34-.26-.18-.35-.69-.16-1.25.18-.42.72-.37,1.02-.76.65-1.89.06-4.08.28-6.07.07-.55.52-1.11,1.13-.88,1.03.53.48,1.93.56,2.91.03.52-.09,1.25.32,1.58.79.26,1.95.26,2.71-.09,1.11-1.02-.36-3.45,1-4.44l.09-.03Z"/><path class="cls-13" d="M81.68,68.19c-.44-.23-.73-.8-.47-1.22.37-.68,1.32-.38,1.98-.44.42-.04.97.09,1.35-.06.35-.51.38-1.4,0-1.91-.39-.68-1.47-.71-2.27-1.3,0-.37-.19-1.14.18-1.33,1.47-.41,3.42.62,3.86,2.2.22,1.06.2,2.05.18,3.11-.02.25-.09.52-.25.73-.18.21-.58.26-.92.26-1.06.02-2.59,0-3.55,0l-.09-.04Z"/><path class="cls-13" d="M109.98,62.35c.33-.59,1.13-.71,1.56-.13.35,1.06.06,2.65.17,3.82-.03,1.08.06,2.21-.18,3.19-.28,1.09-1.67,1.96-2.81,1.7-.38-.32-.25-.99-.16-1.41.11-.27.48-.29.8-.45.53-.24.57-.64.59-1.21.01-1.78,0-3.68,0-5.41l.04-.1Z"/><path class="cls-2" d="M107.08,59.36c.39-.35.98-.29,1.32.19.27.63.05,1.44.12,2.13-.02,1.98.05,3.99-.03,5.97-.11.31-.38.54-.67.58-.55.06-.99-.38-1.02-.92-.03-2.43-.03-4.84,0-7.26,0-.21.14-.5.22-.62l.07-.08Z"/><path class="cls-13" d="M71.87,67.81c-.73.93-1.79.14-1.64-.91.03-2.2,0-4.5.02-6.75.04-.5.26-.92.8-1.01,1.33.02.73,1.66.85,2.53,0,1.99,0,4.07,0,6.05l-.04.1Z"/><path class="cls-11" d="M54.08,69.73c.33.79-.66,1.68-1.35,1.08-.95-.84.5-2.4,1.28-1.25l.08.16Z"/><path class="cls-15" d="M105.54,70.59c-.44.73-1.25.47-1.53-.15-.55-1.68,1.91-1.61,1.59-.02l-.06.17Z"/><path class="cls-3" d="M102.15,70.98c-.62-.23-.75-1.15-.28-1.59.44-.48,1.34-.14,1.41.54.1.6-.36,1.2-.94,1.1l-.18-.05Z"/><path class="cls-6" d="M55.54,71.04c-.99-.09-1.11-1.76-.04-1.84,1.21-.17,1.32,1.72.21,1.84h-.17Z"/><path class="cls-8" d="M67.45,60.46c-.49-.98.85-1.89,1.51-.94.57.88-.73,1.86-1.41,1.08l-.1-.14Z"/><path class="cls-7" d="M32.64,59.82c.17.63-.5,1.21-1.1.97-1.51-.72.2-2.63,1.05-1.15l.06.17Z"/><path class="cls-1" d="M30.95,58.44c-1.15.43-1.82-1.34-.49-1.56.89-.2,1.45,1.03.66,1.49l-.17.08Z"/><path class="cls-12" d="M30.23,59.71c.37,1.32-1.76,1.63-1.64.2.04-.8,1.2-1.1,1.57-.37l.07.17Z"/><path class="cls-4" d="M49.71,59.49c.84-1.18,2.32.56,1.14,1.28-.7.35-1.48-.41-1.21-1.12l.07-.16Z"/><path class="cls-9" d="M61.27,59.36c-.96.72-1.77,1.42-2.7,2.02-.22-.41-.16-.69.12-.91.48-.37.97-.74,1.46-1.09.29-.21.63-.24,1.11,0Z"/><path class="cls-5" d="M36.77,63.6c.1.97.03,1.89.05,2.79-.66.15-1.18-.08-1.26-.6-.07-.49-.07-1.01,0-1.5.07-.54.44-.72,1.21-.69Z"/></svg>