<?xml version="1.0" encoding="utf-8"?>
<!-- Generator: Adobe Illustrator 28.3.0, SVG Export Plug-In . SVG Version: 6.00 Build 0)  -->
<svg version="1.1" id="Layer_1" xmlns="http://www.w3.org/2000/svg" xmlns:xlink="http://www.w3.org/1999/xlink" x="0px" y="0px"
	 viewBox="0 0 192 192" style="enable-background:new 0 0 192 192;" xml:space="preserve">
<style type="text/css">
	.st0{fill-rule:evenodd;clip-rule:evenodd;fill:#E01B22;}
	.st1{fill:#034A9A;}
	.st2{fill-rule:evenodd;clip-rule:evenodd;fill:#034A9A;}
	.st3{fill:#E01B22;}
</style>
<g>
	<path class="st0" d="M136.1,92.64c6.89,0,13.77,0,20.66,0c-0.72-2.21-2.03-3.95-3.93-5.22c-1.9-1.26-4-1.9-6.3-1.9
		c-0.09,0-0.18,0-0.27,0c-0.09,0-0.18,0-0.27,0c-2.17,0.14-4.2,0.84-6.1,2.11C138,88.91,136.74,90.58,136.1,92.64 M113.16,92.65
		h13.95c0.76-3.74,2.54-7.06,5.34-9.96c3.84-3.97,8.56-5.96,14.16-5.96c5.37,0,9.92,1.98,13.65,5.92c3.73,3.94,5.59,8.51,5.59,13.74
		c0,0.59-0.03,1.16-0.1,1.73c-0.07,0.55-0.15,1.11-0.24,1.65c-0.05,0.18-0.08,0.34-0.1,0.47c-0.02,0.14-0.03,0.27-0.03,0.41
		c-9.71,0-19.42,0-29.12,0c0.68,2.21,1.93,3.97,3.76,5.28c1.83,1.31,3.87,1.96,6.13,1.96l0.34,8.74c-5.46,0-10.13-1.91-13.99-5.72
		c-2.98-2.94-4.81-6.38-5.49-10.3h-13.84V92.65z"/>
	<path class="st0" d="M68.14,92.64c6.89,0,13.77,0,20.66,0c-0.72-2.21-2.03-3.95-3.93-5.22c-1.9-1.26-4-1.9-6.3-1.9
		c-0.09,0-0.18,0-0.27,0c-0.09,0-0.18,0-0.27,0c-2.17,0.14-4.2,0.84-6.1,2.11C70.03,88.91,68.77,90.58,68.14,92.64 M46.61,92.65
		h12.54c0.76-3.74,2.54-7.06,5.34-9.96c3.84-3.97,8.56-5.96,14.16-5.96c5.37,0,9.92,1.98,13.65,5.92c3.72,3.94,5.59,8.51,5.59,13.74
		c0,0.59-0.03,1.16-0.1,1.73c-0.07,0.55-0.15,1.11-0.24,1.65c-0.05,0.18-0.08,0.34-0.1,0.47c-0.02,0.14-0.03,0.27-0.03,0.41
		c-9.71,0-19.42,0-29.12,0c0.68,2.21,1.93,3.97,3.76,5.28c1.83,1.31,3.87,1.96,6.13,1.96c0.11,2.91,0.23,5.82,0.34,8.74
		c-5.46,0-10.13-1.91-13.99-5.72c-2.98-2.94-4.81-6.38-5.49-10.3H46.61V92.65z"/>
	<path class="st1" d="M165.85,115.4c0-12.51,0-25.02,0-37.52c2.73,0,5.46,0,8.2,0c0,1.13,0,12.9,0,14.03c0.05,0,0.09,0,0.14,0
		c0.99-1.54,2.12-2.68,3.39-3.42c1.26-0.75,2.82-1.12,4.67-1.12c0.23-0.02,0.45-0.05,0.68-0.07c0,2.91,0,5.82,0,8.74
		c-0.32,0.05-0.63,0.08-0.95,0.1c-0.32,0.02-0.63,0.08-0.95,0.17c-0.63,0.14-1.26,0.33-1.9,0.58c-0.63,0.25-1.2,0.58-1.69,0.98
		c-1.13,0.9-1.84,1.95-2.13,3.15c-0.29,1.2-0.44,2.47-0.44,3.83c0,0.18,0,0.35,0,0.51c0,0.16,0,0.33,0,0.51c0,6.73,0,2.81,0,9.54
		C171.85,115.4,168.85,115.4,165.85,115.4"/>
	<path class="st1" d="M44.09,116.44c0-16.68,0-29.58,0-46.27c3,0,6.01,0,9.01,0c0,16.68,0,29.58,0,46.27
		C50.1,116.44,47.09,116.44,44.09,116.44"/>
	<path class="st1" d="M97.72,115.47c8.28-13.57,14.84-24.13,23.12-37.7c3,0,6.01,0,9.01,0c-8.28,13.57-14.84,24.13-23.12,37.7
		C103.73,115.47,100.72,115.47,97.72,115.47"/>
	<path class="st2" d="M63.19,48.72c17.79,0,33.29,9.83,41.36,24.36H93.83c-6.98-9.32-18.11-15.35-30.64-15.35
		c-21.13,0-38.27,17.14-38.27,38.27c0,21.13,17.14,38.27,38.27,38.27c12,0,22.71-5.53,29.72-14.18h10.96
		c-8.24,13.88-23.37,23.19-40.68,23.19c-26.11,0-47.28-21.17-47.28-47.28C15.91,69.89,37.08,48.72,63.19,48.72"/>
	<path class="st2" d="M106.79,77.68c2.37,5.63,3.68,11.82,3.68,18.32c0,6.95-1.5,13.55-4.2,19.49H96.12
		c3.39-5.71,5.34-12.37,5.34-19.49c0-6.64-1.69-12.88-4.67-18.32H106.79z"/>
	<path class="st3" d="M111.89,120.05c-0.68,1.2-1.79,3.12-2.1,3.64c-0.97,1.62-2.03,3.2-3.16,4.72c-1.61,2.15-3.37,4.18-5.27,6.06
		c-9.79,9.7-23.25,15.69-38.11,15.69c0,0,0,0,0,0c0,0,0-0.01,0-0.01c-14.96,0-28.5-6.06-38.29-15.86
		C15.15,124.5,9.09,110.96,9.09,96c0,0,0,0-0.01,0c0,0,0,0,0,0c0,0,0,0,0,0c0,0,0.01,0,0.01,0c0-14.96,6.06-28.5,15.86-38.29
		c9.8-9.8,23.33-15.86,38.29-15.86c0,0,0,0,0-0.01c0,0,0,0,0,0c0,0,0,0,0,0c0,0,0,0.01,0,0.01c8.49,0,16.52,1.95,23.66,5.43
		c1.72,0.84,3.41,1.78,5.07,2.82c7.61,4.77,13.95,11.39,18.4,19.23c0.32,0.56,1.33,2.49,2.06,3.89h-4.38
		c-4.15-8.14-10.45-14.99-18.15-19.83c-1.49-0.94-3.06-1.81-4.71-2.61c-6.64-3.23-14.09-5.04-21.95-5.04c0,0,0,0.01,0,0.01
		c0,0,0,0,0,0c0,0,0,0,0,0c0,0,0,0,0-0.01c-13.87,0-26.43,5.63-35.53,14.73c-9.1,9.1-14.73,21.66-14.73,35.53c0,0,0.01,0,0.01,0
		c0,0,0,0,0,0c0,0,0,0,0,0c0,0,0,0-0.01,0c0,13.87,5.63,26.43,14.73,35.53c9.1,9.1,21.66,14.73,35.53,14.73c0,0,0-0.01,0-0.01
		c0,0,0,0,0,0c13.79,0,26.29-5.56,35.36-14.55c1.77-1.76,3.41-3.64,4.9-5.63c1.42-1.89,2.71-3.91,3.87-6.02H111.89z"/>
</g>
</svg>
