<?xml version="1.0" encoding="UTF-8"?>
<svg id="Layer_1" xmlns="http://www.w3.org/2000/svg" version="1.1" viewBox="0 0 192 192">
  <!-- Generator: Adobe Illustrator 29.0.1, SVG Export Plug-In . SVG Version: 2.1.0 Build 192)  -->
  <defs>
    <style>
      .st0 {
        fill: #ea0000;
      }
    </style>
  </defs>
  <path class="st0" d="M6,120.25s5.9-5.55,8.89-7.85h-1.62v-13.27h8.07c3.7,0,8.94-.42,10.76,3.48l8.64-5.47c-1.44-1.29-3.22-2.27-5.37-2.91,2.14-1.02,3.84-2.53,5.09-4.53,1.25-2,1.88-4.21,1.88-6.63,0-2.22-.51-4.21-1.52-5.99-1.01-1.78-2.28-3.21-3.8-4.29-1.52-1.08-3.25-1.79-5.18-2.12-1.93-.33-4.85-.5-8.77-.5h-7.26c-2.35,0-4.24,1.93-4.2,4.28,0,.04,0,.5,0,.55.04,2.29,1.91,4.13,4.2,4.13h3.2c4.7,0,5.86.06,6.85.17,1.66.23,5.28,1.44,5.28,5.24s-4.02,5.65-5.74,5.88c-.96.12-1.69.17-5.58.17h-6.55v-7.99c0-3.04-2.45-5.52-5.49-5.56h-.15c-3.1-.04-5.64,2.46-5.64,5.56v32.94c0,1.39.48,2.66,1.28,3.67.8-3.35,3.9-14.43,12.03-24.33,0,0-8.87,16.48-9.3,25.35Z"/>
  <path class="st0" d="M22.52,112.4h-.35c-3.53,1.88-9.52,5.38-12.98,9.08h1.04s7.94-4.81,17.73-9.54c-1.86.47-3.91.46-5.44.46Z"/>
  <path class="st0" d="M41.87,98.31l-9.13,7.54c0,.09,0,.18,0,.28-.02,2.11-.77,3.5-1.89,4.43.02,0,.04-.02.06-.03,4.56-2.11,9.36-4.11,13.7-5.79-.27-2.2-1.04-4.15-2.31-5.87-.14-.19-.3-.37-.45-.56Z"/>
  <path class="st0" d="M32.2,121.13c2.65-.29,4.88-1.1,6.7-2.43,1.82-1.33,3.25-3.09,4.29-5.29.52-1.09.91-2.2,1.17-3.33-10.75,4.59-18.13,8.8-22.23,11.38,5.23-.06,8.6-.17,10.08-.33Z"/>
  <path class="st0" d="M45.86,95.01c-.12,1.23-.19,2.51-.19,3.87,0,1.87.14,3.63.41,5.3,3.94-1.5,7.42-2.71,9.86-3.45-.05-.69-.08-1.41-.08-2.15,0-5.18,1.14-8.63,3.43-11.18,2.28-2.55,4.46-3.41,8.21-3.41s6.3.84,8.56,3.37c1.68,1.88,2.73,4.25,3.16,7.45,3.14-.75,6.37-1.49,9.51-2.18-.82-4.5-2.63-8.2-5.44-11.1-3.97-4.11-9.27-6.17-15.91-6.17-3.65,0-6.87.6-9.65,1.8-2.12.87-4.06,2.21-5.82,4.02-1.76,1.81-3.15,3.87-4.17,6.17-.83,1.88-1.41,4.04-1.74,6.46l5.62-3.56-5.76,4.76Z"/>
  <path class="st0" d="M79.45,98.46c0,5.21-1.16,9.11-3.49,11.72-2.32,2.6-4.86,3.48-8.46,3.48s-5.77-.89-8.12-3.52c-1.18-1.33-2.07-2.96-2.66-4.91-3.37,1.21-6.51,2.42-9.43,3.62.98,2.64,2.41,4.93,4.29,6.87,3.94,4.07,9.26,6.11,15.95,6.11s11.85-2.05,15.8-6.15c3.94-4.1,5.92-9.77,5.92-17.02,0-.94-.03-1.86-.1-2.75-3.36.75-6.59,1.54-9.71,2.35,0,.07,0,.14,0,.21Z"/>
  <path class="st0" d="M102.41,80.4c0-2.61-2.12-4.73-4.73-4.73s-4.73,2.12-4.73,4.73v11.35c3.53-.72,6.79-1.31,9.46-1.67v-9.67Z"/>
  <path class="st0" d="M92.95,95.07v21.14c0,2.91,2.36,5.26,5.26,5.26h21.91c2.44,0,4.43-1.98,4.43-4.43s-1.98-4.43-4.43-4.43h-17.71v-19.4c-.74.13-1.47.27-2.19.4-2.48.46-4.9.94-7.27,1.44Z"/>
  <path class="st0" d="M136.47,84.17h20.05c2.08,0,3.77-1.69,3.77-3.77v-.08c0-2.08-1.69-3.77-3.77-3.77h-25.21c-2.63,0-4.76,2.13-4.76,4.76v6.07c3.4-.34,6.75-.62,9.92-.8v-2.42Z"/>
  <path class="st0" d="M126.55,116.3c0,2.86,2.32,5.18,5.18,5.18h25.21c2.08,0,3.77-1.69,3.77-3.77v-.04c.56-2.7-1.69-4.62-3.77-4.62h-20.47v-11.37h18.36c2.08,0,3.77-1.69,3.77-3.77s-1.69-3.77-3.77-3.77h-18.36v-5.25c-3.38.26-6.69.57-9.92.91v26.5Z"/>
  <path class="st0" d="M180.71,104.74c0,3.63-.43,6.02-1.28,7.18-.86,1.16-2.32,1.74-4.4,1.74s-3.62-.82-4.62-2.45c-.38-.57-.66-2.53-.87-4.6-.25-2.55-2.54-4.39-5.09-4.11-2.33.26-4.1,2.24-4.08,4.58.02,1.5.12,3.04.47,4.5.62,2.59,2.14,4.93,3.31,6.1,2.46,2.48,5.98,3.71,10.56,3.71,3.89,0,7.02-.79,9.39-2.37,2.37-1.58,4.01-3.68,4.93-6.28.66-2.02.99-4.88.99-8.58v-15.49c-3.15-.21-6.25-.38-9.31-.51v16.58Z"/>
  <path class="st0" d="M190.02,80.3c0-2.54-2.06-4.59-4.59-4.59h-.13c-2.54,0-4.59,2.06-4.59,4.59v6.47c2.8.21,6.3.47,9.31.72v-7.19Z"/>
  <path class="st0" d="M30.86,110.56c-.98.45-1.95.91-2.91,1.38,1.08-.27,2.09-.7,2.91-1.38Z"/>
</svg>