<?xml version="1.0" encoding="UTF-8"?>
<!DOCTYPE svg PUBLIC "-//W3C//DTD SVG 1.1//EN" "http://www.w3.org/Graphics/SVG/1.1/DTD/svg11.dtd">
<!-- Creator: CorelDRAW -->
<svg xmlns="http://www.w3.org/2000/svg" xml:space="preserve" width="7.55906in" height="7.55906in" version="1.1" style="shape-rendering:geometricPrecision; text-rendering:geometricPrecision; image-rendering:optimizeQuality; fill-rule:evenodd; clip-rule:evenodd"
viewBox="0 0 7559.06 7559.06"
 xmlns:xlink="http://www.w3.org/1999/xlink"
 xmlns:xodm="http://www.corel.com/coreldraw/odm/2003">
 <defs>
  <style type="text/css">
   <![CDATA[
    .fil0 {fill:#212127}
    .fil1 {fill:#FEFEFE;fill-rule:nonzero}
   ]]>
  </style>
 </defs>
 <g id="Layer_x0020_1">
  <metadata id="CorelCorpID_0Corel-Layer"/>
  <rect class="fil0" x="-0.47" y="0.47" width="7559.06" height="7559.06"/>
  <g id="_2677249680176">
   <path class="fil1" d="M2258.53 3639.78c-17.04,39.89 -40.72,75 -70.47,104.37 -29.94,29.56 -65.19,53.28 -104.78,70.49 -39.32,17.29 -82.21,26.07 -127.54,26.07 -45.32,0 -88.21,-8.78 -127.57,-26.07 -39.52,-17.21 -74.54,-40.93 -104.17,-70.49 -29.5,-29.46 -53.24,-64.67 -70.53,-104.46 -17.35,-39.72 -26.11,-82.74 -26.11,-127.85 0,-45.11 8.76,-88.13 26.11,-127.93 17.37,-39.97 41.11,-75.1 70.53,-104.38 29.6,-29.56 64.61,-53.28 104.17,-70.57 39.4,-17.21 82.33,-25.99 127.57,-25.99 45.24,0 88.17,8.78 127.58,25.99 39.59,17.29 74.82,41.09 104.74,70.57 29.67,29.2 53.41,64.31 70.47,104.29 17,39.89 25.6,82.91 25.6,128.02 0,45.11 -8.6,88.13 -25.6,127.93zm61.1 -281.93c-19.64,-46.24 -48.1,-88.47 -84.64,-125.76 -35.85,-35.89 -77.83,-64.31 -125.03,-84.74 -24.29,-9.74 -49.75,-17.04 -75.7,-21.72 -25.43,-4.53 -51.8,-6.78 -78.53,-6.78 -26.72,0 -52.96,2.25 -78.08,6.78 -25.56,4.68 -50.79,12.09 -75.26,21.81 -46.37,19.74 -88.69,48.15 -126.07,84.83 -36.32,37.62 -64.4,79.86 -83.39,125.48 -21.07,48.58 -31.72,100.22 -31.72,153.57 0,53.46 10.65,105.07 31.56,153.14 19.07,47.89 47.63,90.39 84.74,126.19 35.85,35.72 77.83,64.14 124.97,84.57 47.76,19.64 99.29,29.63 153.26,29.63 54.63,0 106.56,-9.99 154.53,-29.72 47.02,-20.33 88.94,-48.75 124.72,-84.47 35.76,-35.8 64.22,-78.14 84.59,-125.85 20.38,-47.19 30.72,-98.8 30.72,-153.48 0,-26.6 -2.47,-52.92 -7.39,-78.21 -4.9,-25.29 -12.78,-50.58 -23.29,-75.26z"/>
   <polygon class="fil1" points="3593.03,3142.65 3374.77,3450.1 3161.65,3142.65 3082.76,3142.65 3343.38,3503.87 3343.38,3890.35 3409.28,3890.35 3407.19,3518.09 3671.94,3142.65 "/>
   <path class="fil1" d="M4646.61 3733.89c-31.46,35.37 -68.83,63.09 -111.03,82.3 -42.14,19.29 -87.43,29.11 -134.54,29.11 -45.1,0 -88.04,-8.78 -127.57,-26.07 -39.6,-17.29 -74.83,-41.02 -104.68,-70.49 -29.82,-29.46 -53.54,-64.57 -70.5,-104.37 -16.97,-39.72 -25.63,-82.82 -25.63,-127.93 0,-45.1 8.65,-88.21 25.63,-128.02 17.04,-39.89 40.72,-75 70.5,-104.29 29.67,-29.37 64.87,-53.1 104.68,-70.57 39.53,-17.29 82.47,-26.07 127.57,-26.07 48.98,0 97.09,11.29 142.97,33.62l10.87 5.22 31.32 -57.81 -20.03 -10.33c-25.85,-12.25 -53.02,-21.21 -80.78,-26.68 -27.29,-5.39 -55.67,-8.08 -84.36,-8.08 -26.71,0 -52.96,2.25 -77.94,6.78 -25.2,4.52 -50.5,11.92 -75.36,21.82 -24.01,9.91 -46.67,21.97 -67.26,35.97 -20.89,14.25 -40.63,30.6 -58.75,48.68 -36.46,37.11 -64.92,79.43 -84.56,125.83 -20.35,49.09 -30.64,100.64 -30.64,153.4 0,52.75 10.29,104.29 30.64,153.22 19.64,47.79 48.14,90.19 84.65,126.09 18.13,18.07 37.83,34.42 58.65,48.5 20.82,14.15 43.46,26.24 67.26,36.06 47.76,19.65 99.35,29.64 153.31,29.64 28.59,0 57.03,-2.86 84.43,-8.52 27.47,-5.57 54.58,-14.42 80.49,-26.42 48.54,-21.82 92.35,-54.15 130.19,-96.21l8.43 -9.39 -49.54 -44.59 -8.43 9.56z"/>
   <polygon class="fil1" points="5058.3,3143.87 4770.55,3891.46 4840.98,3891.46 5092.27,3236.81 5344.52,3891.46 5414.91,3891.46 5127.2,3143.87 "/>
   <polygon class="fil1" points="6238.94,3465.32 6584.56,3465.32 6584.56,3401.64 6173.28,3401.64 6173.28,3890.27 6633.35,3890.27 6633.35,3826.67 6238.94,3826.67 "/>
   <polygon class="fil1" points="6173.29,3141.99 6173.29,3203.41 6173.29,3205.66 6633.36,3205.66 6633.36,3141.99 "/>
   <path class="fil1" d="M924.75 3892.43l0 -63.65 324.92 0c24.61,0 48.28,-4.85 70.39,-14.25 22.15,-9.58 41.71,-22.72 58.11,-39.12 16.42,-16.32 29.58,-35.75 39.14,-57.7 9.42,-21.76 14.2,-45.51 14.2,-70.82 0,-24.61 -4.78,-48.28 -14.24,-70.39 -9.59,-22.28 -22.72,-41.62 -38.96,-57.43 -16.44,-16.15 -36.03,-29.19 -58.25,-38.78 -22.29,-9.41 -45.96,-14.25 -70.39,-14.25l-12.53 0 0 -0.96 -22.07 0c-9.36,0.86 -19.13,0.96 -35.09,0.96 0,0 -138.59,-0.96 -189.46,-0.96l0 197.28 -65.76 0 0 -329.24 65.76 0 0 68.22 222.53 0c22.85,-3.02 42.79,-13.47 59.37,-31.96 16.63,-18.57 24.74,-39.89 24.74,-65.37 0,-13.21 -2.53,-25.82 -7.58,-37.31 -5.18,-11.83 -12.14,-22.11 -21.3,-31.18 -8.93,-8.98 -19.56,-16.15 -31.64,-21.33 -11.87,-5 -24.61,-7.6 -37.83,-7.6l-274.04 0 0 -63.74 274.04 0c21.8,0 42.97,4.32 62.87,12.69 19.61,8.3 37.06,20.04 51.82,34.72 14.64,14.68 26.31,31.86 34.67,51.21 8.47,19.43 12.75,40.5 12.75,62.53 0,25.57 -5.39,49.32 -16.03,70.74 -6.99,13.9 -15.58,26.51 -25.61,37.65 15.39,4.75 30.46,10.79 45.01,18.3 21.44,11.07 41.32,25.75 59.11,43.44 22.81,22.89 40.64,49.4 53.03,78.86 12.53,29.71 18.83,61.24 18.83,93.87 0,33.43 -6.31,65.37 -18.83,94.92 -12.44,29.63 -30.26,56.06 -53.03,78.86 -22.89,22.8 -49.57,40.68 -79.37,53.01 -29.71,12.44 -61.48,18.75 -94.35,18.75l-324.92 0z"/>
   <path class="fil1" d="M5878.49 3576.06c18.68,-2.63 36.85,-6.85 53.78,-13.81 26.91,-10.87 50.56,-26.44 70.29,-46.29 19.74,-19.72 35.63,-43.36 47.14,-70.25 11.41,-26.96 17.22,-55.67 17.22,-85.42 0,-29.79 -5.78,-58.17 -17.22,-84.35 -11.35,-26.31 -27.22,-49.75 -47.11,-69.64 -19.98,-19.93 -43.62,-35.8 -70.24,-47.21 -27.04,-11.36 -55.72,-17.11 -85.3,-17.11l-270.93 0 -65.35 0 0 63.75 0 192.9 65.35 0 0 -192.9 270.93 0c21.21,0 40.89,3.94 60.18,12.08 18.93,8.15 35.79,19.47 50.09,33.71 14.11,14.15 25.44,30.75 33.71,49.42 8.07,18.72 12.14,38.71 12.14,59.35 0,21.54 -4.07,42.03 -12.13,61 -8.25,18.8 -19.26,34.71 -33.67,48.63 -15.37,14.82 -33.5,25.53 -49.8,32.82 -44.06,19.68 -82.71,18.3 -138.99,20.53l-257.82 0 0.04 0.11 -0.04 0c-0.03,0 0,55.25 0,55.25l0 311.64 65.35 0 0 -311.58 171.96 0.14 51.39 -0.25 221.15 311.7 81.33 0 -223.46 -314.21z"/>
   <path class="fil1" d="M3075.44 3442.88c-4.92,-24.54 -12.4,-48.3 -22.08,-70.33 -18.76,-45.28 -45.58,-85.57 -79.97,-119.92 -35.42,-34 -75.19,-60.68 -118.22,-79.44 -45.37,-19.54 -94.48,-29.44 -145.96,-29.44l-253.22 0 1.65 63.53 251.57 0c42.74,0 83.37,8.18 120.76,24.36 37.67,16.26 70.81,38.65 98.53,66.81 27.81,28.14 50.18,61.29 66.4,98.56 16.14,37.19 24.32,77.65 24.32,120.35 0,42.69 -8.18,83.15 -24.32,120.25 -16.14,37.2 -38.51,70.33 -66.44,98.65 -27.68,28.15 -60.82,50.53 -98.49,66.81 -37.39,16.18 -78.03,24.36 -120.76,24.36l-187.31 0 0 -360.29 -65.56 0 0 423.74 252.86 0c51.61,0 100.71,-9.9 146,-29.35 43.07,-18.78 82.83,-45.56 118.35,-79.72 33.49,-33.41 60.35,-73.26 79.71,-118.44 19.58,-45.29 29.49,-94.35 29.49,-146 0,-24.79 -2.44,-49.85 -7.31,-74.46z"/>
   <path class="fil1" d="M1728.02 4320.91l62.56 0c20,0 35.26,-4.76 45.78,-14.28 10.52,-9.5 15.76,-22.79 15.76,-39.8 0,-16.89 -5.24,-30.35 -15.68,-40.39 -10.46,-10 -25.31,-15.13 -44.52,-15.36l-63.9 0 0 109.83zm0 17.46l0 99.43 -20.63 0 0 -244.17 83.18 0c25.37,0 45.4,6.49 60.11,19.44 14.71,12.97 22.06,30.82 22.06,53.5 0,22.92 -7.08,40.61 -21.21,53.08 -14.15,12.46 -34.65,18.71 -61.46,18.71l-62.06 0z"/>
   <polygon class="fil1" points="2081.14,4320.76 1966.94,4320.76 1966.94,4420.35 2098.23,4420.35 2098.23,4437.8 1946.32,4437.8 1946.32,4193.63 2097.41,4193.63 2097.41,4211.08 1966.94,4211.08 1966.94,4303.31 2081.14,4303.31 "/>
   <path class="fil1" d="M2189.46 4318.57l63.2 0c17.32,0 31.25,-4.92 41.77,-14.78 10.5,-9.85 15.75,-22.63 15.75,-38.31 0,-17.22 -5.47,-30.63 -16.43,-40.15 -10.94,-9.48 -26.33,-14.26 -46.11,-14.26l-58.18 0 0 107.5zm70.91 17.43l-70.91 0 0 101.8 -20.81 0 0 -244.17 79.32 0c26.06,0 46.39,6.32 61.03,18.94 14.65,12.6 21.97,30.25 21.97,52.92 0,15.64 -4.58,29.42 -13.75,41.37 -9.15,11.94 -21.46,20.2 -36.89,24.78l61.04 103.97 0 2.18 -21.97 0 -59.03 -101.8z"/>
   <polygon class="fil1" points="2549.11,4323.59 2435.25,4323.59 2435.25,4437.8 2414.63,4437.8 2414.63,4193.63 2565.88,4193.63 2565.88,4211.07 2435.25,4211.07 2435.25,4306.16 2549.11,4306.16 "/>
   <path class="fil1" d="M2803.47 4193.63l0 166.69c-0.11,16.43 -3.75,30.74 -10.89,42.94 -7.15,12.17 -17.24,21.54 -30.28,28.06 -13.01,6.56 -27.98,9.82 -44.85,9.82 -25.72,0 -46.3,-7.01 -61.79,-21.04 -15.48,-14.02 -23.51,-33.46 -24.07,-58.26l0 -168.21 20.47 0 0 165.19c0,20.56 5.86,36.52 17.59,47.86 11.75,11.36 27.68,17.03 47.8,17.03 20.11,0 36.02,-5.71 47.71,-17.11 11.68,-11.41 17.53,-27.26 17.53,-47.61l0 -165.36 20.78 0z"/>
   <polygon class="fil1" points="2915.8,4193.63 3005.84,4409.13 3096.23,4193.63 3123.73,4193.63 3123.73,4437.8 3103.09,4437.8 3103.09,4331.48 3104.77,4222.48 3013.88,4437.8 2997.95,4437.8 2907.41,4223.32 2909.09,4330.81 2909.09,4437.8 2888.45,4437.8 2888.45,4193.63 "/>
   <polygon class="fil1" points="3347.9,4320.76 3233.71,4320.76 3233.71,4420.35 3365,4420.35 3365,4437.8 3213.08,4437.8 3213.08,4193.63 3364.18,4193.63 3364.18,4211.08 3233.71,4211.08 3233.71,4303.31 3347.9,4303.31 "/>
   <path class="fil1" d="M3456.54 4211.07l0 209.28 46.28 0c25.72,0 46.33,-8.53 61.89,-25.58 15.53,-17.08 23.31,-40.14 23.31,-69.25l0 -21.47c0,-28.07 -7.67,-50.56 -22.97,-67.46 -15.32,-16.89 -35.5,-25.4 -60.54,-25.52l-47.96 0zm-20.63 226.72l0 -244.17 68.26 0c20,0 37.93,4.56 53.82,13.68 15.86,9.13 28.25,22.17 37.14,39.15 8.89,16.99 13.32,36.33 13.32,58.02l0 22.48c0,21.78 -4.4,41.13 -13.24,58.02 -8.83,16.87 -21.28,29.9 -37.31,39.06 -16.04,9.18 -34.47,13.76 -55.26,13.76l-66.74 0z"/>
   <path class="fil1" d="M3972.13 4361.67c-2.79,25.72 -11.97,45.39 -27.57,59.03 -15.6,13.63 -36.37,20.46 -62.31,20.46 -18.11,0 -34.12,-4.54 -48.06,-13.58 -13.92,-9.06 -24.67,-21.89 -32.26,-38.49 -7.61,-16.61 -11.46,-35.57 -11.58,-56.93l0 -31.7c0,-21.69 3.81,-40.93 11.4,-57.7 7.61,-16.75 18.53,-29.68 32.81,-38.8 14.24,-9.12 30.65,-13.68 49.21,-13.68 26.15,0 46.82,7.06 61.97,21.14 15.13,14.07 23.93,33.6 26.39,58.53l-20.78 0c-5.15,-41.47 -27.68,-62.24 -67.58,-62.24 -22.14,0 -39.79,8.29 -52.9,24.85 -13.14,16.56 -19.71,39.43 -19.71,68.64l0 29.88c0,28.19 6.39,50.68 19.19,67.46 12.81,16.79 30.1,25.19 51.9,25.19 21.57,0 37.85,-5.18 48.79,-15.51 10.96,-10.35 17.72,-25.86 20.31,-46.54l20.78 0z"/>
   <path class="fil1" d="M4209.56 4302.46c0,-29.41 -6.65,-52.42 -19.96,-69.07 -13.31,-16.67 -31.52,-24.99 -54.65,-24.99 -22.71,0 -40.79,8.33 -54.25,25.04 -13.47,16.74 -20.21,40.06 -20.21,70.02l0 25.5c0,28.96 6.71,51.9 20.13,68.83 13.42,16.93 31.63,25.4 54.65,25.4 23.37,0 41.6,-8.33 54.68,-25.04 13.07,-16.74 19.61,-40.02 19.61,-69.87l0 -25.82zm20.63 26.5c0,22.47 -3.89,42.19 -11.65,59.19 -7.76,16.98 -18.86,30.08 -33.28,39.24 -14.43,9.18 -31.08,13.75 -49.98,13.75 -28.5,0 -51.53,-10.19 -69.08,-30.61 -17.56,-20.39 -26.33,-47.93 -26.33,-82.57l0 -25.17c0,-22.25 3.94,-41.93 11.83,-59.11 7.87,-17.14 19.03,-30.35 33.44,-39.57 14.43,-9.21 31.03,-13.83 49.82,-13.83 18.76,0 35.35,4.53 49.71,13.58 14.37,9.06 25.46,21.87 33.29,38.4 7.82,16.54 11.9,35.71 12.24,57.53l0 29.17z"/>
   <path class="fil1" d="M4447.82 4377.75c0,-13.53 -4.76,-24.22 -14.25,-32.13 -9.52,-7.86 -26.89,-15.35 -52.15,-22.46 -25.28,-7.07 -43.72,-14.82 -55.35,-23.22 -16.53,-11.85 -24.82,-27.38 -24.82,-46.61 0,-18.67 7.7,-33.86 23.07,-45.53 15.36,-11.69 35.02,-17.53 58.94,-17.53 16.21,0 30.71,3.15 43.51,9.39 12.8,6.28 22.71,14.99 29.77,26.17 7.04,11.17 10.57,23.65 10.57,37.41l-20.79 0c0,-16.71 -5.71,-30.15 -17.11,-40.29 -11.4,-10.14 -26.74,-15.24 -45.94,-15.24 -18.67,0 -33.54,4.18 -44.6,12.51 -11.08,8.36 -16.62,19.25 -16.62,32.68 0,12.43 4.98,22.58 14.94,30.4 9.93,7.83 25.88,14.75 47.78,20.74 21.92,5.99 38.51,12.2 49.81,18.64 11.29,6.41 19.79,14.09 25.5,23.04 5.69,8.94 8.54,19.52 8.54,31.72 0,19.19 -7.69,34.64 -23.06,46.28 -15.37,11.61 -35.64,17.42 -60.79,17.42 -17.21,0 -33,-3.07 -47.37,-9.21 -14.36,-6.17 -25.28,-14.76 -32.7,-25.83 -7.43,-11.06 -11.15,-23.75 -11.15,-38.06l20.62 0c0,17.2 6.43,30.79 19.29,40.74 12.85,9.94 29.96,14.94 51.31,14.94 19.01,0 34.28,-4.19 45.78,-12.6 11.51,-8.37 17.28,-19.51 17.28,-33.37z"/>
   <path class="fil1" d="M5829.93 4377.75c0,-13.53 -4.76,-24.22 -14.26,-32.13 -9.5,-7.86 -26.89,-15.35 -52.14,-22.46 -25.28,-7.07 -43.72,-14.82 -55.35,-23.22 -16.54,-11.85 -24.82,-27.38 -24.82,-46.61 0,-18.67 7.69,-33.86 23.06,-45.53 15.37,-11.69 35.03,-17.53 58.96,-17.53 16.21,0 30.69,3.15 43.5,9.39 12.81,6.28 22.72,14.99 29.78,26.17 7.04,11.17 10.56,23.65 10.56,37.41l-20.78 0c0,-16.71 -5.72,-30.15 -17.13,-40.29 -11.39,-10.14 -26.72,-15.24 -45.93,-15.24 -18.68,0 -33.54,4.18 -44.61,12.51 -11.07,8.36 -16.61,19.25 -16.61,32.68 0,12.43 4.98,22.58 14.93,30.4 9.94,7.83 25.87,14.75 47.79,20.74 21.9,5.99 38.5,12.2 49.81,18.64 11.29,6.41 19.79,14.09 25.48,23.04 5.71,8.94 8.54,19.52 8.54,31.72 0,19.19 -7.68,34.64 -23.04,46.28 -15.39,11.61 -35.64,17.42 -60.79,17.42 -17.21,0 -33,-3.07 -47.37,-9.21 -14.36,-6.17 -25.28,-14.76 -32.7,-25.83 -7.43,-11.06 -11.15,-23.75 -11.15,-38.06l20.62 0c0,17.2 6.43,30.79 19.29,40.74 12.83,9.94 29.96,14.94 51.31,14.94 19.02,0 34.26,-4.19 45.78,-12.6 11.51,-8.37 17.28,-19.51 17.28,-33.37z"/>
   <polygon class="fil1" points="4567.86,4193.63 4657.9,4409.13 4748.3,4193.63 4775.8,4193.63 4775.8,4437.8 4755.17,4437.8 4755.17,4331.48 4756.85,4222.48 4665.94,4437.8 4650.03,4437.8 4559.47,4223.32 4561.17,4330.81 4561.17,4437.8 4540.53,4437.8 4540.53,4193.63 "/>
   <polygon class="fil1" points="4999.98,4320.76 4885.77,4320.76 4885.77,4420.35 5017.07,4420.35 5017.07,4437.8 4865.15,4437.8 4865.15,4193.63 5016.24,4193.63 5016.24,4211.08 4885.77,4211.08 4885.77,4303.31 4999.98,4303.31 "/>
   <polygon class="fil1" points="5253.66,4211.07 5170,4211.07 5170,4437.8 5149.36,4437.8 5149.36,4211.07 5065.86,4211.07 5065.86,4193.63 5253.66,4193.63 "/>
   <polygon class="fil1" points="5345.69,4437.8 5325.06,4437.8 5325.06,4193.63 5345.69,4193.63 "/>
   <path class="fil1" d="M5612.29 4361.67c-2.79,25.72 -11.97,45.39 -27.58,59.03 -15.6,13.63 -36.36,20.46 -62.3,20.46 -18.1,0 -34.13,-4.54 -48.04,-13.58 -13.92,-9.06 -24.68,-21.89 -32.28,-38.49 -7.59,-16.61 -11.44,-35.57 -11.57,-56.93l0 -31.7c0,-21.69 3.8,-40.93 11.4,-57.7 7.61,-16.75 18.53,-29.68 32.79,-38.8 14.25,-9.12 30.65,-13.68 49.22,-13.68 26.15,0 46.8,7.06 61.96,21.14 15.13,14.07 23.94,33.6 26.4,58.53l-20.79 0c-5.14,-41.47 -27.67,-62.24 -67.57,-62.24 -22.14,0 -39.8,8.29 -52.92,24.85 -13.13,16.56 -19.71,39.43 -19.71,68.64l0 29.88c0,28.19 6.4,50.68 19.21,67.46 12.8,16.79 30.09,25.19 51.89,25.19 21.58,0 37.85,-5.18 48.8,-15.51 10.96,-10.35 17.71,-25.86 20.29,-46.54l20.79 0z"/>
  </g>
 </g>
</svg>
