<svg width="177" height="24" viewBox="0 0 177 24" fill="none" xmlns="http://www.w3.org/2000/svg">
<path fill-rule="evenodd" clip-rule="evenodd" d="M58.8954 15.2195H63.9456V8.19512H58.8954C58.024 8.19512 57.212 9.04429 57.212 9.95122V13.4634C57.212 14.3705 58.024 15.2195 58.8954 15.2195ZM79.0961 15.2195H84.1463V8.19512H79.0961C78.2247 8.19512 77.4127 9.04429 77.4127 9.95122V13.4634C77.4127 14.3705 78.2247 15.2195 79.0961 15.2195ZM67.3123 5.56098V17.8537C67.3123 18.2411 66.8431 18.7317 66.4706 18.7317L64.7875 18.7502C64.4148 18.7502 63.9456 18.2412 63.9456 17.8537V17.2683L63.1818 18.2251C62.9491 18.5551 62.3749 18.7317 61.9816 18.7317H58.8954C56.1874 18.7317 53.8452 16.2818 53.8452 13.4634V9.95122C53.8452 7.13287 56.1874 4.68293 58.8954 4.68293H66.4706C66.8426 4.68293 67.3123 5.17398 67.3123 5.56098ZM87.5131 5.56098V17.8537C87.5131 18.2411 87.0438 18.7317 86.6714 18.7317L84.9882 18.7502C84.6155 18.7502 84.1463 18.2412 84.1463 17.8537V17.2683L83.3825 18.2251C83.1498 18.5551 82.5757 18.7317 82.1823 18.7317H79.0961C76.3881 18.7317 74.0459 16.2818 74.0459 13.4634V9.95122C74.0459 7.13287 76.3881 4.68293 79.0961 4.68293H86.6714C87.0433 4.68293 87.5131 5.17398 87.5131 5.56098ZM31.4 8.19512H26.3498C25.4782 8.19512 24.6664 9.04429 24.6664 9.95122V13.4634C24.6664 14.3706 25.4782 15.2195 26.3498 15.2195H31.4V8.19512ZM34.7667 5.56098V19.0244C34.7667 21.8427 32.4246 24 29.7166 24H27.1143C26.727 24 26.3622 23.8111 26.1286 23.4895L24.6474 21.4492C24.4013 21.1105 24.539 20.4878 24.9469 20.4878H29.7166C30.588 20.4878 31.4 19.9313 31.4 19.0244V18.7317H26.3498C23.6419 18.7317 21.2996 16.2818 21.2996 13.4634V9.95122C21.2996 7.133 23.6419 4.68293 26.3498 4.68293H29.436C29.8222 4.68293 30.2431 5.00703 30.5158 5.26829L31.4 6.14634V5.56098C31.4 5.17411 31.8701 4.68293 32.2417 4.68293H33.925C34.2974 4.68293 34.7667 5.17332 34.7667 5.56098ZM4.46566 13.4634C4.46566 14.3703 5.27764 15.2195 6.14906 15.2195H11.1992V8.19512H6.14906C5.27764 8.19512 4.46566 9.04429 4.46566 9.95122V13.4634ZM13.7243 0C14.0969 0 14.566 0.490521 14.566 0.878049V17.8537C14.566 18.2411 14.0969 18.7317 13.7243 18.7317H12.0409C11.6685 18.7317 11.1992 18.2413 11.1992 17.8537V17.2683L10.3166 18.2535C10.0775 18.5306 9.61641 18.7317 9.23528 18.7317H6.14906C3.44106 18.7317 1.09888 16.2818 1.09888 13.4634V9.97802C1.09888 7.15967 3.44106 4.68293 6.14906 4.68293H11.1992V0.878049C11.1992 0.490521 11.6685 0 12.0409 0H13.7243ZM48.5145 11.7073L53.2002 5.52006C53.4608 5.18284 53.2303 4.68171 52.8146 4.68171H50.1346C49.9319 4.68171 49.7401 4.77664 49.6119 4.94015L44.8671 11.122V0.878049C44.8671 0.490521 44.3978 0 44.0254 0H42.342C41.9695 0 41.5003 0.490521 41.5003 0.878049V17.8537C41.5003 18.2412 41.9695 18.7317 42.342 18.7317H44.0254C44.3979 18.7317 44.8671 18.2412 44.8671 17.8537V12.2927L49.6144 18.4881C49.7424 18.6536 49.9355 18.7502 50.1398 18.7502H52.817C53.2327 18.7502 53.4635 18.2488 53.2027 17.9117L48.5145 11.7073ZM37.2918 0C36.9196 0 36.4501 0.490521 36.4501 0.878049V2.63415C36.4501 3.02167 36.9196 3.5122 37.2918 3.5122H38.9752C39.3476 3.5122 39.8169 3.02167 39.8169 2.63415V0.878049C39.8169 0.490521 39.3476 0 38.9752 0H37.2918ZM37.2918 4.68293C36.9196 4.68293 36.4501 5.17358 36.4501 5.56098V17.8537C36.4501 18.2411 37.0516 18.75 37.4238 18.75L38.9752 18.7317C39.3476 18.7317 39.8169 18.2411 39.8169 17.8537V5.56098C39.8169 5.17358 39.3476 4.68293 38.9752 4.68293H37.2918ZM17.0911 0C16.7188 0 16.2494 0.490521 16.2494 0.878049V2.63415C16.2494 3.02167 16.7188 3.5122 17.0911 3.5122H18.7745C19.1469 3.5122 19.6162 3.02167 19.6162 2.63415V0.878049C19.6162 0.490521 19.1469 0 18.7745 0H17.0911ZM17.0911 4.68293C16.7188 4.68293 16.2494 5.17358 16.2494 5.56098V17.8537C16.2494 18.2411 16.7188 18.7317 17.0911 18.7317H18.7745C19.1469 18.7317 19.6162 18.2411 19.6162 17.8537V5.56098C19.6162 5.17358 19.1469 4.68293 18.7745 4.68293H17.0911ZM72.3625 0.878049V17.8537C72.3625 18.2411 71.8933 18.7317 71.5208 18.7317H69.8374C69.465 18.7317 68.9957 18.2411 68.9957 17.8537V0.878049C68.9957 0.490521 69.465 0 69.8374 0H71.5208C71.8933 0 72.3625 0.490521 72.3625 0.878049Z" fill="#6D6E71"/>
<path d="M100.714 11.4571C101.896 12.1674 102.487 13.2395 102.487 14.6734C102.487 15.8662 102.082 16.8444 101.273 17.6083C100.464 18.3722 99.4682 18.7541 98.2863 18.7541H92.5632V4.68282H97.8816C99.0378 4.68282 100.008 5.05806 100.791 5.80852C101.588 6.54559 101.986 7.49038 101.986 8.64289C101.986 9.80879 101.562 10.7469 100.714 11.4571ZM97.8816 7.27596H95.2224V10.3716H97.8816C98.2927 10.3716 98.6332 10.2242 98.9029 9.9294C99.1856 9.63458 99.3269 9.26604 99.3269 8.8238C99.3269 8.38156 99.192 8.01303 98.9222 7.7182C98.6524 7.42337 98.3056 7.27596 97.8816 7.27596ZM98.2863 16.161C98.7359 16.161 99.1085 16.0069 99.4039 15.6986C99.6994 15.377 99.8471 14.975 99.8471 14.4925C99.8471 14.0235 99.6994 13.6348 99.4039 13.3266C99.1085 13.005 98.7359 12.8442 98.2863 12.8442H95.2224V16.161H98.2863Z" fill="#18187A"/>
<path d="M109.166 19.0355C107.663 19.0355 106.429 18.5933 105.466 17.7088C104.502 16.8243 104.021 15.6383 104.021 14.1508V4.68282H106.661V13.9297C106.661 14.6667 106.86 15.2497 107.258 15.6785C107.669 16.1074 108.305 16.3218 109.166 16.3218C110.026 16.3218 110.656 16.1074 111.054 15.6785C111.465 15.2497 111.671 14.6667 111.671 13.9297V4.68282H114.33V14.1508C114.33 15.6383 113.848 16.8243 112.885 17.7088C111.921 18.5933 110.682 19.0355 109.166 19.0355Z" fill="#18187A"/>
<path d="M121.331 19.0355C119.995 19.0355 118.871 18.7273 117.959 18.1109C117.047 17.481 116.404 16.63 116.032 15.5579L118.306 14.1709C118.832 15.6048 119.866 16.3218 121.408 16.3218C122.153 16.3218 122.699 16.1811 123.046 15.8997C123.393 15.6182 123.566 15.2631 123.566 14.8343C123.566 14.3384 123.354 13.9565 122.93 13.6885C122.506 13.407 121.748 13.1055 120.657 12.7839C120.053 12.5962 119.539 12.4086 119.115 12.221C118.704 12.0334 118.286 11.7855 117.862 11.4772C117.451 11.1556 117.137 10.7536 116.918 10.2711C116.7 9.78869 116.591 9.22584 116.591 8.58258C116.591 7.30946 117.021 6.29767 117.882 5.5472C118.755 4.78333 119.802 4.4014 121.023 4.4014C122.115 4.4014 123.072 4.68282 123.894 5.24567C124.729 5.79512 125.378 6.56569 125.84 7.55739L123.605 8.90421C123.065 7.6981 122.205 7.09504 121.023 7.09504C120.47 7.09504 120.033 7.22906 119.712 7.49708C119.404 7.7517 119.25 8.08673 119.25 8.50217C119.25 8.94441 119.423 9.30625 119.77 9.58767C120.13 9.8557 120.811 10.1505 121.813 10.4722C122.224 10.6062 122.532 10.7134 122.738 10.7938C122.956 10.8608 123.245 10.9747 123.605 11.1355C123.977 11.2829 124.26 11.4236 124.453 11.5577C124.658 11.6917 124.889 11.8726 125.146 12.1004C125.403 12.3282 125.596 12.5627 125.724 12.804C125.866 13.0452 125.981 13.34 126.071 13.6885C126.174 14.0235 126.225 14.392 126.225 14.7941C126.225 16.094 125.769 17.1259 124.857 17.8897C123.958 18.6536 122.783 19.0355 121.331 19.0355Z" fill="#18187A"/>
<path d="M127.866 4.68282H130.525V18.7541H127.866V4.68282Z" fill="#18187A"/>
<path d="M140.826 4.68282H143.485V18.7541H141.462L135.681 10.1505V18.7541H133.022V4.68282H135.045L140.826 13.2663V4.68282Z" fill="#18187A"/>
<path d="M148.647 16.1007H154.331V18.7541H145.987V4.68282H154.235V7.33627H148.647V10.3314H153.753V12.9447H148.647V16.1007Z" fill="#18187A"/>
<path d="M160.811 19.0355C159.475 19.0355 158.351 18.7273 157.439 18.1109C156.527 17.481 155.884 16.63 155.512 15.5579L157.786 14.1709C158.312 15.6048 159.347 16.3218 160.888 16.3218C161.633 16.3218 162.179 16.1811 162.526 15.8997C162.873 15.6182 163.046 15.2631 163.046 14.8343C163.046 14.3384 162.834 13.9565 162.41 13.6885C161.987 13.407 161.229 13.1055 160.137 12.7839C159.533 12.5962 159.019 12.4086 158.595 12.221C158.184 12.0334 157.766 11.7855 157.343 11.4772C156.931 11.1556 156.617 10.7536 156.398 10.2711C156.18 9.78869 156.071 9.22584 156.071 8.58258C156.071 7.30946 156.501 6.29767 157.362 5.5472C158.235 4.78333 159.282 4.4014 160.503 4.4014C161.595 4.4014 162.552 4.68282 163.374 5.24567C164.209 5.79512 164.858 6.56569 165.32 7.55739L163.085 8.90421C162.545 7.6981 161.685 7.09504 160.503 7.09504C159.95 7.09504 159.514 7.22906 159.192 7.49708C158.884 7.7517 158.73 8.08673 158.73 8.50217C158.73 8.94441 158.903 9.30625 159.25 9.58767C159.61 9.8557 160.291 10.1505 161.293 10.4722C161.704 10.6062 162.012 10.7134 162.218 10.7938C162.436 10.8608 162.725 10.9747 163.085 11.1355C163.457 11.2829 163.74 11.4236 163.933 11.5577C164.138 11.6917 164.37 11.8726 164.626 12.1004C164.883 12.3282 165.076 12.5627 165.205 12.804C165.346 13.0452 165.461 13.34 165.551 13.6885C165.654 14.0235 165.706 14.392 165.706 14.7941C165.706 16.094 165.25 17.1259 164.337 17.8897C163.438 18.6536 162.263 19.0355 160.811 19.0355Z" fill="#18187A"/>
<path d="M171.631 19.0355C170.295 19.0355 169.171 18.7273 168.259 18.1109C167.347 17.481 166.705 16.63 166.332 15.5579L168.606 14.1709C169.133 15.6048 170.167 16.3218 171.708 16.3218C172.454 16.3218 173 16.1811 173.346 15.8997C173.693 15.6182 173.867 15.2631 173.867 14.8343C173.867 14.3384 173.655 13.9565 173.231 13.6885C172.807 13.407 172.049 13.1055 170.957 12.7839C170.353 12.5962 169.839 12.4086 169.415 12.221C169.004 12.0334 168.587 11.7855 168.163 11.4772C167.752 11.1556 167.437 10.7536 167.219 10.2711C167 9.78869 166.891 9.22584 166.891 8.58258C166.891 7.30946 167.321 6.29767 168.182 5.5472C169.056 4.78333 170.103 4.4014 171.323 4.4014C172.415 4.4014 173.372 4.68282 174.194 5.24567C175.029 5.79512 175.678 6.56569 176.14 7.55739L173.905 8.90421C173.366 7.6981 172.505 7.09504 171.323 7.09504C170.771 7.09504 170.334 7.22906 170.013 7.49708C169.704 7.7517 169.55 8.08673 169.55 8.50217C169.55 8.94441 169.724 9.30625 170.071 9.58767C170.43 9.8557 171.111 10.1505 172.113 10.4722C172.524 10.6062 172.833 10.7134 173.038 10.7938C173.256 10.8608 173.546 10.9747 173.905 11.1355C174.278 11.2829 174.56 11.4236 174.753 11.5577C174.959 11.6917 175.19 11.8726 175.447 12.1004C175.704 12.3282 175.896 12.5627 176.025 12.804C176.166 13.0452 176.282 13.34 176.372 13.6885C176.474 14.0235 176.526 14.392 176.526 14.7941C176.526 16.094 176.07 17.1259 175.158 17.8897C174.258 18.6536 173.083 19.0355 171.631 19.0355Z" fill="#18187A"/>
</svg>
