<?xml version="1.0" encoding="UTF-8"?>
<!DOCTYPE svg PUBLIC "-//W3C//DTD SVG 1.1//EN" "http://www.w3.org/Graphics/SVG/1.1/DTD/svg11.dtd">
<!-- Creator: CorelDRAW 2020 (64-Bit) -->
<svg xmlns="http://www.w3.org/2000/svg" xml:space="preserve" width="640px" height="151px" version="1.1" style="shape-rendering:geometricPrecision; text-rendering:geometricPrecision; image-rendering:optimizeQuality; fill-rule:evenodd; clip-rule:evenodd"
viewBox="0 0 646.44 152.26"
 xmlns:xlink="http://www.w3.org/1999/xlink"
 xmlns:xodm="http://www.corel.com/coreldraw/odm/2003">
 <defs>
  <style type="text/css">
   <![CDATA[
    .fil3 {fill:black}
    .fil2 {fill:#FEFEFE;fill-rule:nonzero}
    .fil1 {fill:black;fill-rule:nonzero}
    .fil0 {fill:#FF4B00;fill-rule:nonzero}
   ]]>
  </style>
   <mask id="id0">
  <linearGradient id="id1" gradientUnits="userSpaceOnUse" x1="510.04" y1="-3.12" x2="626.87" y2="135.81">
   <stop offset="0" style="stop-opacity:1; stop-color:white"/>
   <stop offset="1" style="stop-opacity:0; stop-color:white"/>
  </linearGradient>
    <rect style="fill:url(#id1)" x="554.34" y="46.3" width="93.15" height="107.01"/>
   </mask>
 </defs>
 <g id="Layer_x0020_1">
  <metadata id="CorelCorpID_0Corel-Layer"/>
  <path class="fil0" d="M618.25 152.26c-31.96,0 -63.93,0 -95.89,0 -15.57,0 -28.18,-12.62 -28.18,-28.18 0,-31.97 0,-63.93 0,-95.9 0,-15.56 12.61,-28.18 28.18,-28.18 31.96,0 63.93,0 95.89,0 15.57,0 28.19,12.62 28.19,28.18 0,31.97 0,63.93 0,95.9 0,15.56 -12.62,28.18 -28.19,28.18z"/>
  <path class="fil1" style="mask:url(#id0)" d="M618.25 152.26l-18.5 0 -44.36 -44.36 13.06 -25.77 33.95 -5.92 5.26 -28.86 38.78 38.77 0 37.96c0,15.56 -12.62,28.18 -28.19,28.18z"/>
  <path class="fil2" d="M593.14 42.86c-0.35,0 -0.66,-0.01 -1.03,-0.01l-52.07 0c-8.96,0 -16.22,7.26 -16.22,16.21l0 0.96 62.22 0c11.44,0.33 11.05,13.76 -0.38,13.43l-37.6 0 0 17.8c0,12.47 10.1,22.56 22.56,22.56l0.48 0 0 -23.23 22.04 0c31.53,0 31.53,-47.72 0,-47.72z"/>
  <path class="fil3" d="M27.89 97.61l0 0 0 -27.59 -8.29 0 0 27.59c0,2.22 -0.34,4.36 -1.01,6.41 -0.67,2.06 -1.73,3.89 -3.18,5.51 -1.45,1.62 -3.3,2.91 -5.56,3.89 -2.26,0.98 -5,1.47 -8.24,1.47l-1.61 0 0 8.79 3.64 0c3.43,0 6.63,-0.64 9.59,-1.92 2.97,-1.28 5.53,-3.09 7.68,-5.41 2.16,-2.32 3.86,-5.09 5.11,-8.28 1.24,-3.2 1.87,-6.69 1.87,-10.46zm165 -61.03l0 62.64 8.28 0 0 -62.64 -8.28 0zm-76.59 53.75l-4.04 0 -0.05 0 -2.78 0c-1.02,0 -2.01,-0.13 -2.99,-0.4 -0.97,-0.27 -1.83,-0.69 -2.57,-1.26 -0.74,-0.58 -1.33,-1.33 -1.77,-2.28 -0.44,-0.94 -0.66,-2.08 -0.66,-3.43l0 -12.94 -8.28 0 0 12.94c0,4.91 -2.63,7.37 -7.88,7.37l-7.34 0 -0.04 0 -0.04 0 -8.95 0 0 -6.67c0,-3.63 -0.45,-6.73 -1.36,-9.29 -0.91,-2.56 -2.14,-4.63 -3.69,-6.21 -1.55,-1.59 -3.35,-2.75 -5.41,-3.49 -2.05,-0.74 -4.19,-1.11 -6.41,-1.11 -2.83,0 -5.31,0.52 -7.43,1.56 -2.12,1.05 -3.89,2.45 -5.31,4.2 -1.41,1.75 -2.49,3.79 -3.23,6.11 -0.74,2.32 -1.11,4.77 -1.11,7.33 0,2.55 0.25,4.86 0.76,6.92 0.5,2.05 1.4,3.79 2.68,5.2 1.28,1.42 3.03,2.49 5.25,3.23 2.22,0.74 5.05,1.11 8.49,1.11l8.59 0c-0.14,2.16 -0.58,4.18 -1.32,6.07 -0.74,1.88 -1.8,3.53 -3.18,4.95 -1.38,1.41 -3.12,2.54 -5.2,3.38 -2.09,0.85 -4.52,1.27 -7.28,1.27l-7.83 0 0 8.79 8.44 0c3.63,0 6.94,-0.66 9.9,-1.97 2.96,-1.32 5.49,-3.09 7.58,-5.31 2.09,-2.22 3.72,-4.81 4.9,-7.78 1.18,-2.96 1.83,-6.09 1.97,-9.4l9.15 0 0.04 0 0.04 0 7.34 0c2.29,0 4.43,-0.43 6.41,-1.31 1.99,-0.87 3.76,-2.59 5.31,-5.15 1.41,2.56 3.18,4.28 5.3,5.15 2.12,0.88 4.4,1.31 6.82,1.31l3.09 0 0.05 0 3.73 0c2.36,0 4.58,-0.43 6.67,-1.31 2.09,-0.87 3.91,-2.59 5.46,-5.15 1.41,2.56 3.21,4.28 5.4,5.15 2.19,0.88 4.57,1.31 7.13,1.31 2.35,0 4.64,-0.43 6.87,-1.31 2.22,-0.87 4.11,-2.59 5.66,-5.15 1.41,2.56 3.18,4.28 5.3,5.15 2.12,0.88 4.36,1.31 6.72,1.31 4.78,0 8.55,-1.36 11.32,-4.09 2.76,-2.73 4.14,-6.65 4.14,-11.77l0 -13.34 -8.29 0 0 12.94c0,2.35 -0.67,4.17 -2.02,5.45 -1.34,1.28 -3.16,1.92 -5.45,1.92 -1.96,0 -3.66,-0.54 -5.11,-1.61 -1.44,-1.08 -2.17,-3 -2.17,-5.76l0 -12.94 -8.28 0 0 12.94c0,4.91 -2.9,7.37 -8.69,7.37 -1.01,0 -2.01,-0.13 -2.98,-0.4 -0.98,-0.27 -1.84,-0.69 -2.58,-1.26 -0.74,-0.58 -1.35,-1.33 -1.82,-2.28 -0.47,-0.94 -0.71,-2.08 -0.71,-3.43l0 -12.94 -8.28 0 0 12.94c0,4.91 -2.66,7.37 -7.98,7.37zm-14.86 -27.68l0 -8.48 -31.17 0 0 8.48 31.17 0zm-58.6 19.6c0,-3.17 0.76,-5.64 2.28,-7.43 1.51,-1.78 3.65,-2.67 6.41,-2.67 2.97,0 5.27,0.92 6.92,2.78 1.65,1.85 2.48,4.9 2.48,9.14l0 6.26 -7.99 0c-3.97,0 -6.65,-0.62 -8.03,-1.87 -1.38,-1.24 -2.07,-3.31 -2.07,-6.21zm215.66 -9.7l-18.38 0 0 -13.84 18.38 0 0 13.84zm-10.04 48.9c-4.18,0 -7.9,-0.64 -11.17,-1.92 -3.27,-1.28 -6.05,-3.11 -8.34,-5.5 -2.29,-2.39 -4.04,-5.31 -5.25,-8.74 -1.21,-3.44 -1.82,-7.31 -1.82,-11.62l0 -21.12 18.29 0 0 21.62c0,2.56 0.74,4.52 2.22,5.86 1.49,1.35 3.88,2.02 7.18,2.02l3.33 0c3.64,0 6.23,-0.74 7.78,-2.22 1.55,-1.48 2.32,-3.37 2.32,-5.66l0 -31.12 18.29 0 0 30.01c0,3.91 -0.64,7.58 -1.92,11.01 -1.28,3.44 -3.11,6.45 -5.5,9.05 -2.39,2.59 -5.31,4.63 -8.74,6.11 -3.44,1.48 -7.31,2.22 -11.62,2.22l-5.05 0zm108.31 1.11l-28.9 0 0 -13.94 28.9 0 0 13.94zm26.57 -65.06l-28.9 0 0 -13.85 28.9 0 0 13.85zm-19.9 22.22c0.4,0 0.77,-0.15 1.11,-0.45 0.33,-0.3 0.5,-0.69 0.5,-1.16l0 -15.06 18.29 0 0 16.67c0,3.24 -0.45,6.07 -1.36,8.49 -0.91,2.43 -2.17,4.45 -3.79,6.06 -1.62,1.62 -3.55,2.85 -5.81,3.69 -2.26,0.84 -4.7,1.26 -7.33,1.26l-7.72 0 -0.02 0 -0.02 0 -0.02 0 -0.02 0 -0.01 0 -0.02 0 -3.08 0c-2.29,0 -4.39,-0.2 -6.31,-0.6 -1.92,-0.41 -3.59,-1.32 -5,-2.73 -1.62,1.41 -3.26,2.32 -4.91,2.73 -1.65,0.4 -3.14,0.6 -4.49,0.6l-5.5 0 -0.02 0 -0.02 0 -0.02 0 -0.02 0 -0.02 0 -0.01 0 -16.56 0 -0.02 0 -0.02 0 -0.02 0 -0.02 0 -0.02 0 -0.02 0 -4.89 0c-3.5,0 -6.45,-0.52 -8.84,-1.56 -2.39,-1.05 -4.33,-2.44 -5.81,-4.19 -1.48,-1.76 -2.56,-3.83 -3.23,-6.22 -0.68,-2.39 -1.01,-4.9 -1.01,-7.53l0 -42.13 18.38 0 0 40.52c0,1.08 0.54,1.61 1.62,1.61l3.78 0 0.02 0 0.02 0 0.02 0 0.02 0 0.02 0 0.02 0 16.56 0 0.01 0 0.02 0 0.02 0 0.02 0 0.02 0 0.02 0 3.78 0c0.47,0 0.88,-0.15 1.21,-0.45 0.34,-0.3 0.51,-0.69 0.51,-1.16l0 -15.06 18.39 0 0 15.06c0,1.08 0.54,1.61 1.61,1.61l3.79 0 0.02 0 0.01 0 0.02 0 0.02 0 0.02 0 0.02 0 6.11 0zm45.57 15.06c0,3.77 -0.64,7.34 -1.92,10.71 -1.28,3.37 -3.07,6.31 -5.36,8.84 -2.29,2.53 -5.03,4.53 -8.23,6.01 -3.2,1.48 -6.76,2.22 -10.66,2.22l-10.82 0 0 -19.39 8.59 0c3.64,0 6.22,-0.75 7.73,-2.23 1.52,-1.48 2.28,-3.33 2.28,-5.55l0 -32.34 18.39 0 0 31.73zm29.85 25.62l-14.45 0 0 -13.94 28.9 0 0 9.17 0 4.77 0 9.17 -14.45 0 0 -9.17zm6.22 -40.68c0.4,0 0.77,-0.15 1.11,-0.45 0.33,-0.3 0.5,-0.69 0.5,-1.16l0 -15.06 18.29 0 0 16.67c0,3.24 -0.45,6.07 -1.36,8.49 -0.91,2.43 -2.18,4.45 -3.79,6.06 -1.62,1.62 -3.55,2.85 -5.81,3.69 -2.26,0.84 -4.7,1.26 -7.33,1.26l-7.72 0 -0.02 0 -0.02 0 -0.02 0 -0.02 0 -0.02 0 -0.01 0 -4.9 0c-3.5,0 -6.45,-0.52 -8.84,-1.56 -2.39,-1.05 -4.33,-2.44 -5.81,-4.19 -1.48,-1.76 -2.56,-3.83 -3.23,-6.22 -0.68,-2.39 -1.01,-4.9 -1.01,-7.53l0 -42.13 18.39 0 0 40.52c0,1.08 0.54,1.61 1.61,1.61l3.79 0 0.01 0 0.02 0 0.02 0 0.02 0 0.02 0 0.02 0 6.11 0z"/>
 </g>
</svg>
