<?xml version="1.0" encoding="UTF-8"?><svg id="Layer_1" xmlns="http://www.w3.org/2000/svg" viewBox="0 0 128 128"><defs><style>.cls-1{fill:#fff;}</style></defs><path class="cls-1" d="M59.6,81.46c.13.35.25.69.38,1.04h57.66c-.81-1.41-17.87-27.25-25.9-39.22-.96-1.42-2.03-2.82-3.28-3.99-3.1-2.91-6.95-3.06-10.2-.39-1.31,1.08-2.47,2.42-3.46,3.82-4.52,6.38-9.22,12.65-13.36,19.27-4.1,6.55-9.93,9.32-17.3,9.46-6.48.12-12.97.02-19.35.02-2.57,3.28-5.26,6.72-8.08,10.31.66.14,1.23.35,1.79.35,10.46.08,20.93.16,31.39.18,6.4,0,11.81-2.52,16.53-6.72,6.34-5.64,10.7-12.7,14.65-20.07.49-.92,1.03-1.81,1.79-3.14,4.48,6.51,8.63,12.54,13.12,19.06h-23.51c-2.87,5.25-6.81,8.93-12.88,10Z"/><path d="M59.6,81.46c6.06-1.07,10.01-4.75,12.88-10h23.51c-4.49-6.52-8.64-12.55-13.12-19.06-.76,1.32-1.3,2.22-1.79,3.14-3.96,7.37-8.32,14.43-14.65,20.07-4.73,4.2-10.13,6.73-16.53,6.72-10.46-.01-32.49-.18-33.19-.18,2.82-3.6,5.51-7.39,8.08-10.67,6.38,0,12.86.09,19.35-.02,7.37-.13,13.21-2.91,17.3-9.46,4.14-6.62,8.84-12.9,13.36-19.27.99-1.39,2.15-2.74,3.46-3.82,3.24-2.68,7.1-2.52,10.2.39,1.24,1.17,2.32,2.56,3.28,3.99,8.03,11.97,25.09,37.81,25.9,39.22h-57.66c-.13-.35-.25-.69-.38-1.04Z"/><path d="M73.18,38.19c-3.21,3.94-6.09,7.72-9.06,11.38-4.17,0-8.42,0-12.67,0-5.49,0-10.98-.06-16.46,0-.51,0-.97.02-1.39.04-3.89.19-3.8,6.03.09,6.06.02,0,.05,0,.07,0,8.23.04,16.46,0,24.69-.01,1.21,0,2.43,0,4.5,0-1.72,3.13-3.18,5.8-4.82,8.79-2.79,0-5.61.02-8.43,0-7.11-.07-14.23.12-21.34.01-7.16-.11-11.44-4.2-12.25-11.14-.84-7.16,2.89-13.03,9.43-14.69,1.56-.4,3.21-.67,4.81-.66,13.31.03,26.62.14,39.94.25.69,0,1.26,0,2.88,0Z"/></svg>