<?xml version="1.0" encoding="UTF-8"?><svg id="Layer_1" xmlns="http://www.w3.org/2000/svg" viewBox="0 0 128 128"><defs><style>.cls-1{fill:#fafcfd;}.cls-1,.cls-2,.cls-3,.cls-4,.cls-5,.cls-6,.cls-7,.cls-8,.cls-9{fill-rule:evenodd;}.cls-2{fill:#838080;}.cls-3{fill:#6d6c6d;}.cls-4{fill:#fbfcfd;}.cls-5{fill:#d33b40;}.cls-6{fill:#efc9bc;}.cls-7{fill:#d33a40;}.cls-8{fill:#e29988;}.cls-9{fill:#aaa8a7;}</style></defs><path class="cls-1" d="M24.53,20.21h37.69c-10.5.59-19.66,4.35-27.49,11.28-3.38,3.06-6.22,6.55-8.51,10.46-.02,0-.04.02-.04.04,1.71.05,3.4.05,5.1,0,4.64-6.81,10.79-11.75,18.45-14.82,8.5-3.22,17.12-3.56,25.85-1.03,8.39,2.63,15.22,7.44,20.49,14.45,5.66,7.81,8.16,16.55,7.52,26.22-1.01,10.67-5.49,19.54-13.46,26.61-7.14,6.07-15.41,9.28-24.82,9.66-10.96.17-20.44-3.45-28.44-10.85-2.15-2.07-4.06-4.33-5.71-6.78-1.68-.03-3.37-.03-5.05,0,5.79,9.73,14.08,16.38,24.86,19.93,3.75,1.16,7.59,1.82,11.51,1.99H24.53v-26.71c4.72.01,9.43,0,14.14-.04,0-8.11,0-16.22.02-24.33,4.26,4.18,8.52,8.36,12.78,12.53,1.13-1.89,2.25-3.78,3.35-5.69-5.36-5.41-10.75-10.8-16.15-16.17-4.71-.04-9.42-.05-14.14-.04v-26.71Z"/><path class="cls-5" d="M62.22,20.21h3.58c11.21.58,20.87,4.71,28.97,12.39,7.36,7.26,11.68,16.05,12.97,26.36.1,1.06.19,2.12.27,3.16v2.67c-.49,12.24-5.17,22.55-14.01,30.93-8.06,7.3-17.56,11.19-28.48,11.65h-3.04c-3.92-.17-7.75-.83-11.51-1.99-10.78-3.55-19.07-10.2-24.86-19.93,1.68-.03,3.37-.03,5.05,0,1.66,2.45,3.56,4.71,5.71,6.78,8,7.4,17.48,11.02,28.44,10.85,9.41-.37,17.69-3.59,24.82-9.66,7.97-7.07,12.45-15.94,13.46-26.61.64-9.67-1.87-18.41-7.52-26.22-5.27-7-12.1-11.82-20.49-14.45-8.73-2.54-17.35-2.19-25.85,1.03-7.66,3.06-13.81,8-18.45,14.82-1.69.01-3.38,0-5.05-.04,2.29-3.91,5.12-7.4,8.51-10.46,7.83-6.93,17-10.69,27.49-11.28Z"/><path class="cls-4" d="M65.79,20.21h42.21v41.92c-.08-1.05-.17-2.1-.27-3.16-1.29-10.32-5.61-19.1-12.97-26.36-8.1-7.68-17.76-11.81-28.97-12.39Z"/><path class="cls-3" d="M76.93,91.72h-12.82v-8.92c0-10.01,0-20.03.04-30.04.05-1.92.05-3.86,0-5.79-.02,0-.04.02-.04.04-4.23,4.1-8.46,8.21-12.68,12.33-.03-2.89-.03-5.78,0-8.67,6.35-6.35,12.7-12.7,19.05-19.05,2.15-.02,4.3-.03,6.45-.02v60.12Z"/><path class="cls-6" d="M26.22,41.95c1.68.04,3.36.05,5.05.04-1.69.05-3.39.05-5.1,0,0-.02.02-.04.04-.04Z"/><path class="cls-7" d="M38.67,46.97c5.4,5.37,10.79,10.76,16.15,16.17-1.1,1.91-2.22,3.8-3.35,5.69-4.26-4.18-8.52-8.36-12.78-12.53-.02,8.11-.03,16.22-.02,24.33h-14.1v-33.66h14.1Z"/><path class="cls-2" d="M64.11,47.01s.02-.04.04-.04c.05,1.94.05,3.87,0,5.79.01-1.92,0-3.84-.04-5.75Z"/><path class="cls-8" d="M24.13,46.84c4.74-.01,9.48,0,14.21.04h-14.16v33.82h14.16c-4.73.04-9.46.05-14.21.04v-33.9Z"/><path class="cls-4" d="M108,64.8v42.58h-42.49c10.92-.46,20.42-4.35,28.48-11.65,8.85-8.38,13.52-18.69,14.01-30.93Z"/><path class="cls-9" d="M64.11,82.8v8.92h12.82c-4.28.04-8.57.05-12.86.04-.01-2.99,0-5.98.04-8.96Z"/></svg>