<?xml version="1.0"?>
<svg width="192" height="192" xmlns="http://www.w3.org/2000/svg" xmlns:svg="http://www.w3.org/2000/svg">
 <defs>
  <linearGradient id="1" transform="matrix(1 0 0 1 0 0)" x1="80.58" x2="18.63" y1="15.25" y2="15.25">
   <stop offset="0%" stop-color="#075CA3"/>
   <stop offset="100%" stop-color="#075CA3"/>
  </linearGradient>
  <linearGradient id="234" transform="matrix(1 0 0 1 0 0)" x1="79.53" x2="16.6" y1="36.21" y2="36.21">
   <stop offset="0%" stop-color="#0077AD"/>
   <stop offset="100%" stop-color="#0077AD"/>
  </linearGradient>
  <linearGradient id="471" transform="matrix(1 0 0 1 0 0)" x1="8.55" x2="34.01" y1="48.95" y2="32.6">
   <stop offset="0%" stop-color="#11529E"/>
   <stop offset="100%" stop-color="#0077AD"/>
  </linearGradient>
  <linearGradient id="707" transform="matrix(1 0 0 1 0 0)" x1="92.68" x2="2.06" y1="66.15" y2="66.15">
   <stop offset="0%" stop-color="#0077AD"/>
   <stop offset="100%" stop-color="#0077AD"/>
  </linearGradient>
  <linearGradient id="942" transform="matrix(1 0 0 1 0 0)" x1="64.27" x2="88.9" y1="26.36" y2="50.99">
   <stop offset="0%" stop-color="#0077AD"/>
   <stop offset="100%" stop-color="#11529E"/>
  </linearGradient>
  <linearGradient id="1179" transform="matrix(1 0 0 1 0 0)" x1="69.89" x2="89.33" y1="59.81" y2="79.25">
   <stop offset="0%" stop-color="#0077AD"/>
   <stop offset="100%" stop-color="#11529E"/>
  </linearGradient>
  <linearGradient id="1416" transform="matrix(1 0 0 1 0 0)" x1="92.69" x2="2.07" y1="94.75" y2="94.75">
   <stop offset="0%" stop-color="#0077AD"/>
   <stop offset="100%" stop-color="#0077AD"/>
  </linearGradient>
  <linearGradient id="1651" transform="matrix(1 0 0 1 0 0)" x1="71.69" x2="89.47" y1="88.62" y2="106.39">
   <stop offset="0%" stop-color="#0077AD"/>
   <stop offset="100%" stop-color="#11529E"/>
  </linearGradient>
  <linearGradient id="1890" transform="matrix(1 0 0 1 0 0)" x1="92.69" x2="2.06" y1="121.99" y2="121.99">
   <stop offset="0%" stop-color="#0077AD"/>
   <stop offset="100%" stop-color="#0077AD"/>
  </linearGradient>
  <linearGradient id="2129" transform="matrix(1 0 0 1 0 0)" x1="66.89" x2="30.58" y1="167.22" y2="167.22">
   <stop offset="0%" stop-color="#0077AD"/>
   <stop offset="100%" stop-color="#0077AD"/>
  </linearGradient>
  <linearGradient id="2368" transform="matrix(1 0 0 1 0 0)" x1="67.5" x2="31.76" y1="156.76" y2="156.76">
   <stop offset="0%" stop-color="#075CA3"/>
   <stop offset="100%" stop-color="#075CA3"/>
  </linearGradient>
  <linearGradient id="2608" transform="matrix(1 0 0 1 0 0)" x1="95.9" x2="59.6" y1="151.93" y2="151.93">
   <stop offset="0%" stop-color="#0077AD"/>
   <stop offset="100%" stop-color="#0077AD"/>
  </linearGradient>
  <linearGradient id="2848" transform="matrix(1 0 0 1 0 0)" x1="96.5" x2="60.77" y1="141.43" y2="141.43">
   <stop offset="0%" stop-color="#075CA3"/>
   <stop offset="100%" stop-color="#075CA3"/>
  </linearGradient>
  <linearGradient id="3088" transform="matrix(1 0 0 1 0 0)" x1="37.54" x2="1.24" y1="151.93" y2="151.93">
   <stop offset="0%" stop-color="#0077AD"/>
   <stop offset="100%" stop-color="#0077AD"/>
  </linearGradient>
  <linearGradient id="3327" transform="matrix(1 0 0 1 0 0)" x1="38.14" x2="2.41" y1="141.43" y2="141.43">
   <stop offset="0%" stop-color="#075CA3"/>
   <stop offset="100%" stop-color="#075CA3"/>
  </linearGradient>
 </defs>
 <g class="layer">
  <title>Layer 1</title>
  <g id="svg_1" transform="translate(1 0) translate(40.6708 -0.934861) matrix(1.07797 0 0 1.07891 1.00623 1.00623)">
   <path d="m0,0l99,0l0,177.84l-99,0l0,-177.84z" fill="none" id="svg_2"/>
   <g id="svg_3">
    <g id="svg_4">
     <path d="m80.65,22.21l-10.19,5.9l-0.05,-0.03l2,-1.17c0.39,-0.22 0.39,-0.78 0,-1l0,0l-21,-12.26c-1.09,-0.64 -2.43,-0.64 -3.52,0l0,0l-21,12.26c-0.33,0.18 -0.38,0.61 -0.15,0.87l0,0l-8.04,-4.71c0.88,-2.17 2.47,-4.1 4.76,-5.44l0,0l22.92,-13.36c2.02,-1.17 4.52,-1.17 6.54,0l0,0l22.92,13.36c2.34,1.36 3.95,3.36 4.81,5.58l0,0l0,0z" fill="url(#1)" id="svg_5"/>
     <path d="m79.17,33.19c-0.87,1.13 -1.98,2.13 -3.33,2.92l0,0l-9.75,5.68l-10.61,6.18l-2.56,1.49c-2.02,1.18 -4.52,1.18 -6.54,0l0,0l-2.56,-1.49l-10.61,-6.18l-9.75,-5.68c-1.35,-0.79 -2.46,-1.79 -3.33,-2.92c-2.44,-3.21 -2.92,-7.49 -1.43,-11.12l0,0l8.04,4.71c0.04,0.05 0.09,0.09 0.15,0.13l0,0l2,1.17l13.9,8.11l3.7,2.17l1.4,0.81c1.09,0.64 2.43,0.64 3.52,0l0,0l5.1,-2.98l4.19,-2.44l9.76,-5.64l10.19,-5.9c1.42,3.6 0.92,7.81 -1.48,10.98l0,0l0,0z" fill="url(#234)" id="svg_6"/>
     <path d="m16.66,52.58l-11.58,-6.79c1.27,-3.12 3.56,-5.91 6.86,-7.83l0,0l4.68,-2.73c0.83,0.9 1.83,1.71 2.98,2.38l0,0l10.38,6.06l-13.11,7.65c-0.47,0.28 -0.54,0.89 -0.21,1.26l0,0l0,0z" fill="url(#471)" id="svg_7"/>
     <path d="m87.36,66l-0.47,0.28l-13.93,8.11l-9.45,5.51l-9.15,5.33c-2.91,1.7 -6.51,1.7 -9.42,0l0,0l-9.15,-5.33l-9.45,-5.51l-13.93,-8.11l-0.47,-0.28c-7.46,-4.34 -9.75,-13.14 -6.86,-20.21l0,0l11.58,6.79c0.06,0.07 0.13,0.13 0.21,0.18l0,0l9.36,5.46l13.9,8.12l1.15,0.67l5.84,3.41c1.56,0.92 3.5,0.92 5.06,0l0,0l6.99,-4.08l6.39,-3.73l7.55,-4.36l21.2,-12.26c2.75,7.04 0.44,15.71 -6.95,20.01l0,0l0,0z" fill="url(#707)" id="svg_8"/>
     <path d="m94.31,45.99l-11.88,6.87c0.55,-0.32 0.55,-1.21 0,-1.54l0,0l-13.11,-7.65l10.38,-6.06c1.15,-0.67 2.15,-1.48 2.98,-2.38l0,0l4.68,2.73c3.37,1.96 5.68,4.83 6.95,8.03l0,0l0,0z" fill="url(#942)" id="svg_9"/>
     <path d="m94.31,74.59l-11.88,6.87c0.58,-0.24 0.55,-1.22 0,-1.54l0,0l-9.47,-5.53l13.93,-8.11l0.47,0.27c3.37,1.97 5.68,4.84 6.95,8.04z" fill="url(#1179)" id="svg_10"/>
     <path d="m88,94.2c-0.21,0.14 -0.42,0.27 -0.64,0.4l0,0l-13.24,7.72l-19.76,11.51c-2.91,1.7 -6.51,1.7 -9.42,0l0,0l-19.76,-11.51l-13.24,-7.72c-0.22,-0.13 -0.43,-0.26 -0.64,-0.4c-6.95,-4.46 -9.02,-12.94 -6.22,-19.81l0,0l11.57,6.78c0.06,0.07 0.13,0.14 0.22,0.19l0,0l8.2,4.79l13.9,8.12l0.01,0l6.12,3.57l2.02,1.18c1.56,0.91 3.5,0.91 5.06,0l0,0l8.14,-4.75l0.01,0l5.23,-3.06l8.71,-5.04l20.04,-11.58c2.67,6.83 0.57,15.19 -6.31,19.61l0,0l0,0z" fill="url(#1416)" id="svg_11"/>
     <path d="m94.31,101.83l0,0.01l-11.83,6.84c0.55,-0.32 0.5,-1.19 -0.05,-1.51l0,0l-8.31,-4.85l13.24,-7.72c0.22,-0.13 0.43,-0.26 0.64,-0.4c3.02,1.93 5.13,4.63 6.31,7.63l0,0l0,0z" fill="url(#1651)" id="svg_12"/>
     <path d="m87.36,121.85l-33,19.23c-2.91,1.69 -6.51,1.69 -9.42,0l0,0l-33,-19.23c-7.46,-4.35 -9.75,-13.15 -6.86,-20.22l0,0l11.57,6.78c0.05,0.08 0.13,0.15 0.22,0.2l0,0l24.2,14.12l0.91,0.53l5.14,3c1.56,0.92 3.5,0.92 5.06,0l0,0l13.38,-7.81l28.75,-16.61c2.75,7.04 0.44,15.7 -6.95,20.01z" fill="url(#1890)" id="svg_13"/>
     <path d="m64.76,167.17l-13.22,7.7c-1.17,0.68 -2.61,0.68 -3.78,0l0,0l-13.22,-7.7c-2.99,-1.74 -3.91,-5.27 -2.74,-8.1l0,0l4.64,2.72c0.01,0.03 0.04,0.06 0.08,0.08l0,0l11.31,6.6l0.8,0.47c0.63,0.37 1.41,0.37 2.03,0l0,0l5.37,-3.13l11.51,-6.66c1.11,2.82 0.18,6.29 -2.78,8.02z" fill="url(#2129)" id="svg_14"/>
     <path d="m62.78,161.87c0.22,-0.13 0.22,-0.45 0,-0.58l0,0l-12.12,-7.08c-0.62,-0.36 -1.4,-0.36 -2.03,0l0,0l-12.11,7.08c-0.18,0.11 -0.21,0.35 -0.08,0.5l0,0l-4.64,-2.72c0.5,-1.25 1.42,-2.37 2.74,-3.14l0,0l13.22,-7.7c1.17,-0.68 2.61,-0.68 3.78,0l0,0l13.22,7.7c1.35,0.79 2.27,1.93 2.78,3.22l0,0l-11.51,6.66l6.75,-3.94z" fill="url(#2368)" id="svg_15"/>
     <path d="m93.77,151.87l-13.22,7.71c-1.17,0.68 -2.61,0.68 -3.78,0l0,0l-13.22,-7.71c-2.99,-1.74 -3.9,-5.26 -2.74,-8.09l0,0l4.64,2.72l0.01,0.01c0.02,0.03 0.04,0.04 0.07,0.06l0,0l10.3,6.01l1.01,0.59l0.81,0.47c0.62,0.37 1.4,0.37 2.03,0l0,0l5.36,-3.13l0.13,-0.07l11.37,-6.58c1.12,2.82 0.19,6.29 -2.77,8.01l0,0l0,0z" fill="url(#2608)" id="svg_16"/>
     <path d="m91.79,145.99l-12.11,-7.07c-0.63,-0.37 -1.41,-0.37 -2.03,0l0,0l-12.12,7.07c-0.19,0.11 -0.21,0.36 -0.08,0.51l0,0l-4.64,-2.72c0.5,-1.26 1.42,-2.37 2.74,-3.14l0,0l13.22,-7.71c1.17,-0.68 2.61,-0.68 3.78,0l0,0l13.22,7.71c1.35,0.78 2.27,1.93 2.77,3.22l0,0l-11.37,6.58l6.62,-3.87c0.23,-0.13 0.23,-0.45 0,-0.58l0,0l0,0z" fill="url(#2848)" id="svg_17"/>
     <path d="m35.41,151.87l-13.22,7.71c-1.17,0.68 -2.61,0.68 -3.78,0l0,0l-13.22,-7.71c-2.99,-1.74 -3.9,-5.26 -2.74,-8.09l0,0l4.64,2.72l0.01,0.01c0.02,0.03 0.04,0.04 0.07,0.06l0,0l10.3,6.01l1.01,0.59l0.81,0.47c0.62,0.37 1.4,0.37 2.03,0l0,0l5.36,-3.13l0.13,-0.07l11.37,-6.58c1.12,2.82 0.19,6.29 -2.77,8.01l0,0l0,0z" fill="url(#3088)" id="svg_18"/>
     <path d="m33.43,146.57c0.22,-0.13 0.22,-0.45 0,-0.58l0,0l-12.11,-7.07c-0.63,-0.37 -1.41,-0.37 -2.03,0l0,0l-12.12,7.07c-0.19,0.11 -0.21,0.36 -0.08,0.51l0,0l-4.64,-2.72c0.5,-1.26 1.42,-2.37 2.74,-3.14l0,0l13.22,-7.71c1.17,-0.68 2.61,-0.68 3.78,0l0,0l13.22,7.71c1.35,0.78 2.27,1.93 2.77,3.22l0,0l-11.37,6.58l6.62,-3.87z" fill="url(#3327)" id="svg_19"/>
    </g>
   </g>
  </g>
 </g>
</svg>