<?xml version="1.0" encoding="UTF-8"?><svg id="Layer_1" xmlns="http://www.w3.org/2000/svg" viewBox="0 0 128 128"><defs><style>.cls-1{fill:#bd9341;}.cls-2{fill:#211f1f;}.cls-3{fill:#f3c14a;}</style></defs><circle class="cls-2" cx="64" cy="64" r="44.04"/><path class="cls-3" d="M83.69,38.32c-2.95,0-5.35,2.39-5.35,5.35s2.39,5.35,5.35,5.35,5.35-2.39,5.35-5.35-2.39-5.35-5.35-5.35Z"/><path class="cls-3" d="M59.64,57.32c-1.14-1.14-1.77-2.66-1.77-4.27s.63-3.13,1.77-4.27c0,0,0,0,0,0,1.87-1.87,4.84-2.04,6.9-.4,1.44,1.15,3.55.91,4.69-.54,1.15-1.44.91-3.55-.54-4.7-4.73-3.76-11.51-3.36-15.79.91,0,0,0,0-.01.01-2.4,2.4-3.72,5.59-3.72,8.99s1.32,6.59,3.73,9l4.72-4.73Z"/><path class="cls-3" d="M73.17,49.72l-33.23,33.48c-1.3,1.31-1.29,3.42.02,4.73.65.65,1.5.97,2.35.97s1.72-.33,2.37-.99l17.98-18.12,3.15,3.15h0c1.14,1.14,1.77,2.66,1.77,4.27s-.63,3.13-1.77,4.27c0,0,0,0,0,0-1.92,1.92-5.03,2.03-7.08.26-1.4-1.21-3.51-1.06-4.71.34-1.21,1.39-1.06,3.5.34,4.71,2.23,1.93,5,2.88,7.76,2.88,3.06,0,6.11-1.16,8.41-3.47,0,0,0,0,0-.01,2.4-2.4,3.72-5.59,3.72-8.99s-1.32-6.59-3.73-9h0s-3.17-3.17-3.17-3.17l10.54-10.62c1.3-1.31,1.29-3.43-.02-4.73-1.31-1.3-3.43-1.29-4.73.02Z"/><polygon class="cls-1" points="65.81 72.94 62.66 69.79 67.37 65.05 70.54 68.22 65.81 72.94"/></svg>