<?xml version="1.0" encoding="UTF-8"?>
<svg version="1.1" xmlns="http://www.w3.org/2000/svg" width="192" height="192">
<path d="M0 0 C1.14491409 -0.01283524 2.28982819 -0.02567047 3.46943665 -0.03889465 C4.712108 -0.04628159 5.95477936 -0.05366852 7.23510742 -0.0612793 C8.50778976 -0.06935104 9.78047211 -0.07742279 11.09172058 -0.08573914 C13.78937429 -0.09959031 16.48690536 -0.11060365 19.18457031 -0.11816406 C22.63475867 -0.12922073 26.08430066 -0.16361141 29.53426075 -0.20333576 C32.83031217 -0.23581778 36.12642034 -0.24028239 39.42260742 -0.2487793 C40.65920609 -0.26628738 41.89580475 -0.28379547 43.1698761 -0.30183411 C44.32424667 -0.29890854 45.47861725 -0.29598297 46.66796875 -0.29296875 C47.68119705 -0.29883499 48.69442535 -0.30470123 49.73835754 -0.31074524 C53.28862888 0.30997502 54.95187469 1.70700371 57.52807617 4.17700195 C61.75004696 12.24469599 61.96874269 24.55125394 59.52807617 33.17700195 C55.52321448 38.8001547 48.79273651 40.93669488 42.52807617 43.17700195 C41.21230246 43.721743 39.89835379 44.27092283 38.58666992 44.82543945 C23.37892733 50.66340639 7.46611284 50.41184032 -7.70654297 44.61547852 C-8.76948326 44.21114594 -8.76948326 44.21114594 -9.85389709 43.79864502 C-10.38784592 43.59350281 -10.92179474 43.3883606 -11.47192383 43.17700195 C-11.57100511 37.99924266 -11.64349189 32.82203848 -11.69165039 27.64355469 C-11.71173169 25.8830402 -11.73900262 24.12259213 -11.77368164 22.36230469 C-11.82235495 19.82771393 -11.84492688 17.294007 -11.86254883 14.7590332 C-11.88319397 13.9755098 -11.90383911 13.19198639 -11.92510986 12.38471985 C-11.92665576 8.59632334 -11.63223245 6.42799415 -9.57250977 3.203125 C-6.31502221 0.06111091 -4.42875218 0.04312996 0 0 Z M31.90307617 16.86450195 C31.13326416 17.04166748 30.36345215 17.21883301 29.5703125 17.40136719 C15.34407112 20.63305543 15.34407112 20.63305543 2.52807617 27.17700195 C2.19807617 28.16700195 1.86807617 29.15700195 1.52807617 30.17700195 C1.85807617 30.83700195 2.18807617 31.49700195 2.52807617 32.17700195 C7.41741681 31.66426211 11.09592001 30.65489498 15.46557617 28.42700195 C26.30530442 23.22542925 37.91942733 20.20213714 49.52807617 17.17700195 C49.52807617 16.51700195 49.52807617 15.85700195 49.52807617 15.17700195 C43.35333665 15.01258581 37.90381744 15.44427533 31.90307617 16.86450195 Z " fill="#1E376B" transform="translate(132.471923828125,60.822998046875)"/>
<path d="M0 0 C0.99 0 1.98 0 3 0 C3.0878954 3.35399849 3.14068879 6.7076964 3.1875 10.0625 C3.21263672 11.00544922 3.23777344 11.94839844 3.26367188 12.91992188 C3.32426068 18.71625102 3.09358839 23.01264262 0 28 C-5.61577103 31.96568341 -11.59231743 31.43383677 -18.1875 31.3984375 C-19.3633667 31.40130768 -20.5392334 31.40417786 -21.75073242 31.40713501 C-24.2319385 31.40917263 -26.71316076 31.40366397 -29.19433594 31.39111328 C-32.9866944 31.37505634 -36.77798708 31.39097328 -40.5703125 31.41015625 C-42.98437735 31.40817377 -45.39844153 31.40432999 -47.8125 31.3984375 C-49.50959106 31.40754654 -49.50959106 31.40754654 -51.2409668 31.4168396 C-61.27019499 31.32747646 -61.27019499 31.32747646 -66 28 C-68.45391569 24.31912647 -68.22802759 21.55644412 -68.125 17.3125 C-68.11597656 16.61060547 -68.10695313 15.90871094 -68.09765625 15.18554688 C-68.07413704 13.45688475 -68.03826713 11.72839855 -68 10 C-66.845 10.268125 -65.69 10.53625 -64.5 10.8125 C-62.66707299 11.21021058 -60.83366676 11.60571414 -59 12 C-57.77796875 12.27585937 -56.5559375 12.55171875 -55.296875 12.8359375 C-34.98136612 17.22464503 -18.22831402 11.94023502 -1 1 C-0.67 0.67 -0.34 0.34 0 0 Z " fill="#1E366A" transform="translate(189,101)"/>
<path d="M0 0 C0 2.75 0 2.75 -1 6 C-2.84765625 7.19238281 -2.84765625 7.19238281 -5.0625 8.203125 C-5.79597656 8.54504883 -6.52945313 8.88697266 -7.28515625 9.23925781 C-7.85105469 9.49030273 -8.41695312 9.74134766 -9 10 C-8.08186523 10.0093457 -7.16373047 10.01869141 -6.21777344 10.02832031 C-2.80294722 10.07239931 0.61063108 10.13403732 4.02490234 10.20751953 C5.50102196 10.23570088 6.97729169 10.25692966 8.45361328 10.27099609 C10.57923057 10.29246698 12.70304879 10.33913043 14.828125 10.390625 C16.1059082 10.41157227 17.38369141 10.43251953 18.70019531 10.45410156 C22.5127597 11.08482766 23.71173079 11.94428915 26 15 C26.609375 17.578125 26.609375 17.578125 26.75 20.25 C26.80671875 21.14203125 26.8634375 22.0340625 26.921875 22.953125 C26.94765625 23.62859375 26.9734375 24.3040625 27 25 C28.98 25.33 30.96 25.66 33 26 C33.06058594 25.15695313 33.12117188 24.31390625 33.18359375 23.4453125 C33.30927734 21.80175781 33.30927734 21.80175781 33.4375 20.125 C33.55931641 18.48917969 33.55931641 18.48917969 33.68359375 16.8203125 C34 14 34 14 35 12 C36.65 12 38.3 12 40 12 C40.23268915 18.28260706 39.40454548 23.88019467 38 30 C12 30 -14 30 -40 30 C-40.18236206 31.16644043 -40.18236206 31.16644043 -40.3684082 32.35644531 C-41 35 -41 35 -43.10546875 37.296875 C-46.7559998 39.44482579 -49.10839419 39.40716283 -53.3125 39.25 C-54.56675781 39.21390625 -55.82101563 39.1778125 -57.11328125 39.140625 C-58.06589844 39.09421875 -59.01851562 39.0478125 -60 39 C-60 37.68 -60 36.36 -60 35 C-53.565 34.505 -53.565 34.505 -47 34 C-46.67 32.68 -46.34 31.36 -46 30 C-47.2375 30.0825 -48.475 30.165 -49.75 30.25 C-52.80700305 30.23373935 -53.828179 30.10738813 -56.5 28.4375 C-59.19021222 24.06590514 -58.20409889 20.11326668 -57.3125 15.25 C-56 12 -56 12 -53.8125 10.0625 C-49.61951506 8.47848347 -45.96367868 8.36313124 -41.6875 9.75 C-39.58154307 11.30996809 -38.9912908 12.58159228 -38 15 C-37.76953125 17.2890625 -37.76953125 17.2890625 -37.8125 19.625 C-37.81894531 20.40101562 -37.82539062 21.17703125 -37.83203125 21.9765625 C-38 24 -38 24 -39 26 C-36.69 25.34 -34.38 24.68 -32 24 C-31.01 20.04 -30.02 16.08 -29 12 C-27.35 12 -25.7 12 -24 12 C-24 16.29 -24 20.58 -24 25 C-10.14 25 3.72 25 18 25 C19.52174919 22.32917961 19.52174919 22.32917961 19 16 C-0.305 15.505 -0.305 15.505 -20 15 C-19 9 -19 9 -17.35766602 7.49267578 C-16.66342529 7.1470459 -15.96918457 6.80141602 -15.25390625 6.4453125 C-14.49916016 6.05859375 -13.74441406 5.671875 -12.96679688 5.2734375 C-12.17337891 4.89445312 -11.37996094 4.51546875 -10.5625 4.125 C-9.77294922 3.7228125 -8.98339844 3.320625 -8.16992188 2.90625 C-2.37224968 0 -2.37224968 0 0 0 Z M-50 13 C-52.60585556 16.90878334 -52.22321871 20.46121966 -52 25 C-50.88163776 26.34404775 -50.88163776 26.34404775 -48 26.125 C-45.11836224 26.34404775 -45.11836224 26.34404775 -44 25 C-43.8754514 23.35769636 -43.82431476 21.70947724 -43.8125 20.0625 C-43.79123047 18.71865234 -43.79123047 18.71865234 -43.76953125 17.34765625 C-43.76805231 14.80885466 -43.76805231 14.80885466 -46 13 C-47.32 13 -48.64 13 -50 13 Z " fill="#1F3669" transform="translate(61,59)"/>
<path d="M0 0 C2.6875 2 2.6875 2 4 5 C4.49789338 8.87753329 4.24476852 12.26569444 3 16 C4.98 16.33 6.96 16.66 9 17 C9.09087891 15.62714844 9.09087891 15.62714844 9.18359375 14.2265625 C9.26738281 13.03804687 9.35117188 11.84953125 9.4375 10.625 C9.51871094 9.44164063 9.59992188 8.25828125 9.68359375 7.0390625 C10 4 10 4 11 2 C12.65 2 14.3 2 16 2 C15.85820962 4.22942748 15.71140302 6.45853628 15.5625 8.6875 C15.48128906 9.92886719 15.40007812 11.17023438 15.31640625 12.44921875 C15.05450202 15.38836617 14.60686889 18.12115221 14 21 C7.25568885 21.07612011 0.51148866 21.12862932 -6.2331543 21.16479492 C-8.52714172 21.17987308 -10.82110037 21.2003387 -13.11499023 21.22631836 C-16.41397205 21.26274358 -19.7125724 21.27973631 -23.01171875 21.29296875 C-24.54792122 21.31619453 -24.54792122 21.31619453 -26.11515808 21.33988953 C-35.0983663 21.34200851 -35.0983663 21.34200851 -39 18 C-40.52634923 14.94730154 -39.83794444 12.24154311 -39.5625 8.875 C-39.46066406 7.59367187 -39.35882813 6.31234375 -39.25390625 4.9921875 C-39.12822266 3.51105469 -39.12822266 3.51105469 -39 2 C-37.02 2 -35.04 2 -33 2 C-33 6.29 -33 10.58 -33 15 C-29.95786733 16.52106634 -26.71952428 16.37429338 -23.375 16.5625 C-22.66859375 16.60568359 -21.9621875 16.64886719 -21.234375 16.69335938 C-19.48981463 16.79944751 -17.74493303 16.90022889 -16 17 C-16.05220703 15.89591797 -16.05220703 15.89591797 -16.10546875 14.76953125 C-16.37928318 4.8991729 -16.37928318 4.8991729 -13 1 C-9.03908266 -0.98045867 -4.30809708 -0.54726196 0 0 Z M-9 4 C-9.41694996 5.59880813 -9.80790856 7.20441261 -10.1875 8.8125 C-10.40792969 9.70582031 -10.62835938 10.59914063 -10.85546875 11.51953125 C-11.28017901 14.06339759 -11.28017901 14.06339759 -9.55078125 15.82421875 C-9.03902344 16.21222656 -8.52726562 16.60023437 -8 17 C-4.27385847 15.88145414 -4.27385847 15.88145414 -2 13 C-1.81295596 10.30986661 -1.91418609 7.70313823 -2 5 C-3.12534105 3.64381501 -3.12534105 3.64381501 -6.0625 3.9375 C-7.031875 3.958125 -8.00125 3.97875 -9 4 Z " fill="#1F3668" transform="translate(58,103)"/>
<path d="M0 0 C1.65 0 3.3 0 5 0 C3.74423341 22.63684505 3.74423341 22.63684505 0.0625 27.625 C-3.69032291 30.12688194 -6.79469289 30.10973449 -11.1875 30.0625 C-12.81751953 30.04896484 -12.81751953 30.04896484 -14.48046875 30.03515625 C-15.31191406 30.02355469 -16.14335938 30.01195313 -17 30 C-17 28.68 -17 27.36 -17 26 C-16.31292969 25.96261719 -15.62585938 25.92523438 -14.91796875 25.88671875 C-14.01691406 25.82097656 -13.11585937 25.75523438 -12.1875 25.6875 C-11.29417969 25.62949219 -10.40085937 25.57148437 -9.48046875 25.51171875 C-6.56689068 24.91064989 -5.83190954 24.29347546 -4 22 C-3.33597747 19.82650616 -3.33597747 19.82650616 -3.0859375 17.40234375 C-2.96476562 16.51869141 -2.84359375 15.63503906 -2.71875 14.72460938 C-2.6053125 13.80486328 -2.491875 12.88511719 -2.375 11.9375 C-2.13562601 10.11290993 -1.89356819 8.28866934 -1.6484375 6.46484375 C-1.54708496 5.656521 -1.44573242 4.84819824 -1.34130859 4.01538086 C-1 2 -1 2 0 0 Z " fill="#203667" transform="translate(93,94)"/>
<path d="M0 0 C1.98 0 3.96 0 6 0 C5.69305541 3.10474234 5.378486 6.20866586 5.0625 9.3125 C4.97548828 10.19357422 4.88847656 11.07464844 4.79882812 11.98242188 C4.71181641 12.82998047 4.62480469 13.67753906 4.53515625 14.55078125 C4.456604 15.33106689 4.37805176 16.11135254 4.29711914 16.9152832 C4 19 4 19 3 22 C1.02 22 -0.96 22 -3 22 C-2.01 14.74 -1.02 7.48 0 0 Z " fill="#1E3768" transform="translate(81,94)"/>
<path d="M0 0 C4.95 0 9.9 0 15 0 C15 1.32 15 2.64 15 4 C9.72 4 4.44 4 -1 4 C-0.67 2.68 -0.34 1.36 0 0 Z " fill="#1E366B" transform="translate(56,129)"/>
<path d="M0 0 C5.28 0 10.56 0 16 0 C15.67 1.32 15.34 2.64 15 4 C10.05 4 5.1 4 0 4 C0 2.68 0 1.36 0 0 Z " fill="#1E366A" transform="translate(88,63)"/>
<path d="M0 0 C0.598125 0.20625 1.19625 0.4125 1.8125 0.625 C1.8125 2.275 1.8125 3.925 1.8125 5.625 C-0.1675 5.625 -2.1475 5.625 -4.1875 5.625 C-4.5175 4.305 -4.8475 2.985 -5.1875 1.625 C-2.1875 -0.375 -2.1875 -0.375 0 0 Z " fill="#1F366A" transform="translate(55.1875,93.375)"/>
<path d="M0 0 C1.67542976 0.28604898 3.34385343 0.61781233 5 1 C5 2.65 5 4.3 5 6 C3.02 6 1.04 6 -1 6 C-1.042721 4.33388095 -1.04063832 2.66617115 -1 1 C-0.67 0.67 -0.34 0.34 0 0 Z " fill="#203666" transform="translate(26,62)"/>
</svg>
