<?xml version="1.0" encoding="UTF-8"?><svg id="Layer_1" xmlns="http://www.w3.org/2000/svg" viewBox="0 0 128 128"><defs><style>.cls-1{fill:#244fde;}.cls-2{fill:#69c33c;}</style></defs><path class="cls-1" d="M36.35,51.13c2.08-15.34,13.64-23.25,27.66-23.25s25.56,7.96,27.66,23.25l8.59,6.25v-.54c0-24.24-16.23-36.73-36.25-36.73s-36.27,12.51-36.27,36.73v.54l8.62-6.25h0Z"/><path class="cls-2" d="M85.48,75.97c-5.85,8.58-13.12,16.08-21.48,22.16,0,0-3.17-2.32-7.33-6.05l-6.54,4.76c4.33,4.06,8.95,7.79,13.82,11.15,0,0,17.25-11.37,27.94-27.33l-6.4-4.69Z"/><path class="cls-1" d="M98.88,66.16c-.76,2.64-1.76,5.21-2.99,7.67l-31.27-22.85-.63-.48-.63.48-24.78,18.21c2.49,6.23,7.44,12.4,12.3,17.42l-6.37,4.66c-6.48-6.98-12.75-15.65-15.43-25.03l14.77-10.76v-9.52c0-.5.4-.9.89-.9h5.84c.48,0,.87.38.87.86h0v3.93l11.86-8.64c.39-.28.92-.28,1.31,0l27,19.71,7.25,5.25h0Z"/></svg>