<?xml version="1.0" encoding="UTF-8"?><svg id="Layer_1" xmlns="http://www.w3.org/2000/svg" viewBox="0 0 128 128"><defs><style>.cls-1{fill:#221f20;}</style></defs><path class="cls-1" d="M53.63,61.83c.12-.1.25-.21.37-.31,5.19-4.42,10.48-8.69,16.22-12.37,3.37-2.17,6.87-4.09,10.71-5.31,2.42-.77,4.87-1.3,7.43-1.17,4.41.22,7.6,3.08,8.27,7.44.37,2.43.11,4.81-.49,7.16-.41,1.6-2.02,2.48-3.62,2.06-1.5-.39-2.44-1.94-2.1-3.5.28-1.29.53-2.59.45-3.92-.03-.46-.11-.93-.21-1.38-.27-1.17-1.08-1.74-2.22-1.91-1.25-.18-2.46.02-3.67.29-3.29.74-6.29,2.17-9.16,3.88-4.34,2.57-8.41,5.53-12.26,8.78-.08.07-.17.14-.26.22.73.36,1.44.65,2.1,1.03,3.64,2.1,5.57,5.33,6,9.45.38,3.71-.46,7.13-2.94,9.99-3.07,3.55-7.01,5.04-11.62,4.26-4.79-.81-8.03-3.65-9.77-8.2-1.86-4.87-1.63-9.77-.22-14.69.92-3.2,2.28-6.22,3.84-9.16.76-1.43,2.55-1.95,3.97-1.19,1.44.77,1.98,2.51,1.25,3.99-.67,1.36-1.31,2.73-1.97,4.1-.06.13-.11.28-.16.42.02.02.04.03.07.05h0ZM62.87,64.68c-.51,1.18-1.4,1.81-2.53,2.04-.85.17-1.74.25-2.61.24-.92,0-1.83-.17-2.75-.25-1.37-.12-2.72-.1-4.03.39-.54.2-1.08.43-1.43.94-2.48,3.6-2.5,8.67-.02,12.25.06.08.13.15.22.26,0-.34,0-.62,0-.9-.03-2.16.64-4.01,2.43-5.35.95-.71,2.06-1.07,3.2-1.31,1.54-.33,3.08-.65,4.5-1.36,1.65-.83,2.91-2.01,3.38-3.87.26-1.04.15-2.03-.36-3.07h0ZM65.7,65.67c.22.64.46,1.19.59,1.76.13.58.22,1.17.23,1.76.04,2.27-.72,4.21-2.45,5.74-.15.13-.25.39-.27.61-.11,1.45-.37,2.84-1.35,3.99-.07.09-.11.23-.11.35,0,.54-.02,1.08.01,1.62.05.77.31,1.47.87,2.02.44.43.6.44,1.11.13,4.59-2.79,6.52-8.23,4.7-13.29-.66-1.84-1.77-3.37-3.33-4.68h0ZM64.93,65.59c.15.77.4,1.57.43,2.37.07,2.03-.79,3.62-2.54,4.69-.62.38-1.28.67-1.91,1.02-.99.54-1.41,1.39-1.33,2.5.02.31.08.62.12.93.03.25-.07.38-.33.38-.33,0-.65.03-.98,0-.12-.01-.22-.16-.33-.24.12-.09.22-.23.35-.26.21-.05.44-.04.67-.05-.01-.15-.02-.25-.03-.34-.22-1.68.36-2.78,1.86-3.54.51-.26,1.02-.5,1.5-.79,1.91-1.17,2.69-2.9,2.29-5.1-.12-.67-.35-1.3-.76-1.86,0,.19.04.37.07.55.03.2.06.39.06.59,0,2.32-1.05,4.07-2.97,5.32-1.39.9-2.94,1.38-4.55,1.72-.85.18-1.41.75-1.93,1.38-.05.06-.07.16-.07.24.03,1.57.24,3.09,1.4,4.29.54.56,1.11,1.1,1.69,1.61.78.68,1.68.67,2.47,0,.53-.45,1.03-.94,1.53-1.42.76-.73,1.22-1.63,1.4-2.67.1-.58.12-1.18.2-1.77.02-.15.09-.34.2-.43,1.69-1.28,2.4-3.04,2.5-5.09.07-1.46-.3-2.83-1.04-4.02h0ZM54.88,73.86c-1.64.43-2.89,1.2-3.67,2.59-.94,1.68-.87,3.48-.45,5.29.03.15.18.28.29.4,1.39,1.33,3.01,2.24,4.88,2.73.4.1.8.18,1.21.24.39.06.79.08,1.18.11-2.36-.86-4.02-2.39-4.82-4.76-.8-2.39-.47-4.61,1.39-6.59h0ZM63.26,84.17c-1.34-1-1.44-2.42-1.39-3.96-.53.46-.97.88-1.43,1.26-.91.74-2.15.74-3.05,0-.39-.32-.76-.68-1.14-1.02-.08-.07-.16-.12-.3-.23,0,.41.03.73,0,1.05-.06.47-.12.95-.26,1.41-.08.26-.04.41.16.53.64.41,1.25.9,1.94,1.19,1.82.79,3.65.79,5.47-.24h0ZM51.78,65.58s.03.06.04.1c.36-.03.72-.11,1.08-.1,1.46.06,2.91.15,4.37.23,1.16.06,2.33.11,3.42-.39.47-.21.85-.51,1.05-1,.19-.47-.01-.86-.5-.96-3.05-.67-5.91-.19-8.55,1.48-.31.2-.6.44-.9.66h0ZM54.03,75.97c-1.01,2.01-.26,5.16,1.25,6.58.06-.27.15-.51.17-.76.04-.56.07-1.13.05-1.7,0-.23-.12-.47-.22-.69-.3-.62-.66-1.21-.91-1.85-.18-.48-.23-1.01-.34-1.58h0Z"/><path class="cls-1" d="M38.93,46.97c-.03-.55-.05-1.56-.13-2.57-.14-1.83.63-2.98,2.38-3.51,4.86-1.45,9.57-3.27,13.98-5.81,3.99-2.3,7.58-5.1,10.38-8.8,1.02-1.34,1.87-2.8,2.74-4.24.83-1.38,2.46-1.95,3.89-1.27,1.54.73,2.14,2.53,1.34,4.08-1.26,2.44-2.82,4.68-4.64,6.75-3.89,4.42-8.64,7.69-13.89,10.3-3.13,1.55-6.37,2.83-9.69,3.9-.38.12-.5.27-.48.68.14,3.32-.1,6.61-1.3,9.75-1.31,3.44-3.49,6.1-6.9,7.66-5.45,2.49-13.3-.54-14.54-7.73-.5-2.89-.05-5.64,1.19-8.28,1.57-3.33,3.81-6.1,6.95-8.08,1.69-1.07,3.9-.15,4.4,1.79.32,1.25-.18,2.49-1.3,3.25-2.4,1.61-4.05,3.81-5.06,6.5-.49,1.3-.64,2.64-.31,4.01.69,2.87,3.98,4.36,6.59,2.99,1.76-.92,2.79-2.45,3.47-4.25.7-1.87.94-3.69.93-7.11h0Z"/><path class="cls-1" d="M79.22,84.47c-.33.59-.64,1.18-.97,1.75-3.6,6.33-8.94,10.49-16.01,12.08-8.03,1.8-14.72-.77-20-7.03-.85-1.01-1.47-2.19-1.96-3.42-.63-1.55.08-3.27,1.6-3.89,1.53-.63,3.21.09,3.87,1.63,1.11,2.6,3.09,4.37,5.52,5.68,3.9,2.1,7.92,2.18,11.99.58,3.58-1.41,6.56-3.65,8.77-6.82,1.56-2.24,2.67-4.74,3.76-7.23.36-.82.69-1.65,1.03-2.47.55-1.37,1.92-2.12,3.37-1.84,1.37.26,2.33,1.5,2.34,2.95,0,.78.06,1.55.15,2.33.04.33.19.65.35.95.36.67.93,1,1.69,1.02,1.13.02,2.51-.86,2.68-2.35.32-2.73.75-5.45,1.16-8.17.25-1.69,1.75-2.78,3.4-2.52,1.59.26,2.68,1.76,2.45,3.39-.41,2.88-.79,5.76-1.25,8.63-.41,2.59-1.89,4.49-4.12,5.79-3.02,1.76-6.95,1.54-9.62-.9-.05-.05-.11-.09-.2-.15h0Z"/><path class="cls-1" d="M82.51,36.02c0,1.22-.67,2.3-1.81,2.73-6.27,2.38-11.75,6.04-16.87,10.3-1,.83-2.12,1.02-3.29.45-1.11-.54-1.66-1.48-1.66-2.71,0-.82.29-1.55.91-2.08,5.66-4.77,11.76-8.84,18.73-11.46,1.96-.74,3.97.69,3.98,2.76h0Z"/><path class="cls-1" d="M88.07,96.32c-.52-.2-1.1-.31-1.55-.61-1.8-1.19-3.77-.81-5.21.34-1.34,1.07-3.17.91-4.22-.38-1.05-1.28-.86-3.14.48-4.21,3.26-2.59,8.01-3.43,12.06-.78,1.67,1.09,1.98,3.22.66,4.61-.59.62-1.32.92-2.17.91l-.04.11h0Z"/><path class="cls-1" d="M83.92,102.76c-1.65,0-2.98-1.31-3-2.96-.02-1.66,1.32-3,2.99-3.01,1.65,0,2.98,1.31,3,2.96.02,1.65-1.32,3-2.99,3h0Z"/><path class="cls-1" d="M58.87,78.85c.21-.07.43-.21.57-.16.25.09.46.29.69.44-.12.16-.22.34-.35.48-.52.54-1.49.44-2.03-.28-.04-.06-.03-.22.02-.28.35-.42.67-.46,1.09-.2h0Z"/><path class="cls-1" d="M56.64,74.22c.34.16.74.32,1.1.54.11.06.11.3.16.45-.16,0-.36.04-.47-.03-.45-.31-.89-.46-1.42-.22-.09.04-.25-.08-.38-.12.06-.12.1-.31.2-.36.22-.11.47-.16.82-.26h0Z"/><path class="cls-1" d="M61.62,74.21c.36.12.62.18.86.29.08.04.16.25.12.33-.04.08-.25.17-.33.13-.56-.27-1.03-.11-1.49.24-.09.07-.27.01-.4.02.02-.15,0-.38.08-.43.39-.23.81-.41,1.17-.59h0Z"/></svg>