<?xml version="1.0" encoding="UTF-8"?><svg id="Layer_1" xmlns="http://www.w3.org/2000/svg" viewBox="0 0 128 128"><defs><style>.cls-1{fill:#cbae76;}.cls-1,.cls-2{fill-rule:evenodd;}.cls-2{fill:#4c395f;}</style></defs><path class="cls-2" d="M26.34,24.86h75.04c1.29,0,2.34,1.05,2.34,2.34v73.6c0,1.29-1.05,2.34-2.34,2.34H26.34c-1.29,0-2.34-1.05-2.34-2.34V27.2c0-1.29,1.05-2.34,2.34-2.34Z"/><path class="cls-1" d="M26.34,24.86h75.04c1.29,0,2.34,1.05,2.34,2.34v73.6c0,1.29-1.05,2.34-2.34,2.34H26.34c-1.29,0-2.34-1.05-2.34-2.34V27.2c0-1.29,1.05-2.34,2.34-2.34ZM32.77,99.27c.34-.02,1.2-.22.64-1.77-2.32-5.92,2.17-10.37,6.81-6.84.62.46,1.24,1.08,1.55,1.81.86,1.98-1.19,3.66-2.84,2.22,0,0-.48-.55-1.01-.96-1.38-1.07-1.51.07-1.34,1.17.24,1.51,1.48,4.23,7.26,4.37h.98c.64-.02,1.17-.02,1.62,0h32.53c2.94-.4,2.94-2.96,2.94-2.96.1-1.56-1.5-2.05-1.5-2.05-2.51-.88-2.55,2.63-2.55,2.63-.09,1.86-1.65,1.77-1.65,1.77-3.06-.14-1.69-3.89-1.69-3.89,1.51-6,7.5-3.87,7.5-3.87.96.5,1.03.19,1.03.19.93-9.61-4.16-15.75-4.16-15.75-1.6-1.7-2.91-.91-3.28-.62l-.1.09h0c-1.56,1.34-3.3,2.49-5.19,3.49-1.46.77-.62,2.42.02,3.56,3.46,6.17-1.79,12.35-1.79,12.35-1.89,3.63-3.53,2.58-3.53,2.58-1.63-.57-1.38-4.16-1.38-4.16.14-1.7-1.07-4.69-1.07-4.69-2.67-4.68-5.92-5.37-10.49-5.88-.79-.09-1.58-.21-2.36-.36.5,4.54-2.42,5.62-2.42,5.62-4.23,2.17-8.84-2.36-8.2-4.56.31-1.07,1.75-1.69,2.77-1.1,1,.58,1.13,1.63,2.25,2.29,1.12.65,2.01.28,1.94-1.01-.07-1.03-.7-2.01-1.29-2.72-3.01-1.24-5.67-3.03-7.67-5.73h0s-2.01-2.48-3.54.07c0,0-4.21,7.38-5.66,23.7.36.62,1.05,1.03,1.82,1.03h3.08-.03ZM54.21,88.35c1.89,0,3.44,1.53,3.44,3.44s-1.53,3.44-3.44,3.44-3.44-1.53-3.44-3.44,1.53-3.44,3.44-3.44ZM27.58,64s4.78,4.13,6.14-1.86h0c.1-1.48.36-2.79.74-3.94.98-2.99,2.73-5,4.61-6.35,2.94-2.1,4.78-1.43,7.17-3.99.95-1.01,1.5-2.15,1.69-3.2.15-.91.03-1.75-.34-2.36l-.03-.05c-.09-.14-.21-.28-.33-.38-.86-.81-1.67-.88-2.27-.6-.45.21-.83.58-1.08,1.03-.22.36-.33.74-.29,1.05v.03c.02.14.17.28.5.34,1.01.22,1.67,1.24,1.44,2.25-.22,1.01-1.24,1.67-2.25,1.44-2.15-.48-3.2-1.84-3.44-3.49l-.02-.09c-.15-1.13.15-2.39.79-3.46.62-1.05,1.56-1.98,2.72-2.53,1.89-.91,4.25-.84,6.48,1.24.34.33.65.69.91,1.07l.05.09c.91,1.43,1.22,3.23.91,5.07-.15.86-.43,1.74-.86,2.6-.4.79-.26,1.86.72,2.05,1.24.24,2.46.53,3.7.79,3.03.64,5.74,1.13,8.48.45,3.8-.96,6.9-4.18,8.2-7.81.93-2.6,1.38-4.49.91-6.9-.28-1.46-1.48-4.69.62-5.52,3.68-1.44,7.86,6.28,10.03,11.61h0c.79,1.39,2.61.24,3.95-.07,2.01-.46,5.3-.89,8.25.22,2.91,1.1,2.85,2.65.24,4.38-1.99,1.32-5.73,4.16-7.67,8.03-1.05,2.1-.81,1.81,1.17,2.36,1.26.34,3.39,1.26,3.59,3.89.17,2.32-1.79,5.81-4.37,5.45,0,0-2.06-.31-1.32-2.44,0,0,.17-.53.77-.95.67-.48,2.44-1.55.69-2.29,0,0-2.72-1.46-4.97,2.84,0,0-1.77,4.2-3.25,5.49-.96.84-1.07,1.05.22,2.51,1.99,2.27,4.28,7.34,4.28,7.34.98,2.25,2.94.38,2.94.38,4.83-2.63,7.7.6,7.7.6,4.14,3.94-.34,8.36-.34,8.36-2.89,4.01-4.59,1.79-4.59,1.79-1.48-1.26.09-2.72.09-2.72.62-.4,2.34-2.25,2.34-2.25,1.07-2.06-.52-2.79-.52-2.79-5.49-1.46-5.92,7.29-5.92,7.29.09,2.87-1.1,6.64-1.1,6.64-.86,2.1,1.34,2.65,1.34,2.65h11.01c1.15,0,2.12-.95,2.12-2.12V30.9c0-1.15-.95-2.12-2.12-2.12h-38.24c.09.17.15.34.22.53.45,1.31.33,2.72-.24,3.92-.57,1.19-1.56,2.2-2.87,2.73-1.93.77-4.45.52-7.07-1.79-.79-.69-.86-1.89-.17-2.68.69-.79,1.89-.86,2.68-.17,1.32,1.19,2.41,1.39,3.13,1.1.38-.15.69-.46.86-.83.17-.34.21-.74.09-1.07-.52-1.48-2.73-1.75-4.13-1.75h-22.61c-1.15,0-2.12.95-2.12,2.12v33.15l.03-.05ZM27.87,98.22l-.1-.21c.03.07.07.14.1.21ZM27.58,69.62s.1-1.34,1.44-.91l1.72.48s1.07.26.83,1.07c0,0-2.94,6.41-2.97,6.91,0,0-.31,1.05-1.01,0v-7.57h0v.02ZM39.29,59.75c-.53,1.6-.72,3.68-.38,6.38.21,1,.48,1.91.83,2.77,1.53,3.82,4.32,6.41,7.77,7.62,3.66,1.27,8.06,1.07,12.26.21,1.84-.38,3.65-.91,5.37-1.6,3.3-1.32,6.05-3.03,8.32-5.31,2.27-2.29,4.35-5.07,5.78-8.77,1.51-3.94,1.86-9.54,1.03-14.6-.89-5.54-2.15-2.89-4.04.69-1.67,3.16-4.32,5.47-7.7,7.12-5.04,2.48-9.72,1.48-14.34.5-4.2-.89-8.48-1.43-12.16,1.2-1.1.79-2.13,1.99-2.73,3.8ZM63.09,39.08c1.77,0,3.2,1.43,3.2,3.2s-1.43,3.2-3.2,3.2-3.2-1.43-3.2-3.2,1.43-3.2,3.2-3.2Z"/></svg>