<?xml version="1.0" encoding="UTF-8"?><svg id="Layer_1" xmlns="http://www.w3.org/2000/svg" viewBox="0 0 128 128"><defs><style>.cls-1{fill:#e0ae45;}.cls-2{fill:#922c34;}</style></defs><path class="cls-2" d="M64.33,78.84c-1.21-1.39-2.61-2.64-3.93-3.93-3.98-4.06-9.54-6.16-15.1-6.83-1.74-.4.86-1.85,1.41-2.3,1.8-1.25,3.98-2.03,6.15-2.47,1.74-.31,3.49-.27,5.25-.19,3.21.12,6.29,1.52,8.87,3.37,1.27.96,2.39,2.09,3.5,3.23,1.6,1.59,3.14,3.52,5.29,4.31,4.62,1.58,5.26-2.95,8.24.78,1.81,2.05,2.91,1.36,4.59-.48.81-.87,1.61-1.29,2.7-.83,1.18.57,2.53,1.04,3.87.81,3.28-.55,5.36-3.55,4.87-6.84-.4-2.53-2.6-4.77-5.26-4.84-.87-.04-1.72.17-2.53.46-1.14.48-2.38.7-3.41-.15-1.01-.72-2-2.35-3.42-1.71-.73.32-1.4,1.19-2.16,1.72-.76.58-1.7.78-2.63.45-.61-.19-1.21-.49-1.83-.65-2.13-.61-4.31.78-5.84,2.24-1.78,1.62-3.06.26-4.41-1.08-3.85-3.94-7.93-7.66-11.65-11.68-.25-.36-.32-.67-.16-.88.45-.45,1.49-.38,2.15-.39,10.79,0,21.58.03,32.37,0,3.42-.05,6.99-.1,10.19,1.34,5.12,2.13,9.25,7.11,10.26,12.58.65,3.94.25,8.33-1.71,11.9-2.92,5.42-8.83,9.15-15.05,9.18-1.91.06-3.85-.07-5.66-.7-2.75-1.08-4.12-.13-6.76.36-1.22.22-2.45.42-3.68.38-2.11-.09-4.21-.57-6.2-1.27-3.23-1.2-5.99-3.32-8.29-5.85l-.03-.03Z"/><path class="cls-1" d="M44.6,68.24c4.3-.12,9.46,1.59,12.99,4.05.45.35,1.79,1.02,1.7,1.5-.08.24-1.08.28-1.51.28-8.8.11-17.59-.01-26.4.1-3,.03-6.06-.18-8.93-1.05-7.62-2.47-8.27-13.05-.78-16.23,4.35-2.02,9.15-1.81,13.81-1.79,2.66.03,5.31-.07,7.96-.26,4.04-.22,5.74-.47,9.21-2.71,2.66-1.69,1.7,2.95,1.31,4.19-.35,1.03-.87,2.02-1.66,2.76-1.16,1.06-2.69,1.7-4.16,2.23-4.21,1.34-8.63,1.08-12.98.97-2.09,0-4.17-.16-6.26-.27-1.62-.06-3.25.13-4.86.32-.67.09-1.35.21-1.99.44-1.41.43-2.57,1.9-1.65,3.3.76,1.17,2.33,1.62,3.67,1.85,4.01.66,8.03.2,12.06.27,2.79.09,5.59.13,8.4.04h.04Z"/><path class="cls-1" d="M64.44,78.9c.57.55,1.21,1.04,1.72,1.66.64.74,1.49,1.15,2.21,1.72.23.19.21.4.25.64-.42.87-1.27,1.3-2.04,1.74-1.72,1-3.61,1.38-5.63,1.36-9.34-.04-18.66-.04-28.01,0-1.17,0-2-.28-2.7-1.23-1.08-1.49-2.74-2.42-3.91-3.84-.02-.02-.08-.02-.08-.04-.28-.34-.83-.74-.74-.98.17-.51.79-.28,1.21-.28,11.49-.02,23,0,34.48-.02,1.13,0,2.31.19,3.23-.72Z"/><path class="cls-1" d="M17.98,57.01c-.52-.4.42-1.9.77-2.44.49-.75.98-1.56,1.56-2.29,1.91-2.28,4.46-3.89,7.17-5.02,2.6-1.11,5.44-.99,8.2-1.02,2.71-.08,5.44.22,8.15-.1,1.18-.16,2.33-.46,3.46-.83,1.65-.56,3.26-1.16,4.63-2.32.32-.26.65-.55,1-.77,1.88-1.13,1.18,2.04.84,3.04-1.17,3.58-4.38,6.76-8.12,7.36-5.18.38-10.38-.04-15.57.03-1.74,0-3.48.23-5.14.79-1.63.55-3.22,1.25-4.65,2.23-.64.35-1.67,1.5-2.28,1.35h-.01Z"/><path class="cls-1" d="M89.1,68.49c.03,1.38-.84,2.44-1.81,3.3-.92.9-1.72,1-2.65.1-1.89-1.63-1.97-4.38-.39-6.31.66-.87,1.64-1.74,2.67-.79,1.09.94,2.2,2.13,2.18,3.67v.04Z"/></svg>