<?xml version="1.0" encoding="UTF-8"?><svg id="Layer_1" xmlns="http://www.w3.org/2000/svg" viewBox="0 0 128 128"><defs><style>.cls-1{fill:#5eb057;fill-rule:evenodd;}</style></defs><path class="cls-1" d="M33.82,84.88c2.4,6.05,8.29,10.42,15.16,10.42h30.1c3.65,0,7.09-1.25,9.82-3.38l6.16,6.16c-4.36,3.65-9.92,5.89-15.98,5.89h-30.1c-12.76,0-23.34-9.76-24.75-22.14l2.07-2.07h0l18.87-18.87,6.33-6.33,6.38,6.33,15.32,15.32-6.38,6.33-15.32-15.27-17.67,17.61ZM64.19,54.57l30.1,30.1h0l6.54,6.49c2.02-3.6,3.16-7.74,3.16-12.16v-30.05c0-13.74-11.23-24.92-24.92-24.92h-30.1c-13.69,0-24.92,11.18-24.92,24.92v20.34l7.58-7.58,1.09-1.09v-11.67c0-8.94,7.31-16.25,16.25-16.25h30.1c8.94,0,16.25,7.31,16.25,16.25v23.99l-18.43-18.38-6.32-6.38-6.38-6.33-6.33,6.33h0l6.33,6.38Z"/></svg>