<?xml version="1.0" encoding="UTF-8"?><svg id="Layer_1" xmlns="http://www.w3.org/2000/svg" viewBox="0 0 128 128"><defs><style>.cls-1{fill:#513467;}.cls-2{fill:#7a7c7d;}.cls-3{fill:#f6f5f7;}</style></defs><path class="cls-3" d="M36.49,31.78c.14.29.83.31,1.72.2,13.23-2.03,26.97-1.51,38.7,4.88,12.62,6.62,23.29,19.64,19.21,34.62-2.11,8.02-10.68,11.12-18.19,9.86-5.63-.85-10.78-3.87-16.49-4.45-19.56-2.82-20.09,16.89-16.22,30.64.19.04.39-.36.53-.57,1.57-3.44,4.4-1.52,7.63-.41,9.95,2.23,21.97,1.12,30.11-3.75,29.91-18.88,28.63-60.51-.35-76.81-14.79-8.07-31.7-8.07-45.39,4.04-.85.75-1.39,1.38-1.27,1.71l.02.05ZM39.11,97.43c.26-.15.39-.57.41-1.16-.01-2.64-.88-5.28-1.28-7.91-1.05-5.99-.24-12.62,2.88-16.83,8.85-11.93,24.47-2.5,36.09-4.91,7.07-1.69,7.03-8.08,2.92-13.05-13.38-15.64-37.26-15.32-55.96-13.96-.82.51.73,1.07,1.14,1.28,2.84.81,2.3,2.84,1.59,5.22-6.75,17.86-4.04,38.1,10.07,50.24.52.5,1.58,1.36,2.07,1.13l.07-.03Z"/><path class="cls-1" d="M36.47,31.72c-.11-.33.42-.96,1.27-1.71,13.68-12.11,30.65-12.2,45.39-4.04,29.09,16.13,30.48,58.28.35,76.81-8.09,4.97-20.31,6.56-30.11,3.75-3.28-.94-6.07-3.02-7.63.41-.1.16-.18.29-.25.39-.11.17-.25.21-.27.18-3.87-13.74-3.32-33.47,16.22-30.64,5.71.58,10.87,3.61,16.49,4.45,7.51,1.25,16.08-1.84,18.19-9.87,4.08-14.99-6.58-28-19.21-34.62-11.73-6.4-25.48-6.92-38.7-4.88-.89.11-1.58.09-1.72-.2l-.02-.05Z"/><path class="cls-2" d="M39.05,97.46c-.5.24-1.55-.64-2.07-1.13-14.11-12.14-16.82-32.39-10.07-50.24.88-3.01,1.15-4.37-2.11-5.46-.42-.23-1.27-.64-.62-1.04,18.7-1.35,42.58-1.67,55.96,13.96,4.09,4.95,4.18,11.34-2.92,13.05-11.59,2.41-27.25-7.02-36.09,4.91-3.12,4.21-3.94,10.85-2.88,16.83.41,2.64,1.27,5.28,1.28,7.91-.02.59-.15,1.01-.41,1.16l-.07.03Z"/></svg>