<?xml version="1.0" encoding="UTF-8"?><svg id="Layer_1" xmlns="http://www.w3.org/2000/svg" width="192" height="192" viewBox="0 0 192 192"><defs><style>.cls-1{fill:#f16a21;}.cls-1,.cls-2,.cls-3,.cls-4,.cls-5{stroke-width:0px;}.cls-2{fill:#7c7b7c;}.cls-3{fill:none;}.cls-4{fill:#fff;}.cls-5{fill:#353535;}</style></defs><path class="cls-1" d="m114.48,125.82h-35.94c-24.35,0-44.28-19.93-44.28-44.28v-37.09c0-24.35,19.64-43.37,44-43.37l36.27-.07c24.35,0,44.22,19.09,44.22,43.45v37.09c0,24.35-19.93,44.28-44.28,44.28Z"/><path class="cls-4" d="m130.56,67.84c0-1.35.02-2.7,0-4.05-.01-.67.27-.93.94-.93,2.74.01,5.48.02,8.21,0,.73,0,1.02.28,1.01.99-.02,2.74-.02,5.47,0,8.21,0,.71-.29.99-1.02.98-2.74-.02-5.48-.02-8.21,0-.68,0-.95-.27-.94-.94.03-1.42,0-2.84,0-4.26Z"/><path class="cls-4" d="m130.56,79.47c0-1.35.02-2.7,0-4.05-.01-.67.27-.93.94-.93,2.74.01,5.48.02,8.21,0,.73,0,1.02.28,1.01.99-.02,2.74-.02,5.47,0,8.21,0,.71-.29.99-1.02.98-2.74-.02-5.48-.02-8.21,0-.68,0-.95-.27-.94-.94.03-1.42,0-2.84,0-4.26Z"/><path class="cls-4" d="m130.84,51.76c0,2.86.02,5.72-.02,8.57,0,.67.23.9,1.1.89,2.49-.04,4.98-.04,7.47,0,.81.01,1.06-.21,1.05-.84-.02-5.79-.02-11.59,0-17.38,0-.63-.23-.86-1.05-.85-2.52.03-5.04.03-7.56,0-.77,0-1.01.2-1,.8.03,2.94.01,5.87.01,8.81Z"/><path class="cls-4" d="m126.98,43.19c-.03,9.83,0,19.66-.03,29.47-.02,6.71-6.12,12.21-12.27,12.17q-3.49-.03-11.56-.16c-.52-.01-.97,0-1.54,0h-10.45c.01-.18.02-.34.03-.5.01-.17.02-.34.02-.53,0-8.71.01-17.42-.01-26.14,0-1.18-.07-2.62-.07-3.8v-.64c0-2.25-.06-2.37-2.49-2.39-4.67-.03-9.34-.02-14.01,0-1.71,0-3.42.06-5.13.11-3.94.11-6.94,3.07-6.95,6.88-.01,8.72,0,17.43,0,26.15,0,.34.03.64.04,1.04h-10.27l.06-10.74c.02-6.8-.04-13.61.06-20.41.11-6.37,5.66-11.55,12.2-11.55,11.7-.01,23.38,0,35.07,0,1.51,0,1.52,0,1.52,1.51v17.97c.06,4.11.11,8.24.12,12.34.01,1.83.15,2,1.98,2h2.69c.15,0,.76,0,2.77-.01.89-.01,1.79-.07,2.65-.28,3.44-.8,5.62-3.6,5.63-7.18.01-8.4.01-16.8-.01-25.2-.01-.92.21-1.31,1.24-1.28,2.49.05,4.99.05,7.48,0,.94-.02,1.23.29,1.23,1.2Z"/><path class="cls-4" d="m91.18,83.63c0,.19-.01.36-.02.53-.06-.2-.06-.52-.06-1.01v-29.46c0,1.19.07,2.63.07,3.8.02,8.72.01,17.43.01,26.14Z"/><path class="cls-4" d="m82.2,71.61c0-3.85-.02-7.7.02-11.55,0-.9-.26-1.22-1.21-1.2-2.74.05-5.48.05-8.23,0-.89-.01-1.16.28-1.16,1.14.03,7.81.03,15.61,0,23.42,0,.85.25,1.16,1.15,1.14,2.78-.05,5.56-.04,8.33,0,.85.01,1.11-.27,1.11-1.08-.03-3.96-.01-7.91-.01-11.87Z"/><path class="cls-5" d="m4.37,188.66c-.29,0-.57-.04-.84-.1s-.52-.17-.76-.29c-.24-.13-.46-.28-.66-.47s-.38-.39-.52-.62c-.17-.28-.31-.6-.4-.94-.09-.35-.14-.71-.14-1.08,0-.24.01-.47.04-.7.03-.22.08-.46.14-.69s.15-.48.25-.74c.1-.26.23-.54.38-.85l1.22.58c-.13.26-.24.5-.33.71s-.16.41-.21.59c-.05.19-.09.37-.12.54s-.04.35-.04.54c0,.25.03.48.09.71.06.23.15.43.26.61.17.26.4.46.69.62.28.15.6.23.94.23h1.1c.38,0,.7-.04.94-.12.24-.08.43-.19.56-.34.13-.15.23-.32.27-.53.05-.21.07-.43.07-.68v-3.66h1.35v3.66c0,1.01-.27,1.77-.8,2.27-.53.5-1.33.76-2.4.76h-1.1Zm-.11-7.11l.98-.99,1,1-.99.99-.99-1Z"/><path class="cls-5" d="m11.62,185.74h-1.35v-7.83h1.35v7.83Z"/><path class="cls-5" d="m16.32,185.74h-.21c-.15,0-.29,0-.42-.03-.13-.02-.26-.07-.39-.15-.04.47-.15.89-.32,1.27-.17.38-.4.71-.68.97-.28.27-.62.48-1.02.63-.39.15-.84.22-1.33.22h-.68v-1.35h.68c.35,0,.65-.04.9-.11.25-.07.46-.19.62-.35.16-.16.28-.37.36-.62.08-.25.12-.57.12-.93v-3.31h1.35v1.62c0,.17.04.3.11.4s.15.18.24.24c.09.06.18.09.27.11.09.02.15.03.18.03h.21v1.35Z"/><path class="cls-5" d="m20.14,181.18s.02.08.05.18c.02.09.05.21.08.35s.06.29.09.45c.03.17.06.33.09.5.03.17.05.33.06.49.02.16.02.3.02.42,0,.37-.06.7-.18.97s-.28.5-.48.68-.42.31-.67.4c-.25.09-.5.13-.75.13h-2.34v-1.35h2.38s.11,0,.19-.02.16-.05.24-.1c.08-.05.15-.14.21-.25.06-.11.09-.26.09-.45,0-.08,0-.18-.02-.29s-.03-.24-.05-.37c-.02-.13-.05-.26-.07-.4-.03-.14-.05-.26-.08-.39s-.05-.23-.08-.33c-.03-.1-.05-.18-.06-.23l1.28-.39Zm-2.91,7.53l-.91-.92.9-.93.93.93-.92.92Zm2.28,0l-.91-.92.9-.93.93.93-.92.92Z"/><path class="cls-5" d="m23.28,185.74h-1.35v-7.83h1.35v7.83Z"/><path class="cls-5" d="m32.1,185.41c-.02.5-.11.95-.28,1.35-.16.4-.39.74-.67,1.02-.29.28-.63.5-1.04.65-.41.15-.86.23-1.37.23h-.67v-1.35h.67c.35,0,.65-.04.9-.11.25-.07.46-.19.62-.35.16-.16.28-.37.36-.62.08-.25.12-.57.12-.93v-3.31h1.35v3.42Z"/><path class="cls-5" d="m35.27,185.75c-.14,0-.27,0-.41-.02s-.27-.04-.41-.06c-.14-.03-.28-.06-.42-.1-.15-.04-.3-.08-.46-.13l-.65-.2.39-1.3c.31.11.64.2.98.29.34.08.66.14.96.16.1,0,.19.01.28.01.18,0,.36-.02.55-.06.18-.04.31-.14.39-.3.01-.03.02-.06.02-.1,0-.03,0-.07-.02-.12-.01-.05-.05-.12-.11-.21l-2.03-2.96,1.14-.74.37.57s0,.01.02.03c.01.02.04.06.08.11s.09.14.16.25c.07.11.16.25.28.42.12.17.26.39.43.64.17.25.37.56.61.92.19.28.3.57.34.86.01.08.02.15.02.22,0,.22-.04.43-.13.62-.06.14-.14.28-.25.4-.1.12-.22.23-.36.32-.26.18-.57.3-.93.36-.3.05-.58.08-.84.08Z"/><path class="cls-5" d="m51.71,185.74h-1.45c.08.12.15.25.21.39.05.14.08.27.08.39,0,.34-.09.64-.28.92s-.43.51-.75.7c-.31.19-.68.34-1.1.45-.42.11-.86.16-1.33.16h-1.39c-.3,0-.58-.04-.85-.1-.27-.07-.53-.17-.77-.3-.24-.13-.46-.29-.66-.47s-.38-.39-.53-.62c-.36-.58-.54-1.26-.54-2.04,0-.24.01-.48.04-.71.03-.24.07-.48.14-.73s.15-.51.25-.78c.1-.27.23-.56.38-.88l1.21.58c-.13.27-.23.51-.32.73-.08.22-.15.43-.2.63-.05.2-.09.39-.11.57-.02.18-.03.37-.03.55,0,.53.12.97.35,1.34.17.27.39.49.68.63.29.15.61.22.96.22h1.39c.27,0,.53-.03.77-.08s.46-.12.64-.21c.19-.09.34-.19.45-.31.12-.12.18-.25.2-.38-.1-.11-.24-.21-.4-.29s-.34-.14-.55-.2c-.2-.05-.43-.09-.66-.12-.24-.03-.48-.05-.74-.06l.04-1.35h4.87v1.35Z"/><path class="cls-5" d="m54.51,181.06c.38,0,.71.07,1,.21.28.14.52.33.71.57.19.24.33.51.42.82.09.31.14.64.14.98,0,.38-.03.7-.1.96-.07.26-.15.48-.26.66s-.23.31-.36.41-.27.17-.41.22c-.14.05-.27.08-.39.09-.13.01-.24.02-.33.02-.18,0-.35-.02-.52-.05-.16-.04-.33-.08-.5-.15-.17-.06-.34-.14-.52-.23-.18-.09-.38-.2-.59-.31-.16.17-.34.3-.52.37s-.4.11-.65.11h-.67v-1.35s.67,0,.67,0c.08,0,.15-.02.21-.07.06-.05.11-.11.16-.2.05-.08.09-.19.14-.31.04-.12.08-.26.13-.41.07-.26.16-.53.26-.81s.24-.53.4-.76c.17-.23.38-.42.64-.56.26-.15.58-.22.96-.22Zm.47,3.66s.08,0,.15-.02c.07-.01.14-.05.21-.12.07-.07.14-.17.19-.3s.08-.33.08-.57c0-.09-.02-.21-.05-.36-.03-.15-.09-.29-.18-.43-.08-.14-.2-.26-.34-.36s-.32-.15-.54-.15c-.19,0-.34.06-.46.17s-.22.25-.3.42c-.08.17-.15.35-.21.54-.06.19-.12.37-.18.53.13.08.28.15.43.23.15.08.3.15.44.21.15.06.28.11.41.15.13.04.24.06.34.06Z"/><path class="cls-5" d="m58.49,187.3c.29,0,.55,0,.77-.03.23-.02.43-.05.6-.09s.33-.09.46-.15c.13-.06.25-.13.34-.21.15-.12.27-.27.35-.43.08-.16.12-.38.14-.66h-.84c-.18,0-.37-.01-.55-.04s-.37-.08-.54-.15-.34-.16-.49-.27-.29-.25-.4-.42c-.11-.16-.2-.36-.27-.58-.07-.22-.1-.48-.1-.77,0-.25.02-.47.06-.67.04-.19.1-.37.17-.51.07-.15.14-.28.23-.39.08-.11.16-.21.24-.29.22-.22.46-.38.74-.5.28-.12.57-.18.89-.18.4,0,.73.07,1.01.2.28.14.51.32.69.56.18.24.31.52.39.85.08.33.12.68.12,1.07v.74h.92v1.35h-.93c-.01.5-.1.92-.26,1.26-.16.34-.4.64-.72.89-.17.13-.35.24-.54.34-.2.1-.41.18-.66.24-.24.07-.51.11-.81.14-.3.03-.64.05-1.01.05v-1.35Zm1.79-4.99c-.31,0-.55.1-.73.29-.18.19-.27.49-.27.9,0,.16.03.3.09.41.06.11.15.2.24.27.1.07.21.12.33.16s.25.05.37.05h.84v-.74c0-.21-.02-.38-.05-.53-.03-.15-.08-.27-.13-.37-.05-.1-.11-.17-.18-.23-.07-.06-.13-.1-.2-.13-.06-.03-.12-.05-.18-.06-.06,0-.1-.01-.14-.01Z"/><path class="cls-5" d="m67.19,181.18s.02.08.05.18c.02.09.05.21.08.35s.06.29.09.45c.03.17.06.33.09.5.03.17.05.33.06.49.02.16.02.3.02.42,0,.37-.06.7-.18.97s-.28.5-.48.68-.42.31-.67.4c-.25.09-.5.13-.75.13h-2.34v-1.35h2.38s.11,0,.19-.02.16-.05.24-.1c.08-.05.15-.14.21-.25.06-.11.09-.26.09-.45,0-.08,0-.18-.02-.29s-.03-.24-.05-.37c-.02-.13-.05-.26-.07-.4-.03-.14-.05-.26-.08-.39s-.05-.23-.08-.33c-.03-.1-.05-.18-.06-.23l1.28-.39Zm-3.32-.09v-.81l.67-.22c-.11-.11-.2-.24-.27-.38-.07-.14-.11-.29-.11-.45,0-.12.02-.24.07-.36.04-.12.1-.23.18-.33s.17-.19.27-.27c.1-.08.21-.13.33-.16.06-.02.12-.03.19-.04.06,0,.13-.01.19-.01.13,0,.25.02.34.05.1.03.19.06.28.09l.09.04-.16.67c-.05-.01-.11-.03-.17-.04-.06-.02-.12-.03-.18-.04-.06-.01-.12-.02-.18-.02-.06,0-.11,0-.16.02-.05.02-.1.04-.15.08-.05.03-.09.07-.12.11-.03.04-.05.09-.06.14,0,.02-.01.04-.01.07,0,.04,0,.07.02.11.03.09.1.17.2.24s.26.1.45.1c.04,0,.08,0,.12,0,.04,0,.1-.01.17-.03s.16-.04.26-.07c.11-.03.24-.07.41-.13l.04.77-2.7.89Z"/><path class="cls-5" d="m71.63,185.74c-.4,0-.74-.02-1.03-.07s-.53-.12-.72-.22c-.2-.1-.35-.22-.47-.37s-.21-.32-.27-.52-.1-.42-.12-.68c-.02-.25-.03-.53-.03-.83v-5.15h1.35v5.15c0,.29.01.52.03.7.02.17.07.31.16.4s.21.16.39.19c.17.03.41.05.71.05v1.35Z"/><path class="cls-5" d="m77.25,184.39v1.35h-.8c-.31,0-.59-.04-.84-.12-.25-.08-.47-.21-.64-.37-.2.17-.44.3-.72.38-.28.08-.59.12-.95.12h-1.88v-1.35h1.88c.22,0,.4-.02.53-.06.13-.04.23-.09.3-.15.07-.06.11-.13.13-.21.02-.08.03-.15.03-.22v-1.76h1.35v1.72c0,.16.04.29.11.38.07.09.15.16.25.21.09.04.18.07.27.08.09,0,.15.01.19.01h.8Zm-4.45,4.35l-.91-.92.9-.93.93.93-.92.92Zm2.28,0l-.91-.92.9-.93.93.93-.92.92Z"/><path class="cls-5" d="m81.24,185.73c-.66,0-1.19-.17-1.58-.52-.2.18-.42.32-.66.4-.24.08-.49.12-.75.12h-1.22v-1.35h1.22s.11,0,.19-.02.16-.05.24-.11c.08-.06.15-.14.21-.25.06-.11.09-.26.09-.46v-1.56h1.35v1.54c0,.3.07.51.21.65.14.14.37.2.69.2.04,0,.11,0,.19-.03.08-.02.16-.05.24-.11.08-.06.15-.14.21-.26.06-.11.09-.27.09-.46v-1.54h1.35v1.54c0,.3.07.52.21.65.14.14.38.21.7.21.05,0,.11-.01.19-.03s.16-.06.24-.12c.08-.06.15-.15.21-.26.06-.11.09-.26.09-.46,0-.08,0-.18-.02-.29s-.03-.23-.05-.36c-.02-.12-.04-.25-.07-.38-.03-.13-.05-.25-.08-.37-.03-.12-.05-.22-.07-.32-.02-.09-.04-.17-.06-.22l1.28-.42s.02.08.04.17c.02.09.05.2.08.34.03.13.06.28.1.45s.06.33.09.49c.03.17.05.33.07.48.02.16.03.3.03.42,0,.37-.06.69-.18.97-.12.28-.28.51-.48.69-.2.18-.42.32-.66.41-.25.09-.49.14-.74.14-.67,0-1.21-.18-1.6-.53-.2.18-.42.32-.66.4-.24.08-.49.12-.74.12Zm1.23-6.14l-.92.93-.92-.92.92-.93.92.92Zm1.13-1.55l-.87.87-.86-.86.87-.87.86.86Zm1.2,1.53l-.91.92-.95-.91.93-.93.93.92Z"/><path class="cls-5" d="m97.19,185.74h-.44c-.48,0-.94-.21-1.38-.64-.12.14-.26.26-.43.35-.17.09-.34.17-.53.22-.19.05-.38.09-.57.11-.19.02-.38.03-.56.03-.14,0-.28,0-.42-.02-.14-.02-.3-.04-.48-.08-.18-.04-.39-.09-.62-.15-.23-.06-.51-.14-.83-.24l.39-1.3c.22.09.45.16.68.23.24.07.47.12.69.16.22.04.44.07.65.08.08,0,.16.01.24.01.11,0,.23,0,.36-.03.13-.02.25-.06.37-.12s.19-.14.23-.24c.02-.04.03-.08.03-.12,0-.03-.01-.07-.03-.12-.02-.05-.05-.1-.09-.17-.04-.07-.1-.15-.17-.26l-1.93-2.71,1.14-.73,1.94,2.94c.1.16.22.32.33.49.12.17.23.33.35.46.12.14.23.25.34.34.11.09.21.14.3.14h.44v1.36Z"/><path class="cls-5" d="m100.12,181.18s.02.08.05.18c.02.09.05.21.08.35.03.14.06.29.09.45.03.17.06.33.09.5.03.17.05.33.07.49.02.16.02.3.02.42,0,.37-.06.7-.18.97s-.28.5-.48.68-.42.31-.67.4-.5.13-.75.13h-1.45v-1.35h1.48s.11,0,.19-.02c.08-.01.16-.05.24-.1.08-.05.15-.14.21-.25.06-.11.09-.26.09-.45,0-.08,0-.18-.02-.29s-.03-.24-.05-.37c-.02-.13-.05-.26-.07-.4s-.05-.26-.08-.39-.05-.23-.08-.33-.04-.18-.06-.23l1.28-.39Zm-2.04-2.18l.98-.99,1,1-.99.99-.99-1Z"/><path class="cls-5" d="m104.79,185.74h-.21c-.15,0-.29,0-.42-.03-.13-.02-.26-.07-.39-.15-.04.47-.15.89-.32,1.27-.17.38-.4.71-.68.97-.28.27-.62.48-1.02.63-.4.15-.84.22-1.33.22h-.68v-1.35h.68c.35,0,.65-.04.9-.11.25-.07.46-.19.62-.35.16-.16.28-.37.36-.62.08-.25.12-.57.12-.93v-3.31h1.35v1.62c0,.17.04.3.11.4s.15.18.24.24c.09.06.18.09.27.11.09.02.15.03.18.03h.21v1.35Z"/><path class="cls-5" d="m107.72,181.18s.02.08.05.18c.02.09.05.21.08.35.03.14.06.29.09.45.03.17.06.33.09.5.03.17.05.33.07.49.02.16.02.3.02.42,0,.37-.06.7-.18.97s-.28.5-.48.68-.42.31-.67.4-.5.13-.75.13h-1.45v-1.35h1.48s.11,0,.19-.02c.08-.01.16-.05.24-.1.08-.05.15-.14.21-.25.06-.11.09-.26.09-.45,0-.08,0-.18-.02-.29s-.03-.24-.05-.37c-.02-.13-.05-.26-.07-.4s-.05-.26-.08-.39-.05-.23-.08-.33-.04-.18-.06-.23l1.28-.39Zm-2.38,6.46l.98-.99,1,1-.99.99-.99-1Z"/><path class="cls-5" d="m114.98,185.74c-.35,0-.67-.05-.96-.15-.29-.1-.54-.24-.75-.42-.21-.18-.37-.4-.49-.65-.12-.25-.18-.53-.18-.84s.04-.58.11-.82c.08-.24.18-.46.31-.67.13-.21.28-.41.45-.6.17-.19.35-.39.55-.59l-.34-.39,1-.91s.09.1.14.16c.05.06.11.12.17.18.06.06.11.12.17.18s.1.11.15.16c.26.28.52.55.76.81s.47.53.66.79c.19.26.35.53.47.79.11.26.17.53.17.8v.03c0,.32-.07.6-.19.86s-.3.48-.54.7c-.22.18-.46.33-.74.43-.28.11-.58.16-.91.16Zm-.07-3.92c-.15.16-.28.32-.41.46-.13.14-.24.29-.33.43-.09.14-.16.29-.21.45-.04.13-.07.26-.07.41,0,.03,0,.06,0,.09.01.13.05.25.12.34.07.1.15.18.26.24s.21.11.34.14c.12.03.24.04.36.04.14,0,.27-.02.4-.06s.24-.1.33-.17c.1-.07.17-.16.23-.27.06-.11.09-.22.09-.35,0-.16-.03-.31-.09-.46-.06-.15-.14-.29-.25-.44-.1-.15-.22-.29-.36-.43-.13-.15-.27-.29-.42-.44Z"/><path class="cls-5" d="m124.38,185.74h-.44c-.48,0-.94-.21-1.38-.64-.12.14-.26.26-.43.35-.17.09-.34.17-.53.22-.19.05-.38.09-.57.11-.19.02-.38.03-.56.03-.14,0-.28,0-.42-.02-.14-.02-.3-.04-.48-.08-.18-.04-.38-.09-.62-.15-.23-.06-.51-.14-.83-.24l.39-1.3c.22.09.45.16.68.23.24.07.47.12.69.16.22.04.44.07.65.08.08,0,.16.01.24.01.11,0,.23,0,.36-.03.13-.02.25-.06.37-.12s.19-.14.23-.24c.02-.04.03-.08.03-.12,0-.03,0-.07-.03-.12-.02-.05-.05-.1-.1-.17-.04-.07-.1-.15-.17-.26l-1.93-2.71,1.14-.73,1.94,2.94c.11.16.22.32.33.49.12.17.23.33.35.46s.23.25.34.34c.11.09.21.14.3.14h.44v1.36Z"/><path class="cls-5" d="m128.62,184.39v1.35h-.34c-.31,0-.59-.04-.84-.12-.25-.08-.47-.21-.64-.37-.2.17-.44.3-.72.38-.28.08-.59.12-.95.12h-.96v-1.35h.96c.22,0,.4-.02.53-.06.13-.04.23-.09.3-.15.07-.06.11-.13.13-.21s.03-.15.03-.22v-1.76h1.35v1.72c0,.16.04.29.11.38.07.09.15.16.25.21.09.04.18.07.27.08s.15.01.18.01h.34Zm-3.13-4.91l.98-.99,1,1-.99.99-.99-1Z"/><path class="cls-5" d="m132.87,184.39v1.35h-.34c-.31,0-.59-.04-.84-.12-.25-.08-.47-.21-.64-.37-.2.17-.44.3-.72.38-.28.08-.59.12-.95.12h-.96v-1.35h.96c.22,0,.4-.02.53-.06.13-.04.23-.09.3-.15.07-.06.11-.13.13-.21s.03-.15.03-.22v-1.76h1.35v1.72c0,.16.04.29.11.38.07.09.15.16.25.21.09.04.18.07.27.08s.15.01.18.01h.34Zm-3.13-4.91l.98-.99,1,1-.99.99-.99-1Z"/><path class="cls-5" d="m132.66,185.74v-1.35h3.18c.06,0,.14,0,.24,0,.1,0,.2-.02.3-.04s.18-.06.25-.1c.07-.05.11-.11.11-.19,0-.16-.06-.34-.18-.57-.12-.22-.27-.46-.45-.71s-.39-.5-.62-.76c-.23-.25-.46-.5-.68-.72-.23-.23-.44-.43-.64-.6s-.36-.3-.48-.39l.11-1.23,4.73-2.16.5,1.18-3.98,1.75c.14.13.29.29.46.46.17.17.35.35.53.54.18.19.36.39.54.59.18.2.35.41.5.61.16.21.3.41.42.6.12.2.22.38.29.55.06.15.11.3.13.44.03.14.04.27.04.39,0,.15-.01.27-.04.38s-.06.2-.09.28c-.04.1-.11.21-.2.33-.09.12-.22.24-.38.34-.16.1-.36.19-.61.27-.25.07-.54.11-.89.11h-3.09Z"/><path class="cls-5" d="m145.59,185.75c-.14,0-.27,0-.41-.02s-.27-.04-.41-.06c-.14-.03-.28-.06-.42-.1-.15-.04-.3-.08-.46-.13l-.65-.2.39-1.3c.32.11.64.2.98.29.34.08.66.14.96.16.1,0,.19.01.28.01.18,0,.36-.02.55-.06.18-.04.31-.14.39-.3.01-.03.02-.06.02-.1,0-.03,0-.07-.02-.12-.01-.05-.05-.12-.11-.21l-2.03-2.96,1.14-.74.37.57s0,.01.02.03c.01.02.04.06.08.11s.09.14.16.25c.07.11.16.25.28.42.12.17.26.39.43.64.17.25.37.56.61.92.18.28.3.57.34.86.01.08.02.15.02.22,0,.22-.04.43-.13.62-.06.14-.14.28-.25.4s-.22.23-.36.32c-.26.18-.57.3-.93.36-.3.05-.58.08-.84.08Z"/><path class="cls-5" d="m151.46,185.41c-.02.5-.11.95-.28,1.35-.16.4-.39.74-.67,1.02-.29.28-.63.5-1.04.65-.41.15-.86.23-1.38.23h-.67v-1.35h.67c.35,0,.65-.04.9-.11.25-.07.46-.19.62-.35.16-.16.28-.37.36-.62.08-.25.12-.57.12-.93v-3.31h1.35v3.42Z"/><path class="cls-5" d="m154.19,185.74h-1.35v-7.83h1.35v7.83Z"/><path class="cls-5" d="m156.39,187.3c.29,0,.55,0,.77-.03.23-.02.43-.05.6-.09s.33-.09.46-.15c.13-.06.25-.13.35-.21.15-.12.27-.27.34-.43s.12-.38.14-.66h-.84c-.18,0-.37-.01-.55-.04-.19-.03-.37-.08-.54-.15s-.34-.16-.49-.27c-.15-.11-.29-.25-.4-.42-.11-.16-.21-.36-.27-.58-.07-.22-.1-.48-.1-.77,0-.25.02-.47.07-.67.04-.19.1-.37.17-.51.07-.15.14-.28.23-.39s.16-.21.24-.29c.22-.22.46-.38.74-.5.27-.12.57-.18.89-.18.39,0,.73.07,1.01.2.28.14.51.32.69.56.18.24.31.52.39.85.08.33.12.68.12,1.07v1.93c0,.54-.08.99-.25,1.36-.16.37-.41.68-.74.95-.17.13-.35.24-.54.34-.2.1-.42.18-.66.24-.24.07-.51.11-.81.14-.3.03-.64.05-1.01.05v-1.35Zm1.79-4.99c-.31,0-.55.1-.73.29-.18.19-.27.49-.27.9,0,.16.03.3.09.41.06.11.14.2.25.27.1.07.21.12.33.16s.25.05.37.05h.84v-.74c0-.21-.02-.38-.05-.53-.03-.15-.08-.27-.13-.37-.05-.1-.11-.17-.18-.23-.07-.06-.13-.1-.2-.13-.06-.03-.12-.05-.18-.06-.06,0-.11-.01-.14-.01Z"/><path class="cls-5" d="m168.57,188.66c-.29,0-.57-.04-.84-.1-.27-.07-.52-.17-.76-.29-.24-.13-.46-.28-.66-.47-.2-.18-.38-.39-.52-.62-.17-.28-.31-.6-.4-.94-.09-.35-.14-.71-.14-1.08,0-.24.01-.47.04-.7.03-.22.08-.46.14-.69.06-.24.15-.48.25-.74.1-.26.23-.54.38-.85l1.22.58c-.13.26-.24.5-.33.71s-.16.41-.21.59c-.05.19-.09.37-.12.54-.02.17-.04.35-.04.54,0,.25.03.48.09.71.06.23.15.43.26.61.17.26.4.46.69.62s.6.23.94.23h1.1c.38,0,.7-.04.94-.12.24-.08.43-.19.56-.34.13-.15.23-.32.27-.53.05-.21.07-.43.07-.68v-3.66h1.35v1.7c0,.24.09.42.24.54.15.12.34.18.58.18h.43v1.35h-.43c-.14,0-.28-.01-.42-.04-.14-.03-.28-.06-.4-.11v.04c0,1.01-.27,1.77-.8,2.27-.54.5-1.33.76-2.4.76h-1.1Zm-.11-7.08l.98-.99,1,1-.99.99-.99-1Z"/><path class="cls-5" d="m179.75,184.39v1.35h-.8c-.31,0-.59-.04-.84-.12-.25-.08-.47-.21-.64-.37-.2.17-.44.3-.72.38-.28.08-.59.12-.95.12h-1.88v-1.35h1.88c.22,0,.4-.02.53-.06.13-.04.23-.09.3-.15.07-.06.11-.13.13-.21.02-.08.03-.15.03-.22v-1.76h1.35v1.72c0,.16.04.29.11.38.07.09.16.16.25.21.09.04.18.07.27.08.09,0,.15.01.18.01h.8Zm-4.45,4.35l-.91-.92.9-.93.93.93-.92.92Zm2.28,0l-.91-.92.9-.93.93.93-.92.92Z"/><path class="cls-5" d="m179.53,184.39c.36,0,.65-.02.85-.07.21-.04.35-.11.43-.19.06-.05.1-.13.13-.24.03-.11.04-.25.04-.43v-5.56h1.35v5.56c0,.13,0,.27-.02.41-.01.14-.04.28-.08.43s-.1.29-.17.43-.18.27-.3.39c-.11.11-.24.2-.38.27s-.3.14-.48.19c-.18.05-.38.09-.61.11-.22.02-.48.04-.75.04v-1.35Z"/><path class="cls-5" d="m184.61,187.3c.29,0,.55,0,.77-.03.23-.02.43-.05.6-.09s.33-.09.46-.15c.13-.06.25-.13.35-.21.15-.12.27-.27.34-.43s.12-.38.14-.66h-.84c-.18,0-.37-.01-.55-.04-.19-.03-.37-.08-.54-.15s-.34-.16-.49-.27c-.15-.11-.29-.25-.4-.42-.11-.16-.21-.36-.27-.58-.07-.22-.1-.48-.1-.77,0-.25.02-.47.07-.67.04-.19.1-.37.17-.51.07-.15.14-.28.23-.39s.16-.21.24-.29c.22-.22.46-.38.74-.5.27-.12.57-.18.89-.18.39,0,.73.07,1.01.2.28.14.51.32.69.56.18.24.31.52.39.85.08.33.12.68.12,1.07v1.93c0,.54-.08.99-.25,1.36-.16.37-.41.68-.74.95-.17.13-.35.24-.54.34-.2.1-.42.18-.66.24-.24.07-.51.11-.81.14-.3.03-.64.05-1.01.05v-1.35Zm1.79-4.99c-.31,0-.55.1-.73.29-.18.19-.27.49-.27.9,0,.16.03.3.09.41.06.11.14.2.25.27.1.07.21.12.33.16s.25.05.37.05h.84v-.74c0-.21-.02-.38-.05-.53-.03-.15-.08-.27-.13-.37-.05-.1-.11-.17-.18-.23-.07-.06-.13-.1-.2-.13-.06-.03-.12-.05-.18-.06-.06,0-.11-.01-.14-.01Z"/><path class="cls-5" d="m191.56,185.74h-1.35v-7.83h1.35v7.83Z"/><path class="cls-2" d="m40.94,147.61c.45.72.79,1.53,1.02,2.44.19.77.29,1.51.29,2.21,0,2.33-.58,4.07-1.75,5.23-.44.45-.96.79-1.55,1.03-.48.19-.96.3-1.45.33-.1,0-.23.01-.4.01-1.2,0-2.47-.3-3.82-.89-.46-.19-.95-.43-1.48-.73l-.31-.17-.29-.16c-.22-.14-.38-.23-.47-.27-.79.79-2.09,1.18-3.92,1.18h-.78v-4.71h.59c.97,0,1.61-.2,1.91-.6.13-.18.4-.9.8-2.15.03-.09.06-.17.09-.24.03-.11.07-.21.12-.32.1-.27.21-.53.33-.77.33-.7.71-1.32,1.15-1.85,1.27-1.56,2.89-2.34,4.85-2.34,2.22,0,3.92.93,5.09,2.79Zm-3.25,6.09c.12-.35.19-.72.19-1.12,0-.11,0-.21-.01-.32-.05-.74-.26-1.37-.65-1.91-.39-.55-.85-.82-1.37-.82-.71,0-1.29.42-1.75,1.26-.16.29-.31.64-.45,1.06-.05.13-.1.3-.16.49l-.06.22-.06.19c.56.48,1.27.88,2.13,1.19.71.25,1.27.37,1.7.37.17,0,.34-.2.49-.62Z"/><path class="cls-2" d="m55.68,146.39c1.16,1.41,1.74,3.16,1.74,5.26v1.48h1.42v4.7h-1.47c-.24,2.98-1.69,5.11-4.37,6.39-1.04.5-2.25,1.02-3.66,1.08-1.25.05-4.76-.16-6.05-.16v-4.71c2.39,0,6.66.1,7.87-.57.98-.54,1.47-1.21,1.47-2.03h-2.01c-1.71,0-3.16-.46-4.35-1.38-1.44-1.11-2.16-2.71-2.16-4.8s.48-3.66,1.44-5.04c1.16-1.68,2.85-2.53,5.07-2.53s3.8.77,5.06,2.31Zm-2.97,6.74v-1.48c0-.88-.19-1.58-.56-2.1-.37-.51-.88-.76-1.52-.76s-1.17.25-1.55.76c-.36.47-.53,1.08-.53,1.83,0,.09,0,.18.01.27.03.51.26.89.69,1.15.36.22.82.33,1.38.33h2.08Z"/><path class="cls-2" d="m70.63,152.8c-.14.93-.49,1.78-1.05,2.55-1.2,1.65-3.15,2.47-5.84,2.47h-5.62v-4.71h5.52c.86,0,1.47-.12,1.83-.35l5.17.03Zm-11.79-7.27v-2.14l1.78-.57c-.29-.3-.53-.63-.71-1.01-.19-.37-.28-.77-.28-1.19,0-.33.06-.65.17-.96.12-.31.27-.61.48-.88.2-.27.44-.5.71-.7.27-.2.56-.34.87-.43.16-.05.33-.08.5-.11.17-.02.33-.03.5-.03.34,0,.65.04.91.12.26.08.51.16.74.25l.24.11-.43,1.78c-.13-.03-.28-.07-.44-.12-.16-.05-.33-.09-.49-.12-.16-.03-.32-.05-.48-.05-.16,0-.3.01-.42.05-.13.05-.26.12-.39.2s-.24.19-.32.29c-.09.11-.14.24-.17.38-.02.06-.03.12-.03.17,0,.1.02.19.06.29.07.25.26.46.54.63.28.17.68.26,1.18.26.1,0,.2,0,.31-.02.11,0,.26-.04.44-.08.18-.04.41-.1.7-.19.28-.08.65-.19,1.08-.34l.12,2.02-7.14,2.35Z"/><path class="cls-3" d="m119.86,152.77c-.02.07-.02.14-.05.21"/><path class="cls-2" d="m152.67,147.9v8.95c0,2.53-.63,4.52-1.88,5.96-.79.9-1.81,1.58-3.06,2.06-1.18.44-2.6.65-4.24.65h-2.53c-1.62,0-3.04-.23-4.24-.67-1.25-.46-2.27-1.14-3.06-2.04-1.23-1.46-1.85-3.43-1.85-5.96v-8.95h4.68v8.95c0,1.41.28,2.41.83,2.97.63.65,1.87,1.08,3.66,1.2l2.46.02c1.81-.12,3.07-.55,3.71-1.23.53-.56.81-1.55.81-2.97v-8.95h4.71Z"/><path class="cls-2" d="m159.53,157.82h-4.71v-20.71h4.71v20.71Z"/><path class="cls-2" d="m170.27,147.89v3.92c0,.41.21.74.63.99.34.21.67.32,1.02.32h.66v4.71h-.66c-.55,0-1.14-.09-1.77-.27-.28,2.11-.99,3.82-2.14,5.11-1.68,1.9-4.13,2.86-7.35,2.86h-1.42v-4.71h1.42c1.76,0,3.02-.4,3.76-1.19.76-.79,1.13-2.13,1.13-3.99v-7.74h4.71Z"/><path class="cls-2" d="m184.36,152.9c-.15.89-.49,1.7-1.03,2.45-1.2,1.65-3.15,2.47-5.84,2.47h-5.62v-4.71h5.52c.86,0,1.47-.12,1.83-.35l5.16.14Zm-11.79,12.28l.08-4,3.99-.02-.06,4.06-4.01-.05Zm5.57,0l.06-4,4-.02-.04,4.06-4.02-.04Zm-73.67-21.36l.08-4,3.99-.02-.06,4.06-4.01-.05Zm5.57,0l.06-4,4-.02-.04,4.06-4.02-.04Z"/><path class="cls-2" d="m191.69,157.82h-4.71v-20.71h4.71v20.71Z"/><path class="cls-2" d="m184.36,152.94h-5.24v-5.47h5.24v5.47Z"/><path class="cls-2" d="m70.63,152.89h-5.24v-5.81h5.24v5.81Z"/><path class="cls-2" d="m26.74,157.82h-3.45c.21.35.3.81.3,1.41,0,.23,0,.44-.02.67-.05.3-.09.6-.16.88-.21.81-.58,1.51-1.09,2.11-1.51,1.79-4.13,2.67-7.88,2.67h-3.97c-9.67.41-9.02-8.19-9.02-8.23v-8.02h4.75v7.98h0c0,.68-.07,1.66.2,2.12,1.09,1.8,2.32,1.64,4.06,1.64l3.96.03c1.99,0,4.14.08,4.93-.45.59-.31.38-1.8.28-2.04-.25-1.31-3.47-1.14-6.01-1.16v-4.31h13.12v4.71Z"/><polygon class="cls-2" points="140.2 157.28 140.27 153.28 144.27 153.27 144.21 157.33 140.2 157.28"/><polygon class="cls-2" points="107.48 138.5 107.55 134.5 111.55 134.48 111.49 138.55 107.48 138.5"/><path class="cls-2" d="m119.81,147.9l-.03,5.08c0,.07-.02.19-.02.24-.16.74-.43,1.36-.85,1.98-1.14,1.74-2.81,2.62-4.99,2.62-.97,0-1.9-.14-2.78-.44-.58-.23-1.11-.51-1.58-.86-1.14.86-2.46,1.3-3.92,1.3-1.55,0-2.9-.44-4.03-1.3-.79.86-2.16,1.3-4.13,1.3h-4.15c-.6,0-1.21-.07-1.76-.21-.44-.09-.86-.26-1.23-.44-.44-.21-.77-.42-1-.63-.21.21-.58.42-1.07.63-.95.44-2.11.65-3.43.65h-5.38c-1.07,0-2.02-.19-2.85-.56-.65-.28-1.21-.65-1.69-1.14-.46-.49-.86-1.04-1.14-1.67-.37-.86-.56-1.81-.56-2.88v-14.47h4.71v14.47c0,.58.09,1,.32,1.21.21.21.6.32,1.21.32h5.7c.7,0,1.18-.12,1.44-.35.26-.21.39-.51.39-.95v-3.92h4.68v3.92c0,.44.12.77.32.97.26.21.7.32,1.32.32h4.15c.7,0,1.16-.16,1.41-.46.23-.26.32-.67.32-1.25v-3.5h4.73v3.5c0,.67.16,1.14.49,1.41.21.21.58.3,1.07.3s.9-.09,1.16-.3c.37-.28.56-.74.56-1.41v-3.5h4.71v3.5c0,.58.12,1,.32,1.25.26.3.74.46,1.41.46,1.11,0,1.65-.37,1.65-1.14v-4.08h4.5Z"/><polygon class="cls-2" points="77.64 164.25 77.72 160.25 81.71 160.23 81.65 164.29 77.64 164.25"/><polygon class="cls-2" points="83.22 164.25 83.28 160.25 87.28 160.23 87.24 164.29 83.22 164.25"/></svg>