<?xml version="1.0" encoding="UTF-8"?><svg id="Layer_1" xmlns="http://www.w3.org/2000/svg" xmlns:xlink="http://www.w3.org/1999/xlink" viewBox="0 0 128 128"><defs><style>.cls-1{fill:none;}.cls-2{isolation:isolate;}.cls-3{fill:#020202;}.cls-4{fill:#ea3424;}.cls-5{clip-path:url(#clippath);}</style><clipPath id="clippath"><rect class="cls-1" x="236" y="24.68" width="79.77" height="80.95"/></clipPath></defs><path class="cls-3" d="M63.9,69.32c.06-.03.1-.08.11-.14.05-.24.1-.47.15-.71.11-.53.25-1.06.43-1.58.48-1.35,1.25-2.52,2.27-3.52.7-.69,1.51-1.19,2.41-1.58.61-.26,1.23-.47,1.86-.67.28-.09.56-.18.83-.27.04-.01.09-.03.08-.1-.17-.07-.35-.08-.52-.08-.67,0-1.35,0-2.02,0-.91.02-1.83.05-2.74.07-.24,0-.48,0-.72,0-.09,0-.18,0-.27,0-.13,0-.17-.05-.16-.19,0-.09.02-.18.05-.26.04-.15.08-.3.13-.44.26-.72.57-1.41.97-2.06.15-.24.31-.47.49-.68.12-.15.26-.28.41-.4.17-.14.37-.22.59-.24.38-.03.76-.08,1.14-.09,1.33-.03,2.67,0,4,.02.29,0,.58.03.88.04.42.02.83.1,1.24.17.75.14,1.49.33,2.2.6.63.24,1.23.54,1.79.92.55.38,1.03.83,1.41,1.37.46.65.75,1.37.88,2.16.12.76.09,1.52-.05,2.27-.19,1.01-.56,1.95-1.05,2.84-.57,1.04-1.28,1.98-2.1,2.84-1.12,1.16-2.39,2.12-3.83,2.85-.93.47-1.91.82-2.94,1.01-.56.11-1.13.17-1.7.17-.66,0-1.32-.08-1.96-.23-.2-.04-.39-.12-.56-.22-.11-.06-.22-.12-.34-.18-.12-.06-.25-.06-.37-.01-.07.03-.14.06-.21.1-.38.22-.8.32-1.22.39-.58.09-1.16.15-1.74.16-.28,0-.56.02-.84.03-.38.02-.76,0-1.14-.04-.33-.04-.65-.12-.95-.26-.71-.32-1.14-.87-1.33-1.62-.13-.5-.16-1-.12-1.51.04-.56.13-1.11.23-1.66.03-.14.05-.27.04-.42,0-.11-.15-.2-.25-.17-.04.01-.07.02-.1.04-.08.06-.16.12-.24.19-1.08,1.04-2.32,1.85-3.66,2.51-1.04.51-2.11.93-3.21,1.28-1.15.36-2.32.64-3.51.86-.74.14-1.48.25-2.22.35-.63.08-1.26.14-1.89.19-.71.06-1.42.07-2.13.1-.76.03-1.52.02-2.29-.01-.11,0-.23-.01-.34-.01-.62,0-1.24-.06-1.86-.11-.76-.07-1.52-.15-2.27-.27-.53-.08-1.05-.17-1.56-.32-1.14-.34-2.2-.84-3.18-1.52-.24-.17-.47-.35-.69-.53-.52-.44-.95-.95-1.24-1.58-.02-.05-.08-.05-.12-.01-.06.06-.12.13-.18.2-.22.23-.44.46-.67.68-.18.17-.39.33-.59.49-.31.24-.65.38-1.04.45-.49.09-.98.16-1.47.2-.52.04-1.04.01-1.55-.12-.1-.03-.2-.05-.29-.09-.69-.26-1.13-.75-1.32-1.46-.1-.37-.12-.75-.11-1.13.02-.65.13-1.29.3-1.91.1-.37.2-.73.31-1.1.02-.09.04-.17.03-.26,0-.03-.06-.06-.09-.04-.06.04-.13.08-.18.13-.21.19-.41.38-.61.57-.63.6-1.27,1.2-1.95,1.76-.5.41-1.03.79-1.59,1.11-.92.53-1.91.88-2.96,1.06-.55.09-1.11.14-1.67.14-.45,0-.78-.19-1.02-.55-.18-.27-.29-.56-.36-.87-.09-.38-.13-.78-.14-1.17-.02-.57.03-1.14.11-1.71.07-.52.18-1.02.33-1.52.08-.28.18-.56.3-.82.07-.14.14-.27.22-.4.06-.1.14-.18.24-.24.04-.02.09-.03.14-.04.03,0,.08.04.08.06,0,.13.02.25.02.38,0,.23,0,.46-.01.69,0,.18.02.35.06.53.13.62.54,1,1.21,1.09.32.04.64.03.95-.02.44-.07.87-.18,1.29-.32.24-.08.47-.19.69-.32.41-.23.79-.5,1.17-.78.88-.65,1.71-1.36,2.53-2.08,1.16-1.02,2.3-2.08,3.43-3.13.56-.52,1.12-1.03,1.69-1.54.14-.13.3-.24.45-.35.04-.03.11,0,.11.05,0,.04.01.08.01.11,0,.08,0,.15,0,.23-.02.6-.03,1.19-.09,1.79-.03.33-.07.66-.1.98,0,.05,0,.1-.02.15-.11.46-.04.4-.37.67-.17.15-.33.32-.47.49-.75.89-1.37,1.86-1.86,2.91-.16.33-.28.68-.37,1.04-.05.21-.06.43-.04.64,0,.13.05.25.13.35.44.56,1.01.88,1.74.85.28-.01.55-.08.81-.18.42-.16.8-.38,1.17-.63.46-.32.89-.68,1.29-1.07.4-.39.78-.8,1.17-1.2.2-.21.41-.42.61-.63.13-.14.29-.19.48-.16.15.02.26.11.31.25.06.16.07.32.05.49-.02.18-.04.35-.08.53-.16.74,0,1.41.38,2.04.19.32.44.59.72.83.37.31.78.56,1.22.77.54.26,1.1.45,1.68.6.69.18,1.39.31,2.09.4.64.09,1.29.14,1.93.19.44.03.89.04,1.33.06,1.37.05,2.74.02,4.11-.04.42-.02.83-.07,1.25-.11.27-.03.53-.07.79-.09.58-.06,1.16-.16,1.73-.27.79-.14,1.57-.31,2.34-.5,2.09-.52,4.11-1.2,6.05-2.14,1.16-.56,2.26-1.21,3.28-1.99.12-.09.24-.19.36-.28.07-.06.14-.12.2-.18.17-.18.27-.4.28-.65,0-.2.01-.41-.02-.61-.04-.28.06-.46.32-.57.16-.07.3-.19.47-.25.08-.03.19.03.21.11.03.18.05.35.08.53.02.18.04.35.06.53.06.66.12,1.32.11,1.98,0,.33-.04.66-.1.98-.03.14-.04.28-.06.41-.02.14-.03.28-.05.42-.03.25-.04.51-.03.76.02.54.24.98.67,1.31.05.04.1.08.16.11.31.21.87.46,1.28.57ZM73.04,69.13c.28,0,.56-.05.83-.09.61-.08,1.19-.24,1.75-.49.61-.27,1.16-.63,1.61-1.13.56-.61.9-1.32,1-2.14.1-.86-.08-1.67-.55-2.4-.6-.92-1.46-1.46-2.52-1.71-.01,0-.03,0-.04,0-.03,0-.07.04-.07.07,0,.06.01.13.02.19.11.56.17,1.13.17,1.7,0,.61-.07,1.21-.24,1.8-.18.63-.46,1.21-.82,1.75-.24.36-.51.7-.78,1.03-.2.25-.4.49-.6.74-.09.11-.16.23-.23.35-.03.04-.04.09-.05.14-.02.06.03.14.09.14.14,0,.28.01.42.02ZM72.55,65.36s0-.06,0-.1c-.03-.35-.2-.59-.54-.71-.12-.04-.24-.08-.37-.09-.39-.03-.79-.03-1.18.03-.52.07-1.02.19-1.52.36-.47.16-.92.35-1.36.59-.47.26-.87.61-1.24,1-.19.2-.26.43-.21.7.02.11.07.22.13.32.12.2.28.36.46.5.38.3.81.52,1.28.66.26.08.52.09.78-.02.09-.04.19-.06.29-.1.74-.3,1.46-.66,2.12-1.1.21-.14.41-.3.61-.46.35-.28.57-.65.67-1.08.04-.16.09-.32.08-.5Z"/><path class="cls-4" d="M91.52,60.97c-1.12.04-2.13.09-3.15.12-1.31.04-2.62.08-3.92.03-.27,0-.53-.03-.79-.08-.1-.02-.2-.05-.29-.08-.04-.01-.07-.03-.1-.05-.07-.04-.1-.13-.08-.2.02-.09.05-.17.08-.25.26-.78.58-1.54.96-2.28.15-.29.31-.58.51-.85.11-.14.22-.28.34-.41.14-.16.32-.23.54-.23.6,0,1.19,0,1.79-.02,1.38-.05,2.77-.04,4.15-.08,1.32-.03,2.64-.04,3.96-.02.91.01,1.83.04,2.74.06.52.02,1.04.04,1.56.08.66.04,1.32.09,1.97.16.73.08,1.46.16,2.19.27.89.14,1.77.31,2.64.54.74.2,1.46.44,2.14.77.51.24.98.53,1.42.89.49.41.87.89,1.12,1.47.17.41.27.84.28,1.29.02.67-.11,1.31-.35,1.93-.17.44-.38.86-.63,1.26-.76,1.22-1.74,2.24-2.93,3.06-.35.24-.7.45-1.09.61-.17.07-.31.18-.41.33-.09.12-.18.25-.26.37-.89,1.27-1.85,2.49-2.89,3.64-1.1,1.22-2.4,2.18-3.91,2.85-.78.34-1.59.6-2.42.8-.65.16-1.32.27-1.98.36-.57.08-1.13.13-1.7.19-.53.05-1.07.05-1.6.11-.05,0-.1,0-.15,0-.69.02-1.37.04-2.06.06-1.08.02-2.16.02-3.24-.03-.34-.01-.69-.01-1.03-.02-.3,0-.61-.03-.91-.04-.14,0-.28-.02-.42-.02-.48,0-.96-.05-1.44-.1-.24-.02-.48-.06-.71-.13-.06-.02-.12-.04-.18-.07-.16-.07-.23-.2-.21-.37,0-.11.02-.23.06-.34.07-.22.14-.43.23-.64.14-.33.29-.65.44-.97.22-.45.44-.89.66-1.33.06-.11.12-.23.19-.33.11-.17.27-.27.46-.31.2-.04.4-.07.6-.07.67,0,1.35,0,2.02.04.32.02.63.02.95.03.77.02,1.55.05,2.32.06,1.08.02,2.16.02,3.24-.03.63-.03,1.27-.03,1.9-.04.23,0,.46-.02.68-.03.13,0,.25-.02.38-.03,1.56-.07,3.07-.39,4.53-.94.75-.28,1.48-.6,2.2-.94.1-.05.2-.1.3-.16.02-.01.03-.04.04-.06.01-.03-.03-.05-.08-.04-.08,0-.15,0-.23.02-.66.11-1.32.23-1.99.34-.54.09-1.08.18-1.62.26-.59.09-1.18.19-1.77.27-.3.04-.6.07-.91.1-.38.04-.76.08-1.14.11-.06,0-.13.01-.19.02-.94.04-1.88.1-2.82.07-.48-.01-.97-.03-1.45-.07-1.43-.14-2.84-.41-4.19-.9-.43-.15-.85-.33-1.25-.55-.29-.16-.57-.33-.83-.53-.16-.13-.31-.26-.46-.4-.24-.24-.26-.26-.24-.64,0-.11.03-.23.06-.34.09-.37.22-.73.37-1.08.51-1.2,1.14-2.35,1.83-3.46.31-.5.73-.87,1.24-1.15.49-.27,1.02-.46,1.56-.6.53-.14,1.06-.25,1.6-.32.46-.07.93-.12,1.4-.16.97-.08,1.95-.13,2.93-.13.95,0,1.91,0,2.86.01.81.01,1.63.04,2.44.08.63.03,1.27.08,1.9.14.91.09,1.81.22,2.7.45.44.11.88.25,1.29.44.23.11.46.22.66.37.12.09.24.18.35.29.44.4.65.9.66,1.49,0,.18-.02.35-.02.53,0,.09,0,.18.09.23.09.04.17,0,.25-.04.06-.04.13-.08.19-.13.16-.13.3-.27.43-.43.07-.08.1-.18.08-.28-.02-.1-.04-.2-.07-.3-.11-.35-.3-.64-.55-.9-.21-.22-.45-.41-.7-.59-.41-.28-.85-.5-1.31-.7-.76-.33-1.55-.56-2.35-.75-.63-.15-1.27-.27-1.91-.36-.31-.05-.63-.07-.95-.1-.48-.04-.96-.08-1.44-.12-.1,0-.2-.02-.3-.02-.99-.02-1.98-.08-2.97-.07-.57,0-1.14.02-1.71.03-.77.01-1.55.03-2.22.04ZM93.1,65.43c-.46,0-.99,0-1.53,0-.82.01-1.65.02-2.47.08-.53.04-1.06.09-1.59.17-.24.04-.47.09-.7.17-.12.04-.24.09-.33.18-.06.06-.09.13-.08.2,0,.08.03.15.08.21.08.1.19.17.3.23.21.12.43.21.66.29.63.21,1.27.35,1.92.46.41.07.83.13,1.24.18.47.05.93.11,1.4.13.1,0,.2.01.3.02.3.02.61.04.91.05,1.01.03,2.03.02,3.04,0,.65-.01,1.29-.07,1.94-.1.3-.01.61-.05.91-.08.3-.03.6-.08.9-.12.47-.05.93-.14,1.38-.25.27-.06.54-.14.79-.26.13-.06.25-.13.34-.24.09-.11.09-.26-.03-.33-.1-.06-.2-.11-.3-.15-.26-.11-.53-.17-.81-.22-.53-.1-1.07-.19-1.62-.25-.25-.02-.5-.06-.76-.08-.43-.04-.86-.1-1.29-.12-.62-.04-1.24-.1-1.86-.1-.06,0-.13,0-.19-.01-.25-.01-.51-.03-.76-.04-.58-.01-1.17-.02-1.82-.04Z"/><path class="cls-4" d="M59.52,51.03c2.51.01,5.29.03,8.07.05.94,0,1.88.03,2.82.04,1.03.01,2.06.02,3.09.03.43,0,.86.02,1.3.03.84.01,1.68.02,2.51.03.84.01,1.68.04,2.51.05.79.01,1.57.02,2.36.04,1.14.02,2.29.04,3.43.08.91.03,1.83.04,2.74.07,1.13.03,2.26.07,3.39.11.58.02,1.17.03,1.75.04.82.02,1.65.05,2.47.08.7.02,1.4.05,2.09.08.6.02,1.19.04,1.79.07.85.04,1.7.08,2.55.12.19,0,.38,0,.57.02.29.01.58.03.87.04.18,0,.36.01.53.02.38.02.76.04,1.14.06.03,0,.05,0,.08,0,.71.03,1.42.06,2.13.1.65.04,1.29.08,1.94.12.03,0,.05,0,.08,0,.57.03,1.14.06,1.71.1.51.03,1.01.08,1.52.12.06,0,.13.01.19.02.44.03.89.06,1.33.1.62.06,1.24.13,1.86.19.46.04.91.11,1.36.17.38.06.75.11,1.12.22.1.03.2.05.29.1.16.07.27.19.34.34.03.07.03.15,0,.22-.04.08-.1.15-.17.2-.13.1-.29.16-.44.22-.37.14-.75.22-1.14.29-.62.11-1.25.19-1.89.25-.62.06-1.24.1-1.86.15-.67.06-1.35.05-2.02.11-.08,0-.15,0-.23.01-1.54.04-3.07.09-4.61.11-2.54.04-5.08.05-7.62.03-2.11-.02-4.22-.03-6.32-.07-1.66-.03-3.33-.03-4.99-.09-1.17-.04-2.34-.04-3.5-.06-1.4-.03-2.79-.06-4.19-.09-.75-.02-1.5-.03-2.25-.05-.89-.02-1.78-.04-2.67-.06-.7-.01-1.4-.01-2.1-.03-1.79-.06-3.58-.05-5.37-.09-2.93-.06-5.87-.06-8.8-.01-2.3.03-4.6.03-6.9.07-4.17.07-8.33.07-12.5.08-2.6,0-5.21-.01-7.81-.03-1.35-.01-2.69-.05-4.04-.08-.79-.02-1.57-.05-2.36-.08-.53-.02-1.07-.04-1.6-.07-.66-.04-1.32-.08-1.98-.12-.52-.03-1.04-.06-1.56-.1-.44-.03-.88-.08-1.33-.12-.34-.03-.68-.06-1.02-.1-.38-.04-.76-.09-1.13-.13-.25-.03-.5-.06-.76-.1-1.17-.16-2.33-.37-3.47-.69-.44-.12-.87-.27-1.29-.46-.3-.13-.59-.29-.86-.49-.06-.05-.11-.1-.17-.15-.02-.02,0-.09.02-.1.2-.03.4-.07.6-.09.72-.05,1.44-.09,2.17-.14.09,0,.18-.01.27-.01,1.02-.04,2.03-.06,3.05-.11.77-.03,1.55-.04,2.32-.07,1.03-.04,2.06-.04,3.08-.08.95-.04,1.9-.03,2.86-.07,1.31-.05,2.62-.04,3.92-.09,1.33-.04,2.67-.03,4-.08,1.47-.05,2.95-.03,4.42-.07,1.78-.05,3.56-.04,5.33-.08,1.92-.05,3.84-.04,5.75-.07,3.64-.07,7.29-.06,11.2-.08Z"/><path class="cls-3" d="M47.01,65.21c-.25-.09-.46-.2-.67-.32-.79-.44-1.54-.94-2.23-1.53-.39-.33-.77-.66-1.16-.99-.1-.08-.2-.16-.3-.24-.07-.05-.14-.05-.22-.02-.12.05-.23.11-.32.2-.17.15-.34.3-.5.47-.53.58-1.01,1.21-1.43,1.88-.09.14-.17.28-.26.42-.06.08-.12.16-.18.24-.09.1-.21.1-.29,0-.05-.06-.09-.12-.12-.19-.06-.16-.08-.32-.05-.49.03-.16.06-.32.1-.48.26-.92.6-1.8,1-2.67.24-.51.54-.98.94-1.38.43-.43.86-.86,1.3-1.29.25-.25.51-.5.76-.75.16-.16.3-.34.45-.51.23-.26.53-.37.87-.41.05,0,.1,0,.15.02.12.03.21.08.27.19.04.08.1.15.14.22.57.9,1.27,1.68,2.11,2.33.66.51,1.34,1.01,2.01,1.51.07.05.14.1.21.16.1.09.16.2.16.33,0,.1,0,.2-.04.3-.06.2-.14.38-.24.56-.18.32-.4.62-.63.91-.36.44-.76.85-1.22,1.2-.18.14-.37.27-.62.32Z"/><path class="cls-3" d="M25.1,78.72c-.69-.02-1.29,0-1.88.05-.58.05-1.16.12-1.74.19-.26.03-.53.08-.79.09-.15,0-.3,0-.46-.02-.05,0-.1-.02-.15-.03-.21-.07-.31-.21-.3-.43.01-.33.04-.66.06-.99.02-.33.03-.66.05-.99.02-.3.04-.61.06-.91.02-.23.08-.45.16-.66.12-.36.36-.6.73-.72.29-.1.59-.15.89-.21.4-.07.8-.11,1.2-.18.45-.08.91-.09,1.37-.1.91,0,1.8.1,2.67.35.28.08.56.17.83.28.13.05.21.14.26.26.07.15.11.31.13.48.05.51.04,1.01-.04,1.52-.06.35-.13.7-.26,1.03-.06.15-.13.3-.21.45-.17.33-.45.5-.81.56-.35.06-.71.07-1.06.05-.27-.02-.53-.03-.7-.05Z"/></svg>