<?xml version="1.0" encoding="UTF-8"?><svg id="Layer_1" xmlns="http://www.w3.org/2000/svg" viewBox="0 0 128 128"><path d="M17.06,55.69v.86h5.53c5.44,0,5.51,0,5.17.49-.17.27-2.89,3.5-6,7.22-5.04,5.97-5.68,6.83-5.68,7.59v.86h14.69v-1.71h-5.88c-3.23,0-5.88-.07-5.88-.2,0-.1,2.64-3.31,5.88-7.15,5.36-6.37,5.88-7.05,5.88-7.91v-.91h-13.71v.86Z"/><path d="M34.44,63.77v8.94h1.96v-8.32h10.28v8.32h1.96v-17.87h-1.96v7.83h-10.28v-7.83h-1.96v8.94Z"/><path d="M52.56,63.77v8.94h12.24v-1.71h-10.28v-6.37l3.99-.05,3.97-.07v-1.71l-3.97-.07-3.99-.05v-6.12h10.04v-1.71h-12v8.94Z"/><path d="M67.74,63.77v8.94h1.96v-8.5c0-4.65.07-8.4.17-8.32.1.1,2.11,3.89,4.48,8.45l4.33,8.25,2.01.07,1.98.07v-17.9h-2.2l-.05,8.32-.07,8.32-4.46-8.27-4.46-8.25-1.84-.07-1.86-.07v8.96Z"/><path d="M86.35,55.69v.86h2.45v14.44h-2.45v1.71h6.86v-1.71h-2.45v-14.44h2.45v-1.71h-6.86v.86Z"/><path d="M97.61,63.77v8.94h1.96l.02-1.05c.02-.56,0-1.89-.02-2.96l-.05-1.93,1.42-1.42c.78-.81,1.52-1.44,1.59-1.44.1,0,1.76,1.98,3.7,4.41l3.5,4.41h1.2c.93,0,1.15-.07,1.05-.37-.1-.2-1.89-2.52-4.02-5.17l-3.84-4.8,3.92-3.77,3.89-3.75-1.47-.02h-1.47l-4.53,4.53c-2.5,2.5-4.6,4.53-4.7,4.53-.12,0-.2-2.03-.2-4.53v-4.53h-1.96v8.94Z"/></svg>