<svg width="128" height="128" viewBox="0 0 128 128" fill="none" xmlns="http://www.w3.org/2000/svg">
<rect width="128" height="128" fill="white"/>
<path d="M58.0081 36H58.2495C58.0107 36.3514 57.7103 36.684 57.6044 37.1051C57.5668 37.4632 57.6795 37.8159 57.7734 38.1579C58.2535 39.7124 58.6773 41.2842 59.1373 42.8467C59.3559 43.5575 59.4726 44.3193 59.8615 44.9644C60.1365 45.4003 60.7212 45.3359 61.1665 45.364C63.0951 45.3345 65.0237 45.3426 66.9523 45.3627C67.3399 45.3359 67.7986 45.3694 68.1017 45.0811C68.382 44.7659 68.4812 44.3407 68.6033 43.9491C69.0982 42.1412 69.6092 40.3387 70.147 38.5442C70.2704 38.0775 70.4179 37.596 70.3642 37.1078C70.2932 36.6759 70.0035 36.3259 69.7312 36H70.0987C70.3133 36.3098 70.544 36.6277 70.6285 37.0019C70.7089 37.4699 70.5574 37.9326 70.434 38.3779C69.9753 39.9068 69.5488 41.4438 69.1049 42.9768C68.901 43.6594 68.775 44.3769 68.4356 45.0086C68.1446 45.5317 67.4807 45.5759 66.9496 45.5827C65.0224 45.5773 63.0951 45.5719 61.1692 45.584C60.6582 45.5746 60.0372 45.5773 59.6939 45.1307C59.317 44.6049 59.2124 43.9464 59.0354 43.3375C58.5123 41.4599 57.9531 39.593 57.4166 37.7221C57.1873 37.0703 57.5722 36.4533 58.0081 36Z" fill="#FFE776"/>
<path d="M59.5367 47.1841C59.8573 46.6355 60.5681 46.4437 61.1676 46.4317C63.0948 46.4344 65.0234 46.4357 66.9507 46.4317C67.5529 46.4397 68.2637 46.6355 68.595 47.176C68.6687 47.7313 68.6218 48.2946 68.6205 48.8525C69.4855 49.2173 70.4029 49.4399 71.2706 49.7993C74.0361 50.9112 76.4837 52.7566 78.407 55.0232C80.3101 57.2053 81.5829 59.897 82.2668 62.6987C82.4908 63.6456 82.5753 64.6179 82.7269 65.5782C82.8436 66.2568 82.8757 66.9502 82.7711 67.6329C82.6209 67.3821 82.4841 67.1219 82.405 66.8402C82.0858 65.7713 81.8511 64.6756 81.442 63.6362C80.8398 62.1515 80.1009 60.7057 79.0722 59.4692C76.5736 55.9888 72.8062 53.4406 68.6312 52.4589C63.4046 51.1512 57.6175 52.2939 53.303 55.5302C52.3105 56.3617 51.2402 57.1302 50.4503 58.1696C49.8575 58.9622 49.1534 59.669 48.6357 60.5166C47.2731 62.6665 46.3919 65.1155 45.9949 67.6262C45.8555 67.3566 45.7012 67.0776 45.6945 66.7678C45.6342 65.8089 45.8488 64.8647 46.0003 63.9245C46.7326 59.0655 49.5973 54.6276 53.5792 51.7843C55.0532 50.8092 56.6103 49.9268 58.3055 49.397C58.7199 49.2696 59.1183 49.0925 59.5086 48.9008C59.5086 48.3294 59.4495 47.7514 59.5367 47.1841ZM59.8036 47.1291C59.577 47.7541 59.8412 48.4716 59.5823 49.0845C59.0915 49.5378 58.3699 49.5579 57.7744 49.8074C56.1436 50.4377 54.6026 51.3015 53.1957 52.3409C51.546 53.6767 50.0238 55.2069 48.8878 57.0095C47.7452 58.753 46.9284 60.703 46.4536 62.7322C46.1465 64.1029 45.8917 65.4977 45.9104 66.9073C46.0607 65.7928 46.4536 64.7333 46.8198 63.6764C47.4501 61.9423 48.3822 60.3155 49.5531 58.8898C51.5554 56.2651 54.3115 54.2493 57.36 53.0047C58.4276 52.5729 59.5501 52.3006 60.6673 52.0284C61.4492 51.8433 62.2579 51.8594 63.0533 51.7628C63.685 51.6864 64.326 51.63 64.9631 51.7078C66.1688 51.8621 67.4067 51.8352 68.5775 52.2094C74.3191 53.5157 79.2304 57.7873 81.501 63.1963C81.8323 63.9782 81.9919 64.8258 82.3755 65.5862C82.4157 65.1316 82.4077 64.6729 82.3393 64.2223C81.7344 60.4871 80.0593 56.8727 77.3501 54.1997C75.2834 52.0351 72.6694 50.3774 69.7913 49.5325C69.3353 49.3997 68.8994 49.2065 68.4729 49C68.4609 48.3884 68.4407 47.7755 68.4273 47.1639C67.9338 46.8823 67.3973 46.6436 66.8179 46.661C65.1616 46.6503 63.5039 46.6811 61.8462 46.653C61.1475 46.6503 60.3736 46.6664 59.8036 47.1291Z" fill="#FFE776"/>
<path d="M42.9543 57.0842C43.6745 56.2741 44.278 55.354 45.1122 54.6513C45.1404 55.2454 44.7917 55.7484 44.5234 56.2486C43.5739 58.0109 42.6901 59.8201 42.0691 61.7273C41.3355 63.9281 40.9854 66.2846 41.3073 68.5941C41.306 70.1351 41.4186 71.6734 41.6842 73.1916C41.7821 74.5301 42.0892 75.8431 42.4299 77.1387C43.4022 80.4983 45.0827 83.7305 47.6752 86.1258C49.5568 87.817 51.7 89.2239 54.0176 90.2446C54.6828 90.5423 55.3386 90.8722 56.0508 91.0493C56.0722 91.1109 56.1138 91.2317 56.1339 91.2933C55.7235 91.2866 55.3051 91.3135 54.9054 91.2062C53.516 90.832 52.1399 90.3934 50.8189 89.8194C48.9158 89.0228 47.1575 87.9123 45.5374 86.6408C44.9459 86.1674 44.4403 85.5974 43.8435 85.128C42.1187 83.7613 40.1338 82.7206 38.0241 82.0889C36.7245 81.7013 35.3981 81.3539 34.0342 81.3285C33.1825 81.2212 32.3188 81.1434 31.4631 81.2695C30.6638 81.3955 29.8511 81.2976 29.0504 81.4036C27.9667 81.5162 26.9045 81.7804 25.8664 82.1037C24.9276 82.4416 23.8668 82.9191 23.506 83.9317C22.9789 85.1508 23.6978 86.7709 25.0282 87.0606C25.7337 87.1612 26.4592 87.1505 27.166 87.0646C27.6649 86.9976 27.9909 86.5832 28.2792 86.213C27.7615 86.3324 27.2371 86.5335 26.6966 86.4437C25.8624 86.272 25.2374 85.3131 25.5593 84.4909C25.9174 83.5454 27.1258 83.0961 28.0378 83.4864C29.2086 83.8928 29.957 85.0891 30.0656 86.2868C30.122 86.8782 29.8189 87.4214 29.4608 87.868C29.7008 87.2189 29.9275 86.5148 29.7759 85.8174C29.611 85.0717 29.1831 84.3662 28.5394 83.9437C27.9573 83.5629 27.1942 83.4703 26.5424 83.7157C25.9107 83.9424 25.5352 84.7082 25.7538 85.3453C25.912 85.8563 26.4056 86.268 26.9488 86.2774C27.4329 86.2438 27.8755 86.0226 28.3261 85.8643C28.3489 86.1245 28.5139 86.449 28.2752 86.6596C27.8406 87.1035 27.1969 87.2323 26.6054 87.3101C25.8007 87.3906 24.929 87.3463 24.2262 86.9037C23.1197 86.1741 22.7978 84.5178 23.5529 83.4247C24.312 82.2901 25.7296 81.936 26.9662 81.5833C28.2591 81.1997 29.6204 81.2735 30.9495 81.1501C31.7488 81.0777 32.5535 81.0361 33.3528 81.1085C34.6954 81.2373 36.066 81.2641 37.3576 81.6906C39.7529 82.3397 42.0423 83.4314 43.9722 85.0019C44.51 85.4418 45.0022 85.934 45.5347 86.3833C47.3479 87.8989 49.4254 89.0818 51.6222 89.9468C52.6442 90.3371 53.6675 90.7824 54.7726 90.8655C53.8902 90.313 52.9044 89.9589 52.0018 89.4439C50.269 88.4715 48.6355 87.3061 47.2018 85.9287C44.0768 82.8413 42.3199 78.5898 41.6144 74.3048C41.4696 73.5041 41.2617 72.7101 41.2242 71.8947C41.1853 71.098 41.2295 70.3 41.1719 69.5034C41.0243 67.6673 40.9667 65.8071 41.2443 63.9818C41.6533 61.8078 42.5144 59.7491 43.4921 57.7762C43.8958 57.001 44.3102 56.2312 44.6468 55.4224C41.7499 58.6158 39.2634 62.4596 38.7417 66.8264C38.1073 66.53 37.5467 66.1062 36.9606 65.7293C35.9386 65.0789 34.6565 64.9971 33.4883 65.1875C31.9379 65.4906 30.8583 67.3562 31.5959 68.8167C32.1941 69.8574 33.7391 70.3926 34.7879 69.7126C35.3203 69.3827 35.327 68.6397 35.1125 68.1166C34.9944 67.7411 34.521 67.6928 34.1924 67.7639C33.8464 67.9288 33.6171 68.2655 33.2925 68.4559C32.8995 68.4693 32.5213 68.02 32.6675 67.6311C32.8606 67.0075 33.3689 66.4871 33.9738 66.2497C34.7021 66.0257 35.5148 66.1277 36.1921 66.4643C36.9995 66.8666 37.7827 67.434 38.1904 68.2615C38.5552 69.0098 38.5163 69.8655 38.5499 70.6756C38.5727 71.7579 38.7497 72.8268 38.849 73.9024C38.967 75.2986 39.4203 76.633 39.8884 77.9434C40.2169 78.8902 40.7668 79.7486 41.0002 80.7303C39.9447 80.6512 39.0314 80.0825 38.0308 79.8022C37.1135 79.53 36.18 79.3181 35.2439 79.1209C33.9577 78.8473 32.6367 78.9573 31.333 78.9439C30.1126 78.96 28.8733 78.8379 27.6703 79.1075C26.0958 79.4455 24.5615 79.9672 23.1197 80.6874C21.7021 81.3338 20.318 82.2566 18.71 82.2874C19.6528 81.9521 20.6345 81.7187 21.5291 81.2587C23.0205 80.509 24.5199 79.7486 26.1347 79.2966C27.0024 79.0632 27.8755 78.7843 28.7848 78.791C30.5283 78.7762 32.2719 78.7722 34.0154 78.795C34.9743 78.7883 35.8944 79.0807 36.8265 79.2698C38.1623 79.5554 39.4216 80.0933 40.6837 80.6002C40.6729 79.9994 40.3336 79.487 40.0936 78.9573C39.368 77.262 38.8302 75.485 38.5673 73.6583C38.1824 72.2032 38.5123 70.6863 38.2749 69.2164C37.9691 67.548 36.294 66.4603 34.6846 66.3449C33.9751 66.4254 33.2523 66.8331 32.972 67.5185C32.7466 67.7988 33.102 68.0308 33.263 68.232C33.495 67.9972 33.6948 67.7143 33.9926 67.556C34.3842 67.4755 34.863 67.4836 35.1581 67.7934C35.5054 68.2226 35.72 68.861 35.378 69.3572C34.8348 70.3698 33.4132 70.4301 32.4972 69.9245C31.5517 69.49 30.92 68.4291 31.1252 67.3857C31.4497 65.7883 33.0846 64.6805 34.6752 64.7597C35.4048 64.8763 36.1425 65.0266 36.8064 65.3632C37.4219 65.6596 37.9262 66.1303 38.4842 66.5139C38.7041 65.8621 38.7832 65.1754 38.967 64.5142C39.3492 63.0537 40.0225 61.6911 40.736 60.3687C41.3408 59.1885 42.1549 58.1356 42.9543 57.0842Z" fill="#FFE776"/>
<path d="M82.8422 54.8C83.3572 55.0348 83.7126 55.4827 84.0546 55.9159C85.7364 57.937 87.3029 60.0936 88.3061 62.5413C88.9163 63.8127 89.1618 65.2075 89.5024 66.5661C90.1985 66.1235 90.7739 65.4918 91.5584 65.1941C92.1968 64.95 92.8782 64.7971 93.5608 64.7475C94.3025 64.828 95.0616 65.0332 95.6624 65.4959C96.447 66.0846 96.962 67.0704 96.8561 68.0642C96.8212 68.9346 96.109 69.5878 95.3821 69.9633C94.8738 70.2517 94.2636 70.2718 93.7003 70.1833C93.1477 70.0156 92.6676 69.5931 92.453 69.0553C92.2652 68.3391 92.8674 67.4164 93.6627 67.5184C94.1603 67.5009 94.4272 67.9904 94.7893 68.2479C95.0924 68.1742 95.1595 67.745 95.0281 67.4996C94.741 66.896 94.1026 66.4307 93.424 66.432C92.0855 66.3502 90.7457 67.1066 90.0577 68.2439C89.6822 68.9869 89.6164 69.8466 89.6071 70.6661C89.6406 73.2679 89.1309 75.8685 88.1666 78.2826C87.9145 79.0725 87.3847 79.7605 87.2654 80.5934C88.1948 80.2957 89.0679 79.841 90.0148 79.5902C91.4793 79.1798 92.9747 78.7828 94.5077 78.7775C96.3303 78.5615 98.1718 78.6836 99.9917 78.8579C101.641 79.1423 103.235 79.6962 104.742 80.4164C105.816 80.9046 106.836 81.5295 107.97 81.8742C108.446 82.0204 108.927 82.1559 109.403 82.3061C108.795 82.2752 108.185 82.1988 107.618 81.9694C106.291 81.4611 105.065 80.7302 103.752 80.1897C102.615 79.6734 101.404 79.3568 100.188 79.094C99.0677 78.8512 97.9169 78.9545 96.781 78.9451C95.476 78.9612 94.155 78.8445 92.8674 79.1168C91.9688 79.3059 91.0662 79.4816 90.1838 79.7377C89.1269 80.0301 88.1519 80.576 87.0642 80.7678C87.1473 80.2474 87.2774 79.731 87.5188 79.2589C88.3946 77.4926 88.8962 75.5694 89.2329 73.6341C89.5266 71.9912 89.0853 70.2691 89.6473 68.6691C90.0121 67.5492 91.0153 66.7499 92.103 66.3824C92.7776 66.1571 93.5541 66.0793 94.2126 66.3998C94.7089 66.6426 95.1635 67.0838 95.2426 67.6525C95.3017 68.0199 95.0401 68.3257 94.8805 68.6315C94.4393 68.2587 94.0007 67.6002 93.3342 67.7624C92.6274 67.9797 92.4061 69.0379 92.9948 69.51C94.0141 70.5454 95.7818 69.8587 96.4403 68.7442C96.8762 67.8228 96.5744 66.6694 95.8596 65.9733C95.0535 65.1096 93.7741 64.8602 92.6502 65.0962C91.4082 65.284 90.4453 66.141 89.5024 66.8987C88.907 65.7976 88.8734 64.5155 88.404 63.3688C87.6784 61.5274 86.7383 59.7624 85.5446 58.1798C84.87 57.2919 84.2611 56.337 83.4108 55.6007C83.8186 56.5583 84.3711 57.4462 84.8083 58.3904C85.4374 59.7342 86.006 61.1116 86.4003 62.5453C86.6444 63.4533 86.9502 64.3599 86.9596 65.3094C86.9837 66.7002 86.9395 68.0924 86.9475 69.4832C86.981 70.9826 86.568 72.4391 86.4768 73.9291C86.1187 75.5734 85.8089 77.2378 85.2 78.8137C84.3376 81.1473 83.1466 83.4112 81.3991 85.2084C79.8916 86.8647 78.0797 88.2247 76.1498 89.3512C75.2069 89.9105 74.1581 90.2673 73.2287 90.852C74.3244 90.7742 75.3451 90.345 76.3603 89.9601C78.1132 89.2694 79.8018 88.3936 81.3173 87.2697C82.7027 86.2505 83.8977 84.9871 85.3408 84.0429C87.6396 82.5555 90.283 81.6087 92.9895 81.2224C94.8537 81.0816 96.7367 81.0119 98.5875 81.3445C97.7614 81.3458 96.9285 81.382 96.109 81.2519C95.1206 81.1111 94.1415 81.3713 93.1544 81.3793C90.1516 81.8045 87.2198 82.8975 84.7507 84.6759C83.671 85.5584 82.6343 86.4972 81.5265 87.3462C79.3981 88.9234 76.9665 90.0741 74.4277 90.8131C73.5801 91.0357 72.7432 91.3777 71.8486 91.2986C71.8701 91.2369 71.9117 91.1135 71.9318 91.0518C74.6302 90.1519 77.1395 88.7075 79.3337 86.8996C80.349 85.9943 81.3213 85.034 82.2105 84.004C83.714 82.0687 84.7212 79.7927 85.4561 77.4671C85.8987 76.0857 86.0798 74.644 86.3386 73.221C86.4902 70.5467 86.9958 67.8778 86.7369 65.1941C86.5116 64.0179 86.297 62.8336 85.9041 61.699C85.2214 59.6457 84.2585 57.6997 83.2244 55.8046C83.0487 55.4907 82.9253 55.1501 82.8422 54.8Z" fill="#FFE776"/>
<path d="M78.8354 67.0422C78.9964 66.9564 79.156 66.8719 79.3183 66.7888C79.3558 67.8215 79.5543 68.8542 79.4095 69.8869C79.2136 73.8701 77.3213 77.7246 74.3291 80.3574C72.2369 82.2565 69.5854 83.5024 66.8105 83.9973C65.118 84.2427 63.3932 84.24 61.6993 84.004C58.2954 83.4152 55.1048 81.6355 52.8396 79.0229C51.2382 77.2163 50.0768 75.0222 49.5094 72.6738C49.3244 71.9791 49.15 71.2723 49.1594 70.5481C49.1661 69.7635 48.9073 68.9574 49.1393 68.1863C49.2519 67.7879 49.7133 67.6967 50.0687 67.6592C52.4453 67.4057 54.9667 67.4312 57.1528 68.5162C56.3306 68.3204 55.5125 68.1085 54.6971 67.8858C53.6161 67.6028 52.4882 67.6887 51.3831 67.6806C50.7916 67.7021 50.1559 67.6739 49.6221 67.9703C49.3592 68.0964 49.3458 68.4129 49.3177 68.6651C49.2439 69.679 49.3083 70.705 49.5322 71.6974C49.7535 72.6738 49.8447 73.6944 50.2699 74.6145C50.3879 74.8653 50.5475 75.159 50.8573 75.1912C51.5587 75.328 52.279 75.2998 52.9898 75.3481C61.1186 75.8323 69.2796 75.7276 77.3964 75.0852C77.6928 75.0504 78.0334 74.9699 78.1662 74.6681C78.6544 73.7575 78.8247 72.7221 79.0299 71.7202C79.2941 70.4582 79.4376 69.1573 79.3089 67.8697C79.2847 67.5344 79.0326 67.289 78.8354 67.0422Z" fill="#FFE776"/>
<path d="M76.1392 68.9898C76.9559 68.5445 77.6641 67.9329 78.4594 67.4528C78.0852 67.8779 77.6493 68.2454 77.1719 68.5485C75.7837 69.4377 74.2897 70.1794 72.6964 70.6206C70.1911 71.4066 67.5034 71.4361 64.9243 71.0431C62.3841 70.575 59.8708 69.836 57.564 68.6598C58.6838 68.9562 59.7246 69.4793 60.8284 69.828C62.3291 70.3564 63.8889 70.6904 65.4527 70.9693C66.0388 71.0404 66.6329 71.0055 67.219 71.0874C68.2316 71.2148 69.2415 71.0123 70.2541 70.9935C72.3115 70.6796 74.338 70.0506 76.1392 68.9898Z" fill="#FFE776"/>
<path d="M83.9617 71.482C84.1374 70.8355 84.0945 70.1113 84.5142 69.552C84.6256 70.3514 84.6282 71.1641 84.5639 71.9675C84.2326 74.0651 83.6559 76.1331 82.7506 78.0604C82.135 79.5719 81.2726 80.9882 80.2037 82.2234C78.7325 83.7832 77.2867 85.4261 75.4345 86.546C74.4877 87.1321 73.5435 87.7356 72.5054 88.1487C70.7874 88.7924 69.0278 89.353 67.2105 89.6293C65.6909 89.7246 64.1647 89.9432 62.6451 89.7259C60.5797 89.6642 58.564 89.0982 56.6461 88.3579C54.4546 87.4861 52.4549 86.1959 50.6283 84.7153C48.7775 83.1273 47.3746 81.0955 46.1944 78.9791C45.2877 77.2772 44.6319 75.4451 44.2242 73.5608C43.913 72.3859 43.842 71.1561 43.9908 69.9517C44.4871 70.452 44.428 71.1923 44.6212 71.8226C45.049 73.3073 45.6177 74.7598 46.3835 76.1036C47.278 77.54 48.2155 78.9724 49.4212 80.1714C50.9434 81.7661 52.6534 83.2159 54.6182 84.2351C56.9733 85.5093 59.5913 86.2482 62.2401 86.5795C63.3586 86.6238 64.4799 86.5956 65.5997 86.5996C66.6579 86.6197 67.6839 86.3247 68.7206 86.1544C72.5483 85.2933 76.1628 83.3352 78.8384 80.4477C81.3343 78.0121 83.0765 74.8456 83.9617 71.482ZM84.0864 71.7422C83.5754 73.8599 82.583 75.83 81.3974 77.6473C80.4143 79.1722 79.1388 80.4759 77.8245 81.7151C74.6942 84.502 70.6774 86.2576 66.5184 86.7311C64.9734 86.7472 63.427 86.7619 61.882 86.723C58.3038 86.2724 54.8167 84.9259 51.9372 82.7371C48.9531 80.3873 46.5015 77.3187 45.0503 73.7968C44.6346 72.7896 44.4321 71.7153 44.1477 70.6692C44.0458 71.207 44.0485 71.7609 44.1786 72.2947C44.4897 73.6439 44.7164 75.02 45.214 76.3182C46.3996 79.5907 48.4395 82.5439 51.0816 84.8105C53.6848 86.9792 56.8151 88.5336 60.1412 89.2082C62.228 89.7192 64.4007 89.6092 66.5278 89.518C68.5101 89.2873 70.4561 88.7522 72.3029 87.9998C73.9297 87.1736 75.6277 86.4119 76.997 85.1767C78.4736 83.8355 79.918 82.4299 81.0473 80.7763C81.8051 79.8468 82.2329 78.7216 82.7345 77.6487C83.3447 76.3182 83.7752 74.91 84.0542 73.475C84.2406 72.4516 84.5746 71.431 84.4405 70.3782C84.2661 70.8168 84.1789 71.2821 84.0864 71.7422Z" fill="#FFE776"/>
<path d="M91.244 70.237C91.9762 70.7869 92.7742 71.2898 93.709 71.3864C94.5003 71.5648 95.254 71.0015 96.0373 71.2281C95.1575 71.9564 94.0041 72.0824 92.9365 72.3493C92.7729 73.1862 92.6616 74.0325 92.5073 74.8707C92.4282 75.2422 92.4497 75.6245 92.5114 75.9973C94.0014 75.9785 95.5089 75.8712 96.9842 76.1408C98.1376 76.2723 99.2574 76.6196 100.312 77.1038C100.723 77.2915 101.084 77.5719 101.41 77.883C100.821 77.8964 100.262 77.7033 99.692 77.592C98.033 77.3278 96.3471 77.0314 94.6653 77.2714C93.996 77.3801 93.3241 77.4605 92.6535 77.5558C91.5886 77.7033 90.6056 78.1673 89.5581 78.39C89.8156 77.6912 90.1549 77.0233 90.3615 76.3058C90.6686 75.379 90.7906 74.4067 90.9717 73.4518C91.1903 72.3909 91.0267 71.2979 91.244 70.237ZM91.4156 70.6809C91.2761 71.5835 91.2292 72.5022 91.3177 73.4129L91.2024 73.4451C91.0374 74.0929 90.9127 74.7487 90.7893 75.4059C90.6176 76.3286 90.226 77.1869 89.9323 78.0748C90.4366 77.9541 90.9328 77.8039 91.429 77.6496C92.1881 77.4149 92.9848 77.3492 93.7627 77.1963C94.8906 76.967 96.0467 77.0327 97.1894 77.0461C98.3106 77.0609 99.3781 77.5423 100.506 77.4377C99.1408 76.6317 97.5434 76.3433 95.9837 76.1998C94.8142 76.0389 93.6259 76.0577 92.4591 76.232C92.1264 75.1645 92.4832 74.066 92.5905 72.9931C92.6884 72.7195 92.6817 72.3587 92.9097 72.1589C93.4824 71.9215 94.1141 71.8719 94.6948 71.6546C94.1637 71.5996 93.6272 71.6037 93.1015 71.5111C92.4805 71.373 91.9642 70.98 91.4156 70.6809Z" fill="#FFE776"/>
<path d="M34.6048 71.3162C35.3826 71.1713 35.9996 70.6456 36.7292 70.3787C36.9317 71.6246 36.925 72.8934 37.1101 74.1407C37.322 75.1009 37.4936 76.08 37.8651 76.996C38.0502 77.4641 38.2715 77.9187 38.4271 78.3989C37.7444 78.3452 37.1423 77.9831 36.4837 77.8289C35.494 77.5191 34.4519 77.4681 33.4353 77.2911C31.7695 77.0255 30.0904 77.3112 28.4434 77.5767C27.8211 77.6894 27.2122 77.912 26.5698 77.8812C27.7608 76.7801 29.4225 76.3751 30.9836 76.1323C32.1558 75.9016 33.3561 75.9781 34.5431 75.9808C34.8945 75.9942 35.2445 75.9392 35.5825 75.8453C35.3075 74.7455 35.3089 73.6109 35.1453 72.4964C34.0629 72.0847 32.7808 72.0337 31.9358 71.1512C32.8358 71.0935 33.7102 71.6099 34.6048 71.3162ZM34.8824 71.5147C34.354 71.6059 33.8148 71.6005 33.2824 71.6555C33.957 71.8674 34.6504 72.0042 35.333 72.1852C35.3867 72.6077 35.4296 73.0329 35.4564 73.458C35.4484 74.3432 35.6992 75.2056 35.6817 76.0921C34.7657 76.1645 33.8497 76.0652 32.9337 76.1015C31.3471 76.1846 29.7551 76.4314 28.2704 77.0148C27.9901 77.1288 27.738 77.3005 27.4925 77.4748C28.5159 77.5097 29.4989 77.169 30.5142 77.1006C31.9104 77.0269 33.3186 77.0295 34.6946 77.3112C35.8896 77.4118 37.035 77.7685 38.1562 78.1789C37.5111 76.7385 37.047 75.2096 36.8861 73.635L36.7922 73.6243C36.7828 72.6533 36.5307 71.7091 36.4328 70.7475C35.9298 71.0265 35.4524 71.3846 34.8824 71.5147Z" fill="#FFE776"/>
<path d="M30.9199 83.1563C32.2463 82.9309 33.6063 82.7298 34.9461 82.9591C36.9753 83.1281 38.9924 83.6283 40.7896 84.6047C41.7458 85.1385 42.7008 85.7098 43.4692 86.5025C42.745 86.4663 42.1308 86.0424 41.4776 85.7782C40.3269 85.3008 39.1212 84.8998 37.8685 84.8273C36.864 84.6476 35.8407 84.7697 34.8482 84.9668C34.5706 85.0285 34.2568 85.168 34.1669 85.4644C33.9845 86.0129 33.9657 86.6178 33.6626 87.1234C33.0363 88.2889 31.7702 88.9353 30.5176 89.1982C30.7389 88.4324 31.4242 87.9362 31.7219 87.2106C31.9821 86.5816 31.9969 85.8694 31.8628 85.2096C31.7085 84.4558 31.1265 83.8899 30.9199 83.1563ZM31.101 83.2971C31.4779 83.9301 31.9513 84.5457 32.0425 85.3008C32.1458 86.0706 32.1256 86.9088 31.7179 87.5955C31.4779 88.0046 31.2096 88.3962 30.9816 88.812C32.0908 88.6363 33.0859 87.9 33.5754 86.8901C33.8209 86.3911 33.8383 85.8225 34.0153 85.3021C34.0878 85.046 34.348 84.9226 34.5827 84.8555C36.1746 84.4143 37.8632 84.543 39.4605 84.8904C40.5482 85.1479 41.5541 85.6508 42.6002 86.0331C41.7901 85.3075 40.8231 84.7911 39.8387 84.3459C37.1108 83.1348 34.0341 82.8934 31.101 83.2971Z" fill="#FFE776"/>
<path d="M58.2492 36H69.7309C70.0032 36.3259 70.2929 36.676 70.364 37.1078C70.4176 37.596 70.2701 38.0775 70.1467 38.5442C69.6089 40.3387 69.0979 42.1412 68.603 43.9491C68.481 44.3408 68.3817 44.7659 68.1014 45.0811C67.7983 45.3694 67.3396 45.3359 66.952 45.3627C65.0234 45.3426 63.0948 45.3346 61.1662 45.3641C60.721 45.3359 60.1362 45.4003 59.8613 44.9644C59.4723 44.3193 59.3557 43.5575 59.137 42.8467C58.677 41.2842 58.2532 39.7124 57.7731 38.158C57.6792 37.816 57.5665 37.4632 57.6041 37.1052C57.71 36.684 58.0105 36.3514 58.2492 36Z" fill="#FFDD00"/>
<path d="M59.8028 47.1281C60.3728 46.6654 61.1467 46.6493 61.8454 46.652C63.5031 46.6801 65.1608 46.6493 66.8171 46.66C67.3965 46.6426 67.933 46.8813 68.4266 47.163C68.44 47.7745 68.4601 48.3874 68.4722 48.999C68.8986 49.2056 69.3345 49.3987 69.7905 49.5315C72.6687 50.3764 75.2826 52.0341 77.3493 54.1987C80.0585 56.8717 81.7336 60.4861 82.3385 64.2213C82.4069 64.6719 82.4149 65.1306 82.3747 65.5853C81.9911 64.8248 81.8315 63.9772 81.5003 63.1953C79.2297 57.7864 74.3183 53.5147 68.5768 52.2084C67.4059 51.8342 66.168 51.8611 64.9623 51.7068C64.3253 51.6291 63.6842 51.6854 63.0525 51.7618C62.2572 51.8584 61.4484 51.8423 60.6665 52.0274C59.5494 52.2996 58.4268 52.5719 57.3592 53.0037C54.3107 54.2484 51.5546 56.2641 49.5523 58.8888C48.3814 60.3145 47.4493 61.9413 46.819 63.6754C46.4528 64.7323 46.0599 65.7918 45.9097 66.9063C45.8909 65.4967 46.1457 64.1019 46.4528 62.7312C46.9276 60.7021 47.7444 58.752 48.8871 57.0085C50.023 55.206 51.5453 53.6757 53.1949 52.3399C54.6018 51.3005 56.1428 50.4368 57.7736 49.8064C58.3691 49.5569 59.0907 49.5368 59.5815 49.0835C59.8404 48.4706 59.5762 47.7531 59.8028 47.1281Z" fill="#FFDD00"/>
<path d="M38.7439 66.8054C39.2656 62.4386 41.7521 58.5948 44.6491 55.4015C44.3124 56.2102 43.898 56.98 43.4943 57.7552C42.5166 59.7281 41.6556 61.7868 41.2465 63.9608C40.9689 65.7861 41.0266 67.6463 41.1741 69.4824C41.2318 70.279 41.1875 71.077 41.2264 71.8737C41.264 72.6891 41.4718 73.4831 41.6167 74.2838C40.6926 74.1644 39.7686 74.045 38.8512 73.8814C38.752 72.8058 38.5749 71.7369 38.5521 70.6546C38.5186 69.8445 38.5575 68.9888 38.1927 68.2405C37.785 67.413 37.0017 66.8457 36.1943 66.4433C35.5171 66.1067 34.7043 66.0047 33.9761 66.2287C33.3712 66.4661 32.8629 66.9865 32.6698 67.6101C32.5236 67.9991 32.9018 68.4483 33.2947 68.4349C33.6193 68.2445 33.8486 67.9079 34.1947 67.7429C34.5232 67.6718 34.9967 67.7201 35.1147 68.0956C35.3293 68.6187 35.3226 69.3617 34.7901 69.6916C33.7413 70.3716 32.1963 69.8365 31.5982 68.7957C30.8605 67.3352 31.9402 65.4696 33.4905 65.1665C34.6587 64.9761 35.9409 65.0579 36.9628 65.7083C37.5489 66.0852 38.1095 66.509 38.7439 66.8054Z" fill="#FFDD00"/>
<path d="M83.4102 55.579C84.2605 56.3153 84.8693 57.2702 85.544 58.158C86.7376 59.7406 87.6778 61.5056 88.4033 63.347C88.8727 64.4937 88.9063 65.7759 89.5017 66.877C90.4446 66.1192 91.4075 65.2622 92.6495 65.0745C93.7734 64.8384 95.0528 65.0879 95.8589 65.9516C96.5737 66.6476 96.8755 67.8011 96.4396 68.7224C95.7811 69.8369 94.0134 70.5236 92.9942 69.4882C92.4054 69.0162 92.6267 67.958 93.3335 67.7407C94 67.5784 94.4386 68.2369 94.8798 68.6098C95.0394 68.304 95.301 67.9982 95.242 67.6307C95.1628 67.0621 94.7082 66.6208 94.2119 66.3781C93.5534 66.0575 92.7769 66.1353 92.1023 66.3606C91.0146 66.7281 90.0114 67.5275 89.6466 68.6473C89.0846 70.2473 89.5259 71.9694 89.2322 73.6123C88.3363 73.8591 87.4055 74.0133 86.4761 73.9074C86.5673 72.4174 86.9803 70.9608 86.9468 69.4614C86.9388 68.0706 86.983 66.6785 86.9589 65.2877C86.9495 64.3382 86.6437 63.4315 86.3996 62.5236C86.0053 61.0898 85.4367 59.7125 84.8077 58.3686C84.3704 57.4244 83.8179 56.5366 83.4102 55.579Z" fill="#FFDD00"/>
<path d="M91.4095 70.6769C91.9581 70.976 92.4744 71.369 93.0954 71.5071C93.6211 71.5997 94.1576 71.5956 94.6887 71.6506C94.1079 71.8679 93.4763 71.9175 92.9036 72.1549C92.6756 72.3547 92.6823 72.7155 92.5844 72.9891C92.1632 73.142 91.7381 73.2788 91.3116 73.4089C91.2231 72.4982 91.27 71.5795 91.4095 70.6769Z" fill="#FFDD00"/>
<path d="M34.8886 71.5085C35.4586 71.3784 35.936 71.0203 36.439 70.7413C36.5369 71.703 36.789 72.6471 36.7984 73.6181C36.3531 73.5618 35.9079 73.5068 35.4626 73.4518C35.4358 73.0267 35.3929 72.6015 35.3392 72.1791C34.6566 71.998 33.9632 71.8612 33.2886 71.6493C33.821 71.5943 34.3602 71.5997 34.8886 71.5085Z" fill="#FFDD00"/>
<path d="M78.4496 67.458C78.5784 67.3159 78.7058 67.1737 78.8345 67.0316C79.0317 67.2783 79.2838 67.5238 79.308 67.8591C79.4367 69.1466 79.2932 70.4475 79.029 71.7096C78.8238 72.7114 78.6535 73.7468 78.1653 74.6574C78.0325 74.9592 77.6919 75.0397 77.3955 75.0745C69.2787 75.717 61.1177 75.8216 52.9889 75.3374C52.278 75.2891 51.5578 75.3173 50.8564 75.1805C50.5466 75.1483 50.387 74.8546 50.269 74.6038C49.8438 73.6838 49.7526 72.6631 49.5313 71.6868C49.3074 70.6943 49.243 69.6683 49.3167 68.6544C49.3449 68.4022 49.3583 68.0857 49.6212 67.9596C50.155 67.6632 50.7907 67.6914 51.3821 67.67C52.4873 67.678 53.6152 67.5922 54.6962 67.8752C55.5116 68.0978 56.3297 68.3097 57.1519 68.5055C57.29 68.5471 57.4241 68.6007 57.5542 68.6651C59.861 69.8413 62.3744 70.5803 64.9145 71.0484C67.4936 71.4413 70.1813 71.4118 72.6866 70.6259C74.2799 70.1846 75.774 69.443 77.1621 68.5538C77.6395 68.2507 78.0754 67.8832 78.4496 67.458Z" fill="#FFF3B0"/>
<path d="M84.0879 71.7442C84.1804 71.2842 84.2676 70.8188 84.4419 70.3803C84.576 71.4331 84.2421 72.4537 84.0557 73.477C83.7767 74.9121 83.3462 76.3203 82.736 77.6508C82.2344 78.7237 81.8065 79.8489 81.0488 80.7784C79.9195 82.432 78.4751 83.8376 76.9984 85.1787C75.6291 86.414 73.9312 87.1757 72.3043 88.0019C70.4576 88.7543 68.5115 89.2894 66.5293 89.5201C64.4022 89.6113 62.2295 89.7213 60.1426 89.2103C56.8165 88.5357 53.6862 86.9813 51.083 84.8126C48.4409 82.546 46.401 79.5928 45.2154 76.3203C44.7178 75.0221 44.4912 73.646 44.18 72.2968C44.0499 71.763 44.0473 71.2091 44.1492 70.6713C44.4335 71.7174 44.636 72.7917 45.0518 73.7989C46.5029 77.3208 48.9546 80.3894 51.9387 82.7392C54.8182 84.9279 58.3052 86.2745 61.8835 86.7251C63.4285 86.764 64.9749 86.7492 66.5199 86.7332C70.6789 86.2597 74.6956 84.5041 77.8259 81.7172C79.1403 80.4779 80.4157 79.1743 81.3988 77.6494C82.5844 75.8321 83.5769 73.862 84.0879 71.7442Z" fill="#FFBC00"/>
<path d="M91.3171 73.418C91.7436 73.2879 92.1687 73.1511 92.5898 72.9982C92.4825 74.0711 92.1258 75.1695 92.4584 76.2371C93.6252 76.0627 94.8135 76.044 95.983 76.2049C97.5428 76.3484 99.1401 76.6368 100.505 77.4428C99.3775 77.5474 98.3099 77.0659 97.1887 77.0512C96.046 77.0378 94.8899 76.9721 93.762 77.2014C92.9841 77.3543 92.1875 77.42 91.4284 77.6547C90.9321 77.8089 90.4359 77.9592 89.9316 78.0799C90.2254 77.192 90.617 76.3337 90.7886 75.4109C90.912 74.7538 91.0368 74.0979 91.2017 73.4501L91.3171 73.418Z" fill="#FFBC00"/>
<path d="M35.4565 73.4623C35.9018 73.5173 36.3471 73.5723 36.7923 73.6286L36.8862 73.6393C37.0472 75.2138 37.5112 76.7428 38.1563 78.1832C37.0351 77.7728 35.8897 77.416 34.6948 77.3155C33.3187 77.0338 31.9105 77.0311 30.5143 77.1049C29.4991 77.1733 28.516 77.5139 27.4927 77.4791C27.7381 77.3047 27.9902 77.1331 28.2706 77.0191C29.7552 76.4356 31.3472 76.1889 32.9338 76.1057C33.8498 76.0695 34.7658 76.1688 35.6819 76.0963C35.6993 75.2098 35.4485 74.3475 35.4565 73.4623Z" fill="#FFBC00"/>
<path d="M86.4815 73.9515C87.4109 74.0574 88.3417 73.9032 89.2376 73.6564C88.9009 75.5917 88.3993 77.515 87.5236 79.2813C87.2821 79.7534 87.152 80.2697 87.0689 80.7901C88.1566 80.5983 89.1316 80.0525 90.1885 79.7601C91.0709 79.5039 91.9736 79.3282 92.8721 79.1391C94.1597 78.8669 95.4807 78.9836 96.7857 78.9675C97.9216 78.9769 99.0724 78.8736 100.192 79.1163C101.409 79.3792 102.62 79.6957 103.757 80.2121C105.07 80.7526 106.296 81.4835 107.622 81.9918C108.19 82.2211 108.8 82.2976 109.407 82.3284C109.466 82.3351 109.583 82.3485 109.641 82.3553C109.846 82.4317 110.048 82.5175 110.254 82.6034C109.662 82.7429 109.048 82.826 108.446 82.7133C107.692 82.5779 106.954 82.3539 106.187 82.311C106.405 83.0768 106.683 83.8493 106.638 84.658C106.592 85.503 106.313 86.3251 105.907 87.0641C105.261 88.2001 104.083 89.0396 102.779 89.21C101.611 89.3669 100.318 89.2757 99.3527 88.534C98.5238 87.9506 97.8894 86.9327 98.1255 85.8906C98.387 84.7989 99.2454 83.6911 100.438 83.6052C101.12 83.5422 101.959 83.7514 102.247 84.4448C102.573 85.169 102.105 86.132 101.303 86.254C100.656 86.3211 100.037 86.0609 99.4184 85.9174C99.6276 86.3332 99.7899 86.8589 100.269 87.0386C101.397 87.4772 102.778 87.5617 103.815 86.8495C104.881 86.1521 105.016 84.5923 104.461 83.5328C103.901 82.6275 102.848 82.205 101.883 81.8751C100.604 81.4231 99.2467 81.3145 97.9149 81.112C96.2841 80.8692 94.6022 80.8344 92.9942 81.2448C90.2877 81.631 87.6443 82.5779 85.3455 84.0652C83.9024 85.0094 82.7074 86.2728 81.322 87.2921C79.8065 88.416 78.1179 89.2918 76.365 89.9825C75.3498 90.3674 74.3291 90.7966 73.2334 90.8744C74.1628 90.2896 75.2116 89.9329 76.1545 89.3736C78.0844 88.247 79.8963 86.8871 81.4038 85.2307C83.1513 83.4336 84.3423 81.1697 85.2047 78.836C85.8136 77.2602 86.1234 75.5958 86.4815 73.9515Z" fill="#FFBC00"/>
<path d="M38.8441 73.926C39.7615 74.0896 40.6856 74.209 41.6096 74.3284C42.3151 78.6134 44.072 82.8649 47.1969 85.9523C48.6306 87.3297 50.2642 88.4951 51.997 89.4675C52.8996 89.9825 53.8853 90.3366 54.7678 90.8891C53.6627 90.806 52.6394 90.3607 51.6174 89.9704C49.4206 89.1054 47.3431 87.9225 45.5299 86.4069C44.9974 85.9576 44.5052 85.4654 43.9674 85.0255C42.0375 83.455 39.7481 82.3633 37.3527 81.7142C36.0612 81.2877 34.6905 81.2609 33.348 81.1321C32.5487 81.0597 31.744 81.1013 30.9446 81.1737C29.6155 81.2971 28.2543 81.2233 26.9614 81.6069C25.7248 81.9596 24.3072 82.3137 23.5481 83.4483C22.793 84.5414 23.1149 86.1977 24.2214 86.9273C24.9241 87.3699 25.7959 87.4142 26.6006 87.3337C27.1921 87.2559 27.8358 87.1271 28.2704 86.6832C28.5091 86.4727 28.3441 86.1481 28.3213 85.8879C27.8707 86.0462 27.4281 86.2675 26.9439 86.301C26.4008 86.2916 25.9072 85.8799 25.749 85.3689C25.5303 84.7318 25.9059 83.966 26.5376 83.7394C27.1894 83.4939 27.9525 83.5865 28.5346 83.9674C29.1783 84.3898 29.6062 85.0953 29.7711 85.841C29.9227 86.5384 29.696 87.2425 29.4559 87.8916C28.7492 89.0169 27.3517 89.4326 26.0977 89.5372C24.8973 89.4433 23.6903 89.0276 22.7568 88.2524C21.8006 87.3618 21.3942 86.0462 21.2212 84.7855C21.1125 84.021 21.3942 83.2834 21.5015 82.5363C20.4406 82.6718 19.3918 82.9226 18.3189 82.944C17.533 82.8891 16.7376 82.7952 16 82.5041C16.8677 82.1769 17.8025 82.3593 18.7051 82.311C20.3132 82.2802 21.6973 81.3574 23.1149 80.711C24.5567 79.9908 26.091 79.4691 27.6655 79.1311C28.8685 78.8615 30.1078 78.9836 31.3282 78.9675C32.6318 78.9809 33.9529 78.8709 35.2391 79.1445C36.1752 79.3417 37.1087 79.5536 38.026 79.8258C39.0265 80.1061 39.9399 80.6748 40.9954 80.7539C40.762 79.7722 40.2121 78.9138 39.8835 77.967C39.4155 76.6566 38.9622 75.3222 38.8441 73.926Z" fill="#FFBC00"/>
<path d="M31.1003 83.2956C34.0335 82.8919 37.1101 83.1333 39.838 84.3444C40.8225 84.7897 41.7894 85.306 42.5995 86.0316C41.5534 85.6493 40.5475 85.1464 39.4598 84.8889C37.8625 84.5415 36.174 84.4128 34.582 84.854C34.3473 84.9211 34.0871 85.0445 34.0147 85.3006C33.8376 85.821 33.8202 86.3897 33.5748 86.8886C33.0853 87.8985 32.0901 88.6348 30.981 88.8105C31.209 88.3947 31.4772 88.0031 31.7173 87.594C32.125 86.9074 32.1451 86.0691 32.0418 85.2993C31.9506 84.5442 31.4772 83.9286 31.1003 83.2956Z" fill="#FFBC00"/>
<path d="M92.4997 83.2597C93.2588 83.2463 94.0139 83.1015 94.7756 83.1524C95.4623 83.1967 96.1476 83.2785 96.8343 83.3402C96.3408 84.1503 95.8097 85.018 95.8633 86.0064C95.8231 87.0834 96.5151 87.9632 97.1133 88.7867C96.1503 88.8578 95.3416 88.1791 94.7367 87.5085C94.152 86.8943 94.2217 85.9903 93.8918 85.2581C93.7684 84.9684 93.4264 84.9161 93.1609 84.8302C92.3776 84.6411 91.5863 84.3045 90.7669 84.4627C90.0587 84.6022 89.3613 84.7954 88.6492 84.9147C87.6232 85.0931 86.7219 85.6778 85.6919 85.8428C86.3652 85.0958 87.3187 84.7028 88.2012 84.2683C89.5719 83.7305 91.0069 83.2262 92.4997 83.2597Z" fill="#FFBC00"/>
<path d="M93.0186 81.2515C94.6266 80.8412 96.3084 80.876 97.9393 81.1188C99.2711 81.3213 100.628 81.4299 101.908 81.8819C102.872 82.2118 103.925 82.6343 104.486 83.5396C105.041 84.5991 104.905 86.1589 103.839 86.8563C102.802 87.5685 101.421 87.484 100.293 87.0454C99.8143 86.8657 99.652 86.3399 99.4428 85.9242C100.061 86.0677 100.681 86.3279 101.327 86.2608C102.129 86.1388 102.597 85.1758 102.271 84.4516C101.983 83.7582 101.145 83.549 100.462 83.612C99.2697 83.6978 98.4114 84.8056 98.1499 85.8974C97.9138 86.9394 98.5482 87.9574 99.377 88.5408C100.343 89.2825 101.636 89.3737 102.804 89.2168C104.107 89.0464 105.285 88.2069 105.931 87.0709C106.338 86.3319 106.617 85.5098 106.662 84.6648C106.708 83.8561 106.429 83.0836 106.212 82.3178C106.979 82.3607 107.716 82.5847 108.47 82.7201C109.072 82.8328 109.687 82.7496 110.278 82.6102C110.073 82.5243 109.87 82.4385 109.665 82.362C110.443 82.3084 111.254 82.2199 112 82.5096C111.225 82.8261 110.381 82.9522 109.548 82.9642C108.565 82.8985 107.592 82.7376 106.627 82.5444C106.654 83.3424 106.861 84.1337 106.779 84.9357C106.665 86.1388 106.167 87.3311 105.282 88.1693C104.384 89.0357 103.136 89.4796 101.906 89.5494C100.813 89.4756 99.6882 89.1256 98.8808 88.3584C98.3752 87.8877 98.0184 87.2399 97.9755 86.5438C97.9098 85.145 98.9063 83.7461 100.278 83.4162C101.228 83.1976 102.454 83.789 102.518 84.8499C102.641 85.7874 101.729 86.5746 100.843 86.5626C100.485 86.4674 100.158 86.289 99.8169 86.1482C99.8169 86.8268 100.614 87.083 101.173 87.1326C102.051 87.154 103.065 87.2922 103.795 86.6886C105.001 85.7981 104.924 83.7166 103.666 82.9025C102.188 81.8859 100.345 81.6619 98.6166 81.3736C96.7658 81.041 94.8828 81.1107 93.0186 81.2515Z" fill="#FF7E00"/>
<path d="M91.0228 83.2179C93.0453 82.9001 95.1925 82.5581 97.1707 83.2729C96.417 84.2131 95.7853 85.4282 96.1058 86.6647C96.3164 87.6518 97.0755 88.3533 97.612 89.1633C96.6812 89.1083 95.7974 88.6819 95.0785 88.1052C94.4763 87.617 94.1263 86.8954 93.9613 86.1511C93.8205 85.7299 93.7762 85.0996 93.2438 84.999C90.9329 84.4759 88.4826 84.9024 86.3435 85.8681C85.7547 86.1336 85.1874 86.4501 84.5718 86.65C84.8373 85.97 85.524 85.628 86.094 85.2404C87.5921 84.2667 89.2726 83.5787 91.0228 83.2179ZM92.4981 83.2582C91.0054 83.2246 89.5703 83.7289 88.1996 84.2667C87.3171 84.7013 86.3636 85.0942 85.6903 85.8413C86.7203 85.6763 87.6216 85.0915 88.6476 84.9132C89.3597 84.7938 90.0572 84.6007 90.7653 84.4612C91.5847 84.3029 92.376 84.6396 93.1593 84.8287C93.4248 84.9145 93.7668 84.9668 93.8902 85.2565C94.2201 85.9888 94.1504 86.8927 94.7351 87.507C95.34 88.1776 96.1487 88.8562 97.1117 88.7851C96.5135 87.9616 95.8215 87.0818 95.8617 86.0049C95.8081 85.0164 96.3392 84.1487 96.8327 83.3386C96.1461 83.2769 95.4607 83.1951 94.774 83.1509C94.0123 83.0999 93.2572 83.2448 92.4981 83.2582Z" fill="#FF7E00"/>
</svg>
