<?xml version="1.0" encoding="utf-8"?>
<!-- Generator: Adobe Illustrator 25.4.1, SVG Export Plug-In . SVG Version: 6.00 Build 0)  -->
<svg version="1.1" id="Layer_1" xmlns="http://www.w3.org/2000/svg" xmlns:xlink="http://www.w3.org/1999/xlink" x="0px" y="0px"
	 viewBox="0 0 1040 850" style="enable-background:new 0 0 1040 850;" xml:space="preserve">
<style type="text/css">
	.st0{fill:#0046BE;}
</style>
<path class="st0" d="M381.9,106.7H4.4v0C4.4,49.4,50.7,3,108,3h377.6v0C485.5,60.3,439.1,106.7,381.9,106.7z"/>
<g>
	<path class="st0" d="M151.5,735.1V770c0,1.8-1.2,2.8-3.5,2.8l-114.4-0.4c-16.2-0.1-29.3,13.2-29,29.4c0,0.2,0,0.5,0,0.7H148
		c9,0,16.6-3.2,22.9-9.5c6.3-6.3,9.5-14,9.5-23v-63.7C164.4,706.3,151.5,719.2,151.5,735.1z"/>
	<path class="st0" d="M63.3,819.2c-4,0-7.4,1.4-10.2,4.2c-2.8,2.8-4.2,6.2-4.2,10.2c0,4,1.4,7.4,4.2,10.2c2.8,2.8,6.2,4.2,10.2,4.2
		c4.1,0,7.5-1.4,10.3-4.2c2.8-2.8,4.1-6.2,4.1-10.2c0-4-1.4-7.4-4.1-10.2C70.9,820.6,67.4,819.2,63.3,819.2z"/>
	<path class="st0" d="M369.6,687.4c4,0,7.4-1.4,10.2-4.2c2.8-2.8,4.2-6.2,4.2-10.3c0-4-1.4-7.4-4.2-10.2c-2.8-2.8-6.2-4.2-10.2-4.2
		c-4,0-7.4,1.4-10.2,4.2c-2.8,2.8-4.2,6.2-4.2,10.2c0,4.1,1.4,7.6,4.2,10.3C362.1,686,365.6,687.4,369.6,687.4z"/>
	<path class="st0" d="M334.9,687.3c4.1,0,7.5-1.4,10.3-4.2c2.8-2.8,4.1-6.2,4.1-10.2c0-4-1.4-7.4-4.1-10.2
		c-2.8-2.8-6.2-4.2-10.3-4.2c-4,0-7.4,1.4-10.2,4.2c-2.8,2.8-4.2,6.2-4.2,10.2c0,4,1.4,7.4,4.2,10.2
		C327.5,686,330.9,687.3,334.9,687.3z"/>
	<path class="st0" d="M402.9,687.3c4,0,7.4-1.4,10.2-4.2c2.8-2.8,4.2-6.2,4.2-10.2c0-4-1.4-7.4-4.2-10.2c-2.8-2.8-6.2-4.2-10.2-4.2
		c-4,0-7.4,1.4-10.2,4.2c-2.8,2.8-4.2,6.2-4.2,10.2c0,4,1.4,7.4,4.2,10.2C395.4,686,398.8,687.3,402.9,687.3z"/>
	<path class="st0" d="M98,819.1c-4,0-7.4,1.4-10.2,4.2c-2.8,2.8-4.2,6.2-4.2,10.2c0,4.1,1.4,7.6,4.2,10.3c2.8,2.8,6.2,4.2,10.2,4.2
		c4,0,7.4-1.4,10.2-4.2c2.8-2.8,4.2-6.2,4.2-10.3c0-4-1.4-7.4-4.2-10.2C105.4,820.5,102,819.1,98,819.1z"/>
	<path class="st0" d="M757.2,687.3c4,0,7.4-1.4,10.2-4.2c2.8-2.8,4.2-6.2,4.2-10.2c0-4-1.4-7.4-4.2-10.2c-2.8-2.8-6.2-4.2-10.2-4.2
		c-4,0-7.4,1.4-10.2,4.2c-2.8,2.8-4.2,6.2-4.2,10.2c0,4,1.4,7.4,4.2,10.2C749.7,686,753.1,687.3,757.2,687.3z"/>
	<path class="st0" d="M723.9,687.4c4,0,7.4-1.4,10.2-4.2c2.8-2.8,4.2-6.2,4.2-10.3c0-4-1.4-7.4-4.2-10.2c-2.8-2.8-6.2-4.2-10.2-4.2
		c-4,0-7.4,1.4-10.2,4.2c-2.8,2.8-4.2,6.2-4.2,10.2c0,4.1,1.4,7.6,4.2,10.3C716.4,686,719.9,687.4,723.9,687.4z"/>
	<path class="st0" d="M131.3,819.2c-4,0-7.4,1.4-10.2,4.2c-2.8,2.8-4.2,6.2-4.2,10.2c0,4,1.4,7.4,4.2,10.2c2.8,2.8,6.2,4.2,10.2,4.2
		c4,0,7.4-1.4,10.2-4.2c2.8-2.8,4.2-6.2,4.2-10.2c0-4-1.4-7.4-4.2-10.2C138.7,820.6,135.3,819.2,131.3,819.2z"/>
	<path class="st0" d="M689.2,687.3c4.1,0,7.5-1.4,10.3-4.2c2.8-2.8,4.1-6.2,4.1-10.2c0-4-1.4-7.4-4.1-10.2
		c-2.8-2.8-6.2-4.2-10.3-4.2c-4,0-7.4,1.4-10.2,4.2c-2.8,2.8-4.2,6.2-4.2,10.2c0,4,1.4,7.4,4.2,10.2
		C681.8,686,685.2,687.3,689.2,687.3z"/>
	<path class="st0" d="M416.7,735.2V770c0,1.8-1.2,2.8-3.5,2.8h-30.7v-66.5c-15.9,0-28.8,12.9-28.8,28.8v35.6c0,1.1-0.9,2-2,2h-32.2
		v-66.5c-15.9,0-28.8,12.9-28.8,28.8v35.6c0,1.1-0.9,2-2,2H274h-33h-4c-2.4,0-3.6-0.9-3.6-2.8V658.2c-15.9,0-28.8,12.9-28.8,28.8
		V770c0,9,3.2,16.7,9.5,23c6.3,6.3,14,9.5,23,9.5h4h33h139.2c9,0,16.7-3.2,23-9.5c6.3-6.3,9.5-14,9.5-23v-63.7h0
		C429.7,706.3,416.7,719.2,416.7,735.2z"/>
	<path class="st0" d="M795.2,706.3c-15.9,0-28.8,12.9-28.8,28.8V770c0,1.8-1.2,2.8-3.5,2.8h-30.7v-66.5c-15.9,0-28.8,12.9-28.8,28.8
		v35.6c0,1.1-0.9,2-2,2h-32.2v-66.5h0c-15.9,0-28.8,12.9-28.8,28.8v35.6c0,1.1-0.9,2-2,2h-9.6h-35.6c-15.6,0-28.2,12.6-28.2,28.2
		c0,0.9,0.7,1.5,1.5,1.5h17.4c3.4,0,6.4,1.3,8.9,3.8c2.5,2.5,3.8,5.5,3.7,8.8c0,2-1.7,3.6-3.6,3.6h-90.1c-2,0-3.6-1.6-3.6-3.6v-41.3
		h0c-15.9,0-28.8,12.9-28.8,28.8V815c0,9,3.2,16.7,9.5,23c6.3,6.3,14,9.5,23,9.5h90.1c9,0,16.7-3.2,23-9.5c6.3-6.3,9.5-14,9.5-23
		c0-4.3-0.6-8.5-1.8-12.5h5.1h11.8h122.3c9,0,16.7-3.2,23-9.5c6.3-6.3,9.5-14,9.5-23v-63.7H795.2z"/>
	<path class="st0" d="M954.3,687.8h52.3c16.4,0,29.7-13.3,29.7-29.7h-82c-9,0-16.7,3.3-23,9.9c-6.3,6.6-9.5,14.4-9.5,23.4v12.2
		c0,9,3.2,16.7,9.5,23c6.3,6.3,14,9.5,23,9.5h49.5c2.4,0,3.6,1.2,3.6,3.5V770c0,1.8-1.2,2.8-3.6,2.8h-75.7h-13.8h-2.6v-42.1
		c0-6.6-2.3-12.3-6.9-17.1c-4.6-4.8-10.1-7.2-16.6-7.2h-27.1c-11.4,0-23.7,0-31.8,8.4c-8.1,8.4-9.7,16.7-9.7,28.3V770
		c0,9,3.2,16.7,9.5,23c6.3,6.3,14,9.5,23,9.5h30.6V815c0,2.4-1.2,3.6-3.5,3.6H862c-15.9,0-28.8,12.9-28.8,28.8v0h46
		c9,0,16.7-3.2,23-9.5c6.3-6.3,9.5-14,9.5-23v-12.5h2.6h13.8h75.7c9,0,16.7-3.2,23-9.5c6.3-6.3,9.5-14,9.5-23v-30.4
		c0-9-3.2-16.7-9.5-23.4c-6.3-6.6-14-10-23-10h-49.5c-2.4,0-3.6-0.9-3.6-2.6v-12.2C950.6,689.4,952.2,687.8,954.3,687.8z
		 M882.7,770.7c0,1.1-0.9,2-2,2h-28.6c-2.4,0-3.6-0.9-3.6-2.8v-23.3c0-11.8,10.8-10.6,12.7-10.5h19.6c1.1,0,2,0.9,2,2V770.7z"/>
	<path class="st0" d="M968.1,610c-15.9,0-28.9,13-28.9,28.9v1.7h68.9c15.9,0,28.9-13,28.9-28.9V610H968.1z"/>
</g>
<path class="st0" d="M480.6,211H285.1c-59,0-106.8,47.8-106.8,106.8v0H372c2.7,0,5,2.2,5,5v95.1c0,2.7-2.2,5-5,5H112.6
	c-2.7,0-5-2.2-5-5V211h0c-56.9,0-103,46.1-103,103v108.7v104.1h103h277.6c55.4,0,100.4-44.9,100.4-100.4V215.9
	C485.6,213.2,483.3,211,480.6,211z"/>
<path class="st0" d="M1037,2.9L1037,2.9l-375.8,0h-2.1c-57.3,0-103.7,46.4-103.7,103.7v0v104.1v87.1c0,11,8.9,19.9,19.9,19.9h85.9
	h92c59.1,0,107-47.9,107-107v0h-194c-2.7,0-5-2.2-5-5v-94.2c0-2.7,2.2-5,5-5h267.1C990.6,106.7,1037,60.2,1037,2.9z"/>
<path class="st0" d="M930.9,316.9v101.4c0,2.7-2.2,5-5,5H658.8c-57.2,0-103.6,46.4-103.6,103.6v0h375.8h2.4
	c57.2,0,103.6-46.4,103.6-103.6v0V210.8h0C978.4,210.8,930.9,258.3,930.9,316.9z"/>
</svg>
