<?xml version="1.0" encoding="UTF-8"?><svg id="Layer_1" xmlns="http://www.w3.org/2000/svg" viewBox="0 0 128 128"><defs><style>.cls-1{fill:#202020;}.cls-2{fill:#0e2b62;}.cls-3{fill:#e9bc59;}</style></defs><path class="cls-2" d="M63.91,105.47c-6.33,0-12.67.06-19.01-.02-4.3-.06-7.65-2.01-10.21-5.48-1.9-2.56-2.61-5.38-2.59-8.51.06-5.45,0-10.91.02-16.36,0-2.03,1.11-3.04,3.1-2.92,1.36.08,2.39,1.14,2.4,2.74.03,4.87-.03,9.75-.02,14.63,0,1.73.02,3.46.17,5.17.18,1.97,2.93,4.97,5.21,5.06,2.1.09,4.2.36,6.3.37,10.99.04,21.97.01,32.96.01,3.09,0,5.7-1.01,7.22-3.82.63-1.17,1.05-2.58,1.1-3.91.16-3.87.09-7.75.14-11.63.01-1.05-.42-1.76-1.14-2.51-2.79-2.85-5.5-5.79-8.22-8.7-3.32-3.56-6.62-7.14-9.96-10.69-1.46-1.56-2.99-3.06-4.49-4.59-1.67-1.71-1.9-3.07-.76-4.58.83-1.1,2.32-1.33,3.32-.38,1.25,1.18,2.41,2.46,3.6,3.7,1.7,1.77,3.39,3.54,5.08,5.31,1.58,1.66,3.15,3.34,4.72,5.01,2.02,2.15,4.03,4.3,6.04,6.44,2.13,2.26,4.28,4.5,6.37,6.79.33.35.54.95.54,1.44.04,4.84.24,9.69-.04,14.51-.38,6.8-4.18,11.05-10.65,12.76-.72.2-1.52.14-2.29.14-6.3.01-12.6,0-18.9,0"/><path class="cls-1" d="M63.95,19.42c3.65,0,7.3,0,10.95,0,.45,0,.99-.06,1.35.15.56.32,1.29.79,1.4,1.31.11.52-.31,1.39-.77,1.73-.77.56-.99,1.18-.96,2.05.04,1.03,0,2.07.02,3.11.01.74-.4.89-1.03.89-.62,0-1.06-.14-1.05-.88,0-1.19-.04-2.38-.03-3.57.02-.89-.39-1.25-1.25-1.24-5.91,0-11.83,0-17.74-.01-.88,0-1.25.4-1.22,1.27.03,1.04,0,2.08,0,3.12,0,.67.06,1.31-.96,1.32-1.08.02-1.03-.65-1.03-1.38.01-.73,0-1.46,0-2.18,0-1.06.04-2.01-.99-2.86-1.08-.87-.59-2.25.78-2.61.59-.15,1.21-.19,1.82-.2,3.57-.01,7.15,0,10.72,0h0Z"/><path class="cls-2" d="M52.07,106.21c.69,0,1.38,0,2.07,0,.57,0,1.11.03,1.16.77.05.72-.16,1.45-.91,1.51-1.56.11-3.14.13-4.68-.03-.38-.04-.87-.93-.93-1.47-.1-.77.65-.79,1.23-.79.69,0,1.38,0,2.07,0h0Z"/><path class="cls-2" d="M76.05,106.14c.81,0,1.62-.04,2.42.01.98.06,1.31.7.69,1.46-.33.4-.91.77-1.41.82-1.22.12-2.47.15-3.68,0-.5-.07-1.11-.62-1.33-1.11-.3-.64.04-1.18.9-1.16.81.03,1.61,0,2.42,0h0Z"/><path class="cls-3" d="M64.09,31.35c6.33,0,12.67-.06,19.01.02,4.3.06,7.65,2.01,10.21,5.48,1.9,2.56,2.61,5.38,2.59,8.51-.06,5.45,0,10.91-.02,16.36,0,2.03-1.11,3.04-3.1,2.92-1.36-.08-2.39-1.14-2.4-2.74-.03-4.87.03-9.75.02-14.63,0-1.73-.02-3.46-.17-5.17-.18-1.97-2.93-4.97-5.21-5.06-2.1-.09-4.2-.36-6.3-.37-10.99-.04-21.97-.01-32.96-.01-3.09,0-5.7,1.01-7.22,3.82-.63,1.17-1.05,2.58-1.1,3.91-.16,3.87-.09,7.75-.14,11.63-.01,1.05.42,1.76,1.14,2.51,2.79,2.85,5.5,5.79,8.22,8.7,3.32,3.56,6.62,7.14,9.96,10.69,1.46,1.56,2.99,3.06,4.49,4.59,1.67,1.71,1.9,3.07.76,4.58-.83,1.1-2.32,1.33-3.32.38-1.25-1.18-2.41-2.46-3.6-3.7-1.7-1.77-3.39-3.54-5.08-5.31-1.58-1.66-3.15-3.34-4.72-5.01-2.02-2.15-4.03-4.3-6.04-6.44-2.13-2.26-4.28-4.5-6.37-6.79-.33-.35-.54-.95-.54-1.44-.04-4.84-.24-9.69.04-14.51.38-6.8,4.18-11.05,10.65-12.76.72-.2,1.52-.14,2.29-.14,6.3-.01,12.6,0,18.9,0"/></svg>