<svg width="68" height="68" viewBox="0 0 68 68" fill="none" xmlns="http://www.w3.org/2000/svg">
<path fill-rule="evenodd" clip-rule="evenodd" d="M8.28748 42.7125V60.1375H25.7125V42.7125H20.4V46.1125C20.4 46.6993 19.9243 47.175 19.3375 47.175H14.45C13.8632 47.175 13.3875 46.6993 13.3875 46.1125V42.7125H8.28748ZM15.5125 42.7125V45.05H18.275V42.7125H15.5125ZM27.8375 42.7125H31.025V40.5875H8.07498C7.01873 40.5875 6.16248 41.4437 6.16248 42.5V60.35C6.16248 61.4062 7.01873 62.2625 8.07498 62.2625H31.025V60.1375H27.8375V42.7125Z" fill="#424750"/>
<path d="M60.35 17.85C60.35 14.3292 57.4958 11.475 53.975 11.475H43.35C39.8292 11.475 36.975 14.3292 36.975 17.85V19.125H41.225V33.15H60.35V17.85Z" fill="#E6123D"/>
<path fill-rule="evenodd" clip-rule="evenodd" d="M34.2125 34.2125V60.1375H53.3375V34.2125H47.175V37.6125C47.175 38.1993 46.6993 38.675 46.1125 38.675H41.225C40.6382 38.675 40.1625 38.1993 40.1625 37.6125V34.2125H34.2125ZM42.2875 34.2125V36.55H45.05V34.2125H42.2875ZM55.4625 34.2125V60.1375H59.2875V34.2125H55.4625ZM32.0875 34C32.0875 32.9437 32.9438 32.0875 34 32.0875H59.5C60.5563 32.0875 61.4125 32.9437 61.4125 34V60.35C61.4125 61.4062 60.5563 62.2625 59.5 62.2625H34C32.9438 62.2625 32.0875 61.4062 32.0875 60.35V34Z" fill="#424750"/>
<path fill-rule="evenodd" clip-rule="evenodd" d="M15.9375 20.1875V41.65H13.8125V19.975C13.8125 18.9188 14.6688 18.0625 15.725 18.0625H40.375C41.4312 18.0625 42.2875 18.9188 42.2875 19.975V32.9375H40.1625V20.1875H36.3375V34H34.2125V20.1875H28.05V23.5875C28.05 24.1743 27.5743 24.65 26.9875 24.65H22.1C21.5132 24.65 21.0375 24.1743 21.0375 23.5875V20.1875H15.9375ZM23.1625 20.1875V22.525H25.925V20.1875H23.1625Z" fill="#424750"/>
<path fill-rule="evenodd" clip-rule="evenodd" d="M35.9125 17.2125C35.9125 13.457 38.9569 10.4125 42.7125 10.4125H53.975C58.0826 10.4125 61.4125 13.7424 61.4125 17.85V33.575H59.2875V17.85C59.2875 14.916 56.909 12.5375 53.975 12.5375H42.7125C40.1305 12.5375 38.0375 14.6306 38.0375 17.2125H35.9125Z" fill="#424750"/>
<path fill-rule="evenodd" clip-rule="evenodd" d="M54.2133 18.8867C54.4622 19.1357 54.4622 19.5393 54.2133 19.7883L48.2633 25.7383C48.0143 25.9872 47.6107 25.9872 47.3617 25.7383L44.8117 23.1883C44.5628 22.9393 44.5628 22.5357 44.8117 22.2867C45.0607 22.0378 45.4643 22.0378 45.7133 22.2867L47.8125 24.3859L53.3117 18.8867C53.5607 18.6378 53.9643 18.6378 54.2133 18.8867Z" fill="white"/>
<path fill-rule="evenodd" clip-rule="evenodd" d="M9.13751 18.7C9.13751 15.5313 11.7063 12.9625 14.875 12.9625H23.8C24.3868 12.9625 24.8625 13.4382 24.8625 14.025C24.8625 14.6118 24.3868 15.0875 23.8 15.0875H14.875C12.8799 15.0875 11.2625 16.7049 11.2625 18.7V27.625C11.2625 28.2118 10.7868 28.6875 10.2 28.6875C9.61321 28.6875 9.13751 28.2118 9.13751 27.625V18.7Z" fill="#19BFD3"/>
<path fill-rule="evenodd" clip-rule="evenodd" d="M10.2 30.3875C10.7868 30.3875 11.2625 30.8632 11.2625 31.45V31.875C11.2625 32.4618 10.7868 32.9375 10.2 32.9375C9.61321 32.9375 9.13751 32.4618 9.13751 31.875V31.45C9.13751 30.8632 9.61321 30.3875 10.2 30.3875Z" fill="#19BFD3"/>
</svg>
