<?xml version="1.0" encoding="UTF-8"?><svg id="Layer_1" xmlns="http://www.w3.org/2000/svg" viewBox="0 0 128 128"><defs><style>.cls-1{fill:#fe5e33;}.cls-2{fill:#fefefe;}</style></defs><path class="cls-1" d="M65.93,66.16c-7.66,0-15.32,0-22.98.01-.56,0-.64-.15-.55-.65.58-3.22,1.12-6.44,1.69-9.66.31-1.76,1.63-2.9,3.43-2.98.87-.04,1.75-.03,2.62,0,.95.03,1.47.62,1.31,1.57-.4,2.42-.84,4.84-1.27,7.26-.13.75-.15.74.59.74,5.16,0,10.32,0,15.48,0,.47,0,.63-.12.71-.6.32-2.03.69-4.06,1.05-6.09.29-1.63,1.59-2.78,3.26-2.86.89-.04,1.78-.04,2.68-.03,1.08.02,1.57.66,1.38,1.72-.44,2.46-.84,4.92-1.3,7.37-.08.43.03.49.41.48,3.75-.01,7.5,0,11.25,0,1.51,0,3.02-.02,4.52.01.41,0,.54-.12.6-.5.36-2.13.75-4.25,1.12-6.38.27-1.56,1.38-2.59,2.96-2.68,1.01-.05,2.02-.04,3.03-.02.93.02,1.44.6,1.29,1.53-.35,2.19-.74,4.37-1.12,6.56-.58,3.3-1.17,6.59-1.74,9.89-.26,1.47-1.15,2.24-2.67,2.24-14.78,0-29.57,0-44.35,0-1.15,0-1.14,0-1.33,1.14-.4,2.34-.79,4.69-1.21,7.03-.31,1.72-1.69,2.86-3.43,2.87-.87,0-1.75,0-2.62,0-.89,0-1.44-.66-1.29-1.53.71-4.18,1.44-8.35,2.13-12.53.09-.52.32-.59.78-.59,15.5.01,31,0,46.5.01.48,0,.95-.01,1.35-.34.54-.45.76-1.12.57-1.76-.2-.69-.79-1.17-1.51-1.23-.2-.02-.4,0-.6,0-7.58,0-15.16,0-22.74,0Z"/><path class="cls-1" d="M30.07,52.87c2.66,0,5.32,0,7.98,0,1.37,0,1.89.6,1.65,1.93-1.07,6.2-2.15,12.41-3.23,18.61-.45,2.57-.89,5.15-1.33,7.72-.3,1.77-1.59,2.94-3.38,3.02-.87.04-1.75.03-2.62,0-1.05-.03-1.55-.66-1.37-1.69.57-3.14,1.13-6.27,1.72-9.41.1-.52,0-.7-.57-.7-3.71.02-7.42.01-11.13.01-1.52,0-1.99-.56-1.74-2.06.81-4.8,1.61-9.61,2.42-14.41.32-1.88,1.69-3.02,3.67-3.03,2.64-.01,5.28,0,7.92,0Z"/><path class="cls-1" d="M101.14,84.16c-.52,0-1.03.03-1.55,0-.86-.06-1.35-.71-1.2-1.56.72-4.15,1.45-8.31,2.17-12.46.82-4.7,1.64-9.4,2.44-14.11.32-1.88,1.61-3.07,3.53-3.13.81-.02,1.63-.02,2.44,0,1.05.02,1.57.63,1.39,1.67-.36,2.13-.74,4.25-1.11,6.38-.98,5.64-1.96,11.28-2.94,16.92-.2,1.15-.39,2.3-.6,3.45-.3,1.61-1.58,2.74-3.22,2.84-.45.03-.91,0-1.37,0,0,0,0,0,0,.01Z"/><path class="cls-1" d="M82.7,76.86c1.8,0,3.61,0,5.41,0,.72,0,.89.2.77.89-.18,1.01-.35,2.03-.53,3.04-.2,1.14-.93,1.78-2.09,1.78-3.59,0-7.18,0-10.76,0-.76,0-.99-.28-.86-1.03.16-.94.31-1.87.5-2.8.24-1.25,1.03-1.88,2.28-1.88,1.76,0,3.53,0,5.29,0Z"/><path class="cls-1" d="M60.92,50.9c-1.75,0-3.49,0-5.24,0-.81,0-1.02-.22-.89-.99.15-.98.31-1.96.51-2.93.21-1.03,1.11-1.78,2.17-1.79,3.59-.01,7.18,0,10.77,0,.57,0,.82.27.73.83-.16,1.08-.33,2.15-.57,3.22-.23,1.03-1.11,1.67-2.18,1.67-1.77,0-3.53,0-5.3,0Z"/><path class="cls-1" d="M106.83,50.9c-.73,0-1.47.01-2.2,0-.56-.01-.82-.34-.72-.9.24-1.4.48-2.81.75-4.21.22-1.15,1.05-1.91,2.22-1.95,1.43-.05,2.85-.03,4.28-.01.61,0,.86.33.76.94-.23,1.38-.47,2.77-.73,4.15-.24,1.24-1.18,1.98-2.45,1.98-.63,0-1.27,0-1.9,0Z"/><path class="cls-2" d="M27.22,65.8c-.83,0-1.67,0-2.5,0-.62,0-.76-.14-.66-.75.27-1.62.55-3.24.85-4.86.1-.53.46-.83,1-.84,1.75-.01,3.49,0,5.24,0,.43,0,.67.19.59.67-.28,1.6-.55,3.2-.85,4.79-.14.78-.42.98-1.23.98-.81,0-1.63,0-2.44,0Z"/></svg>