<?xml version="1.0" encoding="UTF-8"?><svg id="Layer_1" xmlns="http://www.w3.org/2000/svg" xmlns:xlink="http://www.w3.org/1999/xlink" viewBox="0 0 128 128"><defs><style>.cls-1{fill:none;}.cls-2{mask:url(#mask);}.cls-3{fill:url(#linear-gradient-5);}.cls-4{fill:url(#linear-gradient-4);}.cls-5{fill:url(#linear-gradient-3);}.cls-6{fill:url(#linear-gradient-2);}.cls-7{fill:url(#linear-gradient);}.cls-8{clip-path:url(#clippath-1);}.cls-9{clip-path:url(#clippath-3);}.cls-10{clip-path:url(#clippath-4);}.cls-11{clip-path:url(#clippath-2);}.cls-12{clip-path:url(#clippath);}</style><clipPath id="clippath"><path class="cls-1" d="M16.81,46.18v11.88h11.89v11.89h-11.89v11.88h35.64v-11.88h-11.88v-9.37c0-2.06-.77-3.29-1.69-4.21l-8.69-8.68c-.87-.88-2.22-1.5-3.77-1.5h-9.61Z"/></clipPath><linearGradient id="linear-gradient" x1="6812.66" y1="-345.38" x2="6813.14" y2="-345.38" gradientTransform="translate(-33878.97 -520635.57) rotate(89.18) scale(76.49)" gradientUnits="userSpaceOnUse"><stop offset="0" stop-color="#56a9dc"/><stop offset=".23" stop-color="#4882b4"/><stop offset=".49" stop-color="#3a6296"/><stop offset=".72" stop-color="#314a82"/><stop offset=".9" stop-color="#2c3b79"/><stop offset="1" stop-color="#2b3675"/></linearGradient><clipPath id="clippath-1"><path class="cls-1" d="M40.57,46.18v9.6c0,1.32.56,2.89,1.53,3.81l8.68,8.68c1.11,1.1,2.26,1.68,4.18,1.68h9.37v11.88h11.88v-9.6c0-1.7-.75-3.03-1.65-3.93l-10.24-10.24h-11.87v-11.88h-11.89Z"/></clipPath><linearGradient id="linear-gradient-2" x1="6812.66" y1="-345.03" x2="6813.14" y2="-345.03" gradientTransform="translate(-33828.86 -520636.25) rotate(89.18) scale(76.49)" xlink:href="#linear-gradient"/><clipPath id="clippath-2"><path class="cls-1" d="M88.1,46.18v11.88h11.88v11.89h-11.88v-11.87h-11.88v-11.89h-11.88v11.88s11.87.01,11.87.01v9.51c0,1.35.46,2.8,1.43,3.78l8.83,8.83c1.24,1.24,2.65,1.58,3.73,1.63h21.67v-21.48c0-1.26-.38-2.67-1.58-3.88l-8.63-8.63c-1.17-1.18-2.62-1.66-3.94-1.66h-9.61Z"/></clipPath><linearGradient id="linear-gradient-3" x1="6812.66" y1="-344.6" x2="6813.14" y2="-344.6" gradientTransform="translate(-33766.53 -520637.13) rotate(89.18) scale(76.49)" xlink:href="#linear-gradient"/><clipPath id="clippath-3"><path class="cls-1" d="M28.7,58.06v11.89h11.88v-9.49c0-.83-.26-1.27-.58-1.64-.43-.49-1.02-.75-1.74-.75h-9.56Z"/></clipPath><clipPath id="clippath-4"><path class="cls-1" d="M28.7,58.06v11.89h11.88v-9.49c0-.83-.26-1.27-.58-1.64-.43-.49-1.02-.75-1.74-.75h-9.56Z"/></clipPath><linearGradient id="linear-gradient-4" x1="6854.44" y1="-731.32" x2="6854.92" y2="-731.32" gradientTransform="translate(18235.58 170662.66) rotate(-90) scale(24.89)" gradientUnits="userSpaceOnUse"><stop offset="0" stop-color="#000"/><stop offset="1" stop-color="#fff"/></linearGradient><mask id="mask" x="28.7" y="58.06" width="11.88" height="11.89" maskUnits="userSpaceOnUse"><g id="SVGID"><g class="cls-10"><rect class="cls-4" x="28.7" y="58.06" width="11.88" height="11.89"/></g></g></mask><linearGradient id="linear-gradient-5" x1="6854.44" y1="-731.32" x2="6854.92" y2="-731.32" gradientTransform="translate(18235.58 170662.66) rotate(-90) scale(24.89)" gradientUnits="userSpaceOnUse"><stop offset="0" stop-color="#2b3675"/><stop offset="1" stop-color="#2b3675"/></linearGradient></defs><g class="cls-12"><polygon class="cls-7" points="52.45 45.67 52.97 81.81 16.82 82.33 16.3 46.19 52.45 45.67"/></g><g class="cls-8"><polygon class="cls-6" points="76.21 45.67 76.73 81.81 40.58 82.33 40.06 46.19 76.21 45.67"/></g><g class="cls-11"><polygon class="cls-5" points="111.85 45.5 112.37 81.81 64.34 82.5 63.82 46.19 111.85 45.5"/></g><g class="cls-9"><g class="cls-2"><rect class="cls-3" x="28.7" y="58.06" width="11.88" height="11.89"/></g></g></svg>