<?xml version="1.0" encoding="UTF-8"?><svg id="Layer_1" xmlns="http://www.w3.org/2000/svg" viewBox="0 0 128 128"><defs><style>.cls-1{fill:#24304b;}</style></defs><path class="cls-1" d="M20.84,44.17c-2.58,0-4.66,2.09-4.66,4.66s2.09,4.66,4.66,4.66c.58,0,1.13-.11,1.64-.3l15.86,42.29h51.32l15.86-42.29c.51.19,1.06.3,1.64.3,2.58,0,4.66-2.09,4.66-4.66s-2.09-4.66-4.66-4.66-4.66,2.09-4.66,4.66c0,1.23.47,2.34,1.25,3.18l-21.62,20.12c-1.31,1.22-3.07,1.86-4.85,1.7-.02,0-.05,0-.07,0-1.12-.11-2.19-.56-3.02-1.31-.79-.71-1.4-1.67-1.7-2.82l-7.3-28c2.01-.52,3.49-2.34,3.49-4.51,0-2.58-2.09-4.66-4.66-4.66s-4.66,2.09-4.66,4.66c0,2.17,1.48,3.99,3.49,4.51l-7.3,28c-.3,1.16-.91,2.11-1.7,2.82-.83.75-1.9,1.2-3.02,1.31-.02,0-.05,0-.07,0-1.78.15-3.53-.49-4.84-1.7l-21.62-20.12c.77-.83,1.25-1.95,1.25-3.18,0-2.58-2.09-4.66-4.66-4.66Z"/></svg>