<?xml version="1.0" encoding="UTF-8"?><svg id="Layer_1" xmlns="http://www.w3.org/2000/svg" viewBox="0 0 128 128"><defs><style>.cls-1{fill:#7e1724;}</style></defs><g id="Layer_x5F_1"><g id="_2351256733440"><path class="cls-1" d="M64,19.95c-24.29,0-44.05,19.76-44.05,44.05s19.76,44.05,44.05,44.05,44.05-19.76,44.05-44.05-19.76-44.05-44.05-44.05ZM64,23.5c22.37,0,40.5,18.13,40.5,40.5s-18.14,40.5-40.5,40.5-40.5-18.14-40.5-40.5,18.13-40.5,40.5-40.5h0Z"/><path class="cls-1" d="M79.33,28.74h0s0,0,0,0h0Z"/><path class="cls-1" d="M99.24,79.01c-.12.29-.23.57-.34.85-.24.57-.48,1.14-.82,1.85-.02.04-.04.08-.06.12-.12.26-.26.54-.42.84-.1.19-.21.37-.32.56-.75,1.3-1.58,2.56-2.49,3.76-.03.03-.05.08-.08.11-.03.04-.06.08-.09.12-.11.15-.22.3-.35.46-.08.09-.15.2-.23.3-.11.13-.21.26-.32.38-.18.22-.36.44-.54.65.02-.05.04-.09.06-.13h0s0,0,0,0h0c.06-.12.11-.24.17-.36.05-.12.11-.24.16-.37.06-.12.11-.25.17-.38.05-.13.1-.26.16-.39.11-.27.22-.55.32-.83.09-.24.18-.49.26-.75.07-.22.14-.44.2-.67.03-.11.06-.23.09-.35.04-.16.09-.31.12-.47.16-.64.29-1.3.4-2,.03-.18.06-.36.08-.54.66-5.3-.78-9.4-2.01-12.75-.53-1.42-1.2-2.85-2.08-4.43-.25-.43-.5-.87-.77-1.33-.09-.15-.18-.31-.28-.46-.43-.7-.9-1.44-1.4-2.23-.18-.26-.35-.53-.53-.81-.24-.36-.49-.74-.74-1.12-.26-.39-.52-.79-.8-1.2-.41-.61-.84-1.26-1.3-1.93-.61-.89-1.26-1.84-1.95-2.85-1.55-2.26-2.85-4.1-3.7-5.29h0s-.18-.27-.54-.78c-.07-.12-.16-.25-.26-.38-.09-.14-.19-.29-.31-.46-.45-.67-1.03-1.56-1.75-2.67-.22-.33-.45-.68-.68-1.06-.24-.37-.49-.77-.75-1.18-.54-.84-1.12-1.77-1.76-2.79-.13-.2-.26-.41-.38-.62-1.07-1.73-2.4-3.88-3.49-6.92-.55-1.5-.97-3.06-1.28-4.64,0,0,0-.02,0-.03.15.02.29.04.43.06.36.05.71.09,1.05.16,2.26.36,4.45.92,6.56,1.66,0,0,.01.02.02.02.15.24.3.47.46.71.25.39.51.79.78,1.2.03.04.05.08.08.12.28.44.58.88.88,1.34.8,1.2,1.65,2.48,2.57,3.85.37.54.74,1.09,1.12,1.66.77,1.14,1.58,2.34,2.43,3.61.67,1,1.37,2.03,2.09,3.1,6.96,10.31,10.67,16.01,12.2,22.55h0c1.33,5.81,1.16,10.07-.05,13.15h0Z"/><path class="cls-1" d="M102.42,64.02c0,2.29-.2,4.53-.58,6.71,0-.03,0-.08,0-.12,0,0,0,0,0,0h0v-.02h0v-.04c0-.08,0-.15,0-.22-.18-4.77-1.69-8.17-3.66-12.45-3.1-6.76-7.16-11.34-11.64-17.86-.21-.3-.41-.59-.61-.88-.19-.28-.38-.56-.57-.83-1.12-1.62-2.08-2.98-2.93-4.28-.28-.43-.56-.85-.82-1.27,0,0,0,0,0,0-.27-.43-.53-.85-.78-1.28-.26-.43-.51-.86-.75-1.31-.24-.45-.49-.91-.73-1.38h0s0-.01,0-.02c.21.09.42.18.63.28,13.26,6.07,22.47,19.45,22.47,34.99h0Z"/><path class="cls-1" d="M59.59,59c.17.63-3.03,2.64-6.62,2.68-3.73.04-7.06-2.04-6.9-2.68.11-.44,1.83-.03,6.99-.04,4.81-.01,6.42-.38,6.53.04Z"/><path class="cls-1" d="M81.85,59c.17.63-3.03,2.64-6.62,2.68-3.73.04-7.07-2.04-6.9-2.68.11-.44,1.83-.03,7-.04,4.81-.01,6.41-.38,6.53.04Z"/><path class="cls-1" d="M63.99,86.19c-12.25,0-22.19-9.93-22.19-22.19s9.94-22.2,22.19-22.2c.2,0,.4,0,.6,0,.36,1.13.8,2.35,1.36,3.65,1.96,4.59,3.73,6.98,7.09,12.05.06.09.11.18.18.26,4.02,6.07,7.78,10.44,10.41,16.59-3.71,7.04-11.11,11.83-19.63,11.83ZM92.82,74.76c-.75-4.96-3.62-10.04-7.11-15.32-1.11-1.68-2.29-3.38-3.48-5.11-2.33-3.38-4.44-6.36-6.28-9.03h0c-5.48-7.91-8.69-13.11-8.73-17.99,0-.32,0-.97-.05-1.6-.6-.05-1.2-.09-1.82-.11-.46-.01-.91-.02-1.37-.02-21.21,0-38.41,17.2-38.41,38.42s17.2,38.42,38.41,38.42c6.1,0,11.86-1.42,16.99-3.95,2.6-1.28,5.04-2.85,7.27-4.67.89-1.1,1.82-2.44,2.63-4.07.44-.86,1.43-2.98,1.99-5.85.29-2.16.52-5.36-.04-9.11h0Z"/></g></g></svg>