<?xml version="1.0" encoding="UTF-8"?><svg xmlns="http://www.w3.org/2000/svg" viewBox="0 0 128 128"><defs><style>.cls-1{fill:#fff;}.cls-1,.cls-2,.cls-3,.cls-4{fill-rule:evenodd;}.cls-5{fill:#eaeaea;}.cls-2{fill:#ac3a83;}.cls-6{isolation:isolate;}.cls-7{mix-blend-mode:multiply;}.cls-3{fill:#e79e42;}.cls-4{fill:#3f8dcf;}</style></defs><g class="cls-6"><g id="Layer_1"><path class="cls-2" d="M66.98,99.83c1.57,1.51,4.07,1.46,5.58-.11l21.87-22.78c1.51-1.57,1.46-4.07-.11-5.58L52.55,31.26c-1.57-1.51-4.07-1.46-5.58.11l-3.19,3.32c-.5.52-.48,1.35-.02,1.92,3.04,3.81,2.86,9.37-.6,12.98-3.47,3.61-9.02,4.01-12.95,1.13-.59-.43-1.41-.42-1.92.1l-3.19,3.32c-1.51,1.57-1.46,4.07.11,5.58l41.77,40.1Z"/><g class="cls-7"><path class="cls-5" d="M37.7,52.47l6.71-1.64,29.65,40.31-7.54,8.21-28.81-46.88Z"/></g><path class="cls-3" d="M66.25,98.92c1.09,1.89,3.5,2.53,5.39,1.44l27.35-15.79c1.89-1.09,2.53-3.5,1.44-5.39l-28.95-50.14c-1.09-1.89-3.5-2.53-5.39-1.44l-3.99,2.3c-.63.36-.84,1.17-.56,1.84,1.86,4.5.14,9.8-4.19,12.3-4.33,2.5-9.78,1.34-12.75-2.52-.44-.58-1.24-.8-1.87-.44l-3.99,2.3c-1.89,1.09-2.53,3.5-1.44,5.39l28.95,50.14Z"/><g class="cls-7"><path class="cls-5" d="M51.58,37.78l3.35-.91,19.94,55.46-8.88,5.99-17.15-55.57c-.66-2.14.58-4.39,2.74-4.98Z"/></g><path class="cls-4" d="M65.85,98c.56,2.11,2.73,3.36,4.83,2.79l30.5-8.17c2.11-.56,3.36-2.73,2.79-4.83l-14.99-55.92c-.56-2.11-2.73-3.36-4.83-2.79l-4.45,1.19c-.7.19-1.11.91-1.01,1.63.63,4.83-2.4,9.5-7.23,10.8-4.83,1.3-9.79-1.23-11.66-5.73-.28-.67-.99-1.09-1.69-.91l-4.45,1.19c-2.11.56-3.36,2.73-2.79,4.83l14.98,55.92Z"/><path class="cls-1" d="M59.45,57.33c-.19-.7.23-1.42.93-1.61l3.5-.94c.7-.19,1.42.23,1.61.93.19.7-.23,1.42-.93,1.61l-3.5.94c-.7.19-1.42-.23-1.61-.93ZM69.93,54.52c-.19-.7.23-1.42.93-1.61l6.99-1.87c.7-.19,1.42.23,1.61.93.19.7-.23,1.42-.93,1.61l-6.99,1.87c-.7.19-1.42-.23-1.61-.93ZM83.91,50.77c-.19-.7.23-1.42.93-1.61l3.5-.94c.7-.19,1.42.23,1.61.93.19.7-.23,1.42-.93,1.61l-3.5.94c-.7.19-1.42-.23-1.61-.93Z"/></g></g></svg>