<svg width="116" height="24" viewBox="0 0 116 24" fill="none" xmlns="http://www.w3.org/2000/svg">
<path d="M10.8494 0H11.4918C11.5712 0.0235541 11.65 0.0481788 11.7298 0.071376C12.2348 0.214128 12.6197 0.512658 12.8647 0.973925C13.034 1.29298 13.1757 1.62702 13.3274 1.95535C13.5315 2.39681 13.7333 2.84005 13.9364 3.2833C14.1322 3.70989 14.3281 4.13654 14.5242 4.56325C14.7264 5.0034 14.9286 5.44355 15.1309 5.8837C15.3278 6.31315 15.5243 6.74271 15.7206 7.1724C15.886 7.53296 16.0517 7.89335 16.2178 8.25356C16.4209 8.69609 16.624 9.13874 16.827 9.58151C16.9925 9.94196 17.1583 10.3024 17.3243 10.6627C17.5146 11.0757 17.7049 11.4888 17.8953 11.9019C17.8487 11.9321 17.7994 11.9587 17.7559 11.9928C17.456 12.2283 17.1568 12.4647 16.8584 12.7021C16.5571 12.9408 16.2561 13.1797 15.9553 13.4187C15.663 13.6494 15.3691 13.8783 15.0768 14.1091C14.7727 14.3491 14.4694 14.5897 14.1668 14.8307C13.8958 15.0455 13.6247 15.2604 13.3536 15.4752C13.0548 15.7121 12.7558 15.9488 12.4568 16.1854C12.1299 16.4438 11.8027 16.702 11.4754 16.9602C11.376 17.038 11.2723 17.1103 11.1708 17.185C11.0337 17.078 10.8963 16.9709 10.7603 16.8638C10.4916 16.652 10.2231 16.4399 9.95487 16.2275C9.68138 16.0103 9.40819 15.7937 9.13529 15.5778C8.84349 15.3476 8.55144 15.1177 8.25915 14.8881C7.95604 14.6483 7.65323 14.4083 7.35072 14.1681C7.08246 13.9556 6.81409 13.7433 6.5456 13.5315C6.2426 13.2914 5.93973 13.0516 5.63698 12.812C5.36432 12.5948 5.09292 12.377 4.81812 12.1625C4.70285 12.0724 4.58186 11.9894 4.46338 11.9032C4.6536 11.484 4.84239 11.0645 5.03439 10.6459C5.18874 10.3092 5.34791 9.97462 5.50279 9.63808C5.76331 9.07135 6.023 8.50409 6.28186 7.9363C6.50146 7.45665 6.72118 6.977 6.94102 6.49736C7.06164 6.23487 7.1853 5.97399 7.30575 5.71222C7.55973 5.15858 7.81305 4.60453 8.06573 4.05005C8.30519 3.5277 8.54519 3.00582 8.78573 2.48442C8.85907 2.32543 8.93348 2.16715 9.00717 2.00834C9.16956 1.65949 9.31766 1.30261 9.49699 0.963576C9.727 0.527825 10.0932 0.241251 10.5625 0.08922C10.6576 0.0576361 10.7537 0.0294426 10.8494 0Z" fill="#5A778A"/>
<path d="M0 21.7698C0.0315839 21.6586 0.053532 21.5437 0.096536 21.437C0.175763 21.2397 0.265519 21.0466 0.35349 20.853C0.577253 20.3607 0.801969 19.8687 1.02764 19.3769C1.15147 19.1077 1.28031 18.8405 1.40361 18.5709C1.61167 18.1157 1.81634 17.6589 2.02404 17.2035C2.14485 16.9391 2.26976 16.6766 2.39145 16.4125C2.61748 15.9213 2.8435 15.4298 3.06952 14.938C3.31601 14.4027 3.56267 13.8669 3.80952 13.3307C3.9719 12.9779 4.13392 12.6249 4.29559 12.2716C4.35197 12.1489 4.40818 12.0261 4.46421 11.9033C4.5827 11.9895 4.70368 12.0725 4.81895 12.1626C5.09321 12.3767 5.36462 12.595 5.63728 12.8112C5.94015 13.0514 6.24302 13.2914 6.54589 13.5312C6.81403 13.7436 7.0824 13.9558 7.35101 14.1679C7.654 14.4077 7.95682 14.6477 8.25945 14.8879C8.55126 15.1182 8.84331 15.3481 9.13559 15.5776C9.4092 15.7933 9.68203 16.0093 9.9541 16.2259C10.2221 16.4381 10.4907 16.6504 10.7599 16.8627C10.8964 16.9698 11.0338 17.0768 11.1703 17.1839C11.1703 17.1964 11.1721 17.2089 11.1732 17.2212C11.1578 17.2388 11.1414 17.2554 11.1239 17.271C10.9348 17.4205 10.7455 17.5696 10.556 17.7183C10.3665 17.867 10.177 18.016 9.98764 18.1653C9.74818 18.3548 9.50978 18.5456 9.27031 18.7351C9.08135 18.8846 8.89149 19.0331 8.70234 19.1824C8.49464 19.3466 8.28723 19.5109 8.08012 19.6755C7.88883 19.8268 7.69665 19.977 7.50554 20.1285C7.2662 20.3188 7.02726 20.5092 6.78875 20.6995C6.60222 20.848 6.41557 20.9963 6.2288 21.1445C6.01694 21.3122 5.80477 21.4794 5.59231 21.6463C5.4053 21.7944 5.21854 21.9427 5.03201 22.091L4.39587 22.5935L3.83503 23.0367C3.62537 23.2025 3.41409 23.3663 3.20603 23.534C3.01813 23.6855 2.82007 23.8183 2.58845 23.8931C2.46997 23.9312 2.34988 23.9644 2.2305 24.0001H1.6238C1.56403 23.9792 1.50478 23.956 1.44429 23.9377C1.08691 23.8333 0.764274 23.6345 0.510338 23.3622C0.332034 23.1727 0.193942 22.9491 0.104387 22.7048C0.0647737 22.5978 0.0344389 22.4859 0 22.3763L0 21.7698Z" fill="#08324F"/>
<path d="M11.1728 17.2211C11.1717 17.2088 11.1708 17.1963 11.1699 17.1838C11.2715 17.1091 11.3751 17.0368 11.4745 16.959C11.8025 16.7017 12.1296 16.4434 12.4559 16.1842C12.755 15.9476 13.054 15.7109 13.3528 15.474C13.6239 15.2599 13.8949 15.045 14.1659 14.8295C14.4693 14.5889 14.7726 14.3484 15.076 14.1079C15.3683 13.8771 15.6621 13.6482 15.9544 13.4175C16.256 13.1796 16.557 12.9407 16.8575 12.7009C17.1567 12.4641 17.4558 12.2276 17.7547 11.9912C17.7983 11.9571 17.8475 11.9305 17.8941 11.9004C18.0912 12.3286 18.2882 12.7569 18.4852 13.1852C18.7176 13.6912 18.9495 14.1975 19.1812 14.704C19.3834 15.146 19.5862 15.5879 19.7896 16.0298C19.9851 16.4557 20.1805 16.8816 20.376 17.3075C20.6083 17.8138 20.8403 18.3201 21.0719 18.8264C21.2741 19.2656 21.476 19.7047 21.6774 20.1438C21.8558 20.5351 22.0389 20.9246 22.2093 21.3197C22.2737 21.4687 22.3081 21.6307 22.3561 21.7869V22.34C22.3453 22.3889 22.341 22.4407 22.3222 22.4863C22.2441 22.6758 22.1795 22.8737 22.0771 23.0497C21.8587 23.4264 21.5341 23.6921 21.1313 23.8552C20.985 23.9146 20.8299 23.952 20.6788 23.9995H20.0721C20.0543 23.9877 20.0364 23.969 20.0163 23.9651C19.7378 23.9088 19.4762 23.7889 19.2518 23.6146C18.9856 23.4105 18.7258 23.1978 18.4622 22.9901C18.1619 22.7531 17.8596 22.5186 17.5599 22.2808C17.2001 21.9953 16.8434 21.7058 16.483 21.4212C16.0488 21.0783 15.6115 20.7396 15.177 20.397C14.6892 20.0125 14.2024 19.6268 13.7164 19.24C13.2718 18.8863 12.8287 18.5305 12.3835 18.1774C11.9816 17.8576 11.5781 17.5389 11.1728 17.2211Z" fill="#9FA7AD"/>
<path fill-rule="evenodd" clip-rule="evenodd" d="M28.272 18.2266L28.272 18.2265L28.272 18.2265C28.4706 17.7277 28.669 17.2293 28.855 16.7269C29.5778 14.7681 30.2939 12.8072 31.0033 10.8444C31.4389 9.63926 31.8698 8.43253 32.3007 7.22576L32.301 7.22508C32.5654 6.48436 32.8299 5.74362 33.0955 5.00323C33.1546 4.83483 33.2385 4.72316 33.4707 4.73084C34.1981 4.75329 34.9272 4.74975 35.6569 4.73084C35.8779 4.72552 35.9594 4.81297 36.0262 5.00027C36.8766 7.38299 37.7304 9.76452 38.5875 12.1449C39.152 13.7106 39.7204 15.2746 40.2927 16.8368C40.4881 17.3721 40.6867 17.9061 40.8888 18.4492C40.9867 18.7123 41.0854 18.9777 41.1849 19.2463C41.1534 19.249 41.1242 19.2521 41.0965 19.2551L41.0965 19.2551C41.0437 19.2608 40.9962 19.2658 40.9486 19.2658C40.7478 19.2658 40.5471 19.2653 40.3463 19.2648H40.3463C39.7594 19.2634 39.1724 19.2619 38.5851 19.2729C38.3772 19.2765 38.298 19.2038 38.2371 19.0165C38.0366 18.3968 37.832 17.7783 37.6275 17.1598L37.6275 17.1598C37.4301 16.5629 37.2327 15.966 37.0389 15.368C36.9697 15.1559 36.8811 15.0631 36.6336 15.0661C35.2267 15.0814 33.8193 15.0791 32.4119 15.0661C32.1862 15.0661 32.0875 15.1375 32.019 15.3467C31.8039 15.9997 31.5849 16.6509 31.3659 17.3023C31.1709 17.8823 30.9758 18.4623 30.7835 19.0437C30.728 19.2138 30.6588 19.2729 30.4816 19.2729C29.88 19.2665 29.2784 19.2675 28.6768 19.2686C28.4512 19.269 28.2256 19.2694 28 19.2694V18.9131C28.0899 18.6839 28.1809 18.4552 28.272 18.2266ZM32.9141 12.7836C33.1174 12.9018 35.5883 12.9561 36.1431 12.8527C35.6378 11.3133 35.1324 9.77397 34.6012 8.1588L34.6209 8.15453L34.6163 8.05697L34.461 8.09056L34.4656 8.18811L34.4971 8.18131C34.4908 8.18969 34.4847 8.19778 34.4787 8.20562C34.4276 8.273 34.3905 8.32207 34.3694 8.37759C34.3104 8.53058 34.2604 8.68717 34.2104 8.84373L34.2104 8.84374L34.2104 8.84386C34.1903 8.90674 34.1703 8.96962 34.1496 9.03226L32.9141 12.7836ZM34.4971 8.18131L34.6012 8.1588C34.5921 8.13111 34.583 8.1034 34.5738 8.07566C34.5459 8.11602 34.5203 8.15059 34.4971 8.18131Z" fill="#5A778A"/>
<path d="M115.847 19.2674H106.354V4.75488H115.653V6.9115H109.012V10.5157H114.59V12.7609H109.012V17.024H115.847V19.2674Z" fill="black"/>
<path d="M100.488 4.50118C100.906 4.63294 101.329 4.75229 101.744 4.89942C102.612 5.20725 103.339 5.72661 103.953 6.41082C103.997 6.45986 103.992 6.61171 103.949 6.67021C103.772 6.91009 103.577 7.13698 103.377 7.35914C103.112 7.65457 102.836 7.93936 102.59 8.20111C102.154 7.87436 101.751 7.52635 101.305 7.25042C100.62 6.82619 99.8725 6.67966 99.0553 6.79251C98.3286 6.89355 97.6514 7.08794 97.0984 7.57185C96.7439 7.88027 96.3894 8.21529 96.1436 8.60702C95.7554 9.22565 95.4753 9.9069 95.4091 10.6537C95.3577 11.2334 95.2756 11.8165 95.2998 12.3944C95.3512 13.6435 95.6543 14.834 96.4449 15.8361C96.9793 16.515 97.7433 16.9754 98.5933 17.1307C99.6869 17.3428 100.742 17.1898 101.675 16.5398C102.046 16.2816 102.372 15.9561 102.709 15.6535C102.818 15.5543 102.899 15.4934 103.024 15.6258C103.497 16.1292 103.979 16.6302 104.459 17.1301C103.469 18.2852 102.265 19.0545 100.791 19.3818C100.592 19.4261 100.392 19.4628 100.192 19.5H98.3014C98.1401 19.4409 97.9829 19.3582 97.8169 19.3281C96.4018 19.0693 95.2348 18.3667 94.3054 17.2949C93.4741 16.336 93.0056 15.1915 92.7414 13.9501C92.5568 13.0431 92.5038 12.1142 92.5843 11.192C92.7107 9.59079 93.1793 8.10362 94.2209 6.82324C95.1663 5.6563 96.403 4.99573 97.8222 4.61817C97.9811 4.57622 98.1413 4.53841 98.3014 4.5L100.488 4.50118Z" fill="black"/>
<path fill-rule="evenodd" clip-rule="evenodd" d="M67.4219 19.26H70.0736L70.0801 14.0746H72.1091L75.0634 19.2576H78.1193L74.892 13.7195C75.0108 13.6541 75.1289 13.5873 75.2471 13.5206C75.4842 13.3868 75.7214 13.2529 75.9638 13.1287C76.8424 12.6796 77.3653 11.9411 77.6903 11.0394C78.0265 10.1011 78.0525 9.14455 77.8676 8.16964C77.6253 6.89576 76.9198 5.97816 75.7789 5.38731C74.8849 4.92467 73.9083 4.7675 72.9233 4.74741C71.6918 4.72211 70.4611 4.72768 69.2309 4.73324C68.7088 4.7356 68.1867 4.73796 67.6647 4.73796C67.6066 4.73796 67.5488 4.74215 67.4941 4.74612C67.4693 4.74792 67.4451 4.74967 67.4219 4.75096V19.26ZM71.0308 11.6572C70.7125 11.6523 70.3934 11.6474 70.0736 11.6474L70.076 7.09606C70.3405 7.09606 70.604 7.09365 70.8668 7.09125C71.4962 7.08549 72.1214 7.07977 72.7466 7.10728C73.2125 7.1319 73.6732 7.21649 74.1174 7.35899C74.7325 7.55161 75.1077 8.01484 75.24 8.64823C75.3901 9.36434 75.3287 10.0521 74.9098 10.6814C74.5455 11.2373 73.9395 11.5879 73.2761 11.6267C72.5319 11.6803 71.7835 11.6688 71.0308 11.6572Z" fill="black"/>
<path fill-rule="evenodd" clip-rule="evenodd" d="M42.0742 4.73794V19.2091C42.5757 19.2091 43.0748 19.2096 43.5725 19.2101C44.6251 19.2111 45.6708 19.2121 46.7171 19.2085C47.7745 19.21 48.8206 18.9923 49.7896 18.5692C50.6995 18.1734 51.4735 17.6044 52.0756 16.8298C53.073 15.5452 53.4298 14.0303 53.5143 12.4415C53.5305 12.1452 53.5108 11.8471 53.4912 11.5488C53.4799 11.3777 53.4686 11.2066 53.4641 11.0358C53.4452 10.2352 53.2614 9.4695 52.9914 8.72029C52.6188 7.65873 51.935 6.73404 51.0292 6.06677C49.8233 5.17517 48.4188 4.81062 46.9523 4.75153C45.8779 4.70958 44.8015 4.71945 43.7251 4.72932C43.2553 4.73363 42.7855 4.73794 42.3159 4.73794H42.0742ZM44.7396 17.1553V6.9241C44.9637 6.92694 45.1872 6.92501 45.41 6.92308C46.3436 6.915 47.2639 6.90703 48.1612 7.25143C49.2513 7.67094 49.9751 8.429 50.3887 9.50258C50.6251 10.12 50.709 10.7658 50.7574 11.4282C50.8448 12.6211 50.6989 13.7632 50.1772 14.8404C49.6147 16.0014 48.6646 16.6921 47.4043 16.8953C46.8046 16.9931 46.1964 17.0395 45.579 17.0866C45.3011 17.1078 45.0213 17.1291 44.7396 17.1553Z" fill="#5A778A"/>
<path fill-rule="evenodd" clip-rule="evenodd" d="M79.6546 18.9054C79.614 19.023 79.5725 19.1432 79.5293 19.267C79.7455 19.267 79.9582 19.2673 80.1683 19.2677C80.8504 19.2687 81.5045 19.2697 82.1586 19.2593C82.2248 19.2581 82.3175 19.1264 82.3483 19.0378C82.7796 17.7946 83.2091 16.5497 83.6227 15.3012C83.6765 15.1334 83.7344 15.0708 83.9182 15.0708C85.3764 15.0761 86.8334 15.0743 88.2905 15.0708C88.4465 15.0702 88.5132 15.1062 88.5723 15.2764C88.7757 15.8991 88.9857 16.5196 89.1957 17.14C89.4138 17.7846 89.6319 18.4292 89.8426 19.0762C89.8964 19.2416 89.9632 19.2676 90.1032 19.2676H91.9053H92.765C92.5524 18.6866 92.342 18.1143 92.1333 17.5468C91.8637 16.8133 91.597 16.0879 91.3322 15.3621C90.7598 13.7979 90.1907 12.2329 89.6246 10.6671C88.9329 8.76459 88.2485 6.85908 87.5714 4.95063C87.5165 4.79346 87.4639 4.73438 87.2967 4.73438C86.9598 4.7377 86.6231 4.73781 86.2865 4.73793C85.8454 4.73808 85.4044 4.73823 84.9634 4.7456C84.8615 4.76111 84.7726 4.82313 84.7229 4.9134C84.5965 5.1967 84.4909 5.48988 84.3856 5.78221C84.3787 5.80143 84.3718 5.82065 84.3648 5.83986C83.5881 8.0142 82.8079 10.187 82.0245 12.3582C81.5047 13.7962 80.9824 15.2314 80.4593 16.6685C80.2737 17.1787 80.0879 17.6891 79.9021 18.1999C79.8185 18.4308 79.7385 18.6627 79.6546 18.9054ZM84.9929 11.2541C85.3596 10.1388 85.7285 9.01677 86.1102 7.85645C86.6798 9.58292 87.2234 11.2302 87.7676 12.8787H84.4588C84.6371 12.3364 84.8148 11.796 84.9929 11.2541Z" fill="black"/>
<path d="M61.1428 6.91268V19.2503H58.4946V6.93395H54.0112V4.75488H65.615V6.91268H61.1428Z" fill="black"/>
</svg>
