<svg width="120" height="27" viewBox="0 0 120 27" fill="none" xmlns="http://www.w3.org/2000/svg">
<path d="M55.4982 19.7851H49.8969C48.3457 19.7851 46.8581 19.193 45.7613 18.139C44.6645 17.0851 44.0483 15.6556 44.0483 14.165V13.3297C44.0483 11.8391 44.6645 10.4096 45.7613 9.35563C46.8581 8.30166 48.3457 7.70955 49.8969 7.70955H52.6949V4.50098H55.4982V19.7851ZM49.8969 10.4098C49.0912 10.4108 48.3188 10.7187 47.749 11.266C47.1791 11.8134 46.8584 12.5555 46.8569 13.3297V14.1701C46.858 14.9444 47.1787 15.6867 47.7486 16.2341C48.3185 16.7815 49.0911 17.0894 49.8969 17.09H52.6949V10.4098H49.8969Z" fill="#63B245"/>
<path d="M99.8303 25.5003C99.3573 25.5001 98.8861 25.4452 98.4267 25.3368L96.6176 24.9127L97.2822 22.2956L99.0953 22.7196C99.5472 22.8255 100.018 22.8313 100.473 22.7366C100.927 22.6419 101.354 22.4492 101.72 22.173C102.085 21.8968 102.381 21.5444 102.584 21.1423C102.787 20.7403 102.893 20.2991 102.893 19.8521V19.8099H100.102C98.5504 19.8099 97.0628 19.2178 95.9659 18.1639C94.8691 17.1099 94.2529 15.6804 94.2529 14.1898V13.3481C94.2547 11.8587 94.8717 10.4308 95.9683 9.3782C97.0649 8.32561 98.5515 7.73438 100.102 7.73438H105.704V19.8457C105.703 21.3411 105.086 22.7752 103.987 23.8339C102.888 24.8926 101.397 25.4895 99.841 25.4939L99.8303 25.5003ZM100.096 10.4346C99.2906 10.4356 98.5184 10.7436 97.9487 11.2909C97.3791 11.8383 97.0586 12.5804 97.0576 13.3545V14.1962C97.0586 14.9703 97.3791 15.7124 97.9487 16.2598C98.5184 16.8072 99.2906 17.1151 100.096 17.1161H102.888V10.4346H100.096Z" fill="#455A64"/>
<path d="M82.6701 19.7483H76.9545C75.4176 19.7466 73.9442 19.1592 72.8575 18.1149C71.7708 17.0706 71.1595 15.6548 71.1577 14.178V13.2685C71.1595 11.7917 71.7708 10.3759 72.8575 9.33161C73.9442 8.28734 75.4176 7.69993 76.9545 7.69824H82.6701V15.0708H74.1059C74.3026 15.6472 74.6836 16.1493 75.1946 16.5054C75.7056 16.8616 76.3205 17.0537 76.9518 17.0544H82.6675L82.6701 19.7483ZM74.1059 12.3757H79.8694V10.3921H76.9518C76.3205 10.3928 75.7056 10.5849 75.1946 10.9411C74.6836 11.2973 74.3026 11.7993 74.1059 12.3757Z" fill="#455A64"/>
<path d="M120 19.7483H114.284C112.748 19.7462 111.274 19.1587 110.188 18.1145C109.101 17.0703 108.49 15.6547 108.488 14.178V13.2685C108.489 11.7917 109.101 10.3759 110.187 9.33161C111.274 8.28734 112.747 7.69993 114.284 7.69824H120V15.0708H111.436C111.632 15.647 112.013 16.1489 112.524 16.5051C113.035 16.8612 113.649 17.0535 114.28 17.0544H119.996L120 19.7483ZM111.436 12.3757H117.197V10.3921H114.28C113.649 10.3931 113.035 10.5853 112.524 10.9415C112.013 11.2976 111.632 11.7995 111.436 12.3757Z" fill="#455A64"/>
<path d="M92.6581 7.76459C91.0985 7.7635 89.5822 8.25742 88.3448 9.16961V7.69434H85.5415V14.5496C85.5415 14.5687 85.5415 14.5866 85.5415 14.6045V17.7326V19.7494H88.3448V14.5496C88.3619 13.4607 88.8237 12.4219 89.6306 11.6573C90.4375 10.8926 91.5249 10.4634 92.6581 10.4622H93.1034V7.76459H92.6581Z" fill="#455A64"/>
<path d="M65.7795 19.7496L72.0282 4.5H69.0109L64.9368 14.4207L60.9212 4.5H57.8374L64.1605 19.7496H65.7795Z" fill="#455A64"/>
<path d="M40.1721 19.7293H43.1908L36.9501 4.50391H35.3125L29 19.7293H32.0838L32.8813 17.7469H39.3533L40.1721 19.7293ZM33.9766 15.0518L36.1034 9.8149L38.2554 15.0518H33.9766Z" fill="#63B245"/>
<path d="M4.25287 15.6591H0V7.67708C0.00321792 5.7764 0.759344 3.95449 2.10272 2.61051C3.4461 1.26652 5.26719 0.510056 7.167 0.506836H15.3658V4.76434H7.167C6.39399 4.76506 5.65284 5.07259 5.10624 5.61944C4.55963 6.16629 4.25224 6.90778 4.25152 7.68114L4.25287 15.6591Z" fill="#455A64"/>
<path d="M16.8291 24.4917H8.63037V20.2342H16.8291C17.602 20.2327 18.3428 19.9247 18.8891 19.3777C19.4354 18.8307 19.7425 18.0893 19.7432 17.316V9.33398H24.0002V17.316C23.998 19.2182 23.2419 21.0419 21.8975 22.3871C20.5532 23.7323 18.7305 24.4892 16.8291 24.4917Z" fill="#455A64"/>
<path d="M4.47742 20.0469H0.0244141V24.5006H4.47742V20.0469Z" fill="#63B245"/>
<path d="M14.5463 9.94141H10.0933V14.3951H14.5463V9.94141Z" fill="#63B245"/>
<path d="M23.973 0.5H19.52V4.95367H23.973V0.5Z" fill="#63B245"/>
</svg>
