<?xml version="1.0" encoding="UTF-8"?><svg id="Layer_1" xmlns="http://www.w3.org/2000/svg" viewBox="0 0 128 128"><defs><style>.cls-1{fill:#3c3c3c;}.cls-2{fill:#d35966;}</style></defs><path class="cls-2" d="M60.41,32.39h-1.64c-7.31,0-14.45,2.29-20.39,6.55-5.95,4.26-10.41,10.27-12.77,17.19-.57,1.99-.93,4.04-1.06,6.11-.05,9.41,0,39.2,0,39.2,0,0,30.84.03,38.21,0h2.91c1.36-.07,2.72-.28,4.03-.65,7.01-2.33,13.11-6.81,17.43-12.79,4.33-5.99,6.66-13.19,6.67-20.57,0-1.07-.14-13.59-.13-19.91h10.59v-15.13h-43.85ZM39.09,67.28c.03-3.89,1.21-7.68,3.39-10.9,2.18-3.22,5.27-5.72,8.87-7.19,3.6-1.47,7.55-1.84,11.36-1.06,3.81.78,7.3,2.66,10.04,5.42,2.74,2.76,4.6,6.27,5.35,10.08.75,3.82.35,7.77-1.15,11.36-1.5,3.59-4.02,6.66-7.26,8.81-3.23,2.16-7.04,3.31-10.92,3.31,0,0-12.98.03-19.69.03v-19.87Z"/><path class="cls-1" d="M46.71,72.74c0,1.26.37,2.49,1.07,3.54.7,1.05,1.7,1.86,2.86,2.35,1.16.48,2.44.61,3.68.36,1.24-.25,2.37-.85,3.26-1.74.89-.89,1.5-2.03,1.74-3.26.25-1.24.12-2.52-.36-3.68-.48-1.16-1.3-2.16-2.34-2.86-1.05-.7-2.28-1.07-3.54-1.07-1.69,0-3.31.67-4.5,1.87-1.19,1.19-1.86,2.81-1.86,4.5"/></svg>