<?xml version="1.0" encoding="UTF-8"?><svg id="Layer_1" xmlns="http://www.w3.org/2000/svg" viewBox="0 0 128 128"><defs><style>.cls-1{fill:#656c5a;}.cls-2{fill:#d4dac9;}.cls-3{fill:#e1e8d5;}.cls-4{fill:#e6ecdb;}.cls-5{fill:#d9e0ce;}.cls-6{fill:#f6f9f2;}.cls-7{fill:#616956;}.cls-8{fill:#ebf1e2;}.cls-9{fill:#f0f5ea;}.cls-10{fill:#606754;}.cls-11{fill:#d5dbcb;}.cls-12{fill:#ccd3c1;}.cls-13{fill:#636a57;}.cls-14{fill:#d3d8cd;}.cls-15{fill:#f0f4ea;}.cls-16{fill:#ced4c2;}.cls-17{fill:#626a55;}.cls-18{fill:#e1e8d6;}.cls-19{fill:#f8fbf6;}.cls-20{fill:#dce2d2;}.cls-21{fill:#d5dbc9;}</style></defs><circle class="cls-10" cx="64" cy="64" r="44"/><path class="cls-16" d="M86.25,65.4c.15,0,.31-.03.44.02.97.37,1.77.05,2.59-.55-1.25-.99-2.5-1.93-3.42-3.19-.07-.64-.25-1.3.45-1.69.8-.41,1.6.36,2.26.7.45-.22.25-.67.42-.98.25-.44.4-.97,1.06-.95.43.01.94.51,1.01,1.15.27,1.78-.17,3.35-1.12,4.91,5.89,4.19,12.48-.54,17.67-3.61,0,.08,0,.17,0,.25-2.85,2.1-6,3.86-9.4,4.9-3.09.99-5.86.42-8.59-1.22-1.1.7-2.3,1.11-3.63.5.03-.15.17-.16.27-.23Z"/><path class="cls-11" d="M20.25,61.85c6.59,4.83,13.97,12.41,21.77,5.04.78.39.82.55.27,1.12-.03-.18-.06-.36-.1-.61-8.09,7.06-15.14-.18-21.95-4.92v4.21c-.15-.07-.21-.18-.21-.34,0-1.26,0-2.53-.01-3.79,0-.28.14-.48.23-.71Z"/><path class="cls-6" d="M42.29,68.01c.52-.52-.03-.79-.27-1.12.2-.3.41-.56.45-.96.33-3.56,1.18-7.01,2.17-10.44,1.39-4.63,3.03-9.33,5.92-13.26.41-.08.53-.59.97-.65.34.02.36.28.39.53-.13.87-.76,1.49-1.15,2.23-3.43,6.66-5.1,13.97-6.3,21.3-.14.34-.12.72-.23,1.07-.07.16-.2.33-.2.49-.05,2.45-.72,5.19.61,7.43,0,.37-.18.35-.42.19-2.14-1.35-2-4.58-1.95-6.82Z"/><path class="cls-18" d="M51.73,42.07c-.01-.1-.03-.21-.05-.38-.44.06-.6.73-1.12.54,1.13-1.58,2.65-3.45,4.73-3.52,1.28,0,2.02.65,2.16,1.95.18,1.62-.11,3.18-.57,4.74-1.06,3.58-2.69,6.91-4.49,10.16-2.3,3.98-4.81,7.97-8.14,11.16-.08-.3-.48-.58-.06-.91,5.27-5.38,8.86-12.21,11.59-19.18.53-1.74,2.16-5.94.23-7.12-.86-.46-1.52.17-2.19.6-.47.3-.76.78-1.11,1.2-.27.32-.43.8-.98.76Z"/><path class="cls-19" d="M54.35,74.36c-.21,0-.43-.01-.64-.02-.09-.04-.17-.09-.24-.16-1.09-.64-1.23-1.73-1.33-2.84-.21-1.04.05-2.11-.23-3.14.43-1.46.39-3.02.87-4.47.22-.69.4-.76,1.24-.75.35.58.16,1.21.05,1.8-.19,1.78-1.92,8.91.28,9.42.14.05.08.14,0,.15Z"/><path class="cls-5" d="M54.35,74.36c0-.05,0-.1,0-.15,1.73-.92,2.45-2.73,3.4-4.35-2.06-1.52-2.66-5.05-.38-6.74.67-.38,1.27-.53,1.95.13.83,2.23-.28,4.23-.95,6.32,1,.69,3.89-.9,5.42-2.25-.32,1.62-3.68,3.2-5.7,2.8-.66.88-1.05,1.97-1.8,2.81-.54.61-1,1.37-1.95,1.44Z"/><path class="cls-9" d="M74.8,74.45c-.08,1.28-.53,2.52-2.26,2.73-.64.08-1.17-.15-1.61-.51-.96-.76-1.29-2.75-.39-3.88.7-.88,1.77-1.14,2.62-.83.96.35,1.64,1.38,1.64,2.48Z"/><path class="cls-20" d="M97.66,72.01c-.24.2-.41.33-.61.49v4.83c-1.33-1.28-2.08-2.77-3.22-3.98-.25,1.97-.18,2.91.3,3.65h-1.4c.07-.3.29-.35.52-.47v-4.02c-.03-.19-.38-.2-.5-.47.36-.14.71-.03,1.09-.07.89,1.16,1.77,2.3,2.65,3.45-.07-1.14.49-2.31-.31-3.4h1.47Z"/><path class="cls-3" d="M86.25,65.4c-.03.14-.15.19-.27.23-.93-.22-1.76-.69-2.61-1.08-2.63-1.21-5.38-1.84-8.28-1.57-3.97.33-7.56,2.15-10.88,4.23-.55.3-.66.95-1.33,1.3.26-.7.4-.87.92-1.21,2.54-1.66,5.34-3.4,8.29-4.19,3.49-.93,6.91-.77,10.25.64,1.33.48,2.54,1.34,3.91,1.64Z"/><path class="cls-4" d="M89.54,76.99h-3.64c.52-.85.52-4.11,0-4.97h3.4c.12.43.07.81-.01,1.21-.54-.04-.26-.53-.54-.8-.45-.07-.98-.05-1.56,0v1.65c.33.2.66.05.8.08.46-.05.39-.45.7-.54.29.54.2,1.07.07,1.62-.43-.04-.23-.46-.53-.58-.31-.05-.66-.07-1.05.05v1.87h1.82c.29-.14-.04-.63.42-.83.23.39.14.79.12,1.25Z"/><path class="cls-14" d="M104.84,73.29c-.57-.12-.42-.63-.63-.85-.33-.07-.61-.08-.94.04v4.15s.33.08.51.35h-1.9c.43-.37.5-.79.49-1.28-.03-1.05-.01-2.11-.01-3.1-.32-.32-.6-.17-.7-.16-.55.18-.27.7-.72.86-.26-.4-.08-.81-.17-1.27h4.16c.03.44.07.82-.08,1.27Z"/><path class="cls-8" d="M77.77,72.01h1.97c-.01.28-.38.22-.42.55.36.98.74,2.02,1.16,3.19.53-1.07.79-2.11,1.12-3.03.05-.36-.27-.41-.32-.69h1.48c-.94.64-.97,1.67-1.35,2.53-.36.82-.54,1.72-1.07,2.61-1.14-1.63-1.14-3.73-2.58-5.16Z"/><path class="cls-15" d="M63.38,71.99h1.78c-.33.38-.52.7-.5,1.15.05,1.09.02,2.19.02,3.3.46.29.94.1,1.34.15.43-.15.25-.71.71-.85.21.37.14.75.13,1.22h-3.4c.64-.71.36-1.58.35-2.4,0-.83.3-1.74-.43-2.57Z"/><path class="cls-2" d="M51.91,68.2c.51.94.13,2.1.23,3.14-.33-.34-.16-.76-.19-1.15-.03-.39,0-.78,0-1.39-1.34,2.08-2.6,3.95-4.4,5.37-.23.1-.26-.01-.22-.2,1.96-1.58,3.17-3.77,4.59-5.78Z"/><path class="cls-12" d="M47.32,73.98c.02.13.1.18.22.2-.85.77-2.28,1.56-3.31.65.16-.02.36.04.42-.19.96.56,1.86-.18,2.66-.66Z"/><path class="cls-21" d="M87.43,71.6c.08-.5.43-.8.7-1.13.36-.03.46.18.51.45-.26.44-.76.5-1.21.68Z"/><path class="cls-5" d="M53.46,74.18c.12,0,.2.05.24.16-.14.04-.2-.05-.24-.16Z"/><path class="cls-7" d="M89.58,64.53c-1.03-.64-4.46-2.91-3.17-4.21,1.01-.24,1.61.61,2.44,1.03.49-.71.21-1.82,1.12-2.31,1.14.95.98,3.43-.39,5.49Z"/><path class="cls-17" d="M51.73,42.07c1.01-1.11,1.76-2.58,3.37-2.94.86-.2,1.63.18,1.87,1.02.69,3.02-.81,6.11-1.85,8.89-2.65,6.23-6.19,12.07-10.71,17.11-.21-.06-.18-.23-.22-.35,1.24-8.23,3.29-16.53,7.54-23.73Z"/><path class="cls-13" d="M57.98,69.39c-1.72-1.12-2.1-3.46-1.06-5.32.37-.55,1.02-1.15,1.72-.85.47.18.57.6.58,1.07.02,1.78-.46,3.43-1.23,5.1Z"/><path class="cls-1" d="M73.93,74.55c-.03.45-.14.95-.34,1.41-.43.98-1.36,1.11-2.11.32-.4-.42-.53-.95-.59-1.5-.07-.63.09-1.24.35-1.8.4-.88,1.26-1.03,1.96-.39.45.41.74,1.16.73,1.94Z"/></svg>