<?xml version="1.0" encoding="UTF-8"?><svg id="Layer_1" xmlns="http://www.w3.org/2000/svg" viewBox="0 0 128 128"><defs><style>.cls-1{fill:#221f20;}.cls-1,.cls-2,.cls-3{fill-rule:evenodd;}.cls-4{fill:#fff;}.cls-2{fill:#5fb595;}.cls-3{fill:#ec6b66;}</style></defs><g id="_1723864070560"><circle class="cls-4" cx="51.92" cy="72.16" r="10.69"/><circle class="cls-4" cx="75.92" cy="72.16" r="10.69" transform="translate(-28.65 78.22) rotate(-46.87)"/><path class="cls-1" d="M40,77.96c.62,1.26,1.44,2.41,2.42,3.41l-4.33,3.26c-.93.7-2.25.52-2.96-.4-.71-.93-.53-2.25.4-2.96l4.47-3.31h0ZM76.81,68.8c1.83.49,2.92,2.38,2.43,4.21-.49,1.83-2.38,2.92-4.21,2.43-1.34-.36-2.29-1.47-2.5-2.75l2.39-.49c.4-.08.42-.43.03-.77l-1.68-1.49c.83-1.01,2.2-1.49,3.54-1.13h0ZM52.94,68.8c1.83.49,2.92,2.38,2.43,4.21-.49,1.83-2.38,2.92-4.21,2.43-1.34-.36-2.29-1.47-2.5-2.75l2.39-.49c.4-.08.42-.43.03-.77l-1.68-1.49c.83-1.01,2.2-1.49,3.54-1.13h0ZM52.08,59.96c-6.72,0-12.16,5.44-12.16,12.16s5.44,12.16,12.16,12.16c5.91,0,10.84-4.22,11.93-9.82,1.09,5.59,6.02,9.82,11.93,9.82,6.72,0,12.16-5.44,12.16-12.16s-5.44-12.16-12.16-12.16c-5.91,0-10.84,4.22-11.93,9.82-1.09-5.59-6.02-9.82-11.93-9.82ZM52.08,62.3c5.43,0,9.82,4.4,9.82,9.82s-4.4,9.82-9.82,9.82-9.82-4.4-9.82-9.82,4.4-9.82,9.82-9.82ZM75.94,62.3c5.43,0,9.82,4.4,9.82,9.82s-4.4,9.82-9.82,9.82-9.82-4.4-9.82-9.82,4.4-9.82,9.82-9.82Z"/><path class="cls-3" d="M69.34,82.33l-5.28,24.05-5.29-24.1c2.67-1.76,4.61-4.56,5.24-7.81.64,3.29,2.61,6.11,5.33,7.87h0ZM86.15,58.02c-4.9-2.73-8.11-3.32-14.24-1.77,4.95-5.51,12.4-8.66,18.91-5.51,6.72,3.25,2.02,11-4.67,7.28ZM88.25,45.63c-7.82.07-12.01,1.51-17.93,7.36,1.45-9.67,7.66-18.26,17.68-18.9,10.33-.67,10.91,11.44.25,11.55ZM72.9,35.67c4.87.35,6.63-2.34,5.31-3.91-1.3-1.53-4.89-.64-5.31,3.91ZM74.02,26.87c-3.28,1.24-4.8,2.48-6.23,5.86-1.14-4.3-.08-8.88,4.03-10.7,4.24-1.87,6.68,3.15,2.2,4.83h0ZM64.89,40.03c2.08,2.4,2.69,4.07,2.18,7.44,3.08-3.04,4.5-7.25,2.03-10.47-2.54-3.33-7.05-.25-4.22,3.03h0ZM41.78,57.92c6.05-3.36,10.01-4.09,17.57-2.17-6.09-6.8-15.28-10.69-23.32-6.82-8.29,4-2.5,13.57,5.75,8.99h0ZM45.89,43.63c-1.14-5.68-5.36-6.81-7.03-4.77-1.64,2,.76,5.81,7.03,4.77Z"/><path class="cls-2" d="M62.54,34.91c-2.1,8.17-1.52,12.95,4.01,20.75-11.47-4.23-20.28-13.11-18.26-23.73,2.08-10.96,17.12-8.16,14.25,2.98h0Z"/></g></svg>