<?xml version="1.0" encoding="UTF-8"?><svg id="Layer_1" xmlns="http://www.w3.org/2000/svg" viewBox="0 0 128 128"><defs><style>.cls-1{fill:#fefafb;}.cls-2{fill:#fdf8f9;}.cls-3{fill:#f33b57;}</style></defs><path class="cls-3" d="M108.77,50.44c-1.8,7.88-3.49,15.25-5.31,23.21h-35.72c0,3.73-.01,2.12-.01,3.25,9.89.08,24.53.04,34.8.04-.06.6-1.66,5.25-1.66,9.71,0,2.81,4.04,4.99,2.19,7.11-2.14,2.46-5.05,2.37-7.7,1.44-2.43-.86-3.76-3.02-3.68-5.71.04-1.35.36-2.7.59-4.29h-21.21c.68,7.71-1.03,10.47-6.36,10.44-5.34-.03-3.38-4.41-3.38-9.75,0-3.33-.4-4.57-.93-7.11-2.48-11.97-4.89-23.96-7.38-36.22-4.73.59-8.04-.99-9.87-5.68h16.03c.68,2.49,1.9,8.23,3.58,12.96,7.49-5.03,14.8-9.94,22.6-15.18,7.65,5.15,15.35,10.34,23.43,15.78Z"/><path class="cls-1" d="M87.32,58.01c-.03-1.87,0-3.91,0-5.9h9.44c-.43,2.02-1.02,3.96-1.44,5.9h-8.01Z"/><path class="cls-2" d="M87.43,68.17c0-2.37-.1-4.17-.1-5.82h7.47c-.48,1.86-.93,3.94-1.41,5.82h-5.95Z"/><path class="cls-3" d="M27.15,90.32c0,3.03-2.46,5.49-5.49,5.49s-5.49-2.46-5.49-5.49,2.46-5.49,5.49-5.49,5.49,2.46,5.49,5.49Z"/><path class="cls-3" d="M41.42,90.32c0,3.03-2.46,5.49-5.49,5.49s-5.49-2.46-5.49-5.49,2.46-5.49,5.49-5.49,5.49,2.46,5.49,5.49Z"/><path class="cls-3" d="M55.66,90.32c0,3.03-2.46,5.49-5.49,5.49s-5.49-2.46-5.49-5.49,2.46-5.49,5.49-5.49,5.49,2.46,5.49,5.49Z"/><circle class="cls-3" cx="64.98" cy="88.68" r="7.12"/><path class="cls-3" d="M105.3,88.68c0,3.93-3.19,7.12-7.12,7.12s-7.12-3.19-7.12-7.12,3.19-7.12,7.12-7.12,7.12,3.19,7.12,7.12Z"/><path class="cls-1" d="M83.03,58.01c.03-1.87,0-3.91,0-5.9h-9.44c.43,2.02,1.03,3.96,1.44,5.9h8.01Z"/><path class="cls-2" d="M82.93,68.17c0-2.37.1-4.17.1-5.82h-7.47c.48,1.86.93,3.94,1.41,5.82h5.95Z"/></svg>