<svg width="88" height="18" viewBox="0 0 88 18" fill="none" xmlns="http://www.w3.org/2000/svg">
<path d="M81.2389 0H70.8193C70.305 0 69.8881 0.416906 69.8881 0.931192L69.8942 17.0749C69.8972 17.5861 70.3111 18 70.8254 18H81.2389C84.9089 18 87.8851 15.0238 87.8851 11.3538V6.6492C87.8851 2.97616 84.9089 0 81.2389 0V0ZM78.6462 9.89924L77.0029 8.26813V9.2115L78.6462 10.8456V14.7773H76.9998L76.8203 14.3848H77.0455C77.0455 14.3848 78.2749 13.6392 77.6845 12.7202C77.0394 11.7464 74.897 10.8517 74.3736 9.46407C73.9446 8.53897 73.8928 6.6918 73.8928 6.6918H77.0029L78.6462 8.32595V9.89924V9.89924ZM78.6462 7.38259L77.0029 5.75148V4.17515L78.6462 5.80626V7.38259ZM77.931 4.17515L78.8866 3.2257L79.8421 4.17515L78.8866 5.1246L77.931 4.17515ZM80.7703 4.17515V5.74844L79.13 7.38259V5.80626L80.7703 4.17515ZM83.3995 9.46103C82.8791 10.8517 80.7337 11.7464 80.0916 12.7202C79.5013 13.6392 80.7307 14.3848 80.7307 14.3848H80.9559L80.7733 14.7773H79.13V10.8456L80.7703 9.2115V8.26813L79.13 9.89924V8.32595L80.7703 6.69484L83.8834 6.6918C83.8834 6.6918 83.8316 8.53897 83.3995 9.46103V9.46103Z" fill="#9E9E9E"/>
<path d="M29.7555 5.07601C29.579 5.04254 29.3995 5.02428 29.2108 5.02428H24.3358C24.1319 5.02428 23.9645 5.18861 23.9645 5.3925V11.0375H21.9713V11.0223H20.9731V7.91524C20.9731 6.65843 20.1697 5.5903 19.0468 5.19774C19.0468 5.19774 19.0438 5.19774 19.0438 5.19469C18.7456 5.09123 18.4291 5.03645 18.0943 5.03645H15.9855C15.8881 5.03645 15.7937 5.07601 15.7238 5.14296L14.9082 5.96156L14.47 6.39672C14.2387 6.63104 14.403 7.02665 14.7317 7.02665H18.1643C18.6147 7.02665 18.9768 7.39182 18.9768 7.83916V11.0223H17.8205L12.9728 11.0162V4.40044C12.9728 4.19655 12.8085 4.03223 12.6046 4.03223H11.3569C11.153 4.03223 10.9856 4.19655 10.9856 4.40044V10.2645C10.9856 10.2645 10.9826 10.2889 10.9795 10.301V11.0223H5.365C5.28588 11.0223 5.21285 11.0466 5.15199 11.0892C5.05765 11.1561 4.99374 11.2657 4.99374 11.3905V12.6564C4.99374 12.8603 5.16112 13.0277 5.365 13.0277H6.98698V13.2072C6.98698 13.6545 6.62485 14.0197 6.17447 14.0197H2.81792C2.36754 14.0197 2.00541 13.6545 2.00541 13.2072V9.39419C2.00541 9.1903 1.84108 9.02597 1.63719 9.02597H0.37126C0.167371 9.02597 0 9.1903 0 9.39419V13.1372C0 14.7288 1.29028 16.016 2.87878 16.016H6.10144C7.68994 16.016 8.97718 14.7288 8.97718 13.1372V13.0277H9.24801V13.0185C9.28149 13.0216 10.307 13.0246 10.3314 13.0246H11.3295C11.3295 13.0246 11.3478 13.0277 11.3569 13.0277H12.5224C12.5559 13.0277 12.5863 13.0216 12.6198 13.0155C12.8267 12.9698 12.9819 12.7842 12.9819 12.5651V12.06L13.8522 12.9212C13.9192 12.9881 14.0135 13.0277 14.1109 13.0277H18.0943C18.1552 13.0277 18.2161 13.0246 18.2739 13.0216H20.5806C20.5806 13.0216 20.6019 13.0155 20.611 13.0124H23.2098C23.2524 13.0216 23.3041 13.0216 23.3407 13.0246H24.3388C24.3388 13.0246 24.354 13.0277 24.3631 13.0277H25.5287C25.7173 13.0277 25.8756 12.9029 25.9273 12.7294C25.9273 12.7264 25.9273 12.7234 25.9303 12.7234C25.9334 12.7112 25.9364 12.702 25.9364 12.6899C25.9486 12.6503 25.9577 12.6077 25.9577 12.5651V12.0295L26.8585 12.9212C26.9285 12.9881 27.0198 13.0277 27.1202 13.0277H29.0739C30.6746 13.0277 31.9709 11.7313 31.9709 10.1306V7.89089C31.9709 6.52758 31.0276 5.38337 29.7555 5.07601V5.07601ZM29.9777 10.1824C29.9777 10.654 29.5943 11.0375 29.1226 11.0375H25.9669V7.0236H29.1226C29.5943 7.0236 29.9777 7.40704 29.9777 7.88176V10.1824V10.1824Z" fill="#9E9E9E"/>
<path d="M49.7457 5.0759C49.5692 5.04243 49.3866 5.02417 49.201 5.02417H44.3259C44.119 5.02417 43.9547 5.1885 43.9547 5.39239V10.2401C43.9547 10.2553 43.9486 10.2705 43.9486 10.2857V11.0221H39.3505C39.2744 11.0221 39.2014 11.0465 39.1405 11.0891C39.0462 11.156 38.9822 11.2656 38.9822 11.3904V12.6563C38.9822 12.8602 39.1466 13.0276 39.3505 13.0276H40.9755V13.2071C40.9755 13.6544 40.6103 14.0196 40.163 14.0196H36.8034C36.356 14.0196 35.9939 13.6544 35.9939 13.2071V9.39408C35.9939 9.19019 35.8265 9.02586 35.6227 9.02586H34.3567C34.1559 9.02586 33.9885 9.19019 33.9885 9.39408V13.1371C33.9885 14.7286 35.2788 16.0159 36.8673 16.0159H40.0869C41.6784 16.0159 42.9657 14.7286 42.9657 13.1371V13.0276H43.2335V13.0184C43.2669 13.0215 43.3035 13.0245 43.3309 13.0245H44.3259C44.3259 13.0245 44.3442 13.0276 44.3533 13.0276H45.5188C45.7045 13.0276 45.8627 12.9028 45.9145 12.7293C45.9175 12.7263 45.9175 12.7232 45.9175 12.7232C45.9175 12.7111 45.9266 12.7019 45.9266 12.6898C45.9388 12.6502 45.9479 12.6076 45.9479 12.565V12.0294L46.8487 12.921C46.9156 12.988 47.01 13.0276 47.1074 13.0276H49.0641C50.6617 13.0276 51.9581 11.7312 51.9581 10.1305V7.89078C51.9581 6.52747 51.0147 5.38326 49.7457 5.0759V5.0759ZM49.9679 10.1822C49.9679 10.6539 49.5844 11.0374 49.1097 11.0374H45.9571V7.02349H49.1128C49.5844 7.02349 49.9679 7.40693 49.9679 7.88165V10.1822V10.1822Z" fill="#9E9E9E"/>
<path d="M65.5577 14.0195H64.2979C64.094 14.0195 63.9297 14.1839 63.9297 14.3877V15.6476C63.9297 15.8515 64.094 16.0158 64.2979 16.0158H65.5577C65.7616 16.0158 65.926 15.8515 65.926 15.6476V14.3877C65.926 14.1839 65.7616 14.0195 65.5577 14.0195Z" fill="#9E9E9E"/>
<path d="M66.5559 5.02721H65.3021C65.0982 5.02721 64.9339 5.19154 64.9339 5.39543V10.2157C64.9339 10.6661 64.5687 11.0282 64.1214 11.0282H61.7478C61.7082 11.0282 61.6686 11.0282 61.6291 11.0221H60.9383V5.4289C60.9383 5.1885 60.774 5.02417 60.5701 5.02417H55.7102C55.5246 5.02417 55.342 5.04243 55.1686 5.0759C53.9026 5.38326 52.9623 6.52138 52.9623 7.88165V10.1336C52.9623 11.7281 54.2526 13.0184 55.8472 13.0184H57.7948C57.8921 13.0184 57.9865 12.9819 58.0565 12.9119L58.9572 12.0203V12.8754C58.9572 13.4962 58.4551 13.9983 57.8343 13.9983H56.8575C56.5319 13.9983 56.3676 14.3939 56.5988 14.6252L57.8465 15.8729C57.9134 15.9398 58.0047 15.9794 58.1021 15.9794C59.6572 15.9702 60.917 14.7165 60.9383 13.1645V12.0264L60.9657 12.0629L61.8208 12.918C61.8908 12.988 61.9851 13.0276 62.0825 13.0276H64.0453C65.6338 13.0276 66.9241 11.7373 66.9241 10.1488V5.39543C66.9241 5.19154 66.7598 5.02721 66.5559 5.02721V5.02721ZM58.9451 11.0374H55.7985C55.3268 11.0374 54.9464 10.657 54.9464 10.1853V7.86948C54.9464 7.40084 55.3268 7.01741 55.7985 7.01741H58.9451V11.0374Z" fill="#9E9E9E"/>
</svg>
