<svg width="69" height="68" viewBox="0 0 69 68" fill="none" xmlns="http://www.w3.org/2000/svg">
<path fill-rule="evenodd" clip-rule="evenodd" d="M35.5853 21.675H33.3917C32.9222 21.675 32.5417 22.0556 32.5417 22.525V34.425H20.6417C20.1722 34.425 19.7917 34.8056 19.7917 35.275V36.8716C15.5435 35.0549 12.5667 30.8376 12.5667 25.925C12.5667 19.3528 17.8945 14.025 24.4667 14.025C29.5415 14.025 33.8744 17.2017 35.5853 21.675Z" fill="#E6123D"/>
<path fill-rule="evenodd" clip-rule="evenodd" d="M28.2178 21.0074L20.9928 31.6324L19.9385 30.9155L27.1635 20.2905L28.2178 21.0074Z" fill="white"/>
<path fill-rule="evenodd" clip-rule="evenodd" d="M43.2547 30.7244L51.7912 30.7244L51.7912 39.1879L49.6662 39.1879L49.6662 34.352L30.567 53.4513L29.0644 51.9487L48.1636 32.8494L43.2547 32.8494L43.2547 30.7244Z" fill="#19BFD3"/>
<path fill-rule="evenodd" clip-rule="evenodd" d="M27.8667 30.175C28.5709 30.175 29.1417 29.6042 29.1417 28.9C29.1417 28.1958 28.5709 27.625 27.8667 27.625C27.1625 27.625 26.5917 28.1958 26.5917 28.9C26.5917 29.6042 27.1625 30.175 27.8667 30.175ZM27.8667 31.45C29.275 31.45 30.4167 30.3083 30.4167 28.9C30.4167 27.4917 29.275 26.35 27.8667 26.35C26.4584 26.35 25.3167 27.4917 25.3167 28.9C25.3167 30.3083 26.4584 31.45 27.8667 31.45Z" fill="white"/>
<path fill-rule="evenodd" clip-rule="evenodd" d="M20.6417 24.225C21.3458 24.225 21.9167 23.6542 21.9167 22.95C21.9167 22.2458 21.3458 21.675 20.6417 21.675C19.9375 21.675 19.3667 22.2458 19.3667 22.95C19.3667 23.6542 19.9375 24.225 20.6417 24.225ZM20.6417 25.5C22.05 25.5 23.1917 24.3583 23.1917 22.95C23.1917 21.5417 22.05 20.4 20.6417 20.4C19.2333 20.4 18.0917 21.5417 18.0917 22.95C18.0917 24.3583 19.2333 25.5 20.6417 25.5Z" fill="white"/>
<path fill-rule="evenodd" clip-rule="evenodd" d="M45.0792 10.625C45.0792 9.56875 45.9354 8.71249 46.9917 8.71249H61.0167C63.0118 8.71249 64.6292 10.3299 64.6292 12.325V59.075C64.6292 61.0701 63.0118 62.6875 61.0167 62.6875H8.74169C7.68545 62.6875 6.82919 61.8312 6.82919 60.775V47.6C6.82919 47.0132 7.30489 46.5375 7.89169 46.5375H19.5792V35.7C19.5792 34.6437 20.4354 33.7875 21.4917 33.7875H31.9042V22.95C31.9042 21.8937 32.7604 21.0375 33.8167 21.0375H45.0792V10.625ZM47.2042 10.8375V22.1C47.2042 22.6868 46.7285 23.1625 46.1417 23.1625H34.0292V34.85C34.0292 35.4368 33.5535 35.9125 32.9667 35.9125H21.7042V47.6C21.7042 48.1868 21.2285 48.6625 20.6417 48.6625H8.95419V60.5625H58.2542V10.8375H47.2042ZM60.3792 10.8375V60.5625H61.0167C61.8382 60.5625 62.5042 59.8965 62.5042 59.075V12.325C62.5042 11.5035 61.8382 10.8375 61.0167 10.8375H60.3792Z" fill="#424750"/>
<path fill-rule="evenodd" clip-rule="evenodd" d="M22.8418 7.04396C23.9378 5.83831 25.8339 5.83831 26.9299 7.04396L28.9842 9.30368C29.152 9.48827 29.4121 9.55802 29.6498 9.48217L32.5554 8.55488C34.1065 8.05987 35.7471 9.00688 36.0942 10.5976L36.9797 14.6554L34.9036 15.1085L34.0181 11.0507C33.938 10.6836 33.5594 10.4651 33.2014 10.5793L30.2958 11.5066C29.266 11.8352 28.139 11.533 27.4119 10.7331L25.3575 8.47339C25.1046 8.19517 24.6671 8.19517 24.4141 8.47339L22.3598 10.7331C21.6326 11.533 20.5057 11.8352 19.4758 11.5066L16.5702 10.5793C16.2123 10.4651 15.8337 10.6836 15.7536 11.0507L15.1004 14.0437C14.8703 15.0982 14.0472 15.9221 12.9929 16.1532L10.0082 16.8074C9.64172 16.8877 9.42351 17.2656 9.53712 17.6231L10.4665 20.548C10.7928 21.575 10.4922 22.698 9.69641 23.4246L7.43298 25.4913C7.15613 25.7441 7.15613 26.1801 7.43298 26.4329L9.69641 28.4996C10.4922 29.2262 10.7928 30.3492 10.4665 31.3762L9.53712 34.3011C9.42351 34.6586 9.64172 35.0365 10.0082 35.1168L12.9929 35.771C14.0472 36.0021 14.8703 36.826 15.1004 37.8805L15.7536 40.8735C15.8337 41.2406 16.2123 41.4591 16.5702 41.3449L20.5161 40.0856L21.1621 42.11L17.2163 43.3693C15.6652 43.8643 14.0246 42.9173 13.6774 41.3266L13.0243 38.3335C12.9712 38.0902 12.7812 37.9001 12.5379 37.8467L9.55323 37.1926L9.78072 36.1547L9.55323 37.1925C7.96516 36.8445 7.01957 35.207 7.51189 33.6576L8.44125 30.7327C8.51656 30.4957 8.44718 30.2365 8.26355 30.0688L6.00011 28.0021C4.80042 26.9067 4.80042 25.0175 6.00011 23.9221L8.26355 21.8553C8.44718 21.6877 8.51656 21.4285 8.44125 21.1915L7.51189 18.2666C7.01957 16.7172 7.96515 15.0797 9.55323 14.7316L12.5379 14.0774C12.7812 14.0241 12.9712 13.834 13.0243 13.5906L13.6774 10.5976C14.0246 9.00688 15.6652 8.05987 17.2163 8.55488L20.1219 9.48217C20.3596 9.55802 20.6196 9.48827 20.7874 9.30368L22.8418 7.04396Z" fill="#424750"/>
<path fill-rule="evenodd" clip-rule="evenodd" d="M42.9177 52.099C42.3822 52.6344 42.7615 53.55 43.5188 53.55H50.8167C51.2861 53.55 51.6667 53.1695 51.6667 52.7V45.4021C51.6667 44.6448 50.7511 44.2656 50.2156 44.801L42.9177 52.099ZM49.5417 48.4802L46.5969 51.425H49.5417V48.4802Z" fill="#424750"/>
</svg>
