<?xml version="1.0" encoding="UTF-8"?><svg id="Layer_1" xmlns="http://www.w3.org/2000/svg" viewBox="0 0 128 128"><defs><style>.cls-1{fill:#cbab71;}</style></defs><path class="cls-1" d="M112.2,52.2c0,.12,0,.25-.02.37-.32,1.43-.68,2.85-1.39,4.14-.55,1.01-1.25,1.9-2.05,2.73-.94.97-2.02,1.77-3.19,2.43-1.15.65-2.37,1.18-3.65,1.51-1.07.28-2.13.56-3.21.81-.98.22-1.98.39-2.97.62-1.65.37-3.32.73-4.96,1.16-1.54.4-3.03.96-4.39,1.8-1.53.94-2.73,2.19-3.23,3.97-.28.99-.35,2.01-.2,3.04.2,1.4.77,2.65,1.73,3.68,1.29,1.37,2.86,2.12,4.76,1.71,1.63-.35,2.96-1.21,3.57-2.84.5-1.35.48-2.72-.24-4.03-.19-.36-.45-.65-.85-.81-.12-.05-.26-.08-.38-.07-.52,0-.67.25-.48.74.21.54.33,1.09.21,1.66-.07.37-.26.65-.6.82-1.07.53-2.26.05-2.6-1.1-.35-1.22-.1-2.37.74-3.32.8-.89,1.86-1.05,2.99-.85,1.18.21,1.95.96,2.48,1.97.68,1.31.81,2.72.65,4.16-.14,1.37-.75,2.53-1.62,3.59-.85,1.02-1.95,1.66-3.12,2.2-.9.41-1.83.79-2.76,1.11-1.06.37-2.13.64-3.2.96-1.53.46-3.06.91-4.6,1.37-1.07.32-2.14.63-3.21.94-.77.22-.83.42-.27.98.18.18.37.36.55.54.52.53.53,1.17.34,1.83-.29.95-1,1.49-1.86,1.9-.91.44-1.88.57-2.86.58-.94,0-1.87-.12-2.76-.42-.28-.1-.57-.16-.85-.22-.35-.08-.68,0-.93.24-.65.61-1.32,1.22-1.9,1.89-.52.6-.96,1.26-1.43,1.89-.05.06-.1.11-.2.14.03-.13.05-.28.1-.4.44-1.37,1.03-2.68,1.86-3.86,0-.02.02-.03.03-.05.44-.58.43-.57-.14-.99-.26-.19-.49-.41-.74-.62-.23-.18-.35-.13-.4.15-.09.47-.14.95-.42,1.37,0,.02,0,.04-.02.05-.27.48-.52.49-.76,0-.23-.48-.4-.99-.6-1.49-.03-.08-.06-.15-.11-.28-.11.11-.18.17-.25.24-.33.28-.65.58-1,.84-.18.14-.22.24-.07.43.76.91,1.27,1.96,1.68,3.07.2.53.37,1.06.59,1.65-.1-.07-.18-.11-.24-.17-.38-.52-.71-1.08-1.12-1.57-.49-.59-1.03-1.12-1.57-1.67-.21-.21-.47-.38-.68-.6-.32-.32-.67-.34-1.1-.23-.86.22-1.72.46-2.6.57-1.55.17-3.04-.06-4.4-.86-.94-.56-1.62-1.86-1.18-2.91.2-.5.61-.81,1.02-1.12.12-.09.26-.27.25-.39-.02-.14-.15-.33-.29-.4-.21-.12-.46-.15-.7-.22-1.66-.49-3.32-.98-4.98-1.47-1.51-.44-3.02-.87-4.52-1.32-1.57-.46-3.12-1-4.57-1.77-1.18-.63-2.25-1.43-3.01-2.57-.62-.92-.96-1.96-1.11-3.06-.18-1.43.04-2.82.69-4.11.52-1.04,1.38-1.68,2.57-1.9,1.59-.3,3.06.48,3.57,1.99.32.92.36,1.83-.14,2.68-.47.8-1.61,1.05-2.4.62-.59-.32-.81-1.32-.63-1.81.08-.2.16-.4.27-.6.13-.24.18-.48-.03-.7-.15-.16-.51-.17-.78-.05-.64.3-.96.85-1.17,1.49-.41,1.26-.31,2.5.18,3.71.28.67.78,1.18,1.36,1.61.68.49,1.44.82,2.28.95.87.14,1.7,0,2.5-.33,1.62-.68,2.7-1.9,3.36-3.51.62-1.52.67-3.08.22-4.64-.31-1.05-.84-1.98-1.63-2.75-.99-.96-2.14-1.65-3.41-2.18-1.66-.69-3.4-1.12-5.15-1.5-1.34-.29-2.68-.56-4.01-.87-1.65-.38-3.32-.75-4.95-1.2-1.18-.33-2.29-.87-3.36-1.47-1.1-.62-2.09-1.37-2.97-2.25-1.35-1.32-2.32-2.87-2.97-4.64-.16-.45-.24-.95-.33-1.43-.08-.44-.12-.88-.14-1.36.17.29.35.58.52.86.93,1.45,2.03,2.76,3.35,3.86,1.49,1.25,3.15,2.25,4.95,3,1.25.53,2.54.92,3.86,1.24,1.08.26,2.14.55,3.21.83,1.07.28,2.15.53,3.21.85,1.76.53,3.49,1.11,5.13,1.96,1.26.65,2.43,1.43,3.46,2.39,1.03.95,1.8,2.1,2.34,3.4.77,1.89.74,3.86.31,5.78-.41,1.87-1.55,3.3-3.32,4.15-.27.13-.57.22-.83.38-.16.1-.39.33-.37.42.05.18.25.38.43.46.47.19.97.32,1.45.46.86.27,1.71.54,2.58.79.62.18,1.26.33,1.89.47.09.02.2-.06.31-.09-.03-.11-.04-.22-.1-.3-.48-.57-.86-1.2-1.12-1.89-.36-.94-.41-1.88.02-2.81.37-.78,1.1-1.31,2.07-1.25.57.03,1.05.19,1.43.62.39.43.62,1.77.26,2.29-.23.33-.5.59-.92.57-.44,0-.77-.27-.96-.65-.07-.12-.02-.31,0-.47,0-.11.07-.19.09-.3.03-.24-.05-.42-.26-.56s-.34.03-.47.13c-.31.25-.4.62-.44.98-.12.99.08,1.9.68,2.7.45.6,1.02,1.08,1.65,1.45,1.13.65,2.3,1.27,3.46,1.88.94.5,1.91.96,2.85,1.48.62.35,1.23.74,1.8,1.17.38.3.68.7,1.03,1.05.2.2.39.4.62.58.36.28.83.28,1.23-.06.66-.56,1.3-1.15,1.93-1.74.19-.17.37-.37.54-.55.11-.12.2-.12.31.02.66.82,1.43,1.51,2.27,2.16.82.64,1.36.31,1.82-.24.93-1.1,2.04-1.94,3.31-2.59,1.2-.62,2.43-1.19,3.63-1.81,1.04-.54,2.11-1.05,3.01-1.81.87-.73,1.61-1.57,1.79-2.74.11-.71-.08-1.37-.5-1.95-.07-.1-.28-.14-.39-.12-.12.03-.26.17-.29.3-.04.17,0,.37,0,.57.04.47-.24.87-.73,1.02-.42.13-.88-.04-1.11-.41-.62-1.04-.18-2.45.95-2.86,1.11-.4,2.5.1,2.82,1.37.35,1.37.14,2.68-.7,3.86-.15.2-.31.4-.45.62-.05.08-.12.24-.09.27.08.08.21.15.31.13.39-.06.78-.13,1.16-.25.78-.23,1.55-.48,2.33-.72.83-.26,1.66-.52,2.49-.79.09-.03.17-.07.25-.12.2-.14.22-.38.03-.52-.24-.17-.49-.32-.76-.43-1.33-.58-2.35-1.5-3.09-2.74-.5-.85-.73-1.78-.85-2.75-.12-.98-.11-1.96.08-2.94.38-2.05,1.4-3.73,2.92-5.13.87-.82,1.86-1.48,2.91-2.06,1.74-.95,3.58-1.67,5.49-2.19,1.87-.5,3.73-.98,5.6-1.47,1.66-.43,3.34-.87,4.92-1.55,1.12-.48,2.17-1.06,3.19-1.72,1.18-.77,2.24-1.68,3.17-2.72.59-.64,1.06-1.4,1.58-2.11.18-.25.36-.52.54-.77.08-.11.17-.18.26-.28.06-.05.09-.04.11-.03ZM55.4,91.63v-.04h.93c.73,0,1.43-.12,2.09-.46.24-.12.28-.25.08-.43-.33-.3-.64-.62-1.01-.86-.64-.42-1.32-.81-1.99-1.2-.86-.5-1.74-.78-2.76-.64-1.06.14-1.3,1.13-1.12,1.84.25,1,1.47,1.62,2.28,1.71.51.07,1.01.06,1.51.09ZM72.44,91.63h.45c.78.02,1.53-.06,2.23-.41.62-.31,1.16-.7,1.4-1.4.3-.86-.32-1.66-.87-1.78-.89-.18-1.76-.08-2.58.39-.67.38-1.37.74-2.02,1.14-.41.25-.84.52-1.18.87-.43.43-.34.68.24.89.76.26,1.54.3,2.33.3Z"/><path class="cls-1" d="M60.84,52.76h-.71c-.82,0-1.62,0-2.44,0-.28,0-.33-.12-.33-.37.02-.75,0-1.5.04-2.24.02-.47-.14-.84-.43-1.18-.88-1.07-1.77-2.14-2.65-3.21-.18-.21-.26-.37-.05-.65.76-1.01,1.49-2.05,2.23-3.08.44-.62.89-1.24,1.33-1.87.21-.3.45-.45.85-.44,2.88.02,5.76,0,8.64,0,.66,0,1.33,0,1.99,0,.33,0,.53.18.7.41,1.12,1.51,2.25,3.01,3.36,4.52.24.32.45.65.7.96.14.18.12.32-.04.47-.53.54-1.06,1.09-1.59,1.62-.47.48-.95.94-1.4,1.43-.22.24-.32.55-.31.88,0,.79,0,1.59,0,2.37,0,.27-.11.34-.36.33-.62,0-1.23,0-1.85,0-.15,0-.31.03-.46.05,0,.03,0,.06-.02.1.33.12.66.23.99.34,1.04.34,2.02.81,2.93,1.4,1.53.99,2.82,2.22,3.92,3.66.87,1.13,1.61,2.36,2.14,3.68.61,1.48,1,3.03,1.2,4.62.22,1.75.2,3.49-.1,5.22-.27,1.57-.72,3.08-1.43,4.52-.81,1.64-1.8,3.14-3.07,4.47-.86.89-1.83,1.63-2.88,2.28-1.42.86-2.93,1.47-4.57,1.82-1.48.32-2.96.33-4.46.18-1.14-.11-2.25-.35-3.3-.8-.92-.39-1.81-.89-2.7-1.37-.86-.46-1.6-1.09-2.29-1.75-.72-.69-1.39-1.44-1.92-2.3-.51-.83-1.03-1.65-1.48-2.51-.51-.97-.9-2-1.12-3.08-.1-.45-.21-.9-.3-1.36-.22-1.11-.25-2.23-.21-3.36.03-.89.08-1.8.19-2.68.16-1.17.47-2.32.94-3.4.31-.72.61-1.45.99-2.12,1.04-1.84,2.27-3.54,3.99-4.81.72-.53,1.45-1.08,2.25-1.47.96-.48,1.99-.81,2.99-1.21.02,0,.04-.03.07-.04.03,0,.03-.04.02-.06ZM64.42,56.07c-.77.1-1.54.16-2.3.29-1.69.29-3.24.96-4.66,1.91-1.46.98-2.65,2.24-3.63,3.7-1.03,1.54-1.72,3.23-2.12,5.04-.39,1.77-.45,3.56-.21,5.36.22,1.62.68,3.18,1.4,4.64.8,1.61,1.84,3.03,3.18,4.24,1.33,1.19,2.84,2.08,4.53,2.62.96.32,1.96.49,2.97.56,1.3.1,2.58-.04,3.83-.38,1.46-.39,2.84-1.01,4.04-1.94.72-.56,1.42-1.16,2.05-1.82.84-.88,1.53-1.88,2.1-2.98.62-1.2,1.07-2.46,1.37-3.78.29-1.29.38-2.6.34-3.91-.08-1.87-.48-3.65-1.22-5.36-.63-1.47-1.49-2.82-2.6-4-1.29-1.38-2.78-2.47-4.53-3.2-1.45-.6-2.95-.91-4.52-.99ZM69.14,49.48c.41.12.64-.23.87-.58.12-.17.21-.36.34-.52.5-.65,1.01-1.3,1.5-1.95.07-.09.1-.21.14-.32-.12-.04-.22-.1-.34-.12-.23-.03-.47-.04-.71-.05-1.09-.07-2.15.04-3.2.3-.84.21-1.59.61-2.36.97-.3.14-.32.3-.14.59.22.37.45.74.62,1.14.22.5.23.54.79.54.8,0,1.6,0,2.48,0ZM60.34,49.45s0,0,0,0c.48,0,.96,0,1.44.02.28.02.4-.11.43-.33.09-.57.38-1.02.74-1.44.12-.15.12-.27-.06-.37-.29-.16-.58-.32-.87-.48-.75-.4-1.56-.63-2.39-.78-1.06-.18-2.12-.17-3.19-.06-.09,0-.22.04-.24.1-.03.08,0,.2.06.28.18.26.38.49.57.74.54.71,1.07,1.42,1.62,2.12.08.1.23.17.36.18.52.03,1.03.02,1.54.02ZM66.16,45.25c-.05-.09-.08-.15-.12-.22-.3-.51-.59-1.01-.88-1.52-.26-.44-.53-.89-.81-1.34-.12-.18-.24-.16-.35,0-.1.15-.19.31-.29.45-.5.75-1.01,1.51-1.51,2.26-.22.33-.2.37.14.56.52.29,1.06.56,1.56.87.2.12.36.12.55.02.52-.32,1.04-.62,1.55-.94.07-.02.11-.09.15-.14ZM57.95,44.66s0,0,0,0c.49,0,.98,0,1.47,0,.25,0,.34-.12.24-.31-.38-.8-.78-1.6-1.17-2.39-.12-.25-.24-.25-.41-.03-.6.77-1.2,1.53-1.8,2.31-.07.09-.1.19-.13.3.11.05.22.12.33.12.5,0,.99,0,1.48,0ZM67.22,41.36v-.04h-1.41c-.31,0-.37.09-.21.36.44.78.89,1.55,1.35,2.33.2.35.27.35.48,0,.46-.76.92-1.51,1.38-2.27.15-.26.11-.36-.2-.37-.46-.02-.92,0-1.38,0ZM70.14,44.88h0c.49,0,.98,0,1.47,0,.24,0,.28-.12.18-.31-.04-.08-.09-.14-.13-.22-.44-.63-.88-1.27-1.32-1.9-.23-.34-.3-.34-.53.02-.44.7-.88,1.4-1.32,2.11-.04.06-.07.17-.04.2.06.06.15.11.23.11.49.02.97,0,1.45,0ZM61.33,41.33v-.02h-1.44c-.29,0-.33.07-.18.32.44.77.88,1.54,1.33,2.31.11.18.21.2.33.02.52-.79,1.05-1.57,1.57-2.36.04-.06.04-.13.06-.21-.08-.02-.15-.06-.23-.06h-1.42ZM63.2,49.37c.08.05.11.08.14.08.53,0,1.06.03,1.59.03.22,0,.19-.14.11-.27-.12-.2-.26-.39-.38-.59-.13-.21-.28-.41-.46-.69-.36.51-.67.97-.99,1.44Z"/><path class="cls-1" d="M47.26,66.57c-.12-.22-.24-.43-.34-.65-.45-1.07-.97-2.12-1.32-3.22-.53-1.69-.8-3.45-.41-5.22.14-.68.35-1.38.65-2.01.59-1.18,1.58-1.85,2.93-1.91.83-.05,1.6.14,2.3.59,1,.62,1.48,2.07,1.12,3.2-.17.54-.35,1.05-.77,1.46-.47.46-1,.7-1.64.54-.66-.16-1.15-.59-1.34-1.26-.15-.56.08-1.03.49-1.39.2-.19.46-.32.7-.47.13-.09.36-.09.34-.33-.02-.25-.14-.43-.38-.51-.75-.23-1.43-.09-2.01.42-.73.63-1.15,1.48-1.31,2.42-.34,2.01-.12,4,.38,5.95.19.75.44,1.48.66,2.22,0,.05,0,.11,0,.15-.03,0-.05,0-.07.02Z"/><path class="cls-1" d="M80.86,66.37c.12-.37.29-.74.37-1.12.26-1.14.53-2.28.71-3.43.12-.74.15-1.51.12-2.26-.07-1.23-.4-2.4-1.12-3.42-.54-.75-1.6-1.04-2.47-.68-.09.04-.17.11-.24.18-.24.26-.2.31.11.48.37.22.76.46,1.07.77.43.41.4,1.15.02,1.76-.43.68-1.52.96-2.16.55-.54-.35-.97-.79-1.16-1.41-.28-.87-.35-1.76.03-2.63.27-.63.78-1.02,1.4-1.28.95-.4,1.91-.47,2.9-.15.63.2,1.08.65,1.46,1.16.81,1.07,1.06,2.32,1.17,3.61.12,1.28-.13,2.52-.42,3.75-.33,1.36-.92,2.61-1.51,3.87-.05.11-.12.2-.19.31-.04-.02-.06-.04-.08-.05Z"/><path class="cls-1" d="M109.6,63.25c-.07.15-.14.32-.21.47-.55,1.37-1.48,2.46-2.57,3.44-.82.74-1.76,1.3-2.76,1.75-.62.28-1.25.55-1.89.75-.94.29-1.92.38-2.91.33-1.02-.06-1.98-.34-2.87-.86-.36-.21-.67-.5-1-.77-.05-.04-.11-.15-.09-.18.04-.06.12-.11.19-.12.78-.04,1.55-.05,2.33-.1,1.42-.09,2.86-.15,4.24-.52,1.25-.33,2.46-.78,3.57-1.47,1.09-.68,2.14-1.41,3.13-2.23.24-.19.49-.37.74-.56.05.03.08.04.1.06Z"/><path class="cls-1" d="M18.63,63.23c.24.19.48.38.72.57.54.41,1.08.83,1.62,1.22.95.68,1.94,1.32,3.03,1.77,1.28.53,2.61.9,4,1.02,1.12.09,2.24.17,3.36.24.41.03.84,0,1.25,0h.38c-.14.17-.24.31-.36.41-.93.77-1.96,1.31-3.19,1.45-1.2.15-2.37.09-3.53-.25-.62-.18-1.21-.44-1.79-.72-.6-.28-1.16-.61-1.72-.95-.97-.61-1.79-1.38-2.5-2.27-.53-.65-.93-1.37-1.27-2.13-.04-.1-.06-.19-.09-.29.03-.03.05-.05.07-.07Z"/><path class="cls-1" d="M30.24,58.76c.25-.12.49-.3.76-.38,1.21-.37,2.44-.31,3.68-.12,1.12.16,2.2.45,3.24.91,1.57.69,2.95,1.68,4.2,2.85,1.28,1.18,2.34,2.55,3.29,3.99.16.25.33.51.49.76,0,0,0,.03-.03.07-2.1-2.15-4.46-3.95-7.08-5.39-2.64-1.45-5.57-2.08-8.54-2.54,0-.04-.02-.09-.02-.13Z"/><path class="cls-1" d="M97.93,58.89c-2.98.48-5.91,1.11-8.59,2.57-2.64,1.44-5.03,3.25-7.15,5.42.02-.06.02-.12.06-.15.77-1.04,1.51-2.1,2.31-3.11.85-1.07,1.84-2,2.93-2.81,1.12-.83,2.3-1.56,3.63-1.98,1.55-.5,3.12-.84,4.77-.65.62.07,1.23.19,1.8.49.09.05.16.1.25.15,0,.02,0,.05,0,.08Z"/><path class="cls-1" d="M23.13,71.67c.44.12.88.24,1.32.39,1.29.45,2.61.79,3.99.74.74-.03,1.48-.15,2.22-.24.12,0,.26-.03.46-.05-.09.15-.12.25-.19.33-.97,1.08-2.2,1.48-3.61,1.39-1.39-.08-2.56-.67-3.55-1.63-.26-.25-.46-.56-.69-.84.02-.03.04-.07.06-.1Z"/><path class="cls-1" d="M97.03,72.52c.46.07.89.12,1.32.18,1.34.15,2.67.15,3.98-.24.7-.21,1.4-.43,2.11-.64.18-.06.37-.09.61-.13-.5,1-2.28,2.57-4.46,2.6-1.35,0-3.21-.86-3.55-1.76Z"/><path class="cls-1" d="M64.39,31.55c.08.39.17.78.23,1.17.14,1.02.26,2.04.4,3.06.03.19-.05.25-.22.28-.75.12-.84.09-.82-.66.02-.88.13-1.77.21-2.65.03-.39.07-.79.11-1.18.02,0,.05,0,.09,0Z"/><path class="cls-1" d="M58.2,33.2c.08.12.12.18.15.24.3.55.6,1.09.89,1.63.29.54.58,1.09.87,1.62.11.2.11.37-.1.52-.05.03-.08.09-.12.12-.4.4-.49.41-.66-.12-.37-1.23-.7-2.49-1.04-3.73-.02-.07,0-.14,0-.29Z"/><path class="cls-1" d="M70.76,33.74c-.17.52-.35,1.03-.53,1.55-.27.78-.54,1.55-.81,2.32-.11.31-.14.32-.41.13-.57-.37-.6-.46-.26-1.02.61-.98,1.22-1.95,1.83-2.92.03-.04.08-.07.12-.11.03.03.05.04.07.05Z"/><path class="cls-1" d="M101.11,76.56c-.51.63-1.15.99-1.96,1-.89,0-1.73-.48-2.02-1.24,1.34.56,2.64.48,3.98.24Z"/><path class="cls-1" d="M75.2,39.75c-.17.16-.36.33-.53.48-.59.52-1.18,1.05-1.77,1.57-.08.07-.15.13-.23.2-.24.22-.32.21-.52-.06-.41-.57-.37-.69.33-1.02.74-.36,1.47-.74,2.21-1.11.14-.08.3-.12.45-.18.02.05.04.09.06.12Z"/><path class="cls-1" d="M30.91,76.32c-.03.55-.66,1.03-1.47,1.21-.8.17-2.09-.35-2.49-1.07,1.36.41,2.65.4,3.96-.14Z"/><path class="cls-1" d="M53.36,38.96c.32.17.64.34.95.52.62.37,1.24.75,1.87,1.13.35.21.37.33.13.65-.34.48-.36.49-.79.06-.69-.69-1.37-1.39-2.07-2.1-.06-.06-.11-.13-.15-.21.02,0,.04-.03.06-.06Z"/><path class="cls-1" d="M70.74,63.09c-.54.36-1.04.78-1.44,1.29-1.07,1.37-2.03,2.8-2.77,4.36-.79,1.65-1.58,3.3-2.32,4.97-.19.42-.46.62-.87.76-.81.27-1.61.55-2.41.82-.1.03-.21,0-.33,0,0-.11,0-.22.04-.32.44-1.17.9-2.35,1.35-3.52.43-1.12.87-2.25,1.28-3.38.5-1.37.98-2.74,1.47-4.11.12-.32.19-.65.28-.98.02-.08,0-.2-.05-.25-.06-.05-.2-.06-.25,0-.21.16-.46.32-.61.54-.36.55-.67,1.12-.96,1.69-.46.92-.88,1.86-1.33,2.79-.39.84-.78,1.68-1.2,2.51-.73,1.43-1.55,2.82-2.69,3.98-.68.7-1.51,1.14-2.48,1.24-.62.07-1.24,0-1.78-.37-.19-.12-.37-.35-.43-.56-.18-.57-.3-1.15-.43-1.73,0-.04,0-.08.02-.19.12.1.2.14.26.22.38.46.74.96,1.17,1.37.28.28.65.49,1.02.63.6.23,1.04-.12,1.43-.52.79-.79,1.22-1.79,1.66-2.78.73-1.62,1.46-3.24,2.21-4.85.67-1.43,1.51-2.77,2.76-3.76.93-.73,2-1.08,3.18-.67.59.2,1.06.75,1.04,1.46,0,.77-.31,1.46-.57,2.15-.43,1.18-.94,2.33-1.41,3.49,0,.03-.02.07-.03.11.02.02.04.05.06.07.08-.06.17-.1.22-.17.22-.41.43-.84.64-1.26.83-1.65,1.82-3.21,3.08-4.58.52-.57,1.09-1.12,1.87-1.34.44-.12.9-.12,1.35.03.23.08.34.25.37.49.08.52-.11.99-.3,1.45-.51,1.26-1.03,2.52-1.53,3.79-.6,1.53-1.18,3.06-1.77,4.6-.16.44-.31.89-.44,1.35-.22.74.43,1.39,1.17,1.22.96-.23,1.86-.62,2.71-1.12.1-.06.31-.08.34-.03.12.17-.07.23-.18.3-.71.43-1.45.81-2.28.98-1.11.23-2.23.29-3.36.12-.93-.14-1.52-1.09-1.31-2.01.36-1.59.97-3.08,1.6-4.57.5-1.17,1.01-2.35,1.59-3.48.33-.65.79-1.24,1.19-1.86.08-.12.16-.23.25-.36-.02,0-.05,0-.08-.03Z"/></svg>