<?xml version="1.0" encoding="utf-8"?>
<!-- Generator: Adobe Illustrator 26.0.0, SVG Export Plug-In . SVG Version: 6.00 Build 0)  -->
<svg version="1.1" id="Layer_1" xmlns="http://www.w3.org/2000/svg" xmlns:xlink="http://www.w3.org/1999/xlink" x="0px" y="0px"
	 viewBox="0 0 192 192" style="enable-background:new 0 0 192 192;" xml:space="preserve">
<style type="text/css">
	.st0{fill:#EA5289;}
</style>
<path class="st0" d="M58.49,81.24c4.48,0,8.4-3.5,8.76-7.81c0.36-4.31-2.98-7.81-7.45-7.81c-4.48,0-8.4,3.5-8.76,7.81
	C50.67,77.75,54.01,81.24,58.49,81.24z"/>
<path class="st0" d="M116.46,118.06h0.02l0.46-15.61c0.27-9.26-5.44-16.9-15.34-16.9c-3.54,0-9.19,1.21-12.85,5.05
	c-0.76-2.33-2.67-5.05-7.05-5.05c-5.47,0-8.04,4.12-8.04,4.12s1.57,2.1,1.55,10.71c-0.09,2.96-0.52,17.69-0.52,17.69l-0.28,9.36
	c0.01,2.07,1.28,7.55,7.49,7.55c5.47,0,8.04-4.13,8.04-4.13s-1.82-2.41-1.52-12.78h0.02l0.52-16.08c0.35-3.75,3.51-6.72,7.29-6.72
	c3.78,0,6.76,2.98,6.89,6.72l-0.43,16.08l0,0l-0.28,9.36c0.01,2.07,1.28,7.55,7.49,7.55c5.47,0,8.04-4.13,8.04-4.13
	S116.15,128.43,116.46,118.06z"/>
<path class="st0" d="M65.77,118.06h0.02l0.46-15.61l0,0l0.28-9.36c-0.01-2.07-1.28-7.55-7.49-7.55c-5.47,0-8.04,4.12-8.04,4.12
	s1.82,2.41,1.52,12.78h-0.02l-0.46,15.61l-0.28,9.36c0.01,2.07,1.28,7.55,7.49,7.55c5.47,0,8.04-4.13,8.04-4.13
	S65.46,128.43,65.77,118.06z"/>
<path class="st0" d="M187.43,118.06h0.02l0.46-15.61h0l0.28-9.36c-0.01-2.07-1.28-7.55-7.49-7.55c-5.47,0-8.04,4.12-8.04,4.12
	s1.82,2.41,1.52,12.78h-0.02l-0.46,15.61l-0.28,9.36c0.01,2.07,1.28,7.55,7.49,7.55c5.47,0,8.04-4.13,8.04-4.13
	S187.13,128.43,187.43,118.06z"/>
<path class="st0" d="M24.75,69.3C21.76,69.44,2.7,73.03,2.7,73.03s1.76,2.04,1.58,8.04l-1.1,36.99l-0.28,9.36
	c0.01,2.07,1.28,7.55,7.49,7.55c5.47,0,8.04-4.13,8.04-4.13s-1.82-2.41-1.52-12.78h0.02l0.22-7.31l6.35,0.5
	c11.79,0.92,22.16-8.49,22.51-20.43l0.03-1.08C46.4,77.79,36.59,68.38,24.75,69.3z M32.3,90.59c-0.17,5.68-4.99,11.98-10.63,11.98
	H17.4l0.73-24.58h4.28c5.64,0,10.07,6.21,9.9,11.89L32.3,90.59z"/>
<path class="st0" d="M183.34,62.84c3.4-0.55,6.05,1.37,6.5,4.18c1.06,6.57-6.91,13.18-20.37,16.54c-2.35,0.59-3.3-1.87-1.49-3.4
	C179.39,72.3,176.79,63.89,183.34,62.84z"/>
<path class="st0" d="M161.71,116.34l0.02-0.01l-4.46-12.17l0,0l0,0l6-5.87c1.45-1.52,4.42-6.4,0.16-10.83
	c-3.75-3.9-8.41-2.73-8.41-2.73s-0.45,3.06-7.93,10.39l-0.01-0.02l-8.1,7.92l0.5-16.86h0l0.28-9.36c-0.01-2.07-1.28-7.55-7.49-7.55
	c-5.47,0-8.04,4.13-8.04,4.13s1.82,2.41,1.52,12.78h-0.02l-0.95,31.89l-0.28,9.36c0.01,2.07,1.28,7.55,7.49,7.55
	c5.47,0,8.04-4.13,8.04-4.13s-1.82-2.41-1.52-12.78h0.02l0.04-1.44l6.82-4.45l6.77,18.12c0.8,1.89,4.06,6.39,9.87,4
	c5.11-2.11,5.96-6.87,5.96-6.87S165.36,125.92,161.71,116.34z"/>
</svg>
