<?xml version="1.0" encoding="UTF-8"?>
<!DOCTYPE svg PUBLIC "-//W3C//DTD SVG 1.1//EN" "http://www.w3.org/Graphics/SVG/1.1/DTD/svg11.dtd">
<!-- Creator: CorelDRAW -->
<svg xmlns="http://www.w3.org/2000/svg" xml:space="preserve" width="0.64in" height="0.64in" version="1.1" style="shape-rendering:geometricPrecision; text-rendering:geometricPrecision; image-rendering:optimizeQuality; fill-rule:evenodd; clip-rule:evenodd"
viewBox="0 0 640 640"
 xmlns:xlink="http://www.w3.org/1999/xlink"
 xmlns:xodm="http://www.corel.com/coreldraw/odm/2003">
 <defs>
  <style type="text/css">
   <![CDATA[
    .fil1 {fill:#FEFEFE;fill-rule:nonzero}
    .fil0 {fill:#D2AE6D;fill-rule:nonzero}
    .fil2 {fill:#201E1E;fill-rule:nonzero}
   ]]>
  </style>
 </defs>
 <g id="Layer_x0020_1">
  <metadata id="CorelCorpID_0Corel-Layer"/>
  <g id="_1897808149344">
   <polygon class="fil0" points="5.87,236.21 633.2,236.21 633.2,418.15 477.87,418.15 477.87,415 630.05,415 630.05,239.37 7.44,239.37 7.44,415 156.06,415 156.06,418.15 4.29,418.15 4.29,236.21 "/>
   <path class="fil0" d="M5.87 235.26l628.3 0 0 183.86 -157.25 0 0 -5.07 152.18 0 0 -173.72 -620.69 0 0 173.72 148.61 0 0 5.07 -153.69 0 0 -183.86 2.54 0zm626.38 1.92l-627 0 0 180.02 149.85 0 0 -1.24 -148.61 0 0 -177.55 624.53 0 0 177.55 -152.18 0 0 1.24 153.41 0 0 -180.02z"/>
   <path class="fil1" d="M189.09 408.99l-11.28 0 0 8.3 2.28 0c0.42,0 0.71,0.06 0.89,0.2 0.18,0.13 0.27,0.31 0.27,0.53 0,0.2 -0.09,0.38 -0.27,0.52 -0.18,0.13 -0.48,0.2 -0.89,0.2l-5.89 0c-0.41,0 -0.72,-0.07 -0.89,-0.2 -0.18,-0.14 -0.27,-0.31 -0.27,-0.52 0,-0.22 0.09,-0.4 0.27,-0.53 0.18,-0.13 0.48,-0.2 0.89,-0.2l1.91 0 0 -17.27 -1.04 0c-0.42,0 -0.72,-0.06 -0.9,-0.2 -0.17,-0.13 -0.26,-0.31 -0.26,-0.52 0,-0.22 0.09,-0.39 0.26,-0.53 0.18,-0.13 0.48,-0.2 0.9,-0.2l5.02 0c0.42,0 0.71,0.06 0.89,0.2 0.18,0.13 0.27,0.31 0.27,0.53 0,0.22 -0.09,0.39 -0.27,0.52 -0.18,0.14 -0.48,0.2 -0.89,0.2l-2.28 0 0 7.52 11.28 0 0 -7.52 -2.24 0c-0.41,0 -0.71,-0.06 -0.89,-0.2 -0.17,-0.13 -0.26,-0.31 -0.26,-0.52 0,-0.22 0.09,-0.39 0.26,-0.53 0.17,-0.13 0.47,-0.2 0.9,-0.2l4.98 0c0.42,0 0.72,0.06 0.9,0.2 0.18,0.13 0.27,0.31 0.27,0.53 0,0.22 -0.09,0.39 -0.27,0.52 -0.18,0.14 -0.48,0.2 -0.9,0.2l-1.04 0 0 17.27 1.91 0c0.42,0 0.71,0.06 0.89,0.2 0.18,0.13 0.27,0.31 0.27,0.53 0,0.2 -0.09,0.38 -0.27,0.52 -0.18,0.13 -0.48,0.2 -0.89,0.2l-5.85 0c-0.41,0 -0.71,-0.07 -0.89,-0.2 -0.17,-0.14 -0.26,-0.31 -0.26,-0.52 0,-0.22 0.09,-0.4 0.26,-0.53 0.17,-0.13 0.47,-0.2 0.9,-0.2l2.24 0 0 -8.3zm34.54 -0.29c0,1.93 -0.46,3.72 -1.37,5.37 -0.93,1.65 -2.19,2.93 -3.8,3.85 -1.61,0.91 -3.34,1.37 -5.2,1.37 -2.74,0 -5.16,-0.99 -7.24,-2.97 -2.09,-1.98 -3.13,-4.52 -3.13,-7.63 0,-3.11 1.04,-5.65 3.13,-7.63 2.08,-1.97 4.5,-2.96 7.24,-2.96 1.85,0 3.59,0.46 5.19,1.37 1.61,0.92 2.88,2.2 3.8,3.84 0.93,1.65 1.39,3.43 1.39,5.37zm-1.7 0c-0.01,-2.35 -0.82,-4.46 -2.44,-6.34 -1.6,-1.87 -3.69,-2.8 -6.24,-2.8 -2.39,0 -4.43,0.89 -6.13,2.68 -1.7,1.78 -2.55,3.94 -2.55,6.46 0,2.69 0.89,4.89 2.66,6.59 1.78,1.7 3.79,2.56 6.01,2.56 2.55,0 4.63,-0.93 6.24,-2.8 1.61,-1.87 2.43,-3.98 2.44,-6.35zm22.34 3.99l-2 0 -6.52 -12.68 -0.33 0 0 17.27 3.15 0c0.42,0 0.72,0.06 0.89,0.2 0.18,0.13 0.27,0.31 0.27,0.53 0,0.2 -0.09,0.38 -0.27,0.52 -0.17,0.13 -0.47,0.2 -0.89,0.2l-6.26 0c-0.42,0 -0.72,-0.07 -0.9,-0.2 -0.17,-0.14 -0.26,-0.31 -0.26,-0.52 0,-0.22 0.09,-0.4 0.26,-0.53 0.18,-0.13 0.48,-0.2 0.9,-0.2l1.41 0 0 -17.27 -1.04 0c-0.41,0 -0.71,-0.06 -0.89,-0.2 -0.18,-0.13 -0.27,-0.31 -0.27,-0.52 0,-0.22 0.09,-0.39 0.27,-0.53 0.18,-0.13 0.48,-0.2 0.89,-0.2l4.18 0 6.41 12.46 6.27 -12.46 4.23 0c0.42,0 0.72,0.06 0.9,0.2 0.18,0.13 0.26,0.31 0.26,0.53 0,0.22 -0.08,0.39 -0.26,0.52 -0.18,0.14 -0.48,0.2 -0.9,0.2l-1.04 0 0 17.27 1.41 0c0.42,0 0.72,0.06 0.9,0.2 0.17,0.13 0.26,0.31 0.26,0.53 0,0.2 -0.09,0.38 -0.26,0.52 -0.18,0.13 -0.48,0.2 -0.9,0.2l-6.27 0c-0.41,0 -0.7,-0.07 -0.88,-0.2 -0.19,-0.14 -0.28,-0.31 -0.28,-0.52 0,-0.22 0.09,-0.4 0.26,-0.53 0.18,-0.13 0.48,-0.2 0.9,-0.2l3.15 0 0 -17.27 -0.37 0 -6.39 12.68zm23.16 -3.7l0 8.3 13.07 0 0 -4.28c0,-0.34 0.07,-0.58 0.24,-0.73 0.15,-0.14 0.35,-0.22 0.61,-0.22 0.26,0 0.46,0.08 0.62,0.22 0.16,0.15 0.23,0.39 0.23,0.73l0 5.72 -18.8 0c-0.41,0 -0.69,-0.07 -0.86,-0.2 -0.17,-0.14 -0.26,-0.31 -0.26,-0.52 0,-0.22 0.09,-0.4 0.26,-0.53 0.17,-0.13 0.46,-0.2 0.86,-0.2l2.32 0 0 -17.27 -2.32 0c-0.41,0 -0.69,-0.06 -0.86,-0.2 -0.17,-0.13 -0.26,-0.31 -0.26,-0.52 0,-0.22 0.09,-0.39 0.26,-0.53 0.17,-0.13 0.46,-0.2 0.86,-0.2l17.93 0 0 4.98c0,0.35 -0.07,0.59 -0.24,0.73 -0.15,0.15 -0.35,0.22 -0.61,0.22 -0.26,0 -0.46,-0.07 -0.61,-0.22 -0.16,-0.15 -0.24,-0.39 -0.24,-0.73l0 -3.53 -12.2 0 0 7.52 6.1 0 0 -1.66c0,-0.34 0.08,-0.58 0.24,-0.73 0.16,-0.15 0.37,-0.22 0.61,-0.22 0.24,0 0.44,0.08 0.6,0.22 0.16,0.15 0.24,0.39 0.24,0.73l0 4.77c0,0.34 -0.09,0.58 -0.24,0.73 -0.16,0.14 -0.36,0.22 -0.6,0.22 -0.25,0 -0.46,-0.08 -0.61,-0.22 -0.16,-0.15 -0.24,-0.39 -0.24,-0.73l0 -1.66 -6.1 0zm58.65 8.3l0 -17.27 -1.41 0c-0.42,0 -0.71,-0.06 -0.89,-0.2 -0.18,-0.13 -0.27,-0.31 -0.27,-0.52 0,-0.22 0.09,-0.39 0.27,-0.53 0.18,-0.13 0.48,-0.2 0.89,-0.2l9.13 0c1.43,0 2.74,0.26 3.91,0.76 1.18,0.5 2.08,1.07 2.7,1.72 1.06,1.09 1.87,2.24 2.42,3.46 0.4,0.89 0.59,1.93 0.59,3.13l0 2c0,1.48 -0.39,2.92 -1.15,4.31 -0.77,1.39 -2.05,2.6 -3.84,3.64 -1.33,0.76 -2.88,1.13 -4.63,1.13l-9.13 0c-0.42,0 -0.71,-0.07 -0.89,-0.2 -0.18,-0.14 -0.27,-0.31 -0.27,-0.52 0,-0.22 0.09,-0.4 0.27,-0.53 0.18,-0.13 0.48,-0.2 0.89,-0.2l1.41 0zm1.7 0l6.17 0c1.43,0 2.77,-0.39 4.02,-1.19 1.25,-0.78 2.18,-1.74 2.81,-2.85 0.63,-1.11 0.94,-2.21 0.94,-3.29l0 -2.63c0,-0.89 -0.17,-1.69 -0.5,-2.39 -0.48,-1.03 -1.18,-2 -2.07,-2.91 -0.48,-0.52 -1.2,-0.99 -2.15,-1.4 -0.94,-0.42 -1.96,-0.63 -3.06,-0.63l-6.17 0 0 17.27zm29.31 -8.3l0 8.3 13.07 0 0 -4.28c0,-0.34 0.07,-0.58 0.23,-0.73 0.15,-0.14 0.37,-0.22 0.62,-0.22 0.25,0 0.46,0.08 0.61,0.22 0.17,0.15 0.24,0.39 0.24,0.73l0 5.72 -18.8 0c-0.4,0 -0.69,-0.07 -0.86,-0.2 -0.17,-0.14 -0.26,-0.31 -0.26,-0.52 0,-0.22 0.09,-0.4 0.26,-0.53 0.18,-0.13 0.46,-0.2 0.86,-0.2l2.32 0 0 -17.27 -2.32 0c-0.4,0 -0.69,-0.06 -0.86,-0.2 -0.17,-0.13 -0.26,-0.31 -0.26,-0.52 0,-0.22 0.09,-0.39 0.26,-0.53 0.18,-0.13 0.46,-0.2 0.86,-0.2l17.93 0 0 4.98c0,0.35 -0.07,0.59 -0.23,0.73 -0.15,0.15 -0.37,0.22 -0.62,0.22 -0.26,0 -0.46,-0.07 -0.61,-0.22 -0.16,-0.15 -0.24,-0.39 -0.24,-0.73l0 -3.53 -12.2 0 0 7.52 6.1 0 0 -1.66c0,-0.34 0.08,-0.58 0.24,-0.73 0.16,-0.15 0.37,-0.22 0.62,-0.22 0.24,0 0.44,0.08 0.6,0.22 0.16,0.15 0.24,0.39 0.24,0.73l0 4.77c0,0.34 -0.08,0.58 -0.24,0.73 -0.16,0.14 -0.36,0.22 -0.6,0.22 -0.25,0 -0.46,-0.08 -0.62,-0.22 -0.16,-0.15 -0.24,-0.39 -0.24,-0.73l0 -1.66 -6.1 0zm42.92 -8.44l0 -1.02c0,-0.34 0.07,-0.59 0.24,-0.74 0.15,-0.15 0.36,-0.22 0.61,-0.22 0.26,0 0.47,0.07 0.62,0.22 0.15,0.15 0.23,0.39 0.23,0.73l0 4c0,0.36 -0.08,0.61 -0.23,0.76 -0.15,0.15 -0.36,0.22 -0.62,0.22 -0.22,0 -0.42,-0.07 -0.57,-0.21 -0.16,-0.14 -0.25,-0.36 -0.28,-0.66 -0.07,-0.96 -0.68,-1.81 -1.84,-2.56 -1.57,-1.02 -3.34,-1.52 -5.35,-1.52 -1.31,0 -2.54,0.24 -3.7,0.74 -0.87,0.35 -1.56,0.79 -2.07,1.31 -0.89,0.89 -1.6,1.89 -2.13,2.97 -0.38,0.81 -0.57,1.72 -0.57,2.72l0 2.53c0,2.16 0.92,4.04 2.75,5.63 1.83,1.59 3.97,2.38 6.4,2.38 1.45,0 2.76,-0.27 3.91,-0.8 1.15,-0.54 2.27,-1.35 3.37,-2.44 0.21,-0.24 0.47,-0.36 0.76,-0.36 0.25,0 0.45,0.07 0.59,0.19 0.15,0.13 0.23,0.29 0.23,0.48 0,0.26 -0.29,0.67 -0.87,1.2 -1.11,1.05 -2.35,1.85 -3.74,2.38 -1.38,0.53 -2.78,0.8 -4.2,0.8 -1.23,0 -2.48,-0.2 -3.75,-0.6 -0.98,-0.31 -1.78,-0.68 -2.41,-1.09 -0.63,-0.41 -1.41,-1.11 -2.34,-2.09 -0.93,-0.98 -1.56,-1.89 -1.9,-2.72 -0.34,-0.83 -0.5,-1.75 -0.5,-2.75l0 -2.94c0,-1.43 0.45,-2.88 1.35,-4.37 0.9,-1.49 2.13,-2.63 3.68,-3.43 1.57,-0.8 3.25,-1.19 5.07,-1.19 2.81,0 5.22,0.81 7.25,2.44zm32.83 8.15c0,1.93 -0.46,3.72 -1.38,5.37 -0.91,1.65 -2.18,2.93 -3.8,3.85 -1.61,0.91 -3.34,1.37 -5.19,1.37 -2.74,0 -5.16,-0.99 -7.24,-2.97 -2.09,-1.98 -3.14,-4.52 -3.14,-7.63 0,-3.11 1.05,-5.65 3.14,-7.63 2.08,-1.97 4.5,-2.96 7.24,-2.96 1.85,0 3.58,0.46 5.19,1.37 1.6,0.92 2.87,2.2 3.79,3.84 0.93,1.65 1.39,3.43 1.39,5.37zm-1.7 0c-0.02,-2.35 -0.82,-4.46 -2.43,-6.34 -1.61,-1.87 -3.69,-2.8 -6.24,-2.8 -2.39,0 -4.44,0.89 -6.13,2.68 -1.7,1.78 -2.55,3.94 -2.55,6.46 0,2.69 0.89,4.89 2.66,6.59 1.78,1.7 3.78,2.56 6.01,2.56 2.56,0 4.63,-0.93 6.24,-2.8 1.61,-1.87 2.42,-3.98 2.43,-6.35zm15.61 1.03l0 7.56 3.15 0c0.42,0 0.72,0.06 0.9,0.2 0.17,0.13 0.26,0.31 0.26,0.53 0,0.2 -0.09,0.38 -0.26,0.52 -0.18,0.13 -0.48,0.2 -0.9,0.2l-7.14 0c-0.41,0 -0.71,-0.07 -0.89,-0.2 -0.18,-0.14 -0.27,-0.31 -0.27,-0.52 0,-0.22 0.09,-0.4 0.27,-0.53 0.18,-0.13 0.48,-0.2 0.89,-0.2l2.28 0 0 -17.27 -2.28 0c-0.41,0 -0.71,-0.06 -0.89,-0.2 -0.18,-0.13 -0.27,-0.31 -0.27,-0.52 0,-0.22 0.09,-0.39 0.27,-0.53 0.18,-0.13 0.48,-0.2 0.89,-0.2l10.3 0c2.12,0 3.91,0.57 5.37,1.71 1.45,1.15 2.18,2.43 2.18,3.87 0,1.03 -0.44,2 -1.35,2.92 -0.91,0.91 -2.41,1.67 -4.53,2.28 1.21,0.71 2.26,1.52 3.13,2.41 0.87,0.9 2.26,2.74 4.17,5.52l1.31 0c0.41,0 0.7,0.06 0.88,0.2 0.17,0.13 0.26,0.31 0.26,0.53 0,0.2 -0.09,0.38 -0.26,0.52 -0.18,0.13 -0.48,0.2 -0.88,0.2l-2.28 0c-2.11,-3.2 -3.75,-5.36 -4.91,-6.45 -1.15,-1.09 -2.49,-1.94 -3.99,-2.55l-5.4 0zm0 -1.45l4.65 0c1.49,0 2.84,-0.23 4.06,-0.69 1.21,-0.46 2.09,-1 2.63,-1.62 0.55,-0.62 0.82,-1.26 0.82,-1.9 0,-0.96 -0.57,-1.89 -1.71,-2.76 -1.15,-0.87 -2.53,-1.31 -4.17,-1.31l-6.27 0 0 8.26z"/>
   <path class="fil2" d="M188.13 409.94l-9.37 0 0 6.38 1.32 0c0.28,0 0.53,0.03 0.74,0.07 0.28,0.06 0.52,0.17 0.73,0.32 0.2,0.15 0.37,0.34 0.48,0.55 0.12,0.23 0.18,0.48 0.18,0.74 0,0.52 -0.22,0.94 -0.65,1.28 -0.2,0.15 -0.44,0.26 -0.72,0.32 -0.22,0.05 -0.47,0.08 -0.76,0.08l-5.89 0c-0.28,0 -0.54,-0.03 -0.75,-0.08 -0.29,-0.06 -0.52,-0.18 -0.71,-0.32 -0.21,-0.15 -0.37,-0.35 -0.48,-0.56 -0.11,-0.22 -0.17,-0.46 -0.17,-0.72 0,-0.53 0.22,-0.96 0.65,-1.29 0.2,-0.15 0.45,-0.27 0.73,-0.33 0.21,-0.04 0.47,-0.07 0.74,-0.07l0.94 0 0 -15.35 -0.08 0c-0.28,0 -0.53,-0.03 -0.74,-0.07 -0.28,-0.06 -0.52,-0.17 -0.73,-0.32 -0.2,-0.16 -0.36,-0.35 -0.47,-0.56 -0.11,-0.24 -0.17,-0.48 -0.17,-0.73 0,-0.25 0.06,-0.49 0.16,-0.71 0.11,-0.23 0.28,-0.43 0.48,-0.58l0.02 -0.02c0.19,-0.14 0.44,-0.24 0.71,-0.31 0.21,-0.04 0.46,-0.07 0.74,-0.07l5.02 0c0.27,0 0.52,0.03 0.74,0.07 0.28,0.06 0.52,0.17 0.71,0.31 0.21,0.15 0.38,0.35 0.49,0.57 0.12,0.23 0.18,0.47 0.18,0.74 0,0.53 -0.22,0.96 -0.65,1.29 -0.2,0.15 -0.45,0.26 -0.73,0.32 -0.21,0.05 -0.47,0.07 -0.74,0.07l-1.32 0 0 5.6 9.37 0 0 -5.6 -1.28 0c-0.28,0 -0.53,-0.03 -0.74,-0.07 -0.28,-0.06 -0.54,-0.17 -0.73,-0.33 -0.2,-0.15 -0.36,-0.33 -0.47,-0.55 -0.11,-0.22 -0.17,-0.48 -0.17,-0.73 0,-0.25 0.06,-0.49 0.16,-0.71 0.12,-0.23 0.28,-0.43 0.48,-0.58 0.19,-0.15 0.44,-0.26 0.73,-0.32 0.21,-0.04 0.46,-0.07 0.75,-0.07l4.98 0c0.28,0 0.53,0.03 0.74,0.07 0.28,0.06 0.52,0.17 0.72,0.31 0.22,0.17 0.38,0.35 0.49,0.57 0.12,0.24 0.18,0.48 0.18,0.73 0,0.25 -0.06,0.5 -0.17,0.72 -0.11,0.22 -0.28,0.41 -0.48,0.57 -0.2,0.15 -0.44,0.26 -0.72,0.32 -0.23,0.05 -0.48,0.07 -0.75,0.07l-0.08 0 0 15.35 0.95 0c0.27,0 0.52,0.03 0.74,0.07 0.28,0.06 0.53,0.17 0.73,0.32 0.2,0.15 0.37,0.34 0.48,0.55 0.12,0.23 0.18,0.48 0.18,0.74 0,0.52 -0.22,0.94 -0.65,1.28 -0.2,0.15 -0.44,0.26 -0.72,0.32 -0.22,0.05 -0.47,0.08 -0.76,0.08l-5.85 0c-0.29,0 -0.54,-0.03 -0.76,-0.08 -0.28,-0.06 -0.52,-0.18 -0.72,-0.33 -0.2,-0.15 -0.36,-0.33 -0.47,-0.55 -0.11,-0.22 -0.17,-0.46 -0.17,-0.72 0,-0.26 0.06,-0.5 0.16,-0.71 0.12,-0.23 0.27,-0.41 0.46,-0.56 0.2,-0.16 0.45,-0.28 0.74,-0.34 0.21,-0.04 0.46,-0.07 0.75,-0.07l1.28 0 0 -6.38zm36.45 -1.24c0,1.05 -0.13,2.06 -0.37,3.03 -0.25,0.98 -0.63,1.92 -1.13,2.81 -0.5,0.89 -1.1,1.69 -1.8,2.39 -0.69,0.7 -1.49,1.31 -2.37,1.81 -0.88,0.5 -1.8,0.88 -2.74,1.13 -0.94,0.25 -1.93,0.37 -2.93,0.37 -1.49,0 -2.91,-0.28 -4.23,-0.82 -1.32,-0.54 -2.54,-1.34 -3.67,-2.41 -1.14,-1.08 -2,-2.32 -2.57,-3.72 -0.57,-1.39 -0.86,-2.93 -0.86,-4.6 0,-1.67 0.29,-3.2 0.86,-4.6 0.57,-1.4 1.43,-2.65 2.58,-3.73 1.13,-1.07 2.35,-1.87 3.67,-2.41 1.32,-0.54 2.73,-0.81 4.23,-0.81 1,0 1.98,0.13 2.93,0.37 0.94,0.25 1.85,0.63 2.73,1.13 0.87,0.5 1.67,1.11 2.37,1.81 0.69,0.7 1.3,1.5 1.8,2.39 0.5,0.9 0.88,1.84 1.13,2.8 0.26,0.98 0.38,1.99 0.38,3.04zm-3.61 0c-0.01,-1.05 -0.19,-2.06 -0.56,-3 -0.37,-0.96 -0.92,-1.86 -1.65,-2.72 -0.71,-0.82 -1.52,-1.44 -2.43,-1.85 -0.91,-0.41 -1.95,-0.61 -3.09,-0.61 -2.12,0 -3.93,0.8 -5.43,2.38 -0.76,0.8 -1.33,1.68 -1.71,2.65 -0.38,0.96 -0.57,2.02 -0.57,3.16 0,1.22 0.2,2.33 0.59,3.3 0.39,0.98 0.99,1.84 1.77,2.6 0.8,0.77 1.65,1.34 2.55,1.72 0.88,0.37 1.81,0.56 2.8,0.56 2.26,0 4.11,-0.82 5.51,-2.46 0.73,-0.85 1.28,-1.75 1.65,-2.7 0.37,-0.95 0.55,-1.95 0.56,-3.02zm23.3 4.95l-2.58 0 -5.31 -10.32 0 13 2.19 0c0.27,0 0.52,0.03 0.74,0.07 0.29,0.06 0.53,0.17 0.73,0.32 0.21,0.15 0.37,0.34 0.47,0.55 0.12,0.23 0.18,0.49 0.18,0.74 0,0.25 -0.06,0.49 -0.17,0.72 -0.11,0.22 -0.27,0.4 -0.47,0.55 -0.2,0.15 -0.44,0.27 -0.72,0.33 -0.22,0.05 -0.47,0.08 -0.75,0.08l-6.26 0c-0.29,0 -0.54,-0.03 -0.76,-0.08 -0.27,-0.06 -0.51,-0.17 -0.71,-0.32l-0.02 -0.02c-0.19,-0.15 -0.34,-0.33 -0.45,-0.54 -0.11,-0.22 -0.18,-0.48 -0.18,-0.72 0,-0.26 0.06,-0.51 0.17,-0.73 0.11,-0.22 0.27,-0.41 0.47,-0.56 0.2,-0.15 0.45,-0.26 0.73,-0.32 0.21,-0.04 0.46,-0.07 0.74,-0.07l0.45 0 0 -15.35 -0.08 0c-0.28,0 -0.52,-0.03 -0.74,-0.07 -0.28,-0.06 -0.54,-0.17 -0.74,-0.33 -0.2,-0.15 -0.36,-0.33 -0.46,-0.55 -0.12,-0.22 -0.18,-0.48 -0.18,-0.73 0,-0.25 0.06,-0.51 0.18,-0.74 0.11,-0.22 0.28,-0.41 0.49,-0.57 0.2,-0.14 0.44,-0.24 0.71,-0.31 0.21,-0.04 0.46,-0.07 0.74,-0.07l4.76 0 5.81 11.31 5.7 -11.31 4.81 0c0.28,0 0.53,0.03 0.74,0.07 0.28,0.06 0.52,0.17 0.71,0.31 0.22,0.17 0.38,0.37 0.49,0.58 0.12,0.23 0.17,0.47 0.17,0.72 0,0.25 -0.06,0.49 -0.16,0.71 -0.12,0.24 -0.28,0.43 -0.48,0.57 -0.2,0.15 -0.44,0.26 -0.73,0.33 -0.21,0.05 -0.47,0.07 -0.74,0.07l-0.08 0 0 15.35 0.45 0c0.28,0 0.52,0.03 0.74,0.07 0.28,0.06 0.53,0.17 0.73,0.32 0.2,0.15 0.37,0.35 0.48,0.56 0.11,0.24 0.17,0.48 0.17,0.73 0,0.24 -0.06,0.49 -0.17,0.7 -0.12,0.22 -0.26,0.4 -0.46,0.56l-0.02 0.02c-0.2,0.15 -0.45,0.26 -0.72,0.32 -0.22,0.05 -0.47,0.07 -0.75,0.07l-6.27 0c-0.28,0 -0.53,-0.03 -0.74,-0.08 -0.27,-0.06 -0.5,-0.17 -0.69,-0.3 -0.22,-0.16 -0.39,-0.35 -0.51,-0.58 -0.11,-0.22 -0.17,-0.46 -0.17,-0.72 0,-0.25 0.06,-0.5 0.16,-0.71 0.11,-0.22 0.27,-0.42 0.47,-0.57 0.2,-0.15 0.45,-0.27 0.74,-0.33 0.22,-0.04 0.47,-0.07 0.74,-0.07l2.19 0 0 -13.02 -5.2 10.35 -0.59 0zm24.11 -3.7l0 6.38 11.15 0 0 -3.32c0,-0.26 0.04,-0.5 0.11,-0.72 0.09,-0.29 0.24,-0.52 0.44,-0.71 0.16,-0.16 0.36,-0.28 0.59,-0.37 0.21,-0.07 0.44,-0.11 0.67,-0.11 0.23,0 0.46,0.04 0.67,0.11 0.23,0.08 0.43,0.21 0.6,0.37 0.2,0.19 0.35,0.43 0.43,0.71 0.07,0.21 0.11,0.46 0.11,0.72l0 6.68 -19.76 0c-0.26,0 -0.5,-0.03 -0.72,-0.08 -0.28,-0.06 -0.53,-0.18 -0.72,-0.33l-0.03 -0.02c-0.18,-0.15 -0.33,-0.33 -0.43,-0.52 -0.12,-0.24 -0.18,-0.48 -0.18,-0.72 0,-0.26 0.06,-0.5 0.16,-0.71 0.11,-0.23 0.27,-0.41 0.46,-0.56 0.2,-0.16 0.44,-0.27 0.73,-0.33 0.21,-0.05 0.46,-0.07 0.72,-0.07l1.36 0 0 -15.35 -1.36 0c-0.26,0 -0.51,-0.03 -0.72,-0.07 -0.29,-0.06 -0.54,-0.18 -0.73,-0.33 -0.19,-0.15 -0.35,-0.34 -0.45,-0.54 -0.11,-0.24 -0.17,-0.48 -0.17,-0.73 0,-0.25 0.06,-0.49 0.16,-0.71 0.11,-0.23 0.28,-0.43 0.48,-0.58 0.19,-0.14 0.44,-0.26 0.72,-0.32 0.21,-0.05 0.46,-0.08 0.72,-0.08l18.88 0 0 5.94c0,0.27 -0.04,0.52 -0.1,0.72 -0.09,0.28 -0.24,0.51 -0.43,0.69 -0.17,0.17 -0.38,0.3 -0.61,0.38 -0.21,0.08 -0.44,0.12 -0.67,0.12 -0.24,0 -0.46,-0.04 -0.67,-0.12 -0.24,-0.08 -0.44,-0.22 -0.62,-0.39 -0.19,-0.19 -0.33,-0.42 -0.41,-0.69 -0.07,-0.22 -0.1,-0.46 -0.1,-0.72l0 -2.57 -10.29 0 0 5.6 4.19 0 0 -0.7c0,-0.26 0.04,-0.51 0.11,-0.74 0.09,-0.27 0.24,-0.51 0.45,-0.7 0.17,-0.15 0.37,-0.29 0.59,-0.36 0.22,-0.08 0.43,-0.11 0.66,-0.11 0.23,0 0.45,0.04 0.66,0.12 0.22,0.07 0.41,0.2 0.58,0.35 0.21,0.19 0.36,0.43 0.45,0.7 0.07,0.22 0.11,0.47 0.11,0.74l0 4.77c0,0.26 -0.04,0.51 -0.11,0.74 -0.09,0.28 -0.24,0.5 -0.43,0.69 -0.18,0.17 -0.38,0.29 -0.59,0.37 -0.21,0.08 -0.43,0.12 -0.66,0.12 -0.23,0 -0.44,-0.04 -0.65,-0.11 -0.24,-0.08 -0.44,-0.21 -0.61,-0.37 -0.21,-0.19 -0.36,-0.43 -0.45,-0.7 -0.07,-0.23 -0.11,-0.47 -0.11,-0.74l0 -0.7 -4.19 0zm56.74 6.38l0 -15.35 -0.45 0c-0.27,0 -0.53,-0.02 -0.74,-0.07 -0.27,-0.06 -0.52,-0.17 -0.72,-0.32 -0.2,-0.15 -0.37,-0.34 -0.48,-0.56 -0.12,-0.22 -0.18,-0.48 -0.18,-0.73 0,-0.25 0.06,-0.51 0.18,-0.74 0.11,-0.22 0.28,-0.41 0.49,-0.57 0.2,-0.14 0.44,-0.25 0.71,-0.31 0.22,-0.04 0.47,-0.07 0.74,-0.07l9.13 0c0.78,0 1.52,0.07 2.23,0.21 0.72,0.14 1.41,0.35 2.05,0.63 0.63,0.27 1.2,0.56 1.7,0.88 0.51,0.33 0.96,0.69 1.32,1.07 0.56,0.57 1.06,1.17 1.5,1.8 0.44,0.63 0.81,1.28 1.11,1.93 0.23,0.51 0.41,1.06 0.51,1.66 0.11,0.58 0.17,1.21 0.17,1.86l0 2c0,0.82 -0.11,1.64 -0.33,2.44 -0.21,0.79 -0.53,1.57 -0.95,2.33 -0.43,0.78 -1,1.51 -1.71,2.18 -0.7,0.67 -1.53,1.28 -2.48,1.83 -0.74,0.42 -1.56,0.74 -2.41,0.95 -0.85,0.21 -1.75,0.31 -2.7,0.31l-9.13 0c-0.28,0 -0.54,-0.03 -0.76,-0.08 -0.27,-0.06 -0.52,-0.17 -0.71,-0.32 -0.2,-0.16 -0.37,-0.35 -0.48,-0.56 -0.12,-0.22 -0.18,-0.46 -0.18,-0.72 0,-0.26 0.06,-0.51 0.18,-0.74 0.11,-0.21 0.27,-0.4 0.48,-0.55 0.2,-0.15 0.45,-0.26 0.72,-0.32 0.22,-0.04 0.47,-0.07 0.74,-0.07l0.45 0zm3.62 0l5.22 0c0.63,0 1.23,-0.09 1.81,-0.26 0.58,-0.17 1.15,-0.43 1.69,-0.78 0.57,-0.35 1.06,-0.74 1.47,-1.15 0.41,-0.42 0.76,-0.87 1.03,-1.35 0.27,-0.5 0.48,-0.98 0.62,-1.46 0.13,-0.45 0.2,-0.92 0.2,-1.37l0 -2.63c0,-0.38 -0.04,-0.74 -0.1,-1.06 -0.07,-0.32 -0.17,-0.63 -0.31,-0.92 -0.22,-0.46 -0.49,-0.92 -0.8,-1.35 -0.31,-0.44 -0.68,-0.88 -1.09,-1.29 -0.41,-0.44 -1.02,-0.83 -1.84,-1.19 -0.41,-0.18 -0.83,-0.32 -1.27,-0.41 -0.44,-0.09 -0.91,-0.13 -1.4,-0.13l-5.22 0 0 15.35zm29.31 -6.38l0 6.38 11.15 0 0 -3.32c0,-0.61 0.18,-1.08 0.54,-1.42 0.18,-0.17 0.38,-0.29 0.61,-0.37 0.21,-0.07 0.44,-0.11 0.67,-0.11 0.23,0 0.46,0.04 0.67,0.11 0.22,0.09 0.43,0.21 0.59,0.37 0.19,0.19 0.35,0.42 0.44,0.71 0.07,0.22 0.11,0.46 0.11,0.72l0 6.68 -19.76 0c-0.27,0 -0.51,-0.03 -0.73,-0.08 -0.28,-0.06 -0.52,-0.18 -0.71,-0.33l-0.02 -0.02c-0.19,-0.15 -0.33,-0.33 -0.44,-0.52 -0.12,-0.24 -0.18,-0.48 -0.18,-0.72 0,-0.26 0.06,-0.5 0.17,-0.71 0.12,-0.23 0.28,-0.43 0.47,-0.57 0.2,-0.15 0.44,-0.26 0.71,-0.32 0.22,-0.05 0.46,-0.07 0.73,-0.07l1.36 0 0 -15.35 -1.36 0c-0.26,0 -0.51,-0.03 -0.73,-0.07 -0.28,-0.06 -0.52,-0.17 -0.72,-0.32 -0.2,-0.15 -0.35,-0.34 -0.46,-0.55 -0.12,-0.24 -0.18,-0.48 -0.18,-0.73 0,-0.25 0.06,-0.49 0.17,-0.71 0.12,-0.23 0.28,-0.43 0.47,-0.58 0.21,-0.15 0.45,-0.26 0.71,-0.32 0.22,-0.05 0.46,-0.08 0.73,-0.08l18.88 0 0 5.94c0,0.26 -0.03,0.5 -0.1,0.72 -0.09,0.28 -0.23,0.52 -0.43,0.7 -0.16,0.16 -0.37,0.3 -0.6,0.38 -0.22,0.08 -0.44,0.12 -0.67,0.12 -0.24,0 -0.46,-0.04 -0.65,-0.11 -0.25,-0.09 -0.46,-0.23 -0.63,-0.39 -0.19,-0.18 -0.33,-0.41 -0.43,-0.7 -0.07,-0.21 -0.1,-0.46 -0.1,-0.72l0 -2.57 -10.28 0 0 5.6 4.18 0 0 -0.7c0,-0.26 0.04,-0.51 0.11,-0.73 0.08,-0.28 0.24,-0.52 0.44,-0.7 0.18,-0.16 0.38,-0.29 0.59,-0.37 0.21,-0.07 0.44,-0.11 0.67,-0.11 0.23,0 0.44,0.04 0.64,0.11 0.24,0.09 0.43,0.21 0.59,0.37 0.21,0.19 0.37,0.43 0.45,0.7 0.07,0.22 0.11,0.47 0.11,0.73l0 4.77c0,0.26 -0.04,0.51 -0.11,0.73 -0.09,0.28 -0.24,0.52 -0.45,0.7 -0.16,0.15 -0.36,0.28 -0.58,0.36 -0.22,0.07 -0.43,0.11 -0.66,0.11 -0.23,0 -0.45,-0.04 -0.65,-0.11 -0.23,-0.08 -0.43,-0.2 -0.61,-0.37 -0.2,-0.19 -0.36,-0.43 -0.45,-0.7 -0.07,-0.22 -0.11,-0.47 -0.11,-0.73l0 -0.7 -4.18 0zm41.1 -11.14c0.09,-0.28 0.24,-0.52 0.43,-0.7 0.17,-0.15 0.37,-0.29 0.61,-0.37 0.22,-0.07 0.44,-0.12 0.67,-0.12 0.24,0 0.45,0.04 0.65,0.11 0.25,0.09 0.46,0.23 0.62,0.38 0.19,0.19 0.34,0.42 0.43,0.69 0.07,0.22 0.11,0.47 0.11,0.74l0 4c0,0.27 -0.04,0.51 -0.1,0.73 -0.08,0.28 -0.24,0.52 -0.43,0.71 -0.17,0.16 -0.37,0.29 -0.6,0.37 -0.22,0.08 -0.44,0.12 -0.67,0.12 -0.22,0 -0.44,-0.04 -0.65,-0.11 -0.21,-0.08 -0.39,-0.19 -0.56,-0.33 -0.17,-0.16 -0.32,-0.36 -0.43,-0.62 -0.09,-0.19 -0.15,-0.43 -0.17,-0.67l-0 -0.03c-0.02,-0.3 -0.13,-0.59 -0.33,-0.87 -0.24,-0.32 -0.59,-0.64 -1.07,-0.94 -0.7,-0.46 -1.46,-0.8 -2.26,-1.03 -0.8,-0.22 -1.66,-0.34 -2.57,-0.34 -0.58,0 -1.16,0.06 -1.72,0.17 -0.56,0.11 -1.09,0.28 -1.6,0.5 -0.76,0.31 -1.35,0.67 -1.76,1.09 -0.41,0.41 -0.78,0.85 -1.1,1.3 -0.32,0.45 -0.61,0.93 -0.85,1.41 -0.15,0.34 -0.28,0.7 -0.35,1.07 -0.07,0.38 -0.12,0.8 -0.12,1.25l0 2.53c0,0.93 0.2,1.8 0.59,2.61 0.39,0.81 1.01,1.58 1.83,2.3 0.83,0.72 1.72,1.26 2.68,1.61 0.95,0.35 1.98,0.54 3.09,0.54 0.67,0 1.3,-0.06 1.87,-0.18 0.58,-0.11 1.13,-0.3 1.64,-0.54 0.52,-0.23 1.04,-0.54 1.54,-0.91 0.52,-0.37 1.03,-0.82 1.55,-1.33 0.18,-0.19 0.39,-0.35 0.61,-0.45 0.26,-0.12 0.54,-0.19 0.82,-0.19 0.21,0 0.43,0.04 0.63,0.1 0.21,0.06 0.41,0.17 0.57,0.31 0.19,0.15 0.33,0.33 0.42,0.54 0.11,0.22 0.15,0.44 0.15,0.67 0,0.34 -0.14,0.69 -0.4,1.06 -0.18,0.26 -0.45,0.54 -0.78,0.85 -0.59,0.56 -1.23,1.06 -1.9,1.48 -0.67,0.43 -1.39,0.8 -2.14,1.08 -0.75,0.28 -1.5,0.5 -2.25,0.65 -0.76,0.14 -1.53,0.21 -2.3,0.21 -0.65,0 -1.32,-0.06 -2.01,-0.17 -0.68,-0.11 -1.36,-0.26 -2.03,-0.48 -0.52,-0.17 -0.99,-0.35 -1.42,-0.54 -0.44,-0.2 -0.86,-0.43 -1.22,-0.66 -0.36,-0.23 -0.76,-0.55 -1.18,-0.93 -0.4,-0.35 -0.85,-0.8 -1.34,-1.31 -0.5,-0.54 -0.92,-1.05 -1.26,-1.53 -0.34,-0.5 -0.62,-1 -0.82,-1.49 -0.19,-0.47 -0.34,-0.97 -0.43,-1.5 -0.09,-0.52 -0.15,-1.06 -0.15,-1.61l0 -2.94c0,-0.81 0.13,-1.62 0.38,-2.44 0.25,-0.8 0.62,-1.61 1.1,-2.42 0.49,-0.81 1.08,-1.55 1.76,-2.18 0.67,-0.63 1.45,-1.17 2.3,-1.61 0.86,-0.44 1.75,-0.77 2.66,-0.98 0.91,-0.21 1.87,-0.32 2.85,-0.32 1.5,0 2.91,0.22 4.22,0.66 0.76,0.26 1.48,0.59 2.17,0.99zm1.6 3.79l0 -0.22 -0.15 -0.11 0.15 0.33zm33.05 6.11c0,1.05 -0.13,2.06 -0.38,3.03 -0.25,0.98 -0.63,1.92 -1.13,2.81 -0.5,0.89 -1.09,1.69 -1.79,2.39 -0.69,0.7 -1.49,1.31 -2.37,1.81 -0.88,0.5 -1.8,0.88 -2.74,1.13 -0.94,0.25 -1.93,0.37 -2.93,0.37 -1.49,0 -2.91,-0.28 -4.24,-0.82 -1.31,-0.54 -2.55,-1.35 -3.67,-2.41 -1.13,-1.08 -2,-2.32 -2.57,-3.72 -0.57,-1.39 -0.86,-2.93 -0.86,-4.6 0,-1.67 0.29,-3.21 0.86,-4.6 0.57,-1.39 1.44,-2.64 2.57,-3.72 1.14,-1.07 2.36,-1.88 3.68,-2.42 1.31,-0.54 2.74,-0.81 4.23,-0.81 1,0 1.98,0.13 2.93,0.37 0.94,0.25 1.85,0.63 2.73,1.13 0.87,0.5 1.67,1.11 2.36,1.81 0.69,0.7 1.3,1.5 1.79,2.39 0.5,0.9 0.89,1.83 1.14,2.8 0.25,0.98 0.38,1.99 0.38,3.04zm-3.62 0c-0,-1.05 -0.2,-2.06 -0.56,-3.01 -0.36,-0.95 -0.92,-1.85 -1.65,-2.71 -0.7,-0.82 -1.52,-1.44 -2.43,-1.85 -0.91,-0.41 -1.94,-0.61 -3.08,-0.61 -2.12,0 -3.94,0.8 -5.44,2.38 -0.76,0.8 -1.33,1.68 -1.71,2.65 -0.38,0.96 -0.57,2.02 -0.57,3.16 0,1.22 0.2,2.33 0.6,3.31 0.39,0.97 0.98,1.84 1.76,2.59 0.8,0.77 1.66,1.34 2.56,1.72 0.87,0.37 1.81,0.56 2.8,0.56 2.26,0 4.1,-0.82 5.52,-2.47 0.72,-0.84 1.28,-1.74 1.64,-2.7 0.36,-0.95 0.56,-1.96 0.56,-3.02zm17.53 1.98l0 5.64 2.19 0c0.28,0 0.54,0.03 0.75,0.07 0.28,0.06 0.53,0.17 0.72,0.32 0.21,0.15 0.37,0.35 0.47,0.56 0.12,0.24 0.18,0.48 0.18,0.73 0,0.24 -0.06,0.49 -0.17,0.7 -0.11,0.21 -0.26,0.39 -0.44,0.54l-0.04 0.03c-0.19,0.14 -0.43,0.26 -0.71,0.32 -0.22,0.05 -0.47,0.08 -0.76,0.08l-7.14 0c-0.28,0 -0.54,-0.03 -0.75,-0.08 -0.28,-0.06 -0.52,-0.18 -0.71,-0.32 -0.21,-0.16 -0.37,-0.35 -0.48,-0.56 -0.11,-0.22 -0.17,-0.46 -0.17,-0.72 0,-0.26 0.06,-0.51 0.17,-0.74 0.11,-0.21 0.27,-0.4 0.48,-0.55 0.2,-0.15 0.44,-0.26 0.72,-0.32 0.22,-0.04 0.47,-0.07 0.74,-0.07l1.32 0 0 -15.35 -1.32 0c-0.26,0 -0.52,-0.02 -0.74,-0.07 -0.28,-0.06 -0.53,-0.17 -0.73,-0.32 -0.2,-0.15 -0.37,-0.34 -0.48,-0.56 -0.11,-0.22 -0.17,-0.48 -0.17,-0.73 0,-0.25 0.06,-0.51 0.17,-0.74 0.12,-0.22 0.28,-0.41 0.5,-0.57 0.19,-0.14 0.44,-0.24 0.71,-0.31 0.21,-0.04 0.46,-0.07 0.74,-0.07l10.3 0c1.15,0 2.24,0.17 3.22,0.47 1,0.32 1.92,0.81 2.73,1.44 0.83,0.65 1.45,1.36 1.88,2.11 0.44,0.79 0.67,1.63 0.67,2.52 0,0.65 -0.14,1.3 -0.43,1.91 -0.28,0.59 -0.68,1.15 -1.21,1.69 -0.52,0.52 -1.21,1 -2.06,1.43l-1 0.46 0.12 0.09c0.56,0.43 1.08,0.9 1.55,1.37 0.47,0.48 1.06,1.2 1.78,2.15 0.61,0.82 1.36,1.85 2.21,3.09l0.8 0c0.26,0 0.52,0.03 0.73,0.07 0.28,0.06 0.52,0.17 0.72,0.32 0.21,0.15 0.37,0.35 0.47,0.56 0.12,0.24 0.18,0.48 0.18,0.73 0,0.24 -0.06,0.49 -0.18,0.7 -0.11,0.21 -0.26,0.39 -0.44,0.54l-0.03 0.03c-0.2,0.14 -0.44,0.26 -0.72,0.32 -0.22,0.05 -0.47,0.08 -0.73,0.08l-2.8 0 -0.29 -0.43c-1.04,-1.58 -1.96,-2.91 -2.77,-3.96 -0.79,-1.04 -1.46,-1.81 -1.99,-2.31 -0.53,-0.51 -1.11,-0.96 -1.72,-1.34 -0.56,-0.36 -1.17,-0.69 -1.81,-0.95l-4.24 0zm0 -3.36l3.69 0c0.7,0 1.35,-0.06 1.97,-0.16 0.61,-0.1 1.2,-0.26 1.75,-0.47 0.55,-0.2 1.02,-0.44 1.4,-0.67 0.35,-0.22 0.64,-0.45 0.85,-0.69 0.2,-0.23 0.36,-0.46 0.45,-0.69 0.08,-0.2 0.13,-0.39 0.13,-0.58 0,-0.3 -0.09,-0.61 -0.28,-0.9 -0.22,-0.36 -0.57,-0.73 -1.06,-1.09 -0.48,-0.36 -1.02,-0.64 -1.6,-0.82 -0.6,-0.19 -1.26,-0.28 -1.99,-0.28l-5.31 0 0 6.35z"/>
   <path class="fil2" d="M106.84 342.53l-1.61 22.65 -59.43 0 0 -3.85c0.86,-0.07 2.09,-0.2 3.7,-0.37 1.61,-0.19 2.75,-0.42 3.38,-0.72 1.08,-0.46 1.85,-1.13 2.33,-2.03 0.47,-0.9 0.72,-2.04 0.72,-3.43l0 -54.52c0,-1.23 -0.2,-2.29 -0.61,-3.22 -0.42,-0.92 -1.23,-1.67 -2.43,-2.26 -0.81,-0.43 -1.96,-0.84 -3.43,-1.25 -1.47,-0.42 -2.7,-0.66 -3.65,-0.73l0 -3.85 32.11 0 0 3.85c-1.01,0.04 -2.31,0.22 -3.91,0.53 -1.59,0.33 -2.75,0.61 -3.48,0.86 -1.21,0.44 -2.06,1.17 -2.5,2.2 -0.46,1.04 -0.67,2.15 -0.67,3.33l0 51.16c0,2.36 0.11,4.2 0.35,5.52 0.24,1.3 0.77,2.31 1.63,3.02 0.82,0.65 2.06,1.06 3.67,1.27 1.63,0.2 3.91,0.29 6.83,0.29 1.32,0 2.7,-0.04 4.12,-0.11 1.43,-0.07 2.79,-0.22 4.07,-0.42 1.26,-0.22 2.4,-0.52 3.46,-0.9 1.04,-0.37 1.83,-0.85 2.33,-1.42 1.46,-1.65 3.17,-4.14 5.11,-7.5 1.94,-3.35 3.3,-6.07 4.05,-8.14l3.85 0zm89.54 22.65l-31.67 0 0 -3.85c2.8,-0.19 5.11,-0.53 6.96,-1.08 1.83,-0.53 2.75,-1.19 2.75,-1.98 0,-0.33 -0.02,-0.72 -0.09,-1.17 -0.07,-0.47 -0.18,-0.88 -0.33,-1.24l-6.3 -17.06 -26.74 0c-1.01,2.51 -1.81,4.69 -2.46,6.54 -0.63,1.87 -1.19,3.57 -1.69,5.15 -0.46,1.54 -0.79,2.8 -0.97,3.76 -0.18,0.97 -0.27,1.76 -0.27,2.37 0,1.43 1.13,2.55 3.39,3.33 2.26,0.79 4.8,1.25 7.63,1.39l0 3.85 -28.72 0 0 -3.85c0.94,-0.07 2.09,-0.28 3.5,-0.62 1.39,-0.33 2.53,-0.79 3.43,-1.36 1.43,-0.97 2.55,-1.98 3.33,-3.04 0.79,-1.06 1.56,-2.51 2.31,-4.38 3.83,-9.55 8.05,-20.29 12.67,-32.22 4.61,-11.91 8.74,-22.53 12.35,-31.84l4.31 0 25.41 65.74c0.53,1.39 1.13,2.53 1.81,3.39 0.68,0.86 1.63,1.69 2.86,2.51 0.81,0.52 1.89,0.93 3.21,1.26 1.34,0.35 2.44,0.54 3.33,0.57l0 3.85zm-30.63 -31.12l-11.57 -29.6 -11.39 29.6 22.95 0zm114.36 31.12l-20.54 0c-4.54,-7.13 -8.65,-13.29 -12.31,-18.47 -3.67,-5.19 -7.65,-10.54 -11.93,-16.06l-7.79 0 0 24.15c0,1.24 0.2,2.35 0.59,3.3 0.41,0.95 1.23,1.67 2.53,2.16 0.64,0.26 1.76,0.5 3.38,0.72 1.59,0.2 2.97,0.33 4.07,0.37l0 3.85 -32.12 0 0 -3.85c0.87,-0.07 2.09,-0.2 3.71,-0.37 1.61,-0.19 2.74,-0.42 3.37,-0.72 1.08,-0.46 1.85,-1.13 2.33,-2.03 0.48,-0.9 0.71,-2.04 0.71,-3.43l0 -55.05c0,-1.26 -0.18,-2.36 -0.53,-3.33 -0.35,-0.97 -1.19,-1.7 -2.51,-2.2 -0.88,-0.31 -2.03,-0.63 -3.44,-0.88 -1.43,-0.28 -2.64,-0.44 -3.63,-0.51l0 -3.85 35.14 0c3.21,0 6.24,0.33 9.06,0.99 2.84,0.66 5.39,1.72 7.68,3.2 2.22,1.43 4,3.3 5.31,5.61 1.32,2.31 1.98,5.09 1.98,8.34 0,2.95 -0.44,5.54 -1.34,7.79 -0.9,2.26 -2.24,4.22 -3.98,5.87 -1.61,1.54 -3.56,2.88 -5.81,4 -2.25,1.14 -4.75,2.09 -7.48,2.88 3.76,4.97 6.89,9.17 9.36,12.57 2.5,3.39 5.54,7.54 9.17,12.39 1.57,2.16 2.98,3.74 4.27,4.74 1.27,1.01 2.53,1.85 3.78,2.5 0.93,0.46 2.09,0.81 3.5,1.06 1.39,0.24 2.54,0.39 3.48,0.42l0 3.85zm-28.27 -56.8c0,-4.6 -1.32,-8.27 -3.98,-10.96 -2.63,-2.69 -6.38,-4.05 -11.2,-4.05l-9.13 0 0 32.67 7.02 0c4.95,0 9.05,-1.58 12.35,-4.75 3.28,-3.17 4.93,-7.46 4.93,-12.91zm104.14 34.37l-1.45 22.43 -63.22 0 0 -3.85c1.08,-0.07 2.51,-0.22 4.31,-0.46 1.8,-0.24 2.97,-0.48 3.5,-0.71 1.16,-0.55 1.96,-1.25 2.4,-2.11 0.46,-0.85 0.68,-1.94 0.68,-3.26l0 -54.74c0,-1.17 -0.2,-2.22 -0.59,-3.13 -0.4,-0.92 -1.23,-1.65 -2.5,-2.24 -0.97,-0.46 -2.27,-0.86 -3.9,-1.23 -1.63,-0.35 -2.93,-0.57 -3.91,-0.64l0 -3.85 58.95 0 0 18.37 -4.07 0c-0.72,-2.72 -2.26,-5.59 -4.64,-8.66 -2.37,-3.04 -4.62,-4.7 -6.76,-5 -1.12,-0.13 -2.44,-0.23 -3.96,-0.31 -1.54,-0.07 -3.28,-0.11 -5.26,-0.11l-11.94 0 0 30.25 8.56 0c2.74,0 4.75,-0.26 6.01,-0.78 1.27,-0.53 2.37,-1.39 3.34,-2.6 0.79,-1.05 1.45,-2.42 2,-4.17 0.55,-1.72 0.91,-3.35 1.1,-4.89l4.07 0 0 29.81 -4.07 0c-0.15,-1.72 -0.54,-3.54 -1.15,-5.44 -0.63,-1.91 -1.27,-3.3 -1.94,-4.16 -1.1,-1.39 -2.37,-2.29 -3.78,-2.73 -1.41,-0.42 -3.26,-0.64 -5.57,-0.64l-8.56 0 0 22.85c0,2.3 0.17,4.09 0.48,5.41 0.33,1.32 0.95,2.33 1.89,3 0.92,0.68 2.2,1.12 3.79,1.32 1.61,0.2 3.91,0.3 6.87,0.3 1.17,0 2.74,0 4.66,0 1.93,0 3.56,-0.07 4.88,-0.22 1.35,-0.15 2.77,-0.41 4.22,-0.78 1.44,-0.38 2.47,-0.9 3.07,-1.54 1.65,-1.7 3.38,-4.3 5.17,-7.8 1.81,-3.48 2.96,-6.06 3.46,-7.7l3.85 0zm92.69 -49.93c-1.01,0.04 -2.53,0.33 -4.6,0.86 -2.07,0.53 -3.56,1.08 -4.46,1.67 -1.28,0.9 -2.15,2.6 -2.59,5.15 -0.46,2.55 -0.67,5.76 -0.67,9.66l0 55.8 -4.64 0 -46.17 -62.38 0 39.3c0,4.4 0.28,7.77 0.84,10.14 0.55,2.37 1.41,4.05 2.55,5.04 0.82,0.79 2.54,1.52 5.13,2.2 2.59,0.7 4.29,1.05 5.11,1.08l0 3.85 -31.23 0 0 -3.85c0.97,-0.07 2.58,-0.42 4.88,-1.04 2.28,-0.62 3.72,-1.2 4.29,-1.69 1.24,-1 2.11,-2.53 2.56,-4.6 0.46,-2.05 0.7,-5.56 0.7,-10.54l0 -37.51c0,-1.65 -0.29,-3.28 -0.86,-4.93 -0.57,-1.65 -1.34,-2.91 -2.31,-3.81 -1.28,-1.17 -3.02,-2.2 -5.22,-3.03 -2.22,-0.84 -4,-1.3 -5.35,-1.37l0 -3.85 21.72 0 37.28 50.51 5.56 7.54 0 -36.18c0,-4.44 -0.3,-7.85 -0.86,-10.23 -0.57,-2.37 -1.39,-3.94 -2.46,-4.73 -1.01,-0.68 -2.64,-1.34 -4.91,-2 -2.27,-0.64 -4.02,-0.99 -5.19,-1.06l0 -3.85 30.9 0 0 3.85zm40.13 74.24c-4.55,0 -8.89,-0.9 -13.05,-2.7 -4.17,-1.78 -7.87,-4.36 -11.07,-7.73 -3.17,-3.37 -5.72,-7.48 -7.61,-12.34 -1.89,-4.85 -2.84,-10.34 -2.84,-16.43 0,-6.11 0.93,-11.62 2.78,-16.59 1.85,-4.97 4.44,-9.24 7.72,-12.83 3.26,-3.54 7.09,-6.29 11.53,-8.23 4.43,-1.93 9.17,-2.9 14.2,-2.9 3.76,0 7.15,0.46 10.17,1.4 3.04,0.91 5.94,2.21 8.69,3.9l2.2 -3.65 4.29 0 0.44 27.16 -4.4 0c-0.57,-2.64 -1.43,-5.5 -2.57,-8.6 -1.14,-3.07 -2.48,-5.7 -4.02,-7.85 -1.7,-2.42 -3.74,-4.32 -6.09,-5.7 -2.36,-1.37 -5.06,-2.05 -8.08,-2.05 -3.46,0 -6.67,0.77 -9.66,2.31 -2.97,1.54 -5.56,3.81 -7.72,6.82 -2.07,2.91 -3.7,6.6 -4.88,11.09 -2.27,8.65 -2.5,19.8 0.09,28.39 1.23,4.07 2.97,7.65 5.26,10.72 2.27,3.04 4.98,5.43 8.1,7.15 3.11,1.72 6.6,2.58 10.45,2.58 2.88,0 5.54,-0.46 7.96,-1.37 2.44,-0.92 4.53,-2.13 6.32,-3.63 1.78,-1.58 3.33,-3.38 4.69,-5.37 1.35,-2.02 2.46,-4.2 3.32,-6.56l4.07 1.93c-3.08,7.57 -7.15,12.96 -12.23,16.2 -5.06,3.24 -11.11,4.86 -18.09,4.86z"/>
   <path class="fil2" d="M595.15 342.66l-1.45 22.44 -63.22 0 0 -3.85c1.08,-0.07 2.51,-0.22 4.3,-0.46 1.8,-0.24 2.97,-0.48 3.5,-0.72 1.15,-0.55 1.96,-1.25 2.4,-2.11 0.46,-0.84 0.68,-1.94 0.68,-3.26l0 -54.74c0,-1.17 -0.2,-2.22 -0.59,-3.14 -0.4,-0.91 -1.23,-1.65 -2.49,-2.24 -0.97,-0.45 -2.27,-0.86 -3.9,-1.22 -1.64,-0.35 -2.93,-0.57 -3.91,-0.64l0 -3.85 58.95 0 0 18.37 -4.07 0c-0.71,-2.71 -2.25,-5.59 -4.64,-8.65 -2.36,-3.04 -4.61,-4.71 -6.76,-5 -1.12,-0.13 -2.44,-0.24 -3.96,-0.31 -1.54,-0.07 -3.28,-0.11 -5.26,-0.11l-11.94 0 0 30.24 8.56 0c2.73,0 4.75,-0.26 6.01,-0.77 1.26,-0.53 2.37,-1.39 3.34,-2.6 0.78,-1.04 1.44,-2.42 2,-4.16 0.55,-1.72 0.91,-3.36 1.1,-4.9l4.07 0 0 29.8 -4.07 0c-0.15,-1.72 -0.53,-3.53 -1.15,-5.44 -0.63,-1.91 -1.27,-3.3 -1.94,-4.16 -1.1,-1.39 -2.37,-2.29 -3.78,-2.73 -1.41,-0.42 -3.26,-0.64 -5.57,-0.64l-8.56 0 0 22.86c0,2.29 0.17,4.09 0.48,5.4 0.33,1.32 0.95,2.33 1.89,3.01 0.91,0.67 2.19,1.11 3.79,1.32 1.61,0.2 3.91,0.29 6.87,0.29 1.17,0 2.73,0 4.65,0 1.93,0 3.56,-0.07 4.88,-0.22 1.35,-0.14 2.76,-0.4 4.21,-0.77 1.45,-0.39 2.47,-0.9 3.08,-1.54 1.65,-1.71 3.37,-4.31 5.17,-7.81 1.81,-3.48 2.97,-6.05 3.46,-7.7l3.85 0z"/>
  </g>
 </g>
</svg>
