<svg width="24" height="24" viewBox="0 0 24 24" fill="none" xmlns="http://www.w3.org/2000/svg">
    <path d="M7.00063 13.0022V18.0022H9.00063V13.0022H7.00063Z" fill="#A1A3A8"/>
    <path d="M11.0006 18.0022V13.0022H13.0006V18.0022H11.0006Z" fill="#A1A3A8"/>
    <path d="M15.0006 13.0022V18.0022H17.0006V13.0022H15.0006Z" fill="#A1A3A8"/>
    <path fill-rule="evenodd" clip-rule="evenodd" d="M13.6296 1.83892C12.8321 0.720367 11.1702 0.720358 10.3727 1.83891L5.97831 8.00216H4.0013C2.07171 8.00216 0.643916 9.79747 1.07831 11.6775L3.33736 21.4548C3.54698 22.362 4.35491 23.0046 5.28602 23.0046H18.7163C19.6474 23.0046 20.4554 22.362 20.665 21.4548L22.924 11.6775C23.3584 9.79746 21.9306 8.00216 20.001 8.00216H18.024L13.6296 1.83892ZM15.5677 8.00216H8.43463L12.0012 3L15.5677 8.00216ZM3.02697 11.2273C2.88217 10.6006 3.3581 10.0022 4.0013 10.0022H20.001C20.6442 10.0022 21.1201 10.6006 20.9753 11.2273L18.7163 21.0046L5.28602 21.0046L3.02697 11.2273Z" fill="#A1A3A8"/>
</svg>
