<?xml version="1.0" encoding="utf-8"?>
<!-- Generator: Adobe Illustrator 28.4.1, SVG Export Plug-In . SVG Version: 6.00 Build 0)  -->
<svg version="1.1" id="Layer_1" xmlns="http://www.w3.org/2000/svg" xmlns:xlink="http://www.w3.org/1999/xlink" x="0px" y="0px"
	 viewBox="0 0 264.26 125.54" style="enable-background:new 0 0 264.26 125.54;" xml:space="preserve">
<style type="text/css">
	.st0{fill:#F37053;}
	.st1{fill:#6D6E71;}
	.st2{fill:none;}
</style>
<g>
	<path class="st0" d="M231.56,83.62c0,1.19-0.42,2.2-1.25,3.03c-0.84,0.84-1.85,1.26-3.04,1.26c-1.19,0-2.2-0.42-3.03-1.26
		s-1.26-1.85-1.26-3.03c0-1.17,0.42-2.18,1.27-3.02c0.84-0.84,1.85-1.27,3.02-1.27c1.19,0,2.2,0.42,3.04,1.25
		C231.15,81.42,231.56,82.43,231.56,83.62z"/>
	<g>
		<path class="st1" d="M61.48,66.68h1.46h34.89c2.8,0,4.19,1.08,4.19,3.23v2.98c0,0.17-0.09,0.25-0.25,0.25H62.18L61.48,66.68z
			 M56.46,67.22"/>
		<path class="st1" d="M108.21,37.31h3.18c0.17,0.02,0.26,0.11,0.26,0.25v24.9c0,2.29,0.8,3.64,2.41,4.07l0.76,0.13h10.29
			c-0.17-0.36-0.25-1.04-0.25-2.03V40.36c0.44-2.03,1.42-3.05,2.92-3.05h3.3c0.17,0.02,0.25,0.11,0.25,0.25v25.79
			c0,1.78,0.97,2.88,2.92,3.3h3.94c0.17,0.02,0.26,0.11,0.26,0.26v5.97c0,0.17-0.09,0.25-0.26,0.25h-25.03
			c-2.56,0-4.82-1.24-6.66-3.87c-0.68-0.97-1.24-2.44-1.32-3.88v-24.9c0-1.44,0.83-2.46,2.27-3.05L108.21,37.31z"/>
		<path class="st1" d="M137.37,66.66h13.81c2.2,0,3.3,1.4,3.3,4.19v2.03c0,0.17-0.09,0.25-0.25,0.25h-16.85
			c-0.17,0-0.25-0.08-0.25-0.25v-5.97C137.14,66.75,137.22,66.66,137.37,66.66z"/>
		<path class="st0" d="M212.24,47.55c10.49,0.14,16.33,1.38,21.45,6.34c4.73,4.58,6.11,8.74,5.05,19.27l-36.18-0.05l1.02-7.51h27.99
			c-0.5-5.12-2.12-7.09-5.02-8.72c-4.32-2.43-8.12-2.14-14.3-2.14V47.55z"/>
		<path class="st1" d="M62.18,75.36c-1.31,4.15-3.47,7.16-6.48,9.02c-2.46,1.61-5.25,2.41-8.39,2.41H36c-5.4,0-9.8-3.13-13.21-9.4
			c-0.93-2.14-1.4-4.34-1.4-6.61V57.76c0-1.5,0.75-2.92,3.05-2.92h3.16c0.17,0.02,0.25,0.11,0.25,0.25v15.06
			c0,4.74,2.13,7.96,6.62,9.66c1.23,0.34,2.41,0.51,3.56,0.51h8.26c4.7,0,7.92-2.16,9.66-6.48c0.34-0.83,0.51-2.39,0.51-4.7v-4.93
			c0-1.95,1.4-2.92,2.92-2.92h3.3c0.17,0.02,0.25,0.11,0.25,0.25v7.22C62.94,68.76,63.11,72.92,62.18,75.36z"/>
		<path class="st0" d="M190.28,73.14c0,0-0.52,0.02-0.5-0.47l0.01-2.53c-0.08-4.93,4.49-4.55,4.49-4.55h29.83v7.54h-11.54
			c0,14.22-15.61,13.61-15.61,13.61h-12.02c-19.89,0-18.55-20.07-18.55-20.07v-6.82c-0.2-5.28,3.4-5.02,3.4-5.02h3.5
			c0.67,0,0.61,0.59,0.61,0.59v13.65c0,10.61,9.43,10.19,9.43,10.19h15.19c4.19,0.04,6.67-1.35,6.55-6.13H190.28z"/>
	</g>
	<g>
		<path class="st1" d="M141.95,75.28c0.56,0,1.1,0.14,1.62,0.42c0.52,0.28,0.93,0.68,1.23,1.21c0.3,0.53,0.44,1.08,0.44,1.66
			c0,0.56-0.14,1.1-0.43,1.62c-0.29,0.52-0.69,0.93-1.21,1.21c-0.52,0.29-1.07,0.43-1.65,0.43c-0.56,0-1.1-0.14-1.62-0.43
			c-0.52-0.29-0.93-0.69-1.21-1.21c-0.29-0.52-0.43-1.06-0.43-1.62c0-0.58,0.14-1.13,0.43-1.66c0.29-0.53,0.7-0.94,1.23-1.21
			S141.41,75.28,141.95,75.28z"/>
		<path class="st1" d="M149.07,75.28c0.56,0,1.1,0.14,1.62,0.42c0.52,0.28,0.93,0.68,1.23,1.21c0.3,0.53,0.45,1.08,0.45,1.66
			c0,0.56-0.14,1.1-0.43,1.62c-0.29,0.52-0.69,0.93-1.22,1.21c-0.52,0.29-1.07,0.43-1.65,0.43c-0.56,0-1.1-0.14-1.62-0.43
			c-0.52-0.29-0.93-0.69-1.21-1.21c-0.29-0.52-0.43-1.06-0.43-1.62c0-0.58,0.14-1.13,0.43-1.66c0.29-0.53,0.7-0.94,1.23-1.21
			C148,75.42,148.53,75.28,149.07,75.28z"/>
		<path class="st1" d="M145.51,81.49c0.56,0,1.1,0.14,1.62,0.42c0.52,0.28,0.93,0.68,1.23,1.21c0.3,0.53,0.44,1.08,0.44,1.66
			c0,0.56-0.14,1.1-0.43,1.62c-0.29,0.52-0.69,0.93-1.21,1.21c-0.52,0.29-1.07,0.43-1.65,0.43c-0.56,0-1.1-0.14-1.62-0.43
			c-0.52-0.29-0.93-0.69-1.21-1.21c-0.29-0.52-0.43-1.06-0.43-1.62c0-0.58,0.14-1.13,0.43-1.66c0.29-0.53,0.7-0.94,1.23-1.21
			C144.44,81.63,144.97,81.49,145.51,81.49z"/>
	</g>
</g>
<rect x="-1250.63" y="-80.53" class="st2" width="286.43" height="286.43"/>
<rect x="-942.63" y="-80.53" class="st2" width="286.43" height="286.43"/>
<rect x="-631.96" y="-80.53" class="st2" width="286.43" height="286.43"/>
</svg>
