<?xml version="1.0" encoding="UTF-8"?><svg id="Layer_1" xmlns="http://www.w3.org/2000/svg" xmlns:xlink="http://www.w3.org/1999/xlink" viewBox="0 0 128 128"><defs><style>.cls-1{fill:none;}.cls-2{fill:#d9364a;}.cls-3{clip-path:url(#clippath);}</style><clipPath id="clippath"><rect class="cls-1" x="-10.68" y="28.64" width="149.36" height="70.72"/></clipPath></defs><g class="cls-3"><path class="cls-2" d="M111.08,55.13l-8.16-8.16c-.78-.78-2.08-.71-2.75.17-7.98,10.45-21.2,17.28-36.17,17.28-14.97,0-28.19-6.84-36.17-17.28-.67-.88-1.97-.95-2.75-.17l-8.16,8.16c-1.11,1.11-1.22,2.9-.22,4.11,11.23,13.63,28.23,22.32,47.27,22.33h0s.03,0,.03,0h.03c19.04-.01,36.04-8.7,47.27-22.33,1-1.21.89-3-.22-4.11"/></g></svg>