<?xml version="1.0" encoding="UTF-8"?><svg id="Layer_1" xmlns="http://www.w3.org/2000/svg" viewBox="0 0 128 128"><defs><style>.cls-1{fill:#fff;}</style></defs><path class="cls-1" d="M71.51,64.24c.06,0,.12.02.18.03.65,3.82,1.3,7.65,1.95,11.46h4.12c-1.15-6.81-2.28-13.55-3.41-20.29h-4.05c-1.49,4.42-2.96,8.8-4.51,13.39-1.55-4.62-3.02-9.01-4.49-13.38h-4.06c-1.17,6.77-2.33,13.5-3.51,20.28h4.16c.67-3.88,1.34-7.71,2.01-11.53.05,0,.1,0,.15.01,1.29,3.85,2.59,7.7,3.87,11.54h3.7c1.3-3.84,2.59-7.67,3.88-11.5ZM96.3,55.28v20.43h4.21v-8.09s.08-.01.12-.02c1.45,2.72,2.9,5.43,4.33,8.11h4.65c-1.6-3.01-3.15-5.93-4.72-8.89,2.82-1.15,3.87-3.27,3.66-6.11-.21-2.68-1.9-4.71-4.57-5.03-2.51-.3-5.06-.28-7.67-.41ZM81.03,75.71h11.29v-4.1h-7.05v-4.8h7.04v-4.11h-7.04v-3.16h7.03v-4.09h-11.27v20.26ZM19.61,59.59v16.15h4.29v-16.18h3.6v-4.1h-11.42v4.13h3.53ZM36.19,76.19c1.3-3.39,2.57-6.67,3.82-9.92,1.4-.37,2.02-.81,2.05-2.75,3.06-2.39,6.14-4.8,9.28-7.24-.28-.34-.5-.6-.73-.88-3.14,2.44-6.21,4.83-9.04,7.03-1-.11-1.74-.2-2.72-.31-1.71-1.61-3.61-3.39-5.53-5.19-.36.38-.65.7-.98,1.06,1.95,1.84,3.87,3.66,5.78,5.46-.33,1.16.12,1.97,1.07,2.61-1.25,3.26-2.49,6.49-3.75,9.77.26.11.46.2.77.34ZM49.13,50.4c.05,0,.1,0,.15,0,.34,1.42.68,2.85,1.03,4.28.5.17.95.33,1.47.51.83-2.28,1.64-4.48,2.46-6.74-.6-.21-1.1-.38-1.62-.56-.44,1.17-.84,2.25-1.24,3.33-.06,0-.11,0-.17,0-.34-1.39-.67-2.79-1.02-4.24-.46-.16-.93-.33-1.46-.51-.83,2.28-1.63,4.48-2.46,6.75.59.21,1.09.38,1.61.57.44-1.2.85-2.29,1.25-3.38ZM37.75,52.84c-.83-.91-1.57-1.72-2.33-2.54.16-.22.31-.4.42-.6.73-1.24-.13-3.13-1.53-3.13-1.05,0-2.1.33-3.2.52.66,2.44,1.27,4.69,1.9,7.01.58-.16,1.08-.31,1.63-.46-.18-.74-.34-1.39-.55-2.27.71.75,1.26,1.33,1.84,1.94.57-.15,1.13-.3,1.82-.47ZM41.14,45.59c-1.01,2.35-2,4.66-3.04,7.08h1.83c.19-.41.38-.83.61-1.32.81.05,1.62.1,2.42.15.2.5.36.93.53,1.36h1.75c-.85-2.44-1.66-4.81-2.49-7.2-.55-.03-1.06-.05-1.61-.08ZM27.01,49.04c1.08,2.2,2.12,4.31,3.17,6.45.56-.28,1.01-.52,1.53-.78-1.06-2.16-2.09-4.27-3.15-6.43-.54.27-1,.49-1.55.76Z"/><path d="M71.51,64.24c-1.29,3.83-2.58,7.65-3.88,11.5h-3.7c-1.29-3.83-2.58-7.69-3.87-11.54-.05,0-.1,0-.15-.01-.67,3.83-1.33,7.66-2.01,11.53h-4.16c1.17-6.78,2.34-13.51,3.51-20.28h4.06c1.47,4.37,2.94,8.77,4.49,13.38,1.55-4.59,3.02-8.97,4.51-13.39h4.05c1.13,6.74,2.27,13.48,3.41,20.29h-4.12c-.65-3.81-1.3-7.64-1.95-11.46-.06,0-.12-.02-.18-.03Z"/><path d="M96.3,55.28c2.61.12,5.16.11,7.67.41,2.67.32,4.37,2.34,4.57,5.03.22,2.85-.83,4.96-3.66,6.11,1.57,2.97,3.12,5.88,4.72,8.89h-4.65c-1.43-2.68-2.88-5.39-4.33-8.11-.04,0-.08.01-.12.02v8.09h-4.21v-20.43ZM100.54,63.23c.9-.07,1.74-.08,2.57-.2.86-.12,1.26-.63,1.32-1.48.06-.85-.31-1.6-1.08-1.76-.91-.19-1.86-.19-2.81-.27v3.71Z"/><path d="M81.03,75.71v-20.26h11.27v4.09h-7.03v3.16h7.04v4.11h-7.04v4.8h7.05v4.1h-11.29Z"/><path d="M19.61,59.59h-3.53v-4.13h11.42v4.1h-3.6v16.18h-4.29v-16.15Z"/><path d="M36.19,76.19c-.32-.14-.52-.23-.77-.34,1.26-3.28,2.5-6.52,3.75-9.77-.95-.64-1.4-1.44-1.07-2.61-1.91-1.8-3.83-3.62-5.78-5.46.33-.36.63-.68.98-1.06,1.92,1.8,3.82,3.58,5.53,5.19.98.11,1.72.19,2.72.31,2.84-2.21,5.91-4.59,9.04-7.03.23.27.45.54.73.88-3.13,2.44-6.21,4.85-9.28,7.24-.03,1.93-.65,2.38-2.05,2.75-1.25,3.25-2.51,6.53-3.82,9.92Z"/><path d="M49.13,50.4c-.4,1.09-.8,2.18-1.25,3.38-.53-.19-1.02-.36-1.61-.57.83-2.27,1.63-4.47,2.46-6.75.53.19,1.01.35,1.46.51.35,1.45.69,2.85,1.02,4.24.06,0,.11,0,.17,0,.4-1.08.81-2.17,1.24-3.33.52.18,1.02.35,1.62.56-.82,2.26-1.63,4.46-2.46,6.74-.51-.18-.97-.34-1.47-.51-.34-1.43-.69-2.86-1.03-4.28-.05,0-.1,0-.15,0Z"/><path d="M37.75,52.84c-.69.18-1.25.33-1.82.47-.58-.61-1.13-1.19-1.84-1.94.21.88.37,1.53.55,2.27-.55.15-1.05.3-1.63.46-.63-2.33-1.24-4.57-1.9-7.01,1.1-.19,2.15-.52,3.2-.52,1.4,0,2.26,1.89,1.53,3.13-.12.2-.26.37-.42.6.76.83,1.5,1.64,2.33,2.54ZM33.53,49.27c.33-.15.6-.26.94-.42-.13-.27-.23-.45-.33-.66-.32.06-.56.11-.87.17.09.32.17.58.27.91Z"/><path d="M41.14,45.59c.54.03,1.06.05,1.61.08.83,2.39,1.64,4.75,2.49,7.2h-1.75c-.17-.44-.34-.86-.53-1.36-.79-.05-1.61-.1-2.42-.15-.22.49-.42.91-.61,1.32h-1.83c1.04-2.42,2.03-4.73,3.04-7.08ZM42.35,49.7c-.17-.46-.31-.86-.51-1.41-.24.56-.4.94-.6,1.41h1.11Z"/><path d="M27.01,49.04c.55-.27,1-.49,1.55-.76,1.06,2.17,2.09,4.28,3.15,6.43-.51.26-.97.49-1.53.78-1.05-2.14-2.09-4.25-3.17-6.45Z"/><path class="cls-1" d="M100.54,63.23v-3.71c.95.08,1.9.08,2.81.27.77.16,1.14.92,1.08,1.76-.06.84-.46,1.35-1.32,1.48-.83.12-1.68.13-2.57.2Z"/><path class="cls-1" d="M33.53,49.27c-.1-.33-.17-.59-.27-.91.32-.06.56-.11.87-.17.1.21.2.4.33.66-.34.15-.61.27-.94.42Z"/><path class="cls-1" d="M42.35,49.7h-1.11c.2-.47.36-.86.6-1.41.2.55.34.95.51,1.41Z"/></svg>