<?xml version="1.0" encoding="UTF-8"?><svg id="Layer_1" xmlns="http://www.w3.org/2000/svg" viewBox="0 0 128 128"><defs><style>.cls-1{fill:#c0b4a9;opacity:.99;}.cls-1,.cls-2,.cls-3,.cls-4,.cls-5,.cls-6,.cls-7,.cls-8,.cls-9,.cls-10,.cls-11,.cls-12,.cls-13,.cls-14,.cls-15,.cls-16,.cls-17{fill-rule:evenodd;isolation:isolate;}.cls-2{fill:#605e5b;opacity:.79;}.cls-3{fill:#bfb4a8;opacity:1;}.cls-4{opacity:.99;}.cls-4,.cls-5,.cls-6,.cls-7,.cls-8,.cls-9{fill:#404041;}.cls-5{opacity:.98;}.cls-6{opacity:.97;}.cls-7{opacity:.97;}.cls-8{opacity:.97;}.cls-9{opacity:.97;}.cls-10{fill:#a17f58;opacity:1;}.cls-11{opacity:.98;}.cls-11,.cls-12{fill:#c2b6aa;}.cls-12{opacity:.96;}.cls-13{fill:#3f4040;opacity:.98;}.cls-14{opacity:.97;}.cls-14,.cls-15,.cls-16,.cls-17{fill:#c1b6aa;}.cls-15{opacity:.96;}.cls-16{opacity:.99;}.cls-17{opacity:.98;}</style></defs><path class="cls-15" d="M67.07,32.85c-.34-.21-.69-.4-1.07-.57.05-.21.08-.43.08-.66-.15-.92-.19-1.85-.12-2.79.25-.98.84-1.68,1.76-2.09.24-.09.48-.14.74-.12-.02.23-.11.43-.25.62.28-.09.56-.22.82-.41,1.41-.54,2.75-.4,4.02.41.96.67,1.94,1.3,2.95,1.89.85.35,1.72.48,2.62.37.08.04.1.1.04.16-.54.58-1.21.85-2.01.82-.41-.04-.83-.08-1.23-.12.92.93,2.04,1.41,3.36,1.44,1.5-.09,2.73-.71,3.69-1.85.07-.06.12-.04.16.04-.58,1.69-1.73,2.77-3.44,3.24.24.12.48.15.74.08.58-.13,1.14-.31,1.68-.53.04.03.08.05.12.08-.94,1.41-2.25,2-3.94,1.76.62.62,1.33.75,2.13.37.08.04.1.1.04.16-1.83,1.77-3.9,2.11-6.19,1.03-.66-.44-1.14-1.03-1.44-1.76-.01.42-.08.83-.2,1.23-.37-.79-.74-1.58-1.11-2.38-.62-1.07-1.53-1.5-2.75-1.27-.49.18-.9.47-1.23.86Z"/><path class="cls-6" d="M58.21,52.37c1.14-.62,2.22-1.33,3.24-2.13-.14-.3-.3-.6-.49-.9-.07-.39-.04-.77.08-1.15.82-1.42,1.87-2.64,3.16-3.65.95-.76,2.01-1.04,3.2-.82.81.24,1.4.75,1.76,1.52.66,1.78.58,3.53-.25,5.25-.52,1.16-1.14,2.27-1.85,3.32-.56.24-1.11.5-1.64.78-3.94.01-7.87,0-11.81-.04.05-.05.11-.11.16-.16-9.6-7.49-19.22-14.96-28.87-22.39-.17-.14-.3-.32-.37-.53-.23-.6-.44-1.2-.62-1.8.66.18,1.32.38,1.97.62,9.88,7.68,19.76,15.35,29.65,23.01.88-.32,1.77-.62,2.67-.9Z"/><path class="cls-8" d="M66.01,32.27c.37.17.73.36,1.07.57-.19.41-.4.81-.66,1.19,2.18,1.86,2.85,4.17,2.01,6.93-.32.85-.9,1.38-1.76,1.6-1.95.51-3.89.49-5.82-.08-.1-.24-.21-.47-.33-.7,1.52-.77,3.13-1.19,4.84-1.27.89.37,1.54.11,1.93-.78.04-1.41-.63-1.93-2.01-1.56-1.51-.41-3.02-.86-4.51-1.35-.42-.12-.8-.3-1.15-.53.69-1.68,1.95-2.66,3.77-2.91.66-.05,1.32-.02,1.97.08.21-.41.43-.8.66-1.19Z"/><path class="cls-16" d="M59.61,36.29c.35.23.73.41,1.15.53,1.49.49,3,.94,4.51,1.35,1.38-.37,2.05.15,2.01,1.56-.39.89-1.03,1.15-1.93.78-1.71.08-3.32.5-4.84,1.27-.13.11-.27.11-.41,0-1.13-.9-2.17-1.9-3.12-2.99.86-.74,1.66-1.55,2.38-2.42.07-.07.15-.1.25-.08Z"/><path class="cls-14" d="M65.43,54.58c.53-.28,1.08-.54,1.64-.78.71-1.05,1.33-2.16,1.85-3.32.82-1.72.9-3.47.25-5.25-.36-.77-.95-1.28-1.76-1.52-1.19-.22-2.25.06-3.2.82-1.29,1.01-2.34,2.23-3.16,3.65-.12.38-.15.76-.08,1.15.19.3.36.6.49.9-1.02.8-2.1,1.51-3.24,2.13.13-1.52.36-3.02.7-4.51.71-1.6,1.39-3.22,2.05-4.84,2.21.6,4.4.52,6.56-.25.47.41.93.82,1.39,1.23.62,1.32,1.01,2.72,1.15,4.18.08.78.15,1.56.21,2.34-.06,1.35-.12,2.71-.16,4.06h-4.68Z"/><path class="cls-7" d="M36.56,47.94v2.71c-1.64-.03-3.23.22-4.76.74-.68-.67-1.38-1.33-2.09-1.97-.06-.07-.04-.12.04-.16,2.19-.84,4.46-1.28,6.81-1.31Z"/><path class="cls-17" d="M36.56,47.94h.98v2.71h-.98v-2.71Z"/><path class="cls-9" d="M37.63,47.94c4.24.1,7.88,1.62,10.91,4.55.97.97,1.94,1.94,2.91,2.91.12.87.16,1.74.12,2.62-1.21-1.12-2.42-2.25-3.61-3.4-2.89-2.5-6.25-3.8-10.09-3.9-.06-.07-.14-.1-.25-.08v-2.71Z"/><path class="cls-2" d="M37.55,47.94h.08v2.71c.11-.02.19,0,.25.08h-.33v-2.79Z"/><path class="cls-10" d="M36.56,50.65h.98v1.15h-.98v-1.15Z"/><path class="cls-1" d="M37.55,50.73h.33c3.84.1,7.2,1.4,10.09,3.9,1.19,1.15,2.39,2.29,3.61,3.4v1.56c-1.4-1.31-2.8-2.63-4.18-3.98-2.62-2.31-5.68-3.55-9.19-3.73-.2-.08-.42-.11-.66-.08v-1.07Z"/><path class="cls-4" d="M33.45,66.31c-.15-.8-.25-1.62-.29-2.46-.05-3.85-.34-7.67-.86-11.48,1.37-.39,2.76-.58,4.18-.57-.02,3.04-.2,6.08-.53,9.1-.12.77-.26,1.53-.41,2.3-.11.58-.3,1.12-.57,1.64-.44.57-.95,1.06-1.52,1.48Z"/><path class="cls-3" d="M36.56,50.65v1.15h.98c.24-.03.46,0,.66.08h-.66c-.08,2.82-.25,5.64-.53,8.45-.15,1.6-.48,3.16-.98,4.68-.63,1.05-1.46,1.9-2.5,2.54-.03-.41-.06-.82-.08-1.23.57-.42,1.07-.91,1.52-1.48.27-.52.46-1.06.57-1.64.15-.76.29-1.53.41-2.3.33-3.03.51-6.06.53-9.1-1.42,0-2.82.19-4.18.57.01-.17,0-.33-.04-.49-.16-.15-.31-.32-.45-.49,1.53-.52,3.12-.77,4.76-.74Z"/><path class="cls-5" d="M38.2,51.88c3.51.18,6.57,1.43,9.19,3.73,1.39,1.34,2.78,2.67,4.18,3.98-.01,3.58,0,7.16.04,10.74.3,1.73.99,3.29,2.05,4.68,1.01,1.3,2.14,2.47,3.4,3.53-.78.81-1.66,1.49-2.62,2.05-.07,6.48-.11,12.96-.12,19.44-.11.66-.24,1.32-.37,1.97-1.26.11-2.52.11-3.77,0,.64-1.23,1.29-2.46,1.93-3.69.19-.51.24-1.02.16-1.56-1.36-5.29-2.75-10.56-4.18-15.83-.29-.48-.72-.77-1.27-.86-2.19-.05-4.37-.05-6.56,0-.26.08-.46.23-.62.45-.45,1.19-.64,2.42-.57,3.69.17.64.52,1.17,1.03,1.6.46.3.91.62,1.35.94.07.96.05,1.91-.04,2.87-.68.09-1.36.11-2.05.04-.17-.03-.34-.08-.49-.16-1.41-1.08-2.16-2.52-2.26-4.31-.15-2.24-.15-4.48,0-6.73.15-.66.49-1.19,1.03-1.6,2.65-1.75,5.27-3.52,7.87-5.33-.33-3.43-1.65-6.41-3.94-8.94-.72-.58-1.51-1.03-2.38-1.35-.24.67-.45,1.35-.62,2.05-.15,1.1-.32,2.19-.49,3.28-.16.74-.41,1.45-.74,2.13-.22.27-.51.42-.86.45-1,.14-1.9-.09-2.71-.7-.13-.29-.21-.59-.25-.9,1.04-.64,1.87-1.49,2.5-2.54.51-1.52.83-3.08.98-4.68.28-2.81.46-5.63.53-8.45h.66Z"/><path class="cls-11" d="M54.28,57.29h18.45c.01,4.59,0,9.19-.04,13.78-.28,1.14-.8,2.15-1.56,3.03-2.19,2.24-4.73,3.96-7.63,5.17-2.9-1.21-5.44-2.93-7.63-5.17-.8-.86-1.32-1.87-1.56-3.03-.04-4.59-.05-9.19-.04-13.78ZM59.36,62.05c1.09-.01,2.19,0,3.28.04,1.23.19,1.98.89,2.26,2.09.27,1.22.06,2.34-.66,3.36-.6.59-1.33.91-2.17.94-.96.04-1.91.05-2.87.04-.02-.19,0-.37.08-.53.24-.06.49-.1.74-.12.03-1.72,0-3.45-.08-5.17-.24-.08-.49-.13-.74-.16-.02-.2.04-.36.16-.49ZM65.27,62.21h2.54v.49c-.25.02-.5.07-.74.16-.04,2.05-.11,4.1-.2,6.15-.47.9-1.19,1.2-2.17.9.07-.18.1-.38.08-.57.3.01.6,0,.9-.04.19-.09.31-.24.37-.45.07-2,.06-3.99-.04-5.99-.24-.09-.48-.15-.74-.16v-.49Z"/><path class="cls-13" d="M84.95,62.62c3.39-.09,6.17,1.17,8.32,3.77,1.45,1.93,2.52,4.06,3.2,6.4,1.07,2.71,2.53,5.17,4.39,7.38-.13.13-.29.2-.49.2-1.81.32-3.59.18-5.33-.41-1.47-.62-2.6-1.62-3.4-2.99-.64-1.67-1.3-3.34-1.97-5-1.46-3.18-3.7-5.45-6.73-6.81,1.21,1.35,2.19,2.86,2.95,4.51,1.06,2.55,1.34,5.17.82,7.87,7.08,5.55,14.16,11.1,21.24,16.65.05.08.05.16,0,.25-.31.33-.58.69-.82,1.07-.09.15-.21.22-.37.2-6.94-5.49-13.91-10.95-20.91-16.36-.56.57-1.11,1.16-1.64,1.76,1.35,3.04,2.69,6.09,4.02,9.15-1.14,4.14-2.31,8.27-3.53,12.38-1.25.11-2.51.11-3.77,0,.67-1.28,1.34-2.57,2.01-3.85.15-.38.29-.76.41-1.15.32-1.53.62-3.06.9-4.59.13-.62.02-1.2-.33-1.72-2.48-2.48-4.78-5.1-6.89-7.87-.69-.82-1.49-1.49-2.42-2.01-.42-.2-.85-.32-1.31-.37-2.81.83-5.47,2.02-7.96,3.57-1.06.89-1.56,2.04-1.48,3.44-.06,1.53.49,2.78,1.64,3.77.72.46,1.49.56,2.3.29.08,1.15.11,2.3.08,3.44-2.04,0-3.87-.62-5.5-1.85-1.32-1.19-1.97-2.68-1.93-4.47-.08-2.11-.03-4.22.16-6.32.48-.32.97-.62,1.48-.9.44.29.9.53,1.39.74,3.63-1.77,6.77-4.18,9.43-7.22,1.28-1.56,2.1-3.33,2.46-5.33.04-2.32.05-4.65.04-6.97,1.09-.01,2.19,0,3.28.04.62.12,1.2.33,1.76.62,1.42-.71,2.91-1.15,4.47-1.31Z"/><path class="cls-12" d="M60.92,62.7c2.07-.39,3.11.46,3.12,2.54,0,2.1-1.04,2.95-3.12,2.54v-5.09Z"/></svg>