<?xml version="1.0" encoding="UTF-8"?>
<svg xmlns="http://www.w3.org/2000/svg" xmlns:xlink="http://www.w3.org/1999/xlink" width="192px" height="192px" viewBox="0 0 192 191" version="1.1">
<g id="surface1">
<path style=" stroke:none;fill-rule:nonzero;fill:rgb(0%,0%,0%);fill-opacity:1;" d="M 138.238281 54.128906 C 127.71875 55.773438 121.613281 58.332031 114.546875 64.0625 C 113.394531 65.015625 112.359375 65.664062 112.203125 65.511719 C 112.089844 65.398438 111.898438 64.214844 111.820312 62.914062 C 111.707031 61.195312 111.859375 60.011719 112.433594 58.5625 L 113.203125 56.574219 L 111.78125 57.148438 C 102.527344 61.003906 94.578125 68.339844 90.929688 76.515625 L 90.238281 78.003906 L 92.082031 76.476562 C 93.082031 75.636719 94.886719 74.335938 96.078125 73.574219 C 98.34375 72.160156 103.527344 69.90625 104.5625 69.90625 C 104.984375 69.90625 105.292969 70.976562 105.792969 74.183594 C 106.789062 80.90625 106.558594 80.601562 108.671875 77.660156 C 111.628906 73.457031 115.851562 68.914062 119.195312 66.238281 C 123.148438 63.066406 130.214844 59.554688 135.359375 58.179688 C 138.96875 57.222656 139.699219 57.148438 147.265625 57.148438 C 154.214844 57.183594 155.710938 57.300781 158.285156 57.988281 C 166.042969 60.089844 171.878906 63.640625 178.597656 70.289062 C 183.015625 74.644531 183.015625 74.03125 178.558594 68.949219 C 174.949219 64.75 168.078125 59.515625 163.699219 57.644531 C 157.285156 54.855469 152.140625 53.863281 144.574219 53.898438 C 141.621094 53.9375 138.777344 54.054688 138.238281 54.128906 Z M 138.238281 54.128906 "/>
<path style=" stroke:none;fill-rule:nonzero;fill:rgb(0%,0%,0%);fill-opacity:1;" d="M 165.65625 76.171875 C 163.160156 77.242188 161.972656 80.371094 162.085938 85.453125 L 162.164062 88.320312 L 165.464844 85.03125 L 168.769531 81.746094 L 180.058594 81.746094 L 180.480469 79.53125 C 180.710938 78.347656 181.019531 76.972656 181.132812 76.476562 L 181.324219 75.636719 L 174.105469 75.636719 C 168.882812 75.675781 166.503906 75.828125 165.65625 76.171875 Z M 165.65625 76.171875 "/>
<path style=" stroke:none;fill-rule:nonzero;fill:rgb(0%,0%,0%);fill-opacity:1;" d="M 52.609375 95.882812 L 52.609375 106.960938 L 35.328125 106.960938 L 35.328125 100.085938 L 45.121094 100.085938 L 46.769531 97.027344 L 48.421875 93.972656 L 36.941406 93.972656 C 27.496094 93.972656 25.382812 94.046875 25.230469 94.507812 C 24.921875 95.269531 25.726562 95.882812 27.109375 95.882812 C 28.875 95.882812 29.875 97.105469 29.03125 98.25 C 29.03125 98.289062 25.613281 98.402344 21.503906 98.519531 C 15.207031 98.707031 14.015625 98.824219 14.015625 99.320312 C 14.015625 99.777344 14.859375 99.929688 18.394531 100.085938 C 21.925781 100.238281 22.847656 100.390625 23.15625 100.925781 C 23.460938 101.382812 23.425781 101.726562 23.078125 102.148438 C 22.695312 102.605469 21.8125 102.757812 19.316406 102.757812 C 16.167969 102.757812 16.089844 102.796875 16.203125 103.597656 C 16.320312 104.4375 16.472656 104.476562 20.8125 104.589844 C 24.460938 104.667969 25.304688 104.78125 25.496094 105.316406 C 26.074219 106.808594 25.191406 106.960938 16.933594 106.960938 C 8.945312 106.960938 7.871094 107.152344 8.332031 108.335938 C 8.488281 108.753906 9.636719 108.871094 13.59375 108.871094 C 16.359375 108.871094 18.855469 109.023438 19.125 109.214844 C 19.429688 109.40625 19.585938 109.863281 19.507812 110.246094 C 19.390625 110.816406 18.855469 111.046875 16.703125 111.351562 C 14.746094 111.621094 14.015625 111.886719 14.015625 112.308594 C 14.015625 112.804688 17.320312 112.882812 41.011719 112.996094 C 70.769531 113.070312 69.3125 113.1875 71.117188 110.703125 C 71.960938 109.480469 72 109.097656 72.113281 101.6875 L 72.230469 93.972656 L 65.664062 93.972656 L 65.664062 106.960938 L 59.136719 106.960938 L 59.136719 84.804688 L 52.609375 84.804688 Z M 52.609375 95.882812 "/>
<path style=" stroke:none;fill-rule:nonzero;fill:rgb(0%,0%,0%);fill-opacity:1;" d="M 79.488281 87.285156 L 79.488281 89.769531 L 93.695312 89.769531 L 93.695312 84.804688 L 79.488281 84.804688 Z M 79.488281 87.285156 "/>
<path style=" stroke:none;fill-rule:nonzero;fill:rgb(0%,0%,0%);fill-opacity:1;" d="M 103.871094 95.957031 L 103.871094 107.152344 L 100.53125 107.265625 L 97.152344 107.378906 L 97.152344 93.972656 L 90.816406 93.972656 L 90.816406 107.152344 L 87.476562 107.265625 L 84.097656 107.378906 L 84.097656 94.355469 L 77.953125 94.355469 L 77.953125 107.113281 L 74.765625 110.285156 L 71.578125 113.453125 L 75.148438 113.453125 C 77.335938 113.453125 79.21875 113.261719 79.988281 112.917969 C 81.636719 112.230469 83.328125 110.472656 83.597656 109.175781 C 83.980469 107.1875 84.480469 108.066406 84.480469 110.78125 L 84.480469 113.453125 L 118.117188 113.453125 L 120.039062 112.5 C 123.300781 110.894531 123.265625 111.085938 123.265625 97.066406 L 123.265625 84.804688 L 117.121094 84.804688 L 117.121094 106.960938 L 110.207031 106.960938 L 110.207031 84.804688 L 103.871094 84.804688 Z M 103.871094 95.957031 "/>
<path style=" stroke:none;fill-rule:nonzero;fill:rgb(0%,0%,0%);fill-opacity:1;" d="M 126.71875 99.128906 L 126.71875 113.453125 L 128.179688 113.453125 C 130.136719 113.453125 131.40625 112.726562 132.171875 111.160156 C 132.789062 109.976562 132.863281 108.449219 132.863281 97.296875 L 132.863281 84.804688 L 126.71875 84.804688 Z M 126.71875 99.128906 "/>
<path style=" stroke:none;fill-rule:nonzero;fill:rgb(0%,0%,0%);fill-opacity:1;" d="M 137.089844 96.53125 C 137.089844 109.75 137.125 109.863281 139.890625 112.078125 C 141.351562 113.226562 141.464844 113.261719 146.226562 113.378906 C 150.679688 113.492188 151.257812 113.414062 152.832031 112.613281 C 153.792969 112.117188 154.945312 111.160156 155.40625 110.4375 C 156.25 109.214844 156.289062 108.792969 156.289062 101.574219 L 156.289062 93.972656 L 150.144531 93.972656 L 150.144531 106.960938 L 143.230469 106.960938 L 143.230469 84.804688 L 137.089844 84.804688 Z M 137.089844 96.53125 "/>
<path style=" stroke:none;fill-rule:nonzero;fill:rgb(0%,0%,0%);fill-opacity:1;" d="M 145.152344 87.476562 L 145.152344 90.152344 L 156.289062 90.152344 L 156.289062 84.804688 L 145.152344 84.804688 Z M 145.152344 87.476562 "/>
<path style=" stroke:none;fill-rule:nonzero;fill:rgb(0%,0%,0%);fill-opacity:1;" d="M 171.265625 99.128906 L 171.265625 113.453125 L 172.609375 113.453125 C 174.453125 113.453125 175.832031 112.726562 176.5625 111.390625 C 177.140625 110.359375 177.214844 108.527344 177.332031 97.488281 L 177.445312 84.804688 L 171.265625 84.804688 Z M 171.265625 99.128906 "/>
<path style=" stroke:none;fill-rule:nonzero;fill:rgb(0%,0%,0%);fill-opacity:1;" d="M 162.046875 100.734375 L 162.046875 107.152344 L 158.898438 110.320312 L 155.710938 113.492188 L 159.972656 113.378906 C 163.96875 113.261719 164.3125 113.1875 165.65625 112.15625 C 168.191406 110.246094 168.574219 108.90625 168.574219 101.117188 L 168.574219 94.355469 L 162.046875 94.355469 Z M 162.046875 100.734375 "/>
<path style=" stroke:none;fill-rule:nonzero;fill:rgb(0%,0%,0%);fill-opacity:1;" d="M 55.371094 117.730469 L 55.488281 120.140625 L 62.515625 120.253906 L 69.503906 120.328125 L 69.503906 115.363281 L 55.257812 115.363281 Z M 55.371094 117.730469 "/>
<path style=" stroke:none;fill-rule:nonzero;fill:rgb(0%,0%,0%);fill-opacity:1;" d="M 91.390625 117.234375 C 91.390625 118.078125 91.585938 118.878906 91.777344 118.992188 C 92.007812 119.144531 92.160156 118.535156 92.160156 117.503906 C 92.160156 116.546875 92.007812 115.746094 91.777344 115.746094 C 91.585938 115.746094 91.390625 116.433594 91.390625 117.234375 Z M 91.390625 117.234375 "/>
<path style=" stroke:none;fill-rule:nonzero;fill:rgb(0%,0%,0%);fill-opacity:1;" d="M 109.054688 117.503906 C 109.054688 118.535156 109.210938 119.144531 109.441406 118.992188 C 109.902344 118.726562 109.824219 115.746094 109.363281 115.746094 C 109.210938 115.746094 109.054688 116.546875 109.054688 117.503906 Z M 109.054688 117.503906 "/>
<path style=" stroke:none;fill-rule:nonzero;fill:rgb(0%,0%,0%);fill-opacity:1;" d="M 118.65625 117.503906 C 118.65625 118.535156 118.808594 119.144531 119.039062 118.992188 C 119.5 118.726562 119.425781 115.746094 118.964844 115.746094 C 118.808594 115.746094 118.65625 116.546875 118.65625 117.503906 Z M 118.65625 117.503906 "/>
<path style=" stroke:none;fill-rule:nonzero;fill:rgb(0%,0%,0%);fill-opacity:1;" d="M 79.71875 116.433594 C 79.449219 116.890625 80.027344 118.917969 80.488281 119.070312 C 80.71875 119.144531 80.871094 118.609375 80.871094 117.808594 C 80.792969 116.433594 80.179688 115.707031 79.71875 116.433594 Z M 79.71875 116.433594 "/>
<path style=" stroke:none;fill-rule:nonzero;fill:rgb(0%,0%,0%);fill-opacity:1;" d="M 102.605469 116.433594 C 101.992188 116.855469 102.605469 118.953125 103.410156 119.109375 C 103.757812 119.183594 104.0625 119.070312 104.0625 118.839844 C 104.0625 118.609375 103.910156 118.421875 103.679688 118.421875 C 103.140625 118.421875 103.179688 117.386719 103.71875 117.199219 C 103.988281 117.121094 103.949219 116.890625 103.601562 116.625 C 103.335938 116.355469 102.875 116.28125 102.605469 116.433594 Z M 102.605469 116.433594 "/>
<path style=" stroke:none;fill-rule:nonzero;fill:rgb(0%,0%,0%);fill-opacity:1;" d="M 72.574219 116.890625 C 72.113281 117.199219 72.191406 117.273438 72.960938 117.273438 L 73.921875 117.3125 L 73.035156 117.695312 C 71.847656 118.152344 72.152344 118.992188 73.460938 118.992188 C 74.34375 119.03125 74.496094 118.878906 74.496094 118 C 74.496094 117.425781 74.226562 116.890625 73.882812 116.738281 C 73.152344 116.472656 73.265625 116.433594 72.574219 116.890625 Z M 72.574219 116.890625 "/>
<path style=" stroke:none;fill-rule:nonzero;fill:rgb(0%,0%,0%);fill-opacity:1;" d="M 76.609375 116.816406 C 76.261719 117.160156 76.414062 118.765625 76.800781 118.992188 C 77.03125 119.109375 77.183594 118.878906 77.183594 118.457031 C 77.183594 118.039062 77.375 117.578125 77.566406 117.464844 C 77.796875 117.351562 77.953125 117.082031 77.953125 116.929688 C 77.953125 116.625 76.914062 116.511719 76.609375 116.816406 Z M 76.609375 116.816406 "/>
<path style=" stroke:none;fill-rule:nonzero;fill:rgb(0%,0%,0%);fill-opacity:1;" d="M 83.328125 116.890625 C 82.867188 117.199219 82.945312 117.273438 83.710938 117.273438 L 84.671875 117.3125 L 83.789062 117.695312 C 82.597656 118.152344 82.90625 118.992188 84.210938 118.992188 C 85.09375 119.03125 85.246094 118.878906 85.246094 118 C 85.246094 117.425781 84.980469 116.890625 84.632812 116.738281 C 83.902344 116.472656 84.019531 116.433594 83.328125 116.890625 Z M 83.328125 116.890625 "/>
<path style=" stroke:none;fill-rule:nonzero;fill:rgb(0%,0%,0%);fill-opacity:1;" d="M 87.667969 116.777344 C 87.015625 117.007812 87.054688 118.230469 87.707031 118.765625 C 88.472656 119.375 89.472656 118.878906 89.472656 117.847656 C 89.472656 117.160156 88.628906 116.320312 88.203125 116.546875 C 88.167969 116.546875 87.898438 116.664062 87.667969 116.777344 Z M 88.972656 118.265625 C 88.859375 118.382812 88.511719 118.421875 88.242188 118.304688 C 87.9375 118.191406 88.050781 118.078125 88.472656 118.078125 C 88.894531 118.039062 89.125 118.152344 88.972656 118.265625 Z M 88.972656 118.265625 "/>
<path style=" stroke:none;fill-rule:nonzero;fill:rgb(0%,0%,0%);fill-opacity:1;" d="M 94.425781 117.121094 C 93.847656 117.808594 94.347656 118.917969 95.386719 119.109375 C 96.308594 119.296875 96.882812 117.617188 96.078125 116.96875 C 95.269531 116.355469 95.039062 116.394531 94.425781 117.121094 Z M 95.886719 118.265625 C 95.769531 118.382812 95.425781 118.421875 95.15625 118.304688 C 94.847656 118.191406 94.964844 118.078125 95.386719 118.078125 C 95.808594 118.039062 96.039062 118.152344 95.886719 118.265625 Z M 95.886719 118.265625 "/>
<path style=" stroke:none;fill-rule:nonzero;fill:rgb(0%,0%,0%);fill-opacity:1;" d="M 98.6875 117.082031 C 98.304688 117.542969 98.265625 117.886719 98.574219 118.34375 C 99.035156 119.109375 100.300781 119.183594 100.53125 118.457031 C 100.644531 118.113281 100.492188 118.039062 99.878906 118.230469 C 99.265625 118.421875 99.070312 118.304688 99.070312 117.847656 C 99.070312 117.351562 99.300781 117.234375 99.878906 117.386719 C 100.378906 117.503906 100.609375 117.425781 100.492188 117.160156 C 100.261719 116.433594 99.226562 116.433594 98.6875 117.082031 Z M 98.6875 117.082031 "/>
<path style=" stroke:none;fill-rule:nonzero;fill:rgb(0%,0%,0%);fill-opacity:1;" d="M 105.714844 117.121094 C 105.445312 117.847656 105.714844 118.839844 106.175781 118.800781 C 106.40625 118.765625 106.523438 118.535156 106.445312 118.230469 C 106.40625 117.960938 106.523438 117.617188 106.753906 117.464844 C 107.328125 117.121094 107.210938 116.625 106.523438 116.625 C 106.175781 116.625 105.832031 116.855469 105.714844 117.121094 Z M 105.714844 117.121094 "/>
<path style=" stroke:none;fill-rule:nonzero;fill:rgb(0%,0%,0%);fill-opacity:1;" d="M 112.242188 116.777344 C 111.550781 117.042969 111.628906 118.6875 112.320312 118.953125 C 113.011719 119.222656 114.046875 118.839844 114.046875 118.34375 C 114.046875 118.152344 113.703125 118.113281 113.28125 118.230469 C 112.742188 118.421875 112.511719 118.304688 112.511719 117.847656 C 112.511719 117.386719 112.742188 117.273438 113.28125 117.464844 C 114.203125 117.730469 114.316406 117.082031 113.433594 116.738281 C 113.089844 116.625 112.820312 116.511719 112.78125 116.546875 C 112.742188 116.546875 112.472656 116.664062 112.242188 116.777344 Z M 112.242188 116.777344 "/>
<path style=" stroke:none;fill-rule:nonzero;fill:rgb(0%,0%,0%);fill-opacity:1;" d="M 121.34375 117.921875 C 121.34375 118.609375 121.535156 119.183594 121.726562 119.183594 C 121.957031 119.183594 122.113281 118.839844 122.113281 118.457031 C 122.113281 118.039062 122.304688 117.578125 122.496094 117.464844 C 123.109375 117.082031 122.917969 116.664062 122.113281 116.664062 C 121.496094 116.664062 121.34375 116.929688 121.34375 117.921875 Z M 121.34375 117.921875 "/>
<path style=" stroke:none;fill-rule:nonzero;fill:rgb(0%,0%,0%);fill-opacity:1;" d="M 115.777344 118.800781 C 115.929688 119.03125 116.199219 119.109375 116.390625 118.992188 C 116.929688 118.648438 116.8125 118.421875 116.121094 118.421875 C 115.8125 118.421875 115.660156 118.609375 115.777344 118.800781 Z M 115.777344 118.800781 "/>
</g>
</svg>
