<svg width="68" height="68" viewBox="0 0 68 68" fill="none" xmlns="http://www.w3.org/2000/svg">
<path fill-rule="evenodd" clip-rule="evenodd" d="M37.2942 17L57.5811 23.3397V33.2677L50.8691 35.4526V26.0168L29.75 19.2844L37.2942 17Z" fill="#E6123D"/>
<path d="M33.9853 11.6875C34.5721 11.6875 35.0478 12.1632 35.0478 12.75C35.0478 13.3368 34.5721 13.8125 33.9853 13.8125H17.425C16.8382 13.8125 16.3625 13.3368 16.3625 12.75C16.3625 12.1632 16.8382 11.6875 17.425 11.6875H33.9853Z" fill="#19BFD3"/>
<path d="M28.8853 30.3875C29.4721 30.3875 29.9478 30.8632 29.9478 31.45C29.9478 32.0368 29.4721 32.5125 28.8853 32.5125H9.775C9.18819 32.5125 8.7125 32.0368 8.7125 31.45C8.7125 30.8632 9.18819 30.3875 9.775 30.3875H28.8853Z" fill="#19BFD3"/>
<path d="M18.2603 35.0625C18.8471 35.0625 19.3228 35.5382 19.3228 36.125C19.3228 36.7118 18.8471 37.1875 18.2603 37.1875H1.7C1.11319 37.1875 0.637497 36.7118 0.637497 36.125C0.637497 35.5382 1.11319 35.0625 1.7 35.0625H18.2603Z" fill="#19BFD3"/>
<path d="M6.5875 32.5125C7.1743 32.5125 7.65 32.0368 7.65 31.45C7.65 30.8632 7.1743 30.3875 6.5875 30.3875C6.00069 30.3875 5.525 30.8632 5.525 31.45C5.525 32.0368 6.00069 32.5125 6.5875 32.5125Z" fill="#19BFD3"/>
<path d="M10.625 40.8C10.625 41.3868 10.1493 41.8625 9.5625 41.8625C8.97569 41.8625 8.5 41.3868 8.5 40.8C8.5 40.2132 8.97569 39.7375 9.5625 39.7375C10.1493 39.7375 10.625 40.2132 10.625 40.8Z" fill="#19BFD3"/>
<path d="M24.4228 40.8C24.4228 40.2132 23.9471 39.7375 23.3603 39.7375H12.75C12.1632 39.7375 11.6875 40.2132 11.6875 40.8C11.6875 41.3868 12.1632 41.8625 12.75 41.8625H23.3603C23.9471 41.8625 24.4228 41.3868 24.4228 40.8Z" fill="#19BFD3"/>
<path d="M18.4728 17.85C18.4728 17.2632 17.9971 16.7875 17.4103 16.7875H9.35C8.76319 16.7875 8.2875 17.2632 8.2875 17.85C8.2875 18.4368 8.76319 18.9125 9.35 18.9125H17.4103C17.9971 18.9125 18.4728 18.4368 18.4728 17.85Z" fill="#19BFD3"/>
<path fill-rule="evenodd" clip-rule="evenodd" d="M57.292 26.0192V32.3752L56.0052 32.8296C55.4519 33.025 55.1617 33.632 55.3571 34.1853C55.5525 34.7386 56.1595 35.0288 56.7128 34.8333L58.7083 34.1286C59.133 33.9786 59.417 33.5772 59.417 33.1268V25.3469L65.096 23.5505V47.0915L43.5625 53.9033V50.0479C43.5625 49.4611 43.0868 48.9854 42.5 48.9854C41.9132 48.9854 41.4375 49.4611 41.4375 50.0479V53.9879L19.9177 47.0944V44.3629C19.9177 43.7761 19.442 43.3004 18.8552 43.3004C18.2684 43.3004 17.7927 43.7761 17.7927 44.3629V47.8698C17.7927 48.3317 18.0912 48.7407 18.5311 48.8816L42.0344 56.4104C42.2439 56.4776 42.4691 56.478 42.6789 56.4116L66.4789 48.8828C66.9207 48.743 67.221 48.3331 67.221 47.8698V22.1248C67.2214 22.1085 67.2214 22.0921 67.221 22.0758V21.96C67.221 21.4964 66.9204 21.0862 66.4782 20.9467L42.6782 13.4367C42.4617 13.3684 42.2291 13.3713 42.0144 13.4448L35.9107 15.5343C35.8708 15.5426 35.831 15.5532 35.7914 15.5663L27.067 18.4553C27.0355 18.4621 27.0041 18.4704 26.9728 18.4802L18.5309 21.1309C18.088 21.2699 17.7867 21.6804 17.7867 22.1446V28.0444C17.7867 28.6312 18.2624 29.1069 18.8492 29.1069C19.436 29.1069 19.9117 28.6312 19.9117 28.0444V22.9246L27.1847 20.641L47.1161 27.0094L42.3593 28.5141L24.5178 22.8401C23.9585 22.6623 23.3611 22.9715 23.1832 23.5307C23.0054 24.0899 23.3145 24.6874 23.8737 24.8652L41.4475 30.454C41.4409 30.5017 41.4375 30.5505 41.4375 30.6V45.7784C41.4375 46.3652 41.9132 46.8409 42.5 46.8409C43.0868 46.8409 43.5625 46.3652 43.5625 45.7784V30.6C43.5625 30.5211 43.5539 30.4442 43.5376 30.3702L49.6138 28.4481V35.6464C49.6138 36.3704 50.322 36.8824 51.0095 36.6553L53.6296 35.79C54.1868 35.6059 54.4893 35.0051 54.3053 34.4479C54.1213 33.8907 53.5204 33.5882 52.9632 33.7722L51.7388 34.1766V27.7758L57.292 26.0192ZM58.4455 23.4255L38.2603 16.976L42.372 15.5684L62.8532 22.0312L58.4455 23.4255ZM30.6345 19.5124L34.849 18.1169L54.9371 24.5353L50.6246 25.8995L30.6345 19.5124Z" fill="#424750"/>
</svg>
