<?xml version="1.0" encoding="UTF-8"?>
<svg xmlns="http://www.w3.org/2000/svg" xmlns:xlink="http://www.w3.org/1999/xlink" width="179px" height="192px" viewBox="0 0 179 191" version="1.1">
<defs>
<filter id="alpha" filterUnits="objectBoundingBox" x="0%" y="0%" width="100%" height="100%">
  <feColorMatrix type="matrix" in="SourceGraphic" values="0 0 0 0 1 0 0 0 0 1 0 0 0 0 1 0 0 0 1 0"/>
</filter>
<mask id="mask0">
  <g filter="url(#alpha)">
<rect x="0" y="0" width="179" height="191" style="fill:rgb(0%,0%,0%);fill-opacity:0.831373;stroke:none;"/>
  </g>
</mask>
<clipPath id="clip1">
  <rect x="0" y="0" width="179" height="192"/>
</clipPath>
<g id="surface5" clip-path="url(#clip1)">
<path style=" stroke:none;fill-rule:evenodd;fill:rgb(18.431373%,65.882355%,25.490198%);fill-opacity:1;" d="M 86.324219 35.351562 C 86.386719 34.777344 86.738281 34.425781 87.382812 34.296875 C 88.261719 43.773438 88.792969 53.269531 88.96875 62.789062 C 89.152344 55.210938 89.683594 47.824219 90.558594 40.628906 C 90.210938 48.046875 90.5625 55.433594 91.617188 62.789062 C 94.039062 63.457031 95.804688 64.863281 96.914062 67.007812 C 95.863281 66.828125 95.15625 67.179688 94.796875 68.0625 C 90.988281 65.34375 87.101562 65.34375 83.144531 68.0625 C 83.214844 67.601562 83.039062 67.25 82.617188 67.007812 C 82.320312 67.976562 81.789062 68.679688 81.027344 69.117188 C 81.199219 65.773438 82.964844 63.664062 86.324219 62.789062 C 87.722656 53.476562 87.722656 44.328125 86.324219 35.351562 Z M 86.324219 35.351562 "/>
</g>
<mask id="mask1">
  <g filter="url(#alpha)">
<rect x="0" y="0" width="179" height="191" style="fill:rgb(0%,0%,0%);fill-opacity:0.00392157;stroke:none;"/>
  </g>
</mask>
<clipPath id="clip2">
  <rect x="0" y="0" width="179" height="192"/>
</clipPath>
<g id="surface8" clip-path="url(#clip2)">
<path style=" stroke:none;fill-rule:evenodd;fill:rgb(0%,0%,0%);fill-opacity:1;" d="M 87.382812 72.285156 C 88.21875 72.582031 88.921875 73.109375 89.5 73.867188 C 88.105469 74.425781 87.398438 73.898438 87.382812 72.285156 Z M 87.382812 72.285156 "/>
</g>
<mask id="mask2">
  <g filter="url(#alpha)">
<rect x="0" y="0" width="179" height="191" style="fill:rgb(0%,0%,0%);fill-opacity:0.956863;stroke:none;"/>
  </g>
</mask>
<clipPath id="clip3">
  <rect x="0" y="0" width="179" height="192"/>
</clipPath>
<g id="surface11" clip-path="url(#clip3)">
<path style=" stroke:none;fill-rule:evenodd;fill:rgb(5.882353%,81.960785%,19.215687%);fill-opacity:1;" d="M 81.027344 101.832031 C 85.96875 101.832031 90.914062 101.832031 95.855469 101.832031 C 97.019531 102.777344 97.019531 103.65625 95.855469 104.46875 C 90.21875 104.996094 84.566406 105.171875 78.910156 104.996094 C 77.34375 105.273438 75.929688 104.921875 74.671875 103.941406 C 76.929688 103.238281 79.046875 102.53125 81.027344 101.832031 Z M 81.027344 101.832031 "/>
</g>
<mask id="mask3">
  <g filter="url(#alpha)">
<rect x="0" y="0" width="179" height="191" style="fill:rgb(0%,0%,0%);fill-opacity:0.00392157;stroke:none;"/>
  </g>
</mask>
<clipPath id="clip4">
  <rect x="0" y="0" width="179" height="192"/>
</clipPath>
<g id="surface14" clip-path="url(#clip4)">
<path style=" stroke:none;fill-rule:evenodd;fill:rgb(0%,0%,0%);fill-opacity:1;" d="M 31.246094 114.496094 C 32.65625 115.199219 32.65625 115.199219 31.246094 114.496094 Z M 31.246094 114.496094 "/>
</g>
</defs>
<g id="surface1">
<path style=" stroke:none;fill-rule:evenodd;fill:rgb(13.333334%,80.000001%,21.568628%);fill-opacity:1;" d="M 81.027344 31.128906 C 83.871094 30.957031 86.699219 31.132812 89.5 31.65625 C 96.675781 35.933594 104.089844 39.628906 111.742188 42.738281 C 122.324219 48.363281 132.917969 53.988281 143.519531 59.621094 C 144.632812 60.382812 145.335938 61.4375 145.636719 62.789062 C 127.625 53.640625 109.617188 44.496094 91.617188 35.351562 C 90.609375 36.980469 90.257812 38.742188 90.558594 40.628906 C 89.683594 47.824219 89.152344 55.210938 88.96875 62.789062 C 88.792969 53.269531 88.261719 43.773438 87.382812 34.296875 C 86.738281 34.425781 86.386719 34.777344 86.324219 35.351562 C 73.210938 42.585938 59.792969 49.269531 46.074219 55.402344 C 45.933594 54.476562 46.289062 53.773438 47.132812 53.289062 C 57.953125 48.433594 68.191406 42.804688 77.847656 36.40625 C 77.496094 35.703125 77.144531 35 76.789062 34.296875 C 78.574219 33.609375 79.984375 32.554688 81.027344 31.128906 Z M 81.027344 31.128906 "/>
<path style=" stroke:none;fill-rule:evenodd;fill:rgb(10.588235%,78.039217%,24.313726%);fill-opacity:1;" d="M 123.394531 43.792969 C 121.878906 43.710938 120.464844 44.0625 119.15625 44.847656 C 116.796875 43.710938 114.324219 43.007812 111.742188 42.738281 C 104.089844 39.628906 96.675781 35.933594 89.5 31.65625 C 86.699219 31.132812 83.871094 30.957031 81.027344 31.128906 C 83.78125 27.828125 87.3125 26.597656 91.617188 27.4375 C 102.472656 32.667969 113.066406 38.117188 123.394531 43.792969 Z M 123.394531 43.792969 "/>
<path style=" stroke:none;fill-rule:evenodd;fill:rgb(7.843138%,77.64706%,22.352941%);fill-opacity:1;" d="M 81.027344 31.128906 C 79.984375 32.554688 78.574219 33.609375 76.789062 34.296875 C 77.144531 35 77.496094 35.703125 77.847656 36.40625 C 68.191406 42.804688 57.953125 48.433594 47.132812 53.289062 C 46.289062 53.773438 45.933594 54.476562 46.074219 55.402344 C 46.074219 56.105469 45.722656 56.457031 45.015625 56.457031 C 45.015625 55.753906 44.660156 55.402344 43.957031 55.402344 C 44.515625 54.113281 45.222656 52.882812 46.074219 51.707031 C 45.367188 51.355469 44.660156 51.003906 43.957031 50.652344 C 46.855469 49.570312 49.328125 47.988281 51.371094 45.902344 C 60.953125 40.425781 70.835938 35.5 81.027344 31.128906 Z M 81.027344 31.128906 "/>
<path style=" stroke:none;fill-rule:evenodd;fill:rgb(10.588235%,78.823531%,24.313726%);fill-opacity:1;" d="M 111.742188 42.738281 C 114.324219 43.007812 116.796875 43.710938 119.15625 44.847656 C 120.464844 44.0625 121.878906 43.710938 123.394531 43.792969 C 128.53125 46.527344 133.824219 48.988281 139.28125 51.179688 C 139.460938 52.574219 139.109375 53.804688 138.222656 54.871094 C 140.230469 56.367188 141.996094 57.949219 143.519531 59.621094 C 132.917969 53.988281 122.324219 48.363281 111.742188 42.738281 Z M 111.742188 42.738281 "/>
<path style=" stroke:none;fill-rule:evenodd;fill:rgb(9.019608%,77.254903%,23.137255%);fill-opacity:1;" d="M 51.371094 45.902344 C 49.328125 47.988281 46.855469 49.570312 43.957031 50.652344 C 44.660156 51.003906 45.367188 51.355469 46.074219 51.707031 C 45.222656 52.882812 44.515625 54.113281 43.957031 55.402344 C 39.179688 58.199219 34.058594 60.308594 28.597656 61.730469 C 27.714844 61.554688 26.832031 61.378906 25.949219 61.203125 C 27.28125 60.230469 28.695312 59.351562 30.1875 58.566406 C 29.15625 58.46875 28.097656 58.117188 27.007812 57.511719 C 34.964844 53.375 43.082031 49.503906 51.371094 45.902344 Z M 51.371094 45.902344 "/>
<path style=" stroke:none;fill-rule:evenodd;fill:rgb(9.019608%,78.823531%,20.784314%);fill-opacity:1;" d="M 43.957031 55.402344 C 44.660156 55.402344 45.015625 55.753906 45.015625 56.457031 C 35.957031 60.878906 26.953125 65.453125 18.007812 70.175781 C 17.476562 80.015625 17.300781 89.867188 17.476562 99.722656 C 16.597656 90.058594 16.066406 80.207031 15.886719 70.175781 C 15.535156 72.285156 15.179688 74.394531 14.828125 76.503906 C 12.574219 72.996094 11.691406 69.128906 12.179688 64.898438 C 17.105469 62.464844 22.046875 60.003906 27.007812 57.511719 C 28.097656 58.117188 29.15625 58.46875 30.1875 58.566406 C 28.695312 59.351562 27.28125 60.230469 25.949219 61.203125 C 26.832031 61.378906 27.714844 61.554688 28.597656 61.730469 C 34.058594 60.308594 39.179688 58.199219 43.957031 55.402344 Z M 43.957031 55.402344 "/>
<use xlink:href="#surface5" mask="url(#mask0)"/>
<path style=" stroke:none;fill-rule:evenodd;fill:rgb(10.196079%,78.431374%,24.705882%);fill-opacity:1;" d="M 139.28125 51.179688 C 148.496094 56.121094 157.675781 61.046875 166.820312 65.953125 C 166.035156 65.816406 165.332031 65.992188 164.703125 66.480469 C 166.191406 68.898438 166.015625 71.1875 164.171875 73.339844 C 163.890625 71.070312 162.832031 69.3125 160.992188 68.0625 C 156.515625 66.097656 152.101562 63.988281 147.753906 61.730469 C 147.113281 61.863281 146.757812 62.214844 146.695312 62.789062 C 146.34375 62.789062 145.988281 62.789062 145.636719 62.789062 C 145.335938 61.4375 144.632812 60.382812 143.519531 59.621094 C 141.996094 57.949219 140.230469 56.367188 138.222656 54.871094 C 139.109375 53.804688 139.460938 52.574219 139.28125 51.179688 Z M 139.28125 51.179688 "/>
<path style=" stroke:none;fill-rule:evenodd;fill:rgb(8.627451%,79.607844%,19.215687%);fill-opacity:1;" d="M 166.820312 65.953125 C 167.835938 67.816406 168.191406 69.925781 167.878906 72.285156 C 167.171875 98.3125 166.46875 124.34375 165.761719 150.371094 C 165.9375 130.320312 165.761719 110.269531 165.230469 90.222656 C 164.878906 88.816406 164.523438 87.410156 164.171875 86.003906 C 163.820312 95.5 163.464844 104.996094 163.113281 114.496094 C 163.273438 99.683594 162.390625 85.261719 160.464844 71.230469 C 156.050781 68.152344 151.460938 65.335938 146.695312 62.789062 C 146.757812 62.214844 147.113281 61.863281 147.753906 61.730469 C 152.101562 63.988281 156.515625 66.097656 160.992188 68.0625 C 162.832031 69.3125 163.890625 71.070312 164.171875 73.339844 C 166.015625 71.1875 166.191406 68.898438 164.703125 66.480469 C 165.332031 65.992188 166.035156 65.816406 166.820312 65.953125 Z M 166.820312 65.953125 "/>
<path style=" stroke:none;fill-rule:evenodd;fill:rgb(27.450982%,77.254903%,34.901962%);fill-opacity:1;" d="M 83.144531 68.0625 C 82.457031 75.480469 85.636719 78.292969 92.675781 76.503906 C 95.792969 74.242188 96.496094 71.429688 94.796875 68.0625 C 95.15625 67.179688 95.863281 66.828125 96.914062 67.007812 C 99.558594 74.238281 97.089844 78.8125 89.5 80.726562 C 82.410156 79.675781 79.585938 75.804688 81.027344 69.117188 C 81.789062 68.679688 82.320312 67.976562 82.617188 67.007812 C 83.039062 67.25 83.214844 67.601562 83.144531 68.0625 Z M 83.144531 68.0625 "/>
<use xlink:href="#surface8" mask="url(#mask1)"/>
<path style=" stroke:none;fill-rule:evenodd;fill:rgb(7.450981%,78.431374%,16.862746%);fill-opacity:1;" d="M 12.179688 64.898438 C 11.691406 69.128906 12.574219 72.996094 14.828125 76.503906 C 15.179688 74.394531 15.535156 72.285156 15.886719 70.175781 C 16.066406 80.207031 16.597656 90.058594 17.476562 99.722656 C 17.476562 109.921875 17.476562 120.121094 17.476562 130.324219 C 16.425781 138.21875 16.074219 146.308594 16.417969 154.59375 C 15.597656 135.414062 14.714844 116.066406 13.769531 96.554688 C 12.304688 117.628906 11.777344 138.734375 12.179688 159.871094 C 12.25 160.332031 12.074219 160.683594 11.652344 160.925781 C 11.355469 159.957031 10.828125 159.257812 10.0625 158.816406 C 9.886719 127.859375 10.0625 96.90625 10.589844 65.953125 C 10.996094 65.367188 11.527344 65.015625 12.179688 64.898438 Z M 12.179688 64.898438 "/>
<path style=" stroke:none;fill-rule:evenodd;fill:rgb(7.843138%,76.862746%,17.647059%);fill-opacity:1;" d="M 135.042969 126.101562 C 133.929688 126.257812 132.871094 126.085938 131.867188 125.574219 C 134.59375 124.75 136.714844 123.167969 138.222656 120.824219 C 136.40625 120.726562 134.640625 120.375 132.925781 119.769531 C 135.015625 115.460938 136.605469 110.886719 137.691406 106.050781 C 138.1875 100.53125 139.070312 95.082031 140.339844 89.695312 C 142.09375 86.609375 144.035156 86.433594 146.164062 89.167969 C 146.949219 100.960938 144.832031 112.21875 139.8125 122.9375 C 138.613281 124.667969 137.027344 125.722656 135.042969 126.101562 Z M 135.042969 126.101562 "/>
<use xlink:href="#surface11" mask="url(#mask2)"/>
<path style=" stroke:none;fill-rule:evenodd;fill:rgb(8.627451%,73.333335%,20%);fill-opacity:1;" d="M 95.855469 101.832031 C 102.574219 101.65625 109.28125 101.832031 115.980469 102.359375 C 117.117188 104.179688 117.296875 106.113281 116.507812 108.164062 C 108.65625 109.199219 100.714844 109.550781 92.675781 109.21875 C 92.675781 119.417969 92.675781 129.621094 92.675781 139.820312 C 91.796875 129.101562 91.269531 118.195312 91.089844 107.109375 C 87.253906 107.257812 83.191406 107.257812 78.910156 107.109375 C 78.910156 106.402344 78.910156 105.699219 78.910156 104.996094 C 84.566406 105.171875 90.21875 104.996094 95.855469 104.46875 C 97.019531 103.65625 97.019531 102.777344 95.855469 101.832031 Z M 95.855469 101.832031 "/>
<path style=" stroke:none;fill-rule:evenodd;fill:rgb(10.980392%,76.078433%,21.960784%);fill-opacity:1;" d="M 81.027344 101.832031 C 79.046875 102.53125 76.929688 103.238281 74.671875 103.941406 C 75.929688 104.921875 77.34375 105.273438 78.910156 104.996094 C 78.910156 105.699219 78.910156 106.402344 78.910156 107.109375 C 78.125 106.96875 77.417969 107.144531 76.789062 107.636719 C 80.023438 107.824219 83.203125 108.351562 86.324219 109.21875 C 86.191406 109.859375 85.839844 110.210938 85.261719 110.273438 C 77.425781 109.554688 69.480469 108.851562 61.433594 108.164062 C 60.644531 106.113281 60.820312 104.179688 61.960938 102.359375 C 68.308594 101.832031 74.660156 101.65625 81.027344 101.832031 Z M 81.027344 101.832031 "/>
<path style=" stroke:none;fill-rule:evenodd;fill:rgb(9.019608%,77.64706%,20.392157%);fill-opacity:1;" d="M 40.777344 110.273438 C 40.957031 111.667969 40.605469 112.898438 39.71875 113.96875 C 41.261719 114.414062 41.789062 115.292969 41.308594 116.605469 C 40.871094 116.121094 40.339844 115.769531 39.71875 115.550781 C 38.910156 116.722656 37.847656 117.425781 36.542969 117.660156 C 33.605469 108.40625 32.015625 98.910156 31.773438 89.167969 C 34.011719 86.613281 36.128906 86.613281 38.128906 89.167969 C 39.496094 96.152344 40.378906 103.1875 40.777344 110.273438 Z M 40.777344 110.273438 "/>
<path style=" stroke:none;fill-rule:evenodd;fill:rgb(7.058824%,74.901962%,16.078432%);fill-opacity:1;" d="M 78.910156 107.109375 C 83.191406 107.257812 87.253906 107.257812 91.089844 107.109375 C 91.269531 118.195312 91.796875 129.101562 92.675781 139.820312 C 92.675781 147.558594 92.675781 155.296875 92.675781 163.035156 C 90.558594 163.035156 88.441406 163.035156 86.324219 163.035156 C 86.351562 145.457031 86 127.867188 85.261719 110.273438 C 85.839844 110.210938 86.191406 109.859375 86.324219 109.21875 C 83.203125 108.351562 80.023438 107.824219 76.789062 107.636719 C 77.417969 107.144531 78.125 106.96875 78.910156 107.109375 Z M 78.910156 107.109375 "/>
<use xlink:href="#surface14" mask="url(#mask3)"/>
<path style=" stroke:none;fill-rule:evenodd;fill:rgb(6.27451%,75.294119%,16.470589%);fill-opacity:1;" d="M 160.464844 71.230469 C 162.390625 85.261719 163.273438 99.683594 163.113281 114.496094 C 163.464844 104.996094 163.820312 95.5 164.171875 86.003906 C 164.523438 87.410156 164.878906 88.816406 165.230469 90.222656 C 165.761719 110.269531 165.9375 130.320312 165.761719 150.371094 C 165.917969 151.484375 165.742188 152.539062 165.230469 153.539062 C 164.359375 151.125 163.652344 148.660156 163.113281 146.152344 C 162.890625 147.796875 162.359375 149.203125 161.523438 150.371094 C 162.273438 140.882812 162.449219 131.382812 162.054688 121.882812 C 161.757812 120.914062 161.230469 120.210938 160.464844 119.769531 C 160.464844 103.589844 160.464844 87.410156 160.464844 71.230469 Z M 160.464844 71.230469 "/>
<path style=" stroke:none;fill-rule:evenodd;fill:rgb(6.666667%,77.254903%,15.686275%);fill-opacity:1;" d="M 16.417969 154.59375 C 16.125 157.210938 14.714844 158.96875 12.179688 159.871094 C 11.777344 138.734375 12.304688 117.628906 13.769531 96.554688 C 14.714844 116.066406 15.597656 135.414062 16.417969 154.59375 Z M 16.417969 154.59375 "/>
<path style=" stroke:none;fill-rule:evenodd;fill:rgb(9.411765%,76.47059%,20.784314%);fill-opacity:1;" d="M 132.925781 119.769531 C 134.640625 120.375 136.40625 120.726562 138.222656 120.824219 C 136.714844 123.167969 134.59375 124.75 131.867188 125.574219 C 132.871094 126.085938 133.929688 126.257812 135.042969 126.101562 C 127.195312 126.777344 119.25 126.074219 111.214844 123.992188 C 107.488281 123.976562 105.546875 125.734375 105.386719 129.269531 C 104.625 129.710938 104.09375 130.410156 103.796875 131.378906 C 102.800781 128.34375 101.566406 125.53125 100.089844 122.9375 C 100.472656 120.960938 101.53125 119.378906 103.269531 118.1875 C 113.21875 117.570312 123.101562 118.097656 132.925781 119.769531 Z M 132.925781 119.769531 "/>
<path style=" stroke:none;fill-rule:evenodd;fill:rgb(7.843138%,77.64706%,20.784314%);fill-opacity:1;" d="M 79.96875 130.324219 C 78.175781 127.488281 76.589844 124.324219 75.203125 120.824219 C 74.46875 122.777344 73.234375 124.1875 71.492188 125.046875 C 69.503906 124.160156 67.386719 123.808594 65.140625 123.992188 C 62.644531 124.164062 60.171875 123.988281 57.726562 123.464844 C 59.246094 123.234375 60.660156 122.707031 61.960938 121.882812 C 61.078125 121.53125 60.195312 121.175781 59.3125 120.824219 C 55.636719 121.832031 51.929688 122.011719 48.191406 121.355469 C 51.742188 121.292969 54.917969 120.414062 57.726562 118.714844 C 64.144531 117.136719 70.5 117.3125 76.789062 119.242188 C 79.027344 122.589844 80.085938 126.285156 79.96875 130.324219 Z M 79.96875 130.324219 "/>
<path style=" stroke:none;fill-rule:evenodd;fill:rgb(10.196079%,76.078433%,20.784314%);fill-opacity:1;" d="M 40.777344 110.273438 C 42.292969 113.121094 43.703125 116.109375 45.015625 119.242188 C 49.277344 119.765625 53.511719 119.59375 57.726562 118.714844 C 54.917969 120.414062 51.742188 121.292969 48.191406 121.355469 C 51.929688 122.011719 55.636719 121.832031 59.3125 120.824219 C 60.195312 121.175781 61.078125 121.53125 61.960938 121.882812 C 60.660156 122.707031 59.246094 123.234375 57.726562 123.464844 C 60.171875 123.988281 62.644531 124.164062 65.140625 123.992188 C 58.371094 126.28125 51.308594 127.160156 43.957031 126.628906 C 39.738281 125.066406 37.265625 122.078125 36.542969 117.660156 C 37.847656 117.425781 38.910156 116.722656 39.71875 115.550781 C 40.339844 115.769531 40.871094 116.121094 41.308594 116.605469 C 41.789062 115.292969 41.261719 114.414062 39.71875 113.96875 C 40.605469 112.898438 40.957031 111.667969 40.777344 110.273438 Z M 40.777344 110.273438 "/>
<path style=" stroke:none;fill-rule:evenodd;fill:rgb(7.058824%,74.117649%,15.686275%);fill-opacity:1;" d="M 100.089844 122.9375 C 101.566406 125.53125 102.800781 128.34375 103.796875 131.378906 C 104.09375 130.410156 104.625 129.710938 105.386719 129.269531 C 105.386719 130.324219 105.386719 131.378906 105.386719 132.433594 C 105.554688 133.882812 105.378906 135.289062 104.859375 136.65625 C 103.523438 131.726562 102.640625 131.550781 102.210938 136.128906 C 102.585938 143.59375 105.410156 149.925781 110.683594 155.121094 C 109.714844 155.414062 109.007812 155.941406 108.566406 156.703125 C 105.21875 153.566406 102.921875 149.695312 101.679688 145.097656 C 100.582031 139.261719 99.34375 133.460938 97.972656 127.683594 C 98 125.707031 98.707031 124.121094 100.089844 122.9375 Z M 100.089844 122.9375 "/>
<path style=" stroke:none;fill-rule:evenodd;fill:rgb(6.666667%,74.509805%,15.294118%);fill-opacity:1;" d="M 79.96875 130.324219 C 78.558594 136.28125 77.148438 142.261719 75.730469 148.261719 C 72.347656 149.492188 69.171875 151.25 66.199219 153.539062 C 66.242188 152.460938 66.242188 151.40625 66.199219 150.371094 C 69.324219 143.296875 71.796875 135.910156 73.613281 128.210938 C 73.144531 126.90625 72.4375 125.851562 71.492188 125.046875 C 73.234375 124.1875 74.46875 122.777344 75.203125 120.824219 C 76.589844 124.324219 78.175781 127.488281 79.96875 130.324219 Z M 79.96875 130.324219 "/>
<path style=" stroke:none;fill-rule:evenodd;fill:rgb(9.803922%,73.333335%,17.647059%);fill-opacity:1;" d="M 105.386719 132.433594 C 107.519531 137.882812 109.460938 143.511719 111.214844 149.316406 C 113.675781 150.96875 115.972656 152.726562 118.097656 154.59375 C 112.21875 155.253906 111.511719 157.367188 115.980469 160.925781 C 112.980469 160.3125 110.507812 158.90625 108.566406 156.703125 C 109.007812 155.941406 109.714844 155.414062 110.683594 155.121094 C 105.410156 149.925781 102.585938 143.59375 102.210938 136.128906 C 102.640625 131.550781 103.523438 131.726562 104.859375 136.65625 C 105.378906 135.289062 105.554688 133.882812 105.386719 132.433594 Z M 105.386719 132.433594 "/>
<path style=" stroke:none;fill-rule:evenodd;fill:rgb(8.235294%,77.254903%,16.470589%);fill-opacity:1;" d="M 167.878906 72.285156 C 167.878906 102.535156 167.878906 132.785156 167.878906 163.035156 C 166.46875 163.035156 165.054688 163.035156 163.640625 163.035156 C 150.410156 162.160156 136.992188 161.632812 123.394531 161.453125 C 136.105469 161.101562 148.8125 160.75 161.523438 160.398438 C 154.5 158.796875 154.5 157.566406 161.523438 156.703125 C 161.523438 154.59375 161.523438 152.484375 161.523438 150.371094 C 162.359375 149.203125 162.890625 147.796875 163.113281 146.152344 C 163.652344 148.660156 164.359375 151.125 165.230469 153.539062 C 165.742188 152.539062 165.917969 151.484375 165.761719 150.371094 C 166.46875 124.34375 167.171875 98.3125 167.878906 72.285156 Z M 167.878906 72.285156 "/>
<path style=" stroke:none;fill-rule:evenodd;fill:rgb(9.019608%,73.333335%,17.647059%);fill-opacity:1;" d="M 160.464844 119.769531 C 161.230469 120.210938 161.757812 120.914062 162.054688 121.882812 C 162.449219 131.382812 162.273438 140.882812 161.523438 150.371094 C 161.523438 152.484375 161.523438 154.59375 161.523438 156.703125 C 154.5 157.566406 154.5 158.796875 161.523438 160.398438 C 148.8125 160.75 136.105469 161.101562 123.394531 161.453125 C 136.992188 161.632812 150.410156 162.160156 163.640625 163.035156 C 149.160156 163.210938 134.6875 163.035156 120.214844 162.507812 C 118.566406 162.285156 117.152344 161.757812 115.980469 160.925781 C 111.511719 157.367188 112.21875 155.253906 118.097656 154.59375 C 121.828125 155.125 125.535156 155.828125 129.21875 156.703125 C 139.589844 155.6875 150.007812 155.335938 160.464844 155.648438 C 160.464844 143.691406 160.464844 131.730469 160.464844 119.769531 Z M 160.464844 119.769531 "/>
<path style=" stroke:none;fill-rule:evenodd;fill:rgb(10.980392%,75.294119%,18.431373%);fill-opacity:1;" d="M 17.476562 130.324219 C 17.300781 139.125 17.476562 147.917969 18.007812 156.703125 C 22.304688 156.28125 26.71875 156.28125 31.246094 156.703125 C 38.117188 157.578125 45.179688 158.105469 52.429688 158.289062 C 43.628906 159.296875 34.800781 160 25.949219 160.398438 C 36.742188 161.214844 47.511719 161.039062 58.253906 159.871094 C 59.136719 160.046875 60.019531 160.222656 60.902344 160.398438 C 59.933594 160.691406 59.226562 161.21875 58.785156 161.980469 C 42.730469 163.03125 26.488281 163.382812 10.0625 163.035156 C 10.0625 161.628906 10.0625 160.222656 10.0625 158.816406 C 10.828125 159.257812 11.355469 159.957031 11.652344 160.925781 C 12.074219 160.683594 12.25 160.332031 12.179688 159.871094 C 14.714844 158.96875 16.125 157.210938 16.417969 154.59375 C 16.074219 146.308594 16.425781 138.21875 17.476562 130.324219 Z M 17.476562 130.324219 "/>
<path style=" stroke:none;fill-rule:evenodd;fill:rgb(7.450981%,73.725492%,16.862746%);fill-opacity:1;" d="M 75.730469 148.261719 C 72.589844 155.96875 66.941406 160.539062 58.785156 161.980469 C 59.226562 161.21875 59.933594 160.691406 60.902344 160.398438 C 60.019531 160.222656 59.136719 160.046875 58.253906 159.871094 C 47.511719 161.039062 36.742188 161.214844 25.949219 160.398438 C 34.800781 160 43.628906 159.296875 52.429688 158.289062 C 45.179688 158.105469 38.117188 157.578125 31.246094 156.703125 C 39.699219 156.011719 48.171875 155.484375 56.664062 155.121094 C 60.203125 154.234375 63.378906 152.648438 66.199219 150.371094 C 66.242188 151.40625 66.242188 152.460938 66.199219 153.539062 C 69.171875 151.25 72.347656 149.492188 75.730469 148.261719 Z M 75.730469 148.261719 "/>
</g>
</svg>
