<svg xmlns="http://www.w3.org/2000/svg" viewBox="0 0 386.92 280.87"><defs><style>.cls-1{fill:#231f20;}.cls-2{fill:#f05a28;}</style></defs><g id="Layer_2" data-name="Layer 2"><g id="Layer_1-2" data-name="Layer 1"><path class="cls-1" d="M164.92,119.19a12.81,12.81,0,0,1-10.72-5.52,18.15,18.15,0,0,1-2.93-6,56.83,56.83,0,0,1-1.58-9.73h35a26.61,26.61,0,0,1,13.65,3.49,37.53,37.53,0,0,1,10.73,9.65h-.12q10.35,13.29,10.36,33.24a59.74,59.74,0,0,1-1.34,13,56.35,56.35,0,0,1-4.76,12.81h26v19.94H139.93a47.13,47.13,0,0,1,1.71-8.92,16.16,16.16,0,0,1,3.05-5.67,16.8,16.8,0,0,1,4.33-3.81,11.46,11.46,0,0,1,6.15-1.54h29.5a14.26,14.26,0,0,0,7.19-2,20,20,0,0,0,6.09-5.51v.16a46.37,46.37,0,0,0,4.45-8.76,27.4,27.4,0,0,0,1.65-9.73,28.07,28.07,0,0,0-1.52-9.24,31.74,31.74,0,0,0-4.21-8.11,22.89,22.89,0,0,0-6.4-5.76,14.17,14.17,0,0,0-7.25-2Z"/><path class="cls-1" d="M268.23,118.38q0-9.09,3.9-14.27a14.74,14.74,0,0,1,4.75-4.06,22.06,22.06,0,0,1,7.68-2.27v46.54a60.18,60.18,0,0,1-2.74,18.25A47.21,47.21,0,0,1,274,177.73q-9.39,12.48-24.5,12.48H233V170.27h16.46a14,14,0,0,0,6.89-1.87A20.7,20.7,0,0,0,262.5,163a33.2,33.2,0,0,0,4.45-9,33.85,33.85,0,0,0,1.28-9.65Z"/><path class="cls-1" d="M249.16,84.72q0-6,3.34-9.49a11.81,11.81,0,0,1,8.93-3.49A13.65,13.65,0,0,1,271,75.23a12.27,12.27,0,0,1,3.8,9.49,13.4,13.4,0,0,1-3.8,9.73,12.85,12.85,0,0,1-9.56,3.89,11.19,11.19,0,0,1-8.93-3.89A14.41,14.41,0,0,1,249.16,84.72Z"/><path class="cls-1" d="M365.68,100.2q0-8.91,5.84-14.27A22.43,22.43,0,0,1,378,81.72a32.52,32.52,0,0,1,8.92-2.27v46.7a49,49,0,0,1-3.32,18.16,42.59,42.59,0,0,1-10.46,15.24A46.15,46.15,0,0,1,340.22,172H311.68V152.09s35.27-.67,38.35-2a32.52,32.52,0,0,0,8.35-5.27,54,54,0,0,0,5.19-9.08,23.15,23.15,0,0,0,2.11-9.57Z"/><path class="cls-1" d="M329.07,60.86a12.39,12.39,0,0,1,3.73-9.48,13,13,0,0,1,9.25-3.49,14,14,0,0,1,9.73,3.49,12.12,12.12,0,0,1,3.89,9.48,13.31,13.31,0,0,1-13.62,13.63,12.29,12.29,0,0,1-9.25-3.9A13.51,13.51,0,0,1,329.07,60.86Z"/><path class="cls-1" d="M359.07,60.86q0-6,3.65-9.48a13.15,13.15,0,0,1,9.49-3.49q6.32,0,10,3.49t3.65,9.48a13.66,13.66,0,0,1-3.65,9.73q-3.65,3.9-10,3.9a12.4,12.4,0,0,1-9.49-3.9A13.66,13.66,0,0,1,359.07,60.86Z"/><path class="cls-1" d="M291.15,103.25q0-11.64,3.24-15.72a39.79,39.79,0,0,1,7.46-6.64,25.3,25.3,0,0,1,10.06-3.77l-.23,74.49h12.49l.22,17.45H311.91v39.12a33.7,33.7,0,0,1-1.46,10,22,22,0,0,1-4.06,7.75,23,23,0,0,1-6.4,5.62,20.54,20.54,0,0,1-8.84,2.55Z"/><path class="cls-1" d="M71.7,190.3H65.58A19.08,19.08,0,0,1,46.5,171.22V0A27.37,27.37,0,0,1,56.81,3.07a20,20,0,0,1,6.56,5.77,27.74,27.74,0,0,1,5.34,10.07,42.44,42.44,0,0,1,1.78,12.27"/><path class="cls-1" d="M121.93,118.46q0-8.91,5.84-14.27a22.38,22.38,0,0,1,6.49-4.22,33.16,33.16,0,0,1,8.92-2.27v46.71a49,49,0,0,1-3.33,18.16,42.46,42.46,0,0,1-10.46,15.24,48.93,48.93,0,0,1-14.75,9.33,49,49,0,0,1-18.17,3.16H67.93v-20s35.27-.67,38.35-2a32.31,32.31,0,0,0,8.36-5.27,53.81,53.81,0,0,0,5.18-9.08,23.07,23.07,0,0,0,2.11-9.56Z"/><path class="cls-2" d="M83.55,201.3v-.09c-.86,0-1.71.09-2.58.09-24.89,0-45.23-13-47-29.5h-.17V160.2c-.12-2.92-.11-5.76-.11-8v-46a36.79,36.79,0,0,0-2.45-13.31,38.56,38.56,0,0,0-6.31-11,36.47,36.47,0,0,0-9.78-7.95A39,39,0,0,0,1.09,69.31a1,1,0,0,0-1.09.9v82a99.28,99.28,0,0,0,5.28,32.1,76.81,76.81,0,0,0,16.08,27.48,72.62,72.62,0,0,0,24.07,16.92,72.5,72.5,0,0,0,28.7,5.64h210a.9.9,0,0,0,.91-.89V201.3Z"/><path class="cls-1" d="M71.16,216.84a11.24,11.24,0,0,1,2.85-8.1,10.08,10.08,0,0,1,7.63-3,11.6,11.6,0,0,1,8.15,3,10.45,10.45,0,0,1,3.25,8.1,11.41,11.41,0,0,1-3.25,8.31,10.93,10.93,0,0,1-8.15,3.32A9.55,9.55,0,0,1,74,225.15,12.33,12.33,0,0,1,71.16,216.84Z"/><path class="cls-1" d="M93,216.84a11.24,11.24,0,0,1,2.85-8.1,10.09,10.09,0,0,1,7.63-3,11.6,11.6,0,0,1,8.15,3,10.45,10.45,0,0,1,3.25,8.1,11.41,11.41,0,0,1-3.25,8.31,10.93,10.93,0,0,1-8.15,3.32,9.57,9.57,0,0,1-7.63-3.32A12.33,12.33,0,0,1,93,216.84Z"/><path class="cls-2" d="M74.33,260.67q0-8.9,5.37-14.06t14-5.17q9.33,0,14.7,5.17t5.38,14.06a20.34,20.34,0,0,1-5.38,14.43q-5.37,5.77-14.7,5.77a18.24,18.24,0,0,1-14-5.77A20.37,20.37,0,0,1,74.33,260.67Z"/></g></g></svg>