<?xml version="1.0" encoding="UTF-8"?><svg id="Layer_1" xmlns="http://www.w3.org/2000/svg" viewBox="0 0 128 128"><defs><style>.cls-1{fill:#6e006e;}</style></defs><path class="cls-1" d="M62.22,92.31c-.94-.14-1.77-.27-2.6-.38-12.48-1.67-23.26-12.9-23.81-25.45-.43-9.86-.18-19.75-.25-29.62,0-.79.25-1.22,1.08-1.21,5.09.08,10.16,1.86,10.17,9.24,0,4.15,0,8.3,0,12.45,0,2.96-.21,5.95.09,8.88.79,7.73,7.2,13.9,14.78,14.69,9.74,1.02,16.59-4.85,18.77-11.76,2.41-7.65-.41-15.64-7.6-20.02-.63-.38-1.66-.63-2.26-.37-.46.2-.72,1.3-.73,2-.06,4.59-.03,9.19-.03,13.78,0,2.03-.74,3.67-2.56,4.69-4.41,2.48-9.16-.26-9.17-5.26,0-6.96,0-13.93,0-20.89,0-8.92-6.96-17.13-15.85-18.1-4.98-.54-10.06-.27-15.09-.34-2.5-.03-3.11.61-3.11,3.16,0,11.61-.03,23.22.02,34.82.01,2.46.17,4.93.5,7.37,2.05,15.55,14.63,29.21,30.01,32.65.42.1,1.05.08,1.35-.17,3.2-2.67,5.26-6.06,6.29-10.18ZM57.08,103.09c.52.14.84.31,1.17.31,3.54.04,7.13.4,10.63.02,21.83-2.39,37.68-22.83,34.74-44.59-2.3-17.05-14.74-30.49-31.46-34-1.69-.36-2.29.1-2.31,1.84-.02,2.27,0,4.54,0,6.82q0,2.5,2.4,3.25c11.4,3.54,19.16,13.17,20.07,25.44.83,11.36-5.48,22.06-15.79,27.16-4.1,2.03-8.43,2.99-13.03,2.94-1.02,4.24-3.19,7.76-6.4,10.82ZM57.98,35.53v-11.53c-2.73.76-5.23,1.46-7.73,2.15-.03.17-.06.34-.09.52,3.44,2.24,5.98,5.23,7.82,8.86Z"/><path class="cls-1" d="M62.22,92.31c-1.03,4.13-3.09,7.51-6.29,10.18-.3.25-.92.27-1.35.17-15.38-3.44-27.96-17.1-30.01-32.65-.32-2.44-.48-4.91-.5-7.37-.05-11.61-.02-23.22-.02-34.82,0-2.55.61-3.2,3.11-3.16,5.03.07,10.11-.21,15.09.34,8.89.97,15.84,9.18,15.85,18.1,0,6.96,0,13.93,0,20.89,0,5.01,4.76,7.74,9.17,5.26,1.81-1.02,2.56-2.66,2.56-4.69,0-4.59-.03-9.19.03-13.78,0-.7.27-1.8.73-2,.6-.26,1.63-.02,2.26.37,7.19,4.38,10.01,12.37,7.6,20.02-2.18,6.91-9.02,12.78-18.77,11.76-7.57-.79-13.98-6.97-14.78-14.69-.3-2.93-.09-5.92-.09-8.88,0-4.15,0-8.3,0-12.45,0-7.38-5.08-9.16-10.17-9.24-.83-.01-1.08.42-1.08,1.21.07,9.88-.17,19.76.25,29.62.54,12.55,11.32,23.78,23.81,25.45.83.11,1.65.24,2.6.38Z"/><path class="cls-1" d="M57.08,103.09c3.21-3.06,5.38-6.58,6.4-10.82,4.6.05,8.93-.92,13.03-2.94,10.31-5.1,16.63-15.8,15.79-27.16-.9-12.26-8.66-21.9-20.07-25.44q-2.4-.74-2.4-3.25c0-2.27-.02-4.54,0-6.82.02-1.74.62-2.2,2.31-1.84,16.73,3.51,29.17,16.96,31.46,34,2.93,21.77-12.92,42.2-34.74,44.59-3.5.38-7.08.02-10.63-.02-.32,0-.64-.17-1.17-.31Z"/><path class="cls-1" d="M57.98,35.53c-1.85-3.63-4.39-6.62-7.82-8.86.03-.17.06-.34.09-.52,2.5-.7,5.01-1.39,7.73-2.15v11.53Z"/></svg>