<svg width="21" height="20" viewBox="0 0 21 20" fill="none" xmlns="http://www.w3.org/2000/svg">
    <path fill-rule="evenodd" clip-rule="evenodd" d="M6.61003 2.5C3.84825 2.5 1.60938 4.73858 1.60938 7.5C1.60938 9.00172 2.27662 10.3961 3.40654 11.3394L9.22543 16.7493C9.86525 17.3441 10.8559 17.3441 11.4956 16.7492L17.3237 11.3301C18.4329 10.42 19.1117 9.01466 19.1117 7.5C19.1117 4.73858 16.8728 2.5 14.111 2.5C12.6436 2.5 11.2907 3.13794 10.3605 4.19193C9.43038 3.13794 8.07745 2.5 6.61003 2.5ZM4.52457 10.1031L4.48799 10.071C3.72539 9.44083 3.27626 8.50801 3.27626 7.5C3.27626 5.65905 4.76884 4.16667 6.61003 4.16667C7.90016 4.16667 9.05689 4.90559 9.61086 6.04575C9.91482 6.67135 10.8062 6.67135 11.1102 6.04575C11.6642 4.90559 12.8209 4.16667 14.111 4.16667C15.9522 4.16667 17.4448 5.65905 17.4448 7.5C17.4448 8.51086 16.9931 9.44606 16.2268 10.0762L10.3605 15.5287L4.52457 10.1031Z" fill="#424750"/>
</svg>
