<svg xmlns="http://www.w3.org/2000/svg" viewBox="0 0 649.28 204.59"><defs><style>.cls-1{fill:#52b9c7;}.cls-2{fill:#cacaca;}</style></defs><g id="Layer_2" data-name="Layer 2"><g id="Layer_1-2" data-name="Layer 1"><path class="cls-1" d="M198.1,49A10.51,10.51,0,0,0,183,40.62c-4.25,2.11-5.89,5.75-5.91,10.36,0,12.65-.25,25.31-.22,38,0,13.56-.25,27.12.2,40.67.24,7.58-3.08,10.42-10.67,9.56a19.36,19.36,0,0,1-2.23-.5,5.71,5.71,0,0,1-4.44-4.74,30.63,30.63,0,0,1-.57-6.48q0-37.8-.1-75.6a24.17,24.17,0,0,0-.09-3.07A10.52,10.52,0,0,0,144,40.53c-4.61,2.19-6.1,6.12-6.1,11,0,17.77-.2,35.54-.22,53.32,0,8.18-.06,16.36.16,24.55.18,6.52-.52,7.85-5.75,9.79h-25.8c0-.55-.1-.7,0-.77.88-1.25,1.75-2.51,2.68-3.73,6.61-8.72,9.89-18.82,10.79-29.48,1.43-16.91-3.17-32.33-14.71-44.94C88.69,42.46,68.44,36.39,44.86,42,14.7,49.19-4.34,79.64.85,109.75A59.25,59.25,0,0,0,20.19,145C29,152.83,39.42,157.34,51,159.24c1.27.21,2.88-.21,3.59,1.46l-23.8,23.9a3.36,3.36,0,0,0-.24.29A10.69,10.69,0,0,0,31,198.63,10.4,10.4,0,0,0,44.89,200,27.78,27.78,0,0,0,48,197.21c11.54-11.44,23.11-22.84,34.56-34.37a7.42,7.42,0,0,1,6.06-2.44c5.11.23,10.22.35,15.33.33q38.76-.09,77.52-.29c1.79,0,3.58.09,5.37,0,7.19-.28,11.25-4.5,11.31-11.73.06-8.18.12-16.37.12-24.56q0-36.27-.12-72.53A24.1,24.1,0,0,0,198.1,49ZM20.54,99.87c0-20.33,17.81-39.81,39.32-39.2C81.51,59.93,99.48,79.48,99.42,100c-.06,20.85-18.26,39.31-39.32,39.37C38.86,139.44,20.54,120.87,20.54,99.87Z"/><path class="cls-2" d="M413.63,103.84c-1.61,1.21-3.41.92-5.16.92q-80,0-160,0c-.77,0-1.54,0-2.31,0-3.45,0-3.55,0-4,3.55a48.66,48.66,0,0,1-3.35,11.36,11.74,11.74,0,0,0-1.31,4.06c1.2,0,2.22.14,3.23.14q84.42,0,168.86,0a26.12,26.12,0,0,0,9.37-1.63,25.32,25.32,0,0,0,16.25-27.83C433,81.08,421.49,72.88,409.26,72.93c-56.54.21-113.08.09-169.63.11-1.21,0-2.52-.33-3.61.44-.34,1.11.36,1.81.76,2.56a46.47,46.47,0,0,1,4.82,12.89c.42,2.17,1.26,3.18,3.51,2.86a20.1,20.1,0,0,1,2.69,0H406.68a29.53,29.53,0,0,1,4.21.11,6.31,6.31,0,0,1,5.35,4.84A6.66,6.66,0,0,1,413.63,103.84Z"/><path class="cls-1" d="M648.08,89.18c-5.81-28-29.92-48.63-60.41-48.07a57.5,57.5,0,0,0-36.36,13.45c-15.3,12.71-22.48,29.3-21.95,48.89a56.37,56.37,0,0,0,12,33.79c.65.83,1.82,1.51,1.41,3.19-4.67,0-9.39,0-14.1,0s-9.45.32-14.17-.3l-.27-.07a1.61,1.61,0,0,0-1.27-.76c-2.76-2.9-2.47-6.56-2.48-10.12q-.12-37.95-.22-75.9a24.12,24.12,0,0,0-.38-5,10.37,10.37,0,0,0-13-7.61c-5.18,1.56-7.76,5.28-7.77,11.33Q489,90.55,489,129.09c0,9.64-2.23,11.65-12.32,11.35-3.57-.11-5.3-1.75-6.11-5.21a21.61,21.61,0,0,1-.53-4.94q0-14.38-.08-28.76a28.71,28.71,0,0,0-.45-6.86c-2.26-21.93-13.43-37.88-32.69-48.23-9.54-5.13-19.9-7-30.68-7q-88.8,0-177.61,0a8,8,0,0,0-3.41.3,11.46,11.46,0,0,0-1.46.32c-5.3,1.91-8,6.56-7,11.93.88,4.85,5,8.14,10.39,8.19,1.9,0,3.8-.09,5.69-.14,1.4.05,2.81.15,4.21.15q32.41,0,64.83,0c34.78,0,69.56.09,104.34,0,10.08,0,19.17,2.51,27.25,8.52,18.21,13.55,21.67,39,6.17,56.38-8.52,9.53-19.32,14.21-32.25,14.19q-87.66-.1-175.31,0c-1,0-2,.05-3.06.08A13.24,13.24,0,0,0,227,139c-6.17-.06-10.9,4.35-11,10.27A10.59,10.59,0,0,0,226.59,160c1.78,0,3.56-.11,5.34-.18,1.15.05,2.29.16,3.44.16q85.94,0,171.88,0c2.17,0,4.36,0,6.52-.23,12.76-1.29,24.25-5.71,34.07-14.12h0c1.48,1.23.58,2.88.67,4.32.29,4.75,1.75,8.74,6.36,11a14.2,14.2,0,0,0,6.34,1.13q19.34,0,38.66,0c20.82,0,41.63-.19,62.44-.34,9.31-.06,18.61-.44,27.92-.5a32.88,32.88,0,0,0,3.79-.45c3.25.29,6.3-.8,9.41-1.47C635.34,152.32,654.36,119.35,648.08,89.18Zm-58.37,51.26c-21.6.47-39.54-17.67-39.85-38.74-.32-22.06,18.14-39.64,38.62-40.05,21.23-.42,39.9,17.19,40.24,38.82C629.06,121.86,611.3,140.46,589.71,140.44Z"/><path class="cls-1" d="M185.63,176.53c-6.84-1.73-12.64,1.5-17,9.69-4.77-8.41-10.33-11.48-17.25-9.64a14,14,0,1,0,8.67,26.51c4.3-1.71,6.78-5.09,8.51-9.32,4.26,8.45,9.73,11.6,17,10a14,14,0,0,0,0-27.22Z"/><path class="cls-1" d="M497.76,176.88c-7.23-1.59-13.09,1.69-17,9.79-4.84-8.45-10.28-11.42-17.38-9.75a14,14,0,0,0-10.48,12.7,13.81,13.81,0,0,0,9.5,14.17,13.52,13.52,0,0,0,9-.06c4.45-1.55,7.29-4.8,9-9.41,5.16,8.76,10.83,11.71,17.85,9.64a13.75,13.75,0,0,0,10.1-14.12A13.93,13.93,0,0,0,497.76,176.88Z"/><path class="cls-1" d="M587.7,27.94a14.08,14.08,0,0,0,14.12-14.11,14.07,14.07,0,0,0-28.13.27A14.09,14.09,0,0,0,587.7,27.94Z"/><path class="cls-1" d="M114.32,176.11a14,14,0,1,0,14.11,14A13.94,13.94,0,0,0,114.32,176.11Z"/></g></g></svg>
