<svg width="58" height="18" viewBox="0 0 58 18" fill="none" xmlns="http://www.w3.org/2000/svg">
<path d="M17.4311 4.30791C17.3611 3.66249 16.6791 3.28803 16.0977 3.57421C15.7232 3.75992 15.5801 4.07958 15.5771 4.48449C15.574 5.59875 15.5557 6.70997 15.5588 7.82424C15.5618 9.01766 15.5375 10.2111 15.5771 11.4015C15.5984 12.0682 15.3061 12.3178 14.6394 12.2417C14.5724 12.2356 14.5085 12.2143 14.4415 12.196C14.2223 12.1412 14.0975 11.9982 14.0518 11.779C14.0122 11.5902 14.0031 11.4014 14.0031 11.2096C14.0031 8.9933 13.997 6.7739 13.9939 4.55755C13.9939 4.46622 13.997 4.37794 13.9879 4.2866C13.9118 3.65945 13.242 3.28802 12.6727 3.55898C12.2678 3.75078 12.1368 4.09784 12.1368 4.52711C12.1368 6.09195 12.1186 7.65374 12.1186 9.21859C12.1186 9.93707 12.1125 10.6586 12.1307 11.3801C12.146 11.9555 12.0851 12.0712 11.6254 12.2417H9.35422C9.35118 12.193 9.34508 12.1808 9.34813 12.1747C9.42728 12.0651 9.5034 11.9525 9.58255 11.8459C10.164 11.0787 10.4533 10.1898 10.5324 9.25208C10.6572 7.76335 10.2523 6.40857 9.23853 5.29735C7.8046 3.72946 6.0236 3.19364 3.9473 3.68989C1.29559 4.32313 -0.381891 7.00224 0.0747744 9.6509C0.287885 10.8809 0.845025 11.919 1.77662 12.7501C2.55295 13.4412 3.46933 13.84 4.48922 14.0075C4.60186 14.0258 4.7419 13.9892 4.80583 14.1353C4.10866 14.8356 3.40843 15.5358 2.71126 16.2391C2.70212 16.2482 2.69604 16.2573 2.68995 16.2665C2.40682 16.6227 2.42204 17.1433 2.72344 17.4751C3.0431 17.8252 3.56066 17.88 3.9473 17.5969C4.04776 17.5238 4.13606 17.4355 4.22131 17.3472C5.23815 16.3426 6.25499 15.3379 7.26269 14.3241C7.42101 14.1658 7.57627 14.0988 7.79547 14.1079C8.24605 14.1293 8.69358 14.1384 9.14415 14.1384C11.4183 14.1323 13.6895 14.1201 15.9637 14.111C16.122 14.111 16.2803 14.1201 16.4356 14.111C17.0688 14.0866 17.425 13.7152 17.4311 13.0789C17.4372 12.3574 17.4433 11.6389 17.4402 10.9174C17.4402 8.78932 17.4342 6.6643 17.4311 4.53624C17.4311 4.45708 17.4311 4.37793 17.425 4.29877M1.80402 8.78019C1.80402 6.99006 3.36886 5.27604 5.2625 5.33084C7.16831 5.26691 8.74837 6.98701 8.74229 8.79237C8.7362 10.6282 7.13483 12.2508 5.28381 12.2569C3.41453 12.263 1.80402 10.6282 1.80402 8.78019Z" fill="#9E9E9E"/>
<path d="M36.3919 9.13629C36.2488 9.24284 36.0935 9.21848 35.9382 9.21848C31.2437 9.21848 26.5522 9.21848 21.8577 9.21848C21.7907 9.21848 21.7238 9.21848 21.6537 9.21848C21.3493 9.22153 21.3402 9.21848 21.2975 9.53206C21.2488 9.88217 21.1331 10.2079 21.0022 10.5306C20.9596 10.6341 20.8987 10.7285 20.8865 10.8868C20.9931 10.8929 21.0814 10.899 21.1697 10.899C26.123 10.899 31.0732 10.899 36.0265 10.899C36.3127 10.899 36.5867 10.8564 36.8516 10.7559C37.8715 10.3662 38.4529 9.3494 38.2825 8.3082C38.0907 7.13 37.0829 6.41152 36.0052 6.41456C31.0306 6.43283 26.056 6.42369 21.0814 6.42369C20.9748 6.42369 20.8591 6.39325 20.7648 6.46327C20.7343 6.56069 20.7952 6.62158 20.8317 6.68856C21.0235 7.0478 21.1788 7.42227 21.2549 7.82109C21.2915 8.01289 21.3645 8.10118 21.5654 8.07378C21.6416 8.0616 21.7238 8.07378 21.8029 8.07378C26.4609 8.07378 31.1219 8.07378 35.7799 8.07378C35.9047 8.07378 36.0296 8.06769 36.1514 8.08292C36.3888 8.1164 36.5806 8.29602 36.6232 8.50913C36.6719 8.76182 36.608 8.97189 36.3949 9.13324" fill="#9E9E9E"/>
<path d="M57.021 7.84855C56.5095 5.38864 54.3875 3.57112 51.7054 3.61983C50.5211 3.64114 49.4342 4.03387 48.5057 4.80411C47.16 5.92142 46.5268 7.38275 46.5725 9.1059C46.6029 10.1897 46.9439 11.2035 47.6259 12.0773C47.6837 12.1503 47.7842 12.2112 47.7507 12.3574C47.3397 12.3574 46.9256 12.3604 46.5116 12.3574C46.0975 12.3513 45.6805 12.3848 45.2664 12.33L45.2421 12.3239C45.2116 12.2904 45.1812 12.2569 45.1294 12.2569C44.8859 12.0012 44.9132 11.6784 44.9102 11.3679C44.9041 9.14243 44.898 6.91695 44.8919 4.68842C44.8919 4.54229 44.8889 4.39311 44.8585 4.25307C44.7519 3.74769 44.21 3.43716 43.7168 3.5833C43.2632 3.7203 43.0348 4.04605 43.0318 4.57883C43.0287 6.8378 43.0257 9.09981 43.0227 11.3588C43.0227 12.2082 42.8278 12.3848 41.9389 12.3574C41.6253 12.3482 41.473 12.2051 41.4 11.8977C41.3665 11.7546 41.3543 11.6115 41.3543 11.4623C41.3543 10.619 41.3543 9.77568 41.3482 8.93237C41.3482 8.73143 41.3574 8.52746 41.3087 8.32957C41.1108 6.3994 40.1274 4.99591 38.4317 4.08563C37.5914 3.63505 36.6811 3.47065 35.7312 3.47065C30.5222 3.47065 25.3132 3.47065 20.1041 3.47065C20.0037 3.47065 19.9002 3.45239 19.8058 3.49805C19.7632 3.50719 19.7175 3.51023 19.6779 3.52545C19.2121 3.6929 18.9716 4.10389 19.0569 4.57578C19.136 5.002 19.4983 5.29122 19.9702 5.29731C20.1376 5.29731 20.3051 5.28818 20.4695 5.28514C20.5943 5.29123 20.7161 5.29731 20.8409 5.29731C22.7406 5.29731 24.6434 5.29731 26.5431 5.29731C29.6028 5.29731 32.6624 5.3034 35.7221 5.29122C36.608 5.28818 37.4087 5.51042 38.1211 6.04015C39.7225 7.23357 40.0269 9.47428 38.663 10.9995C37.9141 11.8368 36.9642 12.2508 35.8256 12.2478C30.6836 12.2417 25.5445 12.2447 20.4025 12.2478C20.3142 12.2478 20.2229 12.2508 20.1346 12.2538C20.0798 12.2447 20.025 12.2295 19.9702 12.2264C19.4283 12.2204 19.0112 12.61 18.999 13.1306C18.9868 13.6421 19.3978 14.0622 19.9337 14.0744C20.0889 14.0775 20.2472 14.0653 20.4025 14.0592C20.503 14.0653 20.6034 14.0744 20.7039 14.0744C25.7455 14.0744 30.784 14.0744 35.8256 14.0744C36.0174 14.0744 36.2092 14.0744 36.398 14.0531C37.5214 13.9405 38.5321 13.5508 39.3967 12.811C39.5276 12.9206 39.4485 13.0637 39.4546 13.1915C39.4789 13.6086 39.6099 13.9618 40.0148 14.1566C40.1913 14.2419 40.3801 14.2571 40.5719 14.2571C41.7044 14.2571 42.84 14.254 43.9725 14.2571C45.8022 14.2601 47.635 14.2419 49.4647 14.2266C50.2836 14.2206 51.1026 14.1871 51.9216 14.181C52.0312 14.181 52.1438 14.1566 52.2564 14.1414C52.5426 14.1658 52.8105 14.0714 53.0845 14.0105C55.8915 13.4047 57.5659 10.5033 57.0149 7.84855M51.8789 12.3604C49.9792 12.4 48.3991 10.8047 48.3748 8.95063C48.3474 7.01133 49.9701 5.46476 51.7724 5.42823C53.6386 5.39169 55.2826 6.94131 55.3131 8.84408C55.3435 10.7255 53.7817 12.3635 51.882 12.3604" fill="#9E9E9E"/>
<path d="M16.3351 15.5326C15.7354 15.3804 15.2239 15.6635 14.8403 16.3851C14.4202 15.6453 13.93 15.3743 13.3211 15.5357C12.7701 15.6818 12.3926 16.1567 12.3835 16.7139C12.3743 17.2618 12.764 17.7794 13.2907 17.9164C13.5586 17.9864 13.8235 17.9712 14.0853 17.8677C14.4628 17.7185 14.682 17.4202 14.8342 17.0457C15.2087 17.7885 15.6897 18.0656 16.3351 17.9255C16.8831 17.8038 17.2911 17.2953 17.2911 16.7291C17.2911 16.1659 16.9014 15.6727 16.3351 15.5296" fill="#9E9E9E"/>
<path d="M43.7959 15.5631C43.1597 15.4231 42.6451 15.7123 42.3042 16.4247C41.8779 15.6819 41.4 15.4201 40.7759 15.5662C40.2675 15.6849 39.8778 16.1568 39.8534 16.6835C39.826 17.2619 40.1518 17.7491 40.6906 17.9317C40.9555 18.02 41.2203 18.017 41.4852 17.9256C41.8779 17.7886 42.1276 17.5025 42.2768 17.0975C42.7304 17.8678 43.2297 18.1266 43.8477 17.9439C44.4109 17.7765 44.758 17.2954 44.7367 16.7018C44.7184 16.1599 44.3196 15.6758 43.799 15.5631" fill="#9E9E9E"/>
<path d="M51.7084 2.45991C52.3934 2.45991 52.9597 1.89668 52.9506 1.21777C52.9414 0.544954 52.3934 0.00304444 51.7176 0C51.0295 0 50.4663 0.557134 50.4754 1.23909C50.4846 1.90886 51.0356 2.45382 51.7084 2.45686" fill="#9E9E9E"/>
<path d="M10.0605 15.4961C9.38772 15.5052 8.84886 16.0502 8.84886 16.7291C8.84886 17.4202 9.40598 17.9773 10.091 17.9682C10.7668 17.9591 11.3027 17.411 11.3027 16.7352C11.3027 16.0441 10.7486 15.49 10.0605 15.4991" fill="#9E9E9E"/>
</svg>
