<svg width="24" height="24" viewBox="0 0 24 24" fill="none" xmlns="http://www.w3.org/2000/svg">
    <path d="M15 11.1716H14C13.4477 11.1716 13 11.6193 13 12.1716V13.1716C13 13.7239 13.4477 14.1716 14 14.1716H15C15.5522 14.1716 16 13.7239 16 13.1716V12.1716C16 11.6193 15.5522 11.1716 15 11.1716Z" fill="#A1A3A8"/>
    <path fill-rule="evenodd" clip-rule="evenodd" d="M13.9773 2.74371C12.7989 1.70898 11.0033 1.75397 9.87863 2.87868L1.29285 11.4645L2.70706 12.8787L3.99995 11.5858V18.1716L4.00505 18.3478C4.09629 19.9227 5.40227 21.1716 6.99995 21.1716H17L17.1762 21.1665C18.751 21.0752 20 19.7693 20 18.1716V11.5858L21.2928 12.8787L22.7071 11.4645L14.1213 2.87868L13.9773 2.74371ZM18 9.58579L12.7071 4.29289C12.3466 3.93241 11.7793 3.90468 11.3871 4.2097L11.2928 4.29289L5.99995 9.58579V18.1716C5.99995 18.6844 6.38599 19.1071 6.88333 19.1648L6.99995 19.1716H17C17.5128 19.1716 17.9355 18.7855 17.9932 18.2882L18 18.1716V9.58579Z" fill="#A1A3A8"/>
</svg>
