<svg xmlns="http://www.w3.org/2000/svg" width="1em" height="1em" fill="none" viewBox="0 0 60 16"><g fill="#6857A4"><path d="M37.499 4.96h4.258v1.29h-4.258zM2.942 3.43 8.879 0c.58 1.01.24 2.3-.77 2.88L2.173 6.31c-.58-1.01-.24-2.3.77-2.88M1.062 7.56 7 4.13c.58 1.01.24 2.3-.77 2.88L.283 10.44c-.58-1.01-.24-2.3.77-2.88zM5.21 8.28l5.938-3.43c.58 1.01.24 2.3-.77 2.88l-5.937 3.43c-.58-1.01-.24-2.3.77-2.88M3.241 12.56 9.18 9.13c.58 1.01.24 2.3-.77 2.88l-5.937 3.43c-.58-1.01-.24-2.3.77-2.88"></path><path d="M56.791 10.1h-1.28V4.96h1.28v1.92h1.93V4.96H60v5.13h-1.28V8.17h-1.93zm-16.064 0h-1.28V6.25l2.23-1.29h.98v1.29h-1.93zm7.927 0h-5.128V6.89h5.128v1.29h-3.848v.64h3.848zm6.038 0h-3.948c-.21 0-.42-.05-.6-.16-.18-.1-.33-.25-.43-.43a1.15 1.15 0 0 1-.16-.6V6.89h1.28v1.25c0 .38.3.68.68.68h3.168v1.28zm-6.028-3.85h-5.128V4.97h5.128zm6.028 0h-5.138V6.2c0-.22.06-.43.17-.62.11-.18.26-.34.45-.45s.4-.17.62-.17h3.898v1.29M13.558 6.18c0-.22.05-.43.16-.61s.26-.33.44-.44c.19-.11.4-.17.609-.16h3.919v1.28h-3.55c-.08 0-.159.03-.209.09q-.09.09-.09.21v.04c0 .08.03.16.09.22s.13.09.22.09h2.299c.22 0 .44.06.63.17s.34.27.45.45c.11.19.17.41.17.63v.71c0 .22-.06.44-.17.63s-.27.34-.45.45c-.19.11-.41.17-.63.17h-3.879V8.83h3.53c.08 0 .17-.03.23-.09s.099-.14.089-.23c0-.09-.03-.17-.09-.23a.32.32 0 0 0-.23-.09h-2.379c-.2 0-.4-.05-.58-.16-.17-.1-.32-.25-.42-.42-.1-.18-.16-.38-.15-.58V6.2zm8.536.38 1.28-1.6h1.28v5.13h-1.28V6.88l-1.28 1.61-1.28-1.61v3.21h-1.289V4.96h1.29zm5.378-1.6h1.28l1.929 5.13h-1.28l-1.279-3.21-1.28 3.21h-1.289l1.93-5.13zm7.867 0a1.32 1.32 0 0 1 1.15.66c.12.2.18.43.18.67v.55c0 .24-.06.47-.18.67q-.18.3-.48.48c-.2.12-.43.18-.67.18h-.6l1.93 1.92h-1.92L32.83 8.17v1.92h-1.29V6.87h3.58c.07 0 .14-.03.2-.08a.28.28 0 0 0 .08-.2V6.5c0-.07-.03-.14-.08-.2a.28.28 0 0 0-.2-.08h-3.58V4.94h3.8z"></path></g></svg>