<svg width="24" height="24" viewBox="0 0 24 24" fill="none" xmlns="http://www.w3.org/2000/svg">
<path fill-rule="evenodd" clip-rule="evenodd" d="M11.2929 3.29289L2.29289 12.2929C1.90237 12.6834 1.90237 13.3166 2.29289 13.7071L10.2929 21.7071C10.6834 22.0976 11.3166 22.0976 11.7071 21.7071L20.7071 12.7071C20.8946 12.5196 21 12.2652 21 12L21 7C21 6.73478 20.8946 6.48043 20.7071 6.29289L17.7071 3.29289C17.5196 3.10536 17.2652 3 17 3L12 3C11.7348 3 11.4804 3.10536 11.2929 3.29289ZM11 19.5858L4.41421 13L12.4142 5L16.5858 5L19 7.41421V11.5858L11 19.5858Z" fill="black" fill-opacity="0.6"/>
<path fill-rule="evenodd" clip-rule="evenodd" d="M12 9C12 10.6569 13.3431 12 15 12C16.6569 12 18 10.6569 18 9C18 7.34315 16.6569 6 15 6C13.3431 6 12 7.34315 12 9ZM16 9C16 9.55228 15.5523 10 15 10C14.4477 10 14 9.55228 14 9C14 8.44772 14.4477 8 15 8C15.5523 8 16 8.44772 16 9Z" fill="black" fill-opacity="0.6"/>
</svg>
