<svg xmlns="http://www.w3.org/2000/svg" width="1em" height="1em" fill="none" viewBox="0 0 54 48"><path fill="#4C2E83" d="M36.26 43.56c-3.56 0-6.91-1.39-9.43-3.91a13.25 13.25 0 0 1-3.91-9.43c0-3.56 1.39-6.91 3.91-9.43s5.87-3.91 9.43-3.91 6.91 1.39 9.43 3.91 3.91 5.87 3.91 9.43-1.39 6.91-3.91 9.43a13.25 13.25 0 0 1-9.43 3.91m0-24.68c-3.03 0-5.88 1.18-8.02 3.32a11.27 11.27 0 0 0-3.32 8.02c0 3.03 1.18 5.88 3.32 8.02a11.27 11.27 0 0 0 8.02 3.32c3.03 0 5.88-1.18 8.02-3.32a11.27 11.27 0 0 0 3.32-8.02c0-3.03-1.18-5.88-3.32-8.02a11.27 11.27 0 0 0-8.02-3.32"></path><path fill="#2EEFB5" d="M36.26 38.49a8.27 8.27 0 1 0 0-16.54 8.27 8.27 0 0 0 0 16.54"></path><path fill="#4C2E83" d="M49.56 47.38c-1 0-1.99-.38-2.75-1.14l-4.8-4.8a.996.996 0 1 1 1.41-1.41l4.8 4.8a1.895 1.895 0 0 0 2.68-2.68l-4.8-4.8a.996.996 0 1 1 1.41-1.41l4.8 4.8a3.9 3.9 0 0 1 0 5.51c-.76.76-1.75 1.14-2.75 1.14zM11.33 20.59H6.37c-3.21 0-5.82-2.61-5.82-5.82V6.43C.55 3.22 3.16.61 6.37.61h37.61c3.21 0 5.82 2.61 5.82 5.82v4.17c0 .55-.45 1-1 1s-1-.45-1-1V6.43c0-2.1-1.71-3.82-3.82-3.82H6.37c-2.1 0-3.82 1.71-3.82 3.82v8.34c0 2.1 1.71 3.82 3.82 3.82h4.96c.55 0 1 .45 1 1s-.45 1-1 1"></path><path fill="#4C2E83" d="M13.92 14.42c-.39 0-.75-.23-.91-.58L11.7 11l-1.31 2.84a1.005 1.005 0 0 1-1.82 0L5.98 8.22c-.23-.5-.01-1.1.49-1.33s1.1-.01 1.33.49l1.68 3.65 1.31-2.84a1.005 1.005 0 0 1 1.82 0l1.31 2.84 1.68-3.65a1.003 1.003 0 0 1 1.82.84l-2.59 5.62c-.16.35-.52.58-.91.58M26.23 14.42c-.39 0-.75-.23-.91-.58L24.01 11l-1.31 2.84a1.005 1.005 0 0 1-1.82 0l-2.59-5.62c-.23-.5-.01-1.1.49-1.33s1.1-.01 1.33.49l1.68 3.65 1.31-2.84a1.005 1.005 0 0 1 1.82 0l1.31 2.84 1.68-3.65a1.003 1.003 0 0 1 1.82.84l-2.59 5.62c-.16.35-.52.58-.91.58M38.55 14.42c-.39 0-.75-.23-.91-.58L36.33 11l-1.31 2.84a1.005 1.005 0 0 1-1.82 0l-2.59-5.62c-.23-.5-.01-1.1.49-1.33s1.1-.01 1.33.49l1.68 3.65 1.31-2.84a1.005 1.005 0 0 1 1.82 0l1.31 2.84 1.68-3.65a1.003 1.003 0 0 1 1.82.84l-2.59 5.62c-.16.35-.52.58-.91.58M43.44 14.42h-.57c-.55 0-1-.45-1-1s.45-1 1-1h.57c.55 0 1 .45 1 1s-.45 1-1 1"></path><g fill="#4C2E83"><path d="M12.25 38.44c-4.28 0-7.77-3.49-7.77-7.77s3.49-7.77 7.77-7.77 7.77 3.49 7.77 7.77-3.49 7.77-7.77 7.77m0-13.54c-3.18 0-5.77 2.59-5.77 5.77s2.59 5.77 5.77 5.77 5.77-2.59 5.77-5.77-2.59-5.77-5.77-5.77"></path><path d="M8.68 47.12q-.21 0-.42-.09a.99.99 0 0 1-.58-.91v-9.71c0-.55.45-1 1-1s1 .45 1 1v7.53l1.92-1.65a1 1 0 0 1 1.3 0l1.93 1.65V36.4c0-.55.45-1 1-1s1 .45 1 1v9.71c0 .39-.23.75-.58.91-.36.17-.77.11-1.07-.15l-2.93-2.51-2.92 2.51c-.18.16-.42.24-.65.24z"></path></g><path fill="#4C2E83" d="M16.2 20.59h-1.52c-.55 0-1-.45-1-1s.45-1 1-1h1.52c.55 0 1 .45 1 1s-.45 1-1 1M19.65 20.59h-.29c-.55 0-1-.45-1-1s.45-1 1-1h.29c.55 0 1 .45 1 1s-.45 1-1 1M48.79 15.31c-.55 0-1-.45-1-1v-.29c0-.55.45-1 1-1s1 .45 1 1v.29c0 .55-.45 1-1 1"></path></svg>