<svg xmlns="http://www.w3.org/2000/svg" width="1em" height="1em" fill="none" viewBox="0 0 36 28"><g fill="#B1A4CF"><path d="M29.038 11.775V4.037A3.09 3.09 0 0 0 25.925.95h-14.6a3.09 3.09 0 0 0-3.1 3.087V18.65c0 1.7 1.388 3.088 3.1 3.088h9.113a7.72 7.72 0 0 0 7.325 5.312c4.237 0 7.687-3.463 7.687-7.7 0-3.813-2.788-6.975-6.425-7.588zM16.85 2.838h3.55v6.275h-3.55zM11.325 19.85a1.21 1.21 0 0 1-1.212-1.2V4.038c0-.663.55-1.2 1.212-1.2h3.638v7.212c0 .525.412.95.95.95h5.437a.95.95 0 0 0 .95-.95V2.838h3.625c.675 0 1.212.537 1.212 1.2V11.7c-3.95.313-7.074 3.625-7.074 7.663 0 .162 0 .325.024.487zm16.438 5.313a5.78 5.78 0 0 1-5.65-4.5.3.3 0 0 1-.038-.138V20.5a5.7 5.7 0 0 1-.113-1.137c0-3.2 2.613-5.8 5.813-5.8s5.8 2.6 5.8 5.8-2.6 5.812-5.8 5.812z"></path><path d="M27.138 22.088a.9.9 0 0 1-.663-.276l-1.963-1.962a.936.936 0 0 1 0-1.338.936.936 0 0 1 1.338 0l1.287 1.288 2.538-2.538a.936.936 0 0 1 1.337 0 .936.936 0 0 1 0 1.338l-3.2 3.2a.93.93 0 0 1-.662.275zM5.8 8.913H1.488a.95.95 0 1 1 0-1.9H5.8a.95.95 0 1 1 0 1.9M5.8 15.675H1.488a.95.95 0 1 1 0-1.9H5.8a.95.95 0 1 1 0 1.9M5.8 12.288H4.5a.95.95 0 1 1 0-1.9h1.3a.95.95 0 1 1 0 1.9"></path></g></svg>