<svg xmlns="http://www.w3.org/2000/svg" width="1em" height="1em" fill="none" viewBox="0 0 44 32"><g fill="#4C2E83"><path d="M30.535 27.175a8.8 8.8 0 0 1-6.24-2.58c-3.435-3.435-3.435-9.03 0-12.465s9.03-3.435 12.465 0 3.435 9.03 0 12.465a8.78 8.78 0 0 1-6.24 2.58zm0-14.625c-1.485 0-2.985.57-4.11 1.695a5.82 5.82 0 0 0 0 8.22 5.82 5.82 0 0 0 8.22 0 5.82 5.82 0 0 0 0-8.22 5.78 5.78 0 0 0-4.11-1.695M5.065 26.53H2.26c-.825 0-1.5-.675-1.5-1.5s.675-1.5 1.5-1.5h2.805c.72 0 1.305-.585 1.305-1.305v-1.71c0-.72-.585-1.305-1.305-1.305A4.315 4.315 0 0 1 .76 14.905v-1.71A4.315 4.315 0 0 1 5.065 8.89H7.87c.825 0 1.5.675 1.5 1.5s-.675 1.5-1.5 1.5H5.065c-.72 0-1.305.585-1.305 1.305v1.71c0 .72.585 1.305 1.305 1.305a4.315 4.315 0 0 1 4.305 4.305v1.71a4.315 4.315 0 0 1-4.305 4.305M18.955 26.53h-5.61c-.825 0-1.5-.675-1.5-1.5V10.405c0-.825.675-1.5 1.5-1.5h5.61c.825 0 1.5.675 1.5 1.5s-.675 1.5-1.5 1.5h-4.11V23.53h4.11c.825 0 1.5.675 1.5 1.5s-.675 1.5-1.5 1.5"></path><path d="M17.545 19.225h-4.2c-.825 0-1.5-.675-1.5-1.5s.675-1.5 1.5-1.5h4.2c.825 0 1.5.675 1.5 1.5s-.675 1.5-1.5 1.5M39.22 31.075c-1.08 0-2.085-.42-2.835-1.17L32.53 26.05a1.494 1.494 0 0 1 0-2.115 1.494 1.494 0 0 1 2.115 0L38.5 27.79c.39.39 1.035.39 1.44 0 .39-.39.39-1.05 0-1.44l-3.84-3.855a1.494 1.494 0 0 1 0-2.115 1.494 1.494 0 0 1 2.115 0l3.855 3.855c1.56 1.56 1.56 4.11 0 5.685a4.04 4.04 0 0 1-2.85 1.17zM38.005 17.875c-.825 0-1.5-.675-1.5-1.5s.675-1.5 1.5-1.5a2.24 2.24 0 0 0 2.235-2.235V6.175a2.24 2.24 0 0 0-2.235-2.235H8.8a2.24 2.24 0 0 0-2.235 2.235v3.24c0 .825-.675 1.5-1.5 1.5s-1.5-.675-1.5-1.5v-3.24A5.24 5.24 0 0 1 8.8.94h29.205a5.24 5.24 0 0 1 5.235 5.235v6.465a5.24 5.24 0 0 1-5.235 5.235"></path></g></svg>