<svg xmlns="http://www.w3.org/2000/svg" width="1em" height="1em" fill="none" viewBox="0 0 42 44"><g fill="#4C2E83"><path d="M39.63 28.18h-1.59a6.8 6.8 0 0 0-.75-1.8l1.125-1.125a1.494 1.494 0 0 0 0-2.115 1.494 1.494 0 0 0-2.115 0l-1.125 1.125a6.4 6.4 0 0 0-1.8-.75v-1.59c0-.825-.675-1.5-1.5-1.5s-1.5.675-1.5 1.5v1.59a6.4 6.4 0 0 0-1.8.75l-1.14-1.14a1.494 1.494 0 0 0-2.115 0 1.494 1.494 0 0 0 0 2.115l1.14 1.14c-.33.555-.6 1.155-.75 1.8h-1.59c-.825 0-1.5.675-1.5 1.5s.675 1.5 1.5 1.5h1.59c.15.645.42 1.245.75 1.8l-1.125 1.125a1.494 1.494 0 0 0 1.065 2.55c.39 0 .765-.15 1.065-.435l1.125-1.125c.555.345 1.155.6 1.8.75v1.59c0 .825.675 1.5 1.5 1.5s1.5-.675 1.5-1.5v-1.59a6.4 6.4 0 0 0 1.8-.75l1.125 1.125c.3.3.675.435 1.065.435s.765-.15 1.065-.435a1.494 1.494 0 0 0 0-2.115L37.32 32.98c.345-.555.6-1.155.75-1.8h1.59c.825 0 1.5-.675 1.5-1.5s-.675-1.5-1.5-1.5zm-5.385 3.885v.015c-.6.6-1.44.975-2.355.975h-.015a3.35 3.35 0 0 1-2.37-.99 3.4 3.4 0 0 1-.975-2.37 3.38 3.38 0 0 1 3.375-3.375c.93 0 1.77.375 2.37.975s.975 1.44.975 2.355v.03a3.3 3.3 0 0 1-.975 2.34h-.015zM17.565 18.49c4.86 0 8.805-3.945 8.805-8.805S22.425.865 17.565.865 8.76 4.81 8.76 9.67s3.945 8.805 8.805 8.805zm0-14.61c3.195 0 5.805 2.61 5.805 5.805s-2.61 5.805-5.805 5.805-5.805-2.61-5.805-5.805 2.61-5.805 5.805-5.805"></path><path d="M28.32 40.12H6.81c-1.62 0-2.94-1.32-2.94-2.94v-1.545c0-6.69 5.445-12.15 12.15-12.15h3.105c.825 0 1.5-.675 1.5-1.5s-.675-1.5-1.5-1.5H16.02C7.665 20.485.87 27.28.87 35.635v1.545c0 3.27 2.67 5.94 5.94 5.94h21.495c.825 0 1.5-.675 1.5-1.5s-.675-1.5-1.5-1.5z"></path></g></svg>