<svg xmlns="http://www.w3.org/2000/svg" width="1em" height="1em" fill="none" viewBox="0 0 28 28"><g fill="#4C2E83"><path d="M14 2.57c3.72 0 4.17.01 5.64.08 1.36.06 2.1.29 2.59.48.65.25 1.12.56 1.6 1.04.49.49.79.95 1.04 1.6.19.49.42 1.23.48 2.59.07 1.47.08 1.91.08 5.64s-.01 4.17-.08 5.64c-.06 1.36-.29 2.1-.48 2.59-.25.65-.56 1.12-1.04 1.6-.49.49-.95.79-1.6 1.04-.49.19-1.23.42-2.59.48-1.47.07-1.91.08-5.64.08s-4.17-.01-5.64-.08c-1.36-.06-2.1-.29-2.59-.48-.65-.25-1.12-.56-1.6-1.04-.49-.49-.79-.95-1.04-1.6-.19-.49-.42-1.23-.48-2.59-.07-1.47-.08-1.91-.08-5.64s.01-4.17.08-5.64c.06-1.36.29-2.1.48-2.59.25-.65.56-1.12 1.04-1.6.49-.49.95-.79 1.6-1.04.49-.19 1.23-.42 2.59-.48 1.47-.07 1.91-.08 5.64-.08m0-2.51c-3.79 0-4.26.02-5.75.08-1.48.07-2.5.3-3.39.65-.92.36-1.69.83-2.47 1.61A6.8 6.8 0 0 0 .78 4.87C.44 5.76.2 6.77.13 8.26s-.08 1.96-.08 5.75.02 4.26.08 5.75c.07 1.48.3 2.5.65 3.39.36.92.83 1.69 1.61 2.47a6.8 6.8 0 0 0 2.47 1.61c.89.34 1.9.58 3.39.65s1.96.08 5.75.08 4.26-.02 5.75-.08c1.48-.07 2.5-.3 3.39-.65a6.8 6.8 0 0 0 2.47-1.61 6.8 6.8 0 0 0 1.61-2.47c.34-.89.58-1.9.65-3.39s.08-1.96.08-5.75-.02-4.26-.08-5.75c-.07-1.48-.3-2.5-.65-3.39a6.8 6.8 0 0 0-1.61-2.47A6.8 6.8 0 0 0 23.14.79c-.89-.34-1.9-.58-3.39-.65S17.79.06 14 .06"></path><path d="M14 6.84a7.16 7.16 0 1 0 0 14.32c3.95 0 7.16-3.21 7.16-7.16S17.95 6.84 14 6.84m0 11.81c-2.57 0-4.65-2.08-4.65-4.65S11.43 9.35 14 9.35s4.65 2.08 4.65 4.65-2.08 4.65-4.65 4.65M21.45 8.22a1.67 1.67 0 1 0 0-3.34 1.67 1.67 0 0 0 0 3.34"></path></g></svg>