<svg xmlns="http://www.w3.org/2000/svg" width="1em" height="1em" fill="none" viewBox="0 0 14 14"><g fill="#4F4F4F"><path d="m9.777 5.46-1.12-1.12a1.056 1.056 0 0 1 0-1.505l1.586-1.586a.993.993 0 0 1 1.4 0 5.49 5.49 0 0 1 0 7.77l-2.625 2.625a5.49 5.49 0 0 1-7.77 0 .993.993 0 0 1 0-1.4l1.587-1.587c.42-.42 1.097-.42 1.505 0l1.12 1.12a.91.91 0 0 0 1.295 0l3.01-3.01a.91.91 0 0 0 0-1.295zM4.258 6.627c.257 0 .49-.163.56-.432a1.97 1.97 0 0 1 1.424-1.388.58.58 0 0 0 .42-.712.586.586 0 0 0-.712-.42A3.18 3.18 0 0 0 3.698 5.88a.59.59 0 0 0 .572.747zM1.342 5.472c.256 0 .49-.163.56-.42a4.55 4.55 0 0 1 3.196-3.127.58.58 0 0 0 .42-.711.58.58 0 0 0-.711-.42A5.7 5.7 0 0 0 .782 4.725a.584.584 0 0 0 .396.724c.059.011.105.023.164.023"></path></g></svg>