<svg width="20" height="20" viewBox="0 0 20 20" fill="none" xmlns="http://www.w3.org/2000/svg"><path d="M0 3C0 1.34315 1.34315 0 3 0L17 0C18.6569 0 20 1.34315 20 3L20 17C20 18.6569 18.6569 20 17 20L3 20C1.34315 20 0 18.6569 0 17L0 3Z" fill="#424242"></path><path fill-rule="evenodd" clip-rule="evenodd" d="M7.39903 8.2832H5.13281V15.0922H7.39903V8.2832Z" fill="#F5F5F5"></path><path fill-rule="evenodd" clip-rule="evenodd" d="M7.54948 6.17612C7.53478 5.5085 7.05736 5 6.2821 5C5.50684 5 5 5.5085 5 6.17612C5 6.82992 5.49186 7.35306 6.25268 7.35306H6.26716C7.05736 7.35306 7.54948 6.82992 7.54948 6.17612Z" fill="#F5F5F5"></path><path fill-rule="evenodd" clip-rule="evenodd" d="M15.5747 11.1879C15.5747 9.09644 14.4567 8.12305 12.9654 8.12305C11.7622 8.12305 11.2235 8.78394 10.9227 9.24756V8.28312H8.65625C8.68612 8.92204 8.65625 15.0922 8.65625 15.0922H10.9227V11.2894C10.9227 11.0859 10.9374 10.8829 10.9974 10.7372C11.1612 10.3307 11.5341 9.90976 12.1602 9.90976C12.9805 9.90976 13.3085 10.5341 13.3085 11.4491V15.092H15.5746L15.5747 11.1879Z" fill="#F5F5F5"></path></svg>