<svg xmlns="http://www.w3.org/2000/svg" width="1em" height="1em" fill="none" viewBox="0 0 54 56"><path fill="#4C2E83" d="M30.43 55.38h-.54c-2.04 0-3.7-1.66-3.7-3.7V42.8c0-2.04 1.66-3.7 3.7-3.7h.54c2.04 0 3.7 1.66 3.7 3.7v8.88c0 2.04-1.66 3.7-3.7 3.7m-.54-14.28c-.94 0-1.7.76-1.7 1.7v8.88c0 .94.76 1.7 1.7 1.7h.54c.94 0 1.7-.76 1.7-1.7V42.8c0-.94-.76-1.7-1.7-1.7z"></path><path fill="#4C2E83" d="M30.16 41.1c-.55 0-1-.45-1-1a5.42 5.42 0 0 1 5.41-5.41H46.7c2.67 0 4.84-2.17 4.84-4.84s-2.17-4.84-4.84-4.84h-1.56c-.55 0-1-.45-1-1s.45-1 1-1h1.56c3.77 0 6.84 3.07 6.84 6.84s-3.07 6.84-6.84 6.84H34.57c-1.88 0-3.41 1.53-3.41 3.41 0 .55-.45 1-1 1"></path><path fill="#2EEFB5" d="M41.24 17.66H17.25a5.31 5.31 0 0 0-5.31 5.31v2.09a5.31 5.31 0 0 0 5.31 5.31h23.99a5.31 5.31 0 0 0 5.31-5.31v-2.09a5.31 5.31 0 0 0-5.31-5.31"></path><path fill="#4C2E83" d="M12.83 42.19H4.46c-2.21 0-4-1.79-4-4V4.62c0-2.21 1.79-4 4-4h33.57c2.21 0 4 1.79 4 4v6.58c0 .55-.45 1-1 1s-1-.45-1-1V4.62c0-1.1-.9-2-2-2H4.46c-1.1 0-2 .9-2 2v33.57c0 1.1.9 2 2 2h8.37c.55 0 1 .45 1 1s-.45 1-1 1"></path><path fill="#4C2E83" d="M20.52 14.67H1.46c-.55 0-1-.45-1-1s.45-1 1-1h19.06c.55 0 1 .45 1 1s-.45 1-1 1"></path><path fill="#2EEFB5" d="M7.88 10.04a2.54 2.54 0 1 0 0-5.08 2.54 2.54 0 0 0 0 5.08M14.94 10.04a2.54 2.54 0 1 0 0-5.08 2.54 2.54 0 0 0 0 5.08"></path><path fill="#4C2E83" d="M17.79 42.19h-1.52c-.55 0-1-.45-1-1s.45-1 1-1h1.52c.55 0 1 .45 1 1s-.45 1-1 1M21.24 42.19h-.3c-.55 0-1-.45-1-1s.45-1 1-1h.3c.55 0 1 .45 1 1s-.45 1-1 1M41.03 15.6c-.55 0-1-.45-1-1v-.29c0-.55.45-1 1-1s1 .45 1 1v.29c0 .55-.45 1-1 1"></path></svg>