<svg width="24" height="24" viewBox="0 0 24 24" fill="none" xmlns="http://www.w3.org/2000/svg">
<path fill-rule="evenodd" clip-rule="evenodd" d="M2.29289 12.2929L11.2929 3.29289C11.4804 3.10536 11.7348 3 12 3H17C17.2652 3 17.5196 3.10536 17.7071 3.29289L20.7071 6.29289C20.8946 6.48043 21 6.73478 21 7L21 12C21 12.2652 20.8946 12.5196 20.7071 12.7071L11.7071 21.7071C11.3166 22.0976 10.6834 22.0976 10.2929 21.7071L2.29289 13.7071C1.90237 13.3166 1.90237 12.6834 2.29289 12.2929ZM15 10.5C15.8284 10.5 16.5 9.82843 16.5 9C16.5 8.17157 15.8284 7.5 15 7.5C14.1716 7.5 13.5 8.17157 13.5 9C13.5 9.82843 14.1716 10.5 15 10.5Z" fill="#EF4056"/>
</svg>
