<svg xmlns="http://www.w3.org/2000/svg" width="1em" height="1em" fill="none" viewBox="0 0 156 38"><g fill="#4A2984" clip-path="url(#main-logo_svg__a)"><path d="M142.126 0h-21.751c-1.069 0-1.941.882-1.941 1.963l.012 34.08A1.95 1.95 0 0 0 120.387 38h21.739C149.783 38 156 31.718 156 23.968v-9.936C156 6.282 149.783 0 142.126 0m-.949 24.27a.3.3 0 0 1-.048.109c-.406.399-2.359 2.205-5.417 2.229-3.052.03-5.029-1.74-5.447-2.132a.92.92 0 0 1-.221-.544c0-.054-.012-.435.275-.683.34-.296.806-.139.89-.108.167.054.28.145.352.205.364.32 1.851 1.57 4.097 1.57 2.449 0 4.02-1.485 4.336-1.793q.027-.012.072-.03a.87.87 0 0 1 .806.126c.352.266.418.743.305 1.051m-7.609-16.4s.179-1.038.185-1.05c0-.013.048-.17.149-.236.054-.036.114-.042.114-.042h3.279s.053.006.083.018a.2.2 0 0 1 .096.048c.053.055.065.151.065.151.066.38.132.755.197 1.136.192 1.135.389 2.271.58 3.413l-.006 2.21v.049s-.024.09-.09.271q-.007.03-.024.067c-.018.042-.041.103-.071.17-.042.078-.281.555-.669.911-.251.236-.884.713-1.768.731 0 0-1.648.024-2.52-1.63-.15-.279-.18-.55-.18-.55 0-.013-.006-.019-.006-.025v-.018c0-.139 0-.888-.006-2.18.263-1.51.46-2.67.592-3.443m9.597 23.546a1 1 0 0 1-.149.06 3 3 0 0 1-.287.097q-.063.01-.137.03a3 3 0 0 1-.358.055h-.024s-.012 0-.018.006c-.006-.006-.012 0-.024 0q-.055-.002-.191.006h-12.172c-.322 0-.525 0-.645-.006-.042 0-.072-.006-.095-.006h-.024s-.03-.006-.048-.006c-.036-.007-.066-.007-.096-.012l-.131-.019c-.018 0-.03-.006-.042-.006l-.012-.006s-.024 0-.036-.006l-.149-.036-.06-.018q-.108-.036-.209-.073c-.042-.012-.077-.03-.113-.048a4 4 0 0 1-.167-.072q-.053-.02-.096-.049c-.03-.018-.06-.03-.084-.048-.029-.012-.047-.03-.071-.042-.12-.067-.185-.115-.185-.115-.096-.067-.771-.55-1.117-1.365-.054-.133-.144-.35-.197-.647a10 10 0 0 1-.066-.561v-2.03c.024-5.2.024-8.891.024-8.891v-5.78c0-.08 0-.14.012-.194.012-.06.024-.109.024-.127 0-.006.012-.036.018-.079.012-.024.017-.054.029-.09l.06-.157c.066-.175.317-.628.394-.78.012-.018.066-.126.18-.344.107-.211 1.343-2.67 1.534-3.044a1 1 0 0 1 .132-.2.7.7 0 0 1 .245-.21.6.6 0 0 1 .262-.061h2.945s.03 0 .054.006c.018.006.029.006.041.012.03.018.054.03.078.048.012.018.024.03.036.048.054.097.03.248.018.29 0 .013-.341 2.042-.341 2.054 0 .018-.412 2.447-.412 2.459-.006.561-.006 1.83-.006 1.83s-.053.338-.125.598c0 0-.078.26-.239.537a2.6 2.6 0 0 1-.86.852c-.054.03-.108.055-.161.085l-.12.054a.3.3 0 0 1-.059.024c-.03 0-.054.018-.084.024a.3.3 0 0 1-.078.025 4.6 4.6 0 0 1-.824.132 10.619 10.619 0 0 1-.687.024s-.071-.005-.137.007c-.012 0-.03.006-.042.006-.024.012-.048.018-.072.042a.13.13 0 0 0-.047.048.4.4 0 0 0-.042.103v12.624s.012.163.042.29c.024.121.059.206.083.26.156.344.412.538.466.58.048.036.114.084.209.127.006 0 .006.006.006.006q.047.025.102.042c.035.018.065.024.077.03.168.055.323.073.424.079q.054.008.09.006h.31c1.064-.006 3.889 0 5.579-.006h.681c1.905.006 5.255 0 5.894.006q.029.002.084-.006h.012s.251-.024.436-.085a.2.2 0 0 0 .06-.024c.149-.048.245-.127.31-.175.06-.042.317-.236.466-.58.024-.054.066-.139.09-.26.03-.127.041-.29.041-.29V15.85a.2.2 0 0 0-.047-.103.08.08 0 0 0-.042-.048c-.024-.024-.048-.03-.072-.042-.012 0-.024-.006-.036-.006q-.026-.007-.053-.006h-.18c-.191 0-.358-.006-.513-.018a5 5 0 0 1-.998-.164c-.029-.012-.059-.018-.077-.024a.4.4 0 0 0-.078-.03 3 3 0 0 1-.263-.133c-.059-.036-.119-.072-.167-.109l-.012-.012a2.7 2.7 0 0 1-.675-.73 3 3 0 0 1-.239-.538 5 5 0 0 1-.125-.598s-.006-1.269-.006-1.83c0-.012-.412-2.44-.412-2.459 0-.012-.311-1.866-.341-2.041 0-.007-.053-.188.012-.303a.3.3 0 0 1 .06-.066c.018-.012.036-.018.06-.03q.017-.01.042-.012c.024-.006.053-.006.053-.006h2.945c.125 0 .215.036.263.06.119.06.185.14.245.212a1 1 0 0 1 .131.199c.191.374 1.427 2.833 1.535 3.044.113.218.167.326.179.345.078.15.323.604.394.779l.06.157q.017.054.024.09c.012.043.018.073.024.079.006.018.006.03.006.048a.3.3 0 0 1 .012.079 1 1 0 0 1 .018.193s0 1.927-.006 3.89v1.89s0 3.691.023 8.892v2.03s-.029.338-.071.561c-.048.296-.144.514-.197.647a3.36 3.36 0 0 1-1.117 1.365s-.012 0-.036.03c-.06.036-.209.127-.406.23l-.12.054zM106.106 10.522H96.15a.78.78 0 0 0-.776.786v2.657a.78.78 0 0 0 .776.786h10.1c.943 0 1.702.773 1.702 1.721v5.032c0 .954-.765 1.721-1.702 1.721h-10.1a.78.78 0 0 0-.776.785v2.688a.78.78 0 0 0 .776.786h9.956c3.339 0 6.039-2.737 6.039-6.107v-4.742c0-3.376-2.706-6.113-6.039-6.113M93.284 15.536v5.84c0 3.377-2.706 6.114-6.044 6.114h-4.121a.8.8 0 0 1-.55-.23l-1.797-1.818-.078-.103v1.172c0 .49-.352.894-.818.967h-4.838c-.125.012-.25.012-.376.012H70.2v.235c0 3.377-2.705 6.113-6.044 6.113h-6.76c-3.339 0-6.039-2.736-6.039-6.113v-7.949a.78.78 0 0 1 .777-.785h2.658c.43 0 .776.35.776.785v8.094c0 .955.765 1.722 1.702 1.722h7.048c.943 0 1.702-.773 1.702-1.722v-.38h-3.41a.78.78 0 0 1-.777-.786v-2.687c0-.266.132-.502.334-.64a.76.76 0 0 1 .442-.146h13.898v-6.753c0-.954-.764-1.721-1.702-1.721h-7.209c-.686 0-1.033-.846-.549-1.341l.914-.925 1.714-1.733a.77.77 0 0 1 .55-.23h4.43c.7 0 1.369.121 1.99.339h.012a6.11 6.11 0 0 1 4.043 5.768v4.742c0 .598.012 1.812 0 1.854h1.463q.126.018.251.018h4.981c.944 0 1.702-.773 1.702-1.721v-5.986a.78.78 0 0 1 .777-.785H92.5c.43 0 .777.35.777.785z"></path><path d="M77.832 29.592h-2.645a.78.78 0 0 0-.777.785v2.676a.78.78 0 0 0 .777.785h2.645a.78.78 0 0 0 .777-.785v-2.676a.78.78 0 0 0-.777-.785M90.41 29.592h-6.838a.78.78 0 0 0-.776.785v2.676a.78.78 0 0 0 .776.785h6.839a.78.78 0 0 0 .776-.785v-2.676a.78.78 0 0 0-.776-.785M13.605 18.967h5.136c1.082 0 1.631-1.317.872-2.096-.597-.61-1.2-1.238-1.648-1.698a1.22 1.22 0 0 0-.872-.368h-3.5c-.734 0-1.44.127-2.09.368-2.377.87-4.067 2.966-4.067 5.696v3.208c0 .556.448 1.009.997 1.009h4.462c.985 0 1.78.803 1.785 1.8v.99c0 .949-.764 1.722-1.702 1.722H5.913a1.71 1.71 0 0 1-1.702-1.722v-8.094a.78.78 0 0 0-.777-.785H.776a.78.78 0 0 0-.776.785v7.95c0 3.376 2.706 6.112 6.044 6.112h6.76c3.244 0 5.878-2.585 6.027-5.823h.006v-.139c0-.048.006-.096.006-.145v-.84h-.006c-.006-2.868-1.97-5.272-4.61-5.919a6 6 0 0 0-1.135-.109h-1.464c.018-.29.078-.573.215-.827A1.99 1.99 0 0 1 13.6 18.99zM37.477 8.366H40.1a.766.766 0 0 0 .765-.773V4.94a.77.77 0 0 0-.765-.773h-2.622a.77.77 0 0 0-.764.773v2.652a.77.77 0 0 0 .764.773M47.039 15.167c-.64-2.682-3.029-4.675-5.877-4.675h-4.677c-3.338 0-6.044 2.736-6.044 6.113l.012 4.15v.072c0 .205.084.405.227.55l1.792 1.812.101.078h-1.158s-.054 0-.084.006h-2.897a2.256 2.256 0 0 1-2.245-2.27V9.066c0-.43-.34-.78-.77-.78H22.82c-.424 0-.77.35-.77.78v12.37c0 3.347 2.681 6.059 5.99 6.059h1.774s-.024.006-.018.006h13.259c2.257 0 4.091-1.849 4.091-4.138v-7.049c0-.393-.036-.78-.114-1.148zm-4.062 6.584c0 .84-.675 1.522-1.505 1.522h-6.874v-6.765c0-.996.8-1.806 1.786-1.806h4.801c.986 0 1.786.81 1.786 1.806v5.243z"></path></g><defs><clipPath id="main-logo_svg__a"><path fill="#fff" d="M0 0h156v38H0z"></path></clipPath></defs></svg>