<svg xmlns="http://www.w3.org/2000/svg" width="1em" height="1em" fill="none" viewBox="0 0 54 52"><path fill="#2EEFB5" d="M48.96 25.35c1.87 0 3.39 1.52 3.39 3.39v4.73c0 1.74-1.32 3.2-3.05 3.37L25.04 39.3V25.34h23.92z"></path><path fill="#4C2E83" d="M52.35 46.05H29.6c-3.07 0-5.57-2.5-5.57-5.57V39.3c0-.55.45-1 1-1s1 .45 1 1v1.18c0 1.97 1.6 3.57 3.57 3.57h22.75c.55 0 1 .45 1 1s-.45 1-1 1"></path><path fill="#4C2E83" d="M32.84 51.73a3.841 3.841 0 0 1 0-7.68 3.841 3.841 0 0 1 0 7.68m0-5.68c-1.01 0-1.84.83-1.84 1.84s.82 1.84 1.84 1.84 1.84-.82 1.84-1.84-.83-1.84-1.84-1.84M47.21 51.73a3.841 3.841 0 0 1 0-7.68 3.841 3.841 0 0 1 0 7.68m0-5.68c-1.01 0-1.84.83-1.84 1.84s.82 1.84 1.84 1.84 1.84-.82 1.84-1.84-.83-1.84-1.84-1.84M25.04 40.3c-.55 0-1-.45-1-1V24.27a3.97 3.97 0 0 0-3.96-3.96c-.55 0-1-.45-1-1s.45-1 1-1c3.29 0 5.96 2.67 5.96 5.96V39.3c0 .55-.45 1-1 1"></path><path fill="#4C2E83" d="M12.26 46.35H4.82c-2.3 0-4.17-1.87-4.17-4.17V4.44C.65 2.14 2.52.27 4.82.27H40.3c2.3 0 4.17 1.87 4.17 4.17v13.5c0 .55-.45 1-1 1s-1-.45-1-1V4.44c0-1.2-.97-2.17-2.17-2.17H4.82c-1.2 0-2.17.97-2.17 2.17v37.74c0 1.2.97 2.17 2.17 2.17h7.44c.55 0 1 .45 1 1s-.45 1-1 1"></path><path fill="#4C2E83" d="M43.47 15H1.65c-.55 0-1-.45-1-1s.45-1 1-1h41.82c.55 0 1 .45 1 1s-.45 1-1 1"></path><path fill="#2EEFB5" d="M8.44 10.16a2.68 2.68 0 1 0 0-5.36 2.68 2.68 0 0 0 0 5.36M15.9 10.16a2.68 2.68 0 1 0 0-5.36 2.68 2.68 0 0 0 0 5.36"></path><path fill="#4C2E83" d="M13.1 28.39h-2.71c-2.1 0-3.8-1.71-3.8-3.8v-2.71c0-2.1 1.71-3.8 3.8-3.8h2.71c2.1 0 3.8 1.71 3.8 3.8v2.71c0 2.1-1.71 3.8-3.8 3.8m-2.71-8.31c-.99 0-1.8.81-1.8 1.8v2.71c0 .99.81 1.8 1.8 1.8h2.71c.99 0 1.8-.81 1.8-1.8v-2.71c0-.99-.81-1.8-1.8-1.8zM13.1 41.07h-2.71c-2.1 0-3.8-1.71-3.8-3.8v-2.71c0-2.1 1.71-3.8 3.8-3.8h2.71c2.1 0 3.8 1.71 3.8 3.8v2.71c0 2.1-1.71 3.8-3.8 3.8m-2.71-8.31c-.99 0-1.8.81-1.8 1.8v2.71c0 .99.81 1.8 1.8 1.8h2.71c.99 0 1.8-.81 1.8-1.8v-2.71c0-.99-.81-1.8-1.8-1.8zM17.5 46.35h-1.6c-.55 0-1-.45-1-1s.45-1 1-1h1.6c.55 0 1 .45 1 1s-.45 1-1 1M21.15 46.35h-.31c-.55 0-1-.45-1-1s.45-1 1-1h.31c.55 0 1 .45 1 1s-.45 1-1 1M43.47 22.74c-.55 0-1-.45-1-1v-.31c0-.55.45-1 1-1s1 .45 1 1v.31c0 .55-.45 1-1 1"></path></svg>