<svg xmlns="http://www.w3.org/2000/svg" width="1em" height="1em" fill="none" viewBox="0 0 58 54"><g fill="#F2F2F2"><path d="M29.08 34.8c-3.99 0-7.24-3.25-7.24-7.25s3.25-7.24 7.24-7.24 7.25 3.25 7.25 7.24-3.25 7.25-7.25 7.25m0-12.49c-2.89 0-5.24 2.35-5.24 5.24s2.35 5.25 5.24 5.25 5.25-2.35 5.25-5.25-2.35-5.24-5.25-5.24M29.08 15.45c-3.99 0-7.24-3.25-7.24-7.24S25.09.96 29.08.96s7.25 3.25 7.25 7.25-3.25 7.24-7.25 7.24m0-12.49c-2.89 0-5.24 2.35-5.24 5.25s2.35 5.24 5.24 5.24 5.25-2.35 5.25-5.24-2.35-5.25-5.25-5.25"></path><path d="M48.77 31.69h-8.48c-3.4 0-6.45 1.9-7.96 4.89h-6.67a8.91 8.91 0 0 0-7.96-4.89H9.23c-4.92 0-8.91 4-8.91 8.91v1.52c0 3.32 2.69 6.02 6.01 6.02h9.7a6.014 6.014 0 0 0 5.91 4.89h14.27a6.01 6.01 0 0 0 5.9-4.89h9.55c3.32 0 6.02-2.7 6.02-6.02V40.6c0-4.91-4-8.91-8.91-8.91m-32.85 13.8v.65H6.33c-2.21 0-4.01-1.8-4.01-4.02V40.6c0-3.81 3.1-6.91 6.91-6.91h8.47a6.89 6.89 0 0 1 5.7 3c-4.24.69-7.48 4.38-7.48 8.8m20.29 5.54H21.94c-2.14 0-3.9-1.68-4.01-3.79-.01-.07-.01-.15-.01-.22v-1.53c0-3.81 3.1-6.91 6.92-6.91h8.47c3.81 0 6.91 3.1 6.91 6.91v1.53c0 2.21-1.8 4.01-4.01 4.01m19.47-8.91c0 2.22-1.81 4.02-4.02 4.02h-9.44v-.65c0-4.48-3.33-8.2-7.63-8.82a6.92 6.92 0 0 1 5.7-2.98h8.48c3.81 0 6.91 3.1 6.91 6.91z"></path><path d="M17.94 47.14s0 .07-.01.1c-.01-.07-.01-.15-.01-.22v-.08c.01.06.02.13.02.2M44.52 15.41c-2.59 0-4.87 1.37-6.14 3.43a8.86 8.86 0 0 0-5.07-1.6h-8.47c-1.89 0-3.69.58-5.19 1.67a7.2 7.2 0 0 0-6.19-3.5c-3.99 0-7.24 3.25-7.24 7.25s3.25 7.24 7.24 7.24 7.25-3.25 7.25-7.24c0-.64-.08-1.26-.25-1.85a6.8 6.8 0 0 1 4.38-1.57h8.47c1.54 0 3.03.52 4.25 1.47-.19.62-.28 1.27-.28 1.95 0 3.99 3.25 7.24 7.24 7.24s7.25-3.25 7.25-7.24-3.25-7.25-7.25-7.25M13.46 27.9c-2.89 0-5.24-2.35-5.24-5.24s2.35-5.25 5.24-5.25a5.25 5.25 0 0 1 4.93 3.45c.21.56.32 1.17.32 1.8 0 2.89-2.36 5.24-5.25 5.24m31.06 0c-2.89 0-5.24-2.35-5.24-5.24 0-.67.13-1.31.36-1.9 0-.02.01-.03.01-.04a5.24 5.24 0 0 1 4.87-3.31c2.9 0 5.25 2.35 5.25 5.25s-2.35 5.24-5.25 5.24"></path></g></svg>