<svg xmlns="http://www.w3.org/2000/svg" width="1em" height="1em" fill="none" viewBox="0 0 60 60"><path fill="#6857A4" d="M59.29 27.45c-.44-.44-1.05-.71-1.72-.71h-2.93c-.19 0-.34.15-.34.34v.96c0 .19.15.34.34.34h2.93c.22 0 .41.09.56.23.14.15.23.34.23.56v1.59c0 .22-.09.41-.23.56-.15.14-.34.23-.56.23h-2.93c-.19 0-.34.15-.34.34v.96c0 .19.15.34.34.34h2.9299999999999997A2.426 2.426 0 0 0 60 30.76v-1.59c0-.67-.27-1.29-.71-1.72M53.06 28.38h-.96c-.19 0-.34.15-.34.34v2.04c0 .22-.09.41-.23.56-.15.14-.34.23-.56.23h-2.65v-2.42a2.426 2.426 0 0 0-2.43-2.39h-2.36c-.11 0-.21.05-.27.14L42.42 28c-.12.16 0 .4.2.4h3.28c.22 0 .41.09.56.23.14.14.23.33.23.55v2.39h-6.41c-.19 0-.34.15-.34.34v.96c0 .19.15.34.34.34h1.07c-.02.19-.1.36-.23.49-.15.14-.34.23-.56.23h-2.67c-.22 0-.41-.09-.56-.23a.8.8 0 0 1-.23-.56v-2.78c0-.19-.15-.34-.34-.34h-.96c-.19 0-.34.15-.34.34v2.79a2.426 2.426 0 0 0 2.43 2.43h2.67c.67 0 1.29-.27 1.72-.71.42-.42.69-1.01.71-1.65H48c.19 0 .34-.15.34-.34v-.32l.4.52c.06.09.17.14.27.14h1.97a2.426 2.426 0 0 0 2.43-2.43v-2.04c0-.19-.15-.34-.34-.34zM23.46 26.07c0-.19-.15-.34-.34-.34h-.96c-.19 0-.34.15-.34.34v4.69c0 .22-.09.41-.23.56-.15.14-.34.23-.56.23h-3.21c-.19 0-.34.15-.34.34v.96c0 .19.15.34.34.34h3.21a2.426 2.426 0 0 0 2.43-2.43v-4.69"></path><path fill="#6857A4" d="M45.28 34.08h-.97a.34.34 0 0 0-.34.34v.81c0 .188.152.34.34.34h.97a.34.34 0 0 0 .34-.34v-.81a.34.34 0 0 0-.34-.34M52.2 34.08h-2.42a.34.34 0 0 0-.34.34v.81c0 .188.152.34.34.34h2.42a.34.34 0 0 0 .34-.34v-.81a.34.34 0 0 0-.34-.34M18.71 30.27c.04.15.18.25.33.25h.94c.23 0 .39-.22.33-.43l-1.12-4.1a.34.34 0 0 0-.33-.25h-.94a.34.34 0 0 0-.33.43zM31.08 26.72h-.6l1.45-1.9c.11-.15 0-.37-.18-.37h-1.44c-.11 0-.21.05-.27.14l-2.47 3.24c-.17.23-.01.55.27.55h3.24c.91 0 1.64.73 1.65 1.64v1.53h-5.8c-.22 0-.41-.09-.56-.23a.8.8 0 0 1-.23-.56v-4.69c0-.19-.15-.34-.34-.34h-.96c-.19 0-.34.15-.34.34v4.69a2.426 2.426 0 0 0 2.43 2.43h7.110000000000001c.18 0 .33-.14.34-.31v-2.8499999999999996c0-1.83-1.49-3.32-3.32-3.32zM8.95 22.91H.73c-.4 0-.73.32-.73.73v12.72c.01.41.33.73.74.73h8.21a5.23 5.23 0 0 0 5.23-5.24v-3.7c0-2.9-2.34-5.24-5.23-5.24m2.15 7.01a5.19 5.19 0 0 1-4.01 1.88c-1.56 0-3.02-.69-4-1.88a.4.4 0 0 1 .08-.58l.65-.46c.17-.11.4-.08.54.07.68.8 1.68 1.26 2.73 1.26s2.06-.46 2.74-1.26c.14-.15.36-.18.53-.07l.66.46c.19.14.23.4.08.58"></path></svg>