<svg xmlns="http://www.w3.org/2000/svg" width="1em" height="1em" fill="none" viewBox="0 0 36 35" class="basket-icon"><path fill="#B1A4CF" d="M31.35 20.075a4.44 4.44 0 0 0 4-4.425v-4.787c0-2.463-2-4.45-4.45-4.45-.575 0-1.025.45-1.025 1.024s.45 1.026 1.025 1.026a2.42 2.42 0 0 1 2.413 2.412v4.788c0 1.25-.938 2.274-2.176 2.4L7.712 20.438V8.45H31.35a1.03 1.03 0 0 0 1.025-1.025A1.03 1.03 0 0 0 31.35 6.4H7.712v-.062C7.712 3.013 5.012.3 1.687.3A1.03 1.03 0 0 0 .662 1.325 1.03 1.03 0 0 0 1.687 2.35c2.2 0 3.988 1.8 3.988 4v16.4a5.644 5.644 0 0 0 5.5 5.637c-.3.55-.475 1.188-.475 1.863 0 2.138 1.75 3.9 3.9 3.9s3.888-1.75 3.888-3.9c0-.675-.175-1.3-.476-1.85h7.7a3.84 3.84 0 0 0-.474 1.85c0 2.138 1.75 3.9 3.887 3.9s3.9-1.75 3.9-3.9c0-.675-.175-1.3-.475-1.85h1.775a1.03 1.03 0 0 0 1.025-1.025 1.03 1.03 0 0 0-1.025-1.025H11.3a3.617 3.617 0 0 1-3.6-3.6v-.275zm-.363 10.163a1.867 1.867 0 0 1-1.862 1.862 1.857 1.857 0 0 1-1.85-1.863c0-1.024.825-1.85 1.85-1.85s1.863.825 1.863 1.85m-14.537 0A1.857 1.857 0 0 1 14.6 32.1a1.867 1.867 0 0 1-1.862-1.863c0-1.024.837-1.85 1.862-1.85s1.85.825 1.85 1.85"></path></svg>