<svg xmlns="http://www.w3.org/2000/svg" width="1em" height="1em" fill="none" viewBox="0 0 48 56"><g fill="#4C2E83"><path d="M24 55.57c-7.9 0-14.32-6.42-14.32-14.31V30.63c0-1.64 1.34-2.98 2.98-2.98h2.6c1.64 0 2.98 1.34 2.98 2.98v10.41c0 .55-.45 1-1 1s-1-.45-1-1V30.63c0-.54-.44-.98-.98-.98h-2.6c-.54 0-.98.44-.98.98v10.63c0 6.79 5.53 12.31 12.32 12.31s12.32-5.52 12.32-12.31V30.63c0-.54-.44-.98-.98-.98h-2.6c-.54 0-.98.44-.98.98v10.64c0 2.22-.96 4.34-2.63 5.82A7.76 7.76 0 0 1 23 48.96a7.3 7.3 0 0 1-2.92-1.02c-.47-.29-.62-.9-.34-1.37.29-.47.9-.62 1.37-.34.66.4 1.38.65 2.13.75 1.68.21 3.3-.28 4.56-1.39a5.76 5.76 0 0 0 1.95-4.32V30.63c0-1.64 1.34-2.98 2.98-2.98h2.6c1.64 0 2.98 1.34 2.98 2.98v10.63c0 7.89-6.42 14.31-14.32 14.31z"></path><path d="M18.49 46.08c-.32 0-.64-.15-.83-.44l-.15-.23c-.3-.46-.16-1.08.3-1.38s1.08-.16 1.38.3l.12.19a.999.999 0 0 1-.83 1.56zM17.25 36.55h-6.56c-.55 0-1-.45-1-1s.45-1 1-1h6.56c.55 0 1 .45 1 1s-.45 1-1 1M37.32 36.55h-6.56c-.55 0-1-.45-1-1s.45-1 1-1h6.56c.55 0 1 .45 1 1s-.45 1-1 1"></path></g><path fill="#2EEFB5" d="M37.78 11.84h4.88a4.6 4.6 0 0 1 4.6 4.6v.85c0 1.61-1.31 2.92-2.92 2.92H36.1c-1.61 0-2.92-1.31-2.92-2.92v-.85a4.6 4.6 0 0 1 4.6-4.6"></path><path fill="#4C2E83" d="M40.22 9.67c-2.55 0-4.62-2.07-4.62-4.62S37.67.43 40.22.43s4.62 2.07 4.62 4.62-2.07 4.62-4.62 4.62m0-7.24c-1.44 0-2.62 1.17-2.62 2.62s1.17 2.62 2.62 2.62 2.62-1.17 2.62-2.62-1.17-2.62-2.62-2.62"></path><path fill="#2EEFB5" d="M5.35 11.84h4.88a4.6 4.6 0 0 1 4.6 4.6v.85c0 1.61-1.31 2.92-2.92 2.92H3.66c-1.61 0-2.92-1.31-2.92-2.92v-.85a4.6 4.6 0 0 1 4.6-4.6z"></path><path fill="#4C2E83" d="M7.78 9.67c-2.55 0-4.62-2.07-4.62-4.62S5.23.43 7.78.43 12.4 2.5 12.4 5.05s-2.07 4.62-4.62 4.62m0-7.24c-1.44 0-2.62 1.17-2.62 2.62s1.17 2.62 2.62 2.62S10.4 6.5 10.4 5.05 9.23 2.43 7.78 2.43"></path><g fill="#4C2E83"><path d="M28.12 27.78h-8.24c-2.16 0-3.92-1.76-3.92-3.92v-.85c0-3.09 2.51-5.6 5.6-5.6h4.88c3.09 0 5.6 2.51 5.6 5.6v.85c0 2.16-1.76 3.92-3.92 3.92m-6.56-8.37c-1.99 0-3.6 1.62-3.6 3.6v.85c0 1.06.86 1.92 1.92 1.92h8.24c1.06 0 1.92-.86 1.92-1.92v-.85c0-1.99-1.62-3.6-3.6-3.6zM24 16.23c-2.55 0-4.62-2.07-4.62-4.62S21.45 6.99 24 6.99s4.62 2.07 4.62 4.62-2.07 4.62-4.62 4.62m0-7.24c-1.44 0-2.62 1.17-2.62 2.62s1.17 2.62 2.62 2.62 2.62-1.17 2.62-2.62S25.45 8.99 24 8.99"></path></g></svg>