<svg xmlns="http://www.w3.org/2000/svg" width="1em" height="1em" fill="none" viewBox="0 0 28 28"><g fill="#4C2E83"><path d="M15.43 11.87c.38-.43.69-.86 1.09-1.23 1.2-1.13 2.62-1.7 4.28-1.69.91 0 1.81.07 2.69.33 2.01.58 3.18 1.97 3.74 3.93.42 1.47.5 2.99.5 4.5v9.6c0 .3-.08.38-.38.38q-2.475-.015-4.95 0c-.29 0-.35-.09-.35-.36 0-3.05.01-6.09 0-9.14 0-.76-.05-1.53-.27-2.27-.39-1.37-1.37-2.06-2.81-1.99-1.96.1-2.97 1.07-3.22 3.06-.06.47-.09.95-.09 1.43v8.89c0 .3-.07.38-.37.38q-2.49-.015-4.98 0c-.27 0-.34-.07-.34-.34V9.76c0-.29.09-.36.37-.36 1.58.01 3.16.01 4.73 0 .29 0 .37.09.36.37-.02.7 0 1.4 0 2.1M6.4 18.57v8.7c0 .32-.08.42-.41.42-1.65-.02-3.3-.01-4.95 0-.26 0-.34-.06-.34-.34V9.73c0-.24.06-.33.32-.33 1.67.01 3.34.01 5.02 0 .32 0 .37.12.36.4v8.78zM6.85 3.58c0 1.82-1.48 3.31-3.29 3.31C1.77 6.89.27 5.41.27 3.61.27 1.8 1.75.3 3.57.31c1.8 0 3.29 1.48 3.29 3.28z"></path></g></svg>