<svg xmlns="http://www.w3.org/2000/svg" width="1em" height="1em" fill="none" viewBox="0 0 21 24"><path fill="#6857A4" d="M6.09 22.45c-1.98-1.24-3.41-3.1-3.97-5.38-.21-.87-.34-1.75-.4-2.64-.24-.27-.47-.55-.68-.87C-.19 11.67-.22 9.36.4 7.23c.66-2.26 2-4.43 3.89-5.87C5.23.64 6.32.16 7.51.03c.93-.1 1.87.04 2.75.33C13.1.14 15.37 2 16.88 4.39c.81.36 1.58.85 2.17 1.51.83.91 1.24 2.09 1.22 3.31-.02 1.29-.46 2.55-1.01 3.7-.12.25-.25.49-.38.73-.28 1.33-.9 2.55-2.04 3.41-.02.02-.04.03-.06.04-.15.49-.32.98-.52 1.46-.73 1.81-1.81 3.77-3.65 4.65-2.12 1.02-4.6.44-6.52-.76zm-2.43-7.63.03-.13c.21-.92.56-1.81.97-2.67-.24-1.06-.16-2.13.16-3.15.01-.17.03-.33.05-.5-.09-.13-.19-.26-.27-.4a3.8 3.8 0 0 1-.56-1.43c-1.06 2.29-1.52 4.94-1.38 7.48.3.3.64.57 1 .8M7.02 2.67c.64-.12 1.31-.14 1.93-.1.15 0 .3.03.45.04.62-.39 1.34-.58 2.07-.63-.2-.11-.4-.22-.6-.32-.22-.11-.45-.2-.68-.29-.38.04-.77.12-1.15.24-.73.24-1.4.61-2.01 1.07zm10.93 7.42s-.01.08-.02.12c-.02.66-.07 1.32-.16 1.97q-.09.585-.21 1.17c-.02.21-.05.43-.08.64.17-.22.33-.46.47-.7.19-1.04.17-2.14 0-3.2m-12.7-3c.23-.45.56-.84 1.05-1.03.12-.05.25-.08.38-.1l.04-.04-.24-.27c-.4-.48.29-1.18.69-.69.1.12.21.24.32.35.01 0 .03-.02.04-.03.18-.63.46-1.23.87-1.75-1.01 0-2.07.17-2.76.86-.39.4-.6.95-.63 1.54-.03.43.06.79.24 1.16m3.14-1.22-.06.26v.04l.06.06c.08.05.15.11.19.18.1.09.21.18.32.27.07-.02.13-.05.2-.07.58-.17 1.14-.11 1.63.11.5-.16 1.03-.22 1.56-.23 1.36-.02 3.17.43 4.05 1.52-.14-.49-.32-.97-.56-1.43-.12-.24-.26-.47-.4-.7-.53-.42-1.14-.76-1.75-1.05-.17-.08-.35-.16-.53-.24-1.65 0-3.35.42-4.73 1.28zm-2.3 2.46c.12.15.24.29.37.44.23-.33.48-.65.76-.93V7.5c0-.19.01-.38.03-.58-.03 0-.05 0-.08-.01h-.06c-.4.42-.74.89-1.01 1.42zm10.6 1.91a.5.5 0 0 1-.34.15c-.99.04-1.96-.11-2.88-.42.04.06.08.12.12.19.03.06.06.11.09.17.7.63 1.34 1.32 1.82 2.15.04.07.08.15.12.22.46-.52.85-1.1 1.09-1.74 0-.24 0-.48-.02-.72m-6.86 3.7c.32-.16.6-.36.85-.59-.55-.34-1.08-.7-1.6-1.08.21.58.46 1.14.76 1.67zm1.45-1.37c.42-.75.58-1.64.48-2.51-.2-.15-.39-.29-.59-.43-.49-.35-.98-.69-1.46-1.05l-.28.31c-.34.41-.67.85-.96 1.31.03.16.08.33.12.49.32.25.65.49.97.73.56.4 1.13.79 1.72 1.15m.86.5c.35.19.7.37 1.07.51.21-.9.11-1.78-.3-2.61-.05-.04-.09-.08-.14-.12a5.1 5.1 0 0 1-.35 1.65c-.08.2-.17.39-.28.57m1.96.96.09-.06c.24-.17.47-.35.7-.54a7 7 0 0 0-.6-.98c.03.53-.03 1.06-.18 1.58zm1.76-4.61c-.1-.8-.74-1.32-1.54-1.61-.8-.28-1.71-.4-2.56-.29q.285.33.48.72c.03.05.05.11.07.16 1.08.61 2.3.98 3.55 1.02m-7.1-1.56c-.13.08-.26.18-.4.29-.05.05-.1.1-.15.14 0 .17.02.34.04.51.21-.28.43-.56.67-.82-.05-.04-.11-.08-.16-.12M7.17 9.5c.07.07.14.13.21.2l-.06-.41zm.32 4.9c.48 0 .95-.02 1.41-.12-.28-.54-.52-1.09-.72-1.58-.15-.39-.28-.78-.4-1.19-.06.14-.12.28-.17.42-.27.71-.62 1.78-.12 2.47m1.42 1.54c.31-.03.62-.08.93-.14-.15-.21-.3-.43-.44-.65-.32.09-.66.16-1 .2-.11.01-.21.02-.32.02.26.2.54.39.83.57m1.99-.39c.79-.23 1.56-.55 2.27-.94-.56-.18-1.11-.45-1.62-.73-.35.37-.76.67-1.22.91.18.26.37.52.57.76m.74.79c.32.29.65.52 1.02.7 1.02-.27 2-.72 2.89-1.31a8.4 8.4 0 0 0-.27-1.32c-1.07.86-2.34 1.5-3.64 1.92zm4.95-3.12s0-.08.01-.13c-.17.21-.35.42-.54.61.08.22.15.45.22.67.12-.38.22-.77.31-1.16zM5.8 9.5c0 .11 0 .22.01.33.04-.06.07-.13.11-.19-.04-.04-.08-.09-.13-.14zm.23 1.99c.04.19.07.38.11.56.06.28.12.57.19.85.11-.75.4-1.49.75-2.18-.15-.13-.3-.26-.44-.39-.22.38-.42.77-.62 1.15zm4.41 5.18c.06.02.13.04.19.07-.03-.03-.05-.06-.08-.09-.04 0-.07.02-.11.02m.93-13.68c.66.17 1.31.39 1.95.65h.31c-.19-.19-.38-.37-.59-.54-.25-.06-.51-.11-.77-.13-.31-.02-.6-.02-.89 0zm-1.69.66s-.07.06-.11.08c-.26.23-.47.5-.64.79a8.85 8.85 0 0 1 1.98-.64c-.41-.1-.82-.17-1.23-.23m3.87-1.42-.11-.07c.02.02.05.04.07.06.01 0 .03 0 .04.01M4.56 15.3c.3.14.62.25.94.34.28.08.56.14.85.19-.25-.47-.46-.98-.63-1.5-.22-.3-.41-.62-.57-.95-.14.36-.28.73-.39 1.11-.08.26-.15.54-.2.82zm.03 1.05c.02.06.03.11.06.17.59 1.39 2.39 2.08 3.73 2.44 1.42.39 3.26.68 4.67.08.39-.17.74-.42 1.05-.73-.48.03-.94-.04-1.38-.18-.13 0-.25-.02-.38-.03-.3.06-.6.11-.9.14-1.57.16-3.25-.23-4.35-1.35-.86-.07-1.71-.24-2.5-.54M17.78 6.07c.32.71.58 1.44.77 2.15.22.82.39 1.73.46 2.65.21-.7.32-1.42.26-2.14-.09-1.13-.68-2.01-1.5-2.66zM1.7 12.74c.02-.71.08-1.42.18-2.12C2.42 6.84 4.29 2.63 7.9.99c-.09 0-.19 0-.28.01-1.03.1-2 .56-2.81 1.19-1.7 1.33-2.91 3.34-3.49 5.4-.49 1.75-.49 3.56.39 5.14zm4.84 8.83c1.68 1.07 3.95 1.69 5.8.67 1.39-.76 2.27-2.27 2.88-3.72-.39.47-.84.89-1.36 1.2-.87.53-1.96.63-2.96.6-1.28-.03-2.58-.28-3.77-.74-1.06-.4-2.15-.97-2.87-1.87-.47-.58-.67-1.19-.69-1.85-.26-.14-.52-.3-.76-.48.07.46.15.92.26 1.37.49 2.03 1.72 3.69 3.49 4.81z"></path></svg>