<svg xmlns="http://www.w3.org/2000/svg" width="1em" height="1em" fill="none" viewBox="0 0 42 42"><g fill="#4C2E83"><path d="m40.23 21.42-2.265-2.265a3.93 3.93 0 0 0-5.55 0l-4.245 4.26-4.965 4.95a6.85 6.85 0 0 1-5.22 1.98c-1.965-.135-3.72-1.065-4.95-2.64-2.07-2.67-1.725-6.585.795-9.105l4.755-4.755 4.26-4.26a3.93 3.93 0 0 0 0-5.55l-2.25-2.25C19.11.3 16.515.3 15.045 1.785l-4.2 4.185-.06.06s-.03.03-.03.045l-4.92 4.905c-6.93 6.945-6.93 18.24.015 25.185 3.36 3.36 7.83 5.205 12.585 5.205s9.225-1.845 12.585-5.205l4.95-4.95 4.26-4.245a3.95 3.95 0 0 0 1.14-2.775c0-1.035-.405-2.04-1.14-2.775M17.16 3.9c.18-.18.405-.27.66-.27.24 0 .48.09.645.27l2.25 2.25c.36.36.36.96 0 1.32l-3.18 3.195-3.57-3.57zm11.745 30.15a14.8 14.8 0 0 1-4.8 3.21c-1.77.72-3.69 1.11-5.67 1.11a14.68 14.68 0 0 1-10.47-4.335C2.19 28.26 2.19 18.87 7.95 13.11l3.9-3.885 3.555 3.555-3.705 3.705c-3.585 3.585-4.02 9.195-1.035 13.05 1.74 2.235 4.335 3.63 7.14 3.795 2.79.195 5.535-.855 7.515-2.835l3.915-3.9 3.555 3.57zm9.195-9.21-3.195 3.195-3.555-3.555 3.195-3.195c.345-.36.96-.345 1.305 0l2.25 2.25c.36.36.36.945 0 1.305"></path><path d="M32.34 15.855a1.49 1.49 0 0 1-1.44-1.095 5.04 5.04 0 0 0-3.585-3.525 1.503 1.503 0 0 1-1.065-1.83 1.503 1.503 0 0 1 1.83-1.065 8.08 8.08 0 0 1 5.715 5.61c.225.795-.24 1.62-1.035 1.845-.135.045-.27.06-.405.06zM38.1 14.535a1.52 1.52 0 0 1-1.44-1.08c-1.11-3.87-4.215-6.915-8.1-7.92a1.503 1.503 0 0 1-1.065-1.83 1.503 1.503 0 0 1 1.83-1.065c4.905 1.29 8.835 5.115 10.23 10.005a1.518 1.518 0 0 1-1.455 1.92z"></path></g></svg>