<svg xmlns="http://www.w3.org/2000/svg" width="1em" height="1em" fill="none" viewBox="0 0 60 14"><path fill="#6857A4" d="M28.454 13.07a1.143 1.143 0 0 1-1.149-1.137 1.144 1.144 0 0 1 1.119-1.168 1.143 1.143 0 0 1 1.148 1.137v.018c0 .631-.497 1.15-1.118 1.154zm-2.238 0a1.143 1.143 0 0 1-1.148-1.137 1.144 1.144 0 0 1 1.118-1.168 1.143 1.143 0 0 1 1.149 1.137v.018c0 .631-.497 1.145-1.119 1.154zm-2.237 0a1.143 1.143 0 0 1-1.148-1.137 1.144 1.144 0 0 1 1.118-1.168 1.143 1.143 0 0 1 1.149 1.137v.018c0 .631-.497 1.15-1.119 1.154zm-2.237 0a1.143 1.143 0 0 1-1.149-1.137 1.144 1.144 0 0 1 1.119-1.168 1.143 1.143 0 0 1 1.149 1.137v.018c0 .631-.498 1.145-1.119 1.154zm-2.237 0a1.143 1.143 0 0 1-1.149-1.137 1.144 1.144 0 0 1 1.119-1.168 1.143 1.143 0 0 1 1.148 1.137v.018c0 .631-.497 1.15-1.118 1.154zm7.358-3.398H1.36c-.36 0-.708-.149-.96-.41A1.42 1.42 0 0 1 0 8.273c0-.37.141-.723.399-.989.252-.261.6-.41.96-.41H14.55L13.09 4.266a1.674 1.674 0 0 1 .583-2.244L16.32.444l.429-.257c.206-.122.437-.187.677-.187.484 0 .93.27 1.17.697v.009l.009.008c.18.323.227.698.133 1.055a1.4 1.4 0 0 1-.63.845l-1.766 1.05-.172.104a.206.206 0 0 0-.073.275l1.59 2.836h5.122a.6.6 0 0 0 .437-.187.65.65 0 0 0 .18-.45v-.936a1.086 1.086 0 0 1 1.059-1.11c.296-.005.574.113.784.326.202.21.317.492.317.784v.937c0 .348.275.636.617.636h.596a.6.6 0 0 0 .437-.187.65.65 0 0 0 .18-.45v-.936a1.086 1.086 0 0 1 1.059-1.11c.296-.005.574.113.784.326.202.21.317.492.317.784v1.76h-.004a2.82 2.82 0 0 1-.788 1.79 2.67 2.67 0 0 1-1.916.82zM32.598 13.07c-.24 0-.476-.066-.686-.188a1.414 1.414 0 0 1-.501-1.912l.865-1.53c-1.697-.653-2.545-2.583-1.902-4.308q.094-.255.227-.484a3.24 3.24 0 0 1 4.47-1.22 3.36 3.36 0 0 1 1.637 2.885V1.398c0-.77.613-1.394 1.372-1.394.758 0 1.371.623 1.371 1.394V6.87c0 1.538-1.221 2.788-2.734 2.788h-1.393l-1.53 2.71a1.38 1.38 0 0 1-1.187.702zm.836-7.903a1.15 1.15 0 0 0-1.14 1.15 1.15 1.15 0 0 0 1.131 1.159 1.15 1.15 0 0 0 1.14-1.15c0-.414-.214-.798-.566-1.002a1.1 1.1 0 0 0-.565-.153zm8.644 4.496h-.008c-.365 0-.712-.148-.969-.41a1.4 1.4 0 0 1-.398-.984V1.394C40.703.627 41.315 0 42.07 0h.008c.755 0 1.367.627 1.367 1.394v6.87c0 .767-.612 1.394-1.367 1.394zM57.006 9c-1.466 3.146-5.165 4.483-8.255 2.994-3.094-1.49-4.41-5.25-2.944-8.391C46.827 1.403 49.004 0 51.4 0c1.68 0 3.287.693 4.449 1.926h3.591a.34.34 0 0 1 .339.344.34.34 0 0 1-.039.161l-1.226 2.37c-.218.422-.544.78-.938 1.037q.018.237.017.479a6.5 6.5 0 0 1-.24 1.751h.488c.253 0 .459.21.459.466a.463.463 0 0 1-.459.467h-.835"></path><mask id="purple-alopeyk_svg__a" width="15" height="13" x="45" y="0" maskUnits="userSpaceOnUse" style="mask-type:luminance"><path fill="#fff" d="M58.982 6.313c0-2.065 1.945-3.9.458-5.045C58.433.497 52.78.039 51.43.039c-3.377.035-6.09 2.84-6.06 6.274-.03 3.433 2.683 6.238 6.06 6.273 2.297 0 6.056-1.329 7.084-3.285.467-.884.467-1.904.467-2.988"></path></mask><g mask="url(#purple-alopeyk_svg__a)"><path fill="#fff" d="M49.291 11.72h-.497a.17.17 0 0 1-.163-.17c0-.097.073-.17.163-.175h.497c.09 0 .163.078.163.17 0 .096-.073.17-.163.174m4.736-.445h-3.913a.17.17 0 0 1-.163-.17c0-.096.073-.17.163-.174h3.913c.09 0 .163.078.163.17 0 .095-.073.174-.163.174m-4.337-.889h-4.32v-.684h4.32c.78 0 1.487-.453 1.826-1.168l.252-.522h-3.102a.33.33 0 0 1-.326-.34v-.009c0-.187.145-.335.325-.34h3.995c.78 0 1.487-.453 1.826-1.167l.253-.523h-4.916a.33.33 0 0 1-.326-.34.34.34 0 0 1 .326-.344h5.811c.78 0 1.487-.453 1.826-1.168l.253-.522H45.36v-.684h12.93c.108 0 .206.056.262.148.056.091.06.209.013.31l-.515 1.053a2.69 2.69 0 0 1-2.417 1.543h-.154l-.403.827A2.69 2.69 0 0 1 52.66 8h-.154l-.403.827h2.524c.09 0 .163.079.163.17 0 .096-.073.17-.163.175H51.91a2.67 2.67 0 0 1-2.22 1.202zm3.728-.51h-1.157a.17.17 0 0 1-.163-.17c0-.095.073-.17.163-.174h1.162c.09 0 .163.079.163.17 0 .096-.073.17-.163.174zm4.243-1.19h-3.913a.17.17 0 0 1-.162-.169c0-.096.072-.17.162-.174h3.913c.09 0 .163.078.163.17 0 .096-.073.17-.163.174"></path></g></svg>