<svg xmlns="http://www.w3.org/2000/svg" width="20" height="16" fill="none"><path fill="#616161" d="M20 1.896a8.4 8.4 0 0 1-2.356.637A4.06 4.06 0 0 0 19.449.3c-.793.462-1.67.8-2.606.98A4.13 4.13 0 0 0 13.846 0C11.58 0 9.744 1.808 9.744 4.037q-.001.476.106.921A11.7 11.7 0 0 1 1.39.738a4 4 0 0 0-.555 2.029c0 1.4.725 2.637 1.827 3.362A4.06 4.06 0 0 1 .8 5.625v.05c0 1.958 1.416 3.587 3.293 3.958a4.2 4.2 0 0 1-1.08.142q-.396 0-.772-.075c.521 1.604 2.039 2.77 3.836 2.804A8.32 8.32 0 0 1 0 14.175 11.64 11.64 0 0 0 6.285 16c7.553 0 11.68-6.154 11.68-11.492q0-.264-.012-.52A8.4 8.4 0 0 0 20 1.895"></path></svg>