<svg xmlns="http://www.w3.org/2000/svg" width="1em" height="1em" fill="none" viewBox="0 0 40 44"><g fill="#4C2E83"><path d="M18.23 33.895c-2.115 0-5.025-5.16-5.34-13.68h20.415c-.075.705-.18 1.41-.345 2.115-.195.81.3 1.62 1.11 1.815s1.62-.3 1.815-1.11c.345-1.41.51-2.865.51-4.32 0-4.995-2.025-9.51-5.295-12.795l-.12-.12C27.695 2.56 23.195.55 18.215.55S8.735 2.56 5.45 5.8c-.045.045-.09.075-.12.12A18.1 18.1 0 0 0 .035 18.715c0 4.98 1.995 9.435 5.22 12.72.03.045.06.075.09.105 3.3 3.3 7.845 5.355 12.87 5.355.825 0 1.5-.675 1.5-1.5s-.675-1.5-1.5-1.5zm-5.355-.99a15.3 15.3 0 0 1-3.39-1.8c.735-.195 1.515-.36 2.325-.51.315.84.675 1.605 1.065 2.31m-1.95-5.19c-1.455.27-2.805.63-4.035 1.065a15.1 15.1 0 0 1-3.765-8.55H9.89c.09 2.58.45 5.145 1.02 7.485zM6.89 8.68c1.245.435 2.595.795 4.035 1.08-.585 2.325-.93 4.905-1.02 7.485h-6.78c.315-3.27 1.695-6.225 3.765-8.55zm26.43 8.55h-6.765c-.09-2.58-.45-5.145-1.02-7.485 1.44-.27 2.79-.645 4.035-1.065a15.1 15.1 0 0 1 3.765 8.55zm-19.455-7.065c1.425.15 2.88.255 4.35.255s2.925-.105 4.35-.255c.525 1.98.885 4.35.99 7.065H12.89c.105-2.715.465-5.085.99-7.065zm10.77-3.3a17 17 0 0 0-1.065-2.31 15.3 15.3 0 0 1 3.39 1.8c-.735.195-1.515.375-2.325.51m-3.045.39c-2.22.195-4.5.195-6.72 0 1.035-2.385 2.295-3.705 3.36-3.705s2.325 1.32 3.36 3.705m-9.78-.39c-.81-.15-1.575-.315-2.325-.51a15.3 15.3 0 0 1 3.39-1.8c-.39.705-.75 1.485-1.065 2.31"></path><path d="m39.515 40.885-4.5-4.5 3.24-3.24a3.43 3.43 0 0 0 .93-3.225 3.46 3.46 0 0 0-2.22-2.52l-13.41-4.8a3.46 3.46 0 0 0-3.645.81 3.49 3.49 0 0 0-.825 3.645l4.8 13.41a3.51 3.51 0 0 0 3.285 2.325c.915 0 1.8-.36 2.46-1.02l3.24-3.24 4.5 4.5c.3.3.675.435 1.065.435s.765-.15 1.065-.435a1.494 1.494 0 0 0 0-2.115zm-11.985-1.26a.5.5 0 0 1-.45.135.46.46 0 0 1-.345-.315l-4.8-13.41a.45.45 0 0 1 .12-.51c.09-.075.255-.21.51-.12l13.41 4.8c.225.075.285.255.315.345a.49.49 0 0 1-.135.45l-8.61 8.61z"></path></g></svg>