<svg xmlns="http://www.w3.org/2000/svg" width="1em" height="1em" fill="none" viewBox="0 0 24 24"><g fill="#B1A4CF"><path d="M20.01 14.445a2.663 2.663 0 0 0 2.4-2.655V8.918c0-1.478-1.2-2.67-2.67-2.67a.61.61 0 0 0-.615.614c0 .345.27.615.615.615.795 0 1.448.653 1.448 1.448v2.872c0 .75-.563 1.365-1.305 1.44L5.828 14.663V7.47h2.13a.62.62 0 0 0 .614-.615.62.62 0 0 0-.614-.615h-2.13v-.038A3.623 3.623 0 0 0 2.211 2.58a.62.62 0 0 0-.615.615c0 .338.278.615.615.615a2.4 2.4 0 0 1 2.393 2.4v9.84a3.386 3.386 0 0 0 3.3 3.383c-.18.33-.285.712-.285 1.117 0 1.282 1.05 2.34 2.34 2.34a2.337 2.337 0 0 0 2.047-3.45h4.62c-.18.33-.284.705-.284 1.11 0 1.282 1.05 2.34 2.332 2.34s2.34-1.05 2.34-2.34c0-.405-.105-.78-.285-1.11h1.065a.62.62 0 0 0 .615-.615.62.62 0 0 0-.615-.615H7.98a2.17 2.17 0 0 1-2.16-2.16v-.165zm-.218 6.098a1.12 1.12 0 0 1-1.117 1.117 1.114 1.114 0 1 1 1.117-1.117m-8.722 0c0 .614-.495 1.117-1.11 1.117a1.12 1.12 0 0 1-1.118-1.117 1.114 1.114 0 0 1 2.228 0"></path><path d="M16.62 6.053a.62.62 0 0 1-.488-.24l-2.385-3.09-2.384 3.09a.61.61 0 0 1-.968-.743l2.873-3.72c.232-.3.734-.3.967 0l2.873 3.72c.21.27.157.652-.113.855a.63.63 0 0 1-.375.128"></path><path d="M13.748 9.78a.62.62 0 0 1-.615-.615V5.933c0-.338.277-.615.615-.615s.615.277.615.615v3.232a.62.62 0 0 1-.615.615"></path></g></svg>