<svg width="24" height="24" viewBox="0 0 24 24" fill="none" xmlns="http://www.w3.org/2000/svg">
<path d="M15.4999 12C15.4999 11.4477 15.0522 11 14.4999 11H13.4999C12.9476 11 12.4999 11.4477 12.4999 12V13C12.4999 13.5523 12.9476 14 13.4999 14H14.4999C15.0522 14 15.4999 13.5523 15.4999 13V12Z" fill="black" fill-opacity="0.6"/>
<path fill-rule="evenodd" clip-rule="evenodd" d="M10.6354 2.53903C11.4039 1.8213 12.597 1.8213 13.3656 2.53903L22.2702 10.8551C22.6739 11.2321 22.6955 11.8649 22.3186 12.2685V12.2685C21.9416 12.6721 21.3088 12.6938 20.9052 12.3168L19.5012 11.0056V18C19.5012 19.6568 18.158 21 16.5012 21H7.49898C5.84212 21 4.49898 19.6568 4.49898 18V11.0064L3.0958 12.3168C2.69217 12.6938 2.05937 12.6721 1.68242 12.2685V12.2685C1.30546 11.8649 1.32709 11.2321 1.73073 10.8551L10.6354 2.53903ZM12.0005 4.00073L17.5012 9.13782V18C17.5012 18.5523 17.0535 19 16.5012 19H7.49898C6.94669 19 6.49898 18.5523 6.49898 18V9.13859L12.0005 4.00073Z" fill="black" fill-opacity="0.6"/>
</svg>
