<svg xmlns="http://www.w3.org/2000/svg" width="24" height="24" fill="none" class="BottomNavbar__tab-icon"><path fill="#717485" d="M11.57 16.844A.59.59 0 0 0 12 17c.156 0 .313-.04.43-.156l5.625-5a.66.66 0 0 0 .039-.899.66.66 0 0 0-.899-.039l-4.57 4.063V2.625A.617.617 0 0 0 12 2a.617.617 0 0 0-.625.625v12.344l-4.57-4.063a.66.66 0 0 0-.899.04.66.66 0 0 0 .04.898zM19.5 14.5h-1.875a.617.617 0 0 0-.625.625c0 .352.273.625.625.625H19.5c.703 0 1.25.547 1.25 1.25v2.5c0 .703-.547 1.25-1.25 1.25h-15c-.703 0-1.25-.547-1.25-1.25V17c0-.703.547-1.25 1.25-1.25h1.875A.617.617 0 0 0 7 15.125a.617.617 0 0 0-.625-.625H4.5A2.52 2.52 0 0 0 2 17v2.5C2 20.867 3.133 22 4.5 22h15c1.367 0 2.5-1.133 2.5-2.5V17c0-1.367-1.133-2.5-2.5-2.5m-.312 3.75a.95.95 0 0 0-.938-.937.95.95 0 0 0-.937.937c0 .508.43.938.937.938a.95.95 0 0 0 .938-.938"></path></svg>