<svg xmlns="http://www.w3.org/2000/svg" width="1em" height="1em" fill="none" viewBox="0 0 45 53"><path fill="#4C2E83" d="M32.87 28.36H6.44c-3.02 0-5.47-2.45-5.47-5.47V9.68c0-3.02 2.45-5.47 5.47-5.47H18.6c.55 0 1 .45 1 1s-.45 1-1 1H6.44c-1.91 0-3.47 1.56-3.47 3.47V22.9c0 1.91 1.56 3.47 3.47 3.47h26.42c1.91 0 3.47-1.56 3.47-3.47v-1.69c0-.55.45-1 1-1s1 .45 1 1v1.69c0 3.02-2.45 5.47-5.47 5.47z"></path><path fill="#2EEFB5" d="M36.81 14.79a7.23 7.23 0 1 0 0-14.46 7.23 7.23 0 0 0 0 14.46"></path><path fill="#4C2E83" d="M36.09 10.4c-.26 0-.51-.1-.71-.29l-2.25-2.25a.996.996 0 1 1 1.41-1.41l1.54 1.54 2.97-2.97a.996.996 0 1 1 1.41 1.41l-3.68 3.68c-.2.2-.45.29-.71.29zM23.88 14.26H1.97c-.55 0-1-.45-1-1s.45-1 1-1h21.91c.55 0 1 .45 1 1s-.45 1-1 1M12.7 20.71H6.89c-.55 0-1-.45-1-1s.45-1 1-1h5.81c.55 0 1 .45 1 1s-.45 1-1 1M23.32 6.2H21.8c-.55 0-1-.45-1-1s.45-1 1-1h1.52c.55 0 1 .45 1 1s-.45 1-1 1M26.77 6.2h-.3c-.55 0-1-.45-1-1s.45-1 1-1h.3c.55 0 1 .45 1 1s-.45 1-1 1M37.34 19.07c-.55 0-1-.45-1-1v-.29c0-.55.45-1 1-1s1 .45 1 1v.29c0 .55-.45 1-1 1"></path><path fill="#2EEFB5" d="M12.49 30.63h8.95v9.73c0 2.13-1.73 3.85-3.85 3.85h-1.25c-2.13 0-3.85-1.73-3.85-3.85z"></path><path fill="#4C2E83" d="M39.67 37.03h-7.96c-.55 0-1-.45-1-1s.45-1 1-1h7.96c.55 0 1 .45 1 1s-.45 1-1 1M34.79 42.15h-3.08c-.55 0-1-.45-1-1s.45-1 1-1h3.08c.55 0 1 .45 1 1s-.45 1-1 1M39.67 47.26h-7.96c-.55 0-1-.45-1-1s.45-1 1-1h7.96c.55 0 1 .45 1 1s-.45 1-1 1M22.89 52.66H10.8c-3.02 0-5.47-2.45-5.47-5.47V35.1c0-3.02 2.45-5.47 5.47-5.47h12.09c3.02 0 5.47 2.45 5.47 5.47v12.09c0 3.02-2.45 5.47-5.47 5.47M10.8 31.63c-1.91 0-3.47 1.56-3.47 3.47v12.09c0 1.91 1.56 3.47 3.47 3.47h12.09c1.91 0 3.47-1.56 3.47-3.47V35.1c0-1.91-1.56-3.47-3.47-3.47z"></path></svg>