<svg xmlns="http://www.w3.org/2000/svg" width="1em" height="1em" fill="none" viewBox="0 0 80 80"><g fill="#FFE800"><path d="M62.25 6.23h-4.64c-9.08 0-16.46 7.38-16.46 16.46v9.73c0 9.08 7.38 16.46 16.46 16.46h17.1v6.1c0 8.15-6.63 14.78-14.78 14.78a2 2 0 1 0 0 4c10.36 0 18.78-8.42 18.78-18.78V22.69c0-9.08-7.38-16.46-16.46-16.46m-4.64 38.65c-6.87 0-12.46-5.59-12.46-12.46v-9.73c0-6.87 5.59-12.46 12.46-12.46h4.64c6.87 0 12.46 5.59 12.46 12.46v22.19zM22.39 6.23h-4.65c-9.07 0-16.45 7.38-16.45 16.46v9.73c0 9.08 7.38 16.46 16.45 16.46h17.11v6.1c0 8.15-6.63 14.78-14.78 14.78a2 2 0 1 0 0 4c10.35 0 18.78-8.42 18.78-18.78V22.69c0-9.08-7.38-16.46-16.46-16.46m-4.65 38.65c-6.87 0-12.45-5.59-12.45-12.46v-9.73c0-6.87 5.58-12.46 12.45-12.46h4.65c6.87 0 12.46 5.59 12.46 12.46v22.19z"></path></g></svg>