<svg xmlns="http://www.w3.org/2000/svg" width="1em" height="1em" fill="none" viewBox="0 0 22 28"><g fill="#B1A4CF"><path d="M16.704 27.088H5.288a4.82 4.82 0 0 1-4.816-4.816v-1.216c0-3.928 3.2-7.128 7.128-7.128h6.784c3.928 0 7.128 3.2 7.128 7.128v1.216a4.82 4.82 0 0 1-4.816 4.816zm-9.096-11.56a5.534 5.534 0 0 0-5.528 5.528v1.216a3.22 3.22 0 0 0 3.216 3.216h11.416a3.22 3.22 0 0 0 3.216-3.216v-1.216a5.534 5.534 0 0 0-5.528-5.528H7.608M11 12.504a5.8 5.8 0 0 1-5.792-5.792A5.8 5.8 0 0 1 11 .92c3.192 0 5.8 2.6 5.8 5.792s-2.6 5.792-5.8 5.792m0-9.992a4.196 4.196 0 0 0-4.192 4.192A4.196 4.196 0 0 0 11 10.896c2.312 0 4.2-1.88 4.2-4.192A4.2 4.2 0 0 0 11 2.512"></path></g></svg>