<svg xmlns="http://www.w3.org/2000/svg" width="1em" height="1em" fill="none" viewBox="0 0 19 26"><path fill="#6857A4" d="M.72 12.4C.07 10.46-.19 8.37.15 6.34.56 3.84 2.09 1.15 4.6.28c3.01-1.04 6.22.96 8.11 3.19.72.85 1.36 1.8 1.74 2.85 1.49 1.34 2.64 3.05 3.08 4.8.67 2.64.75 5.52.29 8.2-.22 1.3-.61 2.63-1.34 3.74-.69 1.07-1.65 1.78-2.86 2.19-2.74.92-5.96.26-8.41-1.14-1.23-.7-2.35-1.66-3.11-2.86-.64-1-.92-2.13-1-3.29-.06-.12-.12-.25-.17-.39-.47-1.22-.51-2.6-.39-3.88.04-.42.1-.85.18-1.28zm1.86-2.86c-.04.19-.06.38-.08.57.26-.52.65-.96 1.2-1.23.29-.39.61-.76.97-1.09.38-.35 1.14-1.08 1.69-.77.07.04.13.09.2.13.35-.38.75-.7 1.22-.94.56-.28 1.2-.42 1.83-.38-1.19-.52-2.5-.72-3.74-.38-.22.06-.43.15-.63.24-.83.65-1.48 1.54-2.01 2.51-.24.43-.45.88-.65 1.35zM9.67 4.8q.51.195.99.45c1.28.67 2.41 1.67 3.26 2.85-.08-.43-.18-.84-.31-1.23-.02-.01-.03-.03-.05-.04-1.09-.92-2.45-1.7-3.89-2.02zM2.9 18.66c1.46 1.27 3.48 2 5.34 2.39 1.37.29 3.52.58 4.56-.5.65-.67.97-1.7 1.17-2.7-.88 1.31-2.1 2.42-3.66 2.73-1.94.39-3.82-.47-5.29-1.68-.37-.3-.71-.63-1.04-.98-.5-.33-.87-.83-1.16-1.4-.22-.31-.44-.63-.63-.96-.09.7-.13 1.4-.1 2.09.21.37.47.72.82 1.02zm9.84-10.5c-.29-.35-.63-.68-.99-.99.17.29.3.61.39.94.42 1.46.3 3.11-.14 4.62.05.97-.1 1.93-.51 2.75-.63 1.27-2.06 1.89-3.4 1.74-.62.58-1.41.99-2.23 1.09.36.27.73.52 1.12.73 1.08.58 2.29.83 3.45.48 1.43-.43 2.45-1.68 3.15-2.94q.48-.885.75-1.86c.06-1.27.04-2.55-.06-3.82a7.7 7.7 0 0 0-1.53-2.76zM3 12.33v.66c.05.12.11.23.18.34.16.29.35.57.56.84.32-.67.67-1.35 1.07-2 0-.34.03-.67.07-.98.07-.52.18-1.06.34-1.59-.1-.01-.2-.02-.3-.02-.22 0-.42.03-.61.1-.5.72-.88 1.54-1.19 2.31-.04.11-.08.23-.13.35zm1.55 2.42c.2-.08.38-.18.54-.32-.05-.17-.09-.34-.13-.52-.14.28-.28.56-.41.84m3.68-.68c-.42.5-.92.91-1.5 1.19.17.25.39.47.68.63.27-.12.53-.27.76-.44.2-.46.23-.94.06-1.38m-1.82-2.53c-.05.24-.09.48-.13.71-.06.42-.09.89-.06 1.35.02 0 .04.02.05.02q.24-.285.57-.51c.31-.2.68-.34 1.05-.42.04 0 .07 0 .1-.01.17-.33.3-.68.39-1.04-.31-.41-.7-.8-1.12-1.12q-.465.48-.87 1.02zm2.61 1.25c-.05.12-.11.25-.17.36.14.2.25.41.32.62.01-.25-.01-.51-.08-.75-.02-.09-.05-.16-.07-.24zm-1.73-3.6s-.01-.02-.02-.03c-.01.03-.03.05-.04.08.02-.02.04-.03.06-.05m-2.07 6.33c.16.1.33.2.51.28-.1-.14-.19-.28-.26-.43l-.24.15zm5.78-2.9c-.06-.68-.24-1.34-.46-1.93-.29-.76-.79-1.56-1.47-2.02.4.85.5 1.8.36 2.73.47.73.77 1.55.73 2.4-.02.45-.15.88-.36 1.27.46-.55.79-1.25 1.03-1.92.06-.18.12-.35.18-.54zM8.5 8.39c-.19-.06-.38-.1-.59-.11-.01.01-.02.03-.03.04.07.09.14.19.21.29.09-.06.18-.12.27-.17.04-.02.09-.04.13-.05zm-4.93 7.53c.29.4.6.79.93 1.15.58.38 1.32.36 1.94.08l.12-.06c-.39-.07-.78-.19-1.14-.35-.51-.22-.98-.53-1.42-.89-.09 0-.19.01-.28 0-.08 0-.14-.02-.2-.05.01.03.03.07.05.1zm7.02-8.67c-.37-.38-.87-.51-1.44-.45-.48.05-.91.23-1.28.49.18 0 .37.02.54.05 1.02.18 1.84.92 2.4 1.76.22.33.42.7.59 1.09.01-.49-.02-.98-.12-1.45-.11-.56-.32-1.11-.7-1.5zM5.21 8.6c.12.01.24.03.36.05.09-.2.19-.39.3-.58-.23.16-.46.33-.66.53m9.7-.43c.11.61.19 1.23.25 1.84.03.25.05.51.07.77.37 1.32.39 2.7.08 4.04-.06 1.05-.18 2.1-.39 3.12-.2 1-.5 2.06-1.11 2.9-.63.87-1.56 1.25-2.61 1.38-1.35.16-2.77-.07-4.07-.43-1.37-.38-2.74-.93-3.94-1.7-.28-.18-.55-.38-.8-.58.42 1.22 1.22 2.26 2.3 3.07 1.67 1.25 3.77 1.98 5.85 2.07 1.75.07 3.71-.3 4.84-1.75 1.15-1.47 1.52-3.5 1.66-5.31.15-1.92.05-3.88-.36-5.76-.19-.88-.47-1.71-.93-2.49q-.375-.615-.84-1.17m-13.7 2.22c.14-.44.3-.88.47-1.3.42-1.74 1.37-3.36 2.95-4.2 2.39-1.87 5.46-1.45 8.03.1-2.07-3.03-6.48-5.68-9.49-2.66-2.1 2.12-2.5 5.23-1.96 8.06"></path></svg>