<svg xmlns="http://www.w3.org/2000/svg" width="1em" height="1em" fill="none" viewBox="0 0 18 22"><path fill="#6857A4" d="M16.57 8.36c1.24 2.58 1.85 5.67.85 8.4-.54 1.47-1.51 2.84-2.91 3.59-1.37.74-2.96.87-4.48.67-1.6-.21-3.16-.76-4.57-1.54-1.09-.6-2.14-1.34-2.93-2.31-1.1-1.35-1.6-2.91-1.66-4.51C-.2 10.8-.01 8.27.07 6.12c.02-.63 1.01-.63.98 0-.05 1.34-.21 2.83.01 4.21.32-1.61 1.01-3.18 1.9-4.54.23-1.28.61-2.64 1.29-3.74C4.77 1.21 5.54.6 6.55.56c.44-.02.88.06 1.31.19C8.72.09 9.78-.23 11 .16c.44.14.88.35 1.3.61.03 0 .05.02.08.03 1.96.73 3.18 2.69 3.75 4.63.27.93.42 1.92.45 2.93zM3.9 6.14c-.1.59-.17 1.19-.2 1.79.15-.38.31-.75.49-1.12.36-.73.78-1.44 1.27-2.1.08-.27.18-.53.27-.79-.69.67-1.31 1.43-1.84 2.22zm2.44-.99c-.18.63-.31 1.26-.41 1.87.02-.07.04-.15.07-.22.49-1.39 1.31-3 2.73-3.63l-.17-.11c-.84.55-1.58 1.27-2.21 2.09zm4.86 11.44c.47-.22.89-.56 1.22-1.01v-.01c-.14.02-.29 0-.43 0-.24-.02-.47-.05-.71-.09-.57.44-1.23.81-1.94 1.07.53.17 1.11.21 1.74.08.04 0 .07-.02.11-.03zm-3.05-.7c.21-.04.41-.09.61-.16a.52.52 0 0 1-.45-.47c-.07-.6-.11-1.21-.09-1.82-.27.31-.56.6-.89.85q-.18.135-.36.24c.33.52.72.99 1.18 1.35zm.35-4.62.03-.06c.06-.22.12-.43.2-.64.15-.42.34-.81.57-1.19.37-1.08.61-2.21.62-3.33v-.08c-.56.73-.96 1.64-1.2 2.51-.24.89-.34 1.87-.22 2.79m3.31-6.7c-.34.09-.66.26-.97.48.11.74.07 1.51-.03 2.24-.02.15-.05.3-.07.44.35-.26.73-.45 1.07-.38 1.21.24 1.91.97 2.25 1.9.02-.74 0-1.49-.08-2.23a8.7 8.7 0 0 0-.82-1.17c-.19-.23-.4-.46-.61-.67-.11-.1-.22-.21-.33-.3l-.17-.14c-.07-.06-.05-.04-.09-.07-.05-.04-.1-.07-.15-.11zm-1.14-.58-.11-.03c0 .02.02.05.03.07 0 0 .01 0 .02-.01.02-.01.04-.02.07-.04zM9.2 15.57c.32-.13.62-.29.91-.46-.29-.13-.57-.3-.82-.49v.64a.5.5 0 0 1-.1.31zm1.87-1.18c.98-.88 1.75-2.02 2.32-3.24.07-1.28-.37-2.44-1.72-2.81-.64.4-1.14.93-1.51 1.53-.16.46-.35.92-.55 1.36l-.12.24a8.5 8.5 0 0 0-.26 1.67c.46.62 1.1 1.03 1.84 1.25M8.34 4.63c-.47.47-.8 1.05-1.09 1.68-.74 1.61-1 3.36-.9 5.12.04.67.12 1.43.31 2.16.43-.3.8-.69 1.12-1.13-.41-1.23-.38-2.61-.11-3.86.31-1.41.99-2.89 2.07-3.92q-.105-.39-.3-.72c-.43.12-.77.34-1.11.68zm1.71-1.73c-.09-.05-.19-.11-.28-.16.05.05.11.1.15.16zM4.81 7.8q-.255.6-.45 1.2c-.18.56-.33 1.22-.42 1.9.23 1.13.63 2.25 1.26 3.22.14 0 .27-.03.4-.06-.49-1.12-.76-2.34-.84-3.45-.07-.92-.05-1.87.05-2.81m1.05 7.18c.15.17.32.33.49.48l-.09-.18c-.07-.11-.14-.23-.21-.35-.06.02-.12.03-.19.05m9.55-4.15c-.08-.48-.19-.96-.34-1.42 0 .03-.02.06-.03.09-.04 1.1-.18 2.2-.41 3.26-.11.49-.26 1.02-.45 1.53.38-.61.67-1.28.88-1.97.15-.49.26-.99.35-1.5zm-3.56-9.16a4.26 4.26 0 0 0-2.1-.06c1.06.56 2.13 1.17 3.07 1.91.09 0 .17.02.26.04.3.06.64.14.9.32-.39-.73-.97-1.32-1.65-1.86-.15-.12-.32-.24-.48-.35m-4.36.88s-.05.08-.08.12c.13-.11.27-.22.42-.32-.12.06-.23.13-.34.2M4.52 3.79c.69-.74 1.46-1.41 2.3-1.96.06-.09.13-.17.2-.26-.44-.07-.85-.03-1.22.2-.65.41-1.02 1.28-1.28 2.01zm-2.69 8.57c.32.45.75.86 1.25 1.17-.14-.6-.19-1.22-.18-1.82 0-.26.03-.51.05-.77-.04-.21-.08-.41-.1-.62-.09-.67-.14-1.35-.13-2.02-.55 1.27-.89 2.68-.88 4.06zm14.61-1.74c-.02.11-.03.22-.05.32.3 2.4-.29 4.88-2.63 6.09-1.06.55-2.31.82-3.55.81-.29.01-.58 0-.87-.05-.91-.11-1.79-.38-2.56-.81-.04-.02-.08-.05-.13-.08-.86-.1-1.69-.43-2.37-1.1-.3-.29-.54-.63-.74-.99-.32-.11-.64-.26-.95-.43-.21-.12-.41-.26-.59-.4.21.91.61 1.78 1.25 2.55 1.38 1.67 3.54 2.73 5.6 3.27 2.33.6 5.04.47 6.63-1.56 1.72-2.19 1.78-5 .95-7.62z"></path></svg>