<svg xmlns="http://www.w3.org/2000/svg" width="1em" height="1em" fill="none" viewBox="0 0 42 44"><g fill="#4C2E83"><path d="M22.185 10.24s-.045-.03-.06-.045A1.49 1.49 0 0 0 21 9.67c-.45 0-.84.21-1.125.525-.015.015-.045.03-.06.045l-11.07 14.1c-.465.6-.42 1.455.12 1.98a18.6 18.6 0 0 1 4.755 8.16h-1.335c-.825 0-1.5.675-1.5 1.5v6.21c0 .825.675 1.5 1.5 1.5h17.43c.825 0 1.5-.675 1.5-1.5v-6.21c0-.825-.675-1.5-1.5-1.5H28.38a18.55 18.55 0 0 1 4.755-8.16c.54-.54.585-1.395.12-1.98zM21 26.725c.615 0 1.11.495 1.11 1.11A1.12 1.12 0 0 1 21 28.96a1.123 1.123 0 0 1-1.125-1.125c0-.63.495-1.11 1.125-1.11m7.215 13.98h-14.43v-3.21h14.43zm-2.94-6.21H16.71c-.435-1.95-1.635-5.7-4.815-9.315l7.59-9.675v8.505c-1.53.6-2.625 2.085-2.625 3.825a4.13 4.13 0 0 0 4.125 4.125 4.11 4.11 0 0 0 4.11-4.125 4.13 4.13 0 0 0-2.61-3.825v-8.505l7.59 9.675c-3.195 3.6-4.38 7.365-4.815 9.315z"></path><path d="M41.865 18.655c-.03-.135-2.94-13.17-16.755-15.39v-1.47c0-.825-.675-1.5-1.5-1.5h-5.235c-.825 0-1.5.675-1.5 1.5V3.19C1.8 5.26.12 18.655.105 18.79c-.09.825.495 1.56 1.32 1.65h.18c.75 0 1.395-.57 1.485-1.32.06-.465 1.485-10.95 13.8-12.885v.78c0 .825.675 1.5 1.5 1.5h5.235c.825 0 1.5-.675 1.5-1.5V6.28C36.45 8.365 38.835 18.79 38.94 19.24c.15.705.765 1.2 1.47 1.2.105 0 .21 0 .315-.03a1.503 1.503 0 0 0 1.17-1.77zM22.125 5.53H19.89V3.295h2.235z"></path></g></svg>