<svg xmlns="http://www.w3.org/2000/svg" width="1em" height="1em" fill="none" viewBox="0 0 35 28"><path fill="#B1A4CF" d="M29.038 13.113v-9.15c0-1.838-1.5-3.326-3.338-3.326H3.338A3.324 3.324 0 0 0 .013 3.963v12.362c0 1.838 1.5 3.338 3.325 3.338h16.025v.375c0 4.037 3.287 7.325 7.325 7.325a7.327 7.327 0 0 0 7.325-7.325 7.31 7.31 0 0 0-4.963-6.925zm-27.4-9.15c0-.938.762-1.7 1.7-1.7H25.7c.95 0 1.713.762 1.713 1.7V5.4H1.638zm0 3.062h25.775v1.65H1.638zm1.7 11.013c-.938 0-1.7-.763-1.7-1.713v-6.037h25.775v2.462a7.334 7.334 0 0 0-7.788 5.288zm23.337 7.7c-3.137 0-5.7-2.563-5.7-5.688s2.563-5.7 5.7-5.7 5.687 2.563 5.687 5.7a5.69 5.69 0 0 1-5.687 5.688"></path><path fill="#B1A4CF" d="M26.075 22.575a.8.8 0 0 1-.575-.238l-1.887-1.887a.823.823 0 0 1 0-1.15.823.823 0 0 1 1.15 0l1.312 1.313 2.512-2.513a.823.823 0 0 1 1.15 0 .823.823 0 0 1 0 1.15l-3.087 3.087a.8.8 0 0 1-.575.238"></path></svg>