<svg xmlns="http://www.w3.org/2000/svg" width="1em" height="1em" fill="none" viewBox="0 0 1027 432"><path fill="#2D2C74" d="M173.4 427.7c-14.3-2.9-57.9-12.3-99.6-48.8-27.5-24.1-48.4-55.7-62.6-94.8-1.4-3.7-.9-5.3 3.1-6.3C56.9 266.6 99.4 255 142 243.9c16.2-4.2 26.4 2 31 18.6 8.5 31.1 16.7 62.3 25 93.4 6.8 25.4 13.5 50.7 20.3 76.1-11.3.1-26.9-.6-44.9-4.3"></path><path fill="#F9A526" d="M216 .2c85.5 3.7 149.9 41.9 191.2 117.6 3.3 6 3.1 6.1-3.6 7.6-132.8 30.3-265.2 62.7-397.8 94.1-4.7 1.1-5.8.4-5.8-4.6C.1 113.4 72.4 25.4 172.6 4.8 186.9 2 201.2.4 216 .2"></path><path fill="#2D2C74" d="M431.1 216c-3.4 85.6-41.3 150.2-117 192.1-4.2 2.3-6.2 2.8-7.7-3-14.6-56-29.6-112-44.4-168-4-15.3 2-26 17.1-30.1 42.3-11.3 84.7-22.5 127.1-33.8 5.1-1.3 10.1-2.9 15.1-4.3 3-.9 4.5-.5 5.2 3.3 2.7 14.4 4.4 28.9 4.6 43.8"></path><path fill="#F9A526" d="M1026.7 234.1c-10-.1-20.1-.4-30.1-.2-3.4 0-4.9-1.1-6.2-4.2-7.9-20-15.9-39.9-23.9-59.8-.2-.4-.4-.7-1.1-2.1.4 7.7.7 14.3 1.1 21 .9 13.7.2 27.3.5 41 .1 3-.8 4.2-4 4.1-8.8-.2-17.6-.1-26.4 0-2.6 0-3.5-.8-3.5-3.5.1-37.8.1-75.7 0-113.5 0-2.7.8-3.5 3.4-3.5 9.3.1 18.5.2 27.8 0 2.7-.1 3.8 1 4.8 3.3 8.5 20.6 18 40.7 24.9 61.9.2.7.6 1.4 1.7 1.9-.8-7.3-1.6-14.7-2.5-22-1.7-13.9-1.1-27.9-1.3-41.9 0-3.2 2-3 4.1-3 10.2-.1 20.4-.2 30.6-.2.1 40.3.1 80.5.1 120.7"></path><path fill="#2D2C74" d="M577.7 233.2c10-37.3 19.8-74 29.6-110.7 2.4-9.1 2.5-9.1 11.8-9.1 10.5 0 21.1.1 31.6-.1 2.5 0 3.5.7 4 3.1 8.8 37.8 17.7 75.6 26.6 113.4.7 2.8-.1 3.5-2.9 3.4q-15.3-.15-30.6 0c-2.3 0-3.5-.6-3.7-2.9 0-.2-.1-.3-.1-.5-.8-3.8-.4-9.5-2.7-11-3-2-8.1-.8-12.4-.8-11.3 0-11.5-.1-13.2 11-.6 3.5-1.8 4.2-5 4.2-10.8-.1-21.6 0-33 0m52.9-88c-2.5 15.7-5.2 31.4-8.4 47.2h15.7c-2.7-15.8-5.3-31.4-7.3-47.2"></path><path fill="#F9A526" d="M720.6 173c0-18.2.1-36.4-.1-54.7 0-3.8.7-5.2 4.8-5 15.2.6 30.5-1 45.7 1.1 17 2.3 31 9.5 36.1 27.1 4.6 15.8 2.7 31-10.3 42.8-8.8 8-20 9.3-31.2 9.9-8.6.5-8.6.3-8.6 9.1s-.1 17.6.1 26.4c0 2.7-.8 3.5-3.5 3.5-9.6-.1-19.2-.2-28.8 0-3.3.1-4.3-.9-4.2-4.2zm52.3-19.7c.1-7.9-5.4-14-12.6-14.3-2.1-.1-3.2.4-3.2 2.8.1 7.5.1 15.1 0 22.6 0 2.2 1 2.6 2.9 2.5 7.5-.4 12.8-6 12.9-13.6"></path><path fill="#2D2C74" d="M530.9 187.9c0 13.8-.1 27.6.1 41.5 0 3.1-.8 4-3.9 3.9-9.4-.2-18.9-.2-28.3 0-3.4.1-4.1-1-4.1-4.2.1-27.5 0-55 .2-82.4 0-3.9-.9-5.3-4.9-4.9-3.9.4-7.9 0-11.8.1-2.5.1-3.2-.8-3.2-3.2.1-7.4.1-14.8 0-22.1-.1-2.5.8-3.2 3.2-3.2q35.1.15 70.2 0c2.2 0 3 .5 3 2.9-.1 7.5-.2 15.1 0 22.6.1 2.6-.9 3.2-3.3 3.1-4.4-.2-8.8.2-13.2-.1-3.3-.2-4.3.9-4.2 4.2.3 13.9.2 27.9.2 41.8"></path><path fill="#F9A526" d="M886.2 173.8c0 18.4-.1 36.7.1 55.1 0 3.5-.9 4.5-4.4 4.4-9.4-.3-18.8-.2-28.3 0-2.6 0-3.5-.7-3.5-3.4.1-37.7.1-75.4 0-113 0-2.7.9-3.5 3.5-3.4 9.6.1 19.2.2 28.7 0 3.1-.1 4 .8 3.9 3.9-.1 18.7 0 37.5 0 56.4"></path><path fill="#2D2C74" d="M502.4 351.6q-3.75 0-7.2-.6c-2.3-.4-4.5-.9-6.5-1.7s-3.8-1.8-5.5-3c-1.6-1.2-3.1-2.7-4.3-4.4s-2.1-3.7-2.7-5.9-1-4.8-1-7.6q0-3 .3-5.7c.2-1.8.5-3.6.9-5.5q.6-2.7 1.5-5.7c.6-1.9 1.4-4 2.3-6.2l10.8 4.5c-.8 1.7-1.4 3.4-2 5.1s-1.1 3.3-1.4 4.9c-.4 1.6-.6 3.1-.8 4.6s-.3 2.8-.3 4c0 1.4.2 2.7.7 3.8s1.1 2 2 2.7c.8.8 1.8 1.4 2.8 1.9 1.1.5 2.2.9 3.4 1.1q1.8.45 3.6.6c1.2.1 2.3.2 3.4.2.5 0 1.2 0 2.2-.1q1.5-.15 3.3-.3c1.2-.2 2.4-.3 3.7-.6 1.3-.2 2.5-.5 3.6-.8s2.1-.7 2.9-1.1 1.3-.9 1.6-1.4c-1.6-1-3.9-1.9-6.9-2.8-3-.8-6.5-1.5-10.6-2l1.7-12.4h28v13h-4.1c.3.5.5 1.2.7 1.8.2.7.2 1.3.2 1.8 0 2.1-.4 4-1.3 5.7s-2 3.2-3.4 4.6-3 2.5-4.9 3.4q-2.7 1.5-5.7 2.4c-2 .6-3.9 1.1-5.8 1.4-1.8.1-3.6.3-5.2.3"></path><path fill="#2D2C74" d="M559.8 317.1v13h-.7c-1 0-2.1-.1-3.1-.3s-2-.4-3-.8c-.9-.3-1.8-.8-2.5-1.2s-1.3-1-1.8-1.7c-.6.7-1.5 1.3-2.5 1.8s-2.1.9-3.4 1.2c-1.2.3-2.6.6-4 .7-1.4.2-2.9.2-4.4.2h-3.9v-13h3.9c1.4 0 2.6 0 3.6-.1s1.9-.2 2.6-.5 1.2-.6 1.6-1.1.6-1.2.7-2.1.1-2-.1-3.3-.5-2.9-.9-4.7l11.6-2.9q.3 1.2.6 3c.2 1.1.3 2.3.5 3.5s.2 2.4.2 3.5 0 2.1-.2 2.9c.2.4.5.8.9 1s.8.4 1.2.5.8.2 1.2.2h1.9zm-14-27.4-6.2 6.2-6.3-6.3 6.3-6.3 6.2 6.2 6.2-6.2 6.3 6.3-6.3 6.3z"></path><path fill="#2D2C74" d="M597.7 330.4c-1.1 0-2.1-.2-3.1-.5s-1.9-.8-2.7-1.3-1.5-1.1-2.2-1.7-1.1-1.2-1.5-1.7c-.4.6-.9 1.3-1.5 1.9s-1.3 1.2-2.1 1.7q-1.2.75-2.7 1.2c-1 .3-2.1.5-3.3.5-1 0-2-.1-2.9-.4s-1.8-.7-2.6-1.1c-.8-.5-1.5-1-2-1.6s-1-1.2-1.4-1.9c-.3.7-.8 1.3-1.4 1.8-.6.6-1.3 1.1-2.2 1.5s-1.8.7-2.9 1c-1.1.2-2.3.4-3.6.4h-1.2v-13h.7c1.4 0 2.5-.4 3.5-1.1s1.8-1.8 2.5-3.1 1.3-2.8 1.8-4.6c.5-1.7 1-3.6 1.5-5.5l11 2.1q-.3 1.2-.6 2.7l-.6 3c-.2 1-.3 2-.5 2.9-.1.9-.2 1.8-.2 2.5q0 1.05.3 1.8c.2.5.5.7.9.7.8 0 1.5-.3 2.1-.8s1.2-1.1 1.7-1.8.9-1.6 1.3-2.6.7-2 1-3 .5-2.1.7-3.2.4-2.1.6-3.1l9.8.7c-.1.7-.2 1.5-.3 2.5s-.2 1.9-.3 3-.1 2-.1 3q0 1.5.3 2.7c.2.8.5 1.4 1 1.9.4.5 1.1.7 1.9.7.7 0 1.3-.3 1.8-.8s.9-1.2 1.3-1.9c.3-.8.6-1.7.8-2.7s.4-2 .4-3c.1-1 .1-2 .1-2.9s0-1.7-.1-2.4l10.7-1.6c.2 2.6.4 4.8.8 6.6s.7 3.3 1.2 4.4 1.1 1.9 1.7 2.4 1.4.7 2.2.7h1v13h-1c-2.1 0-4-.3-5.9-1-1.9-.6-3.5-1.7-5-3.2q-1.05 1.05-2.1 1.8c-.8.6-1.6 1-2.5 1.4s-1.8.7-2.8 1c-1-.1-2.1 0-3.3 0"></path><path fill="#2D2C74" d="M619 317.1h6.6c.5 0 1.1 0 1.8-.1.7 0 1.4-.1 2.1-.2s1.4-.2 2.1-.4q1.05-.3 1.8-.6c.5-.2 1-.5 1.3-.8s.5-.7.5-1.1c0-.5-.2-1.2-.5-2.1-.4-.9-.8-2-1.4-3.2s-1.2-2.5-1.9-3.9-1.3-2.7-2-4.1l11.7-5.8c.7 1.5 1.3 3.1 1.9 4.7s1.2 3.3 1.7 4.9.9 3.3 1.2 4.8c.3 1.6.4 3.1.4 4.5 0 2.9-.5 5.3-1.6 7.3-1 2-2.5 3.7-4.3 5s-3.9 2.3-6.4 2.9-5.1.9-7.9.9H619zm13.2 22.4 6.2-6.2 6.3 6.3-6.3 6.3-6.2-6.2-6.2 6.2-6.3-6.3 6.3-6.3zm-5.8 9.5 5.8-5.8 5.9 5.9-5.8 5.8zM695.8 320.4c0-2 .3-4 .8-6s1.3-3.9 2.3-5.7q1.5-2.7 3.6-5.1c1.4-1.6 3-2.9 4.7-4s3.6-2 5.6-2.7 4.1-1 6.2-1c.8 0 1.5 0 2.3.1.7.1 1.5.2 2.2.4s1.6.5 2.4.8 1.8.8 2.8 1.3l-4.4 11.6c-1.3-.6-2.5-.9-3.8-1s-2.6 0-3.8.2-2.5.7-3.6 1.3-2.2 1.3-3.1 2.2-1.8 1.8-2.5 2.8-1.2 2.1-1.6 3.3c.8.4 1.8.7 3.2 1.1 1.3.3 2.8.7 4.3 1.2s3.1 1 4.7 1.6 3 1.4 4.3 2.4 2.3 2.1 3.1 3.4q1.2 1.95 1.2 4.8c0 2.5-.4 4.7-1.3 6.6s-2 3.6-3.5 5.1-3.2 2.7-5.1 3.7-4 1.8-6.2 2.5-4.4 1.1-6.6 1.4c-2.3.3-4.4.4-6.5.4-3.9 0-7.4-.5-10.7-1.5s-6.1-2.5-8.4-4.4c-2.4-2-4.2-4.4-5.6-7.3-1.3-2.9-2-6.2-2-10 0-3.7.5-7.5 1.5-11.2s2.2-7.5 3.7-11.2l10.6 4.4c-.6 1.5-1.2 3-1.8 4.4s-1 2.9-1.5 4.4c-.4 1.5-.8 2.9-1 4.4-.3 1.4-.4 2.9-.4 4.3 0 2 .4 3.7 1.3 5.1s2.1 2.4 3.5 3.2c1.5.8 3.1 1.4 5 1.7s3.8.5 5.7.5q6.9 0 11.7-1.2 4.95-1.2 7.5-3.9c-2.1-.5-4-.9-5.8-1.4s-3.5-.9-5.1-1.4c-1.5-.5-2.9-1-4.2-1.7-1.2-.6-2.3-1.4-3.1-2.3-.9-.9-1.5-2-2-3.2-.4-1.2-.6-2.7-.6-4.4"></path><path fill="#2D2C74" d="M748.8 304.1c.5 1.5 1 3.1 1.6 4.8.5 1.7 1 3.4 1.4 5.1s.8 3.4 1 5.1.4 3.3.4 4.8c0 3.1-.5 6-1.6 8.9-1.1 2.8-2.6 5.5-4.6 8q-3 3.75-6.9 6.9-4.05 3.15-8.7 5.7l-8-10.2c2.3-1.2 4.6-2.6 6.8-4.1s4.1-3.1 5.8-4.8q2.55-2.55 4.2-5.1c1.1-1.7 1.7-3.5 1.8-5.2-.4-1.2-.8-2.5-1.2-3.8s-.9-2.5-1.3-3.7-.9-2.4-1.4-3.6-.9-2.2-1.3-3.2zm-6.6-5.8-7.3-7.3 7.3-7.3 7.3 7.3zM774.3 330q-4.5 0-7.5-1.2c-2.1-.8-3.7-1.9-5-3.3s-2.2-3.1-2.8-5-.9-4-.9-6.2c0-2.9 0-5.9.1-8.9v-9c0-3-.2-6-.3-9.1-.2-3-.5-6.1-1-9.2l12.3-3.7q.9 4.35 1.2 9c.2 3.1.3 6.2.4 9.3 0 3.1 0 6.2-.1 9.3s-.1 6-.1 8.9v2.7c0 .8.1 1.5.4 2q.3.75 1.2 1.2c.5.3 1.4.4 2.4.3h.9v13h-1.2z"></path><path fill="#2D2C74" d="M773.9 317.1h6.9c3 0 6-.2 8.8-.5s5.6-.8 8.1-1.4c2.6-.6 5-1.3 7.3-2q3.45-1.2 6.3-2.4c-1.1-.4-2.4-.9-3.7-1.3-1.4-.5-2.8-.9-4.2-1.4-1.4-.4-2.9-.8-4.3-1.1s-2.8-.4-4.1-.4q-1.35 0-2.7.6c-.9.4-1.8.9-2.7 1.4-.8.5-1.5 1-2.1 1.6-.6.5-.9.9-1.1 1.2l-9.3-6c1-1.7 2.1-3.3 3.3-4.7 1.3-1.4 2.7-2.7 4.2-3.7s3.1-1.8 4.9-2.4q2.7-.9 5.4-.9c1.7 0 3.4.2 5.2.7s3.5 1 5.2 1.7 3.4 1.4 5.2 2.3c1.7.8 3.4 1.6 5.1 2.3s3.4 1.3 5 1.8c1.7.5 3.3.8 4.9.9l-1 12.2c-.3.1-.5.3-.8.4s-.5.3-.7.4c1 .4 2 .7 3 .8s1.8.1 2.4.1h1.1v13h-1.1c-3.9 0-7.3-.7-10.4-2s-5.6-3.2-7.6-5.7c-2.7 1.2-5.3 2.3-7.7 3.3-2.5.9-4.9 1.8-7.3 2.4-2.4.7-4.8 1.1-7.2 1.5-2.4.3-4.9.5-7.6.5h-6.9v-13.2zm27 29.6-7.3-7.3 7.3-7.3 7.3 7.3z"></path><path fill="#2D2C74" d="M860 329.5c-.8.3-1.7.5-2.7.4-1 0-2.1-.1-3.2-.4-1.1-.2-2.3-.6-3.4-1-1.2-.4-2.3-.8-3.4-1.3s-2.1-1-3.1-1.5c-.9-.5-1.8-.9-2.4-1.3-.6.9-1.4 1.7-2.2 2.4s-1.8 1.3-2.8 1.7c-1 .5-2.1.8-3.2 1s-2.3.4-3.5.4h-1.6v-13h1.6c1 0 1.9-.1 2.7-.4s1.4-.6 2-1.1 1.1-1.1 1.6-1.8.9-1.5 1.3-2.4c.5-1 1-2 1.6-3.1s1.2-2.2 1.9-3.3 1.4-2.1 2.2-3.1 1.7-1.8 2.7-2.6c1-.7 2-1.3 3.2-1.8s2.4-.7 3.8-.7q2.85 0 5.1 1.2c1.5.8 2.9 1.9 4.1 3.2s2.1 2.9 2.9 4.6 1.4 3.5 1.7 5.4c.4 1.9.5 3.8.5 5.7-.1 1.9-.4 3.7-.9 5.3s-1.3 3.1-2.4 4.4-2.5 2.5-4.1 3.1m-7.4-20.9q-.75 0-1.5.6c-.5.4-.9.9-1.4 1.5-.4.6-.8 1.3-1.2 2s-.7 1.4-.9 2c.5.3 1.1.7 1.8 1 .7.4 1.5.7 2.4 1.1.9.3 1.8.6 2.8.9 1 .2 2 .4 3 .4.3-1 .4-2 .2-3.1s-.4-2.1-.9-3.1q-.75-1.35-1.8-2.4c-.7-.6-1.6-.9-2.5-.9M908.8 325.4c-2.3 0-4.5-.2-6.5-.7s-3.8-1.2-5.3-2.3-2.7-2.3-3.6-3.9-1.3-3.5-1.3-5.7c0-1.5.3-3 .8-4.4q.75-2.1 2.1-3.9c.9-1.2 1.8-2.3 3-3.3 1.1-1 2.3-1.9 3.4-2.7 1.2-.8 2.3-1.5 3.4-2.1q1.65-.9 3-1.5l-.5-4 12.8-2.7c.5 4.3.9 8.1 1.4 11.5.4 3.4.8 6.3 1.1 8.6s.6 4.2.8 5.5.3 2 .4 2.1c.2.4.5.7 1 .9s1.1.2 1.9.2h.7v13h-.9c-2.6 0-5-.4-7.1-1.2s-3.7-2-4.9-3.7c-1 .1-1.9.2-2.9.2s-1.9.1-2.8.1m-6.9-13.1c0 .2.4.4 1 .7.6.2 1.3.4 2.2.6.9.1 1.8.2 2.8.2q1.5 0 2.7-.3l-1.2-7.9q-1.35.45-2.7 1.5c-.9.6-1.7 1.3-2.5 2-.7.7-1.3 1.3-1.8 1.9-.4.5-.6 1-.5 1.3"></path><path fill="#2D2C74" d="M926 317.1h6.9c3 0 6-.2 8.8-.5s5.6-.8 8.1-1.4c2.6-.6 5-1.3 7.3-2q3.45-1.2 6.3-2.4c-1.1-.4-2.4-.9-3.7-1.3-1.4-.5-2.8-.9-4.2-1.4-1.4-.4-2.9-.8-4.3-1.1s-2.8-.4-4.1-.4q-1.35 0-2.7.6c-.9.4-1.8.9-2.7 1.4-.8.5-1.5 1-2.1 1.6-.6.5-.9.9-1.1 1.2l-9.3-6c1-1.7 2.1-3.3 3.3-4.7 1.3-1.4 2.7-2.7 4.2-3.7s3.1-1.8 4.9-2.4q2.7-.9 5.4-.9c1.7 0 3.4.2 5.2.7s3.5 1 5.2 1.7 3.4 1.4 5.2 2.3c1.7.8 3.4 1.6 5.1 2.3s3.4 1.3 5 1.8c1.7.5 3.3.8 4.9.9l-1 12.2c-3.1 1.6-6 3-8.7 4.4s-5.3 2.6-7.7 3.6c-2.4 1.1-4.8 2.1-7 2.9s-4.5 1.5-6.7 2.1-4.5 1-6.7 1.3c-2.3.3-4.6.4-7.1.4h-6.9v-13.2zm27 29.5-7.3-7.3 7.3-7.3 7.3 7.3zM999.3 330q-4.5 0-7.5-1.2c-2.1-.8-3.7-1.9-5-3.3s-2.2-3.1-2.8-5-.9-4-.9-6.2c0-2.9 0-5.9.1-8.9v-9c0-3-.2-6-.3-9.1-.2-3-.5-6.1-1-9.2l12.3-3.7q.9 4.35 1.2 9c.2 3.1.3 6.2.4 9.3 0 3.1 0 6.2-.1 9.3s-.1 6-.1 8.9v2.7c0 .8.1 1.5.4 2q.3.75 1.2 1.2c.5.3 1.4.4 2.4.3h.9v13h-1.2z"></path><path fill="#2D2C74" d="M998.9 317.1h4.1c.8 0 1.7 0 2.7-.1s1.9-.3 2.8-.5c.9-.3 1.6-.6 2.2-1q.9-.6.9-1.5c0-.5-.2-1.2-.5-2.1-.4-.9-.8-2-1.4-3.2s-1.2-2.5-1.9-3.9-1.3-2.7-2-4.1l11.7-5.8c.7 1.5 1.3 3.1 1.9 4.7s1.2 3.3 1.7 4.9.9 3.3 1.2 4.8c.3 1.6.4 3.1.4 4.5 0 2.9-.5 5.3-1.4 7.3s-2.2 3.7-3.9 5-3.7 2.3-6 2.9-4.9.9-7.7.9h-4.6v-12.8zm10.5 29.6-7.3-7.3 7.3-7.3 7.3 7.3z"></path></svg>