<svg width="19" height="16" viewBox="0 0 19 16" fill="none" xmlns="http://www.w3.org/2000/svg"><g clip-path="url(#clip0_1969_4628)"><path d="M16.8409 4.10495C16.8522 4.2716 16.8522 4.43825 16.8522 4.60644C16.8522 9.73113 13.0013 15.6415 5.95961 15.6415V15.6384C3.87948 15.6415 1.84256 15.0378 0.0914307 13.8997C0.393898 13.9366 0.697882 13.955 1.00262 13.9558C2.72646 13.9573 4.40103 13.3713 5.75721 12.2923C4.11903 12.2608 2.6825 11.1788 2.18066 9.59903C2.75451 9.71116 3.3458 9.68812 3.90904 9.53222C2.12304 9.16667 0.838124 7.57696 0.838124 5.73075V5.6816C1.37029 5.98188 1.96612 6.14853 2.57561 6.16696C0.893463 5.02805 0.374947 2.761 1.39075 0.988511C3.33443 3.41147 6.20219 4.88444 9.28069 5.04034C8.97216 3.69332 9.39364 2.28178 10.3882 1.33487C11.9301 -0.133499 14.3552 -0.058237 15.8046 1.50305C16.662 1.3318 17.4837 1.01309 18.2357 0.561518C17.9499 1.45928 17.3518 2.22188 16.5528 2.70647C17.3116 2.61585 18.053 2.41003 18.7512 2.09593C18.2372 2.87619 17.5898 3.55585 16.8409 4.10495Z" fill="#424242"></path></g><defs><clipPath id="clip0_1969_4628"><rect width="18.8" height="15.6667" fill="white" transform="translate(0.015625 0.166016)"></rect></clipPath></defs></svg>