<svg width="19" height="20" viewBox="0 0 19 20" fill="none" xmlns="http://www.w3.org/2000/svg">
                                                    <g id="ikco 1" clip-path="url(#clip0_3370_49687)">
                                                        <g id="Layer 1">
                                                            <path id="Vector" d="M8.77167 19.8905C7.25483 19.3449 5.78161 18.5414 4.35297 17.4791C2.03167 15.7529 0.502227 13.4084 0.103875 10.5743C0.0321523 10.0597 -0.00273988 9.42677 0.000167806 8.67659C0.0117985 6.14497 0.013737 3.68507 0.00598317 1.29496C0.00598317 1.19804 0.0718906 1.11274 0.165906 1.08948C2.79445 0.437192 5.47533 0.0834245 8.21049 0.0281785C8.43147 0.0233324 8.65343 0.0165478 8.87538 0.00588631C9.29215 -0.0144675 9.69535 0.0213939 10.1082 0.030117C12.8337 0.0873014 15.5078 0.441069 18.1305 1.09142C18.2245 1.11468 18.2895 1.199 18.2895 1.29496C18.2924 4.06404 18.2914 6.76915 18.2866 9.41223C18.2846 10.3524 18.1082 11.3439 17.7583 12.3868C17.1303 14.2545 16.007 15.8353 14.3883 17.1312C12.8172 18.3882 11.1201 19.3362 9.29796 19.9729C9.09152 20.0447 8.96067 19.9584 8.77167 19.8905ZM4.31129 0.642668C2.88168 0.827791 1.56741 1.07204 0.366536 1.37734C0.329705 1.38607 0.31129 1.4103 0.31129 1.4481C0.314197 1.7408 0.314197 4.14739 0.312259 8.66787C0.312259 9.45876 0.345213 10.0694 0.414028 10.5007C0.781365 12.82 1.7787 14.7391 3.407 16.2589C4.95389 17.702 6.84582 18.837 9.08183 19.6637C9.12835 19.6802 9.17487 19.6802 9.22139 19.6637C11.3702 18.8719 13.2059 17.7873 14.7285 16.4101C16.4702 14.8341 17.5189 12.8772 17.8737 10.5394C17.9483 10.0461 17.9861 9.4355 17.9851 8.70664C17.9822 6.30974 17.9813 3.87892 17.9803 1.4132C17.9803 1.39479 17.9677 1.37928 17.9503 1.3754C13.454 0.292777 8.90736 0.0485323 4.31129 0.642668Z"></path>
                                                            <path id="Vector_2" d="M0.899408 1.73395C6.34356 0.492374 11.8362 0.489466 17.3772 1.72523C17.4606 1.74365 17.5023 1.79501 17.5013 1.88128C17.4906 4.00388 17.4906 6.29998 17.5013 8.77054C17.5042 9.47614 17.4683 10.0683 17.3937 10.5462C17.101 12.4158 16.3208 14.0412 15.054 15.4243C14.4143 16.1231 13.573 16.8122 12.5301 17.4936C11.462 18.1914 10.3523 18.7468 9.19987 19.1597C9.16401 19.1733 9.12427 19.1733 9.08841 19.1597C7.44169 18.5539 5.92097 17.702 4.52819 16.6038C2.55291 15.0463 1.27547 13.0022 0.899408 10.5006C0.826716 10.015 0.791824 9.39278 0.795701 8.63194C0.807332 6.42113 0.808301 4.16574 0.797639 1.86383C0.797639 1.79308 0.831562 1.75043 0.900378 1.73395H0.899408ZM9.44993 18.8495C10.9396 18.2602 12.2694 17.511 13.4412 16.6009C14.0324 16.1415 14.5122 15.7121 14.8795 15.3128C16.1357 13.9491 16.9081 12.3441 17.196 10.4996C17.2716 10.017 17.3084 9.39569 17.3055 8.63582C17.2968 6.23504 17.2958 4.01261 17.3026 1.96948C17.3026 1.93361 17.2852 1.91132 17.2503 1.90357C11.8429 0.701727 6.44339 0.700758 1.04964 1.90066C1.01765 1.90745 0.995362 1.93555 0.995362 1.96851C1.00602 4.24328 1.00408 6.42889 0.989546 8.5263C0.983731 9.31912 1.01959 9.96754 1.09713 10.4706C1.47222 12.9091 2.68085 14.9193 4.72204 16.5001C6.05763 17.5353 7.49015 18.3417 9.01959 18.9193C9.18145 18.9804 9.30358 18.9077 9.44993 18.8495Z"></path>
                                                            <path id="Vector_3" d="M12.1146 3.25467C12.3249 2.61983 12.7659 2.29223 13.4366 2.27284C13.52 2.26994 13.5888 2.33584 13.5917 2.4192C13.5917 2.43955 13.5888 2.46087 13.5811 2.47929L13.332 3.10638C13.3261 3.12092 13.3291 3.13739 13.3397 3.14902C13.8369 3.69761 14.3235 4.24134 14.7994 4.78023C15.0785 5.0962 14.7025 5.36662 14.8992 5.68743C15.5292 6.71869 16.133 7.70342 16.7107 8.64067C16.8997 8.94694 16.8454 9.3986 16.5081 9.57403C16.104 9.78338 15.7725 10.0393 15.5127 10.3426C15.4594 10.4056 15.3896 10.4473 15.3034 10.4686C15.2462 10.4832 15.2006 10.4696 15.1648 10.427C15.125 10.3804 15.1008 10.3271 15.0921 10.267C15.063 10.0606 14.9525 9.89775 14.7606 9.77757C14.6666 9.71845 14.5658 9.69422 14.4563 9.70391C14.401 9.70875 14.3642 9.74558 14.3458 9.81343C14.3351 9.85414 14.3477 9.89678 14.3787 9.92586C14.5009 10.0373 14.6365 10.1507 14.7848 10.267C14.8488 10.3174 14.8856 10.394 14.8818 10.4764C14.8789 10.5462 14.8188 10.6004 14.749 10.5975C14.7393 10.5975 14.7296 10.5956 14.7199 10.5927C14.3739 10.4929 14.0589 10.4492 13.773 10.4628C13.739 10.4638 13.708 10.4541 13.6819 10.4318C13.5975 10.362 13.5714 10.2728 13.6033 10.1633C13.6334 10.0625 13.5995 9.95397 13.5171 9.88806L12.4858 9.06131C12.4597 9.03999 12.4286 9.02836 12.3947 9.02739C11.7618 9.00316 11.2307 8.7531 10.8023 8.2772C10.7771 8.2491 10.7509 8.24813 10.7228 8.27236C10.2178 8.71336 9.93773 9.25419 9.88443 9.89678C9.83015 10.5336 10.3225 11.0153 10.5503 11.5726C10.8081 12.2035 10.8895 12.8801 10.7945 13.6041C10.7364 14.049 10.528 14.615 10.1684 15.3012C9.82627 15.9554 9.47057 16.5961 9.10226 17.2232C9.09257 17.2406 9.07027 17.2464 9.0538 17.2367C9.04604 17.2329 9.04023 17.2261 9.03732 17.2174C8.03417 14.4725 6.25952 12.4022 3.77829 10.8689C3.75116 10.8515 3.73953 10.8272 3.7434 10.7953C4.06034 8.45942 5.12261 6.56943 6.92925 5.12625C8.37922 3.96802 10.1723 3.37292 12.0216 3.32349C12.0691 3.32252 12.1001 3.29926 12.1146 3.25467Z"></path>
                                                            <path id="Vector_4" d="M12.313 2.60334L11.9059 3.13642C11.8952 3.14999 11.8807 3.15677 11.8642 3.15774C9.86663 3.26145 8.13947 3.91762 6.68272 5.12721C4.94296 6.57136 3.9117 8.43228 3.58895 10.71C3.58313 10.7497 3.56278 10.7604 3.52789 10.741C2.9163 10.4124 2.30957 10.1197 1.70671 9.86479C1.65728 9.84347 1.63983 9.80664 1.65437 9.75527C2.36772 7.23237 3.81962 5.29392 6.00911 3.94088C7.87099 2.79041 9.9684 2.33584 12.3013 2.57718C12.3101 2.57718 12.3168 2.5859 12.3159 2.59559C12.3159 2.5985 12.3149 2.60141 12.313 2.60334Z"></path>
                                                            <path id="Vector_5" d="M11.0736 8.8093C10.9457 9.06518 10.9747 9.27162 11.1434 9.49455C11.565 10.0519 11.8936 10.6896 12.1301 11.4078C12.4674 12.4342 12.3743 13.4102 11.8509 14.3349C11.1696 15.5377 10.2982 16.5621 9.23595 17.4093C9.14969 17.4781 9.13612 17.4655 9.19524 17.3724C9.66241 16.6319 10.1053 15.8188 10.525 14.9338C10.7916 14.3717 10.9457 13.8706 10.9873 13.4315C11.0746 12.5021 10.809 11.559 10.2721 10.7604C9.76612 10.0073 10.1509 9.0235 10.7557 8.4788C10.7761 8.46038 10.808 8.46038 10.8284 8.47976L11.0513 8.68621C11.0891 8.72207 11.0969 8.76278 11.0736 8.8093Z"></path>
                                                        </g>
                                                    </g>
                                                    <defs>
                                                        <clipPath id="clip0_3370_49687">
                                                            <rect width="18.2913" height="20"></rect>
                                                        </clipPath>
                                                    </defs>
                                                </svg>