<svg xmlns="http://www.w3.org/2000/svg" width="24" height="24" fill="none" class="BottomNavbar__tab-icon"><path fill="#717485" d="m22.956 16-1.168-7.536a4.24 4.24 0 0 0-1.168-2.357 4.6 4.6 0 0 0-2.266-1.321 30 30 0 0 0-3.16-.572A27 27 0 0 0 12 4c-.893 0-2.026.071-3.194.214s-2.267.357-3.16.536c-.893.25-1.683.714-2.266 1.357-.584.643-1.03 1.429-1.168 2.357L1.044 16c-.172 1.071.172 2.036.79 2.786A3.49 3.49 0 0 0 4.513 20a4.04 4.04 0 0 0 2.301-.75 3.84 3.84 0 0 0 1.442-1.929l.138-.357.103-.393h7.006l.103.393.137.357a3.84 3.84 0 0 0 1.443 1.929c.653.5 1.477.75 2.301.75a3.49 3.49 0 0 0 2.679-1.214c.618-.75.962-1.75.79-2.786m-1.614 2.036c-.447.535-1.134.821-1.855.821-.584 0-1.202-.178-1.683-.536a3 3 0 0 1-1.03-1.357l-.137-.393-.104-.392c-.171-.429-.583-.75-1.03-.75H8.497c-.447 0-.859.321-1.03.75l-.103.392-.138.393c-.206.536-.55 1-1.03 1.357-.481.358-1.1.536-1.683.536-.721 0-1.408-.286-1.855-.821a2.29 2.29 0 0 1-.515-1.857l.584-3.786.55-3.75c.137-.643.412-1.25.892-1.75a3.24 3.24 0 0 1 1.752-1c.79-.214 1.855-.393 3.022-.536 1.168-.143 2.233-.214 3.057-.214s1.889.071 3.057.214 2.232.322 3.022.536h.034c.653.178 1.271.5 1.718 1 .48.5.755 1.107.893 1.75l.549 3.75.584 3.821a2.25 2.25 0 0 1-.515 1.822m-5.495-6.322a.81.81 0 0 0-.584.25.88.88 0 0 0-.24.607c0 .25.102.465.24.608.137.142.343.25.584.25s.446-.108.583-.25a.88.88 0 0 0 .24-.608.88.88 0 0 0-.24-.607.81.81 0 0 0-.583-.25m2.198-3.428a.81.81 0 0 0-.584.25.88.88 0 0 0-.24.607c0 .25.102.464.24.607.137.143.343.25.584.25s.446-.107.583-.25a.88.88 0 0 0 .24-.607.88.88 0 0 0-.24-.607.81.81 0 0 0-.583-.25m-8.243 2H8.153V8.57A.554.554 0 0 0 7.603 8c-.308 0-.549.25-.549.571v1.715H5.406c-.31 0-.55.25-.55.571 0 .322.24.572.55.572h1.648v1.714c0 .321.24.571.55.571.309 0 .55-.25.55-.571v-1.714h1.648c.31 0 .55-.25.55-.572a.554.554 0 0 0-.55-.571"></path></svg>