<svg xmlns="http://www.w3.org/2000/svg" width="1em" height="1em" fill="none" viewBox="0 0 42 44"><g fill="#4C2E83"><path d="M29.415 21.985c.78-1.965.66-4.26-.57-6.165v-.015c-1.695-2.625-5.37-5.73-8.175-7.875a2.34 2.34 0 0 0-2.595-.18 2.38 2.38 0 0 0-1.155 2.4c.15 1.02-.12 2.265-.39 3.585-.555 2.655-1.245 5.955.975 9.39 1.23 1.905 3.285 2.97 5.4 3.06l7.5 15.105a4.32 4.32 0 0 0 2.7 2.235c.375.105.75.15 1.14.15.825 0 1.635-.24 2.325-.69l2.535-1.635a4.35 4.35 0 0 0 1.92-2.94 4.32 4.32 0 0 0-.915-3.39L29.43 21.97zm-9.39-.495c-1.545-2.4-1.065-4.695-.555-7.14.225-1.05.435-2.115.495-3.18 2.94 2.355 5.1 4.44 6.18 6 .075.075.12.165.18.255 1.125 1.74.615 4.065-1.11 5.19-1.74 1.125-4.065.615-5.19-1.125m6.81 3.645.84-.54 7.245 8.85-3.84 2.475-5.085-10.245zm10.65 13.71L34.95 40.48a1.35 1.35 0 0 1-1.05.165 1.26 1.26 0 0 1-.81-.675l-.675-1.35 4.41-2.85.96 1.17c.24.285.33.645.27 1.02s-.255.675-.57.885"></path><path d="M35.655.31H6.345a5.44 5.44 0 0 0-5.43 5.43v20.49c0 2.985 2.43 5.43 5.43 5.43H16.95c.825 0 1.5-.675 1.5-1.5s-.675-1.5-1.5-1.5H6.345a2.44 2.44 0 0 1-2.43-2.43V24.1h7.44c.825 0 1.5-.675 1.5-1.5s-.675-1.5-1.5-1.5H3.93V5.74a2.44 2.44 0 0 1 2.43-2.43h29.295a2.44 2.44 0 0 1 2.43 2.43V21.1H35.55c-.825 0-1.5.675-1.5 1.5s.675 1.5 1.5 1.5h2.535v2.13c0 .825.675 1.5 1.5 1.5s1.5-.675 1.5-1.5V5.74c0-2.985-2.43-5.43-5.43-5.43"></path></g></svg>