<svg width="20" height="20" viewBox="0 0 20 20" fill="none" xmlns="http://www.w3.org/2000/svg">
                                                    <g id="Bank - Tejarat - Color 1" clip-path="url(#clip0_3370_49696)">
                                                        <g id="Bank / Tejarat / Color">
                                                            <rect id="Rectangle 602" x="3.3335" y="17.9169" width="13.75" height="2.08333" fill="white"></rect>
                                                            <circle id="Ellipse 57" cx="10" cy="10" r="10" fill="white"></circle>
                                                            <path id="Shape" fill-rule="evenodd" clip-rule="evenodd" d="M17.3808 20H3.00542V17.7392L3.28667 17.4092C2.5346 16.7275 1.89008 15.9359 1.375 15.0612L5.0925 17.19H5.50333L1.01 14.3821C0.866111 14.0876 0.736528 13.7856 0.62125 13.4758L5.96083 17.19H6.24333L0.404583 12.8225C0.296861 12.4564 0.210329 12.0844 0.145417 11.7083L6.66083 17.19H6.95583L0.03125 10.7975C0.0104167 10.5344 0 10.2686 0 10C0 9.94111 0 9.88222 0 9.82333L7.2375 17.19H7.4425L0.0441667 9.05458C0.0785077 8.6864 0.133315 8.32042 0.208333 7.95833L7.71542 17.19H7.9025L0.411667 7.15375C0.504444 6.84097 0.611806 6.53542 0.73375 6.23708L8.10833 17.19H8.28292L1.10042 5.4375C1.26134 5.12461 1.43867 4.82044 1.63167 4.52625L8.48042 17.19H8.64L6.88167 13.5567L6.82583 13.5292C6.73359 13.4825 6.64832 13.4232 6.5725 13.3529C6.50271 13.2842 6.4432 13.2057 6.39583 13.12C6.33417 13.0113 6.28708 12.895 6.23292 12.7825C6.21583 12.7492 6.19875 12.7167 6.18 12.6842C6.1708 12.6673 6.15882 12.6521 6.14458 12.6392C6.12042 12.6196 6.09458 12.6021 6.07 12.5825C6.04566 12.5632 6.02456 12.5401 6.0075 12.5142C5.99553 12.4921 5.98576 12.469 5.97833 12.445C5.96172 12.4363 5.94744 12.4237 5.93667 12.4083C5.92579 12.3923 5.91959 12.3735 5.91875 12.3542C5.91904 12.3433 5.92001 12.3324 5.92167 12.3217C5.92167 12.3175 5.92167 12.3133 5.92167 12.3092C5.92197 12.2964 5.92465 12.2838 5.92958 12.2721C5.93333 12.2462 5.93708 12.2208 5.94208 12.195C5.94627 12.1711 5.954 12.1479 5.965 12.1263C6.0047 12.0668 6.06193 12.0212 6.12875 11.9958L5.05083 9.76833L5.01583 9.75708C4.90076 9.72679 4.79706 9.66349 4.7175 9.575C4.69793 9.55189 4.68088 9.52674 4.66667 9.5C4.65159 9.4674 4.64041 9.43313 4.63333 9.39792C4.62542 9.3567 4.6211 9.31488 4.62042 9.27292C4.62042 9.23125 4.62042 9.18958 4.61667 9.14792C4.61664 9.14579 4.6159 9.14374 4.61458 9.14208C4.6075 9.1325 4.59958 9.12333 4.59167 9.11417C4.55708 9.07583 4.52083 9.03917 4.48667 9.00042C4.45854 8.9683 4.43357 8.93356 4.41208 8.89667C4.37875 8.83897 4.36176 8.77329 4.36292 8.70667C4.36443 8.67708 4.36975 8.64781 4.37875 8.61958C4.39458 8.57542 4.41083 8.53167 4.42667 8.48792L2.15833 3.79708C2.36306 3.53875 2.58 3.29097 2.80917 3.05375L3.45833 4.58583C3.45855 4.53736 3.46287 4.48899 3.47125 4.44125C3.48732 4.36471 3.52249 4.29348 3.57349 4.23418C3.62448 4.17488 3.68964 4.12944 3.76292 4.10208C3.81851 4.07911 3.87942 4.07218 3.93875 4.08208C3.98005 4.0919 4.01995 4.10688 4.0575 4.12667C4.09231 4.14425 4.12574 4.16445 4.1575 4.18708L3.5 2.40208C3.73583 2.20014 3.98097 2.00917 4.23542 1.82917L5.11583 4.60458C5.14417 4.58 5.17167 4.55458 5.19917 4.52917C5.29542 4.4375 5.3875 4.3425 5.48333 4.25C5.54805 4.18408 5.62135 4.12718 5.70125 4.08083L4.96625 1.35833C5.26658 1.18283 5.57589 1.02317 5.89292 0.88L6.75792 4.9075L6.77833 4.88708C6.80156 4.86276 6.82274 4.83656 6.84167 4.80875C6.8583 4.78523 6.87228 4.75994 6.88333 4.73333C6.90328 4.67295 6.91135 4.60928 6.90708 4.54583C6.90375 4.47042 6.89458 4.39583 6.88958 4.32042C6.88253 4.25217 6.89108 4.18321 6.91458 4.11875C6.9395 4.07482 6.97356 4.03676 7.01446 4.00715C7.05537 3.97753 7.10216 3.95704 7.15167 3.94708C7.17042 3.94125 7.18958 3.93667 7.20875 3.9325C7.23875 3.92583 7.26875 3.92083 7.29917 3.91667H7.30625L6.74125 0.544167C7.02986 0.444444 7.32431 0.357916 7.62458 0.284583L8.05958 3.89292L8.21958 3.88667C8.32917 3.88333 8.43833 3.88042 8.54792 3.87875C8.62417 3.87875 8.70125 3.87875 8.7775 3.87875L8.81917 3.87542L8.54167 0.105834C8.86167 0.0588896 9.18625 0.0274999 9.51542 0.0116666L9.62917 4.725C9.63809 4.73408 9.64631 4.74383 9.65375 4.75417C9.67194 4.78213 9.68597 4.81259 9.69542 4.84458C9.71978 4.92178 9.73447 5.00169 9.73917 5.0825C9.74208 5.1175 9.74375 5.1525 9.745 5.1875C9.74708 5.24333 9.74833 5.29917 9.75167 5.35417C9.75417 5.38917 9.75708 5.42417 9.76083 5.45958C9.77083 5.55125 9.78125 5.64292 9.79 5.73458C9.79194 5.75681 9.79375 5.77903 9.79542 5.80125H9.7975C9.81542 5.79333 9.8325 5.785 9.84917 5.77542C9.91849 5.7324 9.98376 5.68317 10.0442 5.62833C10.1004 5.57958 10.1558 5.53 10.2108 5.48167C10.2413 5.45667 10.2413 5.45667 10.2721 5.43208C10.3029 5.4075 10.3367 5.38458 10.3704 5.36292L10.4121 3.71792L10.5062 0.0124995C10.8274 0.0286106 11.1442 0.0595826 11.4567 0.105416L11.0817 5.19542C11.2338 5.17862 11.3871 5.17361 11.54 5.18042C11.6206 5.18422 11.7005 5.19609 11.7787 5.21583L12.375 0.284583C12.675 0.357916 12.9694 0.444444 13.2583 0.544167L12.405 5.6475C12.4711 5.64306 12.5371 5.63931 12.6029 5.63625C12.6629 5.63375 12.6887 5.6325 12.7487 5.63125C12.8296 5.63125 12.9112 5.63125 12.9921 5.635C13.0225 5.63708 13.0529 5.64 13.0833 5.645L14.1067 0.880833C14.4237 1.02402 14.733 1.18368 15.0333 1.35917L13.7646 6.05917L13.7946 6.07292C13.842 6.09565 13.8882 6.12096 13.9329 6.14875C14.0686 6.22972 14.1809 6.34459 14.2587 6.48208C14.2649 6.49375 14.2708 6.50555 14.2767 6.5175L15.7642 1.8275C16.0183 2.00722 16.2635 2.19819 16.4996 2.40042L14.1333 8.80875C14.1569 8.85063 14.1711 8.89711 14.175 8.945C14.1762 8.97609 14.1742 9.00722 14.1692 9.03792C14.1663 9.06167 14.1637 9.08583 14.1612 9.10958C14.1571 9.16167 14.1571 9.16167 14.1542 9.21375C14.1456 9.51354 14.1595 9.81355 14.1958 10.1112L17.1908 3.05375C17.4197 3.29042 17.6367 3.53819 17.8417 3.79708L14.7025 10.2837C14.7966 10.3206 14.8778 10.3842 14.9362 10.4667C14.9571 10.4977 14.9738 10.5313 14.9858 10.5667C14.9991 10.6052 15.0061 10.6455 15.0067 10.6862C15.0063 10.7077 15.004 10.729 15 10.75L18.3667 4.525C18.5597 4.8192 18.737 5.12337 18.8979 5.43625L14.7546 12.22C14.7842 12.2442 14.8154 12.2662 14.8471 12.2875C14.9204 12.335 14.9962 12.3783 15.0696 12.4254L15.09 12.4392L19.2662 6.23583C19.3879 6.535 19.4953 6.84056 19.5883 7.1525L15.3867 12.7833C15.3946 12.8057 15.4012 12.8285 15.4067 12.8517C15.424 12.947 15.4344 13.0435 15.4379 13.1404C15.47 13.1558 15.5046 13.1675 15.5375 13.1821H15.5421L19.7917 7.95833C19.8676 8.32079 19.9232 8.68719 19.9583 9.05583L14.8421 14.6767C14.8421 14.6939 14.8421 14.7111 14.8421 14.7283C14.8421 14.7775 14.8421 14.8267 14.8454 14.8758H14.8587L14.9421 14.87C14.9837 14.87 14.9838 14.87 15.0254 14.87H15.0417L20 9.82333V9.8675C20 9.91167 20 9.95583 20 10C20 10.2683 19.9894 10.5342 19.9683 10.7975L15.3642 15.0475C15.3642 15.06 15.3604 15.0721 15.3583 15.0837C15.3546 15.1167 15.3538 15.1917 15.3525 15.2246C15.35 15.2913 15.3479 15.3579 15.3454 15.4246C15.3445 15.4532 15.3386 15.4814 15.3279 15.5079C15.3257 15.513 15.3231 15.5179 15.32 15.5225L19.8546 11.7083L19.8421 11.7796C19.7788 12.132 19.6964 12.4807 19.5954 12.8242L13.7567 17.19H14.0392L19.3783 13.4754L19.3567 13.5333C19.2472 13.8228 19.1249 14.1056 18.9896 14.3817L14.4963 17.19H14.9071L18.625 15.0612L18.6046 15.0958C18.1433 15.8721 17.5794 16.5827 16.9283 17.2083L17.3808 17.7392V20ZM3.25542 19.75H17.1304V17.9892H3.25542V19.75ZM12.9004 19.1983C12.8933 19.2761 12.8692 19.3513 12.83 19.4187C12.7945 19.494 12.7476 19.5633 12.6908 19.6242C12.6475 19.6213 12.6051 19.6104 12.5658 19.5921C12.525 19.5774 12.4871 19.5553 12.4542 19.5271C12.5312 19.4923 12.6041 19.4489 12.6712 19.3975C12.73 19.3595 12.7762 19.305 12.8042 19.2408C12.7795 19.1796 12.7357 19.128 12.6792 19.0938L12.7721 18.9142C12.8107 18.9507 12.8408 18.9952 12.8604 19.0446C12.8842 19.0925 12.8978 19.1449 12.9004 19.1983ZM16.8967 19.4438L16.7883 19.5458L16.6821 19.4396L16.7921 19.3387L16.8967 19.4438ZM13.8133 19.4342L13.705 19.5362L13.5988 19.43L13.7083 19.3292L13.8133 19.4342ZM5.18 18.375H5.32583V19C5.32751 19.0632 5.3222 19.1263 5.31 19.1883C5.29852 19.241 5.2717 19.2892 5.23292 19.3267C5.19238 19.3625 5.13948 19.3812 5.08542 19.3787C5.05282 19.3803 5.02038 19.3735 4.99119 19.3589C4.96201 19.3443 4.93706 19.3224 4.91875 19.2954C4.8755 19.2232 4.85516 19.1395 4.86042 19.0554L5 19.0371C4.99893 19.0779 5.00514 19.1185 5.01833 19.1571C5.02323 19.1724 5.03283 19.1858 5.04576 19.1954C5.0587 19.205 5.07432 19.2102 5.09042 19.2104C5.10438 19.2115 5.11836 19.2085 5.13065 19.2018C5.14293 19.195 5.15299 19.1849 5.15958 19.1725C5.17706 19.1218 5.18401 19.0681 5.18 19.0146V18.375ZM6.13542 19.3621H5.97625L5.91292 19.1379H5.62125L5.56125 19.3621H5.40583L5.69042 18.375H5.84542L6.13542 19.3621ZM4.78042 18.5417H4.38917V18.7604H4.75333V18.9271H4.38917V19.1958H4.79417V19.3625H4.24292V18.375H4.78042V18.5417ZM6.36 19.3617H6.21375V18.375H6.52208C6.5796 18.3716 6.63718 18.3807 6.69083 18.4017C6.72854 18.4228 6.75793 18.4562 6.77417 18.4962C6.79599 18.5451 6.8068 18.5982 6.80583 18.6517C6.8084 18.7162 6.79172 18.78 6.75792 18.835C6.74155 18.8592 6.72038 18.8798 6.69573 18.8955C6.67107 18.9112 6.64345 18.9217 6.61458 18.9263C6.64475 18.9499 6.67116 18.978 6.69292 19.0096C6.72476 19.0608 6.75262 19.1145 6.77625 19.17L6.86458 19.3625H6.68958L6.58333 19.1488C6.5604 19.099 6.53467 19.0506 6.50625 19.0037C6.49542 18.9862 6.48019 18.9719 6.46208 18.9621C6.43855 18.9533 6.41343 18.9494 6.38833 18.9508H6.35875L6.36 19.3617ZM7.59833 19.3617H7.43917L7.375 19.1392H7.08333L7.02333 19.3633H6.86792L7.15375 18.375H7.30875L7.59833 19.3617ZM8.125 18.5417H7.91042V19.3617H7.76417V18.5417H7.54917V18.375H8.125V18.5417ZM8.75 19.3633H8.5V18.375H8.79167C8.83466 18.3737 8.87767 18.3769 8.92 18.3846C8.94851 18.3916 8.97466 18.4059 8.99583 18.4262C9.0201 18.4498 9.03912 18.4782 9.05167 18.5096C9.06687 18.5461 9.07439 18.5854 9.07375 18.625C9.07426 18.6689 9.06486 18.7123 9.04625 18.7521C9.03046 18.7877 9.00451 18.8178 8.97167 18.8388C9.01521 18.8556 9.05138 18.8873 9.07375 18.9283C9.09828 18.974 9.11048 19.0253 9.10917 19.0771C9.10922 19.1217 9.10146 19.166 9.08625 19.2079C9.07347 19.2462 9.05193 19.281 9.02333 19.3096C8.99632 19.3351 8.96189 19.3515 8.925 19.3563C8.90083 19.3601 8.8425 19.3625 8.75 19.3633ZM9.88792 19.3633H9.72875L9.66542 19.1392H9.37375L9.31375 19.3633H9.15833L9.44167 18.375H9.59667L9.88792 19.3633ZM10.1029 19.3633H9.96708V18.375H10.1096L10.4062 19.0342V18.375H10.5417V19.3621H10.3946L10.1029 18.7183V19.3633ZM10.8454 19.3633H10.6992V18.375H10.8454V18.8133L11.1412 18.375H11.3379L11.065 18.7596L11.3529 19.3621H11.1633L10.9642 18.8987L10.8454 19.0654V19.3633ZM4.14833 18.5417H3.93375V19.3617H3.7875V18.5417H3.57208V18.375H4.14833V18.5417ZM15.9446 19.2279H15.9029C15.8511 19.2271 15.8011 19.2086 15.7612 19.1754C15.7256 19.1444 15.6936 19.1094 15.6658 19.0712C15.6386 19.0336 15.6073 18.9991 15.5725 18.9683C15.5753 18.985 15.5767 19.0019 15.5767 19.0187C15.5765 19.0431 15.574 19.0674 15.5692 19.0912C15.5216 19.1535 15.4522 19.1953 15.375 19.2083C15.2984 19.2232 15.2205 19.2298 15.1425 19.2279C15.0513 19.2331 14.9598 19.2236 14.8717 19.1996C14.8381 19.1858 14.81 19.1613 14.7915 19.1301C14.7731 19.0988 14.7654 19.0623 14.7696 19.0263C14.7726 18.9366 14.8016 18.8498 14.8529 18.7762C14.8614 18.774 14.8704 18.775 14.8781 18.7791C14.8858 18.7832 14.8917 18.7901 14.8946 18.7983C14.87 18.8355 14.8564 18.8788 14.8554 18.9233C14.8549 18.9502 14.8645 18.9763 14.8823 18.9964C14.9002 19.0164 14.9249 19.029 14.9517 19.0317C15.0265 19.0433 15.1022 19.0478 15.1779 19.045C15.2553 19.0467 15.3328 19.0426 15.4096 19.0329C15.4496 19.0278 15.488 19.0135 15.5217 18.9912C15.4555 18.8925 15.3607 18.8163 15.25 18.7729C15.2514 18.6961 15.2586 18.6195 15.2717 18.5438C15.4456 18.4424 15.6338 18.3676 15.83 18.3221L15.7492 18.4954C15.6662 18.5173 15.5849 18.5452 15.5058 18.5788C15.4472 18.6015 15.3898 18.6273 15.3337 18.6558C15.4211 18.6922 15.5026 18.741 15.5758 18.8008C15.62 18.8368 15.6618 18.8756 15.7008 18.9171C15.7311 18.9499 15.7639 18.9804 15.7987 19.0083C15.8295 19.0319 15.8671 19.0449 15.9058 19.0454H15.9742C16.0714 19.0454 16.12 19.0315 16.12 19.0037C16.1047 18.9544 16.0788 18.9091 16.0442 18.8708L16.1475 18.7296C16.196 18.7904 16.223 18.8656 16.2242 18.9433C16.2179 19.0119 16.1958 19.0781 16.1596 19.1367C16.1335 19.1678 16.1004 19.1923 16.0631 19.2082C16.0257 19.224 15.9851 19.2308 15.9446 19.2279ZM16.6258 19.2279H16.5842C16.5485 19.2315 16.5126 19.223 16.4824 19.2037C16.4522 19.1844 16.4293 19.1555 16.4175 19.1217C16.3929 19.0167 16.3811 18.9091 16.3825 18.8013C16.3797 18.7179 16.3764 18.661 16.3725 18.6304C16.3669 18.5731 16.3528 18.517 16.3308 18.4637L16.4558 18.3346C16.4803 18.3813 16.4934 18.4331 16.4942 18.4858C16.4958 18.5106 16.4968 18.5628 16.4971 18.6425V18.8408C16.4954 18.8843 16.4997 18.9278 16.51 18.97C16.5143 18.9908 16.5258 19.0095 16.5425 19.0227C16.5592 19.0358 16.58 19.0427 16.6012 19.0421H16.6592C16.7564 19.0421 16.805 19.0282 16.805 19.0004C16.7897 18.9511 16.7638 18.9057 16.7292 18.8675L16.8325 18.7262C16.881 18.787 16.908 18.8622 16.9092 18.94C16.9029 19.0086 16.8808 19.0747 16.8446 19.1333C16.8184 19.1657 16.7847 19.1913 16.7465 19.2078C16.7082 19.2242 16.6665 19.2312 16.625 19.2279H16.6258ZM12.4037 18.9112C12.3979 18.9512 12.3849 18.9897 12.3654 19.025C12.351 19.0623 12.3298 19.0967 12.3029 19.1262C12.2446 19.1553 12.1822 19.1753 12.1179 19.1854C12.0058 19.212 11.8911 19.226 11.7758 19.2271C11.6714 19.239 11.5666 19.209 11.4842 19.1437C11.4477 19.1007 11.4297 19.045 11.4338 18.9887C11.4339 18.895 11.4618 18.8034 11.5137 18.7254H11.5212C11.5297 18.7245 11.5382 18.7263 11.5457 18.7303C11.5531 18.7344 11.5591 18.7407 11.5629 18.7483C11.5401 18.7947 11.526 18.8448 11.5212 18.8962C11.5212 18.9954 11.6279 19.0449 11.8413 19.0446C11.996 19.051 12.1504 19.0275 12.2962 18.9754C12.2779 18.9275 12.2531 18.8824 12.2225 18.8412L12.3246 18.7029C12.3493 18.7364 12.3682 18.7739 12.3804 18.8137C12.3931 18.8449 12.4009 18.8778 12.4037 18.9112ZM13.3525 19.2279H13.2604C13.2247 19.2315 13.1889 19.223 13.1587 19.2037C13.1284 19.1844 13.1056 19.1555 13.0937 19.1217C13.0691 19.0167 13.0573 18.9091 13.0587 18.8013C13.056 18.7179 13.0526 18.661 13.0487 18.6304C13.0431 18.5731 13.0291 18.517 13.0071 18.4637L13.1321 18.3346C13.1565 18.3813 13.1696 18.4331 13.1704 18.4858C13.1721 18.5106 13.1731 18.5628 13.1733 18.6425V18.8408C13.1716 18.8843 13.176 18.9278 13.1862 18.97C13.1906 18.9908 13.2021 19.0095 13.2187 19.0227C13.2354 19.0358 13.2562 19.0427 13.2775 19.0421H13.3862C13.4469 19.0438 13.5074 19.0363 13.5658 19.02C13.6274 18.997 13.6874 18.97 13.7454 18.9392C13.652 18.8975 13.5553 18.8638 13.4562 18.8383C13.4475 18.838 13.4387 18.8395 13.4305 18.8427C13.4223 18.8459 13.4149 18.8508 13.4087 18.8571C13.3911 18.8784 13.3763 18.902 13.3646 18.9271C13.3584 18.9299 13.3518 18.9315 13.345 18.9317C13.339 18.9316 13.3332 18.9299 13.3281 18.9268C13.323 18.9236 13.3189 18.9191 13.3162 18.9137C13.335 18.8581 13.3567 18.8034 13.3813 18.75C13.4113 18.6944 13.4401 18.6667 13.4679 18.6667C13.5319 18.6831 13.5938 18.7067 13.6525 18.7371C13.724 18.7745 13.8019 18.7983 13.8821 18.8075C13.9653 18.8039 14.0481 18.7931 14.1296 18.7754L14.0583 18.9379C13.9997 18.9443 13.9514 18.9515 13.9133 18.9596C13.9279 18.9876 13.9505 19.0105 13.9783 19.0254C14.0062 19.0403 14.0378 19.0464 14.0692 19.0429H14.2117C14.3089 19.0429 14.3575 19.029 14.3575 19.0012C14.3422 18.9519 14.3163 18.9066 14.2817 18.8683L14.385 18.7271C14.4335 18.7879 14.4605 18.8631 14.4617 18.9408C14.4554 19.0094 14.4333 19.0756 14.3971 19.1342C14.3716 19.1656 14.3391 19.1905 14.3022 19.2069C14.2652 19.2233 14.2249 19.2308 14.1846 19.2287H14.1287C14.0956 19.2304 14.0624 19.2252 14.0313 19.2135C14.0002 19.2019 13.9718 19.1839 13.9479 19.1608C13.9042 19.1103 13.8723 19.0507 13.8546 18.9862C13.7112 19.0876 13.626 19.1458 13.5988 19.1608C13.5239 19.2041 13.439 19.2272 13.3525 19.2279ZM8.76625 18.9333H8.64792V19.1971H8.78333C8.81693 19.1985 8.85058 19.1964 8.88375 19.1908C8.90602 19.1851 8.92516 19.1709 8.93708 19.1513C8.95179 19.126 8.95888 19.0971 8.9575 19.0679C8.95828 19.0419 8.95285 19.016 8.94167 18.9925C8.93194 18.9727 8.91577 18.9569 8.89583 18.9475C8.85381 18.9352 8.80994 18.9304 8.76625 18.9333ZM9.61708 18.975L9.51708 18.6087L9.41917 18.975H9.61708ZM5.86708 18.975L5.76708 18.6087L5.66917 18.975H5.86708ZM7.33 18.975L7.23 18.6087L7.13208 18.975H7.33ZM6.47458 18.5417H6.36042V18.7917H6.46875C6.513 18.7947 6.55745 18.7906 6.60042 18.7796C6.61875 18.771 6.63349 18.7562 6.64208 18.7379C6.65279 18.7147 6.65793 18.6893 6.65708 18.6637C6.65836 18.6356 6.65157 18.6077 6.6375 18.5833C6.63153 18.5734 6.62355 18.5648 6.61408 18.5582C6.60461 18.5515 6.59386 18.5469 6.5825 18.5446C6.54662 18.5415 6.51058 18.5405 6.47458 18.5417ZM8.7325 18.5417H8.64917V18.77H8.745C8.78045 18.7709 8.81592 18.7698 8.85125 18.7667C8.863 18.7651 8.8743 18.7611 8.88447 18.755C8.89464 18.7489 8.90347 18.7409 8.91042 18.7313C8.92573 18.7085 8.93333 18.6815 8.93208 18.6542C8.93322 18.628 8.9267 18.6021 8.91333 18.5796C8.90721 18.5702 8.89913 18.5622 8.88963 18.5562C8.88014 18.5503 8.86946 18.5464 8.85833 18.545C8.84333 18.5428 8.80139 18.5417 8.7325 18.5417ZM11.9067 18.6329L11.8071 18.7271L11.7083 18.6271L11.8096 18.5362L11.9067 18.6329ZM12.1525 18.62L12.0529 18.7133L11.9554 18.615L12.0575 18.5238L12.1525 18.62ZM16.2317 18.5279L16.1233 18.63L16.0171 18.5238L16.1271 18.4229L16.2317 18.5279ZM14.5571 18.5333L14.4646 18.6262L14.3704 18.5429L14.2846 18.6296L14.185 18.5417L14.2775 18.4471L14.3717 18.5304L14.4575 18.4425L14.5571 18.5333ZM8.96208 17.19L8.44083 15.7787H8.42875L8.39125 15.7717C8.37356 15.7677 8.35702 15.7597 8.34292 15.7483C8.3268 15.7344 8.3153 15.7159 8.30994 15.6953C8.30458 15.6747 8.30562 15.6529 8.31292 15.6329C8.31972 15.6162 8.33027 15.6012 8.34375 15.5892L8.36375 15.5725L8.19208 15.1075C8.17532 15.1184 8.15744 15.1275 8.13875 15.1346C8.11391 15.144 8.08825 15.1512 8.06208 15.1558C8.04875 15.1583 8.03542 15.16 8.02042 15.1617C7.99519 15.164 7.96981 15.164 7.94458 15.1617L8.80583 17.1917L8.96208 17.19ZM9.10833 17.19H9.24083L8.87167 15.8225C8.80417 15.8192 8.73708 15.8146 8.67 15.8083L9.10833 17.19ZM9.39625 17.19H9.52875L9.30167 15.8333H9.24042H9.10458L9.39625 17.19ZM9.66083 17.19H9.79333L9.69458 15.8333H9.6725H9.4975L9.66083 17.19ZM10.0708 17.19L10.1058 15.82C10.0569 15.8442 10.0006 15.849 9.94833 15.8333C9.93625 15.8333 9.92417 15.8333 9.91208 15.8333H9.89833L9.93125 17.1912L10.0708 17.19ZM10.3383 17.19L10.565 15.3104C10.5612 15.32 10.5575 15.33 10.5538 15.3396C10.5447 15.3606 10.534 15.3808 10.5217 15.4C10.4755 15.4627 10.4192 15.5172 10.355 15.5612L10.3221 15.5842L10.2042 17.1896L10.3383 17.19ZM10.6029 17.19L11.1108 14.825C11.0992 14.8504 11.0875 14.8758 11.0754 14.9012C11.0633 14.9267 11.0608 14.9308 11.045 14.9596C11.0238 15.0071 10.9934 15.05 10.9556 15.0857C10.9177 15.1215 10.8732 15.1494 10.8246 15.1679L10.8083 15.1717L10.4704 17.1883L10.6029 17.19ZM10.7579 17.19H10.8904L11.4704 15.3617C11.4611 15.3549 11.4527 15.3469 11.4454 15.3379C11.4316 15.3193 11.4214 15.2982 11.4154 15.2758C11.4024 15.2255 11.4004 15.1729 11.4096 15.1217C11.4096 15.1096 11.4142 15.0938 11.4167 15.08C11.4221 15.0529 11.4279 15.0258 11.4329 14.9967C11.4412 14.9404 11.4479 14.8837 11.4537 14.8275C11.4613 14.7571 11.4652 14.6863 11.4654 14.6154C11.4654 14.6004 11.4654 14.5854 11.4654 14.57L10.7579 17.19ZM11.0371 17.19H11.1917L11.865 15.6029C11.8535 15.6008 11.8422 15.5976 11.8313 15.5933C11.8082 15.5842 11.7875 15.57 11.7706 15.5518C11.7538 15.5337 11.7412 15.512 11.7337 15.4883C11.7276 15.465 11.7246 15.4408 11.725 15.4167V15.4092L11.6971 15.4062L11.0371 17.19ZM11.3592 17.19H11.5188L12.3133 15.7212C12.2594 15.7202 12.2056 15.7148 12.1525 15.705C12.1299 15.7012 12.1076 15.6958 12.0858 15.6887L11.3592 17.19ZM11.8908 17.19L12.8883 15.7083C12.7987 15.7083 12.7092 15.7083 12.6196 15.7121L11.7171 17.19H11.8908ZM12.2833 17.19L13.5087 15.6825H13.5017C13.4042 15.6883 13.3067 15.6937 13.21 15.6983L12.0975 17.19H12.2833ZM12.7596 17.19L14.2917 15.6304L14.1179 15.6417L13.9513 15.6529L12.5529 17.1904L12.7596 17.19ZM13.3379 17.19L15.2754 15.5596C15.2448 15.5733 15.2118 15.581 15.1783 15.5825H15.1558C15.1412 15.5825 15.1267 15.5825 15.1121 15.5825C15.0913 15.5825 15.0725 15.58 15.0513 15.5783C15.03 15.5767 15 15.5737 14.9746 15.5733C14.9329 15.5733 14.8912 15.5779 14.8496 15.5808L14.7804 15.5867L13.0437 17.19H13.3379ZM8.20833 14.8421H8.21583C8.22721 14.8415 8.23862 14.8415 8.25 14.8421L8.26458 14.8446L8.27833 14.8475L8.29167 14.8508H8.29667H8.30167H8.30792H8.31292H8.31708H8.3225L8.32875 14.8529L8.33708 14.8562L8.34417 14.8592L8.35125 14.8621L8.35958 14.8658L8.36542 14.8683L8.375 14.8729C8.40924 14.8899 8.44223 14.9092 8.47375 14.9308C8.53232 14.9674 8.585 15.0126 8.63 15.065C8.6735 15.1205 8.70296 15.1857 8.71587 15.2551C8.72878 15.3244 8.72477 15.3959 8.70417 15.4633C8.69251 15.5072 8.67319 15.5487 8.64708 15.5858C8.7025 15.5917 8.7575 15.5958 8.81375 15.5992H8.82125L8.86958 15.6017H8.88292L8.93292 15.6038H8.9525H8.99417H9.01458H9.05625H9.10125H9.26792H9.47375H9.67458H9.73417H9.79583H9.91667C9.93698 15.6033 9.95729 15.6042 9.9775 15.6063H9.985C9.98917 15.5929 9.99375 15.58 9.99917 15.5667C10.0107 15.5423 10.0271 15.5206 10.0475 15.5029C10.07 15.4857 10.0929 15.469 10.1162 15.4529L10.1758 15.4112L10.2054 15.3908L10.2346 15.37C10.2517 15.3571 10.2683 15.3438 10.285 15.3283L10.3017 15.3129L10.31 15.305L10.3183 15.2971L10.3263 15.2887L10.33 15.2846L10.3342 15.28L10.3375 15.2758L10.3412 15.2712L10.3467 15.2642L10.3496 15.2596C10.3598 15.2428 10.3679 15.2249 10.3737 15.2062C10.3817 15.1837 10.3896 15.1612 10.3983 15.1392C10.4071 15.1171 10.4067 15.1196 10.4158 15.1004C10.429 15.0747 10.4455 15.0509 10.465 15.0296C10.5033 14.9908 10.5526 14.9647 10.6062 14.955H10.6154H10.6263C10.6725 14.9487 10.7192 14.955 10.7654 14.9483C10.772 14.9476 10.7784 14.9457 10.7842 14.9425L10.7917 14.9583L10.7987 14.9521L10.8008 14.95L10.8075 14.9433L10.8137 14.9367L10.8196 14.9296L10.8254 14.9221V14.9196L10.8308 14.9121L10.8358 14.9046L10.8438 14.8921L10.8496 14.8825L10.8554 14.8725L10.8592 14.8654L10.8758 14.8342C10.9071 14.7721 10.9346 14.7092 10.9654 14.6454C10.9833 14.6113 11.0033 14.5783 11.0212 14.5442C11.0429 14.5025 11.0629 14.4608 11.0858 14.4221C11.0983 14.4004 11.1112 14.3804 11.1275 14.3587C11.143 14.3367 11.16 14.3157 11.1783 14.2958C11.1943 14.2789 11.2115 14.263 11.2296 14.2483L11.2442 14.2371L11.25 14.2325L11.2583 14.2267L11.2629 14.2238L11.2737 14.2167L11.2883 14.2075C11.3202 14.1817 11.3576 14.1635 11.3977 14.1546C11.4377 14.1456 11.4793 14.146 11.5192 14.1558C11.5372 14.1635 11.5538 14.174 11.5683 14.1871C11.5832 14.2003 11.5963 14.2154 11.6071 14.2321C11.6234 14.2578 11.6357 14.2859 11.6433 14.3154C11.656 14.3701 11.6636 14.4259 11.6658 14.4821C11.6708 14.5392 11.6733 14.5962 11.6729 14.6533C11.6729 14.7029 11.6696 14.7525 11.6654 14.8021V14.8054C11.6654 14.8165 11.6644 14.8275 11.6625 14.8383C11.6625 14.8517 11.6596 14.8654 11.6583 14.88V14.8829V14.8929L11.6562 14.9125V14.9225V14.9288V14.9371V14.9483L11.6537 14.9662V14.9742V14.9788V14.9837L11.6492 15.0192C11.6429 15.0646 11.6312 15.1092 11.6237 15.1546C11.6237 15.1671 11.6208 15.1796 11.6204 15.1925V15.1946C11.6512 15.1975 11.6825 15.1979 11.7137 15.2H11.73H11.7413H11.755H11.7621H11.7683H11.7779C11.7928 15.2027 11.8074 15.2066 11.8217 15.2117C11.8467 15.2203 11.8695 15.2345 11.8882 15.2533C11.9069 15.2721 11.921 15.2949 11.9296 15.32C11.9366 15.3437 11.9401 15.3682 11.94 15.3929H11.9871C12.029 15.3948 12.0694 15.4093 12.1029 15.4346C12.113 15.4425 12.1226 15.4509 12.1317 15.46C12.1403 15.4697 12.1498 15.4787 12.16 15.4867H12.1667H12.1733L12.1862 15.4896L12.2142 15.4946C12.2895 15.505 12.3657 15.5083 12.4417 15.5046H12.4592H12.485L12.5904 15.4996H12.6175H12.6442C12.7242 15.4996 12.8042 15.4996 12.8842 15.4971L13.0508 15.4921L13.1121 15.4896H13.1304L13.2083 15.4862L13.28 15.4829H13.2962L13.3725 15.4788H13.3883L13.6896 15.46L13.9154 15.445L14.1117 15.4317L14.1562 15.4287L14.3521 15.4167C14.4087 15.4125 14.4658 15.4071 14.5225 15.4017L14.6933 15.385H14.7129L14.7375 15.3829H14.7537L14.7788 15.3808L14.8329 15.3762C14.8746 15.3732 14.9162 15.3706 14.9579 15.3683H15.0025H15.0175C15.0592 15.3708 15.0967 15.375 15.1362 15.3762C15.1362 15.2996 15.1421 15.2225 15.145 15.1458L15.1483 15.0725L15.0892 15.0762H15.0696H14.9842H14.9633H14.9583H14.9454L14.9096 15.0787H14.9046H14.8846H14.8612H14.8392C14.7729 15.085 14.7067 15.0929 14.64 15.0992L14.5567 15.1054C14.5217 15.1054 14.4871 15.1079 14.4521 15.1075H14.4342H14.4187C14.3795 15.1032 14.3413 15.0926 14.3054 15.0762C14.2638 15.0575 14.2246 15.0346 14.1804 15.0146C14.1691 15.0103 14.1576 15.0066 14.1458 15.0037H14.1354H14.1321H14.125H14.1208H14.1146H14.1104H14.1042H14.0963H14.0829H14.0767H14.0617C14.0338 15.0012 14.0062 14.9996 13.9783 14.9967C13.9504 14.9937 13.955 14.9933 13.9317 14.9892C13.9064 14.9838 13.8815 14.9762 13.8575 14.9667C13.8323 14.9558 13.8078 14.9435 13.7842 14.9296L13.7642 14.9179L13.7508 14.9096L13.7454 14.9062H13.7429L13.7379 14.9029L13.7321 14.8992L13.7242 14.8942L13.7113 14.8858L13.7083 14.875L13.7046 14.8725L13.6729 14.8517L13.6558 14.8404L13.6454 14.8337L13.64 14.8304L13.6208 14.8183C13.6017 14.8072 13.5819 14.797 13.5617 14.7879L13.5525 14.7842H13.55H13.545L13.5354 14.7812H13.5317C13.5032 14.7734 13.4743 14.7675 13.445 14.7637C13.4121 14.7587 13.3792 14.755 13.3462 14.7517C13.3046 14.7475 13.2629 14.7446 13.2213 14.7429H13.2179H13.1942H13.0833H13.0671H13.0587H13.0425H13.035H13.0112L12.9842 14.7454H12.9762L12.9558 14.7479H12.9483L12.9217 14.7517L12.88 14.7575C12.8433 14.7629 12.8071 14.7688 12.7704 14.7733L12.705 14.78C12.6416 14.7855 12.5778 14.7846 12.5146 14.7775C12.4657 14.7733 12.4182 14.7591 12.375 14.7358L12.3679 14.7317H12.365L12.3612 14.7292L12.3546 14.7246L12.3333 14.7083L12.3283 14.7046L12.3237 14.7008L12.3208 14.6983L12.3137 14.6925L12.3079 14.6875H12.3054H12.3033L12.3008 14.6854L12.2958 14.6808L12.2879 14.6737L12.2758 14.6629C12.2621 14.6508 12.2483 14.6387 12.2342 14.6275C12.1787 14.5858 12.1192 14.5471 12.0629 14.5054L12.045 14.4908L12.04 14.4867L12.0354 14.4829L12.0233 14.4725L12.0146 14.4646L12.0117 14.4617L12.0063 14.4567L12.0037 14.4542L12.0012 14.4517L11.9975 14.4479L11.9937 14.4442L11.9912 14.4417L11.9888 14.4392L11.9833 14.4333L11.9804 14.4304L11.9692 14.4179L11.9587 14.4058L11.9562 14.4029L11.9517 14.3971L11.9496 14.3942V14.3917L11.9467 14.3879L11.9433 14.3829L11.9412 14.38V14.3779L11.9358 14.37V14.3675L11.9271 14.3542V14.3512L11.9221 14.3433V14.3408V14.3375L11.9192 14.3325L11.9171 14.3283V14.3254V14.3229V14.32L11.875 14.2875V14.2842L11.8692 14.2725V14.27L11.8637 14.2583V14.2546L11.8608 14.2483V14.2454V14.2425V14.2392V14.2354V14.2304V14.2267V14.2246V14.2225L11.8583 14.215V14.2104C11.8529 14.1946 11.8479 14.1783 11.8437 14.1621C11.8237 14.0846 11.8171 14.0046 11.8046 13.9258C11.8012 13.9079 11.7975 13.8904 11.7929 13.8729C11.7868 13.8478 11.7758 13.8241 11.7604 13.8033C11.7453 13.7861 11.7259 13.7731 11.7042 13.7658L11.6942 13.7625L11.6637 13.75H11.6525L11.6396 13.7475C11.6224 13.7444 11.605 13.7426 11.5875 13.7421H11.5771H11.5562C11.4859 13.7509 11.4179 13.7734 11.3562 13.8083L11.3267 13.8242C11.2621 13.8596 11.1992 13.8979 11.1346 13.9329C11.093 13.9545 11.0503 13.9738 11.0067 13.9908L11.0012 13.9929L10.9908 13.9971H10.9879H10.985H10.9796L10.9729 13.9996H10.9671H10.9625H10.9587H10.955L10.9458 14.0025H10.94L10.92 14.0092H10.9146L10.9029 14.0129H10.9H10.8971H10.8917L10.8846 14.015H10.8792H10.8746H10.8704H10.8663L10.8579 14.0175H10.8517H10.8492L10.8333 14.0217H10.83H10.8229L10.8121 14.0246H10.8088H10.8017H10.7954H10.7933L10.7587 14.0325L10.7408 14.0367L10.7225 14.0404H10.7175C10.6254 14.0596 10.5321 14.0733 10.4392 14.0854L10.4129 14.0887L10.3196 14.1L10.2779 14.1046H10.2712H10.26H10.2562H10.2492H10.2396H10.2279H10.2192H10.1579C10.097 14.1057 10.0364 14.0943 9.98 14.0712C9.93825 14.0527 9.89938 14.0283 9.86458 13.9987L9.85958 13.9946L9.85417 13.99L9.83 13.9679L9.82583 13.9642L9.82042 13.9587L9.81792 13.9558L9.81042 13.9479L9.80458 13.9417L9.80208 13.9392L9.78625 13.9225L9.78375 13.92L9.77583 13.9113L9.7725 13.9075L9.76833 13.9029L9.75333 13.8858L9.72625 13.855L9.71167 13.8383L9.70292 13.8287L9.69875 13.8242L9.68292 13.8067C9.66958 13.7929 9.65583 13.7796 9.64125 13.765L9.6325 13.7579L9.62958 13.7554L9.62375 13.7508L9.62 13.7479L9.61458 13.7442L9.58333 13.7708L9.57833 13.7675L9.57333 13.7646L9.56875 13.7617L9.56333 13.7583L9.55917 13.7558L9.55333 13.7525L9.55125 13.75L9.54417 13.7463C9.45931 13.7078 9.36936 13.6817 9.27708 13.6687L9.23542 13.6608L9.21667 13.6571H9.21083L9.15667 13.6467C9.12167 13.6392 9.08708 13.6313 9.0525 13.6217L9.03417 13.6163H9.02958L9.02083 13.6133H9.01708H9.01417H9.01H9.00417L8.99833 13.6112H8.99417H8.99125H8.9875L8.97917 13.6083H8.97458H8.97125L8.9575 13.6029H8.95542H8.9525L8.93958 13.5975L8.93375 13.595L8.92708 13.5921C8.86808 13.5662 8.81135 13.5354 8.7575 13.5C8.69373 13.4574 8.63251 13.411 8.57417 13.3612L8.57125 13.3588L8.55792 13.3475L8.55292 13.3429L8.55042 13.3408L8.53667 13.3292L8.53125 13.3246L8.52875 13.3225L8.49667 13.2946L8.48625 13.2858L8.44458 13.2479L8.39917 13.2087L8.36167 13.1775L8.34833 13.1663L8.32458 13.1467L8.27917 13.1096L8.24542 13.0817L8.22542 13.065L8.18042 13.0279L8.17333 13.0221L8.16833 13.0179L8.15625 13.0079L8.14375 12.9975L8.13792 12.9929L8.12958 12.9862L8.11792 12.9767L8.10708 12.9675L8.09125 12.9542C8.0225 12.8946 7.95458 12.8342 7.89 12.7696C7.84987 12.7318 7.81307 12.6907 7.78 12.6467C7.72768 12.5682 7.68881 12.4816 7.665 12.3904C7.6324 12.2706 7.61105 12.148 7.60125 12.0242C7.5975 11.9825 7.5975 11.9383 7.59417 11.8958C7.59261 11.8779 7.59011 11.8601 7.58667 11.8425C7.584 11.825 7.5765 11.8085 7.565 11.795C7.5605 11.7914 7.55523 11.7888 7.54958 11.7875C7.53177 11.7853 7.51372 11.7863 7.49625 11.7904C7.46958 11.795 7.44292 11.8004 7.41625 11.8046L7.38708 11.8075H7.365C7.34515 11.8075 7.32534 11.8057 7.30583 11.8021C7.27979 11.7958 7.25418 11.7879 7.22917 11.7783C7.16232 11.7595 7.10257 11.7212 7.0575 11.6683C7.03451 11.6313 7.01551 11.5919 7.00083 11.5508L6.99833 11.5458C6.98741 11.5411 6.97593 11.5377 6.96417 11.5358H6.94917H6.94292H6.9375H6.93292L6.92708 11.5379H6.92292L6.91875 11.54L6.91375 11.5429L6.90583 11.5483L6.875 11.5417C6.86708 11.5479 6.85958 11.5546 6.8525 11.5612C6.82125 11.5925 6.79333 11.6262 6.76292 11.6583C6.72125 11.7 6.675 11.7417 6.63375 11.7875C6.62417 11.7983 6.61458 11.8096 6.60583 11.8208C6.59167 11.8408 6.57833 11.8625 6.56417 11.8821L6.5575 11.8925L6.55 11.9042L6.53792 11.9233L6.53167 11.9333L6.52792 11.9392V11.9421L6.52083 11.9529L6.51625 11.96L6.51125 11.9675L6.50333 11.9788C6.49167 11.9946 6.48 12.01 6.46792 12.025C6.45207 12.0441 6.43435 12.0615 6.415 12.0771C6.38248 12.1001 6.34756 12.1195 6.31083 12.135L6.25833 12.1587L6.24792 12.1633L6.22208 12.1754H6.22L6.19042 12.19C6.17793 12.1968 6.16595 12.2044 6.15458 12.2129L6.14875 12.2183C6.14542 12.2329 6.14333 12.2471 6.14083 12.26L6.13875 12.2754C6.14628 12.2882 6.1531 12.3014 6.15917 12.315C6.17 12.3412 6.17792 12.3687 6.18917 12.395C6.19692 12.4038 6.20558 12.4118 6.215 12.4187C6.2375 12.4358 6.26042 12.4521 6.2825 12.47C6.29667 12.4825 6.29625 12.4821 6.31 12.4954C6.31958 12.5056 6.32862 12.5163 6.33708 12.5275C6.35083 12.5483 6.36333 12.5692 6.37583 12.5908C6.43708 12.7013 6.48583 12.8179 6.5425 12.9312C6.55875 12.9629 6.575 12.9946 6.59292 13.0254C6.62768 13.0847 6.66967 13.1394 6.71792 13.1883L6.72792 13.1979L6.73083 13.2004L6.74083 13.2092C6.81863 13.2751 6.90585 13.329 6.99958 13.3692L7.03542 13.3854L7.04667 13.3904L7.0675 13.3996L7.11958 13.4221L7.18125 13.4483L7.23792 13.4729L7.30958 13.505C7.33736 13.5178 7.36403 13.5317 7.38958 13.5467C7.43112 13.5677 7.47096 13.592 7.50875 13.6192C7.58588 13.681 7.65453 13.7527 7.71292 13.8325C7.72319 13.8458 7.73347 13.8597 7.74375 13.8742L7.74958 13.8825L7.75333 13.8879L7.75792 13.8942L7.76333 13.9017L7.7675 13.9075L7.77292 13.9154L7.78542 13.9342L7.79333 13.9462L7.79958 13.9562L7.81042 13.9746L7.81667 13.9858L7.82417 13.9992L7.82875 14.0075L7.83417 14.0183L7.83875 14.0275L7.84458 14.04C7.86972 14.0947 7.88873 14.152 7.90125 14.2108L7.90542 14.2317L7.90875 14.2487V14.2554V14.2675V14.2775V14.2862V14.2996V14.305L7.91667 14.3333L7.91917 14.3546V14.3725C7.92542 14.4417 7.92792 14.5112 7.92958 14.5808C7.92958 14.6433 7.93542 14.7058 7.9375 14.7687C7.9375 14.815 7.9375 14.8617 7.9375 14.9079C7.9382 14.9219 7.93987 14.9358 7.9425 14.9496C7.97814 14.9563 8.01491 14.9535 8.04917 14.9417L8.06 14.9379H8.06292C8.06569 14.9308 8.06889 14.9238 8.0725 14.9171C8.07923 14.9052 8.08765 14.8944 8.0975 14.885L8.10458 14.8792L8.11042 14.8746L8.11625 14.8704L8.12292 14.8663L8.12958 14.8625L8.13625 14.8592L8.14333 14.8562L8.15042 14.8533L8.1575 14.8508L8.16458 14.8488H8.17208H8.18167H8.18875H8.19583L8.20833 14.8421ZM8.48917 15.2338L8.51708 15.3217C8.51389 15.2906 8.50409 15.2607 8.48833 15.2338H8.48917ZM6.42208 5.30208C6.39245 5.29033 6.36155 5.28208 6.33 5.2775L6.30958 5.27458H6.30292H6.28875H6.28083H6.26792H6.25958H6.24625H6.125H6.11458H6.10375H6.09542L6.04542 5.27917L6.02667 5.28125L5.97375 5.28833L5.95583 5.29125C5.9625 5.23917 5.96875 5.18708 5.97458 5.13458L5.97792 5.10167L5.98125 5.06708L5.98542 5.02292L5.98792 4.99292V4.97583L5.99167 4.92792C5.99458 4.88083 5.9975 4.83375 5.99917 4.78667C5.99917 4.755 5.99917 4.72292 6.00125 4.69125C6.00333 4.65958 6.00125 4.62917 6.00125 4.59833C6.00125 4.5675 5.99875 4.54458 5.99625 4.51042C5.99369 4.44492 5.98032 4.3803 5.95667 4.31917C5.95135 4.30305 5.94238 4.28838 5.93045 4.27631C5.91852 4.26424 5.90397 4.25509 5.88792 4.24958C5.87768 4.24834 5.86732 4.24834 5.85708 4.24958H5.85H5.8475H5.84292H5.84H5.83583H5.83292H5.82875H5.82583H5.82167H5.81917H5.81458H5.81208L5.80625 4.2525L5.795 4.25833L5.78542 4.26375L5.77708 4.26875L5.77292 4.27125L5.76208 4.27875L5.74958 4.28792C5.70799 4.31953 5.66833 4.35362 5.63083 4.39C5.5475 4.47 5.46708 4.5525 5.38458 4.63292C5.34583 4.67 5.30667 4.70625 5.26625 4.74167C5.23292 4.77111 5.19847 4.79889 5.16292 4.825C5.13542 4.84583 5.10667 4.86667 5.07958 4.885C5.05833 4.89875 5.03792 4.91208 5.01417 4.92417C4.94451 4.96424 4.86835 4.99174 4.78917 5.00542C4.77398 5.00773 4.75868 5.00926 4.74333 5.01H4.72792C4.70745 5.01012 4.68704 5.00789 4.66708 5.00333C4.63371 4.9952 4.60209 4.98108 4.57375 4.96167C4.51183 4.91583 4.45851 4.85941 4.41625 4.795L4.39708 4.76792V4.765L4.39292 4.75917C4.35125 4.69917 4.30958 4.6375 4.26792 4.5775C4.24458 4.54583 4.22125 4.515 4.19625 4.48417C4.13918 4.41308 4.06955 4.35306 3.99083 4.30708C3.97341 4.29748 3.95547 4.28885 3.93708 4.28125C3.9277 4.27675 3.91775 4.27352 3.9075 4.27167C3.88611 4.27037 3.86471 4.27408 3.845 4.2825C3.80234 4.29855 3.76448 4.32523 3.735 4.36C3.71218 4.38668 3.69566 4.41815 3.68667 4.45208C3.68188 4.47249 3.67882 4.49325 3.6775 4.51417C3.67417 4.5525 3.67333 4.59125 3.67375 4.63C3.67664 4.75577 3.68917 4.88114 3.71125 5.005C3.72708 5.09958 3.74708 5.19333 3.77125 5.28625L3.77333 5.29417L3.78333 5.33083V5.33583L3.79375 5.3725V5.3775L3.80292 5.40792L3.80583 5.41708L3.81708 5.45208C3.84053 5.52454 3.86836 5.5955 3.90042 5.66458L3.91125 5.6875L3.915 5.695L3.92292 5.71042L3.9325 5.72792V5.73083L3.94333 5.74958L3.94958 5.76042L3.95208 5.76417C3.9575 5.77292 3.96292 5.78125 3.96875 5.79L3.97667 5.80167L3.98375 5.81167L3.99083 5.82125L3.99792 5.83042L4.01125 5.84625L4.02292 5.97375L4.02667 6.0125V6.03375L4.0325 6.09333C4.04241 6.25401 4.08093 6.41162 4.14625 6.55875C4.16482 6.59359 4.18614 6.62689 4.21 6.65833C4.24208 6.7 4.275 6.74417 4.30917 6.78583L4.35083 6.83792L4.35958 6.84833L4.38167 6.875L4.42708 6.92958L4.44917 6.95625L4.45833 6.96708L4.48125 6.99458L4.49667 7.01292L4.53833 7.06417C4.57861 7.11472 4.61792 7.16569 4.65625 7.21708C4.68208 7.2525 4.70708 7.28792 4.73167 7.32417C4.75753 7.35888 4.77842 7.39702 4.79375 7.4375C4.80882 7.48837 4.81668 7.54111 4.81708 7.59417C4.81855 7.65638 4.81563 7.71862 4.80833 7.78042V7.78417L4.805 7.81125C4.77732 8.01313 4.73158 8.21213 4.66833 8.40583C4.65 8.46389 4.63056 8.52153 4.61 8.57875C4.59653 8.61071 4.58484 8.6434 4.575 8.67667C4.574 8.68246 4.5733 8.6883 4.57292 8.69417C4.57852 8.75131 4.60421 8.80461 4.64542 8.84458C4.68708 8.89 4.72875 8.93292 4.76792 8.97917C4.78235 8.9961 4.79492 9.01454 4.80542 9.03417C4.81979 9.06777 4.82743 9.10387 4.82792 9.14042C4.82792 9.18583 4.82792 9.23125 4.83125 9.27667V9.29125V9.29417V9.30792C4.83386 9.33199 4.83946 9.35564 4.84792 9.37833C4.85964 9.40793 4.87837 9.43424 4.9025 9.455C4.91146 9.46283 4.92093 9.47007 4.93083 9.47667L4.94167 9.48375L4.95292 9.49042L4.96417 9.49667L4.97417 9.50208H4.97708L4.98958 9.50792H4.99375L5.00833 9.51417L5.02375 9.52042H5.02792L5.03542 9.52333L5.05083 9.52917H5.05667L5.07667 9.53583C5.10083 9.54375 5.11208 9.54708 5.13625 9.55458C5.22708 9.58083 5.31917 9.60375 5.41 9.63L5.44125 9.63958L5.46875 9.64792L5.47583 9.65L5.48458 9.65292L5.49833 9.65708L5.50875 9.66042L5.51667 9.66333L5.5275 9.66708L5.53458 9.66958L5.54125 9.67208L5.54833 9.67458L5.55625 9.6775L5.565 9.68083L5.57375 9.68375L5.57958 9.68583L5.58542 9.68792L5.59583 9.69208L5.60625 9.69625L5.615 9.7C5.63333 9.70722 5.65153 9.71486 5.66958 9.72292C5.72507 9.74764 5.77856 9.77662 5.82958 9.80958C5.85843 9.82835 5.88625 9.84866 5.91292 9.87042C5.93501 9.88727 5.95513 9.90656 5.97292 9.92792C6.02361 10.006 6.04812 10.0983 6.04292 10.1912C6.04292 10.2125 6.04292 10.2329 6.04292 10.2554C6.04292 10.2892 6.04083 10.3171 6.03958 10.3525C6.03958 10.3996 6.03958 10.3996 6.03667 10.4467C6.03667 10.4758 6.03667 10.505 6.03667 10.5342C6.03595 10.5658 6.04147 10.5972 6.05291 10.6266C6.06435 10.6561 6.08148 10.683 6.10333 10.7058C6.12226 10.7187 6.14219 10.7299 6.16292 10.7396C6.16977 10.7444 6.17631 10.7497 6.1825 10.7554C6.21755 10.7939 6.24347 10.8397 6.25833 10.8896C6.27509 10.9403 6.28763 10.9923 6.29583 11.045C6.31503 11.1669 6.32561 11.29 6.3275 11.4133V11.4496V11.6121V11.6358V11.6496C6.3275 11.6642 6.3275 11.6788 6.3275 11.6912V11.7304L6.38042 11.7671L6.405 11.7279L6.43 11.6892L6.43958 11.6763L6.44917 11.6637L6.4575 11.6533L6.46958 11.6388C6.51958 11.5825 6.57583 11.5333 6.62708 11.4787C6.64875 11.4546 6.66875 11.4304 6.69208 11.4067C6.7124 11.3856 6.73412 11.366 6.75708 11.3479C6.7721 11.3364 6.78798 11.3261 6.80458 11.3171L6.81167 11.3133L6.81875 11.31L6.82625 11.3067L6.83333 11.3038L6.84083 11.3008L6.84792 11.2979L6.85833 11.2942H6.86333H6.87L6.88042 11.2917H6.88625H6.8925H6.90292H6.91H6.91583H6.92625H6.95417C6.96333 11.2917 6.97264 11.2925 6.98208 11.2942C7.00774 11.2977 7.0329 11.3041 7.05708 11.3133C7.08352 11.3226 7.10798 11.3367 7.12917 11.355C7.15701 11.3829 7.17835 11.4166 7.19167 11.4537C7.1985 11.473 7.20658 11.4918 7.21583 11.51C7.22075 11.5152 7.22636 11.5197 7.2325 11.5233C7.25071 11.5334 7.26982 11.5418 7.28958 11.5483L7.31125 11.5562L7.31958 11.5592L7.33 11.5625L7.34208 11.5654C7.34985 11.5661 7.35765 11.5661 7.36542 11.5654C7.4025 11.5612 7.43875 11.5529 7.47542 11.5471C7.49292 11.5471 7.50917 11.5437 7.52667 11.5433C7.552 11.5434 7.57721 11.5467 7.60167 11.5533C7.61799 11.558 7.63378 11.5645 7.64875 11.5725C7.66551 11.5815 7.68118 11.5924 7.69542 11.605C7.75159 11.6621 7.78531 11.7376 7.79042 11.8175C7.79542 11.8687 7.79583 11.92 7.8 11.9713C7.80933 12.0883 7.83012 12.2041 7.86208 12.3171C7.88162 12.3885 7.91457 12.4555 7.95917 12.5146C7.97083 12.5279 7.98333 12.5408 7.99583 12.5538L8.02875 12.5871L8.0575 12.615L8.08667 12.6425L8.09833 12.6533L8.11625 12.6696L8.12875 12.6808L8.14625 12.6962L8.15917 12.7075L8.17667 12.7229L8.18917 12.7338L8.20708 12.7496L8.21875 12.7596L8.23792 12.7758L8.24833 12.7846L8.26625 12.7996L8.29125 12.8204L8.33292 12.8554L8.34333 12.8642C8.40333 12.9137 8.46417 12.9633 8.52417 13.0133C8.59042 13.07 8.65583 13.1279 8.72292 13.1842C8.77402 13.2265 8.82744 13.266 8.88292 13.3025L8.90417 13.3158L8.92583 13.3287L8.9475 13.3413L8.95833 13.3471L8.96958 13.3529L8.98083 13.3583L8.99208 13.3637L9.00333 13.3692L9.015 13.3742L9.02667 13.3792L9.03833 13.3838L9.05 13.3883L9.06167 13.3925L9.08125 13.3992L9.10083 13.4054L9.10875 13.4079L9.12042 13.4113L9.12917 13.4137L9.14042 13.4167L9.14958 13.4192L9.16042 13.4217L9.17042 13.4242L9.18 13.4262L9.19125 13.4288L9.2125 13.4333C9.275 13.4462 9.3375 13.4563 9.40042 13.4692C9.42833 13.4754 9.45583 13.4821 9.48375 13.4896C9.50208 13.495 9.52042 13.5004 9.53833 13.5067L9.5475 13.5096L9.56333 13.515L9.57875 13.5208L9.59417 13.5271L9.605 13.5317L9.6175 13.5371L9.62458 13.5404L9.63 13.5429L9.63958 13.5475H9.6425L9.65458 13.5537L9.66792 13.5612L9.67875 13.5675L9.68333 13.5704L9.69042 13.575L9.69708 13.5792L9.70167 13.5825L9.71083 13.5887H9.71333L9.72458 13.5971L9.73333 13.6038L9.74083 13.61L9.75458 13.6217L9.75875 13.625L9.76375 13.6296L9.77083 13.6363L9.775 13.64L9.77958 13.6442L9.78583 13.65L9.79125 13.655L9.795 13.6592L9.8 13.6642L9.80625 13.6708L9.81375 13.6788L9.82125 13.6867L9.8275 13.6933L9.84083 13.7083L9.85042 13.7192C9.88292 13.7554 9.91417 13.7929 9.9475 13.8283C9.96083 13.8417 9.97417 13.8542 9.98917 13.8662C10.0123 13.8864 10.0386 13.9024 10.0671 13.9137C10.0951 13.9226 10.1244 13.9269 10.1537 13.9262H10.1742H10.1908H10.2075H10.2242H10.2408H10.2575L10.2908 13.9221L10.3825 13.9108L10.4167 13.9133L10.4479 13.9092C10.5363 13.8971 10.6246 13.8821 10.7117 13.8625L10.7421 13.8554L10.7617 13.8504L10.7771 13.8467L10.7954 13.8417L10.8137 13.8367L10.8321 13.8312L10.85 13.8258L10.8687 13.82L10.8875 13.8137L10.8958 13.8108L10.9062 13.8071L10.9146 13.8042L10.925 13.8004L10.9329 13.7975L10.9513 13.79L10.9696 13.7825L10.9804 13.7779L10.9875 13.7746L11.0054 13.7663L11.0233 13.7575C11.1046 13.7158 11.1817 13.6662 11.2625 13.6237C11.3053 13.6016 11.3496 13.5826 11.395 13.5667L11.4042 13.5638L11.4187 13.5592L11.4333 13.555L11.4483 13.5512L11.4633 13.5475L11.4792 13.5442L11.4937 13.5413H11.5062H11.5188H11.5317H11.5392H11.5417H11.5533H11.5825H11.6204H11.6317L11.6612 13.5446H11.6725L11.6854 13.5471L11.6983 13.55L11.7087 13.5525L11.7383 13.5612C11.7913 13.5776 11.8397 13.6061 11.8796 13.6446C11.9002 13.6653 11.918 13.6887 11.9325 13.7142C11.9503 13.7448 11.9643 13.7776 11.9742 13.8117L11.9762 13.8192L11.9788 13.8292L11.9821 13.8437L11.9862 13.8633L11.9896 13.8796V13.8862V13.8967L11.9921 13.9113L11.995 13.9317L11.9996 13.965V13.9792L12.0042 14.0112L12.0067 14.0287V14.0404V14.0467L12.01 14.0671C12.0142 14.0867 12.0187 14.1058 12.0242 14.125L12.0275 14.1354L12.0312 14.1454L12.0354 14.1554L12.0396 14.1654L12.0442 14.1754L12.0487 14.185L12.0538 14.1946L12.0592 14.2042L12.0646 14.2133L12.0704 14.2225L12.0763 14.2317L12.0825 14.2404L12.0887 14.2492L12.0954 14.2575L12.1025 14.2658L12.11 14.2742C12.1305 14.2956 12.1526 14.3154 12.1762 14.3333C12.2292 14.3725 12.2846 14.4087 12.3379 14.4475L12.3529 14.4596L12.3675 14.4721L12.375 14.4783L12.4079 14.5071L12.4125 14.5108L12.4271 14.5233L12.4417 14.5354L12.4563 14.5471C12.4668 14.5549 12.4783 14.5615 12.4904 14.5667C12.505 14.5709 12.5199 14.5737 12.535 14.575H12.5458H12.5567H12.5675H12.5783H12.6262C12.7353 14.5677 12.8439 14.5547 12.9517 14.5363C12.9854 14.5329 12.9854 14.5329 13.0192 14.5304H13.0546H13.0612H13.0954H13.1788H13.2137H13.2183L13.2921 14.5342H13.295L13.3329 14.5371L13.3967 14.5433C13.4728 14.5488 13.5478 14.5641 13.62 14.5887L13.6333 14.5942H13.6371L13.6542 14.6017L13.6608 14.605L13.6654 14.6071L13.6708 14.6096L13.6812 14.615L13.6871 14.6183L13.6967 14.6237L13.7033 14.6275L13.7121 14.6325L13.7196 14.6371L13.7275 14.6417L13.7358 14.6467L13.7429 14.6508L13.7579 14.6604L13.7742 14.6708L13.7833 14.6767L13.8146 14.6975L13.8467 14.7183L13.8617 14.7279L13.8771 14.7375L13.8921 14.7458L13.9079 14.7542L13.9362 14.7679C13.9578 14.7758 13.9801 14.7812 14.0029 14.7837C14.0496 14.7887 14.0962 14.7913 14.1429 14.7971C14.1692 14.8009 14.1953 14.8065 14.2208 14.8138L14.2304 14.8167H14.2354L14.2446 14.82L14.2575 14.825C14.3017 14.8433 14.3408 14.8667 14.3854 14.8888C14.395 14.8929 14.4042 14.8962 14.4142 14.8996C14.4196 14.9011 14.4252 14.9022 14.4308 14.9029C14.4429 14.9029 14.4554 14.9029 14.4675 14.9029H14.5042C14.5458 14.9029 14.5875 14.8979 14.6292 14.8942C14.6165 14.7011 14.6293 14.5072 14.6675 14.3175L14.6721 14.2942L14.6767 14.2733L14.6817 14.2512L14.6842 14.2413C14.6919 14.2079 14.7006 14.1749 14.71 14.1421C14.7241 14.0901 14.7429 14.0394 14.7662 13.9908C14.8226 13.8886 14.8927 13.7945 14.9746 13.7112C15 13.6833 15.0258 13.6554 15.0513 13.6279C15.0625 13.6154 15.0725 13.6025 15.0846 13.5912C15.0903 13.5866 15.0964 13.5826 15.1029 13.5792C15.1415 13.5656 15.1833 13.5646 15.2225 13.5763H15.2254C15.2708 13.5867 15.315 13.6008 15.3604 13.6112C15.3766 13.615 15.393 13.6171 15.4096 13.6175H15.415C15.426 13.6171 15.4367 13.6141 15.4462 13.6087C15.4615 13.599 15.4744 13.5861 15.4842 13.5708C15.5079 13.5364 15.5192 13.495 15.5162 13.4533C15.5153 13.435 15.5091 13.4173 15.4983 13.4025C15.4914 13.3946 15.4831 13.3881 15.4738 13.3833C15.4488 13.3708 15.4225 13.3608 15.3967 13.3504L15.3433 13.3279C15.3265 13.3199 15.3101 13.311 15.2942 13.3012C15.278 13.2907 15.2639 13.2773 15.2525 13.2617C15.2368 13.2351 15.2274 13.2053 15.225 13.1746C15.2188 13.1225 15.2171 13.0704 15.2133 13.0183V13.005V12.9887L15.2108 12.9662C15.2048 12.9139 15.1908 12.8627 15.1692 12.8146L15.1646 12.8058V12.8029L15.1613 12.7971V12.7937L15.1583 12.7883V12.785L15.155 12.78V12.7767L15.1512 12.7712V12.7683L15.1467 12.7617L15.1408 12.7537V12.7513L15.1367 12.7458L15.1342 12.7429L15.1304 12.7383L15.1279 12.7354L15.1242 12.7308L15.1213 12.7279L15.1187 12.7254L15.1075 12.7137L15.0958 12.7021L15.0837 12.6908L15.0762 12.6846L15.0675 12.6771L15.0608 12.6717L15.0521 12.6646L15.045 12.6587L15.0367 12.6525L15.0292 12.6467L15.0217 12.6412C15.0092 12.6321 14.9962 12.6233 14.9833 12.6146L14.98 12.6121L14.945 12.5896C14.8775 12.5479 14.8088 12.5063 14.7421 12.4646C14.7067 12.4408 14.6721 12.4163 14.6392 12.3896L14.6362 12.3871L14.6292 12.3812L14.6246 12.3775L14.6221 12.3754H14.6196L14.6154 12.3721L14.6083 12.3658L14.605 12.3629L14.59 12.3492L14.5775 12.3375L14.5746 12.3346L14.5683 12.3283L14.5646 12.3246L14.5621 12.3221L14.5596 12.3196L14.5558 12.3158L14.5496 12.3092L14.5467 12.3058L14.5329 12.2908C14.4878 12.2396 14.4497 12.1826 14.4196 12.1212L14.4113 12.1037L14.4042 12.0867V12.0846L14.3975 12.0679V12.0658V12.0625L14.375 12.0417L14.3725 12.0342V12.0312V12.0279L14.3704 12.0208V12.015V12.0121V12.0075L14.3683 12V11.9958V11.9929V11.9867V11.9788V11.9746L14.3663 11.9658V11.9571L14.3637 11.945C14.3381 11.7728 14.3434 11.5974 14.3796 11.4271C14.3867 11.3829 14.3904 11.365 14.3992 11.3142C14.4017 11.3012 14.405 11.2887 14.4088 11.2762C14.4353 11.2044 14.4759 11.1387 14.5283 11.0829C14.5833 11.0204 14.6442 10.9637 14.7008 10.9033C14.7179 10.8842 14.7179 10.8842 14.7346 10.865C14.7633 10.8374 14.7849 10.8035 14.7978 10.7658C14.8107 10.7282 14.8145 10.6881 14.8088 10.6487C14.8039 10.6304 14.7966 10.6127 14.7871 10.5962C14.7751 10.5761 14.7602 10.5579 14.7429 10.5421C14.7167 10.5188 14.6873 10.4996 14.6554 10.485L14.64 10.4779L14.6279 10.4729L14.6162 10.4683H14.6133L14.6025 10.4646H14.5983L14.5883 10.4613H14.5833L14.5738 10.4583H14.5679L14.5588 10.4558H14.5525L14.5437 10.4533H14.5367H14.5287H14.5229L14.5138 10.4513H14.5067H14.4979H14.4908H14.4821H14.475H14.4663H14.4596H14.4504H14.4438H14.4342H14.4279H14.4233L14.3792 10.4167H14.3587H14.3521H14.3383H14.3304H14.3179H14.3092H14.2971H14.1054H14.0896H14.0867H14.0687H14.055H14.0333H14.0254C14.0001 10.2472 13.9803 10.0771 13.9658 9.90625C13.9508 9.73125 13.9408 9.55583 13.9408 9.38042C13.9408 9.35264 13.9408 9.32583 13.9408 9.3V9.2725V9.23625V9.21042V9.18083V9.16417V9.15125V9.12542C13.9408 9.11417 13.9408 9.10333 13.9433 9.09208C13.9458 9.06542 13.9487 9.03875 13.9521 9.01208C13.9521 8.9975 13.9563 8.98333 13.9571 8.97042C13.9568 8.96217 13.956 8.95396 13.9546 8.94583C13.9271 8.87864 13.8755 8.82412 13.81 8.79292L13.7733 8.76958C13.7492 8.75417 13.7246 8.73875 13.7008 8.7225C13.6837 8.71042 13.6842 8.71042 13.6675 8.69792L13.6567 8.68875H13.6546L13.6496 8.68458L13.6471 8.68208H13.645L13.6417 8.67875L13.6337 8.67083L13.6233 8.65958V8.6575C13.6148 8.64579 13.608 8.63287 13.6033 8.61917C13.5945 8.58534 13.596 8.54966 13.6075 8.51667C13.6337 8.43629 13.6737 8.36112 13.7258 8.29458C13.7471 8.26458 13.7675 8.23583 13.7921 8.20708C13.8167 8.17833 13.8387 8.14875 13.8642 8.11792C13.9058 8.06792 13.9475 8.01792 13.9858 7.96667C14.0088 7.93667 14.0312 7.90625 14.0529 7.87542C14.107 7.80228 14.1484 7.72059 14.1754 7.63375C14.1996 7.54055 14.2136 7.44498 14.2171 7.34875V7.31708V7.20833V7.18833V7.17625V7.15417V7.14458L14.2146 7.11333V7.10458L14.2121 7.08167V7.06875L14.21 7.05V7.03583L14.2075 7.01875L14.2054 7.00375L14.2029 6.9875L14.2004 6.97208L14.1975 6.95667L14.1946 6.94083L14.1917 6.92667C14.1886 6.91139 14.1854 6.89625 14.1821 6.88125C14.1771 6.85819 14.1715 6.83528 14.1654 6.8125C14.1446 6.71991 14.1081 6.63155 14.0575 6.55125C13.9917 6.45917 13.9063 6.38277 13.8075 6.3275C13.7787 6.31083 13.7496 6.29542 13.7196 6.28125C13.7034 6.27302 13.6867 6.26579 13.6696 6.25958C13.6442 6.25155 13.6181 6.2457 13.5917 6.24208C13.525 6.23333 13.4575 6.23 13.3904 6.2225C13.3405 6.22205 13.2922 6.20439 13.2537 6.1725C13.2376 6.15162 13.2256 6.12787 13.2183 6.1025C13.2058 6.06083 13.1954 6.01917 13.1829 5.9775C13.1745 5.94808 13.1592 5.92108 13.1383 5.89875L13.1337 5.89458L13.1304 5.89208H13.1275H13.1254H13.1225H13.1204H13.1171H13.115H13.1117H13.1096H13.1058H13.1H13.0958H13.0871H13.08H13.075H13.0679H13.0629H13.0517C13.0052 5.88663 12.9585 5.88371 12.9117 5.88333C12.7625 5.88042 12.6133 5.88792 12.4642 5.89792L12.3933 5.90292L12.315 5.90875L12.2867 5.91125C12.2779 5.89667 12.2688 5.8825 12.2596 5.86958C12.2417 5.84375 12.2229 5.81917 12.2033 5.79417C12.1313 5.7056 12.0471 5.62761 11.9533 5.5625C11.9133 5.53379 11.8706 5.50896 11.8258 5.48833L11.815 5.48375H11.8117L11.8042 5.48083H11.8004L11.7925 5.47792H11.7896L11.7792 5.47458H11.7771C11.7407 5.46354 11.7035 5.45532 11.6658 5.45C11.5888 5.43915 11.5111 5.43427 11.4333 5.43542C11.3169 5.43673 11.2007 5.44397 11.085 5.45708H11.07L11.0229 5.4625L10.96 5.47C10.9017 5.47708 10.8438 5.485 10.7854 5.49167C10.7612 5.49417 10.7375 5.49625 10.7137 5.49958C10.6983 5.5025 10.6833 5.50583 10.6683 5.51C10.5683 5.5444 10.4759 5.59789 10.3962 5.6675C10.3129 5.73625 10.2296 5.81125 10.1462 5.88167C10.1183 5.90458 10.1183 5.90458 10.09 5.92667C10.0188 5.98328 9.93884 6.02802 9.85333 6.05917L9.83792 6.06375L9.82292 6.0675V6.07125C9.82116 6.13203 9.81405 6.19255 9.80167 6.25208C9.79861 6.27736 9.79556 6.30278 9.7925 6.32833C9.7875 6.36583 9.7825 6.40333 9.77583 6.44042C9.77125 6.46542 9.76625 6.49 9.76042 6.515C9.75516 6.53712 9.74876 6.55896 9.74125 6.58042C9.7309 6.61099 9.71616 6.63991 9.6975 6.66625L9.69417 6.67042L9.69167 6.67375L9.68875 6.6775L9.68667 6.67958L9.68375 6.68292L9.68125 6.68542L9.67833 6.68833L9.67083 6.69458L9.66333 6.70042L9.625 6.66667H9.62208L9.6175 6.66917C9.60429 6.67579 9.59029 6.68069 9.57583 6.68375C9.56694 6.68581 9.55787 6.68707 9.54875 6.6875H9.54333C9.52547 6.68764 9.5081 6.68161 9.49417 6.67042C9.47753 6.65624 9.46344 6.63933 9.4525 6.62042C9.44708 6.61208 9.44208 6.60333 9.43708 6.59458C9.39529 6.61174 9.35225 6.62567 9.30833 6.63625C9.20351 6.65839 9.09672 6.66984 8.98958 6.67042C8.91417 6.67042 8.83875 6.67042 8.76333 6.67042C8.69875 6.67042 8.63375 6.67042 8.56917 6.67042C8.5175 6.66792 8.46667 6.66333 8.41542 6.65708C8.37792 6.65208 8.34 6.64625 8.3025 6.64H8.28625C8.26917 6.64 8.25167 6.64208 8.23458 6.6425H8.2125C8.14373 6.64466 8.07532 6.63172 8.01208 6.60458L7.98458 6.59083C7.96208 6.58833 7.94 6.58667 7.9175 6.58583C7.86542 6.58583 7.81292 6.58792 7.76083 6.58833C7.73792 6.58833 7.71542 6.58833 7.6925 6.58458C7.66376 6.58175 7.63565 6.57444 7.60917 6.56292C7.58654 6.55193 7.56551 6.53792 7.54667 6.52125C7.5199 6.49733 7.49484 6.47158 7.47167 6.44417C7.41958 6.38375 7.37042 6.31917 7.3175 6.26125C7.30167 6.24417 7.28583 6.2275 7.26917 6.21125C7.2223 6.15957 7.15928 6.12534 7.09042 6.11417H7.08333L7.03625 6.1L7.00042 6.10292H6.99542H6.975H6.93333H6.91958C6.9012 6.10285 6.88284 6.10174 6.86458 6.09958C6.83495 6.09649 6.80598 6.08876 6.77875 6.07667C6.74114 6.05844 6.70981 6.02943 6.68875 5.99333L6.55042 5.95167C6.52625 5.89458 6.49792 5.83958 6.47333 5.785C6.46382 5.76225 6.45547 5.73902 6.44833 5.71542C6.43568 5.66833 6.42622 5.62044 6.42 5.57208C6.4032 5.4828 6.4039 5.3911 6.42208 5.30208ZM7.36125 13.7817L7.725 14.6392C7.725 14.6211 7.725 14.6031 7.725 14.585C7.725 14.5404 7.72208 14.4958 7.72 14.4512C7.7175 14.4154 7.71458 14.38 7.71042 14.3446C7.70286 14.2793 7.68675 14.2153 7.6625 14.1542C7.62734 14.0789 7.58206 14.0088 7.52792 13.9458C7.48233 13.8841 7.42769 13.8296 7.36583 13.7842L7.36125 13.7817ZM7.11917 7.5475C7.39817 7.65635 7.64166 7.84019 7.82276 8.07872C8.00386 8.31724 8.11552 8.60118 8.14542 8.89917C8.23924 8.90421 8.32907 8.93878 8.40208 8.99792C8.35394 9.09715 8.31516 9.20065 8.28625 9.30708H7.96333C7.89362 9.61274 7.89362 9.93017 7.96333 10.2358H8.28625C8.3259 10.3822 8.38415 10.523 8.45958 10.6546L8.23125 10.8829C8.39807 11.1492 8.62282 11.3743 8.88875 11.5417L9.11708 11.3133C9.24868 11.3888 9.38941 11.447 9.53583 11.4867V11.8096C9.84149 11.8793 10.1589 11.8793 10.4646 11.8096V11.4867C10.611 11.447 10.7517 11.3888 10.8833 11.3133L11.3971 11.8271C10.9852 12.1074 10.4982 12.2567 10 12.2554C9.34137 12.2551 8.70981 11.9933 8.24409 11.5276C7.77837 11.0619 7.51658 10.4303 7.51625 9.77167C7.51625 9.58167 7.53333 9.38417 7.5425 9.17625C7.55315 8.93851 7.47553 8.70523 7.32458 8.52125C7.1446 8.3422 6.94849 8.18013 6.73875 8.03708L7.11917 7.5475ZM12.8808 11.9958C12.6018 11.887 12.3583 11.7031 12.1772 11.4646C11.9961 11.2261 11.8845 10.9422 11.8546 10.6442C11.7608 10.6391 11.6709 10.6045 11.5979 10.5454C11.6461 10.4462 11.6848 10.3427 11.7137 10.2362H12.0367C12.1064 9.93059 12.1064 9.61316 12.0367 9.3075H11.7137C11.6741 9.16108 11.6158 9.02036 11.5404 8.88875L11.7688 8.66042C11.6019 8.39502 11.3775 8.17058 11.1121 8.00375L10.8837 8.23208C10.7521 8.15665 10.6114 8.0984 10.465 8.05875V7.73583C10.1593 7.66612 9.84191 7.66612 9.53625 7.73583V8.05875C9.38983 8.0984 9.24911 8.15665 9.1175 8.23208L8.60375 7.71833C9.01515 7.43741 9.50184 7.28738 10 7.28792C10.6586 7.28825 11.2902 7.55003 11.7559 8.01576C12.2216 8.48148 12.4834 9.11304 12.4838 9.77167C12.4838 9.96125 12.4667 10.1592 12.4579 10.3671C12.4473 10.6048 12.5249 10.8381 12.6758 11.0221C12.8558 11.2011 13.0519 11.3632 13.2617 11.5062L12.8808 11.9958ZM14.8513 11.0292C14.7975 11.0892 14.7379 11.1446 14.6846 11.2017C14.6696 11.2183 14.655 11.235 14.6429 11.2525C14.622 11.2774 14.6053 11.3056 14.5933 11.3358C14.5862 11.3645 14.5807 11.3936 14.5767 11.4229C14.5721 11.4488 14.5696 11.4646 14.5654 11.4921C14.5612 11.5196 14.5562 11.5529 14.5525 11.5842L14.8513 11.0292ZM10.3383 8.07083C10.115 8.0264 9.88503 8.0264 9.66167 8.07083L9.67 8.335C9.50978 8.37187 9.35684 8.43524 9.2175 8.5225L9.03667 8.32958C8.8472 8.45619 8.68452 8.61887 8.55792 8.80833L8.75083 8.98917C8.66354 9.12849 8.60017 9.28144 8.56333 9.44167L8.29917 9.43333C8.25477 9.6567 8.25477 9.88663 8.29917 10.11L8.56333 10.1017C8.59987 10.262 8.66297 10.4151 8.75 10.5546L8.55708 10.7354C8.68369 10.9249 8.84637 11.0876 9.03583 11.2142L9.21667 11.0212C9.356 11.1085 9.50894 11.1719 9.66917 11.2087L9.66083 11.4729C9.8842 11.5173 10.1141 11.5173 10.3375 11.4729L10.3292 11.2087C10.4894 11.1719 10.6423 11.1085 10.7817 11.0212L10.9625 11.2142C11.152 11.0876 11.3146 10.9249 11.4412 10.7354L11.25 10.5546C11.3373 10.4153 11.4007 10.2623 11.4375 10.1021L11.7017 10.1104C11.7461 9.88705 11.7461 9.65712 11.7017 9.43375L11.4375 9.44208C11.4007 9.28171 11.3373 9.12862 11.25 8.98917L11.4429 8.80833C11.3163 8.61887 11.1536 8.45619 10.9642 8.32958L10.7833 8.5225C10.6438 8.43457 10.4906 8.37063 10.33 8.33333L10.3383 8.07083ZM9.92458 8.82667V8.67H10.075V8.82625C10.174 8.80555 10.2625 8.75067 10.325 8.67125C10.3186 8.74246 10.2915 8.81024 10.2471 8.86627C10.2027 8.92231 10.1429 8.96415 10.075 8.98667V9.30833C10.2498 9.28561 10.409 9.196 10.5192 9.05833C10.5093 9.17923 10.4608 9.29376 10.3808 9.38494C10.3008 9.47612 10.1936 9.53911 10.075 9.56458V9.85625C10.2867 9.83628 10.4823 9.73501 10.6208 9.57375C10.6055 9.71546 10.5436 9.84809 10.4448 9.95086C10.3461 10.0536 10.216 10.1207 10.075 10.1417V10.495C10.2096 10.484 10.3407 10.4462 10.4605 10.3838C10.5803 10.3214 10.6863 10.2357 10.7725 10.1317C10.7562 10.3273 10.6684 10.51 10.5259 10.645C10.3834 10.7799 10.1962 10.8577 10 10.8633C9.80328 10.859 9.61526 10.7814 9.47282 10.6457C9.33037 10.5099 9.24377 10.3259 9.23 10.1296C9.31472 10.2347 9.42011 10.3214 9.53965 10.3841C9.6592 10.4469 9.79035 10.4845 9.925 10.4946V10.1412C9.78314 10.1215 9.65208 10.0545 9.55303 9.9511C9.45397 9.84766 9.39272 9.71383 9.37917 9.57125C9.44689 9.6523 9.52998 9.71914 9.62367 9.76791C9.71735 9.81669 9.81976 9.84643 9.925 9.85542V9.56375C9.80563 9.53926 9.69757 9.47634 9.61735 9.38461C9.53714 9.29289 9.48919 9.1774 9.48083 9.05583C9.53448 9.12525 9.60136 9.18335 9.6776 9.22676C9.75383 9.27017 9.83792 9.29804 9.925 9.30875V8.98708C9.85664 8.96501 9.79638 8.92312 9.75187 8.86674C9.70736 8.81036 9.68061 8.74203 9.675 8.67042C9.73673 8.7509 9.82556 8.80626 9.925 8.82625L9.92458 8.82667ZM5.77792 10.0512L5.83375 10.1829C5.83278 10.1652 5.83069 10.1475 5.8275 10.13C5.82506 10.1125 5.81926 10.0957 5.81042 10.0804C5.80117 10.0691 5.79037 10.0591 5.77833 10.0508L5.77792 10.0512ZM7.71042 6.37958L7.72958 6.38167C7.78542 6.38458 7.84083 6.38167 7.89625 6.38167C7.92375 6.38167 7.92333 6.38167 7.95083 6.38167C8.10042 6.395 8.2475 6.42333 8.39583 6.44583C8.43542 6.45125 8.47458 6.45583 8.51417 6.45958C8.54583 6.46208 8.5775 6.46333 8.60917 6.46375C8.73417 6.46375 8.85583 6.46625 8.97917 6.46375C9.06301 6.46313 9.14665 6.45532 9.22917 6.44042C9.28055 6.43059 9.33062 6.41479 9.37833 6.39333C9.43087 6.37172 9.47776 6.33837 9.51542 6.29583C9.54096 6.26129 9.55911 6.22186 9.56875 6.18C9.58454 6.11438 9.59223 6.04707 9.59167 5.97958C9.59167 5.94292 9.59167 5.90625 9.58917 5.86958C9.58667 5.83292 9.58417 5.7925 9.58083 5.75417C9.56958 5.63792 9.555 5.52167 9.54458 5.405C9.53792 5.31333 9.53708 5.22167 9.53208 5.13C9.53 5.09917 9.52708 5.06875 9.52375 5.03792C9.51872 4.9948 9.50965 4.95225 9.49667 4.91083C9.49322 4.89599 9.48716 4.88188 9.47875 4.86917C9.47173 4.86256 9.46405 4.8567 9.45583 4.85167L9.42708 4.83542C9.37833 4.81125 9.32875 4.78917 9.28042 4.76417C9.21873 4.7324 9.16248 4.69105 9.11375 4.64167C9.07121 4.59353 9.03494 4.54019 9.00583 4.48292C8.97025 4.41928 8.94068 4.35246 8.9175 4.28333C8.8975 4.22027 8.88163 4.15596 8.87 4.09083V4.07708H8.84792H8.83375H8.83H8.82042H8.81667H8.80875H8.80458H8.78792C8.74625 4.07708 8.70167 4.07708 8.65833 4.07708C8.56375 4.07708 8.53708 4.07708 8.4425 4.08H8.40708H8.305H8.26333H8.25917H8.22917H8.15833H8.13208H8.125H8.08333L7.875 4.08875C7.75 4.09208 7.62125 4.08875 7.49417 4.08875C7.44292 4.08875 7.39125 4.09292 7.34 4.09917L7.30792 4.10333H7.30333H7.25H7.24708H7.24167H7.23833H7.23375H7.23H7.2275H7.2225H7.22L7.21167 4.10583C7.18398 4.11357 7.15738 4.12477 7.1325 4.13917C7.12307 4.14361 7.11469 4.15 7.10792 4.15792C7.10398 4.1659 7.10144 4.17449 7.10042 4.18333C7.0968 4.21852 7.0968 4.25398 7.10042 4.28917V4.29708C7.10042 4.32333 7.105 4.34958 7.10708 4.37583C7.10917 4.40208 7.1125 4.43708 7.11458 4.46792C7.11458 4.47653 7.11458 4.48528 7.11458 4.49417C7.12138 4.59345 7.1063 4.69301 7.07042 4.78583C7.05179 4.82884 7.02845 4.86964 7.00083 4.9075C6.96909 4.9501 6.93368 4.98983 6.895 5.02625L6.88958 5.03125L6.88625 5.03458L6.87667 5.04333L6.87167 5.04792L6.86542 5.05375L6.86042 5.05833L6.85458 5.06333L6.84875 5.06833L6.84375 5.0725L6.83667 5.07833L6.83375 5.08083L6.81292 5.09833C6.78 5.12625 6.74708 5.15375 6.71583 5.18167C6.68233 5.21082 6.65499 5.24638 6.63542 5.28625C6.61876 5.33932 6.61505 5.39561 6.62458 5.45042C6.62792 5.4825 6.63292 5.51458 6.63875 5.54625C6.64279 5.57273 6.64864 5.5989 6.65625 5.62458C6.66821 5.6572 6.68212 5.68906 6.69792 5.72L6.70625 5.7375L7.12292 5.8625H7.11C7.13 5.8625 7.13 5.8625 7.15167 5.86667C7.17333 5.87083 7.17042 5.87 7.18958 5.87458C7.21828 5.88271 7.24618 5.89345 7.27292 5.90667C7.35975 5.95448 7.43645 6.01873 7.49875 6.09583L7.50917 6.10792L7.51917 6.12L7.52917 6.13167L7.53875 6.14333L7.54708 6.15333L7.58 6.195L7.5975 6.21625L7.61292 6.23458L7.6225 6.24583L7.63292 6.25792L7.6425 6.26875L7.65125 6.27875C7.665 6.29375 7.67875 6.30792 7.69292 6.32042C7.69766 6.32557 7.70331 6.32981 7.70958 6.33292L7.71042 6.37958ZM9.51542 0.0116666C9.67625 0.00361106 9.83778 0 10 0C10.1703 0 10.3396 0.00416616 10.5079 0.0124995L9.51542 0.0116666Z" fill="#74777C"></path>
                                                        </g>
                                                    </g>
                                                    <defs>
                                                        <clipPath id="clip0_3370_49696">
                                                            <rect width="20" height="20"></rect>
                                                        </clipPath>
                                                    </defs>
                                                </svg>