<svg width="24" height="24" viewBox="0 0 24 24" fill="none" xmlns="http://www.w3.org/2000/svg">
<path fill-rule="evenodd" clip-rule="evenodd" d="M10.6355 2.53903C11.4041 1.8213 12.5972 1.8213 13.3657 2.53903L22.2704 10.8551C22.674 11.2321 22.6956 11.8649 22.3187 12.2685V12.2685C21.9417 12.6721 21.3089 12.6938 20.9053 12.3168L19.5013 11.0056V18C19.5013 19.6568 18.1582 21 16.5013 21H7.4991C5.84225 21 4.4991 19.6568 4.4991 18V11.0064L3.09593 12.3168C2.69229 12.6938 2.05949 12.6721 1.68254 12.2685V12.2685C1.30558 11.8649 1.32721 11.2321 1.73085 10.8551L10.6355 2.53903ZM15.5 12C15.5 11.4477 15.0523 11 14.5 11H13.5C12.9477 11 12.5 11.4477 12.5 12V13C12.5 13.5523 12.9477 14 13.5 14H14.5C15.0523 14 15.5 13.5523 15.5 13V12Z" fill="#EF4056"/>
</svg>
