<svg xmlns="http://www.w3.org/2000/svg" width="1em" height="1em" fill="none" viewBox="0 0 19 25"><path fill="#6857A4" d="M1.49 19.86C-.36 17.83-.2 14.99.45 12.5c-.69-2.48-.56-5.3.34-7.71C1.64 2.49 3.37.33 5.95.02c1.49-.18 3.02.63 4.21 1.43 1.24.83 2.52 1.9 3.27 3.21.28.48.47 1.01.61 1.56.67.5 1.18 1.19 1.58 1.91a9.4 9.4 0 0 1 1.78 3.48c.09.32.16.65.22.98.25 0 .51.01.76.01.63 0 .63.99 0 .98-.2 0-.41 0-.61-.01.32 2.86-.27 5.96-1.9 8.26-1.15 1.64-2.94 3.47-5.14 3-1.73-.37-2.91-2.01-3.67-3.51-1.97.51-4.16.08-5.57-1.47zm11.83-4.16q-.255.36-.54.69c.06 0 .12-.01.18-.02.05-.07.1-.15.14-.22.08-.15.15-.29.21-.44zM6.54 9.45c-.07.25-.13.51-.18.77.14 1.15.55 2.31 1.07 3.28.02.05.05.09.08.14-.1-.71-.08-1.45.03-2.16-.06-.05-.11-.11-.17-.17-.55-.62-.66-1.32-.5-2.01zm3.08 6.25c1.23-.38 2.16-1.34 2.7-2.51-.89-.13-1.78-.3-2.63-.57a7.7 7.7 0 0 1-1.24-.5c-.02.28-.03.56-.02.84.02.38.04.58.13.95.16.65.41 1.17.87 1.61.07.07.13.12.2.18zm1.74-6.05c-.61-.4-1.28-.63-1.97-.72-.35.66-.63 1.41-.79 2.13.52.33 1.21.57 1.82.74.73.2 1.47.34 2.21.44.09-.37.15-.74.17-1.11-.38-.58-.86-1.1-1.45-1.48zm1.94-1.1c0-.41-.02-.83-.07-1.25-.38-.24-.79-.43-1.22-.53.54.52.98 1.12 1.29 1.78m-3.29-.58s-.03.05-.05.07a5.43 5.43 0 0 1 2.64 1.35c-.29-.92-.94-1.7-1.72-2.29-.31.24-.59.52-.87.87m.76 8.29c.15.04.3.07.44.1.06 0 .12.02.19.02.15-.29.29-.58.42-.88-.32.3-.67.55-1.05.76M8.95 7.75l-.18.18h.06c.04-.06.08-.12.12-.17zm-.92 1.22q-.135.255-.21.51c-.07.27-.07.5 0 .72.13-.43.28-.85.47-1.26-.09 0-.17.02-.26.03m6.04 2.46c.06-.35.1-.7.11-1.05-.04.33-.08.67-.14 1 0 .02.02.04.03.05m-2.84-5.72c-.27-.07-.55-.1-.83-.1l.27.15c.19-.03.38-.05.56-.05m-2.35.35c-.81.49-1.47 1.3-1.89 2.16l.4-.12a6.14 6.14 0 0 1 1.97-1.87c-.16-.07-.32-.13-.49-.18zm-2.6 9.2c.48.27.99.46 1.51.55-.7-.82-1.25-1.76-1.67-2.76 0 .52.04 1.03.08 1.54.02.22.05.44.07.67zm8.52.45c.41-.65.68-1.42.81-2.2-.33-.02-.67-.04-1-.07.08.87-.04 1.75-.37 2.59.2-.09.39-.19.56-.31zm.91-3.18c.02-.55-.01-1.08-.1-1.56-.1-.57-.27-1.13-.5-1.67.04.29.06.57.06.85 0 .77-.12 1.56-.33 2.32.29.02.58.04.87.05zM5.08 10.55c-.51.56-.86 1.23-1.01 1.96.06.48.23.94.56 1.36.17.22.37.43.58.63l-.03-.38c-.08-1.25-.07-2.56.15-3.82-.09.08-.17.17-.25.25m-.56 4.63c.26.48.59.92.96 1.3-.04-.21-.08-.42-.11-.63-.3-.2-.59-.43-.85-.67m3.74 2.68c.21 0 .42-.01.63-.05.3-.06.6-.16.88-.28-.33-.2-.65-.43-.95-.68-.13 0-.26.02-.39.01-.66 0-1.34-.16-1.97-.43.05.3.12.59.19.89.52.21 1.06.4 1.62.54zM6.53 5.89c-.38.08-.76.21-1.12.4l-.12.36a43 43 0 0 0-.88 3.19c.09-.1.18-.19.27-.28.2-.19.42-.36.64-.51.03-.58.13-1.15.33-1.69.2-.53.5-1.03.88-1.47M4.08 7.3c-1.34 1.36-2.12 3.37-2.62 5.19.28.92.7 1.83 1.36 2.54.29.31.62.59.98.83-.52-.88-.84-1.87-.78-2.91.01-.18.04-.36.07-.54-.05-.55 0-1.11.11-1.69.15-.79.38-1.56.6-2.34.1-.36.19-.73.29-1.09zm2.93 11.34c.16.5.35 1 .56 1.48.18-.07.36-.15.53-.24.45-.24.86-.52 1.24-.84-.39-.03-.78-.1-1.16-.19-.4-.01-.79-.09-1.17-.21m9.84-4.15a4 4 0 0 1-1.39 1.92c-.7 1.04-1.71 1.79-3.03 1.86-.49.32-1.04.55-1.62.68-.77.87-1.71 1.58-2.83 2.06.66 1.26 1.62 2.57 2.95 2.88.6.14 1.28 0 1.89-.36.89-.52 1.6-1.34 2.19-2.18 1.36-1.93 1.94-4.45 1.83-6.86zM1.07 10.54c.72-1.93 1.83-3.86 3.55-4.93.49-1.21 1.27-2.33 2.64-2.6.62-.12.88.82.26.95-.66.13-1.13.53-1.48 1.03.57-.15 1.16-.2 1.75-.16.5-.3 1.04-.51 1.61-.6a4.28 4.28 0 0 1 2.97.59c-.77-1.11-1.9-2.02-3.03-2.73C8.28 1.43 6.98.77 5.7 1.06c-2.14.48-3.46 2.42-4.11 4.39-.53 1.62-.71 3.38-.52 5.09m5.56 9.87c-.32-.76-.59-1.55-.8-2.35-.04-.03-.08-.06-.12-.08-1.27-.54-2.61-1.21-3.56-2.23-.43-.46-.78-.99-1.07-1.56-.29 1.94-.07 4.04 1.52 5.38 1.13.95 2.63 1.15 4.02.84z"></path></svg>