<svg xmlns="http://www.w3.org/2000/svg" width="1em" height="1em" fill="none" viewBox="0 0 56 53"><path fill="#4C2E83" d="M39.04 52.09H6.27c-3.29 0-5.96-2.67-5.96-5.96V10.44c0-3.29 2.67-5.96 5.96-5.96h32.77c3.29 0 5.96 2.67 5.96 5.96v1.55c0 .55-.45 1-1 1s-1-.45-1-1v-1.55c0-2.19-1.78-3.96-3.96-3.96H6.27a3.97 3.97 0 0 0-3.96 3.96v35.69a3.97 3.97 0 0 0 3.96 3.96h32.77c2.19 0 3.96-1.78 3.96-3.96 0-.55.45-1 1-1s1 .45 1 1c0 3.29-2.67 5.96-5.96 5.96"></path><path fill="#4C2E83" d="M44 44.3c-.55 0-1-.45-1-1v-1.48c0-.55.45-1 1-1s1 .45 1 1v1.48c0 .55-.45 1-1 1M44 39.73c-.55 0-1-.45-1-1v-.29c0-.55.45-1 1-1s1 .45 1 1v.29c0 .55-.45 1-1 1M44 16.71c-.55 0-1-.45-1-1v-.29c0-.55.45-1 1-1s1 .45 1 1v.29c0 .55-.45 1-1 1"></path><path fill="#2EEFB5" d="M29.14.91H16.17a4.547 4.547 0 0 0-4.55 4.545A4.547 4.547 0 0 0 16.17 10h12.97a4.547 4.547 0 0 0 4.55-4.545A4.547 4.547 0 0 0 29.14.91"></path><path fill="#4C2E83" d="M28.95 42.82c-.26 0-.52-.1-.71-.29-.25-.25-.35-.62-.26-.96l1.94-7.44c.04-.17.13-.33.26-.45l9.51-9.51c1.48-1.48 3.9-1.48 5.39 0l1.52 1.52a3.79 3.79 0 0 1 0 5.38l-9.51 9.51c-.12.13-.28.22-.45.26l-7.44 1.94c-.08.02-.17.03-.25.03zm2.84-7.92-1.44 5.52 5.52-1.44 9.32-9.32a1.81 1.81 0 0 0 0-2.56l-1.52-1.52c-.71-.71-1.85-.71-2.56 0z"></path><path fill="#2EEFB5" d="m54.039 19.068-2.34-2.34a2.23 2.23 0 0 0-3.154 0l-2.341 2.34a2.23 2.23 0 0 0 0 3.153l2.34 2.341c.871.87 2.283.87 3.154 0l2.34-2.34a2.23 2.23 0 0 0 0-3.154"></path><path fill="#4C2E83" d="M21.58 20.55H8.7c-.55 0-1-.45-1-1s.45-1 1-1h12.88c.55 0 1 .45 1 1s-.45 1-1 1M21.58 31.99H8.7c-.55 0-1-.45-1-1s.45-1 1-1h12.88c.55 0 1 .45 1 1s-.45 1-1 1M31.24 26.27H8.7c-.55 0-1-.45-1-1s.45-1 1-1h22.55c.55 0 1 .45 1 1s-.45 1-1 1z"></path></svg>