<svg width="21" height="20" viewBox="0 0 21 20" fill="none" xmlns="http://www.w3.org/2000/svg"><path d="M10.0083 0C7.29041 0 6.94933 0.0118716 5.88186 0.0604164C4.81649 0.109165 4.08929 0.277708 3.45298 0.52501C2.79478 0.780419 2.23645 1.12208 1.68021 1.67812C1.12355 2.23397 0.781619 2.79187 0.525183 3.44938C0.277077 4.08542 0.108198 4.81229 0.0602538 5.87646C0.0125126 6.94312 0 7.28417 0 10C0 12.7158 0.0120954 13.0556 0.0604571 14.1223C0.10946 15.1869 0.278125 15.9135 0.525386 16.5494C0.781203 17.2071 1.12312 17.765 1.67958 18.3208C2.23562 18.8771 2.79395 19.2196 3.45172 19.475C4.08844 19.7223 4.81587 19.8908 5.88103 19.9396C6.94849 19.9881 7.28937 20 10.007 20C12.7251 20 13.0651 19.9881 14.1326 19.9396C15.198 19.8908 15.926 19.7223 16.5627 19.475C17.2207 19.2196 17.7782 18.8771 18.3342 18.3208C18.8909 17.765 19.2328 17.2071 19.4893 16.5496C19.7353 15.9135 19.9042 15.1867 19.9542 14.1225C20.0021 13.0558 20.0146 12.7158 20.0146 10C20.0146 7.28416 20.0021 6.94334 19.9542 5.87667C19.9042 4.81208 19.7353 4.08542 19.4893 3.44959C19.2328 2.79187 18.8909 2.23396 18.3342 1.67812C17.7776 1.12187 17.2209 0.780206 16.5621 0.525C15.9241 0.277708 15.1965 0.109165 14.1311 0.0604164C13.0637 0.0118716 12.7238 0 10.0051 0H10.0083ZM9.11051 1.80209C9.37697 1.80167 9.67427 1.80209 10.0083 1.80209C12.6802 1.80209 12.9969 1.81167 14.0521 1.85958C15.0278 1.90417 15.5574 2.06708 15.9101 2.20396C16.3772 2.3852 16.7101 2.60188 17.0602 2.95187C17.4104 3.30188 17.6272 3.63521 17.8091 4.10187C17.946 4.45395 18.1093 4.98312 18.1537 5.95813C18.2016 7.01229 18.2121 7.32896 18.2121 9.99771C18.2121 12.6665 18.2016 12.9831 18.1537 14.0373C18.1091 15.0123 17.946 15.5415 17.8091 15.8935C17.6277 16.3602 17.4104 16.6925 17.0602 17.0423C16.7099 17.3923 16.3774 17.609 15.9101 17.7902C15.5578 17.9277 15.0278 18.0902 14.0521 18.1348C12.9972 18.1827 12.6802 18.1931 10.0083 18.1931C7.33607 18.1931 7.01938 18.1827 5.96443 18.1348C4.98871 18.0898 4.45915 17.9269 4.10617 17.79C3.63916 17.6088 3.30557 17.3921 2.95532 17.0421C2.60506 16.6921 2.38824 16.3596 2.20643 15.8927C2.06945 15.5406 1.90621 15.0115 1.8618 14.0365C1.81385 12.9823 1.80425 12.6656 1.80425 9.99521C1.80425 7.3248 1.81385 7.00979 1.8618 5.95563C1.90642 4.98062 2.06945 4.45146 2.20643 4.09896C2.38781 3.63229 2.60506 3.29896 2.95532 2.94896C3.30557 2.59896 3.63916 2.3823 4.10617 2.20063C4.45894 2.06312 4.98871 1.90063 5.96443 1.85583C6.88761 1.81416 7.24538 1.80167 9.11052 1.79957L9.11051 1.80209ZM15.3502 3.4625C14.6872 3.4625 14.1492 3.99938 14.1492 4.66208C14.1492 5.32458 14.6872 5.86209 15.3502 5.86209C16.0131 5.86209 16.551 5.32458 16.551 4.66208C16.551 3.99958 16.0131 3.46209 15.3501 3.46209L15.3502 3.4625ZM10.0083 4.86458C7.17011 4.86458 4.86904 7.16396 4.86904 10C4.86904 12.836 7.17011 15.1344 10.0083 15.1344C12.8464 15.1344 15.1467 12.836 15.1467 10C15.1467 7.16396 12.8462 4.86458 10.0081 4.86458H10.0083ZM10.0083 6.66667C11.8505 6.66667 13.3441 8.15896 13.3441 10C13.3441 11.8408 11.8505 13.3333 10.0083 13.3333C8.16586 13.3333 6.67245 11.8408 6.67245 10C6.67245 8.15896 8.16586 6.66667 10.0083 6.66667Z" fill="#424242"></path></svg>