<svg xmlns="http://www.w3.org/2000/svg" width="24" height="24" fill="none" class="BottomNavbar__tab-icon"><path fill="#717485" fill-rule="evenodd" d="M3.218 5.472a2.26 2.26 0 0 1 2.264-2.257h2.182a2.26 2.26 0 0 1 2.263 2.257v2.176a2.26 2.26 0 0 1-2.263 2.258H5.482a2.26 2.26 0 0 1-2.264-2.258zM5.482 2A3.477 3.477 0 0 0 2 5.472v2.176a3.477 3.477 0 0 0 3.482 3.473h2.182a3.477 3.477 0 0 0 3.482-3.473V5.472A3.477 3.477 0 0 0 7.664 2zm8.59 3.472a2.26 2.26 0 0 1 2.264-2.257h2.182a2.26 2.26 0 0 1 2.264 2.257v2.176a2.26 2.26 0 0 1-2.264 2.258h-2.182a2.26 2.26 0 0 1-2.263-2.258zM16.337 2a3.477 3.477 0 0 0-3.481 3.472v2.176a3.477 3.477 0 0 0 3.481 3.473h2.182A3.477 3.477 0 0 0 22 7.648V5.472A3.477 3.477 0 0 0 18.518 2zM5.482 14.04a2.26 2.26 0 0 0-2.264 2.257v2.176a2.26 2.26 0 0 0 2.264 2.258h2.182a2.26 2.26 0 0 0 2.263-2.258v-2.176a2.26 2.26 0 0 0-2.263-2.257zM2 16.297a3.477 3.477 0 0 1 3.482-3.472h2.182a3.477 3.477 0 0 1 3.482 3.472v2.176a3.477 3.477 0 0 1-3.482 3.473H5.482A3.477 3.477 0 0 1 2 18.473zm12.073.055a2.26 2.26 0 0 1 2.263-2.258h2.182a2.26 2.26 0 0 1 2.264 2.258v2.176a2.26 2.26 0 0 1-2.264 2.257h-2.182a2.26 2.26 0 0 1-2.263-2.257zm2.263-3.473a3.477 3.477 0 0 0-3.481 3.473v2.176A3.477 3.477 0 0 0 16.336 22h2.182A3.477 3.477 0 0 0 22 18.528v-2.176a3.477 3.477 0 0 0-3.482-3.473z" clip-rule="evenodd"></path></svg>