<svg width="104" height="28" viewBox="0 0 104 28" fill="none" xmlns="http://www.w3.org/2000/svg">
<path fill-rule="evenodd" clip-rule="evenodd" d="M25.4779 17.9455C27.6439 17.6657 29.0666 16.4937 29.1665 14.1908C29.2841 13.2865 29.0401 12.3728 28.4849 11.6384C27.9297 10.904 27.1059 10.4051 26.1833 10.2447C25.2958 9.95624 24.3295 10.0003 23.4736 10.3681C22.6177 10.736 21.9336 11.4013 21.5554 12.2338C21.247 13.0086 21.0198 13.8118 20.8771 14.631C19.9329 18.1204 17.1604 20.2854 14.0832 19.9356C12.6069 19.7765 11.2379 19.1087 10.2239 18.053C9.20993 16.9973 8.61804 15.6235 8.55524 14.1801C8.43435 10.8607 10.3047 8.73948 14.335 7.98737C16.9357 7.50152 18.786 6.40345 18.712 3.63212C18.7361 3.17923 18.6673 2.72622 18.5097 2.29942C18.3521 1.87262 18.1088 1.48056 17.7941 1.14601C17.4793 0.811464 17.0992 0.541135 16.676 0.350708C16.2529 0.160282 15.7951 0.0535714 15.3291 0.0367864C12.5087 -0.24987 10.8402 1.15329 10.3916 3.73902C9.75616 7.40142 7.69001 9.46729 3.91443 9.99688C1.55557 10.3273 -0.00498351 11.6828 1.19581e-05 14.0149C0.00500743 16.347 1.58059 17.654 3.92846 18.0339C7.57914 18.6238 9.92801 20.3087 10.2977 24.2471C10.3134 24.7623 10.435 25.2693 10.6555 25.738C10.876 26.2067 11.1909 26.6277 11.5815 26.976C11.9722 27.3244 12.4306 27.5931 12.9298 27.7663C13.429 27.9395 13.9587 28.0136 14.4878 27.9843C15.013 28.0306 15.5424 27.9742 16.0448 27.8182C16.5471 27.6623 17.0123 27.41 17.4128 27.0763C17.8133 26.7426 18.1409 26.3343 18.3764 25.8754C18.6119 25.4165 18.7505 24.9164 18.784 24.4045C19.3725 20.5886 21.5145 18.4586 25.4779 17.9455ZM20.4065 10.2738C21.4311 10.2738 22.2618 9.46595 22.2618 8.46937C22.2618 7.47278 21.4311 6.66489 20.4065 6.66489C19.3818 6.66489 18.5512 7.47278 18.5512 8.46937C18.5512 9.46595 19.3818 10.2738 20.4065 10.2738ZM14.8395 16.897C16.5472 16.897 17.9317 15.5505 17.9317 13.8896C17.9317 12.2286 16.5472 10.8821 14.8395 10.8821C13.1317 10.8821 11.7473 12.2286 11.7473 13.8896C11.7473 15.5505 13.1317 16.897 14.8395 16.897Z" fill="#2F54EB"/>
<path fill-rule="evenodd" clip-rule="evenodd" d="M36.9155 11.2305V21.7417H33.2881V11.2305H36.9155ZM35.1157 7C35.6353 7 36.0868 7.10824 36.4702 7.32471C36.8599 7.54118 37.0547 7.97103 37.0547 8.61426C37.0547 9.23893 36.8599 9.6626 36.4702 9.88525C36.0868 10.1017 35.6353 10.21 35.1157 10.21C34.5838 10.21 34.1292 10.1017 33.752 9.88525C33.3809 9.6626 33.1953 9.23893 33.1953 8.61426C33.1953 7.97103 33.3809 7.54118 33.752 7.32471C34.1292 7.10824 34.5838 7 35.1157 7ZM46.0259 11.0449C47.1082 11.0449 47.9927 11.3511 48.6792 11.9634C49.3657 12.5757 49.709 13.556 49.709 14.9043V21.7417H46.0815V16.0083C46.0815 15.3094 45.9795 14.7837 45.7754 14.4312C45.5775 14.0724 45.2559 13.8931 44.8105 13.8931C44.124 13.8931 43.6632 14.1745 43.4282 14.7373C43.1932 15.2939 43.0757 16.0949 43.0757 17.1401V21.7417H39.4482V11.2305H42.1851L42.6768 12.6221H42.8159C43.0386 12.2881 43.3045 12.0036 43.6138 11.7686C43.923 11.5335 44.2786 11.3542 44.6807 11.2305C45.0827 11.1068 45.5311 11.0449 46.0259 11.0449ZM95.706 12.9839V7.30615H92.06V21.7417H95.706V18.875L96.8842 17.9751L99.185 21.7417H103.332L99.454 15.7021L103.1 11.2305H99.0551L96.6987 14.1992C96.5255 14.4157 96.3307 14.6878 96.1142 15.0156C95.8977 15.3434 95.7184 15.6156 95.5761 15.832H95.5019C95.5699 15.4053 95.6194 14.9321 95.6503 14.4126C95.6874 13.8869 95.706 13.4106 95.706 12.9839ZM86.6049 21.9272C85.5411 21.9272 84.6165 21.7386 83.831 21.3613C83.0455 20.9779 82.4363 20.3903 82.0034 19.5986C81.5766 18.8008 81.3632 17.7803 81.3632 16.5371C81.3632 15.263 81.6013 14.2209 82.0776 13.4106C82.56 12.6004 83.2187 12.0036 84.0536 11.6201C84.8886 11.2367 85.8349 11.0449 86.8925 11.0449C87.5357 11.0449 88.145 11.116 88.7202 11.2583C89.3015 11.4006 89.8396 11.5954 90.3344 11.8428L89.2675 14.5239C88.8346 14.3322 88.4295 14.1807 88.0522 14.0693C87.6811 13.9518 87.2945 13.8931 86.8925 13.8931C86.5276 13.8931 86.206 13.9889 85.9277 14.1807C85.6494 14.3724 85.4329 14.6631 85.2783 15.0527C85.1236 15.4362 85.0463 15.9248 85.0463 16.5186C85.0463 17.1247 85.1236 17.6133 85.2783 17.9844C85.4391 18.3555 85.6586 18.6245 85.937 18.7915C86.2215 18.9585 86.5462 19.042 86.9111 19.042C87.4368 19.042 87.9594 18.9616 88.4789 18.8008C89.0047 18.6338 89.5025 18.4049 89.9726 18.1143V20.9995C89.5397 21.284 89.051 21.5098 88.5068 21.6768C87.9625 21.8438 87.3286 21.9272 86.6049 21.9272ZM78.2275 12.0376C77.4791 11.3758 76.44 11.0449 75.1103 11.0449C74.1578 11.0449 73.2981 11.1253 72.5312 11.2861C71.7643 11.4469 71.0777 11.682 70.4716 11.9912L71.52 14.3848C72.0333 14.1559 72.5436 13.9704 73.0507 13.8281C73.5641 13.6797 74.0279 13.6055 74.4423 13.6055C74.832 13.6055 75.1412 13.7044 75.3701 13.9023C75.6051 14.1003 75.7226 14.4342 75.7226 14.9043V15.0527L73.9692 15.1084C72.491 15.1764 71.3622 15.4826 70.5829 16.0269C69.8036 16.5711 69.414 17.4061 69.414 18.5317C69.414 19.2987 69.5532 19.9326 69.8315 20.4336C70.1098 20.9346 70.4902 21.3088 70.9726 21.5562C71.455 21.8035 71.9993 21.9272 72.6054 21.9272C73.1868 21.9272 73.6785 21.8716 74.0805 21.7603C74.4825 21.6551 74.8382 21.4881 75.1474 21.2593C75.4628 21.0243 75.769 20.7212 76.0659 20.3501H76.1401L76.8359 21.7417H79.35V14.8486C79.35 13.6302 78.9758 12.6932 78.2275 12.0376ZM74.9062 17.0845L75.7411 17.0474V17.8638C75.7411 18.3091 75.5834 18.6709 75.268 18.9492C74.9588 19.2275 74.5846 19.3667 74.1454 19.3667C73.83 19.3667 73.5764 19.2832 73.3847 19.1162C73.193 18.943 73.0971 18.6771 73.0971 18.3184C73.0971 17.9349 73.2301 17.6411 73.496 17.437C73.7682 17.2267 74.2382 17.1092 74.9062 17.0845ZM67.4008 11.0449C67.5987 11.0449 67.8059 11.0604 68.0224 11.0913C68.2389 11.116 68.3997 11.1377 68.5048 11.1562L68.1801 14.5796C68.0626 14.5487 67.9111 14.5239 67.7255 14.5054C67.54 14.4806 67.2802 14.4683 66.9462 14.4683C66.7174 14.4683 66.4731 14.4899 66.2133 14.5332C65.9536 14.5765 65.7062 14.6693 65.4711 14.8115C65.2423 14.9476 65.0536 15.1579 64.9052 15.4424C64.7568 15.7207 64.6826 16.098 64.6826 16.5742V21.7417H61.0551V11.2305H63.7548L64.3207 12.9097H64.497C64.6887 12.5633 64.933 12.251 65.2299 11.9727C65.533 11.6882 65.8701 11.4624 66.2411 11.2954C66.6184 11.1284 67.005 11.0449 67.4008 11.0449ZM52.3622 21.7417H56.0268V11.1748H59.3295V8.17822H49.0502V11.1748H52.3622V21.7417Z" fill="#1C1D30"/>
</svg>
