<svg width="40" height="40" viewBox="0 0 40 40" fill="none" xmlns="http://www.w3.org/2000/svg">
<path d="M20.0054 13.8467C16.5994 13.8467 13.8521 16.594 13.8521 20C13.8521 23.406 16.5994 26.1533 20.0054 26.1533C23.4114 26.1533 26.1587 23.406 26.1587 20C26.1587 16.594 23.4114 13.8467 20.0054 13.8467ZM20.0054 24.0004C17.8043 24.0004 16.0049 22.2064 16.0049 20C16.0049 17.7936 17.799 15.9996 20.0054 15.9996C22.2118 15.9996 24.0058 17.7936 24.0058 20C24.0058 22.2064 22.2064 24.0004 20.0054 24.0004ZM27.8456 13.595C27.8456 14.3929 27.2029 15.0302 26.4104 15.0302C25.6124 15.0302 24.9751 14.3876 24.9751 13.595C24.9751 12.8024 25.6178 12.1598 26.4104 12.1598C27.2029 12.1598 27.8456 12.8024 27.8456 13.595ZM31.921 15.0517C31.83 13.1291 31.3908 11.4261 29.9824 10.023C28.5793 8.61988 26.8763 8.18074 24.9537 8.08435C22.9722 7.97188 17.0331 7.97188 15.0517 8.08435C13.1344 8.17539 11.4314 8.61453 10.023 10.0176C8.61453 11.4207 8.18074 13.1237 8.08435 15.0463C7.97188 17.0278 7.97188 22.9669 8.08435 24.9483C8.17539 26.8709 8.61453 28.5739 10.023 29.977C11.4314 31.3801 13.1291 31.8193 15.0517 31.9157C17.0331 32.0281 22.9722 32.0281 24.9537 31.9157C26.8763 31.8246 28.5793 31.3855 29.9824 29.977C31.3855 28.5739 31.8246 26.8709 31.921 24.9483C32.0335 22.9669 32.0335 17.0331 31.921 15.0517ZM29.3612 27.0744C28.9434 28.1241 28.1348 28.9327 27.0798 29.3558C25.4999 29.9824 21.7512 29.8378 20.0054 29.8378C18.2595 29.8378 14.5054 29.977 12.9309 29.3558C11.8813 28.9381 11.0726 28.1294 10.6496 27.0744C10.023 25.4946 10.1676 21.7458 10.1676 20C10.1676 18.2542 10.0283 14.5001 10.6496 12.9256C11.0673 11.8759 11.8759 11.0673 12.9309 10.6442C14.5108 10.0176 18.2595 10.1622 20.0054 10.1622C21.7512 10.1622 25.5053 10.023 27.0798 10.6442C28.1294 11.0619 28.9381 11.8706 29.3612 12.9256C29.9877 14.5054 29.8431 18.2542 29.8431 20C29.8431 21.7458 29.9877 25.4999 29.3612 27.0744Z" fill="white"/>
</svg>
