<svg width="40" height="40" viewBox="0 0 40 40" fill="none" xmlns="http://www.w3.org/2000/svg">
<path d="M13.3723 32H8.39644V15.9764H13.3723V32ZM10.8817 13.7907C9.29056 13.7907 8 12.4728 8 10.8817C8 10.1174 8.3036 9.38444 8.84402 8.84402C9.38444 8.3036 10.1174 8 10.8817 8C11.6459 8 12.3789 8.3036 12.9193 8.84402C13.4597 9.38444 13.7633 10.1174 13.7633 10.8817C13.7633 12.4728 12.4722 13.7907 10.8817 13.7907ZM31.9952 32H27.0301V24.1998C27.0301 22.3409 26.9926 19.9569 24.443 19.9569C21.856 19.9569 21.4596 21.9766 21.4596 24.0659V32H16.4891V15.9764H21.2614V18.1622H21.331C21.9953 16.9032 23.618 15.5746 26.039 15.5746C31.0748 15.5746 32.0005 18.8908 32.0005 23.198V32H31.9952Z" fill="white"/>
</svg>
