<?xml version="1.0" encoding="UTF-8"?>
<svg xmlns="http://www.w3.org/2000/svg" xmlns:xlink="http://www.w3.org/1999/xlink" width="160px" height="45px" viewBox="0 0 158 45" version="1.1">
<g id="surface1">
<path style=" stroke:none;fill-rule:nonzero;fill:rgb(0%,35.686275%,88.627451%);fill-opacity:1;" d="M 116.902344 36.621094 C 116.53125 36.382812 115.824219 35.933594 115.109375 35.480469 C 113.972656 34.753906 113.28125 33.492188 113.28125 32.140625 L 113.28125 9.492188 C 113.28125 7.78125 114.449219 6.292969 116.109375 5.902344 C 121.753906 4.554688 134.433594 1.539062 140.890625 0.0117188 L 140.890625 4.988281 C 140.890625 6.597656 139.789062 7.996094 138.226562 8.367188 C 135.386719 9.035156 127.828125 10.820312 123.636719 11.8125 C 121.9375 12.210938 120.734375 13.734375 120.734375 15.492188 L 120.734375 31.5625 C 120.734375 32.785156 121.355469 33.925781 122.390625 34.566406 C 123.1875 35.054688 123.761719 35.464844 124.183594 35.75 C 122.460938 36.167969 120.789062 36.566406 119.070312 36.953125 C 118.238281 37.164062 117.617188 37.046875 116.90625 36.625 L 116.902344 36.625 Z M 116.902344 36.621094 "/>
<path style=" stroke:none;fill-rule:nonzero;fill:rgb(0%,35.686275%,88.627451%);fill-opacity:1;" d="M 140.917969 22.394531 C 144.125 21.617188 147.328125 20.871094 150.535156 20.09375 L 150.535156 29.558594 C 150.535156 31.253906 149.378906 32.722656 147.738281 33.117188 C 143.679688 34.089844 136.328125 35.847656 133.429688 36.535156 C 131.644531 36.957031 130.378906 38.496094 130.378906 40.339844 L 130.378906 44.988281 C 136.261719 43.597656 149.378906 40.488281 155.164062 39.117188 C 156.828125 38.726562 158 37.234375 158 35.519531 C 158 29.46875 157.988281 15.722656 157.988281 10.617188 C 155.882812 11.125 153.742188 11.636719 151.636719 12.140625 C 149.601562 12.632812 146.464844 13.363281 143.800781 13.988281 C 142.113281 14.386719 140.925781 15.894531 140.921875 17.636719 L 140.921875 22.394531 Z M 140.917969 22.394531 "/>
<path style=" stroke:none;fill-rule:nonzero;fill:rgb(0%,35.686275%,88.627451%);fill-opacity:1;" d="M 76.304688 22.894531 L 76.304688 33.558594 L 51.757812 33.558594 L 51.757812 28.113281 L 70.996094 28.113281 L 70.996094 26.226562 C 70.996094 24.386719 72.480469 22.898438 74.3125 22.898438 L 76.304688 22.898438 Z M 76.304688 22.894531 "/>
<path style=" stroke:none;fill-rule:nonzero;fill:rgb(0%,35.686275%,88.627451%);fill-opacity:1;" d="M 26.535156 12.128906 L 31.84375 12.128906 L 31.84375 19.566406 C 31.84375 21.40625 30.355469 22.898438 28.527344 22.898438 L 26.539062 22.898438 L 26.539062 12.128906 Z M 26.535156 12.128906 "/>
<path style=" stroke:none;fill-rule:nonzero;fill:rgb(0%,35.686275%,88.627451%);fill-opacity:1;" d="M 53.070312 6.910156 L 53.070312 33.554688 L 21.226562 33.554688 C 19.433594 33.511719 17.988281 32.039062 17.988281 30.226562 L 17.988281 12.28125 L 6.761719 12.28125 C 5.945312 12.28125 5.285156 12.941406 5.285156 13.761719 L 5.285156 30.230469 C 5.285156 32.070312 3.800781 33.558594 1.96875 33.558594 L 0 33.558594 L 0 10.246094 C 0 8.40625 1.484375 6.914062 3.316406 6.914062 L 23.214844 6.914062 L 23.214844 26.636719 C 23.214844 27.453125 23.875 28.117188 24.691406 28.117188 L 46.296875 28.117188 C 47.113281 28.117188 47.773438 27.453125 47.773438 26.636719 L 47.773438 6.917969 L 53.078125 6.917969 Z M 53.070312 6.910156 "/>
<path style=" stroke:none;fill-rule:nonzero;fill:rgb(0%,35.686275%,88.627451%);fill-opacity:1;" d="M 100.828125 15.496094 L 100.839844 26.636719 C 100.839844 27.453125 100.175781 28.113281 99.363281 28.113281 L 70.617188 28.113281 L 70.617188 33.554688 L 102.832031 33.554688 C 104.664062 33.554688 106.148438 32.066406 106.148438 30.230469 L 106.136719 15.496094 L 100.824219 15.496094 Z M 100.828125 15.496094 "/>
<path style=" stroke:none;fill-rule:nonzero;fill:rgb(0%,35.686275%,88.627451%);fill-opacity:1;" d="M 82.925781 6.910156 L 106.148438 6.910156 L 106.148438 8.910156 C 106.148438 10.746094 104.660156 12.242188 102.832031 12.242188 L 79.609375 12.242188 L 79.609375 10.242188 C 79.609375 8.40625 81.097656 6.910156 82.925781 6.910156 Z M 82.925781 6.910156 "/>
<path style=" stroke:none;fill-rule:nonzero;fill:rgb(0%,35.686275%,88.627451%);fill-opacity:1;" d="M 82.925781 15.496094 L 106.148438 15.496094 L 106.148438 20.824219 L 79.605469 20.824219 L 79.605469 18.824219 C 79.605469 16.988281 81.09375 15.496094 82.921875 15.496094 Z M 82.925781 15.496094 "/>
<path style=" stroke:none;fill-rule:nonzero;fill:rgb(0%,35.686275%,88.627451%);fill-opacity:1;" d="M 29.851562 6.910156 L 53.070312 6.910156 L 53.070312 12.28125 L 26.535156 12.28125 L 26.535156 10.242188 C 26.535156 8.40625 28.023438 6.910156 29.851562 6.910156 Z M 29.851562 6.910156 "/>
<path style=" stroke:none;fill-rule:nonzero;fill:rgb(0%,35.686275%,88.627451%);fill-opacity:1;" d="M 72.515625 6.929688 L 76.277344 6.929688 L 76.277344 10.707031 C 76.277344 11.5625 75.582031 12.261719 74.726562 12.261719 L 70.96875 12.261719 L 70.96875 8.484375 C 70.96875 7.628906 71.660156 6.929688 72.515625 6.929688 Z M 72.515625 6.929688 "/>
<path style=" stroke:none;fill-rule:nonzero;fill:rgb(0%,35.686275%,88.627451%);fill-opacity:1;" d="M 49.316406 36.890625 L 53.070312 36.890625 L 53.070312 40.664062 C 53.070312 41.523438 52.378906 42.21875 51.523438 42.21875 L 47.765625 42.21875 L 47.765625 38.445312 C 47.765625 37.589844 48.460938 36.890625 49.316406 36.890625 Z M 49.316406 36.890625 "/>
</g>
</svg>
