<?xml version="1.0" encoding="UTF-8"?>
<svg xmlns="http://www.w3.org/2000/svg" xmlns:xlink="http://www.w3.org/1999/xlink" width="80px" height="80px" viewBox="0 0 80 80" version="1.1">
<g id="surface1">
<path style=" stroke:none;fill-rule:nonzero;fill:rgb(0%,35.686275%,88.627451%);fill-opacity:1;" d="M 6.539062 65.117188 L 3.339844 63.085938 C 1.304688 61.796875 0.0703125 59.554688 0.0703125 57.144531 L 0.0703125 16.859375 C 0.0703125 13.820312 2.160156 11.175781 5.121094 10.472656 C 15.203125 8.082031 37.847656 2.710938 49.378906 0 L 49.378906 8.847656 C 49.386719 11.710938 47.417969 14.199219 44.632812 14.855469 L 18.578125 20.957031 C 15.539062 21.671875 13.390625 24.382812 13.394531 27.503906 L 13.394531 56.109375 C 13.382812 58.28125 14.5 60.300781 16.34375 61.449219 C 17.765625 62.324219 18.78125 63.050781 19.542969 63.558594 C 16.464844 64.304688 13.488281 65.011719 10.410156 65.703125 C 9.097656 66.078125 7.683594 65.867188 6.539062 65.117188 Z M 6.539062 65.117188 "/>
<path style=" stroke:none;fill-rule:nonzero;fill:rgb(0%,35.686275%,88.627451%);fill-opacity:1;" d="M 49.425781 39.816406 C 55.15625 38.460938 60.878906 37.105469 66.605469 35.75 L 66.605469 52.554688 C 66.605469 55.566406 64.539062 58.1875 61.609375 58.886719 C 54.363281 60.617188 41.230469 63.75 36.058594 64.988281 C 32.886719 65.703125 30.632812 68.519531 30.632812 71.769531 L 30.632812 80 L 74.890625 69.558594 C 77.859375 68.859375 79.957031 66.210938 79.957031 63.160156 C 79.957031 52.398438 79.957031 27.953125 79.957031 18.867188 L 68.613281 21.578125 C 64.980469 22.453125 59.378906 23.75 54.621094 24.867188 C 51.609375 25.574219 49.480469 28.257812 49.480469 31.347656 L 49.480469 39.808594 Z M 49.425781 39.816406 "/>
</g>
</svg>
