<?xml version="1.0" encoding="utf-8"?>
<!-- Generator: Adobe Illustrator 27.0.0, SVG Export Plug-In . SVG Version: 6.00 Build 0)  -->
<svg version="1.1" id="Layer_1" xmlns="http://www.w3.org/2000/svg" xmlns:xlink="http://www.w3.org/1999/xlink" x="0px" y="0px"
	 viewBox="0 0 69.5 17.6" style="enable-background:new 0 0 69.5 17.6;" xml:space="preserve">
<style type="text/css">
	.st0{fill:#9E9E9E;}
	.st1{fill:#FFFFFF;}
	
		.st2{clip-path:url(#SVGID_00000100346428195127174290000002012658016857839275_);fill:url(#SVGID_00000058577794318454779380000013972880660598089348_);}
	
		.st3{clip-path:url(#SVGID_00000057861046463822422440000016982184463414435731_);fill:url(#SVGID_00000161599419231503481020000010021090882786087817_);}
</style>
<g>
	<g>
		<path class="st0" d="M52.2,1.4c-0.3,0-0.4-0.1-0.7-0.1c-0.4,0-1,0.1-1.1,0.3s-0.3,0.4-0.3,1v6.7c0,1-0.3,1.5-0.7,1.8
			c-0.4,0.4-1.1,0.6-1.9,0.6c-0.6,0-1.2-0.1-1.7-0.3c-0.4-0.1-1-0.3-1.2-0.4V9.7c0-0.1,0-0.1,0-0.3V1.6c0-0.1-0.3-0.1-0.4-0.1l0,0
			c-0.1,0-0.4-0.1-0.7-0.1l0,0l0,0c-0.4,0-1,0.1-1.1,0.3c-0.3,0.1-0.3,0.4-0.3,1v6.7c0,1-0.3,1.5-0.7,1.8c-0.4,0.4-1.1,0.6-1.9,0.6
			c-0.6,0-1.2-0.1-1.7-0.3c-0.4-0.1-1-0.3-1.2-0.4V4.7l0,0l0,0c-0.1,0-0.3-0.1-0.4-0.1c-0.3,0-0.4-0.1-0.7-0.1c-0.4,0-1,0.1-1.1,0.3
			c-0.3,0.1-0.3,0.4-0.3,1v3.4c0,1-0.3,1.5-0.7,1.8c-0.4,0.4-1.9,0.3-1.9,0.3h-7.4c-0.4,0-1-0.1-1.1-0.3c-0.3-0.3-0.4-0.6-0.6-1.1
			l-3.2-8.5c-0.1,0-0.3,0-0.6,0c-0.3,0-0.6,0.1-1,0.3s-0.7,0.4-1,0.6c-0.1,0.3-0.1,0.6,0,1.1L19,9.3l0,0c0.3,1-0.4,1.8-1.4,1.8h-5.1
			c0,0.1-0.1,0.3-0.1,0.4c0,0.1-0.3,0.4-0.3,0.8s0.1,1,0.3,1.1c0.1,0.4,0.4,0.4,1,0.4h5c1.5,0,2.2-1,2.6-1.4c0.3,0.6,0.7,1,1.2,1.2
			c0.4,0.1,1,0.3,1.4,0.3c0,0,7.8,0,8,0c1.5-0.1,2.6-0.4,3.4-1.1c0.4,0.3,1.1,0.4,1.8,0.7c0.7,0.3,1.7,0.3,2.8,0.3
			c1.7,0,2.9-0.3,3.7-1.1c0.4,0.3,1.1,0.4,1.7,0.7c0.7,0.3,1.7,0.3,2.8,0.3c1.7,0,3-0.4,3.9-1.1c1-0.7,1.4-1.8,1.4-3.4V1.6
			C52.6,1.4,52.5,1.4,52.2,1.4z"/>
		<path class="st0" d="M12.4,7.5c0-1-0.1-1.8-0.4-2.6c-0.1-0.7-0.6-1.4-1.1-1.9c-0.7-0.4-1.2-1-2.1-1.2C8,1.4,7.3,1.3,6.5,1.3
			S4.9,1.4,4,1.7S2.8,2.5,2.2,2.9C1.8,3.5,1.4,4.2,1.1,4.9S0.6,6.5,0.6,7.5S0.7,9.3,1,10.1c0.3,0.8,0.7,1.5,1.2,1.9
			c0.6,0.6,1.1,0.8,1.8,1.1c0.8,0.3,1.5,0.4,2.3,0.4l-1.1,1.4C5,15.2,5,15.5,5,15.9c0.1,0.3,0.3,0.6,0.6,1C5.7,17,6,17.1,6.1,17.1
			c0.1,0.1,0.3,0.1,0.4,0.1l4.7-5.9l0,0c0.3-0.4,0.4-1,0.7-1.4C12.1,9.3,12.4,8.3,12.4,7.5z M8.8,10.4c-0.6,0.8-1.2,1.1-2.3,1.1
			S4.7,11.2,4,10.4C3.6,9.7,3.3,8.7,3.3,7.5s0.3-2.2,1-3s1.4-1.1,2.3-1.1s1.7,0.4,2.2,1.1c0.6,0.7,1,1.7,1,3S9.5,9.7,8.8,10.4z"/>
		<path class="st0" d="M34.3,3.3l0.4,0.4C34.9,3.9,35,3.9,35,3.9s0.3,0,0.3-0.1l0.6-0.4l0.4-0.4c0.1-0.1,0.1-0.3,0.1-0.3
			s0-0.3-0.1-0.3l-0.4-0.6l-0.3-0.4c-0.1-0.1-0.3-0.1-0.3-0.1l-0.4,0.1l-0.4,0.4L34,2.2c-0.1,0.1-0.1,0.3-0.1,0.3s0,0.3,0.1,0.3
			L34.3,3.3z"/>
		<path class="st0" d="M43.7,14.9l-0.4-0.4c-0.1-0.1-0.3-0.1-0.3-0.1c-0.1,0-0.3,0-0.3,0.1l-0.6,0.4l-0.4,0.4c0,0,0,0,0,0.1
			c0,0,0,0,0-0.1l-0.6-0.4l-0.4-0.4c-0.1,0-0.3,0-0.3,0s-0.3,0-0.3,0.1l-0.7,0.3l-0.4,0.4C39,15.5,39,15.6,39,15.6
			c0,0.1,0,0.3,0.1,0.3l0.4,0.4l0.4,0.4c0.1,0.1,0.3,0.1,0.3,0.1s0.3,0,0.3-0.1l0.4-0.4l0.4-0.4c0,0,0,0,0-0.1c0,0,0,0,0,0.1
			l0.4,0.4l0.4,0.4c0.1,0.1,0.3,0.1,0.3,0.1c0.1,0,0.3,0,0.3-0.1l0.4-0.4l0.4-0.4c0.1-0.1,0.1-0.3,0.1-0.3c0-0.1,0-0.3-0.1-0.3
			L43.7,14.9z"/>
		<path class="st0" d="M52.2,14.9l-0.4-0.4c-0.1-0.1-0.3-0.1-0.3-0.1s-0.3,0-0.3,0.1l-0.6,0.4l-0.4,0.4c0,0,0,0.1-0.1,0.1
			c0,0,0-0.1-0.1-0.1l-0.4-0.4l-0.4-0.4c-0.1-0.1-0.3-0.1-0.3-0.1c-0.1,0-0.3,0-0.3,0.1l-0.4,0.4l-0.4,0.4c0,0,0,0.1-0.1,0.1
			c0,0,0-0.1-0.1-0.1l-0.4-0.4l-0.4-0.4c-0.1-0.1-0.3-0.1-0.3-0.1s-0.3,0-0.3,0.1l-0.6,0.4l-0.4,0.4c-0.1,0.1-0.1,0.3-0.1,0.3
			c0,0.1,0,0.3,0.1,0.3l0.4,0.4l0.4,0.4c0.1,0.1,0.3,0.1,0.3,0.1s0.3,0,0.3-0.1l0.4-0.4l0.4-0.4c0,0,0-0.1,0.1-0.1
			c0,0,0,0.1,0.1,0.1l0.4,0.4l0.4,0.4c0.1,0.1,0.3,0.1,0.3,0.1c0.1,0,0.3,0,0.3-0.1l0.4-0.4l0.4-0.4c0,0,0-0.1,0.1-0.1
			c0,0,0,0.1,0.1,0.1l0.4,0.4l0.4,0.4c0.1,0.1,0.3,0.1,0.3,0.1s0.3,0,0.3-0.1l0.4-0.4l0.4-0.4c0.1-0.1,0.1-0.3,0.1-0.3
			c0-0.1,0-0.3-0.1-0.3L52.2,14.9z"/>
	</g>
	<path class="st0" d="M56.5,12.3l4.5,4.5c1,1,2.2,1,3,0l4.5-4.5c0.3-0.6,0.4-1,0.4-1.5V2.2c0-1.2-1-2.1-2.1-2.1h-9.1
		c-1.2,0-2.1,1-2.1,2.1v8.3C55.8,11.2,56.1,11.7,56.5,12.3"/>
	<path class="st1" d="M58.7,5.7L59,5.3L59.2,5c0.1-0.1,0.1-0.1,0.3-0.1c0.1,0,0.1,0,0.3,0.1l0.4,0.3l0.3,0.3
		c0.1,0.3,0.1,0.3,0.1,0.4s0,0.1-0.1,0.3l-0.3,0.3l-0.3,0.3c-0.1,0.1-0.1,0.1-0.3,0.1c-0.1,0-0.1,0-0.3-0.1l-0.3-0.3l-0.3-0.3
		c0-0.1-0.1-0.1-0.1-0.3S58.7,5.8,58.7,5.7"/>
	<path class="st1" d="M64.5,5.7l0.3-0.4L65,5c0.1-0.1,0.1-0.1,0.3-0.1s0.1,0,0.3,0.1l0.3,0.3l0.3,0.3c0.1,0.1,0.1,0.1,0.1,0.3
		s0,0.1-0.1,0.3l-0.3,0.3l-0.3,0.3c-0.1,0.1-0.1,0.1-0.3,0.1s-0.1,0-0.3-0.1l-0.3-0.1l-0.3-0.3c-0.1-0.1-0.1-0.1-0.1-0.3
		C64.2,5.8,64.5,5.8,64.5,5.7"/>
	<g>
		<g>
			<g>
				<g>
					<g>
						<defs>
							<path id="SVGID_1_" d="M59.6,7.9c-0.1,0-0.1,0-0.1,0.1l-0.3,0.3L59,8.6c-0.1,0.1-0.1,0.1-0.1,0.3c0,0.1,0,0.1,0.1,0.3
								c0.4,0.4,1.1,0.7,1.7,1.1c0.6,0.1,1.2,0.1,1.9,0.1h0.1c0.1,0,0.1,0,0.1,0l0,0l0,0c0.6,0,1.1-0.1,1.5-0.3
								c0.4-0.1,1.1-0.4,1.4-0.7c-0.1,0-0.3,0-0.4,0.1c-0.1,0-0.3,0-0.4,0l0,0l0,0c-0.1,0-0.1,0-0.3,0c-0.1,0-0.1,0-0.3,0
								c-1,0-1.8-0.1-2.3-0.3c-0.4-0.3-1.1-0.6-1.7-1.1L60.2,8l-0.1-0.1l0,0l0,0C59.8,7.9,59.8,7.9,59.6,7.9
								C59.8,7.9,59.8,7.9,59.6,7.9"/>
						</defs>
						<clipPath id="SVGID_00000016072211466674777520000006786242315304932279_">
							<use xlink:href="#SVGID_1_"  style="overflow:visible;"/>
						</clipPath>
						
							<linearGradient id="SVGID_00000114072962234043157640000007425328203983503018_" gradientUnits="userSpaceOnUse" x1="-1375.9982" y1="-644.3994" x2="-1375.8224" y2="-644.3994" gradientTransform="matrix(-40.4394 0 0 40.4394 -55578.8125 26068.3926)">
							<stop  offset="0" style="stop-color:#636363"/>
							<stop  offset="1" style="stop-color:#FFFFFF"/>
						</linearGradient>
						
							<rect x="58.7" y="7.9" style="clip-path:url(#SVGID_00000016072211466674777520000006786242315304932279_);fill:url(#SVGID_00000114072962234043157640000007425328203983503018_);" width="7" height="2.8"/>
					</g>
				</g>
			</g>
		</g>
	</g>
	<g>
		<g>
			<g>
				<g>
					<g>
						<defs>
							<path id="SVGID_00000137096473775673712290000009311900837131805079_" d="M64.9,7.9L64.9,7.9L64.9,7.9C64.7,8,64.6,8,64.6,8
								l-0.1,0.1c-0.6,0.4-1.2,0.7-1.9,1c-0.7,0.1-1.4,0.3-2.1,0.3c-0.1,0-0.1,0-0.3,0c-0.1,0-0.1,0-0.3,0l0,0l0,0
								c-0.1,0-0.3,0-0.4,0c-0.1,0-0.3,0-0.4-0.1c0.4,0.3,1,0.6,1.4,0.7c0.7,0.3,1.4,0.4,1.8,0.4l0,0l0,0h0.1c0.1,0,0.1,0,0.1,0
								c0.7,0,1.4-0.1,1.9-0.3C65,9.8,65.7,9.5,66.1,9c0.1,0,0.3-0.1,0.3-0.1c0-0.1,0-0.1-0.1-0.3L66,8.3L65.4,8l-0.1-0.1l0,0
								C65,7.9,65,7.9,64.9,7.9"/>
						</defs>
						<clipPath id="SVGID_00000124144210163619461590000015417423755675649416_">
							<use xlink:href="#SVGID_00000137096473775673712290000009311900837131805079_"  style="overflow:visible;"/>
						</clipPath>
						
							<linearGradient id="SVGID_00000131369865302275008040000014145244839790278041_" gradientUnits="userSpaceOnUse" x1="-1331.234" y1="-779.4247" x2="-1331.0586" y2="-779.4247" gradientTransform="matrix(40.4394 0 0 -40.4394 53893.3555 -31510.1973)">
							<stop  offset="0" style="stop-color:#AEAEAE"/>
							<stop  offset="1" style="stop-color:#FFFFFF"/>
						</linearGradient>
						
							<rect x="59" y="7.9" style="clip-path:url(#SVGID_00000124144210163619461590000015417423755675649416_);fill:url(#SVGID_00000131369865302275008040000014145244839790278041_);" width="7" height="2.8"/>
					</g>
				</g>
			</g>
		</g>
	</g>
</g>
</svg>
