<svg width="25" height="24" viewBox="0 0 25 24" fill="none" xmlns="http://www.w3.org/2000/svg">
    <path fill-rule="evenodd" clip-rule="evenodd" d="M12.5001 2C15.2615 2 17.5001 4.23858 17.5001 7V8C17.5001 10.7614 15.2615 13 12.5001 13C9.73866 13 7.50008 10.7614 7.50008 8V7C7.50008 4.23858 9.73866 2 12.5001 2ZM22.4958 20.908C22.0718 16.3177 18.5953 14 12.5001 14C6.40489 14 2.92841 16.3177 2.50432 20.908C2.45017 21.4941 2.91147 22 3.50008 22H21.5001C22.0887 22 22.55 21.4941 22.4958 20.908ZM4.68846 20C5.41629 17.3229 7.91937 16 12.5001 16C17.0808 16 19.5839 17.3229 20.3117 20H4.68846ZM9.50012 7C9.50012 5.34315 10.8433 4 12.5001 4C14.157 4 15.5001 5.34315 15.5001 7V8C15.5001 9.65685 14.157 11 12.5001 11C10.8433 11 9.50012 9.65685 9.50012 8V7Z" fill="#A1A3A8"/>
</svg>
