<svg width="108" height="30" viewBox="0 0 108 30" fill="none" xmlns="http://www.w3.org/2000/svg">
<g id="sheypoor 1">
<path id="Vector" fill-rule="evenodd" clip-rule="evenodd" d="M56.7385 15.6661H45.2924V13.0664C45.2924 12.6561 44.9566 12.3202 44.5462 12.3202H41.6783C41.268 12.3202 40.9321 12.6561 40.9321 13.0664V15.6661H33.5451V13.0664C33.5451 12.6561 33.2093 12.3202 32.799 12.3202H29.931C29.5207 12.3202 29.1848 12.6561 29.1848 13.0664V15.6661H21.831V13.945C21.831 10.6257 19.1403 7.93505 15.8211 7.93505C12.5018 7.93505 9.81114 10.6257 9.81114 13.945H9.81179V15.1225C9.81179 17.8197 12.0185 20.0266 14.7157 20.0266H17.2064C16.8844 20.6467 16.2358 21.0726 15.4924 21.0726H12.7113C12.1838 21.0726 11.5973 21.5044 11.4081 22.0322L10.572 24.3672C10.3411 25.0122 10.6797 25.5399 11.3247 25.5399H15.4107C18.6294 25.5399 21.3121 23.1307 21.7458 20.0268H29.2815V20.0264L29.3281 20.0268C30.2179 20.0268 30.995 19.7569 31.4132 19.3552C31.8313 19.7569 32.6085 20.0268 33.4983 20.0268L33.5449 20.0264V20.0268H41.0285V20.0264L41.0751 20.0268C41.965 20.0268 42.7421 19.7569 43.1603 19.3552C43.5784 19.7569 44.3556 20.0268 45.2454 20.0268L45.292 20.0264V20.0268H62.1852C62.8886 20.0268 63.6853 19.4512 63.9553 18.7475L64.7283 16.7325C64.9532 16.1462 64.6577 15.6666 64.0712 15.6666H56.7381L56.7385 15.6661ZM15.8211 12.4771C16.7018 12.4771 17.4155 13.191 17.4155 14.0715V15.6661H14.7412C14.4581 15.6661 14.2264 15.4345 14.2264 15.1513V14.0715C14.2264 13.1908 14.9403 12.4771 15.8211 12.4771ZM8.89012 16.6654L5.71086 25.203C5.64954 25.3679 5.44567 25.5027 5.25804 25.5027H2.12666C1.43854 25.5027 1.05939 25.0083 1.2845 24.4038L4.05449 16.9648C4.32055 16.2504 5.20366 15.6661 6.017 15.6661H8.12445C8.75016 15.6661 9.09465 16.1157 8.8899 16.6651L8.89012 16.6654ZM29.1537 25.6086C30.3819 25.6086 31.3777 24.6129 31.3777 23.3844C31.3777 22.1562 30.3819 21.1604 29.1537 21.1604C27.9252 21.1604 26.9296 22.1562 26.9296 23.3844C26.9296 24.6129 27.9254 25.6086 29.1537 25.6086ZM24.8748 28.5715C25.4891 29.6353 26.8493 29.9999 27.9131 29.3854C28.9769 28.7712 29.3413 27.411 28.727 26.3472C28.1128 25.2834 26.7526 24.919 25.6888 25.5332C24.625 26.1475 24.2606 27.5077 24.8748 28.5712V28.5715ZM24.4482 25.6086C25.6767 25.6086 26.6722 24.6129 26.6722 23.3844C26.6722 22.1562 25.6765 21.1604 24.4482 21.1604C23.22 21.1604 22.2242 22.1562 22.2242 23.3844C22.2242 24.6129 23.22 25.6086 24.4482 25.6086ZM39.6584 21.1604C40.8869 21.1604 41.8824 22.1562 41.8824 23.3844C41.8824 24.6129 40.8866 25.6086 39.6584 25.6086C38.4302 25.6086 37.4344 24.6129 37.4344 23.3844C37.4344 22.1562 38.4302 21.1604 39.6584 21.1604ZM34.953 21.1604C36.1812 21.1604 37.177 22.1562 37.177 23.3844C37.177 24.6129 36.1812 25.6086 34.953 25.6086C33.7245 25.6086 32.729 24.6129 32.729 23.3844C32.729 22.1562 33.7247 21.1604 34.953 21.1604ZM59.8522 9.16503C61.0804 9.16503 62.0762 10.1608 62.0762 11.389C62.0762 12.6175 61.0804 13.6131 59.8522 13.6131C58.6237 13.6131 57.6279 12.6173 57.6279 11.389C57.6279 10.1606 58.6237 9.16503 59.8522 9.16503ZM55.5733 6.20199C56.1876 5.13819 57.5478 4.77377 58.6116 5.388C59.6754 6.00223 60.0398 7.36242 59.4256 8.42622C58.8113 9.49002 57.4511 9.85444 56.3873 9.24021C55.3235 8.62598 54.9591 7.26579 55.5733 6.20199ZM55.1467 9.16503C56.3752 9.16503 57.3708 10.1608 57.3708 11.389C57.3708 12.6175 56.375 13.6131 55.1467 13.6131C53.9183 13.6131 52.9227 12.6173 52.9227 11.389C52.9227 10.1606 53.9185 9.16503 55.1467 9.16503Z" fill="#A7ADBC"/>
<path id="Vector_2" fill-rule="evenodd" clip-rule="evenodd" d="M101.796 15.5677L91.4541 11.681L89.9369 15.7176L89.9401 15.7187L89.9369 15.7174C87.616 14.8451 85.0274 16.0194 84.1551 18.3403C83.2828 20.6612 84.4571 23.2498 86.778 24.1221L85.2609 28.1587C80.7106 26.4486 78.4082 21.3733 80.1185 16.823C81.8286 12.2727 86.9038 9.9703 91.4541 11.6806C94.4694 12.814 96.4969 15.4247 97.0245 18.3812L100.278 19.6041L99.6926 21.1629C99.5687 21.4923 99.737 21.863 100.066 21.9867L102.905 23.0537C103.235 23.1774 103.605 23.0093 103.729 22.68L106.418 15.5255C106.542 15.1961 106.374 14.8254 106.044 14.7017L103.205 13.6347C102.876 13.511 102.505 13.6791 102.381 14.0084L101.796 15.5673V15.5677Z" fill="#A7ADBC"/>
<path id="Vector_3" fill-rule="evenodd" clip-rule="evenodd" d="M91.4539 11.6811L85.5597 9.46575L78.4667 0.856343C78.2802 0.629717 78.0388 0.259013 77.7515 0.150899C77.3502 0.000104263 76.9028 0.203114 76.752 0.604368L76.7473 0.617801H76.7471L74.1656 7.48678L71.5838 14.3558V14.356L71.5786 14.3692C71.4279 14.7704 71.6309 15.2178 72.0321 15.3686C72.3194 15.4765 72.7451 15.3565 73.0348 15.3088L84.0426 13.5023L89.9369 15.7175L89.9401 15.7188C92.259 16.5921 93.4318 19.1795 92.56 21.4995C91.6877 23.8203 89.0991 24.9946 86.7782 24.1223L85.2611 28.1589C89.8114 29.8692 94.8865 27.5668 96.5968 23.0165C97.1737 21.4815 97.294 19.8869 97.0253 18.3817L97.0247 18.3815C96.4971 15.425 94.4694 12.8142 91.4544 11.6809L91.4539 11.6811ZM89.9367 15.7177L91.4539 11.6811L89.9367 15.7177Z" fill="#A7ADBC"/>
</g>
</svg>
